%TF.GenerationSoftware,KiCad,Pcbnew,8.99.0-unknown-3024a7c569~178~ubuntu22.04.1*%
%TF.CreationDate,2024-05-19T15:23:04+10:00*%
%TF.ProjectId,SkyMusicPad,536b794d-7573-4696-9350-61642e6b6963,rev?*%
%TF.SameCoordinates,Original*%
%TF.FileFunction,Drillmap*%
%TF.FilePolarity,Positive*%
%FSLAX45Y45*%
G04 Gerber Fmt 4.5, Leading zero omitted, Abs format (unit mm)*
G04 Created by KiCad (PCBNEW 8.99.0-unknown-3024a7c569~178~ubuntu22.04.1) date 2024-05-19 15:23:04*
%MOMM*%
%LPD*%
G01*
G04 APERTURE LIST*
%ADD10C,0.100000*%
%ADD11C,0.200000*%
%ADD12C,0.150000*%
%ADD13C,0.220000*%
G04 APERTURE END LIST*
D10*
X2000000Y-6850000D02*
G75*
G02*
X2150000Y-6700000I150000J0D01*
G01*
X4100000Y-6550000D02*
G75*
G02*
X3950000Y-6700000I-150000J0D01*
G01*
X13750000Y-9100000D02*
G75*
G02*
X13600000Y-9250000I-150000J0D01*
G01*
X2000000Y-3150000D02*
G75*
G02*
X2150000Y-3000000I150000J0D01*
G01*
X4100000Y-6550000D02*
X4100000Y-5575000D01*
X13600000Y-3000000D02*
G75*
G02*
X13750000Y-3150000I0J-150000D01*
G01*
X2150000Y-3000000D02*
X13600000Y-3000000D01*
X13750000Y-3150000D02*
X13750000Y-9100000D01*
X2150000Y-9250000D02*
G75*
G02*
X2000000Y-9100000I0J150000D01*
G01*
X2150000Y-5425000D02*
G75*
G02*
X2000000Y-5275000I0J150000D01*
G01*
X3950000Y-5425000D02*
G75*
G02*
X4100000Y-5575000I0J-150000D01*
G01*
X3950000Y-5425000D02*
X2150000Y-5425000D01*
X2000000Y-5275000D02*
X2000000Y-3150000D01*
X2000000Y-9100000D02*
X2000000Y-6850000D01*
X2150000Y-6700000D02*
X3950000Y-6700000D01*
X13600000Y-9250000D02*
X2150000Y-9250000D01*
D11*
D10*
X4398000Y-4640000D02*
X4438000Y-4680000D01*
X4438000Y-4640000D02*
X4398000Y-4680000D01*
X6138000Y-4640000D02*
X6178000Y-4680000D01*
X6178000Y-4640000D02*
X6138000Y-4680000D01*
X6138000Y-6394000D02*
X6178000Y-6434000D01*
X6178000Y-6394000D02*
X6138000Y-6434000D01*
X7898000Y-4640000D02*
X7938000Y-4680000D01*
X7938000Y-4640000D02*
X7898000Y-4680000D01*
X7898000Y-6394000D02*
X7938000Y-6434000D01*
X7938000Y-6394000D02*
X7898000Y-6434000D01*
X9638000Y-4640000D02*
X9678000Y-4680000D01*
X9678000Y-4640000D02*
X9638000Y-4680000D01*
X9638000Y-6394000D02*
X9678000Y-6434000D01*
X9678000Y-6394000D02*
X9638000Y-6434000D01*
X11398000Y-4640000D02*
X11438000Y-4680000D01*
X11438000Y-4640000D02*
X11398000Y-4680000D01*
X11398000Y-6394000D02*
X11438000Y-6434000D01*
X11438000Y-6394000D02*
X11398000Y-6434000D01*
X2355000Y-3500000D02*
G75*
G02*
X2315000Y-3500000I-20000J0D01*
G01*
X2315000Y-3500000D02*
G75*
G02*
X2355000Y-3500000I20000J0D01*
G01*
X2355000Y-8750000D02*
G75*
G02*
X2315000Y-8750000I-20000J0D01*
G01*
X2315000Y-8750000D02*
G75*
G02*
X2355000Y-8750000I20000J0D01*
G01*
X2403327Y-3383327D02*
G75*
G02*
X2363327Y-3383327I-20000J0D01*
G01*
X2363327Y-3383327D02*
G75*
G02*
X2403327Y-3383327I20000J0D01*
G01*
X2403327Y-3616673D02*
G75*
G02*
X2363327Y-3616673I-20000J0D01*
G01*
X2363327Y-3616673D02*
G75*
G02*
X2403327Y-3616673I20000J0D01*
G01*
X2403327Y-8633327D02*
G75*
G02*
X2363327Y-8633327I-20000J0D01*
G01*
X2363327Y-8633327D02*
G75*
G02*
X2403327Y-8633327I20000J0D01*
G01*
X2403327Y-8866673D02*
G75*
G02*
X2363327Y-8866673I-20000J0D01*
G01*
X2363327Y-8866673D02*
G75*
G02*
X2403327Y-8866673I20000J0D01*
G01*
X2520000Y-3335000D02*
G75*
G02*
X2480000Y-3335000I-20000J0D01*
G01*
X2480000Y-3335000D02*
G75*
G02*
X2520000Y-3335000I20000J0D01*
G01*
X2520000Y-3665000D02*
G75*
G02*
X2480000Y-3665000I-20000J0D01*
G01*
X2480000Y-3665000D02*
G75*
G02*
X2520000Y-3665000I20000J0D01*
G01*
X2520000Y-8585000D02*
G75*
G02*
X2480000Y-8585000I-20000J0D01*
G01*
X2480000Y-8585000D02*
G75*
G02*
X2520000Y-8585000I20000J0D01*
G01*
X2520000Y-8915000D02*
G75*
G02*
X2480000Y-8915000I-20000J0D01*
G01*
X2480000Y-8915000D02*
G75*
G02*
X2520000Y-8915000I20000J0D01*
G01*
X2636673Y-3383327D02*
G75*
G02*
X2596673Y-3383327I-20000J0D01*
G01*
X2596673Y-3383327D02*
G75*
G02*
X2636673Y-3383327I20000J0D01*
G01*
X2636673Y-3616673D02*
G75*
G02*
X2596673Y-3616673I-20000J0D01*
G01*
X2596673Y-3616673D02*
G75*
G02*
X2636673Y-3616673I20000J0D01*
G01*
X2636673Y-8633327D02*
G75*
G02*
X2596673Y-8633327I-20000J0D01*
G01*
X2596673Y-8633327D02*
G75*
G02*
X2636673Y-8633327I20000J0D01*
G01*
X2636673Y-8866673D02*
G75*
G02*
X2596673Y-8866673I-20000J0D01*
G01*
X2596673Y-8866673D02*
G75*
G02*
X2636673Y-8866673I20000J0D01*
G01*
X2685000Y-3500000D02*
G75*
G02*
X2645000Y-3500000I-20000J0D01*
G01*
X2645000Y-3500000D02*
G75*
G02*
X2685000Y-3500000I20000J0D01*
G01*
X2685000Y-8750000D02*
G75*
G02*
X2645000Y-8750000I-20000J0D01*
G01*
X2645000Y-8750000D02*
G75*
G02*
X2685000Y-8750000I20000J0D01*
G01*
X13105000Y-3500000D02*
G75*
G02*
X13065000Y-3500000I-20000J0D01*
G01*
X13065000Y-3500000D02*
G75*
G02*
X13105000Y-3500000I20000J0D01*
G01*
X13105000Y-8750000D02*
G75*
G02*
X13065000Y-8750000I-20000J0D01*
G01*
X13065000Y-8750000D02*
G75*
G02*
X13105000Y-8750000I20000J0D01*
G01*
X13153327Y-3383327D02*
G75*
G02*
X13113327Y-3383327I-20000J0D01*
G01*
X13113327Y-3383327D02*
G75*
G02*
X13153327Y-3383327I20000J0D01*
G01*
X13153327Y-3616673D02*
G75*
G02*
X13113327Y-3616673I-20000J0D01*
G01*
X13113327Y-3616673D02*
G75*
G02*
X13153327Y-3616673I20000J0D01*
G01*
X13153327Y-8633327D02*
G75*
G02*
X13113327Y-8633327I-20000J0D01*
G01*
X13113327Y-8633327D02*
G75*
G02*
X13153327Y-8633327I20000J0D01*
G01*
X13153327Y-8866673D02*
G75*
G02*
X13113327Y-8866673I-20000J0D01*
G01*
X13113327Y-8866673D02*
G75*
G02*
X13153327Y-8866673I20000J0D01*
G01*
X13270000Y-3335000D02*
G75*
G02*
X13230000Y-3335000I-20000J0D01*
G01*
X13230000Y-3335000D02*
G75*
G02*
X13270000Y-3335000I20000J0D01*
G01*
X13270000Y-3665000D02*
G75*
G02*
X13230000Y-3665000I-20000J0D01*
G01*
X13230000Y-3665000D02*
G75*
G02*
X13270000Y-3665000I20000J0D01*
G01*
X13270000Y-8585000D02*
G75*
G02*
X13230000Y-8585000I-20000J0D01*
G01*
X13230000Y-8585000D02*
G75*
G02*
X13270000Y-8585000I20000J0D01*
G01*
X13270000Y-8915000D02*
G75*
G02*
X13230000Y-8915000I-20000J0D01*
G01*
X13230000Y-8915000D02*
G75*
G02*
X13270000Y-8915000I20000J0D01*
G01*
X13386673Y-3383327D02*
G75*
G02*
X13346673Y-3383327I-20000J0D01*
G01*
X13346673Y-3383327D02*
G75*
G02*
X13386673Y-3383327I20000J0D01*
G01*
X13386673Y-3616673D02*
G75*
G02*
X13346673Y-3616673I-20000J0D01*
G01*
X13346673Y-3616673D02*
G75*
G02*
X13386673Y-3616673I20000J0D01*
G01*
X13386673Y-8633327D02*
G75*
G02*
X13346673Y-8633327I-20000J0D01*
G01*
X13346673Y-8633327D02*
G75*
G02*
X13386673Y-8633327I20000J0D01*
G01*
X13386673Y-8866673D02*
G75*
G02*
X13346673Y-8866673I-20000J0D01*
G01*
X13346673Y-8866673D02*
G75*
G02*
X13386673Y-8866673I20000J0D01*
G01*
X13435000Y-3500000D02*
G75*
G02*
X13395000Y-3500000I-20000J0D01*
G01*
X13395000Y-3500000D02*
G75*
G02*
X13435000Y-3500000I20000J0D01*
G01*
X13435000Y-8750000D02*
G75*
G02*
X13395000Y-8750000I-20000J0D01*
G01*
X13395000Y-8750000D02*
G75*
G02*
X13435000Y-8750000I20000J0D01*
G01*
X2156000Y-5277500D02*
X2156000Y-5357500D01*
X2116000Y-5317500D02*
X2196000Y-5317500D01*
X2156000Y-6801500D02*
X2156000Y-6881500D01*
X2116000Y-6841500D02*
X2196000Y-6841500D01*
X2410000Y-5277500D02*
X2410000Y-5357500D01*
X2370000Y-5317500D02*
X2450000Y-5317500D01*
X2410000Y-6801500D02*
X2410000Y-6881500D01*
X2370000Y-6841500D02*
X2450000Y-6841500D01*
X2664000Y-5277500D02*
X2664000Y-5357500D01*
X2624000Y-5317500D02*
X2704000Y-5317500D01*
X2664000Y-6801500D02*
X2664000Y-6881500D01*
X2624000Y-6841500D02*
X2704000Y-6841500D01*
X2918000Y-5277500D02*
X2918000Y-5357500D01*
X2878000Y-5317500D02*
X2958000Y-5317500D01*
X2918000Y-6801500D02*
X2918000Y-6881500D01*
X2878000Y-6841500D02*
X2958000Y-6841500D01*
X3172000Y-5277500D02*
X3172000Y-5357500D01*
X3132000Y-5317500D02*
X3212000Y-5317500D01*
X3172000Y-6801500D02*
X3172000Y-6881500D01*
X3132000Y-6841500D02*
X3212000Y-6841500D01*
X3426000Y-5277500D02*
X3426000Y-5357500D01*
X3386000Y-5317500D02*
X3466000Y-5317500D01*
X3426000Y-6801500D02*
X3426000Y-6881500D01*
X3386000Y-6841500D02*
X3466000Y-6841500D01*
X3680000Y-5277500D02*
X3680000Y-5357500D01*
X3640000Y-5317500D02*
X3720000Y-5317500D01*
X3680000Y-6801500D02*
X3680000Y-6881500D01*
X3640000Y-6841500D02*
X3720000Y-6841500D01*
X3934000Y-5277500D02*
X3934000Y-5357500D01*
X3894000Y-5317500D02*
X3974000Y-5317500D01*
X3934000Y-6801500D02*
X3934000Y-6881500D01*
X3894000Y-6841500D02*
X3974000Y-6841500D01*
X4188000Y-5277500D02*
X4188000Y-5357500D01*
X4148000Y-5317500D02*
X4228000Y-5317500D01*
X4188000Y-6801500D02*
X4188000Y-6881500D01*
X4148000Y-6841500D02*
X4228000Y-6841500D01*
X4209000Y-5531500D02*
X4209000Y-5611500D01*
X4169000Y-5571500D02*
X4249000Y-5571500D01*
X4209000Y-5785500D02*
X4209000Y-5865500D01*
X4169000Y-5825500D02*
X4249000Y-5825500D01*
X4209000Y-6039500D02*
X4209000Y-6119500D01*
X4169000Y-6079500D02*
X4249000Y-6079500D01*
X4209000Y-6293500D02*
X4209000Y-6373500D01*
X4169000Y-6333500D02*
X4249000Y-6333500D01*
X4209000Y-6547500D02*
X4209000Y-6627500D01*
X4169000Y-6587500D02*
X4249000Y-6587500D01*
X3325356Y-3430356D02*
X3325356Y-3359644D01*
X3254644Y-3359644D01*
X3254644Y-3430356D01*
X3325356Y-3430356D01*
X3325356Y-4880356D02*
X3325356Y-4809644D01*
X3254644Y-4809644D01*
X3254644Y-4880356D01*
X3325356Y-4880356D01*
X3575356Y-4880356D02*
X3575356Y-4809644D01*
X3504644Y-4809644D01*
X3504644Y-4880356D01*
X3575356Y-4880356D01*
X3825356Y-3430356D02*
X3825356Y-3359644D01*
X3754644Y-3359644D01*
X3754644Y-3430356D01*
X3825356Y-3430356D01*
X3825356Y-4880356D02*
X3825356Y-4809644D01*
X3754644Y-4809644D01*
X3754644Y-4880356D01*
X3825356Y-4880356D01*
D12*
X4859000Y-4191000D02*
X4934000Y-4116000D01*
X4859000Y-4041000D01*
X4784000Y-4116000D01*
X4859000Y-4191000D01*
X4859000Y-5945000D02*
X4934000Y-5870000D01*
X4859000Y-5795000D01*
X4784000Y-5870000D01*
X4859000Y-5945000D01*
X4859000Y-7691000D02*
X4934000Y-7616000D01*
X4859000Y-7541000D01*
X4784000Y-7616000D01*
X4859000Y-7691000D01*
X5494000Y-3937000D02*
X5569000Y-3862000D01*
X5494000Y-3787000D01*
X5419000Y-3862000D01*
X5494000Y-3937000D01*
X5494000Y-5691000D02*
X5569000Y-5616000D01*
X5494000Y-5541000D01*
X5419000Y-5616000D01*
X5494000Y-5691000D01*
X5494000Y-7437000D02*
X5569000Y-7362000D01*
X5494000Y-7287000D01*
X5419000Y-7362000D01*
X5494000Y-7437000D01*
X6609000Y-4191000D02*
X6684000Y-4116000D01*
X6609000Y-4041000D01*
X6534000Y-4116000D01*
X6609000Y-4191000D01*
X6609000Y-5945000D02*
X6684000Y-5870000D01*
X6609000Y-5795000D01*
X6534000Y-5870000D01*
X6609000Y-5945000D01*
X6609000Y-7691000D02*
X6684000Y-7616000D01*
X6609000Y-7541000D01*
X6534000Y-7616000D01*
X6609000Y-7691000D01*
X7244000Y-3937000D02*
X7319000Y-3862000D01*
X7244000Y-3787000D01*
X7169000Y-3862000D01*
X7244000Y-3937000D01*
X7244000Y-5691000D02*
X7319000Y-5616000D01*
X7244000Y-5541000D01*
X7169000Y-5616000D01*
X7244000Y-5691000D01*
X7244000Y-7437000D02*
X7319000Y-7362000D01*
X7244000Y-7287000D01*
X7169000Y-7362000D01*
X7244000Y-7437000D01*
X8359000Y-4191000D02*
X8434000Y-4116000D01*
X8359000Y-4041000D01*
X8284000Y-4116000D01*
X8359000Y-4191000D01*
X8359000Y-5945000D02*
X8434000Y-5870000D01*
X8359000Y-5795000D01*
X8284000Y-5870000D01*
X8359000Y-5945000D01*
X8359000Y-7691000D02*
X8434000Y-7616000D01*
X8359000Y-7541000D01*
X8284000Y-7616000D01*
X8359000Y-7691000D01*
X8994000Y-3937000D02*
X9069000Y-3862000D01*
X8994000Y-3787000D01*
X8919000Y-3862000D01*
X8994000Y-3937000D01*
X8994000Y-5691000D02*
X9069000Y-5616000D01*
X8994000Y-5541000D01*
X8919000Y-5616000D01*
X8994000Y-5691000D01*
X8994000Y-7437000D02*
X9069000Y-7362000D01*
X8994000Y-7287000D01*
X8919000Y-7362000D01*
X8994000Y-7437000D01*
X10109000Y-4191000D02*
X10184000Y-4116000D01*
X10109000Y-4041000D01*
X10034000Y-4116000D01*
X10109000Y-4191000D01*
X10109000Y-5945000D02*
X10184000Y-5870000D01*
X10109000Y-5795000D01*
X10034000Y-5870000D01*
X10109000Y-5945000D01*
X10109000Y-7691000D02*
X10184000Y-7616000D01*
X10109000Y-7541000D01*
X10034000Y-7616000D01*
X10109000Y-7691000D01*
X10744000Y-3937000D02*
X10819000Y-3862000D01*
X10744000Y-3787000D01*
X10669000Y-3862000D01*
X10744000Y-3937000D01*
X10744000Y-5691000D02*
X10819000Y-5616000D01*
X10744000Y-5541000D01*
X10669000Y-5616000D01*
X10744000Y-5691000D01*
X10744000Y-7437000D02*
X10819000Y-7362000D01*
X10744000Y-7287000D01*
X10669000Y-7362000D01*
X10744000Y-7437000D01*
X11859000Y-4191000D02*
X11934000Y-4116000D01*
X11859000Y-4041000D01*
X11784000Y-4116000D01*
X11859000Y-4191000D01*
X11859000Y-5945000D02*
X11934000Y-5870000D01*
X11859000Y-5795000D01*
X11784000Y-5870000D01*
X11859000Y-5945000D01*
X11859000Y-7691000D02*
X11934000Y-7616000D01*
X11859000Y-7541000D01*
X11784000Y-7616000D01*
X11859000Y-7691000D01*
X12494000Y-3937000D02*
X12569000Y-3862000D01*
X12494000Y-3787000D01*
X12419000Y-3862000D01*
X12494000Y-3937000D01*
X12494000Y-5691000D02*
X12569000Y-5616000D01*
X12494000Y-5541000D01*
X12419000Y-5616000D01*
X12494000Y-5691000D01*
X12494000Y-7437000D02*
X12569000Y-7362000D01*
X12494000Y-7287000D01*
X12419000Y-7362000D01*
X12494000Y-7437000D01*
D11*
X2880000Y-3995000D02*
X3080000Y-4195000D01*
X3080000Y-3995000D02*
X2880000Y-4195000D01*
X3080000Y-4095000D02*
G75*
G02*
X2880000Y-4095000I-100000J0D01*
G01*
X2880000Y-4095000D02*
G75*
G02*
X3080000Y-4095000I100000J0D01*
G01*
D10*
X3080000Y-4150000D02*
X3080000Y-4040000D01*
X2880000Y-4040000D02*
G75*
G02*
X3080000Y-4040000I100000J0D01*
G01*
X2880000Y-4040000D02*
X2880000Y-4150000D01*
X2880000Y-4150000D02*
G75*
G03*
X3080000Y-4150000I100000J0D01*
G01*
D11*
X4000000Y-3995000D02*
X4200000Y-4195000D01*
X4200000Y-3995000D02*
X4000000Y-4195000D01*
X4200000Y-4095000D02*
G75*
G02*
X4000000Y-4095000I-100000J0D01*
G01*
X4000000Y-4095000D02*
G75*
G02*
X4200000Y-4095000I100000J0D01*
G01*
D10*
X4200000Y-4150000D02*
X4200000Y-4040000D01*
X4000000Y-4040000D02*
G75*
G02*
X4200000Y-4040000I100000J0D01*
G01*
X4000000Y-4040000D02*
X4000000Y-4150000D01*
X4000000Y-4150000D02*
G75*
G03*
X4200000Y-4150000I100000J0D01*
G01*
D13*
X2390000Y-3390000D02*
X2610000Y-3610000D01*
X2610000Y-3390000D02*
X2390000Y-3610000D01*
X2500000Y-3390000D02*
X2500000Y-3610000D01*
X2390000Y-3500000D02*
X2610000Y-3500000D01*
X2390000Y-8640000D02*
X2610000Y-8860000D01*
X2610000Y-8640000D02*
X2390000Y-8860000D01*
X2500000Y-8640000D02*
X2500000Y-8860000D01*
X2390000Y-8750000D02*
X2610000Y-8750000D01*
X13140000Y-3390000D02*
X13360000Y-3610000D01*
X13360000Y-3390000D02*
X13140000Y-3610000D01*
X13250000Y-3390000D02*
X13250000Y-3610000D01*
X13140000Y-3500000D02*
X13360000Y-3500000D01*
X13140000Y-8640000D02*
X13360000Y-8860000D01*
X13360000Y-8640000D02*
X13140000Y-8860000D01*
X13250000Y-8640000D02*
X13250000Y-8860000D01*
X13140000Y-8750000D02*
X13360000Y-8750000D01*
D11*
X2255777Y-9566484D02*
X2255777Y-9366484D01*
X2255777Y-9366484D02*
X2303396Y-9366484D01*
X2303396Y-9366484D02*
X2331967Y-9376008D01*
X2331967Y-9376008D02*
X2351015Y-9395055D01*
X2351015Y-9395055D02*
X2360539Y-9414103D01*
X2360539Y-9414103D02*
X2370063Y-9452198D01*
X2370063Y-9452198D02*
X2370063Y-9480770D01*
X2370063Y-9480770D02*
X2360539Y-9518865D01*
X2360539Y-9518865D02*
X2351015Y-9537912D01*
X2351015Y-9537912D02*
X2331967Y-9556960D01*
X2331967Y-9556960D02*
X2303396Y-9566484D01*
X2303396Y-9566484D02*
X2255777Y-9566484D01*
X2455777Y-9566484D02*
X2455777Y-9433150D01*
X2455777Y-9471246D02*
X2465301Y-9452198D01*
X2465301Y-9452198D02*
X2474824Y-9442674D01*
X2474824Y-9442674D02*
X2493872Y-9433150D01*
X2493872Y-9433150D02*
X2512920Y-9433150D01*
X2579586Y-9566484D02*
X2579586Y-9433150D01*
X2579586Y-9366484D02*
X2570063Y-9376008D01*
X2570063Y-9376008D02*
X2579586Y-9385531D01*
X2579586Y-9385531D02*
X2589110Y-9376008D01*
X2589110Y-9376008D02*
X2579586Y-9366484D01*
X2579586Y-9366484D02*
X2579586Y-9385531D01*
X2703396Y-9566484D02*
X2684348Y-9556960D01*
X2684348Y-9556960D02*
X2674824Y-9537912D01*
X2674824Y-9537912D02*
X2674824Y-9366484D01*
X2808158Y-9566484D02*
X2789110Y-9556960D01*
X2789110Y-9556960D02*
X2779586Y-9537912D01*
X2779586Y-9537912D02*
X2779586Y-9366484D01*
X3036729Y-9566484D02*
X3036729Y-9366484D01*
X3036729Y-9366484D02*
X3103396Y-9509341D01*
X3103396Y-9509341D02*
X3170062Y-9366484D01*
X3170062Y-9366484D02*
X3170062Y-9566484D01*
X3351015Y-9566484D02*
X3351015Y-9461722D01*
X3351015Y-9461722D02*
X3341491Y-9442674D01*
X3341491Y-9442674D02*
X3322443Y-9433150D01*
X3322443Y-9433150D02*
X3284348Y-9433150D01*
X3284348Y-9433150D02*
X3265301Y-9442674D01*
X3351015Y-9556960D02*
X3331967Y-9566484D01*
X3331967Y-9566484D02*
X3284348Y-9566484D01*
X3284348Y-9566484D02*
X3265301Y-9556960D01*
X3265301Y-9556960D02*
X3255777Y-9537912D01*
X3255777Y-9537912D02*
X3255777Y-9518865D01*
X3255777Y-9518865D02*
X3265301Y-9499817D01*
X3265301Y-9499817D02*
X3284348Y-9490293D01*
X3284348Y-9490293D02*
X3331967Y-9490293D01*
X3331967Y-9490293D02*
X3351015Y-9480770D01*
X3446253Y-9433150D02*
X3446253Y-9633150D01*
X3446253Y-9442674D02*
X3465301Y-9433150D01*
X3465301Y-9433150D02*
X3503396Y-9433150D01*
X3503396Y-9433150D02*
X3522443Y-9442674D01*
X3522443Y-9442674D02*
X3531967Y-9452198D01*
X3531967Y-9452198D02*
X3541491Y-9471246D01*
X3541491Y-9471246D02*
X3541491Y-9528389D01*
X3541491Y-9528389D02*
X3531967Y-9547436D01*
X3531967Y-9547436D02*
X3522443Y-9556960D01*
X3522443Y-9556960D02*
X3503396Y-9566484D01*
X3503396Y-9566484D02*
X3465301Y-9566484D01*
X3465301Y-9566484D02*
X3446253Y-9556960D01*
X3627205Y-9547436D02*
X3636729Y-9556960D01*
X3636729Y-9556960D02*
X3627205Y-9566484D01*
X3627205Y-9566484D02*
X3617682Y-9556960D01*
X3617682Y-9556960D02*
X3627205Y-9547436D01*
X3627205Y-9547436D02*
X3627205Y-9566484D01*
X3627205Y-9442674D02*
X3636729Y-9452198D01*
X3636729Y-9452198D02*
X3627205Y-9461722D01*
X3627205Y-9461722D02*
X3617682Y-9452198D01*
X3617682Y-9452198D02*
X3627205Y-9442674D01*
X3627205Y-9442674D02*
X3627205Y-9461722D01*
D10*
X1955000Y-9875000D02*
X1995000Y-9915000D01*
X1995000Y-9875000D02*
X1955000Y-9915000D01*
D11*
X2293872Y-9786484D02*
X2312920Y-9786484D01*
X2312920Y-9786484D02*
X2331967Y-9796008D01*
X2331967Y-9796008D02*
X2341491Y-9805531D01*
X2341491Y-9805531D02*
X2351015Y-9824579D01*
X2351015Y-9824579D02*
X2360539Y-9862674D01*
X2360539Y-9862674D02*
X2360539Y-9910293D01*
X2360539Y-9910293D02*
X2351015Y-9948389D01*
X2351015Y-9948389D02*
X2341491Y-9967436D01*
X2341491Y-9967436D02*
X2331967Y-9976960D01*
X2331967Y-9976960D02*
X2312920Y-9986484D01*
X2312920Y-9986484D02*
X2293872Y-9986484D01*
X2293872Y-9986484D02*
X2274824Y-9976960D01*
X2274824Y-9976960D02*
X2265301Y-9967436D01*
X2265301Y-9967436D02*
X2255777Y-9948389D01*
X2255777Y-9948389D02*
X2246253Y-9910293D01*
X2246253Y-9910293D02*
X2246253Y-9862674D01*
X2246253Y-9862674D02*
X2255777Y-9824579D01*
X2255777Y-9824579D02*
X2265301Y-9805531D01*
X2265301Y-9805531D02*
X2274824Y-9796008D01*
X2274824Y-9796008D02*
X2293872Y-9786484D01*
X2446253Y-9967436D02*
X2455777Y-9976960D01*
X2455777Y-9976960D02*
X2446253Y-9986484D01*
X2446253Y-9986484D02*
X2436729Y-9976960D01*
X2436729Y-9976960D02*
X2446253Y-9967436D01*
X2446253Y-9967436D02*
X2446253Y-9986484D01*
X2627205Y-9853150D02*
X2627205Y-9986484D01*
X2579586Y-9776960D02*
X2531967Y-9919817D01*
X2531967Y-9919817D02*
X2655777Y-9919817D01*
X2770063Y-9786484D02*
X2789110Y-9786484D01*
X2789110Y-9786484D02*
X2808158Y-9796008D01*
X2808158Y-9796008D02*
X2817682Y-9805531D01*
X2817682Y-9805531D02*
X2827205Y-9824579D01*
X2827205Y-9824579D02*
X2836729Y-9862674D01*
X2836729Y-9862674D02*
X2836729Y-9910293D01*
X2836729Y-9910293D02*
X2827205Y-9948389D01*
X2827205Y-9948389D02*
X2817682Y-9967436D01*
X2817682Y-9967436D02*
X2808158Y-9976960D01*
X2808158Y-9976960D02*
X2789110Y-9986484D01*
X2789110Y-9986484D02*
X2770063Y-9986484D01*
X2770063Y-9986484D02*
X2751015Y-9976960D01*
X2751015Y-9976960D02*
X2741491Y-9967436D01*
X2741491Y-9967436D02*
X2731967Y-9948389D01*
X2731967Y-9948389D02*
X2722444Y-9910293D01*
X2722444Y-9910293D02*
X2722444Y-9862674D01*
X2722444Y-9862674D02*
X2731967Y-9824579D01*
X2731967Y-9824579D02*
X2741491Y-9805531D01*
X2741491Y-9805531D02*
X2751015Y-9796008D01*
X2751015Y-9796008D02*
X2770063Y-9786484D01*
X2960539Y-9786484D02*
X2979586Y-9786484D01*
X2979586Y-9786484D02*
X2998634Y-9796008D01*
X2998634Y-9796008D02*
X3008158Y-9805531D01*
X3008158Y-9805531D02*
X3017682Y-9824579D01*
X3017682Y-9824579D02*
X3027205Y-9862674D01*
X3027205Y-9862674D02*
X3027205Y-9910293D01*
X3027205Y-9910293D02*
X3017682Y-9948389D01*
X3017682Y-9948389D02*
X3008158Y-9967436D01*
X3008158Y-9967436D02*
X2998634Y-9976960D01*
X2998634Y-9976960D02*
X2979586Y-9986484D01*
X2979586Y-9986484D02*
X2960539Y-9986484D01*
X2960539Y-9986484D02*
X2941491Y-9976960D01*
X2941491Y-9976960D02*
X2931967Y-9967436D01*
X2931967Y-9967436D02*
X2922443Y-9948389D01*
X2922443Y-9948389D02*
X2912920Y-9910293D01*
X2912920Y-9910293D02*
X2912920Y-9862674D01*
X2912920Y-9862674D02*
X2922443Y-9824579D01*
X2922443Y-9824579D02*
X2931967Y-9805531D01*
X2931967Y-9805531D02*
X2941491Y-9796008D01*
X2941491Y-9796008D02*
X2960539Y-9786484D01*
X3112920Y-9986484D02*
X3112920Y-9853150D01*
X3112920Y-9872198D02*
X3122443Y-9862674D01*
X3122443Y-9862674D02*
X3141491Y-9853150D01*
X3141491Y-9853150D02*
X3170063Y-9853150D01*
X3170063Y-9853150D02*
X3189110Y-9862674D01*
X3189110Y-9862674D02*
X3198634Y-9881722D01*
X3198634Y-9881722D02*
X3198634Y-9986484D01*
X3198634Y-9881722D02*
X3208158Y-9862674D01*
X3208158Y-9862674D02*
X3227205Y-9853150D01*
X3227205Y-9853150D02*
X3255777Y-9853150D01*
X3255777Y-9853150D02*
X3274824Y-9862674D01*
X3274824Y-9862674D02*
X3284348Y-9881722D01*
X3284348Y-9881722D02*
X3284348Y-9986484D01*
X3379586Y-9986484D02*
X3379586Y-9853150D01*
X3379586Y-9872198D02*
X3389110Y-9862674D01*
X3389110Y-9862674D02*
X3408158Y-9853150D01*
X3408158Y-9853150D02*
X3436729Y-9853150D01*
X3436729Y-9853150D02*
X3455777Y-9862674D01*
X3455777Y-9862674D02*
X3465301Y-9881722D01*
X3465301Y-9881722D02*
X3465301Y-9986484D01*
X3465301Y-9881722D02*
X3474824Y-9862674D01*
X3474824Y-9862674D02*
X3493872Y-9853150D01*
X3493872Y-9853150D02*
X3522443Y-9853150D01*
X3522443Y-9853150D02*
X3541491Y-9862674D01*
X3541491Y-9862674D02*
X3551015Y-9881722D01*
X3551015Y-9881722D02*
X3551015Y-9986484D01*
X3941491Y-9776960D02*
X3770063Y-10034103D01*
X4198634Y-9786484D02*
X4217682Y-9786484D01*
X4217682Y-9786484D02*
X4236729Y-9796008D01*
X4236729Y-9796008D02*
X4246253Y-9805531D01*
X4246253Y-9805531D02*
X4255777Y-9824579D01*
X4255777Y-9824579D02*
X4265301Y-9862674D01*
X4265301Y-9862674D02*
X4265301Y-9910293D01*
X4265301Y-9910293D02*
X4255777Y-9948389D01*
X4255777Y-9948389D02*
X4246253Y-9967436D01*
X4246253Y-9967436D02*
X4236729Y-9976960D01*
X4236729Y-9976960D02*
X4217682Y-9986484D01*
X4217682Y-9986484D02*
X4198634Y-9986484D01*
X4198634Y-9986484D02*
X4179586Y-9976960D01*
X4179586Y-9976960D02*
X4170063Y-9967436D01*
X4170063Y-9967436D02*
X4160539Y-9948389D01*
X4160539Y-9948389D02*
X4151015Y-9910293D01*
X4151015Y-9910293D02*
X4151015Y-9862674D01*
X4151015Y-9862674D02*
X4160539Y-9824579D01*
X4160539Y-9824579D02*
X4170063Y-9805531D01*
X4170063Y-9805531D02*
X4179586Y-9796008D01*
X4179586Y-9796008D02*
X4198634Y-9786484D01*
X4351015Y-9967436D02*
X4360539Y-9976960D01*
X4360539Y-9976960D02*
X4351015Y-9986484D01*
X4351015Y-9986484D02*
X4341491Y-9976960D01*
X4341491Y-9976960D02*
X4351015Y-9967436D01*
X4351015Y-9967436D02*
X4351015Y-9986484D01*
X4484348Y-9786484D02*
X4503396Y-9786484D01*
X4503396Y-9786484D02*
X4522444Y-9796008D01*
X4522444Y-9796008D02*
X4531968Y-9805531D01*
X4531968Y-9805531D02*
X4541491Y-9824579D01*
X4541491Y-9824579D02*
X4551015Y-9862674D01*
X4551015Y-9862674D02*
X4551015Y-9910293D01*
X4551015Y-9910293D02*
X4541491Y-9948389D01*
X4541491Y-9948389D02*
X4531968Y-9967436D01*
X4531968Y-9967436D02*
X4522444Y-9976960D01*
X4522444Y-9976960D02*
X4503396Y-9986484D01*
X4503396Y-9986484D02*
X4484348Y-9986484D01*
X4484348Y-9986484D02*
X4465301Y-9976960D01*
X4465301Y-9976960D02*
X4455777Y-9967436D01*
X4455777Y-9967436D02*
X4446253Y-9948389D01*
X4446253Y-9948389D02*
X4436729Y-9910293D01*
X4436729Y-9910293D02*
X4436729Y-9862674D01*
X4436729Y-9862674D02*
X4446253Y-9824579D01*
X4446253Y-9824579D02*
X4455777Y-9805531D01*
X4455777Y-9805531D02*
X4465301Y-9796008D01*
X4465301Y-9796008D02*
X4484348Y-9786484D01*
X4741491Y-9986484D02*
X4627206Y-9986484D01*
X4684348Y-9986484D02*
X4684348Y-9786484D01*
X4684348Y-9786484D02*
X4665301Y-9815055D01*
X4665301Y-9815055D02*
X4646253Y-9834103D01*
X4646253Y-9834103D02*
X4627206Y-9843627D01*
X4922444Y-9786484D02*
X4827206Y-9786484D01*
X4827206Y-9786484D02*
X4817682Y-9881722D01*
X4817682Y-9881722D02*
X4827206Y-9872198D01*
X4827206Y-9872198D02*
X4846253Y-9862674D01*
X4846253Y-9862674D02*
X4893872Y-9862674D01*
X4893872Y-9862674D02*
X4912920Y-9872198D01*
X4912920Y-9872198D02*
X4922444Y-9881722D01*
X4922444Y-9881722D02*
X4931968Y-9900770D01*
X4931968Y-9900770D02*
X4931968Y-9948389D01*
X4931968Y-9948389D02*
X4922444Y-9967436D01*
X4922444Y-9967436D02*
X4912920Y-9976960D01*
X4912920Y-9976960D02*
X4893872Y-9986484D01*
X4893872Y-9986484D02*
X4846253Y-9986484D01*
X4846253Y-9986484D02*
X4827206Y-9976960D01*
X4827206Y-9976960D02*
X4817682Y-9967436D01*
X4998634Y-9786484D02*
X5131968Y-9786484D01*
X5131968Y-9786484D02*
X5046253Y-9986484D01*
X5198634Y-9786484D02*
X5198634Y-9824579D01*
X5274825Y-9786484D02*
X5274825Y-9824579D01*
X5570063Y-10062674D02*
X5560539Y-10053150D01*
X5560539Y-10053150D02*
X5541491Y-10024579D01*
X5541491Y-10024579D02*
X5531968Y-10005531D01*
X5531968Y-10005531D02*
X5522444Y-9976960D01*
X5522444Y-9976960D02*
X5512920Y-9929341D01*
X5512920Y-9929341D02*
X5512920Y-9891246D01*
X5512920Y-9891246D02*
X5522444Y-9843627D01*
X5522444Y-9843627D02*
X5531968Y-9815055D01*
X5531968Y-9815055D02*
X5541491Y-9796008D01*
X5541491Y-9796008D02*
X5560539Y-9767436D01*
X5560539Y-9767436D02*
X5570063Y-9757912D01*
X5655777Y-9986484D02*
X5693872Y-9986484D01*
X5693872Y-9986484D02*
X5712920Y-9976960D01*
X5712920Y-9976960D02*
X5722444Y-9967436D01*
X5722444Y-9967436D02*
X5741491Y-9938865D01*
X5741491Y-9938865D02*
X5751015Y-9900770D01*
X5751015Y-9900770D02*
X5751015Y-9824579D01*
X5751015Y-9824579D02*
X5741491Y-9805531D01*
X5741491Y-9805531D02*
X5731968Y-9796008D01*
X5731968Y-9796008D02*
X5712920Y-9786484D01*
X5712920Y-9786484D02*
X5674825Y-9786484D01*
X5674825Y-9786484D02*
X5655777Y-9796008D01*
X5655777Y-9796008D02*
X5646253Y-9805531D01*
X5646253Y-9805531D02*
X5636729Y-9824579D01*
X5636729Y-9824579D02*
X5636729Y-9872198D01*
X5636729Y-9872198D02*
X5646253Y-9891246D01*
X5646253Y-9891246D02*
X5655777Y-9900770D01*
X5655777Y-9900770D02*
X5674825Y-9910293D01*
X5674825Y-9910293D02*
X5712920Y-9910293D01*
X5712920Y-9910293D02*
X5731968Y-9900770D01*
X5731968Y-9900770D02*
X5741491Y-9891246D01*
X5741491Y-9891246D02*
X5751015Y-9872198D01*
X5989110Y-9986484D02*
X5989110Y-9786484D01*
X6074825Y-9986484D02*
X6074825Y-9881722D01*
X6074825Y-9881722D02*
X6065301Y-9862674D01*
X6065301Y-9862674D02*
X6046253Y-9853150D01*
X6046253Y-9853150D02*
X6017682Y-9853150D01*
X6017682Y-9853150D02*
X5998634Y-9862674D01*
X5998634Y-9862674D02*
X5989110Y-9872198D01*
X6198634Y-9986484D02*
X6179587Y-9976960D01*
X6179587Y-9976960D02*
X6170063Y-9967436D01*
X6170063Y-9967436D02*
X6160539Y-9948389D01*
X6160539Y-9948389D02*
X6160539Y-9891246D01*
X6160539Y-9891246D02*
X6170063Y-9872198D01*
X6170063Y-9872198D02*
X6179587Y-9862674D01*
X6179587Y-9862674D02*
X6198634Y-9853150D01*
X6198634Y-9853150D02*
X6227206Y-9853150D01*
X6227206Y-9853150D02*
X6246253Y-9862674D01*
X6246253Y-9862674D02*
X6255777Y-9872198D01*
X6255777Y-9872198D02*
X6265301Y-9891246D01*
X6265301Y-9891246D02*
X6265301Y-9948389D01*
X6265301Y-9948389D02*
X6255777Y-9967436D01*
X6255777Y-9967436D02*
X6246253Y-9976960D01*
X6246253Y-9976960D02*
X6227206Y-9986484D01*
X6227206Y-9986484D02*
X6198634Y-9986484D01*
X6379587Y-9986484D02*
X6360539Y-9976960D01*
X6360539Y-9976960D02*
X6351015Y-9957912D01*
X6351015Y-9957912D02*
X6351015Y-9786484D01*
X6531968Y-9976960D02*
X6512920Y-9986484D01*
X6512920Y-9986484D02*
X6474825Y-9986484D01*
X6474825Y-9986484D02*
X6455777Y-9976960D01*
X6455777Y-9976960D02*
X6446253Y-9957912D01*
X6446253Y-9957912D02*
X6446253Y-9881722D01*
X6446253Y-9881722D02*
X6455777Y-9862674D01*
X6455777Y-9862674D02*
X6474825Y-9853150D01*
X6474825Y-9853150D02*
X6512920Y-9853150D01*
X6512920Y-9853150D02*
X6531968Y-9862674D01*
X6531968Y-9862674D02*
X6541491Y-9881722D01*
X6541491Y-9881722D02*
X6541491Y-9900770D01*
X6541491Y-9900770D02*
X6446253Y-9919817D01*
X6617682Y-9976960D02*
X6636730Y-9986484D01*
X6636730Y-9986484D02*
X6674825Y-9986484D01*
X6674825Y-9986484D02*
X6693872Y-9976960D01*
X6693872Y-9976960D02*
X6703396Y-9957912D01*
X6703396Y-9957912D02*
X6703396Y-9948389D01*
X6703396Y-9948389D02*
X6693872Y-9929341D01*
X6693872Y-9929341D02*
X6674825Y-9919817D01*
X6674825Y-9919817D02*
X6646253Y-9919817D01*
X6646253Y-9919817D02*
X6627206Y-9910293D01*
X6627206Y-9910293D02*
X6617682Y-9891246D01*
X6617682Y-9891246D02*
X6617682Y-9881722D01*
X6617682Y-9881722D02*
X6627206Y-9862674D01*
X6627206Y-9862674D02*
X6646253Y-9853150D01*
X6646253Y-9853150D02*
X6674825Y-9853150D01*
X6674825Y-9853150D02*
X6693872Y-9862674D01*
X6770063Y-10062674D02*
X6779587Y-10053150D01*
X6779587Y-10053150D02*
X6798634Y-10024579D01*
X6798634Y-10024579D02*
X6808158Y-10005531D01*
X6808158Y-10005531D02*
X6817682Y-9976960D01*
X6817682Y-9976960D02*
X6827206Y-9929341D01*
X6827206Y-9929341D02*
X6827206Y-9891246D01*
X6827206Y-9891246D02*
X6817682Y-9843627D01*
X6817682Y-9843627D02*
X6808158Y-9815055D01*
X6808158Y-9815055D02*
X6798634Y-9796008D01*
X6798634Y-9796008D02*
X6779587Y-9767436D01*
X6779587Y-9767436D02*
X6770063Y-9757912D01*
D10*
X1995000Y-10159000D02*
G75*
G02*
X1955000Y-10159000I-20000J0D01*
G01*
X1955000Y-10159000D02*
G75*
G02*
X1995000Y-10159000I20000J0D01*
G01*
D11*
X2293872Y-10050484D02*
X2312920Y-10050484D01*
X2312920Y-10050484D02*
X2331967Y-10060008D01*
X2331967Y-10060008D02*
X2341491Y-10069531D01*
X2341491Y-10069531D02*
X2351015Y-10088579D01*
X2351015Y-10088579D02*
X2360539Y-10126674D01*
X2360539Y-10126674D02*
X2360539Y-10174293D01*
X2360539Y-10174293D02*
X2351015Y-10212389D01*
X2351015Y-10212389D02*
X2341491Y-10231436D01*
X2341491Y-10231436D02*
X2331967Y-10240960D01*
X2331967Y-10240960D02*
X2312920Y-10250484D01*
X2312920Y-10250484D02*
X2293872Y-10250484D01*
X2293872Y-10250484D02*
X2274824Y-10240960D01*
X2274824Y-10240960D02*
X2265301Y-10231436D01*
X2265301Y-10231436D02*
X2255777Y-10212389D01*
X2255777Y-10212389D02*
X2246253Y-10174293D01*
X2246253Y-10174293D02*
X2246253Y-10126674D01*
X2246253Y-10126674D02*
X2255777Y-10088579D01*
X2255777Y-10088579D02*
X2265301Y-10069531D01*
X2265301Y-10069531D02*
X2274824Y-10060008D01*
X2274824Y-10060008D02*
X2293872Y-10050484D01*
X2446253Y-10231436D02*
X2455777Y-10240960D01*
X2455777Y-10240960D02*
X2446253Y-10250484D01*
X2446253Y-10250484D02*
X2436729Y-10240960D01*
X2436729Y-10240960D02*
X2446253Y-10231436D01*
X2446253Y-10231436D02*
X2446253Y-10250484D01*
X2627205Y-10117150D02*
X2627205Y-10250484D01*
X2579586Y-10040960D02*
X2531967Y-10183817D01*
X2531967Y-10183817D02*
X2655777Y-10183817D01*
X2770063Y-10050484D02*
X2789110Y-10050484D01*
X2789110Y-10050484D02*
X2808158Y-10060008D01*
X2808158Y-10060008D02*
X2817682Y-10069531D01*
X2817682Y-10069531D02*
X2827205Y-10088579D01*
X2827205Y-10088579D02*
X2836729Y-10126674D01*
X2836729Y-10126674D02*
X2836729Y-10174293D01*
X2836729Y-10174293D02*
X2827205Y-10212389D01*
X2827205Y-10212389D02*
X2817682Y-10231436D01*
X2817682Y-10231436D02*
X2808158Y-10240960D01*
X2808158Y-10240960D02*
X2789110Y-10250484D01*
X2789110Y-10250484D02*
X2770063Y-10250484D01*
X2770063Y-10250484D02*
X2751015Y-10240960D01*
X2751015Y-10240960D02*
X2741491Y-10231436D01*
X2741491Y-10231436D02*
X2731967Y-10212389D01*
X2731967Y-10212389D02*
X2722444Y-10174293D01*
X2722444Y-10174293D02*
X2722444Y-10126674D01*
X2722444Y-10126674D02*
X2731967Y-10088579D01*
X2731967Y-10088579D02*
X2741491Y-10069531D01*
X2741491Y-10069531D02*
X2751015Y-10060008D01*
X2751015Y-10060008D02*
X2770063Y-10050484D01*
X2960539Y-10050484D02*
X2979586Y-10050484D01*
X2979586Y-10050484D02*
X2998634Y-10060008D01*
X2998634Y-10060008D02*
X3008158Y-10069531D01*
X3008158Y-10069531D02*
X3017682Y-10088579D01*
X3017682Y-10088579D02*
X3027205Y-10126674D01*
X3027205Y-10126674D02*
X3027205Y-10174293D01*
X3027205Y-10174293D02*
X3017682Y-10212389D01*
X3017682Y-10212389D02*
X3008158Y-10231436D01*
X3008158Y-10231436D02*
X2998634Y-10240960D01*
X2998634Y-10240960D02*
X2979586Y-10250484D01*
X2979586Y-10250484D02*
X2960539Y-10250484D01*
X2960539Y-10250484D02*
X2941491Y-10240960D01*
X2941491Y-10240960D02*
X2931967Y-10231436D01*
X2931967Y-10231436D02*
X2922443Y-10212389D01*
X2922443Y-10212389D02*
X2912920Y-10174293D01*
X2912920Y-10174293D02*
X2912920Y-10126674D01*
X2912920Y-10126674D02*
X2922443Y-10088579D01*
X2922443Y-10088579D02*
X2931967Y-10069531D01*
X2931967Y-10069531D02*
X2941491Y-10060008D01*
X2941491Y-10060008D02*
X2960539Y-10050484D01*
X3112920Y-10250484D02*
X3112920Y-10117150D01*
X3112920Y-10136198D02*
X3122443Y-10126674D01*
X3122443Y-10126674D02*
X3141491Y-10117150D01*
X3141491Y-10117150D02*
X3170063Y-10117150D01*
X3170063Y-10117150D02*
X3189110Y-10126674D01*
X3189110Y-10126674D02*
X3198634Y-10145722D01*
X3198634Y-10145722D02*
X3198634Y-10250484D01*
X3198634Y-10145722D02*
X3208158Y-10126674D01*
X3208158Y-10126674D02*
X3227205Y-10117150D01*
X3227205Y-10117150D02*
X3255777Y-10117150D01*
X3255777Y-10117150D02*
X3274824Y-10126674D01*
X3274824Y-10126674D02*
X3284348Y-10145722D01*
X3284348Y-10145722D02*
X3284348Y-10250484D01*
X3379586Y-10250484D02*
X3379586Y-10117150D01*
X3379586Y-10136198D02*
X3389110Y-10126674D01*
X3389110Y-10126674D02*
X3408158Y-10117150D01*
X3408158Y-10117150D02*
X3436729Y-10117150D01*
X3436729Y-10117150D02*
X3455777Y-10126674D01*
X3455777Y-10126674D02*
X3465301Y-10145722D01*
X3465301Y-10145722D02*
X3465301Y-10250484D01*
X3465301Y-10145722D02*
X3474824Y-10126674D01*
X3474824Y-10126674D02*
X3493872Y-10117150D01*
X3493872Y-10117150D02*
X3522443Y-10117150D01*
X3522443Y-10117150D02*
X3541491Y-10126674D01*
X3541491Y-10126674D02*
X3551015Y-10145722D01*
X3551015Y-10145722D02*
X3551015Y-10250484D01*
X3941491Y-10040960D02*
X3770063Y-10298103D01*
X4198634Y-10050484D02*
X4217682Y-10050484D01*
X4217682Y-10050484D02*
X4236729Y-10060008D01*
X4236729Y-10060008D02*
X4246253Y-10069531D01*
X4246253Y-10069531D02*
X4255777Y-10088579D01*
X4255777Y-10088579D02*
X4265301Y-10126674D01*
X4265301Y-10126674D02*
X4265301Y-10174293D01*
X4265301Y-10174293D02*
X4255777Y-10212389D01*
X4255777Y-10212389D02*
X4246253Y-10231436D01*
X4246253Y-10231436D02*
X4236729Y-10240960D01*
X4236729Y-10240960D02*
X4217682Y-10250484D01*
X4217682Y-10250484D02*
X4198634Y-10250484D01*
X4198634Y-10250484D02*
X4179586Y-10240960D01*
X4179586Y-10240960D02*
X4170063Y-10231436D01*
X4170063Y-10231436D02*
X4160539Y-10212389D01*
X4160539Y-10212389D02*
X4151015Y-10174293D01*
X4151015Y-10174293D02*
X4151015Y-10126674D01*
X4151015Y-10126674D02*
X4160539Y-10088579D01*
X4160539Y-10088579D02*
X4170063Y-10069531D01*
X4170063Y-10069531D02*
X4179586Y-10060008D01*
X4179586Y-10060008D02*
X4198634Y-10050484D01*
X4351015Y-10231436D02*
X4360539Y-10240960D01*
X4360539Y-10240960D02*
X4351015Y-10250484D01*
X4351015Y-10250484D02*
X4341491Y-10240960D01*
X4341491Y-10240960D02*
X4351015Y-10231436D01*
X4351015Y-10231436D02*
X4351015Y-10250484D01*
X4484348Y-10050484D02*
X4503396Y-10050484D01*
X4503396Y-10050484D02*
X4522444Y-10060008D01*
X4522444Y-10060008D02*
X4531968Y-10069531D01*
X4531968Y-10069531D02*
X4541491Y-10088579D01*
X4541491Y-10088579D02*
X4551015Y-10126674D01*
X4551015Y-10126674D02*
X4551015Y-10174293D01*
X4551015Y-10174293D02*
X4541491Y-10212389D01*
X4541491Y-10212389D02*
X4531968Y-10231436D01*
X4531968Y-10231436D02*
X4522444Y-10240960D01*
X4522444Y-10240960D02*
X4503396Y-10250484D01*
X4503396Y-10250484D02*
X4484348Y-10250484D01*
X4484348Y-10250484D02*
X4465301Y-10240960D01*
X4465301Y-10240960D02*
X4455777Y-10231436D01*
X4455777Y-10231436D02*
X4446253Y-10212389D01*
X4446253Y-10212389D02*
X4436729Y-10174293D01*
X4436729Y-10174293D02*
X4436729Y-10126674D01*
X4436729Y-10126674D02*
X4446253Y-10088579D01*
X4446253Y-10088579D02*
X4455777Y-10069531D01*
X4455777Y-10069531D02*
X4465301Y-10060008D01*
X4465301Y-10060008D02*
X4484348Y-10050484D01*
X4741491Y-10250484D02*
X4627206Y-10250484D01*
X4684348Y-10250484D02*
X4684348Y-10050484D01*
X4684348Y-10050484D02*
X4665301Y-10079055D01*
X4665301Y-10079055D02*
X4646253Y-10098103D01*
X4646253Y-10098103D02*
X4627206Y-10107627D01*
X4922444Y-10050484D02*
X4827206Y-10050484D01*
X4827206Y-10050484D02*
X4817682Y-10145722D01*
X4817682Y-10145722D02*
X4827206Y-10136198D01*
X4827206Y-10136198D02*
X4846253Y-10126674D01*
X4846253Y-10126674D02*
X4893872Y-10126674D01*
X4893872Y-10126674D02*
X4912920Y-10136198D01*
X4912920Y-10136198D02*
X4922444Y-10145722D01*
X4922444Y-10145722D02*
X4931968Y-10164770D01*
X4931968Y-10164770D02*
X4931968Y-10212389D01*
X4931968Y-10212389D02*
X4922444Y-10231436D01*
X4922444Y-10231436D02*
X4912920Y-10240960D01*
X4912920Y-10240960D02*
X4893872Y-10250484D01*
X4893872Y-10250484D02*
X4846253Y-10250484D01*
X4846253Y-10250484D02*
X4827206Y-10240960D01*
X4827206Y-10240960D02*
X4817682Y-10231436D01*
X4998634Y-10050484D02*
X5131968Y-10050484D01*
X5131968Y-10050484D02*
X5046253Y-10250484D01*
X5198634Y-10050484D02*
X5198634Y-10088579D01*
X5274825Y-10050484D02*
X5274825Y-10088579D01*
X5570063Y-10326674D02*
X5560539Y-10317150D01*
X5560539Y-10317150D02*
X5541491Y-10288579D01*
X5541491Y-10288579D02*
X5531968Y-10269531D01*
X5531968Y-10269531D02*
X5522444Y-10240960D01*
X5522444Y-10240960D02*
X5512920Y-10193341D01*
X5512920Y-10193341D02*
X5512920Y-10155246D01*
X5512920Y-10155246D02*
X5522444Y-10107627D01*
X5522444Y-10107627D02*
X5531968Y-10079055D01*
X5531968Y-10079055D02*
X5541491Y-10060008D01*
X5541491Y-10060008D02*
X5560539Y-10031436D01*
X5560539Y-10031436D02*
X5570063Y-10021912D01*
X5627206Y-10050484D02*
X5751015Y-10050484D01*
X5751015Y-10050484D02*
X5684348Y-10126674D01*
X5684348Y-10126674D02*
X5712920Y-10126674D01*
X5712920Y-10126674D02*
X5731968Y-10136198D01*
X5731968Y-10136198D02*
X5741491Y-10145722D01*
X5741491Y-10145722D02*
X5751015Y-10164770D01*
X5751015Y-10164770D02*
X5751015Y-10212389D01*
X5751015Y-10212389D02*
X5741491Y-10231436D01*
X5741491Y-10231436D02*
X5731968Y-10240960D01*
X5731968Y-10240960D02*
X5712920Y-10250484D01*
X5712920Y-10250484D02*
X5655777Y-10250484D01*
X5655777Y-10250484D02*
X5636729Y-10240960D01*
X5636729Y-10240960D02*
X5627206Y-10231436D01*
X5827206Y-10069531D02*
X5836729Y-10060008D01*
X5836729Y-10060008D02*
X5855777Y-10050484D01*
X5855777Y-10050484D02*
X5903396Y-10050484D01*
X5903396Y-10050484D02*
X5922444Y-10060008D01*
X5922444Y-10060008D02*
X5931968Y-10069531D01*
X5931968Y-10069531D02*
X5941491Y-10088579D01*
X5941491Y-10088579D02*
X5941491Y-10107627D01*
X5941491Y-10107627D02*
X5931968Y-10136198D01*
X5931968Y-10136198D02*
X5817682Y-10250484D01*
X5817682Y-10250484D02*
X5941491Y-10250484D01*
X6179587Y-10250484D02*
X6179587Y-10050484D01*
X6265301Y-10250484D02*
X6265301Y-10145722D01*
X6265301Y-10145722D02*
X6255777Y-10126674D01*
X6255777Y-10126674D02*
X6236730Y-10117150D01*
X6236730Y-10117150D02*
X6208158Y-10117150D01*
X6208158Y-10117150D02*
X6189110Y-10126674D01*
X6189110Y-10126674D02*
X6179587Y-10136198D01*
X6389110Y-10250484D02*
X6370063Y-10240960D01*
X6370063Y-10240960D02*
X6360539Y-10231436D01*
X6360539Y-10231436D02*
X6351015Y-10212389D01*
X6351015Y-10212389D02*
X6351015Y-10155246D01*
X6351015Y-10155246D02*
X6360539Y-10136198D01*
X6360539Y-10136198D02*
X6370063Y-10126674D01*
X6370063Y-10126674D02*
X6389110Y-10117150D01*
X6389110Y-10117150D02*
X6417682Y-10117150D01*
X6417682Y-10117150D02*
X6436730Y-10126674D01*
X6436730Y-10126674D02*
X6446253Y-10136198D01*
X6446253Y-10136198D02*
X6455777Y-10155246D01*
X6455777Y-10155246D02*
X6455777Y-10212389D01*
X6455777Y-10212389D02*
X6446253Y-10231436D01*
X6446253Y-10231436D02*
X6436730Y-10240960D01*
X6436730Y-10240960D02*
X6417682Y-10250484D01*
X6417682Y-10250484D02*
X6389110Y-10250484D01*
X6570063Y-10250484D02*
X6551015Y-10240960D01*
X6551015Y-10240960D02*
X6541491Y-10221912D01*
X6541491Y-10221912D02*
X6541491Y-10050484D01*
X6722444Y-10240960D02*
X6703396Y-10250484D01*
X6703396Y-10250484D02*
X6665301Y-10250484D01*
X6665301Y-10250484D02*
X6646253Y-10240960D01*
X6646253Y-10240960D02*
X6636730Y-10221912D01*
X6636730Y-10221912D02*
X6636730Y-10145722D01*
X6636730Y-10145722D02*
X6646253Y-10126674D01*
X6646253Y-10126674D02*
X6665301Y-10117150D01*
X6665301Y-10117150D02*
X6703396Y-10117150D01*
X6703396Y-10117150D02*
X6722444Y-10126674D01*
X6722444Y-10126674D02*
X6731968Y-10145722D01*
X6731968Y-10145722D02*
X6731968Y-10164770D01*
X6731968Y-10164770D02*
X6636730Y-10183817D01*
X6808158Y-10240960D02*
X6827206Y-10250484D01*
X6827206Y-10250484D02*
X6865301Y-10250484D01*
X6865301Y-10250484D02*
X6884349Y-10240960D01*
X6884349Y-10240960D02*
X6893872Y-10221912D01*
X6893872Y-10221912D02*
X6893872Y-10212389D01*
X6893872Y-10212389D02*
X6884349Y-10193341D01*
X6884349Y-10193341D02*
X6865301Y-10183817D01*
X6865301Y-10183817D02*
X6836730Y-10183817D01*
X6836730Y-10183817D02*
X6817682Y-10174293D01*
X6817682Y-10174293D02*
X6808158Y-10155246D01*
X6808158Y-10155246D02*
X6808158Y-10145722D01*
X6808158Y-10145722D02*
X6817682Y-10126674D01*
X6817682Y-10126674D02*
X6836730Y-10117150D01*
X6836730Y-10117150D02*
X6865301Y-10117150D01*
X6865301Y-10117150D02*
X6884349Y-10126674D01*
X6960539Y-10326674D02*
X6970063Y-10317150D01*
X6970063Y-10317150D02*
X6989111Y-10288579D01*
X6989111Y-10288579D02*
X6998634Y-10269531D01*
X6998634Y-10269531D02*
X7008158Y-10240960D01*
X7008158Y-10240960D02*
X7017682Y-10193341D01*
X7017682Y-10193341D02*
X7017682Y-10155246D01*
X7017682Y-10155246D02*
X7008158Y-10107627D01*
X7008158Y-10107627D02*
X6998634Y-10079055D01*
X6998634Y-10079055D02*
X6989111Y-10060008D01*
X6989111Y-10060008D02*
X6970063Y-10031436D01*
X6970063Y-10031436D02*
X6960539Y-10021912D01*
D10*
X1955000Y-10383000D02*
X1955000Y-10463000D01*
X1915000Y-10423000D02*
X1995000Y-10423000D01*
D11*
X2293872Y-10314484D02*
X2312920Y-10314484D01*
X2312920Y-10314484D02*
X2331967Y-10324008D01*
X2331967Y-10324008D02*
X2341491Y-10333531D01*
X2341491Y-10333531D02*
X2351015Y-10352579D01*
X2351015Y-10352579D02*
X2360539Y-10390674D01*
X2360539Y-10390674D02*
X2360539Y-10438293D01*
X2360539Y-10438293D02*
X2351015Y-10476389D01*
X2351015Y-10476389D02*
X2341491Y-10495436D01*
X2341491Y-10495436D02*
X2331967Y-10504960D01*
X2331967Y-10504960D02*
X2312920Y-10514484D01*
X2312920Y-10514484D02*
X2293872Y-10514484D01*
X2293872Y-10514484D02*
X2274824Y-10504960D01*
X2274824Y-10504960D02*
X2265301Y-10495436D01*
X2265301Y-10495436D02*
X2255777Y-10476389D01*
X2255777Y-10476389D02*
X2246253Y-10438293D01*
X2246253Y-10438293D02*
X2246253Y-10390674D01*
X2246253Y-10390674D02*
X2255777Y-10352579D01*
X2255777Y-10352579D02*
X2265301Y-10333531D01*
X2265301Y-10333531D02*
X2274824Y-10324008D01*
X2274824Y-10324008D02*
X2293872Y-10314484D01*
X2446253Y-10495436D02*
X2455777Y-10504960D01*
X2455777Y-10504960D02*
X2446253Y-10514484D01*
X2446253Y-10514484D02*
X2436729Y-10504960D01*
X2436729Y-10504960D02*
X2446253Y-10495436D01*
X2446253Y-10495436D02*
X2446253Y-10514484D01*
X2570063Y-10400198D02*
X2551015Y-10390674D01*
X2551015Y-10390674D02*
X2541491Y-10381150D01*
X2541491Y-10381150D02*
X2531967Y-10362103D01*
X2531967Y-10362103D02*
X2531967Y-10352579D01*
X2531967Y-10352579D02*
X2541491Y-10333531D01*
X2541491Y-10333531D02*
X2551015Y-10324008D01*
X2551015Y-10324008D02*
X2570063Y-10314484D01*
X2570063Y-10314484D02*
X2608158Y-10314484D01*
X2608158Y-10314484D02*
X2627205Y-10324008D01*
X2627205Y-10324008D02*
X2636729Y-10333531D01*
X2636729Y-10333531D02*
X2646253Y-10352579D01*
X2646253Y-10352579D02*
X2646253Y-10362103D01*
X2646253Y-10362103D02*
X2636729Y-10381150D01*
X2636729Y-10381150D02*
X2627205Y-10390674D01*
X2627205Y-10390674D02*
X2608158Y-10400198D01*
X2608158Y-10400198D02*
X2570063Y-10400198D01*
X2570063Y-10400198D02*
X2551015Y-10409722D01*
X2551015Y-10409722D02*
X2541491Y-10419246D01*
X2541491Y-10419246D02*
X2531967Y-10438293D01*
X2531967Y-10438293D02*
X2531967Y-10476389D01*
X2531967Y-10476389D02*
X2541491Y-10495436D01*
X2541491Y-10495436D02*
X2551015Y-10504960D01*
X2551015Y-10504960D02*
X2570063Y-10514484D01*
X2570063Y-10514484D02*
X2608158Y-10514484D01*
X2608158Y-10514484D02*
X2627205Y-10504960D01*
X2627205Y-10504960D02*
X2636729Y-10495436D01*
X2636729Y-10495436D02*
X2646253Y-10476389D01*
X2646253Y-10476389D02*
X2646253Y-10438293D01*
X2646253Y-10438293D02*
X2636729Y-10419246D01*
X2636729Y-10419246D02*
X2627205Y-10409722D01*
X2627205Y-10409722D02*
X2608158Y-10400198D01*
X2770063Y-10314484D02*
X2789110Y-10314484D01*
X2789110Y-10314484D02*
X2808158Y-10324008D01*
X2808158Y-10324008D02*
X2817682Y-10333531D01*
X2817682Y-10333531D02*
X2827205Y-10352579D01*
X2827205Y-10352579D02*
X2836729Y-10390674D01*
X2836729Y-10390674D02*
X2836729Y-10438293D01*
X2836729Y-10438293D02*
X2827205Y-10476389D01*
X2827205Y-10476389D02*
X2817682Y-10495436D01*
X2817682Y-10495436D02*
X2808158Y-10504960D01*
X2808158Y-10504960D02*
X2789110Y-10514484D01*
X2789110Y-10514484D02*
X2770063Y-10514484D01*
X2770063Y-10514484D02*
X2751015Y-10504960D01*
X2751015Y-10504960D02*
X2741491Y-10495436D01*
X2741491Y-10495436D02*
X2731967Y-10476389D01*
X2731967Y-10476389D02*
X2722444Y-10438293D01*
X2722444Y-10438293D02*
X2722444Y-10390674D01*
X2722444Y-10390674D02*
X2731967Y-10352579D01*
X2731967Y-10352579D02*
X2741491Y-10333531D01*
X2741491Y-10333531D02*
X2751015Y-10324008D01*
X2751015Y-10324008D02*
X2770063Y-10314484D01*
X2960539Y-10314484D02*
X2979586Y-10314484D01*
X2979586Y-10314484D02*
X2998634Y-10324008D01*
X2998634Y-10324008D02*
X3008158Y-10333531D01*
X3008158Y-10333531D02*
X3017682Y-10352579D01*
X3017682Y-10352579D02*
X3027205Y-10390674D01*
X3027205Y-10390674D02*
X3027205Y-10438293D01*
X3027205Y-10438293D02*
X3017682Y-10476389D01*
X3017682Y-10476389D02*
X3008158Y-10495436D01*
X3008158Y-10495436D02*
X2998634Y-10504960D01*
X2998634Y-10504960D02*
X2979586Y-10514484D01*
X2979586Y-10514484D02*
X2960539Y-10514484D01*
X2960539Y-10514484D02*
X2941491Y-10504960D01*
X2941491Y-10504960D02*
X2931967Y-10495436D01*
X2931967Y-10495436D02*
X2922443Y-10476389D01*
X2922443Y-10476389D02*
X2912920Y-10438293D01*
X2912920Y-10438293D02*
X2912920Y-10390674D01*
X2912920Y-10390674D02*
X2922443Y-10352579D01*
X2922443Y-10352579D02*
X2931967Y-10333531D01*
X2931967Y-10333531D02*
X2941491Y-10324008D01*
X2941491Y-10324008D02*
X2960539Y-10314484D01*
X3112920Y-10514484D02*
X3112920Y-10381150D01*
X3112920Y-10400198D02*
X3122443Y-10390674D01*
X3122443Y-10390674D02*
X3141491Y-10381150D01*
X3141491Y-10381150D02*
X3170063Y-10381150D01*
X3170063Y-10381150D02*
X3189110Y-10390674D01*
X3189110Y-10390674D02*
X3198634Y-10409722D01*
X3198634Y-10409722D02*
X3198634Y-10514484D01*
X3198634Y-10409722D02*
X3208158Y-10390674D01*
X3208158Y-10390674D02*
X3227205Y-10381150D01*
X3227205Y-10381150D02*
X3255777Y-10381150D01*
X3255777Y-10381150D02*
X3274824Y-10390674D01*
X3274824Y-10390674D02*
X3284348Y-10409722D01*
X3284348Y-10409722D02*
X3284348Y-10514484D01*
X3379586Y-10514484D02*
X3379586Y-10381150D01*
X3379586Y-10400198D02*
X3389110Y-10390674D01*
X3389110Y-10390674D02*
X3408158Y-10381150D01*
X3408158Y-10381150D02*
X3436729Y-10381150D01*
X3436729Y-10381150D02*
X3455777Y-10390674D01*
X3455777Y-10390674D02*
X3465301Y-10409722D01*
X3465301Y-10409722D02*
X3465301Y-10514484D01*
X3465301Y-10409722D02*
X3474824Y-10390674D01*
X3474824Y-10390674D02*
X3493872Y-10381150D01*
X3493872Y-10381150D02*
X3522443Y-10381150D01*
X3522443Y-10381150D02*
X3541491Y-10390674D01*
X3541491Y-10390674D02*
X3551015Y-10409722D01*
X3551015Y-10409722D02*
X3551015Y-10514484D01*
X3941491Y-10304960D02*
X3770063Y-10562103D01*
X4198634Y-10314484D02*
X4217682Y-10314484D01*
X4217682Y-10314484D02*
X4236729Y-10324008D01*
X4236729Y-10324008D02*
X4246253Y-10333531D01*
X4246253Y-10333531D02*
X4255777Y-10352579D01*
X4255777Y-10352579D02*
X4265301Y-10390674D01*
X4265301Y-10390674D02*
X4265301Y-10438293D01*
X4265301Y-10438293D02*
X4255777Y-10476389D01*
X4255777Y-10476389D02*
X4246253Y-10495436D01*
X4246253Y-10495436D02*
X4236729Y-10504960D01*
X4236729Y-10504960D02*
X4217682Y-10514484D01*
X4217682Y-10514484D02*
X4198634Y-10514484D01*
X4198634Y-10514484D02*
X4179586Y-10504960D01*
X4179586Y-10504960D02*
X4170063Y-10495436D01*
X4170063Y-10495436D02*
X4160539Y-10476389D01*
X4160539Y-10476389D02*
X4151015Y-10438293D01*
X4151015Y-10438293D02*
X4151015Y-10390674D01*
X4151015Y-10390674D02*
X4160539Y-10352579D01*
X4160539Y-10352579D02*
X4170063Y-10333531D01*
X4170063Y-10333531D02*
X4179586Y-10324008D01*
X4179586Y-10324008D02*
X4198634Y-10314484D01*
X4351015Y-10495436D02*
X4360539Y-10504960D01*
X4360539Y-10504960D02*
X4351015Y-10514484D01*
X4351015Y-10514484D02*
X4341491Y-10504960D01*
X4341491Y-10504960D02*
X4351015Y-10495436D01*
X4351015Y-10495436D02*
X4351015Y-10514484D01*
X4484348Y-10314484D02*
X4503396Y-10314484D01*
X4503396Y-10314484D02*
X4522444Y-10324008D01*
X4522444Y-10324008D02*
X4531968Y-10333531D01*
X4531968Y-10333531D02*
X4541491Y-10352579D01*
X4541491Y-10352579D02*
X4551015Y-10390674D01*
X4551015Y-10390674D02*
X4551015Y-10438293D01*
X4551015Y-10438293D02*
X4541491Y-10476389D01*
X4541491Y-10476389D02*
X4531968Y-10495436D01*
X4531968Y-10495436D02*
X4522444Y-10504960D01*
X4522444Y-10504960D02*
X4503396Y-10514484D01*
X4503396Y-10514484D02*
X4484348Y-10514484D01*
X4484348Y-10514484D02*
X4465301Y-10504960D01*
X4465301Y-10504960D02*
X4455777Y-10495436D01*
X4455777Y-10495436D02*
X4446253Y-10476389D01*
X4446253Y-10476389D02*
X4436729Y-10438293D01*
X4436729Y-10438293D02*
X4436729Y-10390674D01*
X4436729Y-10390674D02*
X4446253Y-10352579D01*
X4446253Y-10352579D02*
X4455777Y-10333531D01*
X4455777Y-10333531D02*
X4465301Y-10324008D01*
X4465301Y-10324008D02*
X4484348Y-10314484D01*
X4617682Y-10314484D02*
X4741491Y-10314484D01*
X4741491Y-10314484D02*
X4674825Y-10390674D01*
X4674825Y-10390674D02*
X4703396Y-10390674D01*
X4703396Y-10390674D02*
X4722444Y-10400198D01*
X4722444Y-10400198D02*
X4731968Y-10409722D01*
X4731968Y-10409722D02*
X4741491Y-10428770D01*
X4741491Y-10428770D02*
X4741491Y-10476389D01*
X4741491Y-10476389D02*
X4731968Y-10495436D01*
X4731968Y-10495436D02*
X4722444Y-10504960D01*
X4722444Y-10504960D02*
X4703396Y-10514484D01*
X4703396Y-10514484D02*
X4646253Y-10514484D01*
X4646253Y-10514484D02*
X4627206Y-10504960D01*
X4627206Y-10504960D02*
X4617682Y-10495436D01*
X4931968Y-10514484D02*
X4817682Y-10514484D01*
X4874825Y-10514484D02*
X4874825Y-10314484D01*
X4874825Y-10314484D02*
X4855777Y-10343055D01*
X4855777Y-10343055D02*
X4836729Y-10362103D01*
X4836729Y-10362103D02*
X4817682Y-10371627D01*
X5112920Y-10314484D02*
X5017682Y-10314484D01*
X5017682Y-10314484D02*
X5008158Y-10409722D01*
X5008158Y-10409722D02*
X5017682Y-10400198D01*
X5017682Y-10400198D02*
X5036729Y-10390674D01*
X5036729Y-10390674D02*
X5084349Y-10390674D01*
X5084349Y-10390674D02*
X5103396Y-10400198D01*
X5103396Y-10400198D02*
X5112920Y-10409722D01*
X5112920Y-10409722D02*
X5122444Y-10428770D01*
X5122444Y-10428770D02*
X5122444Y-10476389D01*
X5122444Y-10476389D02*
X5112920Y-10495436D01*
X5112920Y-10495436D02*
X5103396Y-10504960D01*
X5103396Y-10504960D02*
X5084349Y-10514484D01*
X5084349Y-10514484D02*
X5036729Y-10514484D01*
X5036729Y-10514484D02*
X5017682Y-10504960D01*
X5017682Y-10504960D02*
X5008158Y-10495436D01*
X5198634Y-10314484D02*
X5198634Y-10352579D01*
X5274825Y-10314484D02*
X5274825Y-10352579D01*
X5570063Y-10590674D02*
X5560539Y-10581150D01*
X5560539Y-10581150D02*
X5541491Y-10552579D01*
X5541491Y-10552579D02*
X5531968Y-10533531D01*
X5531968Y-10533531D02*
X5522444Y-10504960D01*
X5522444Y-10504960D02*
X5512920Y-10457341D01*
X5512920Y-10457341D02*
X5512920Y-10419246D01*
X5512920Y-10419246D02*
X5522444Y-10371627D01*
X5522444Y-10371627D02*
X5531968Y-10343055D01*
X5531968Y-10343055D02*
X5541491Y-10324008D01*
X5541491Y-10324008D02*
X5560539Y-10295436D01*
X5560539Y-10295436D02*
X5570063Y-10285912D01*
X5636729Y-10333531D02*
X5646253Y-10324008D01*
X5646253Y-10324008D02*
X5665301Y-10314484D01*
X5665301Y-10314484D02*
X5712920Y-10314484D01*
X5712920Y-10314484D02*
X5731968Y-10324008D01*
X5731968Y-10324008D02*
X5741491Y-10333531D01*
X5741491Y-10333531D02*
X5751015Y-10352579D01*
X5751015Y-10352579D02*
X5751015Y-10371627D01*
X5751015Y-10371627D02*
X5741491Y-10400198D01*
X5741491Y-10400198D02*
X5627206Y-10514484D01*
X5627206Y-10514484D02*
X5751015Y-10514484D01*
X5817682Y-10314484D02*
X5941491Y-10314484D01*
X5941491Y-10314484D02*
X5874825Y-10390674D01*
X5874825Y-10390674D02*
X5903396Y-10390674D01*
X5903396Y-10390674D02*
X5922444Y-10400198D01*
X5922444Y-10400198D02*
X5931968Y-10409722D01*
X5931968Y-10409722D02*
X5941491Y-10428770D01*
X5941491Y-10428770D02*
X5941491Y-10476389D01*
X5941491Y-10476389D02*
X5931968Y-10495436D01*
X5931968Y-10495436D02*
X5922444Y-10504960D01*
X5922444Y-10504960D02*
X5903396Y-10514484D01*
X5903396Y-10514484D02*
X5846253Y-10514484D01*
X5846253Y-10514484D02*
X5827206Y-10504960D01*
X5827206Y-10504960D02*
X5817682Y-10495436D01*
X6179587Y-10514484D02*
X6179587Y-10314484D01*
X6265301Y-10514484D02*
X6265301Y-10409722D01*
X6265301Y-10409722D02*
X6255777Y-10390674D01*
X6255777Y-10390674D02*
X6236730Y-10381150D01*
X6236730Y-10381150D02*
X6208158Y-10381150D01*
X6208158Y-10381150D02*
X6189110Y-10390674D01*
X6189110Y-10390674D02*
X6179587Y-10400198D01*
X6389110Y-10514484D02*
X6370063Y-10504960D01*
X6370063Y-10504960D02*
X6360539Y-10495436D01*
X6360539Y-10495436D02*
X6351015Y-10476389D01*
X6351015Y-10476389D02*
X6351015Y-10419246D01*
X6351015Y-10419246D02*
X6360539Y-10400198D01*
X6360539Y-10400198D02*
X6370063Y-10390674D01*
X6370063Y-10390674D02*
X6389110Y-10381150D01*
X6389110Y-10381150D02*
X6417682Y-10381150D01*
X6417682Y-10381150D02*
X6436730Y-10390674D01*
X6436730Y-10390674D02*
X6446253Y-10400198D01*
X6446253Y-10400198D02*
X6455777Y-10419246D01*
X6455777Y-10419246D02*
X6455777Y-10476389D01*
X6455777Y-10476389D02*
X6446253Y-10495436D01*
X6446253Y-10495436D02*
X6436730Y-10504960D01*
X6436730Y-10504960D02*
X6417682Y-10514484D01*
X6417682Y-10514484D02*
X6389110Y-10514484D01*
X6570063Y-10514484D02*
X6551015Y-10504960D01*
X6551015Y-10504960D02*
X6541491Y-10485912D01*
X6541491Y-10485912D02*
X6541491Y-10314484D01*
X6722444Y-10504960D02*
X6703396Y-10514484D01*
X6703396Y-10514484D02*
X6665301Y-10514484D01*
X6665301Y-10514484D02*
X6646253Y-10504960D01*
X6646253Y-10504960D02*
X6636730Y-10485912D01*
X6636730Y-10485912D02*
X6636730Y-10409722D01*
X6636730Y-10409722D02*
X6646253Y-10390674D01*
X6646253Y-10390674D02*
X6665301Y-10381150D01*
X6665301Y-10381150D02*
X6703396Y-10381150D01*
X6703396Y-10381150D02*
X6722444Y-10390674D01*
X6722444Y-10390674D02*
X6731968Y-10409722D01*
X6731968Y-10409722D02*
X6731968Y-10428770D01*
X6731968Y-10428770D02*
X6636730Y-10447817D01*
X6808158Y-10504960D02*
X6827206Y-10514484D01*
X6827206Y-10514484D02*
X6865301Y-10514484D01*
X6865301Y-10514484D02*
X6884349Y-10504960D01*
X6884349Y-10504960D02*
X6893872Y-10485912D01*
X6893872Y-10485912D02*
X6893872Y-10476389D01*
X6893872Y-10476389D02*
X6884349Y-10457341D01*
X6884349Y-10457341D02*
X6865301Y-10447817D01*
X6865301Y-10447817D02*
X6836730Y-10447817D01*
X6836730Y-10447817D02*
X6817682Y-10438293D01*
X6817682Y-10438293D02*
X6808158Y-10419246D01*
X6808158Y-10419246D02*
X6808158Y-10409722D01*
X6808158Y-10409722D02*
X6817682Y-10390674D01*
X6817682Y-10390674D02*
X6836730Y-10381150D01*
X6836730Y-10381150D02*
X6865301Y-10381150D01*
X6865301Y-10381150D02*
X6884349Y-10390674D01*
X6960539Y-10590674D02*
X6970063Y-10581150D01*
X6970063Y-10581150D02*
X6989111Y-10552579D01*
X6989111Y-10552579D02*
X6998634Y-10533531D01*
X6998634Y-10533531D02*
X7008158Y-10504960D01*
X7008158Y-10504960D02*
X7017682Y-10457341D01*
X7017682Y-10457341D02*
X7017682Y-10419246D01*
X7017682Y-10419246D02*
X7008158Y-10371627D01*
X7008158Y-10371627D02*
X6998634Y-10343055D01*
X6998634Y-10343055D02*
X6989111Y-10324008D01*
X6989111Y-10324008D02*
X6970063Y-10295436D01*
X6970063Y-10295436D02*
X6960539Y-10285912D01*
D10*
X1980356Y-10722356D02*
X1980356Y-10651644D01*
X1909644Y-10651644D01*
X1909644Y-10722356D01*
X1980356Y-10722356D01*
D11*
X2360539Y-10778484D02*
X2246253Y-10778484D01*
X2303396Y-10778484D02*
X2303396Y-10578484D01*
X2303396Y-10578484D02*
X2284348Y-10607055D01*
X2284348Y-10607055D02*
X2265301Y-10626103D01*
X2265301Y-10626103D02*
X2246253Y-10635627D01*
X2446253Y-10759436D02*
X2455777Y-10768960D01*
X2455777Y-10768960D02*
X2446253Y-10778484D01*
X2446253Y-10778484D02*
X2436729Y-10768960D01*
X2436729Y-10768960D02*
X2446253Y-10759436D01*
X2446253Y-10759436D02*
X2446253Y-10778484D01*
X2579586Y-10578484D02*
X2598634Y-10578484D01*
X2598634Y-10578484D02*
X2617682Y-10588008D01*
X2617682Y-10588008D02*
X2627205Y-10597531D01*
X2627205Y-10597531D02*
X2636729Y-10616579D01*
X2636729Y-10616579D02*
X2646253Y-10654674D01*
X2646253Y-10654674D02*
X2646253Y-10702293D01*
X2646253Y-10702293D02*
X2636729Y-10740389D01*
X2636729Y-10740389D02*
X2627205Y-10759436D01*
X2627205Y-10759436D02*
X2617682Y-10768960D01*
X2617682Y-10768960D02*
X2598634Y-10778484D01*
X2598634Y-10778484D02*
X2579586Y-10778484D01*
X2579586Y-10778484D02*
X2560539Y-10768960D01*
X2560539Y-10768960D02*
X2551015Y-10759436D01*
X2551015Y-10759436D02*
X2541491Y-10740389D01*
X2541491Y-10740389D02*
X2531967Y-10702293D01*
X2531967Y-10702293D02*
X2531967Y-10654674D01*
X2531967Y-10654674D02*
X2541491Y-10616579D01*
X2541491Y-10616579D02*
X2551015Y-10597531D01*
X2551015Y-10597531D02*
X2560539Y-10588008D01*
X2560539Y-10588008D02*
X2579586Y-10578484D01*
X2770063Y-10578484D02*
X2789110Y-10578484D01*
X2789110Y-10578484D02*
X2808158Y-10588008D01*
X2808158Y-10588008D02*
X2817682Y-10597531D01*
X2817682Y-10597531D02*
X2827205Y-10616579D01*
X2827205Y-10616579D02*
X2836729Y-10654674D01*
X2836729Y-10654674D02*
X2836729Y-10702293D01*
X2836729Y-10702293D02*
X2827205Y-10740389D01*
X2827205Y-10740389D02*
X2817682Y-10759436D01*
X2817682Y-10759436D02*
X2808158Y-10768960D01*
X2808158Y-10768960D02*
X2789110Y-10778484D01*
X2789110Y-10778484D02*
X2770063Y-10778484D01*
X2770063Y-10778484D02*
X2751015Y-10768960D01*
X2751015Y-10768960D02*
X2741491Y-10759436D01*
X2741491Y-10759436D02*
X2731967Y-10740389D01*
X2731967Y-10740389D02*
X2722444Y-10702293D01*
X2722444Y-10702293D02*
X2722444Y-10654674D01*
X2722444Y-10654674D02*
X2731967Y-10616579D01*
X2731967Y-10616579D02*
X2741491Y-10597531D01*
X2741491Y-10597531D02*
X2751015Y-10588008D01*
X2751015Y-10588008D02*
X2770063Y-10578484D01*
X2960539Y-10578484D02*
X2979586Y-10578484D01*
X2979586Y-10578484D02*
X2998634Y-10588008D01*
X2998634Y-10588008D02*
X3008158Y-10597531D01*
X3008158Y-10597531D02*
X3017682Y-10616579D01*
X3017682Y-10616579D02*
X3027205Y-10654674D01*
X3027205Y-10654674D02*
X3027205Y-10702293D01*
X3027205Y-10702293D02*
X3017682Y-10740389D01*
X3017682Y-10740389D02*
X3008158Y-10759436D01*
X3008158Y-10759436D02*
X2998634Y-10768960D01*
X2998634Y-10768960D02*
X2979586Y-10778484D01*
X2979586Y-10778484D02*
X2960539Y-10778484D01*
X2960539Y-10778484D02*
X2941491Y-10768960D01*
X2941491Y-10768960D02*
X2931967Y-10759436D01*
X2931967Y-10759436D02*
X2922443Y-10740389D01*
X2922443Y-10740389D02*
X2912920Y-10702293D01*
X2912920Y-10702293D02*
X2912920Y-10654674D01*
X2912920Y-10654674D02*
X2922443Y-10616579D01*
X2922443Y-10616579D02*
X2931967Y-10597531D01*
X2931967Y-10597531D02*
X2941491Y-10588008D01*
X2941491Y-10588008D02*
X2960539Y-10578484D01*
X3112920Y-10778484D02*
X3112920Y-10645150D01*
X3112920Y-10664198D02*
X3122443Y-10654674D01*
X3122443Y-10654674D02*
X3141491Y-10645150D01*
X3141491Y-10645150D02*
X3170063Y-10645150D01*
X3170063Y-10645150D02*
X3189110Y-10654674D01*
X3189110Y-10654674D02*
X3198634Y-10673722D01*
X3198634Y-10673722D02*
X3198634Y-10778484D01*
X3198634Y-10673722D02*
X3208158Y-10654674D01*
X3208158Y-10654674D02*
X3227205Y-10645150D01*
X3227205Y-10645150D02*
X3255777Y-10645150D01*
X3255777Y-10645150D02*
X3274824Y-10654674D01*
X3274824Y-10654674D02*
X3284348Y-10673722D01*
X3284348Y-10673722D02*
X3284348Y-10778484D01*
X3379586Y-10778484D02*
X3379586Y-10645150D01*
X3379586Y-10664198D02*
X3389110Y-10654674D01*
X3389110Y-10654674D02*
X3408158Y-10645150D01*
X3408158Y-10645150D02*
X3436729Y-10645150D01*
X3436729Y-10645150D02*
X3455777Y-10654674D01*
X3455777Y-10654674D02*
X3465301Y-10673722D01*
X3465301Y-10673722D02*
X3465301Y-10778484D01*
X3465301Y-10673722D02*
X3474824Y-10654674D01*
X3474824Y-10654674D02*
X3493872Y-10645150D01*
X3493872Y-10645150D02*
X3522443Y-10645150D01*
X3522443Y-10645150D02*
X3541491Y-10654674D01*
X3541491Y-10654674D02*
X3551015Y-10673722D01*
X3551015Y-10673722D02*
X3551015Y-10778484D01*
X3941491Y-10568960D02*
X3770063Y-10826103D01*
X4198634Y-10578484D02*
X4217682Y-10578484D01*
X4217682Y-10578484D02*
X4236729Y-10588008D01*
X4236729Y-10588008D02*
X4246253Y-10597531D01*
X4246253Y-10597531D02*
X4255777Y-10616579D01*
X4255777Y-10616579D02*
X4265301Y-10654674D01*
X4265301Y-10654674D02*
X4265301Y-10702293D01*
X4265301Y-10702293D02*
X4255777Y-10740389D01*
X4255777Y-10740389D02*
X4246253Y-10759436D01*
X4246253Y-10759436D02*
X4236729Y-10768960D01*
X4236729Y-10768960D02*
X4217682Y-10778484D01*
X4217682Y-10778484D02*
X4198634Y-10778484D01*
X4198634Y-10778484D02*
X4179586Y-10768960D01*
X4179586Y-10768960D02*
X4170063Y-10759436D01*
X4170063Y-10759436D02*
X4160539Y-10740389D01*
X4160539Y-10740389D02*
X4151015Y-10702293D01*
X4151015Y-10702293D02*
X4151015Y-10654674D01*
X4151015Y-10654674D02*
X4160539Y-10616579D01*
X4160539Y-10616579D02*
X4170063Y-10597531D01*
X4170063Y-10597531D02*
X4179586Y-10588008D01*
X4179586Y-10588008D02*
X4198634Y-10578484D01*
X4351015Y-10759436D02*
X4360539Y-10768960D01*
X4360539Y-10768960D02*
X4351015Y-10778484D01*
X4351015Y-10778484D02*
X4341491Y-10768960D01*
X4341491Y-10768960D02*
X4351015Y-10759436D01*
X4351015Y-10759436D02*
X4351015Y-10778484D01*
X4484348Y-10578484D02*
X4503396Y-10578484D01*
X4503396Y-10578484D02*
X4522444Y-10588008D01*
X4522444Y-10588008D02*
X4531968Y-10597531D01*
X4531968Y-10597531D02*
X4541491Y-10616579D01*
X4541491Y-10616579D02*
X4551015Y-10654674D01*
X4551015Y-10654674D02*
X4551015Y-10702293D01*
X4551015Y-10702293D02*
X4541491Y-10740389D01*
X4541491Y-10740389D02*
X4531968Y-10759436D01*
X4531968Y-10759436D02*
X4522444Y-10768960D01*
X4522444Y-10768960D02*
X4503396Y-10778484D01*
X4503396Y-10778484D02*
X4484348Y-10778484D01*
X4484348Y-10778484D02*
X4465301Y-10768960D01*
X4465301Y-10768960D02*
X4455777Y-10759436D01*
X4455777Y-10759436D02*
X4446253Y-10740389D01*
X4446253Y-10740389D02*
X4436729Y-10702293D01*
X4436729Y-10702293D02*
X4436729Y-10654674D01*
X4436729Y-10654674D02*
X4446253Y-10616579D01*
X4446253Y-10616579D02*
X4455777Y-10597531D01*
X4455777Y-10597531D02*
X4465301Y-10588008D01*
X4465301Y-10588008D02*
X4484348Y-10578484D01*
X4617682Y-10578484D02*
X4741491Y-10578484D01*
X4741491Y-10578484D02*
X4674825Y-10654674D01*
X4674825Y-10654674D02*
X4703396Y-10654674D01*
X4703396Y-10654674D02*
X4722444Y-10664198D01*
X4722444Y-10664198D02*
X4731968Y-10673722D01*
X4731968Y-10673722D02*
X4741491Y-10692770D01*
X4741491Y-10692770D02*
X4741491Y-10740389D01*
X4741491Y-10740389D02*
X4731968Y-10759436D01*
X4731968Y-10759436D02*
X4722444Y-10768960D01*
X4722444Y-10768960D02*
X4703396Y-10778484D01*
X4703396Y-10778484D02*
X4646253Y-10778484D01*
X4646253Y-10778484D02*
X4627206Y-10768960D01*
X4627206Y-10768960D02*
X4617682Y-10759436D01*
X4836729Y-10778484D02*
X4874825Y-10778484D01*
X4874825Y-10778484D02*
X4893872Y-10768960D01*
X4893872Y-10768960D02*
X4903396Y-10759436D01*
X4903396Y-10759436D02*
X4922444Y-10730865D01*
X4922444Y-10730865D02*
X4931968Y-10692770D01*
X4931968Y-10692770D02*
X4931968Y-10616579D01*
X4931968Y-10616579D02*
X4922444Y-10597531D01*
X4922444Y-10597531D02*
X4912920Y-10588008D01*
X4912920Y-10588008D02*
X4893872Y-10578484D01*
X4893872Y-10578484D02*
X4855777Y-10578484D01*
X4855777Y-10578484D02*
X4836729Y-10588008D01*
X4836729Y-10588008D02*
X4827206Y-10597531D01*
X4827206Y-10597531D02*
X4817682Y-10616579D01*
X4817682Y-10616579D02*
X4817682Y-10664198D01*
X4817682Y-10664198D02*
X4827206Y-10683246D01*
X4827206Y-10683246D02*
X4836729Y-10692770D01*
X4836729Y-10692770D02*
X4855777Y-10702293D01*
X4855777Y-10702293D02*
X4893872Y-10702293D01*
X4893872Y-10702293D02*
X4912920Y-10692770D01*
X4912920Y-10692770D02*
X4922444Y-10683246D01*
X4922444Y-10683246D02*
X4931968Y-10664198D01*
X5103396Y-10645150D02*
X5103396Y-10778484D01*
X5055777Y-10568960D02*
X5008158Y-10711817D01*
X5008158Y-10711817D02*
X5131968Y-10711817D01*
X5198634Y-10578484D02*
X5198634Y-10616579D01*
X5274825Y-10578484D02*
X5274825Y-10616579D01*
X5570063Y-10854674D02*
X5560539Y-10845150D01*
X5560539Y-10845150D02*
X5541491Y-10816579D01*
X5541491Y-10816579D02*
X5531968Y-10797531D01*
X5531968Y-10797531D02*
X5522444Y-10768960D01*
X5522444Y-10768960D02*
X5512920Y-10721341D01*
X5512920Y-10721341D02*
X5512920Y-10683246D01*
X5512920Y-10683246D02*
X5522444Y-10635627D01*
X5522444Y-10635627D02*
X5531968Y-10607055D01*
X5531968Y-10607055D02*
X5541491Y-10588008D01*
X5541491Y-10588008D02*
X5560539Y-10559436D01*
X5560539Y-10559436D02*
X5570063Y-10549912D01*
X5741491Y-10578484D02*
X5646253Y-10578484D01*
X5646253Y-10578484D02*
X5636729Y-10673722D01*
X5636729Y-10673722D02*
X5646253Y-10664198D01*
X5646253Y-10664198D02*
X5665301Y-10654674D01*
X5665301Y-10654674D02*
X5712920Y-10654674D01*
X5712920Y-10654674D02*
X5731968Y-10664198D01*
X5731968Y-10664198D02*
X5741491Y-10673722D01*
X5741491Y-10673722D02*
X5751015Y-10692770D01*
X5751015Y-10692770D02*
X5751015Y-10740389D01*
X5751015Y-10740389D02*
X5741491Y-10759436D01*
X5741491Y-10759436D02*
X5731968Y-10768960D01*
X5731968Y-10768960D02*
X5712920Y-10778484D01*
X5712920Y-10778484D02*
X5665301Y-10778484D01*
X5665301Y-10778484D02*
X5646253Y-10768960D01*
X5646253Y-10768960D02*
X5636729Y-10759436D01*
X5989110Y-10778484D02*
X5989110Y-10578484D01*
X6074825Y-10778484D02*
X6074825Y-10673722D01*
X6074825Y-10673722D02*
X6065301Y-10654674D01*
X6065301Y-10654674D02*
X6046253Y-10645150D01*
X6046253Y-10645150D02*
X6017682Y-10645150D01*
X6017682Y-10645150D02*
X5998634Y-10654674D01*
X5998634Y-10654674D02*
X5989110Y-10664198D01*
X6198634Y-10778484D02*
X6179587Y-10768960D01*
X6179587Y-10768960D02*
X6170063Y-10759436D01*
X6170063Y-10759436D02*
X6160539Y-10740389D01*
X6160539Y-10740389D02*
X6160539Y-10683246D01*
X6160539Y-10683246D02*
X6170063Y-10664198D01*
X6170063Y-10664198D02*
X6179587Y-10654674D01*
X6179587Y-10654674D02*
X6198634Y-10645150D01*
X6198634Y-10645150D02*
X6227206Y-10645150D01*
X6227206Y-10645150D02*
X6246253Y-10654674D01*
X6246253Y-10654674D02*
X6255777Y-10664198D01*
X6255777Y-10664198D02*
X6265301Y-10683246D01*
X6265301Y-10683246D02*
X6265301Y-10740389D01*
X6265301Y-10740389D02*
X6255777Y-10759436D01*
X6255777Y-10759436D02*
X6246253Y-10768960D01*
X6246253Y-10768960D02*
X6227206Y-10778484D01*
X6227206Y-10778484D02*
X6198634Y-10778484D01*
X6379587Y-10778484D02*
X6360539Y-10768960D01*
X6360539Y-10768960D02*
X6351015Y-10749912D01*
X6351015Y-10749912D02*
X6351015Y-10578484D01*
X6531968Y-10768960D02*
X6512920Y-10778484D01*
X6512920Y-10778484D02*
X6474825Y-10778484D01*
X6474825Y-10778484D02*
X6455777Y-10768960D01*
X6455777Y-10768960D02*
X6446253Y-10749912D01*
X6446253Y-10749912D02*
X6446253Y-10673722D01*
X6446253Y-10673722D02*
X6455777Y-10654674D01*
X6455777Y-10654674D02*
X6474825Y-10645150D01*
X6474825Y-10645150D02*
X6512920Y-10645150D01*
X6512920Y-10645150D02*
X6531968Y-10654674D01*
X6531968Y-10654674D02*
X6541491Y-10673722D01*
X6541491Y-10673722D02*
X6541491Y-10692770D01*
X6541491Y-10692770D02*
X6446253Y-10711817D01*
X6617682Y-10768960D02*
X6636730Y-10778484D01*
X6636730Y-10778484D02*
X6674825Y-10778484D01*
X6674825Y-10778484D02*
X6693872Y-10768960D01*
X6693872Y-10768960D02*
X6703396Y-10749912D01*
X6703396Y-10749912D02*
X6703396Y-10740389D01*
X6703396Y-10740389D02*
X6693872Y-10721341D01*
X6693872Y-10721341D02*
X6674825Y-10711817D01*
X6674825Y-10711817D02*
X6646253Y-10711817D01*
X6646253Y-10711817D02*
X6627206Y-10702293D01*
X6627206Y-10702293D02*
X6617682Y-10683246D01*
X6617682Y-10683246D02*
X6617682Y-10673722D01*
X6617682Y-10673722D02*
X6627206Y-10654674D01*
X6627206Y-10654674D02*
X6646253Y-10645150D01*
X6646253Y-10645150D02*
X6674825Y-10645150D01*
X6674825Y-10645150D02*
X6693872Y-10654674D01*
X6770063Y-10854674D02*
X6779587Y-10845150D01*
X6779587Y-10845150D02*
X6798634Y-10816579D01*
X6798634Y-10816579D02*
X6808158Y-10797531D01*
X6808158Y-10797531D02*
X6817682Y-10768960D01*
X6817682Y-10768960D02*
X6827206Y-10721341D01*
X6827206Y-10721341D02*
X6827206Y-10683246D01*
X6827206Y-10683246D02*
X6817682Y-10635627D01*
X6817682Y-10635627D02*
X6808158Y-10607055D01*
X6808158Y-10607055D02*
X6798634Y-10588008D01*
X6798634Y-10588008D02*
X6779587Y-10559436D01*
X6779587Y-10559436D02*
X6770063Y-10549912D01*
D12*
X1920000Y-11026000D02*
X1995000Y-10951000D01*
X1920000Y-10876000D01*
X1845000Y-10951000D01*
X1920000Y-11026000D01*
D11*
X2360539Y-11042484D02*
X2246253Y-11042484D01*
X2303396Y-11042484D02*
X2303396Y-10842484D01*
X2303396Y-10842484D02*
X2284348Y-10871055D01*
X2284348Y-10871055D02*
X2265301Y-10890103D01*
X2265301Y-10890103D02*
X2246253Y-10899627D01*
X2446253Y-11023436D02*
X2455777Y-11032960D01*
X2455777Y-11032960D02*
X2446253Y-11042484D01*
X2446253Y-11042484D02*
X2436729Y-11032960D01*
X2436729Y-11032960D02*
X2446253Y-11023436D01*
X2446253Y-11023436D02*
X2446253Y-11042484D01*
X2636729Y-10842484D02*
X2541491Y-10842484D01*
X2541491Y-10842484D02*
X2531967Y-10937722D01*
X2531967Y-10937722D02*
X2541491Y-10928198D01*
X2541491Y-10928198D02*
X2560539Y-10918674D01*
X2560539Y-10918674D02*
X2608158Y-10918674D01*
X2608158Y-10918674D02*
X2627205Y-10928198D01*
X2627205Y-10928198D02*
X2636729Y-10937722D01*
X2636729Y-10937722D02*
X2646253Y-10956770D01*
X2646253Y-10956770D02*
X2646253Y-11004389D01*
X2646253Y-11004389D02*
X2636729Y-11023436D01*
X2636729Y-11023436D02*
X2627205Y-11032960D01*
X2627205Y-11032960D02*
X2608158Y-11042484D01*
X2608158Y-11042484D02*
X2560539Y-11042484D01*
X2560539Y-11042484D02*
X2541491Y-11032960D01*
X2541491Y-11032960D02*
X2531967Y-11023436D01*
X2770063Y-10842484D02*
X2789110Y-10842484D01*
X2789110Y-10842484D02*
X2808158Y-10852008D01*
X2808158Y-10852008D02*
X2817682Y-10861531D01*
X2817682Y-10861531D02*
X2827205Y-10880579D01*
X2827205Y-10880579D02*
X2836729Y-10918674D01*
X2836729Y-10918674D02*
X2836729Y-10966293D01*
X2836729Y-10966293D02*
X2827205Y-11004389D01*
X2827205Y-11004389D02*
X2817682Y-11023436D01*
X2817682Y-11023436D02*
X2808158Y-11032960D01*
X2808158Y-11032960D02*
X2789110Y-11042484D01*
X2789110Y-11042484D02*
X2770063Y-11042484D01*
X2770063Y-11042484D02*
X2751015Y-11032960D01*
X2751015Y-11032960D02*
X2741491Y-11023436D01*
X2741491Y-11023436D02*
X2731967Y-11004389D01*
X2731967Y-11004389D02*
X2722444Y-10966293D01*
X2722444Y-10966293D02*
X2722444Y-10918674D01*
X2722444Y-10918674D02*
X2731967Y-10880579D01*
X2731967Y-10880579D02*
X2741491Y-10861531D01*
X2741491Y-10861531D02*
X2751015Y-10852008D01*
X2751015Y-10852008D02*
X2770063Y-10842484D01*
X2960539Y-10842484D02*
X2979586Y-10842484D01*
X2979586Y-10842484D02*
X2998634Y-10852008D01*
X2998634Y-10852008D02*
X3008158Y-10861531D01*
X3008158Y-10861531D02*
X3017682Y-10880579D01*
X3017682Y-10880579D02*
X3027205Y-10918674D01*
X3027205Y-10918674D02*
X3027205Y-10966293D01*
X3027205Y-10966293D02*
X3017682Y-11004389D01*
X3017682Y-11004389D02*
X3008158Y-11023436D01*
X3008158Y-11023436D02*
X2998634Y-11032960D01*
X2998634Y-11032960D02*
X2979586Y-11042484D01*
X2979586Y-11042484D02*
X2960539Y-11042484D01*
X2960539Y-11042484D02*
X2941491Y-11032960D01*
X2941491Y-11032960D02*
X2931967Y-11023436D01*
X2931967Y-11023436D02*
X2922443Y-11004389D01*
X2922443Y-11004389D02*
X2912920Y-10966293D01*
X2912920Y-10966293D02*
X2912920Y-10918674D01*
X2912920Y-10918674D02*
X2922443Y-10880579D01*
X2922443Y-10880579D02*
X2931967Y-10861531D01*
X2931967Y-10861531D02*
X2941491Y-10852008D01*
X2941491Y-10852008D02*
X2960539Y-10842484D01*
X3112920Y-11042484D02*
X3112920Y-10909150D01*
X3112920Y-10928198D02*
X3122443Y-10918674D01*
X3122443Y-10918674D02*
X3141491Y-10909150D01*
X3141491Y-10909150D02*
X3170063Y-10909150D01*
X3170063Y-10909150D02*
X3189110Y-10918674D01*
X3189110Y-10918674D02*
X3198634Y-10937722D01*
X3198634Y-10937722D02*
X3198634Y-11042484D01*
X3198634Y-10937722D02*
X3208158Y-10918674D01*
X3208158Y-10918674D02*
X3227205Y-10909150D01*
X3227205Y-10909150D02*
X3255777Y-10909150D01*
X3255777Y-10909150D02*
X3274824Y-10918674D01*
X3274824Y-10918674D02*
X3284348Y-10937722D01*
X3284348Y-10937722D02*
X3284348Y-11042484D01*
X3379586Y-11042484D02*
X3379586Y-10909150D01*
X3379586Y-10928198D02*
X3389110Y-10918674D01*
X3389110Y-10918674D02*
X3408158Y-10909150D01*
X3408158Y-10909150D02*
X3436729Y-10909150D01*
X3436729Y-10909150D02*
X3455777Y-10918674D01*
X3455777Y-10918674D02*
X3465301Y-10937722D01*
X3465301Y-10937722D02*
X3465301Y-11042484D01*
X3465301Y-10937722D02*
X3474824Y-10918674D01*
X3474824Y-10918674D02*
X3493872Y-10909150D01*
X3493872Y-10909150D02*
X3522443Y-10909150D01*
X3522443Y-10909150D02*
X3541491Y-10918674D01*
X3541491Y-10918674D02*
X3551015Y-10937722D01*
X3551015Y-10937722D02*
X3551015Y-11042484D01*
X3941491Y-10832960D02*
X3770063Y-11090103D01*
X4198634Y-10842484D02*
X4217682Y-10842484D01*
X4217682Y-10842484D02*
X4236729Y-10852008D01*
X4236729Y-10852008D02*
X4246253Y-10861531D01*
X4246253Y-10861531D02*
X4255777Y-10880579D01*
X4255777Y-10880579D02*
X4265301Y-10918674D01*
X4265301Y-10918674D02*
X4265301Y-10966293D01*
X4265301Y-10966293D02*
X4255777Y-11004389D01*
X4255777Y-11004389D02*
X4246253Y-11023436D01*
X4246253Y-11023436D02*
X4236729Y-11032960D01*
X4236729Y-11032960D02*
X4217682Y-11042484D01*
X4217682Y-11042484D02*
X4198634Y-11042484D01*
X4198634Y-11042484D02*
X4179586Y-11032960D01*
X4179586Y-11032960D02*
X4170063Y-11023436D01*
X4170063Y-11023436D02*
X4160539Y-11004389D01*
X4160539Y-11004389D02*
X4151015Y-10966293D01*
X4151015Y-10966293D02*
X4151015Y-10918674D01*
X4151015Y-10918674D02*
X4160539Y-10880579D01*
X4160539Y-10880579D02*
X4170063Y-10861531D01*
X4170063Y-10861531D02*
X4179586Y-10852008D01*
X4179586Y-10852008D02*
X4198634Y-10842484D01*
X4351015Y-11023436D02*
X4360539Y-11032960D01*
X4360539Y-11032960D02*
X4351015Y-11042484D01*
X4351015Y-11042484D02*
X4341491Y-11032960D01*
X4341491Y-11032960D02*
X4351015Y-11023436D01*
X4351015Y-11023436D02*
X4351015Y-11042484D01*
X4484348Y-10842484D02*
X4503396Y-10842484D01*
X4503396Y-10842484D02*
X4522444Y-10852008D01*
X4522444Y-10852008D02*
X4531968Y-10861531D01*
X4531968Y-10861531D02*
X4541491Y-10880579D01*
X4541491Y-10880579D02*
X4551015Y-10918674D01*
X4551015Y-10918674D02*
X4551015Y-10966293D01*
X4551015Y-10966293D02*
X4541491Y-11004389D01*
X4541491Y-11004389D02*
X4531968Y-11023436D01*
X4531968Y-11023436D02*
X4522444Y-11032960D01*
X4522444Y-11032960D02*
X4503396Y-11042484D01*
X4503396Y-11042484D02*
X4484348Y-11042484D01*
X4484348Y-11042484D02*
X4465301Y-11032960D01*
X4465301Y-11032960D02*
X4455777Y-11023436D01*
X4455777Y-11023436D02*
X4446253Y-11004389D01*
X4446253Y-11004389D02*
X4436729Y-10966293D01*
X4436729Y-10966293D02*
X4436729Y-10918674D01*
X4436729Y-10918674D02*
X4446253Y-10880579D01*
X4446253Y-10880579D02*
X4455777Y-10861531D01*
X4455777Y-10861531D02*
X4465301Y-10852008D01*
X4465301Y-10852008D02*
X4484348Y-10842484D01*
X4731968Y-10842484D02*
X4636729Y-10842484D01*
X4636729Y-10842484D02*
X4627206Y-10937722D01*
X4627206Y-10937722D02*
X4636729Y-10928198D01*
X4636729Y-10928198D02*
X4655777Y-10918674D01*
X4655777Y-10918674D02*
X4703396Y-10918674D01*
X4703396Y-10918674D02*
X4722444Y-10928198D01*
X4722444Y-10928198D02*
X4731968Y-10937722D01*
X4731968Y-10937722D02*
X4741491Y-10956770D01*
X4741491Y-10956770D02*
X4741491Y-11004389D01*
X4741491Y-11004389D02*
X4731968Y-11023436D01*
X4731968Y-11023436D02*
X4722444Y-11032960D01*
X4722444Y-11032960D02*
X4703396Y-11042484D01*
X4703396Y-11042484D02*
X4655777Y-11042484D01*
X4655777Y-11042484D02*
X4636729Y-11032960D01*
X4636729Y-11032960D02*
X4627206Y-11023436D01*
X4836729Y-11042484D02*
X4874825Y-11042484D01*
X4874825Y-11042484D02*
X4893872Y-11032960D01*
X4893872Y-11032960D02*
X4903396Y-11023436D01*
X4903396Y-11023436D02*
X4922444Y-10994865D01*
X4922444Y-10994865D02*
X4931968Y-10956770D01*
X4931968Y-10956770D02*
X4931968Y-10880579D01*
X4931968Y-10880579D02*
X4922444Y-10861531D01*
X4922444Y-10861531D02*
X4912920Y-10852008D01*
X4912920Y-10852008D02*
X4893872Y-10842484D01*
X4893872Y-10842484D02*
X4855777Y-10842484D01*
X4855777Y-10842484D02*
X4836729Y-10852008D01*
X4836729Y-10852008D02*
X4827206Y-10861531D01*
X4827206Y-10861531D02*
X4817682Y-10880579D01*
X4817682Y-10880579D02*
X4817682Y-10928198D01*
X4817682Y-10928198D02*
X4827206Y-10947246D01*
X4827206Y-10947246D02*
X4836729Y-10956770D01*
X4836729Y-10956770D02*
X4855777Y-10966293D01*
X4855777Y-10966293D02*
X4893872Y-10966293D01*
X4893872Y-10966293D02*
X4912920Y-10956770D01*
X4912920Y-10956770D02*
X4922444Y-10947246D01*
X4922444Y-10947246D02*
X4931968Y-10928198D01*
X5122444Y-11042484D02*
X5008158Y-11042484D01*
X5065301Y-11042484D02*
X5065301Y-10842484D01*
X5065301Y-10842484D02*
X5046253Y-10871055D01*
X5046253Y-10871055D02*
X5027206Y-10890103D01*
X5027206Y-10890103D02*
X5008158Y-10899627D01*
X5198634Y-10842484D02*
X5198634Y-10880579D01*
X5274825Y-10842484D02*
X5274825Y-10880579D01*
X5570063Y-11118674D02*
X5560539Y-11109150D01*
X5560539Y-11109150D02*
X5541491Y-11080579D01*
X5541491Y-11080579D02*
X5531968Y-11061531D01*
X5531968Y-11061531D02*
X5522444Y-11032960D01*
X5522444Y-11032960D02*
X5512920Y-10985341D01*
X5512920Y-10985341D02*
X5512920Y-10947246D01*
X5512920Y-10947246D02*
X5522444Y-10899627D01*
X5522444Y-10899627D02*
X5531968Y-10871055D01*
X5531968Y-10871055D02*
X5541491Y-10852008D01*
X5541491Y-10852008D02*
X5560539Y-10823436D01*
X5560539Y-10823436D02*
X5570063Y-10813912D01*
X5627206Y-10842484D02*
X5751015Y-10842484D01*
X5751015Y-10842484D02*
X5684348Y-10918674D01*
X5684348Y-10918674D02*
X5712920Y-10918674D01*
X5712920Y-10918674D02*
X5731968Y-10928198D01*
X5731968Y-10928198D02*
X5741491Y-10937722D01*
X5741491Y-10937722D02*
X5751015Y-10956770D01*
X5751015Y-10956770D02*
X5751015Y-11004389D01*
X5751015Y-11004389D02*
X5741491Y-11023436D01*
X5741491Y-11023436D02*
X5731968Y-11032960D01*
X5731968Y-11032960D02*
X5712920Y-11042484D01*
X5712920Y-11042484D02*
X5655777Y-11042484D01*
X5655777Y-11042484D02*
X5636729Y-11032960D01*
X5636729Y-11032960D02*
X5627206Y-11023436D01*
X5874825Y-10842484D02*
X5893872Y-10842484D01*
X5893872Y-10842484D02*
X5912920Y-10852008D01*
X5912920Y-10852008D02*
X5922444Y-10861531D01*
X5922444Y-10861531D02*
X5931968Y-10880579D01*
X5931968Y-10880579D02*
X5941491Y-10918674D01*
X5941491Y-10918674D02*
X5941491Y-10966293D01*
X5941491Y-10966293D02*
X5931968Y-11004389D01*
X5931968Y-11004389D02*
X5922444Y-11023436D01*
X5922444Y-11023436D02*
X5912920Y-11032960D01*
X5912920Y-11032960D02*
X5893872Y-11042484D01*
X5893872Y-11042484D02*
X5874825Y-11042484D01*
X5874825Y-11042484D02*
X5855777Y-11032960D01*
X5855777Y-11032960D02*
X5846253Y-11023436D01*
X5846253Y-11023436D02*
X5836729Y-11004389D01*
X5836729Y-11004389D02*
X5827206Y-10966293D01*
X5827206Y-10966293D02*
X5827206Y-10918674D01*
X5827206Y-10918674D02*
X5836729Y-10880579D01*
X5836729Y-10880579D02*
X5846253Y-10861531D01*
X5846253Y-10861531D02*
X5855777Y-10852008D01*
X5855777Y-10852008D02*
X5874825Y-10842484D01*
X6179587Y-11042484D02*
X6179587Y-10842484D01*
X6265301Y-11042484D02*
X6265301Y-10937722D01*
X6265301Y-10937722D02*
X6255777Y-10918674D01*
X6255777Y-10918674D02*
X6236730Y-10909150D01*
X6236730Y-10909150D02*
X6208158Y-10909150D01*
X6208158Y-10909150D02*
X6189110Y-10918674D01*
X6189110Y-10918674D02*
X6179587Y-10928198D01*
X6389110Y-11042484D02*
X6370063Y-11032960D01*
X6370063Y-11032960D02*
X6360539Y-11023436D01*
X6360539Y-11023436D02*
X6351015Y-11004389D01*
X6351015Y-11004389D02*
X6351015Y-10947246D01*
X6351015Y-10947246D02*
X6360539Y-10928198D01*
X6360539Y-10928198D02*
X6370063Y-10918674D01*
X6370063Y-10918674D02*
X6389110Y-10909150D01*
X6389110Y-10909150D02*
X6417682Y-10909150D01*
X6417682Y-10909150D02*
X6436730Y-10918674D01*
X6436730Y-10918674D02*
X6446253Y-10928198D01*
X6446253Y-10928198D02*
X6455777Y-10947246D01*
X6455777Y-10947246D02*
X6455777Y-11004389D01*
X6455777Y-11004389D02*
X6446253Y-11023436D01*
X6446253Y-11023436D02*
X6436730Y-11032960D01*
X6436730Y-11032960D02*
X6417682Y-11042484D01*
X6417682Y-11042484D02*
X6389110Y-11042484D01*
X6570063Y-11042484D02*
X6551015Y-11032960D01*
X6551015Y-11032960D02*
X6541491Y-11013912D01*
X6541491Y-11013912D02*
X6541491Y-10842484D01*
X6722444Y-11032960D02*
X6703396Y-11042484D01*
X6703396Y-11042484D02*
X6665301Y-11042484D01*
X6665301Y-11042484D02*
X6646253Y-11032960D01*
X6646253Y-11032960D02*
X6636730Y-11013912D01*
X6636730Y-11013912D02*
X6636730Y-10937722D01*
X6636730Y-10937722D02*
X6646253Y-10918674D01*
X6646253Y-10918674D02*
X6665301Y-10909150D01*
X6665301Y-10909150D02*
X6703396Y-10909150D01*
X6703396Y-10909150D02*
X6722444Y-10918674D01*
X6722444Y-10918674D02*
X6731968Y-10937722D01*
X6731968Y-10937722D02*
X6731968Y-10956770D01*
X6731968Y-10956770D02*
X6636730Y-10975817D01*
X6808158Y-11032960D02*
X6827206Y-11042484D01*
X6827206Y-11042484D02*
X6865301Y-11042484D01*
X6865301Y-11042484D02*
X6884349Y-11032960D01*
X6884349Y-11032960D02*
X6893872Y-11013912D01*
X6893872Y-11013912D02*
X6893872Y-11004389D01*
X6893872Y-11004389D02*
X6884349Y-10985341D01*
X6884349Y-10985341D02*
X6865301Y-10975817D01*
X6865301Y-10975817D02*
X6836730Y-10975817D01*
X6836730Y-10975817D02*
X6817682Y-10966293D01*
X6817682Y-10966293D02*
X6808158Y-10947246D01*
X6808158Y-10947246D02*
X6808158Y-10937722D01*
X6808158Y-10937722D02*
X6817682Y-10918674D01*
X6817682Y-10918674D02*
X6836730Y-10909150D01*
X6836730Y-10909150D02*
X6865301Y-10909150D01*
X6865301Y-10909150D02*
X6884349Y-10918674D01*
X6960539Y-11118674D02*
X6970063Y-11109150D01*
X6970063Y-11109150D02*
X6989111Y-11080579D01*
X6989111Y-11080579D02*
X6998634Y-11061531D01*
X6998634Y-11061531D02*
X7008158Y-11032960D01*
X7008158Y-11032960D02*
X7017682Y-10985341D01*
X7017682Y-10985341D02*
X7017682Y-10947246D01*
X7017682Y-10947246D02*
X7008158Y-10899627D01*
X7008158Y-10899627D02*
X6998634Y-10871055D01*
X6998634Y-10871055D02*
X6989111Y-10852008D01*
X6989111Y-10852008D02*
X6970063Y-10823436D01*
X6970063Y-10823436D02*
X6960539Y-10813912D01*
X1795000Y-11121000D02*
X1995000Y-11321000D01*
X1995000Y-11121000D02*
X1795000Y-11321000D01*
X1995000Y-11221000D02*
G75*
G02*
X1795000Y-11221000I-100000J0D01*
G01*
X1795000Y-11221000D02*
G75*
G02*
X1995000Y-11221000I100000J0D01*
G01*
X2246253Y-11131531D02*
X2255777Y-11122008D01*
X2255777Y-11122008D02*
X2274824Y-11112484D01*
X2274824Y-11112484D02*
X2322444Y-11112484D01*
X2322444Y-11112484D02*
X2341491Y-11122008D01*
X2341491Y-11122008D02*
X2351015Y-11131531D01*
X2351015Y-11131531D02*
X2360539Y-11150579D01*
X2360539Y-11150579D02*
X2360539Y-11169627D01*
X2360539Y-11169627D02*
X2351015Y-11198198D01*
X2351015Y-11198198D02*
X2236729Y-11312484D01*
X2236729Y-11312484D02*
X2360539Y-11312484D01*
X2446253Y-11293436D02*
X2455777Y-11302960D01*
X2455777Y-11302960D02*
X2446253Y-11312484D01*
X2446253Y-11312484D02*
X2436729Y-11302960D01*
X2436729Y-11302960D02*
X2446253Y-11293436D01*
X2446253Y-11293436D02*
X2446253Y-11312484D01*
X2579586Y-11112484D02*
X2598634Y-11112484D01*
X2598634Y-11112484D02*
X2617682Y-11122008D01*
X2617682Y-11122008D02*
X2627205Y-11131531D01*
X2627205Y-11131531D02*
X2636729Y-11150579D01*
X2636729Y-11150579D02*
X2646253Y-11188674D01*
X2646253Y-11188674D02*
X2646253Y-11236293D01*
X2646253Y-11236293D02*
X2636729Y-11274388D01*
X2636729Y-11274388D02*
X2627205Y-11293436D01*
X2627205Y-11293436D02*
X2617682Y-11302960D01*
X2617682Y-11302960D02*
X2598634Y-11312484D01*
X2598634Y-11312484D02*
X2579586Y-11312484D01*
X2579586Y-11312484D02*
X2560539Y-11302960D01*
X2560539Y-11302960D02*
X2551015Y-11293436D01*
X2551015Y-11293436D02*
X2541491Y-11274388D01*
X2541491Y-11274388D02*
X2531967Y-11236293D01*
X2531967Y-11236293D02*
X2531967Y-11188674D01*
X2531967Y-11188674D02*
X2541491Y-11150579D01*
X2541491Y-11150579D02*
X2551015Y-11131531D01*
X2551015Y-11131531D02*
X2560539Y-11122008D01*
X2560539Y-11122008D02*
X2579586Y-11112484D01*
X2770063Y-11112484D02*
X2789110Y-11112484D01*
X2789110Y-11112484D02*
X2808158Y-11122008D01*
X2808158Y-11122008D02*
X2817682Y-11131531D01*
X2817682Y-11131531D02*
X2827205Y-11150579D01*
X2827205Y-11150579D02*
X2836729Y-11188674D01*
X2836729Y-11188674D02*
X2836729Y-11236293D01*
X2836729Y-11236293D02*
X2827205Y-11274388D01*
X2827205Y-11274388D02*
X2817682Y-11293436D01*
X2817682Y-11293436D02*
X2808158Y-11302960D01*
X2808158Y-11302960D02*
X2789110Y-11312484D01*
X2789110Y-11312484D02*
X2770063Y-11312484D01*
X2770063Y-11312484D02*
X2751015Y-11302960D01*
X2751015Y-11302960D02*
X2741491Y-11293436D01*
X2741491Y-11293436D02*
X2731967Y-11274388D01*
X2731967Y-11274388D02*
X2722444Y-11236293D01*
X2722444Y-11236293D02*
X2722444Y-11188674D01*
X2722444Y-11188674D02*
X2731967Y-11150579D01*
X2731967Y-11150579D02*
X2741491Y-11131531D01*
X2741491Y-11131531D02*
X2751015Y-11122008D01*
X2751015Y-11122008D02*
X2770063Y-11112484D01*
X2960539Y-11112484D02*
X2979586Y-11112484D01*
X2979586Y-11112484D02*
X2998634Y-11122008D01*
X2998634Y-11122008D02*
X3008158Y-11131531D01*
X3008158Y-11131531D02*
X3017682Y-11150579D01*
X3017682Y-11150579D02*
X3027205Y-11188674D01*
X3027205Y-11188674D02*
X3027205Y-11236293D01*
X3027205Y-11236293D02*
X3017682Y-11274388D01*
X3017682Y-11274388D02*
X3008158Y-11293436D01*
X3008158Y-11293436D02*
X2998634Y-11302960D01*
X2998634Y-11302960D02*
X2979586Y-11312484D01*
X2979586Y-11312484D02*
X2960539Y-11312484D01*
X2960539Y-11312484D02*
X2941491Y-11302960D01*
X2941491Y-11302960D02*
X2931967Y-11293436D01*
X2931967Y-11293436D02*
X2922443Y-11274388D01*
X2922443Y-11274388D02*
X2912920Y-11236293D01*
X2912920Y-11236293D02*
X2912920Y-11188674D01*
X2912920Y-11188674D02*
X2922443Y-11150579D01*
X2922443Y-11150579D02*
X2931967Y-11131531D01*
X2931967Y-11131531D02*
X2941491Y-11122008D01*
X2941491Y-11122008D02*
X2960539Y-11112484D01*
X3112920Y-11312484D02*
X3112920Y-11179150D01*
X3112920Y-11198198D02*
X3122443Y-11188674D01*
X3122443Y-11188674D02*
X3141491Y-11179150D01*
X3141491Y-11179150D02*
X3170063Y-11179150D01*
X3170063Y-11179150D02*
X3189110Y-11188674D01*
X3189110Y-11188674D02*
X3198634Y-11207722D01*
X3198634Y-11207722D02*
X3198634Y-11312484D01*
X3198634Y-11207722D02*
X3208158Y-11188674D01*
X3208158Y-11188674D02*
X3227205Y-11179150D01*
X3227205Y-11179150D02*
X3255777Y-11179150D01*
X3255777Y-11179150D02*
X3274824Y-11188674D01*
X3274824Y-11188674D02*
X3284348Y-11207722D01*
X3284348Y-11207722D02*
X3284348Y-11312484D01*
X3379586Y-11312484D02*
X3379586Y-11179150D01*
X3379586Y-11198198D02*
X3389110Y-11188674D01*
X3389110Y-11188674D02*
X3408158Y-11179150D01*
X3408158Y-11179150D02*
X3436729Y-11179150D01*
X3436729Y-11179150D02*
X3455777Y-11188674D01*
X3455777Y-11188674D02*
X3465301Y-11207722D01*
X3465301Y-11207722D02*
X3465301Y-11312484D01*
X3465301Y-11207722D02*
X3474824Y-11188674D01*
X3474824Y-11188674D02*
X3493872Y-11179150D01*
X3493872Y-11179150D02*
X3522443Y-11179150D01*
X3522443Y-11179150D02*
X3541491Y-11188674D01*
X3541491Y-11188674D02*
X3551015Y-11207722D01*
X3551015Y-11207722D02*
X3551015Y-11312484D01*
X3941491Y-11102960D02*
X3770063Y-11360103D01*
X4198634Y-11112484D02*
X4217682Y-11112484D01*
X4217682Y-11112484D02*
X4236729Y-11122008D01*
X4236729Y-11122008D02*
X4246253Y-11131531D01*
X4246253Y-11131531D02*
X4255777Y-11150579D01*
X4255777Y-11150579D02*
X4265301Y-11188674D01*
X4265301Y-11188674D02*
X4265301Y-11236293D01*
X4265301Y-11236293D02*
X4255777Y-11274388D01*
X4255777Y-11274388D02*
X4246253Y-11293436D01*
X4246253Y-11293436D02*
X4236729Y-11302960D01*
X4236729Y-11302960D02*
X4217682Y-11312484D01*
X4217682Y-11312484D02*
X4198634Y-11312484D01*
X4198634Y-11312484D02*
X4179586Y-11302960D01*
X4179586Y-11302960D02*
X4170063Y-11293436D01*
X4170063Y-11293436D02*
X4160539Y-11274388D01*
X4160539Y-11274388D02*
X4151015Y-11236293D01*
X4151015Y-11236293D02*
X4151015Y-11188674D01*
X4151015Y-11188674D02*
X4160539Y-11150579D01*
X4160539Y-11150579D02*
X4170063Y-11131531D01*
X4170063Y-11131531D02*
X4179586Y-11122008D01*
X4179586Y-11122008D02*
X4198634Y-11112484D01*
X4351015Y-11293436D02*
X4360539Y-11302960D01*
X4360539Y-11302960D02*
X4351015Y-11312484D01*
X4351015Y-11312484D02*
X4341491Y-11302960D01*
X4341491Y-11302960D02*
X4351015Y-11293436D01*
X4351015Y-11293436D02*
X4351015Y-11312484D01*
X4484348Y-11112484D02*
X4503396Y-11112484D01*
X4503396Y-11112484D02*
X4522444Y-11122008D01*
X4522444Y-11122008D02*
X4531968Y-11131531D01*
X4531968Y-11131531D02*
X4541491Y-11150579D01*
X4541491Y-11150579D02*
X4551015Y-11188674D01*
X4551015Y-11188674D02*
X4551015Y-11236293D01*
X4551015Y-11236293D02*
X4541491Y-11274388D01*
X4541491Y-11274388D02*
X4531968Y-11293436D01*
X4531968Y-11293436D02*
X4522444Y-11302960D01*
X4522444Y-11302960D02*
X4503396Y-11312484D01*
X4503396Y-11312484D02*
X4484348Y-11312484D01*
X4484348Y-11312484D02*
X4465301Y-11302960D01*
X4465301Y-11302960D02*
X4455777Y-11293436D01*
X4455777Y-11293436D02*
X4446253Y-11274388D01*
X4446253Y-11274388D02*
X4436729Y-11236293D01*
X4436729Y-11236293D02*
X4436729Y-11188674D01*
X4436729Y-11188674D02*
X4446253Y-11150579D01*
X4446253Y-11150579D02*
X4455777Y-11131531D01*
X4455777Y-11131531D02*
X4465301Y-11122008D01*
X4465301Y-11122008D02*
X4484348Y-11112484D01*
X4617682Y-11112484D02*
X4751015Y-11112484D01*
X4751015Y-11112484D02*
X4665301Y-11312484D01*
X4855777Y-11198198D02*
X4836729Y-11188674D01*
X4836729Y-11188674D02*
X4827206Y-11179150D01*
X4827206Y-11179150D02*
X4817682Y-11160103D01*
X4817682Y-11160103D02*
X4817682Y-11150579D01*
X4817682Y-11150579D02*
X4827206Y-11131531D01*
X4827206Y-11131531D02*
X4836729Y-11122008D01*
X4836729Y-11122008D02*
X4855777Y-11112484D01*
X4855777Y-11112484D02*
X4893872Y-11112484D01*
X4893872Y-11112484D02*
X4912920Y-11122008D01*
X4912920Y-11122008D02*
X4922444Y-11131531D01*
X4922444Y-11131531D02*
X4931968Y-11150579D01*
X4931968Y-11150579D02*
X4931968Y-11160103D01*
X4931968Y-11160103D02*
X4922444Y-11179150D01*
X4922444Y-11179150D02*
X4912920Y-11188674D01*
X4912920Y-11188674D02*
X4893872Y-11198198D01*
X4893872Y-11198198D02*
X4855777Y-11198198D01*
X4855777Y-11198198D02*
X4836729Y-11207722D01*
X4836729Y-11207722D02*
X4827206Y-11217246D01*
X4827206Y-11217246D02*
X4817682Y-11236293D01*
X4817682Y-11236293D02*
X4817682Y-11274388D01*
X4817682Y-11274388D02*
X4827206Y-11293436D01*
X4827206Y-11293436D02*
X4836729Y-11302960D01*
X4836729Y-11302960D02*
X4855777Y-11312484D01*
X4855777Y-11312484D02*
X4893872Y-11312484D01*
X4893872Y-11312484D02*
X4912920Y-11302960D01*
X4912920Y-11302960D02*
X4922444Y-11293436D01*
X4922444Y-11293436D02*
X4931968Y-11274388D01*
X4931968Y-11274388D02*
X4931968Y-11236293D01*
X4931968Y-11236293D02*
X4922444Y-11217246D01*
X4922444Y-11217246D02*
X4912920Y-11207722D01*
X4912920Y-11207722D02*
X4893872Y-11198198D01*
X4998634Y-11112484D02*
X5131968Y-11112484D01*
X5131968Y-11112484D02*
X5046253Y-11312484D01*
X5198634Y-11112484D02*
X5198634Y-11150579D01*
X5274825Y-11112484D02*
X5274825Y-11150579D01*
X5570063Y-11388674D02*
X5560539Y-11379150D01*
X5560539Y-11379150D02*
X5541491Y-11350579D01*
X5541491Y-11350579D02*
X5531968Y-11331531D01*
X5531968Y-11331531D02*
X5522444Y-11302960D01*
X5522444Y-11302960D02*
X5512920Y-11255341D01*
X5512920Y-11255341D02*
X5512920Y-11217246D01*
X5512920Y-11217246D02*
X5522444Y-11169627D01*
X5522444Y-11169627D02*
X5531968Y-11141055D01*
X5531968Y-11141055D02*
X5541491Y-11122008D01*
X5541491Y-11122008D02*
X5560539Y-11093436D01*
X5560539Y-11093436D02*
X5570063Y-11083912D01*
X5684348Y-11112484D02*
X5703396Y-11112484D01*
X5703396Y-11112484D02*
X5722444Y-11122008D01*
X5722444Y-11122008D02*
X5731968Y-11131531D01*
X5731968Y-11131531D02*
X5741491Y-11150579D01*
X5741491Y-11150579D02*
X5751015Y-11188674D01*
X5751015Y-11188674D02*
X5751015Y-11236293D01*
X5751015Y-11236293D02*
X5741491Y-11274388D01*
X5741491Y-11274388D02*
X5731968Y-11293436D01*
X5731968Y-11293436D02*
X5722444Y-11302960D01*
X5722444Y-11302960D02*
X5703396Y-11312484D01*
X5703396Y-11312484D02*
X5684348Y-11312484D01*
X5684348Y-11312484D02*
X5665301Y-11302960D01*
X5665301Y-11302960D02*
X5655777Y-11293436D01*
X5655777Y-11293436D02*
X5646253Y-11274388D01*
X5646253Y-11274388D02*
X5636729Y-11236293D01*
X5636729Y-11236293D02*
X5636729Y-11188674D01*
X5636729Y-11188674D02*
X5646253Y-11150579D01*
X5646253Y-11150579D02*
X5655777Y-11131531D01*
X5655777Y-11131531D02*
X5665301Y-11122008D01*
X5665301Y-11122008D02*
X5684348Y-11112484D01*
X5989110Y-11312484D02*
X5989110Y-11112484D01*
X6074825Y-11312484D02*
X6074825Y-11207722D01*
X6074825Y-11207722D02*
X6065301Y-11188674D01*
X6065301Y-11188674D02*
X6046253Y-11179150D01*
X6046253Y-11179150D02*
X6017682Y-11179150D01*
X6017682Y-11179150D02*
X5998634Y-11188674D01*
X5998634Y-11188674D02*
X5989110Y-11198198D01*
X6198634Y-11312484D02*
X6179587Y-11302960D01*
X6179587Y-11302960D02*
X6170063Y-11293436D01*
X6170063Y-11293436D02*
X6160539Y-11274388D01*
X6160539Y-11274388D02*
X6160539Y-11217246D01*
X6160539Y-11217246D02*
X6170063Y-11198198D01*
X6170063Y-11198198D02*
X6179587Y-11188674D01*
X6179587Y-11188674D02*
X6198634Y-11179150D01*
X6198634Y-11179150D02*
X6227206Y-11179150D01*
X6227206Y-11179150D02*
X6246253Y-11188674D01*
X6246253Y-11188674D02*
X6255777Y-11198198D01*
X6255777Y-11198198D02*
X6265301Y-11217246D01*
X6265301Y-11217246D02*
X6265301Y-11274388D01*
X6265301Y-11274388D02*
X6255777Y-11293436D01*
X6255777Y-11293436D02*
X6246253Y-11302960D01*
X6246253Y-11302960D02*
X6227206Y-11312484D01*
X6227206Y-11312484D02*
X6198634Y-11312484D01*
X6379587Y-11312484D02*
X6360539Y-11302960D01*
X6360539Y-11302960D02*
X6351015Y-11283912D01*
X6351015Y-11283912D02*
X6351015Y-11112484D01*
X6531968Y-11302960D02*
X6512920Y-11312484D01*
X6512920Y-11312484D02*
X6474825Y-11312484D01*
X6474825Y-11312484D02*
X6455777Y-11302960D01*
X6455777Y-11302960D02*
X6446253Y-11283912D01*
X6446253Y-11283912D02*
X6446253Y-11207722D01*
X6446253Y-11207722D02*
X6455777Y-11188674D01*
X6455777Y-11188674D02*
X6474825Y-11179150D01*
X6474825Y-11179150D02*
X6512920Y-11179150D01*
X6512920Y-11179150D02*
X6531968Y-11188674D01*
X6531968Y-11188674D02*
X6541491Y-11207722D01*
X6541491Y-11207722D02*
X6541491Y-11226769D01*
X6541491Y-11226769D02*
X6446253Y-11245817D01*
X6617682Y-11302960D02*
X6636730Y-11312484D01*
X6636730Y-11312484D02*
X6674825Y-11312484D01*
X6674825Y-11312484D02*
X6693872Y-11302960D01*
X6693872Y-11302960D02*
X6703396Y-11283912D01*
X6703396Y-11283912D02*
X6703396Y-11274388D01*
X6703396Y-11274388D02*
X6693872Y-11255341D01*
X6693872Y-11255341D02*
X6674825Y-11245817D01*
X6674825Y-11245817D02*
X6646253Y-11245817D01*
X6646253Y-11245817D02*
X6627206Y-11236293D01*
X6627206Y-11236293D02*
X6617682Y-11217246D01*
X6617682Y-11217246D02*
X6617682Y-11207722D01*
X6617682Y-11207722D02*
X6627206Y-11188674D01*
X6627206Y-11188674D02*
X6646253Y-11179150D01*
X6646253Y-11179150D02*
X6674825Y-11179150D01*
X6674825Y-11179150D02*
X6693872Y-11188674D01*
X6941492Y-11236293D02*
X7093873Y-11236293D01*
X7017682Y-11312484D02*
X7017682Y-11160103D01*
X7331968Y-11131531D02*
X7341492Y-11122008D01*
X7341492Y-11122008D02*
X7360539Y-11112484D01*
X7360539Y-11112484D02*
X7408158Y-11112484D01*
X7408158Y-11112484D02*
X7427206Y-11122008D01*
X7427206Y-11122008D02*
X7436730Y-11131531D01*
X7436730Y-11131531D02*
X7446253Y-11150579D01*
X7446253Y-11150579D02*
X7446253Y-11169627D01*
X7446253Y-11169627D02*
X7436730Y-11198198D01*
X7436730Y-11198198D02*
X7322444Y-11312484D01*
X7322444Y-11312484D02*
X7446253Y-11312484D01*
X7674825Y-11302960D02*
X7693873Y-11312484D01*
X7693873Y-11312484D02*
X7731968Y-11312484D01*
X7731968Y-11312484D02*
X7751015Y-11302960D01*
X7751015Y-11302960D02*
X7760539Y-11283912D01*
X7760539Y-11283912D02*
X7760539Y-11274388D01*
X7760539Y-11274388D02*
X7751015Y-11255341D01*
X7751015Y-11255341D02*
X7731968Y-11245817D01*
X7731968Y-11245817D02*
X7703396Y-11245817D01*
X7703396Y-11245817D02*
X7684349Y-11236293D01*
X7684349Y-11236293D02*
X7674825Y-11217246D01*
X7674825Y-11217246D02*
X7674825Y-11207722D01*
X7674825Y-11207722D02*
X7684349Y-11188674D01*
X7684349Y-11188674D02*
X7703396Y-11179150D01*
X7703396Y-11179150D02*
X7731968Y-11179150D01*
X7731968Y-11179150D02*
X7751015Y-11188674D01*
X7874825Y-11312484D02*
X7855777Y-11302960D01*
X7855777Y-11302960D02*
X7846254Y-11283912D01*
X7846254Y-11283912D02*
X7846254Y-11112484D01*
X7979587Y-11312484D02*
X7960539Y-11302960D01*
X7960539Y-11302960D02*
X7951015Y-11293436D01*
X7951015Y-11293436D02*
X7941492Y-11274388D01*
X7941492Y-11274388D02*
X7941492Y-11217246D01*
X7941492Y-11217246D02*
X7951015Y-11198198D01*
X7951015Y-11198198D02*
X7960539Y-11188674D01*
X7960539Y-11188674D02*
X7979587Y-11179150D01*
X7979587Y-11179150D02*
X8008158Y-11179150D01*
X8008158Y-11179150D02*
X8027206Y-11188674D01*
X8027206Y-11188674D02*
X8036730Y-11198198D01*
X8036730Y-11198198D02*
X8046254Y-11217246D01*
X8046254Y-11217246D02*
X8046254Y-11274388D01*
X8046254Y-11274388D02*
X8036730Y-11293436D01*
X8036730Y-11293436D02*
X8027206Y-11302960D01*
X8027206Y-11302960D02*
X8008158Y-11312484D01*
X8008158Y-11312484D02*
X7979587Y-11312484D01*
X8103396Y-11179150D02*
X8179587Y-11179150D01*
X8131968Y-11112484D02*
X8131968Y-11283912D01*
X8131968Y-11283912D02*
X8141492Y-11302960D01*
X8141492Y-11302960D02*
X8160539Y-11312484D01*
X8160539Y-11312484D02*
X8179587Y-11312484D01*
X8236730Y-11302960D02*
X8255777Y-11312484D01*
X8255777Y-11312484D02*
X8293873Y-11312484D01*
X8293873Y-11312484D02*
X8312920Y-11302960D01*
X8312920Y-11302960D02*
X8322444Y-11283912D01*
X8322444Y-11283912D02*
X8322444Y-11274388D01*
X8322444Y-11274388D02*
X8312920Y-11255341D01*
X8312920Y-11255341D02*
X8293873Y-11245817D01*
X8293873Y-11245817D02*
X8265301Y-11245817D01*
X8265301Y-11245817D02*
X8246254Y-11236293D01*
X8246254Y-11236293D02*
X8236730Y-11217246D01*
X8236730Y-11217246D02*
X8236730Y-11207722D01*
X8236730Y-11207722D02*
X8246254Y-11188674D01*
X8246254Y-11188674D02*
X8265301Y-11179150D01*
X8265301Y-11179150D02*
X8293873Y-11179150D01*
X8293873Y-11179150D02*
X8312920Y-11188674D01*
X8389111Y-11388674D02*
X8398635Y-11379150D01*
X8398635Y-11379150D02*
X8417682Y-11350579D01*
X8417682Y-11350579D02*
X8427206Y-11331531D01*
X8427206Y-11331531D02*
X8436730Y-11302960D01*
X8436730Y-11302960D02*
X8446254Y-11255341D01*
X8446254Y-11255341D02*
X8446254Y-11217246D01*
X8446254Y-11217246D02*
X8436730Y-11169627D01*
X8436730Y-11169627D02*
X8427206Y-11141055D01*
X8427206Y-11141055D02*
X8417682Y-11122008D01*
X8417682Y-11122008D02*
X8398635Y-11093436D01*
X8398635Y-11093436D02*
X8389111Y-11083912D01*
X1795000Y-11441000D02*
X1995000Y-11641000D01*
X1995000Y-11441000D02*
X1795000Y-11641000D01*
X1895000Y-11441000D02*
X1895000Y-11641000D01*
X1795000Y-11541000D02*
X1995000Y-11541000D01*
X2246253Y-11451531D02*
X2255777Y-11442008D01*
X2255777Y-11442008D02*
X2274824Y-11432484D01*
X2274824Y-11432484D02*
X2322444Y-11432484D01*
X2322444Y-11432484D02*
X2341491Y-11442008D01*
X2341491Y-11442008D02*
X2351015Y-11451531D01*
X2351015Y-11451531D02*
X2360539Y-11470579D01*
X2360539Y-11470579D02*
X2360539Y-11489627D01*
X2360539Y-11489627D02*
X2351015Y-11518198D01*
X2351015Y-11518198D02*
X2236729Y-11632484D01*
X2236729Y-11632484D02*
X2360539Y-11632484D01*
X2446253Y-11613436D02*
X2455777Y-11622960D01*
X2455777Y-11622960D02*
X2446253Y-11632484D01*
X2446253Y-11632484D02*
X2436729Y-11622960D01*
X2436729Y-11622960D02*
X2446253Y-11613436D01*
X2446253Y-11613436D02*
X2446253Y-11632484D01*
X2531967Y-11451531D02*
X2541491Y-11442008D01*
X2541491Y-11442008D02*
X2560539Y-11432484D01*
X2560539Y-11432484D02*
X2608158Y-11432484D01*
X2608158Y-11432484D02*
X2627205Y-11442008D01*
X2627205Y-11442008D02*
X2636729Y-11451531D01*
X2636729Y-11451531D02*
X2646253Y-11470579D01*
X2646253Y-11470579D02*
X2646253Y-11489627D01*
X2646253Y-11489627D02*
X2636729Y-11518198D01*
X2636729Y-11518198D02*
X2522444Y-11632484D01*
X2522444Y-11632484D02*
X2646253Y-11632484D01*
X2770063Y-11432484D02*
X2789110Y-11432484D01*
X2789110Y-11432484D02*
X2808158Y-11442008D01*
X2808158Y-11442008D02*
X2817682Y-11451531D01*
X2817682Y-11451531D02*
X2827205Y-11470579D01*
X2827205Y-11470579D02*
X2836729Y-11508674D01*
X2836729Y-11508674D02*
X2836729Y-11556293D01*
X2836729Y-11556293D02*
X2827205Y-11594388D01*
X2827205Y-11594388D02*
X2817682Y-11613436D01*
X2817682Y-11613436D02*
X2808158Y-11622960D01*
X2808158Y-11622960D02*
X2789110Y-11632484D01*
X2789110Y-11632484D02*
X2770063Y-11632484D01*
X2770063Y-11632484D02*
X2751015Y-11622960D01*
X2751015Y-11622960D02*
X2741491Y-11613436D01*
X2741491Y-11613436D02*
X2731967Y-11594388D01*
X2731967Y-11594388D02*
X2722444Y-11556293D01*
X2722444Y-11556293D02*
X2722444Y-11508674D01*
X2722444Y-11508674D02*
X2731967Y-11470579D01*
X2731967Y-11470579D02*
X2741491Y-11451531D01*
X2741491Y-11451531D02*
X2751015Y-11442008D01*
X2751015Y-11442008D02*
X2770063Y-11432484D01*
X2960539Y-11432484D02*
X2979586Y-11432484D01*
X2979586Y-11432484D02*
X2998634Y-11442008D01*
X2998634Y-11442008D02*
X3008158Y-11451531D01*
X3008158Y-11451531D02*
X3017682Y-11470579D01*
X3017682Y-11470579D02*
X3027205Y-11508674D01*
X3027205Y-11508674D02*
X3027205Y-11556293D01*
X3027205Y-11556293D02*
X3017682Y-11594388D01*
X3017682Y-11594388D02*
X3008158Y-11613436D01*
X3008158Y-11613436D02*
X2998634Y-11622960D01*
X2998634Y-11622960D02*
X2979586Y-11632484D01*
X2979586Y-11632484D02*
X2960539Y-11632484D01*
X2960539Y-11632484D02*
X2941491Y-11622960D01*
X2941491Y-11622960D02*
X2931967Y-11613436D01*
X2931967Y-11613436D02*
X2922443Y-11594388D01*
X2922443Y-11594388D02*
X2912920Y-11556293D01*
X2912920Y-11556293D02*
X2912920Y-11508674D01*
X2912920Y-11508674D02*
X2922443Y-11470579D01*
X2922443Y-11470579D02*
X2931967Y-11451531D01*
X2931967Y-11451531D02*
X2941491Y-11442008D01*
X2941491Y-11442008D02*
X2960539Y-11432484D01*
X3112920Y-11632484D02*
X3112920Y-11499150D01*
X3112920Y-11518198D02*
X3122443Y-11508674D01*
X3122443Y-11508674D02*
X3141491Y-11499150D01*
X3141491Y-11499150D02*
X3170063Y-11499150D01*
X3170063Y-11499150D02*
X3189110Y-11508674D01*
X3189110Y-11508674D02*
X3198634Y-11527722D01*
X3198634Y-11527722D02*
X3198634Y-11632484D01*
X3198634Y-11527722D02*
X3208158Y-11508674D01*
X3208158Y-11508674D02*
X3227205Y-11499150D01*
X3227205Y-11499150D02*
X3255777Y-11499150D01*
X3255777Y-11499150D02*
X3274824Y-11508674D01*
X3274824Y-11508674D02*
X3284348Y-11527722D01*
X3284348Y-11527722D02*
X3284348Y-11632484D01*
X3379586Y-11632484D02*
X3379586Y-11499150D01*
X3379586Y-11518198D02*
X3389110Y-11508674D01*
X3389110Y-11508674D02*
X3408158Y-11499150D01*
X3408158Y-11499150D02*
X3436729Y-11499150D01*
X3436729Y-11499150D02*
X3455777Y-11508674D01*
X3455777Y-11508674D02*
X3465301Y-11527722D01*
X3465301Y-11527722D02*
X3465301Y-11632484D01*
X3465301Y-11527722D02*
X3474824Y-11508674D01*
X3474824Y-11508674D02*
X3493872Y-11499150D01*
X3493872Y-11499150D02*
X3522443Y-11499150D01*
X3522443Y-11499150D02*
X3541491Y-11508674D01*
X3541491Y-11508674D02*
X3551015Y-11527722D01*
X3551015Y-11527722D02*
X3551015Y-11632484D01*
X3941491Y-11422960D02*
X3770063Y-11680103D01*
X4198634Y-11432484D02*
X4217682Y-11432484D01*
X4217682Y-11432484D02*
X4236729Y-11442008D01*
X4236729Y-11442008D02*
X4246253Y-11451531D01*
X4246253Y-11451531D02*
X4255777Y-11470579D01*
X4255777Y-11470579D02*
X4265301Y-11508674D01*
X4265301Y-11508674D02*
X4265301Y-11556293D01*
X4265301Y-11556293D02*
X4255777Y-11594388D01*
X4255777Y-11594388D02*
X4246253Y-11613436D01*
X4246253Y-11613436D02*
X4236729Y-11622960D01*
X4236729Y-11622960D02*
X4217682Y-11632484D01*
X4217682Y-11632484D02*
X4198634Y-11632484D01*
X4198634Y-11632484D02*
X4179586Y-11622960D01*
X4179586Y-11622960D02*
X4170063Y-11613436D01*
X4170063Y-11613436D02*
X4160539Y-11594388D01*
X4160539Y-11594388D02*
X4151015Y-11556293D01*
X4151015Y-11556293D02*
X4151015Y-11508674D01*
X4151015Y-11508674D02*
X4160539Y-11470579D01*
X4160539Y-11470579D02*
X4170063Y-11451531D01*
X4170063Y-11451531D02*
X4179586Y-11442008D01*
X4179586Y-11442008D02*
X4198634Y-11432484D01*
X4351015Y-11613436D02*
X4360539Y-11622960D01*
X4360539Y-11622960D02*
X4351015Y-11632484D01*
X4351015Y-11632484D02*
X4341491Y-11622960D01*
X4341491Y-11622960D02*
X4351015Y-11613436D01*
X4351015Y-11613436D02*
X4351015Y-11632484D01*
X4484348Y-11432484D02*
X4503396Y-11432484D01*
X4503396Y-11432484D02*
X4522444Y-11442008D01*
X4522444Y-11442008D02*
X4531968Y-11451531D01*
X4531968Y-11451531D02*
X4541491Y-11470579D01*
X4541491Y-11470579D02*
X4551015Y-11508674D01*
X4551015Y-11508674D02*
X4551015Y-11556293D01*
X4551015Y-11556293D02*
X4541491Y-11594388D01*
X4541491Y-11594388D02*
X4531968Y-11613436D01*
X4531968Y-11613436D02*
X4522444Y-11622960D01*
X4522444Y-11622960D02*
X4503396Y-11632484D01*
X4503396Y-11632484D02*
X4484348Y-11632484D01*
X4484348Y-11632484D02*
X4465301Y-11622960D01*
X4465301Y-11622960D02*
X4455777Y-11613436D01*
X4455777Y-11613436D02*
X4446253Y-11594388D01*
X4446253Y-11594388D02*
X4436729Y-11556293D01*
X4436729Y-11556293D02*
X4436729Y-11508674D01*
X4436729Y-11508674D02*
X4446253Y-11470579D01*
X4446253Y-11470579D02*
X4455777Y-11451531D01*
X4455777Y-11451531D02*
X4465301Y-11442008D01*
X4465301Y-11442008D02*
X4484348Y-11432484D01*
X4665301Y-11518198D02*
X4646253Y-11508674D01*
X4646253Y-11508674D02*
X4636729Y-11499150D01*
X4636729Y-11499150D02*
X4627206Y-11480103D01*
X4627206Y-11480103D02*
X4627206Y-11470579D01*
X4627206Y-11470579D02*
X4636729Y-11451531D01*
X4636729Y-11451531D02*
X4646253Y-11442008D01*
X4646253Y-11442008D02*
X4665301Y-11432484D01*
X4665301Y-11432484D02*
X4703396Y-11432484D01*
X4703396Y-11432484D02*
X4722444Y-11442008D01*
X4722444Y-11442008D02*
X4731968Y-11451531D01*
X4731968Y-11451531D02*
X4741491Y-11470579D01*
X4741491Y-11470579D02*
X4741491Y-11480103D01*
X4741491Y-11480103D02*
X4731968Y-11499150D01*
X4731968Y-11499150D02*
X4722444Y-11508674D01*
X4722444Y-11508674D02*
X4703396Y-11518198D01*
X4703396Y-11518198D02*
X4665301Y-11518198D01*
X4665301Y-11518198D02*
X4646253Y-11527722D01*
X4646253Y-11527722D02*
X4636729Y-11537246D01*
X4636729Y-11537246D02*
X4627206Y-11556293D01*
X4627206Y-11556293D02*
X4627206Y-11594388D01*
X4627206Y-11594388D02*
X4636729Y-11613436D01*
X4636729Y-11613436D02*
X4646253Y-11622960D01*
X4646253Y-11622960D02*
X4665301Y-11632484D01*
X4665301Y-11632484D02*
X4703396Y-11632484D01*
X4703396Y-11632484D02*
X4722444Y-11622960D01*
X4722444Y-11622960D02*
X4731968Y-11613436D01*
X4731968Y-11613436D02*
X4741491Y-11594388D01*
X4741491Y-11594388D02*
X4741491Y-11556293D01*
X4741491Y-11556293D02*
X4731968Y-11537246D01*
X4731968Y-11537246D02*
X4722444Y-11527722D01*
X4722444Y-11527722D02*
X4703396Y-11518198D01*
X4912920Y-11432484D02*
X4874825Y-11432484D01*
X4874825Y-11432484D02*
X4855777Y-11442008D01*
X4855777Y-11442008D02*
X4846253Y-11451531D01*
X4846253Y-11451531D02*
X4827206Y-11480103D01*
X4827206Y-11480103D02*
X4817682Y-11518198D01*
X4817682Y-11518198D02*
X4817682Y-11594388D01*
X4817682Y-11594388D02*
X4827206Y-11613436D01*
X4827206Y-11613436D02*
X4836729Y-11622960D01*
X4836729Y-11622960D02*
X4855777Y-11632484D01*
X4855777Y-11632484D02*
X4893872Y-11632484D01*
X4893872Y-11632484D02*
X4912920Y-11622960D01*
X4912920Y-11622960D02*
X4922444Y-11613436D01*
X4922444Y-11613436D02*
X4931968Y-11594388D01*
X4931968Y-11594388D02*
X4931968Y-11546769D01*
X4931968Y-11546769D02*
X4922444Y-11527722D01*
X4922444Y-11527722D02*
X4912920Y-11518198D01*
X4912920Y-11518198D02*
X4893872Y-11508674D01*
X4893872Y-11508674D02*
X4855777Y-11508674D01*
X4855777Y-11508674D02*
X4836729Y-11518198D01*
X4836729Y-11518198D02*
X4827206Y-11527722D01*
X4827206Y-11527722D02*
X4817682Y-11546769D01*
X5103396Y-11432484D02*
X5065301Y-11432484D01*
X5065301Y-11432484D02*
X5046253Y-11442008D01*
X5046253Y-11442008D02*
X5036729Y-11451531D01*
X5036729Y-11451531D02*
X5017682Y-11480103D01*
X5017682Y-11480103D02*
X5008158Y-11518198D01*
X5008158Y-11518198D02*
X5008158Y-11594388D01*
X5008158Y-11594388D02*
X5017682Y-11613436D01*
X5017682Y-11613436D02*
X5027206Y-11622960D01*
X5027206Y-11622960D02*
X5046253Y-11632484D01*
X5046253Y-11632484D02*
X5084349Y-11632484D01*
X5084349Y-11632484D02*
X5103396Y-11622960D01*
X5103396Y-11622960D02*
X5112920Y-11613436D01*
X5112920Y-11613436D02*
X5122444Y-11594388D01*
X5122444Y-11594388D02*
X5122444Y-11546769D01*
X5122444Y-11546769D02*
X5112920Y-11527722D01*
X5112920Y-11527722D02*
X5103396Y-11518198D01*
X5103396Y-11518198D02*
X5084349Y-11508674D01*
X5084349Y-11508674D02*
X5046253Y-11508674D01*
X5046253Y-11508674D02*
X5027206Y-11518198D01*
X5027206Y-11518198D02*
X5017682Y-11527722D01*
X5017682Y-11527722D02*
X5008158Y-11546769D01*
X5198634Y-11432484D02*
X5198634Y-11470579D01*
X5274825Y-11432484D02*
X5274825Y-11470579D01*
X5570063Y-11708674D02*
X5560539Y-11699150D01*
X5560539Y-11699150D02*
X5541491Y-11670579D01*
X5541491Y-11670579D02*
X5531968Y-11651531D01*
X5531968Y-11651531D02*
X5522444Y-11622960D01*
X5522444Y-11622960D02*
X5512920Y-11575341D01*
X5512920Y-11575341D02*
X5512920Y-11537246D01*
X5512920Y-11537246D02*
X5522444Y-11489627D01*
X5522444Y-11489627D02*
X5531968Y-11461055D01*
X5531968Y-11461055D02*
X5541491Y-11442008D01*
X5541491Y-11442008D02*
X5560539Y-11413436D01*
X5560539Y-11413436D02*
X5570063Y-11403912D01*
X5731968Y-11499150D02*
X5731968Y-11632484D01*
X5684348Y-11422960D02*
X5636729Y-11565817D01*
X5636729Y-11565817D02*
X5760539Y-11565817D01*
X5989110Y-11632484D02*
X5989110Y-11432484D01*
X6074825Y-11632484D02*
X6074825Y-11527722D01*
X6074825Y-11527722D02*
X6065301Y-11508674D01*
X6065301Y-11508674D02*
X6046253Y-11499150D01*
X6046253Y-11499150D02*
X6017682Y-11499150D01*
X6017682Y-11499150D02*
X5998634Y-11508674D01*
X5998634Y-11508674D02*
X5989110Y-11518198D01*
X6198634Y-11632484D02*
X6179587Y-11622960D01*
X6179587Y-11622960D02*
X6170063Y-11613436D01*
X6170063Y-11613436D02*
X6160539Y-11594388D01*
X6160539Y-11594388D02*
X6160539Y-11537246D01*
X6160539Y-11537246D02*
X6170063Y-11518198D01*
X6170063Y-11518198D02*
X6179587Y-11508674D01*
X6179587Y-11508674D02*
X6198634Y-11499150D01*
X6198634Y-11499150D02*
X6227206Y-11499150D01*
X6227206Y-11499150D02*
X6246253Y-11508674D01*
X6246253Y-11508674D02*
X6255777Y-11518198D01*
X6255777Y-11518198D02*
X6265301Y-11537246D01*
X6265301Y-11537246D02*
X6265301Y-11594388D01*
X6265301Y-11594388D02*
X6255777Y-11613436D01*
X6255777Y-11613436D02*
X6246253Y-11622960D01*
X6246253Y-11622960D02*
X6227206Y-11632484D01*
X6227206Y-11632484D02*
X6198634Y-11632484D01*
X6379587Y-11632484D02*
X6360539Y-11622960D01*
X6360539Y-11622960D02*
X6351015Y-11603912D01*
X6351015Y-11603912D02*
X6351015Y-11432484D01*
X6531968Y-11622960D02*
X6512920Y-11632484D01*
X6512920Y-11632484D02*
X6474825Y-11632484D01*
X6474825Y-11632484D02*
X6455777Y-11622960D01*
X6455777Y-11622960D02*
X6446253Y-11603912D01*
X6446253Y-11603912D02*
X6446253Y-11527722D01*
X6446253Y-11527722D02*
X6455777Y-11508674D01*
X6455777Y-11508674D02*
X6474825Y-11499150D01*
X6474825Y-11499150D02*
X6512920Y-11499150D01*
X6512920Y-11499150D02*
X6531968Y-11508674D01*
X6531968Y-11508674D02*
X6541491Y-11527722D01*
X6541491Y-11527722D02*
X6541491Y-11546769D01*
X6541491Y-11546769D02*
X6446253Y-11565817D01*
X6617682Y-11622960D02*
X6636730Y-11632484D01*
X6636730Y-11632484D02*
X6674825Y-11632484D01*
X6674825Y-11632484D02*
X6693872Y-11622960D01*
X6693872Y-11622960D02*
X6703396Y-11603912D01*
X6703396Y-11603912D02*
X6703396Y-11594388D01*
X6703396Y-11594388D02*
X6693872Y-11575341D01*
X6693872Y-11575341D02*
X6674825Y-11565817D01*
X6674825Y-11565817D02*
X6646253Y-11565817D01*
X6646253Y-11565817D02*
X6627206Y-11556293D01*
X6627206Y-11556293D02*
X6617682Y-11537246D01*
X6617682Y-11537246D02*
X6617682Y-11527722D01*
X6617682Y-11527722D02*
X6627206Y-11508674D01*
X6627206Y-11508674D02*
X6646253Y-11499150D01*
X6646253Y-11499150D02*
X6674825Y-11499150D01*
X6674825Y-11499150D02*
X6693872Y-11508674D01*
X6770063Y-11708674D02*
X6779587Y-11699150D01*
X6779587Y-11699150D02*
X6798634Y-11670579D01*
X6798634Y-11670579D02*
X6808158Y-11651531D01*
X6808158Y-11651531D02*
X6817682Y-11622960D01*
X6817682Y-11622960D02*
X6827206Y-11575341D01*
X6827206Y-11575341D02*
X6827206Y-11537246D01*
X6827206Y-11537246D02*
X6817682Y-11489627D01*
X6817682Y-11489627D02*
X6808158Y-11461055D01*
X6808158Y-11461055D02*
X6798634Y-11442008D01*
X6798634Y-11442008D02*
X6779587Y-11413436D01*
X6779587Y-11413436D02*
X6770063Y-11403912D01*
M02*
