M48
; DRILL file {KiCad 8.99.0-unknown-e3e63fb1b8~178~ubuntu22.04.1} date 2024-06-01T22:38:46+1000
; FORMAT={-:-/ absolute / metric / decimal}
; #@! TF.CreationDate,2024-06-01T22:38:46+10:00
; #@! TF.GenerationSoftware,Kicad,Pcbnew,8.99.0-unknown-e3e63fb1b8~178~ubuntu22.04.1
; #@! TF.FileFunction,NonPlated,1,2,NPTH
FMAT,2
METRIC
; #@! TA.AperFunction,NonPlated,NPTH,ComponentDrill
T1C1.700
; #@! TA.AperFunction,NonPlated,NPTH,ComponentDrill
T2C4.000
%
G90
G05
T1
X69.92Y-36.0
X69.92Y-55.0
X69.92Y-74.0
X80.08Y-36.0
X80.08Y-55.0
X80.08Y-74.0
X88.92Y-36.0
X88.92Y-55.0
X88.92Y-74.0
X99.08Y-36.0
X99.08Y-55.0
X99.08Y-74.0
X107.92Y-36.0
X107.92Y-55.0
X107.92Y-74.0
X118.08Y-36.0
X118.08Y-55.0
X118.08Y-74.0
X126.92Y-36.0
X126.92Y-55.0
X126.92Y-74.0
X137.08Y-36.0
X137.08Y-55.0
X137.08Y-74.0
X145.92Y-36.0
X145.92Y-55.0
X145.92Y-74.0
X156.08Y-36.0
X156.08Y-55.0
X156.08Y-74.0
T2
X75.0Y-36.0
X75.0Y-55.0
X75.0Y-74.0
X94.0Y-36.0
X94.0Y-55.0
X94.0Y-74.0
X113.0Y-36.0
X113.0Y-55.0
X113.0Y-74.0
X132.0Y-36.0
X132.0Y-55.0
X132.0Y-74.0
X151.0Y-36.0
X151.0Y-55.0
X151.0Y-74.0
M30
