%TF.GenerationSoftware,KiCad,Pcbnew,8.99.0-unknown-5d7e96841b~178~ubuntu22.04.1*%
%TF.CreationDate,2024-04-19T18:01:43+10:00*%
%TF.ProjectId,SkyMusicPad,536b794d-7573-4696-9350-61642e6b6963,rev?*%
%TF.SameCoordinates,Original*%
%TF.FileFunction,Copper,L1,Top*%
%TF.FilePolarity,Positive*%
%FSLAX46Y46*%
G04 Gerber Fmt 4.6, Leading zero omitted, Abs format (unit mm)*
G04 Created by KiCad (PCBNEW 8.99.0-unknown-5d7e96841b~178~ubuntu22.04.1) date 2024-04-19 18:01:43*
%MOMM*%
%LPD*%
G01*
G04 APERTURE LIST*
G04 Aperture macros list*
%AMRoundRect*
0 Rectangle with rounded corners*
0 $1 Rounding radius*
0 $2 $3 $4 $5 $6 $7 $8 $9 X,Y pos of 4 corners*
0 Add a 4 corners polygon primitive as box body*
4,1,4,$2,$3,$4,$5,$6,$7,$8,$9,$2,$3,0*
0 Add four circle primitives for the rounded corners*
1,1,$1+$1,$2,$3*
1,1,$1+$1,$4,$5*
1,1,$1+$1,$6,$7*
1,1,$1+$1,$8,$9*
0 Add four rect primitives between the rounded corners*
20,1,$1+$1,$2,$3,$4,$5,0*
20,1,$1+$1,$4,$5,$6,$7,0*
20,1,$1+$1,$6,$7,$8,$9,0*
20,1,$1+$1,$8,$9,$2,$3,0*%
G04 Aperture macros list end*
%TA.AperFunction,NonConductor*%
%ADD10C,0.200000*%
%TD*%
%TA.AperFunction,ComponentPad*%
%ADD11C,2.500000*%
%TD*%
%TA.AperFunction,ComponentPad*%
%ADD12RoundRect,0.400000X0.400000X-0.900000X0.400000X0.900000X-0.400000X0.900000X-0.400000X-0.900000X0*%
%TD*%
%TA.AperFunction,ComponentPad*%
%ADD13RoundRect,0.400050X0.400050X-0.899950X0.400050X0.899950X-0.400050X0.899950X-0.400050X-0.899950X0*%
%TD*%
%TA.AperFunction,ComponentPad*%
%ADD14RoundRect,0.400000X0.900000X-0.400000X0.900000X0.400000X-0.900000X0.400000X-0.900000X-0.400000X0*%
%TD*%
%TA.AperFunction,ComponentPad*%
%ADD15RoundRect,0.393700X0.906300X-0.393700X0.906300X0.393700X-0.906300X0.393700X-0.906300X-0.393700X0*%
%TD*%
%TA.AperFunction,ComponentPad*%
%ADD16C,0.700000*%
%TD*%
%TA.AperFunction,ComponentPad*%
%ADD17C,4.400000*%
%TD*%
%TA.AperFunction,ComponentPad*%
%ADD18RoundRect,0.250000X0.550000X-0.550000X0.550000X0.550000X-0.550000X0.550000X-0.550000X-0.550000X0*%
%TD*%
%TA.AperFunction,ComponentPad*%
%ADD19C,1.600000*%
%TD*%
%TA.AperFunction,ComponentPad*%
%ADD20O,3.000000X4.100000*%
%TD*%
%TA.AperFunction,ViaPad*%
%ADD21C,0.800000*%
%TD*%
%TA.AperFunction,Conductor*%
%ADD22C,0.300000*%
%TD*%
G04 APERTURE END LIST*
D10*
X300850000Y-129450000D02*
X300850000Y-130000000D01*
X292050000Y-120650000D02*
X291500000Y-120650000D01*
D11*
%TO.P,SW15,1,1*%
%TO.N,Net-(D15-A)*%
X118590000Y-76160000D03*
%TO.P,SW15,2,2*%
%TO.N,Col4*%
X124940000Y-73620000D03*
%TD*%
%TO.P,SW10,1,1*%
%TO.N,Net-(D10-A)*%
X101090000Y-41160000D03*
%TO.P,SW10,2,2*%
%TO.N,Col3*%
X107440000Y-38620000D03*
%TD*%
D12*
%TO.P,RZ1,0,GP0*%
%TO.N,unconnected-(RZ1-GP0-Pad0)*%
X21560000Y-52575000D03*
%TO.P,RZ1,1,GP1*%
%TO.N,unconnected-(RZ1-GP1-Pad1)*%
X24100000Y-52575000D03*
%TO.P,RZ1,2,GP2*%
%TO.N,unconnected-(RZ1-GP2-Pad2)*%
X26640000Y-52575000D03*
%TO.P,RZ1,3,GP3*%
%TO.N,unconnected-(RZ1-GP3-Pad3)*%
X29180000Y-52575000D03*
%TO.P,RZ1,4,GP4*%
%TO.N,Rot_SW*%
X31720000Y-52575000D03*
D13*
%TO.P,RZ1,5,GP5*%
%TO.N,Rot_A*%
X34260000Y-52575000D03*
%TO.P,RZ1,6,GP6*%
%TO.N,Rot_B*%
X36800000Y-52575000D03*
%TO.P,RZ1,7,GP7*%
%TO.N,Row0*%
X39340000Y-52575000D03*
%TO.P,RZ1,8,GP8*%
%TO.N,Row1*%
X41880000Y-52575000D03*
D14*
%TO.P,RZ1,9,GP9*%
%TO.N,Row2*%
X42690000Y-55715000D03*
D15*
%TO.P,RZ1,10,GP10*%
%TO.N,unconnected-(RZ1-GP10-Pad10)*%
X42690000Y-58255000D03*
%TO.P,RZ1,11,GP11*%
%TO.N,unconnected-(RZ1-GP11-Pad11)*%
X42690000Y-60795000D03*
%TO.P,RZ1,12,GP12*%
%TO.N,unconnected-(RZ1-GP12-Pad12)*%
X42690000Y-63335000D03*
%TO.P,RZ1,13,GP13*%
%TO.N,unconnected-(RZ1-GP13-Pad13)*%
X42690000Y-65875000D03*
D13*
%TO.P,RZ1,14,GP14*%
%TO.N,Col0*%
X41880000Y-69015000D03*
%TO.P,RZ1,15,GP15*%
%TO.N,Col1*%
X39340000Y-69015000D03*
%TO.P,RZ1,26,GP26*%
%TO.N,Col2*%
X36800000Y-69015000D03*
%TO.P,RZ1,27,GP27*%
%TO.N,Col3*%
X34260000Y-69015000D03*
%TO.P,RZ1,28,GP28*%
%TO.N,Col4*%
X31720000Y-69015000D03*
%TO.P,RZ1,29,GP29*%
%TO.N,unconnected-(RZ1-GP29-Pad29)*%
X29180000Y-69015000D03*
%TO.P,RZ1,30,3V3*%
%TO.N,+3.3V*%
X26640000Y-69015000D03*
%TO.P,RZ1,31,GND*%
%TO.N,GND*%
X24100000Y-69015000D03*
%TO.P,RZ1,32,5V*%
%TO.N,+5V*%
X21560000Y-69015000D03*
%TD*%
D11*
%TO.P,SW2,1,1*%
%TO.N,Net-(D2-A)*%
X48590000Y-58700000D03*
%TO.P,SW2,2,2*%
%TO.N,Col0*%
X54940000Y-56160000D03*
%TD*%
%TO.P,SW1,1,1*%
%TO.N,Net-(D1-A)*%
X48590000Y-41160000D03*
%TO.P,SW1,2,2*%
%TO.N,Col0*%
X54940000Y-38620000D03*
%TD*%
D16*
%TO.P,H3,1,1*%
%TO.N,GND*%
X23350000Y-87500000D03*
X23833274Y-86333274D03*
X23833274Y-88666726D03*
X25000000Y-85850000D03*
D17*
X25000000Y-87500000D03*
D16*
X25000000Y-89150000D03*
X26166726Y-86333274D03*
X26166726Y-88666726D03*
X26650000Y-87500000D03*
%TD*%
D11*
%TO.P,SW5,1,1*%
%TO.N,Net-(D5-A)*%
X66090000Y-58700000D03*
%TO.P,SW5,2,2*%
%TO.N,Col1*%
X72440000Y-56160000D03*
%TD*%
%TO.P,SW12,1,1*%
%TO.N,Net-(D12-A)*%
X101090000Y-76160000D03*
%TO.P,SW12,2,2*%
%TO.N,Col3*%
X107440000Y-73620000D03*
%TD*%
D18*
%TO.P,SW16,A,A*%
%TO.N,Rot_A*%
X32900000Y-48450000D03*
D19*
%TO.P,SW16,B,B*%
%TO.N,Rot_B*%
X37900000Y-48450000D03*
%TO.P,SW16,C,C*%
%TO.N,GND*%
X35400000Y-48450000D03*
%TO.P,SW16,S1,S1*%
%TO.N,Rot_SW*%
X32900000Y-33950000D03*
%TO.P,SW16,S2,S2*%
%TO.N,GND*%
X37900000Y-33950000D03*
D20*
%TO.P,SW16,SH,Shell_Ground*%
X29800000Y-40950000D03*
X41000000Y-40950000D03*
%TD*%
D16*
%TO.P,H2,1,1*%
%TO.N,GND*%
X130850000Y-35000000D03*
X131333274Y-33833274D03*
X131333274Y-36166726D03*
X132500000Y-33350000D03*
D17*
X132500000Y-35000000D03*
D16*
X132500000Y-36650000D03*
X133666726Y-33833274D03*
X133666726Y-36166726D03*
X134150000Y-35000000D03*
%TD*%
D11*
%TO.P,SW8,1,1*%
%TO.N,Net-(D8-A)*%
X83590000Y-58700000D03*
%TO.P,SW8,2,2*%
%TO.N,Col2*%
X89940000Y-56160000D03*
%TD*%
%TO.P,SW13,1,1*%
%TO.N,Net-(D13-A)*%
X118590000Y-41160000D03*
%TO.P,SW13,2,2*%
%TO.N,Col4*%
X124940000Y-38620000D03*
%TD*%
%TO.P,SW4,1,1*%
%TO.N,Net-(D4-A)*%
X66090000Y-41160000D03*
%TO.P,SW4,2,2*%
%TO.N,Col1*%
X72440000Y-38620000D03*
%TD*%
%TO.P,SW9,1,1*%
%TO.N,Net-(D9-A)*%
X83590000Y-76160000D03*
%TO.P,SW9,2,2*%
%TO.N,Col2*%
X89940000Y-73620000D03*
%TD*%
%TO.P,SW6,1,1*%
%TO.N,Net-(D6-A)*%
X66090000Y-76160000D03*
%TO.P,SW6,2,2*%
%TO.N,Col1*%
X72440000Y-73620000D03*
%TD*%
%TO.P,SW3,1,1*%
%TO.N,Net-(D3-A)*%
X48590000Y-76160000D03*
%TO.P,SW3,2,2*%
%TO.N,Col0*%
X54940000Y-73620000D03*
%TD*%
%TO.P,SW11,1,1*%
%TO.N,Net-(D11-A)*%
X101090000Y-58700000D03*
%TO.P,SW11,2,2*%
%TO.N,Col3*%
X107440000Y-56160000D03*
%TD*%
%TO.P,SW7,1,1*%
%TO.N,Net-(D7-A)*%
X83590000Y-41160000D03*
%TO.P,SW7,2,2*%
%TO.N,Col2*%
X89940000Y-38620000D03*
%TD*%
D16*
%TO.P,H1,1,1*%
%TO.N,GND*%
X23350000Y-35000000D03*
X23833274Y-33833274D03*
X23833274Y-36166726D03*
X25000000Y-33350000D03*
D17*
X25000000Y-35000000D03*
D16*
X25000000Y-36650000D03*
X26166726Y-33833274D03*
X26166726Y-36166726D03*
X26650000Y-35000000D03*
%TD*%
%TO.P,H4,1,1*%
%TO.N,GND*%
X130850000Y-87500000D03*
X131333274Y-86333274D03*
X131333274Y-88666726D03*
X132500000Y-85850000D03*
D17*
X132500000Y-87500000D03*
D16*
X132500000Y-89150000D03*
X133666726Y-86333274D03*
X133666726Y-88666726D03*
X134150000Y-87500000D03*
%TD*%
D11*
%TO.P,SW14,1,1*%
%TO.N,Net-(D14-A)*%
X118590000Y-58700000D03*
%TO.P,SW14,2,2*%
%TO.N,Col4*%
X124940000Y-56160000D03*
%TD*%
D21*
%TO.N,Row0*%
X61580000Y-46600000D03*
X44180000Y-46600000D03*
X79180000Y-46600000D03*
X114180000Y-46600000D03*
X96580000Y-46600000D03*
%TO.N,Row1*%
X79180000Y-64140000D03*
X61580000Y-64140000D03*
X114180000Y-64140000D03*
X96580000Y-64140000D03*
%TD*%
D22*
%TO.N,Row0*%
X39340000Y-53175000D02*
X39340000Y-51440000D01*
X44180000Y-46600000D02*
X44180000Y-46640000D01*
X114180000Y-46600000D02*
X44180000Y-46600000D01*
X39340000Y-51440000D02*
X44180000Y-46600000D01*
%TO.N,Row1*%
X61580000Y-64140000D02*
X61580000Y-59580000D01*
X61580000Y-59580000D02*
X55175000Y-53175000D01*
X61580000Y-64140000D02*
X114180000Y-64140000D01*
X55175000Y-53175000D02*
X41880000Y-53175000D01*
%TO.N,Col0*%
X41880000Y-68415000D02*
X47085000Y-73620000D01*
X47085000Y-73620000D02*
X54940000Y-73620000D01*
%TO.N,Col1*%
X47158439Y-82500000D02*
X69747056Y-82500000D01*
X39340000Y-68415000D02*
X39340000Y-74681561D01*
X72440000Y-79807056D02*
X72440000Y-73620000D01*
X39340000Y-74681561D02*
X47158439Y-82500000D01*
X69747056Y-82500000D02*
X72440000Y-79807056D01*
%TO.N,Col2*%
X36800000Y-72848668D02*
X46951332Y-83000000D01*
X87000000Y-83000000D02*
X89940000Y-80060000D01*
X36800000Y-68415000D02*
X36800000Y-72848668D01*
X89940000Y-80060000D02*
X89940000Y-73620000D01*
X46951332Y-83000000D02*
X87000000Y-83000000D01*
%TO.N,Col3*%
X107440000Y-80060000D02*
X107440000Y-73620000D01*
X46744225Y-83500000D02*
X104000000Y-83500000D01*
X104000000Y-83500000D02*
X107440000Y-80060000D01*
X34260000Y-68415000D02*
X34260000Y-71015775D01*
X34260000Y-71015775D02*
X46744225Y-83500000D01*
%TO.N,Col4*%
X124940000Y-79807056D02*
X124940000Y-73620000D01*
X31720000Y-69182882D02*
X46537118Y-84000000D01*
X46537118Y-84000000D02*
X120747056Y-84000000D01*
X120747056Y-84000000D02*
X124940000Y-79807056D01*
X31720000Y-68415000D02*
X31720000Y-69182882D01*
%TO.N,Rot_SW*%
X32900000Y-33950000D02*
X31675000Y-35175000D01*
X31675000Y-53130000D02*
X31720000Y-53175000D01*
X31675000Y-35175000D02*
X31675000Y-53130000D01*
%TO.N,Rot_A*%
X34260000Y-53175000D02*
X34260000Y-49810000D01*
X34260000Y-49810000D02*
X32900000Y-48450000D01*
%TO.N,Rot_B*%
X36800000Y-49550000D02*
X37900000Y-48450000D01*
X36800000Y-53175000D02*
X36800000Y-49550000D01*
%TD*%
%TA.AperFunction,Conductor*%
%TO.N,GND*%
G36*
X136001223Y-30000024D02*
G01*
X136003252Y-30000063D01*
X136109344Y-30002144D01*
X136126295Y-30003646D01*
X136341068Y-30037663D01*
X136359988Y-30042205D01*
X136565634Y-30109023D01*
X136583602Y-30116465D01*
X136776264Y-30214631D01*
X136792855Y-30224798D01*
X136967786Y-30351894D01*
X136982581Y-30364531D01*
X137135468Y-30517418D01*
X137148105Y-30532213D01*
X137275201Y-30707144D01*
X137285368Y-30723735D01*
X137383532Y-30916393D01*
X137390978Y-30934370D01*
X137457794Y-31140011D01*
X137462336Y-31158931D01*
X137496352Y-31373696D01*
X137497855Y-31390662D01*
X137499976Y-31498776D01*
X137500000Y-31501208D01*
X137500000Y-90998791D01*
X137499976Y-91001223D01*
X137497855Y-91109337D01*
X137496352Y-91126303D01*
X137462336Y-91341068D01*
X137457794Y-91359988D01*
X137390978Y-91565629D01*
X137383532Y-91583606D01*
X137285368Y-91776264D01*
X137275201Y-91792855D01*
X137148105Y-91967786D01*
X137135468Y-91982581D01*
X136982581Y-92135468D01*
X136967786Y-92148105D01*
X136792855Y-92275201D01*
X136776264Y-92285368D01*
X136583606Y-92383532D01*
X136565629Y-92390978D01*
X136359988Y-92457794D01*
X136341068Y-92462336D01*
X136126303Y-92496352D01*
X136109337Y-92497855D01*
X136001224Y-92499976D01*
X135998792Y-92500000D01*
X21501208Y-92500000D01*
X21498776Y-92499976D01*
X21390662Y-92497855D01*
X21373696Y-92496352D01*
X21158931Y-92462336D01*
X21140011Y-92457794D01*
X20934370Y-92390978D01*
X20916393Y-92383532D01*
X20723735Y-92285368D01*
X20707144Y-92275201D01*
X20532213Y-92148105D01*
X20517418Y-92135468D01*
X20364531Y-91982581D01*
X20351894Y-91967786D01*
X20224798Y-91792855D01*
X20214631Y-91776264D01*
X20116467Y-91583606D01*
X20109021Y-91565629D01*
X20042205Y-91359988D01*
X20037663Y-91341068D01*
X20003646Y-91126295D01*
X20002144Y-91109344D01*
X20000024Y-91001222D01*
X20000000Y-90998791D01*
X20000000Y-68501208D01*
X20000024Y-68498777D01*
X20000062Y-68496811D01*
X20002144Y-68390654D01*
X20003646Y-68373705D01*
X20037663Y-68158928D01*
X20042205Y-68140011D01*
X20063107Y-68075681D01*
X20559400Y-68075681D01*
X20559400Y-69954310D01*
X20574858Y-70071726D01*
X20635368Y-70217811D01*
X20635368Y-70217812D01*
X20635370Y-70217815D01*
X20635371Y-70217816D01*
X20731633Y-70343267D01*
X20857084Y-70439529D01*
X20857087Y-70439530D01*
X20857088Y-70439531D01*
X20930129Y-70469785D01*
X21003175Y-70500042D01*
X21120589Y-70515500D01*
X21999410Y-70515499D01*
X22116825Y-70500042D01*
X22262911Y-70439531D01*
X22262912Y-70439531D01*
X22262912Y-70439530D01*
X22262916Y-70439529D01*
X22388367Y-70343267D01*
X22484629Y-70217816D01*
X22545142Y-70071725D01*
X22560600Y-69954311D01*
X22560599Y-68075690D01*
X22560598Y-68075681D01*
X25639400Y-68075681D01*
X25639400Y-69954310D01*
X25654858Y-70071726D01*
X25715368Y-70217811D01*
X25715368Y-70217812D01*
X25715370Y-70217815D01*
X25715371Y-70217816D01*
X25811633Y-70343267D01*
X25937084Y-70439529D01*
X25937087Y-70439530D01*
X25937088Y-70439531D01*
X26010129Y-70469785D01*
X26083175Y-70500042D01*
X26200589Y-70515500D01*
X27079410Y-70515499D01*
X27196825Y-70500042D01*
X27342911Y-70439531D01*
X27342912Y-70439531D01*
X27342912Y-70439530D01*
X27342916Y-70439529D01*
X27468367Y-70343267D01*
X27564629Y-70217816D01*
X27625142Y-70071725D01*
X27640600Y-69954311D01*
X27640599Y-68075690D01*
X27640598Y-68075681D01*
X28179400Y-68075681D01*
X28179400Y-69954310D01*
X28194858Y-70071726D01*
X28255368Y-70217811D01*
X28255368Y-70217812D01*
X28255370Y-70217815D01*
X28255371Y-70217816D01*
X28351633Y-70343267D01*
X28477084Y-70439529D01*
X28477087Y-70439530D01*
X28477088Y-70439531D01*
X28550129Y-70469785D01*
X28623175Y-70500042D01*
X28740589Y-70515500D01*
X29619410Y-70515499D01*
X29736825Y-70500042D01*
X29882911Y-70439531D01*
X29882912Y-70439531D01*
X29882912Y-70439530D01*
X29882916Y-70439529D01*
X30008367Y-70343267D01*
X30104629Y-70217816D01*
X30165142Y-70071725D01*
X30180600Y-69954311D01*
X30180599Y-68075690D01*
X30180598Y-68075681D01*
X30719400Y-68075681D01*
X30719400Y-69954310D01*
X30734858Y-70071726D01*
X30795368Y-70217811D01*
X30795368Y-70217812D01*
X30795370Y-70217815D01*
X30795371Y-70217816D01*
X30891633Y-70343267D01*
X31017084Y-70439529D01*
X31017087Y-70439530D01*
X31017088Y-70439531D01*
X31090129Y-70469785D01*
X31163175Y-70500042D01*
X31280589Y-70515500D01*
X32159410Y-70515499D01*
X32276825Y-70500042D01*
X32387418Y-70454232D01*
X32456884Y-70446764D01*
X32519363Y-70478039D01*
X32522549Y-70481113D01*
X46256649Y-84215212D01*
X46321906Y-84280469D01*
X46321909Y-84280470D01*
X46321912Y-84280473D01*
X46401824Y-84326611D01*
X46401825Y-84326611D01*
X46401830Y-84326614D01*
X46490974Y-84350500D01*
X46490976Y-84350500D01*
X120793198Y-84350500D01*
X120793200Y-84350500D01*
X120882344Y-84326614D01*
X120962268Y-84280470D01*
X125220469Y-80022268D01*
X125266614Y-79942344D01*
X125271338Y-79924712D01*
X125290500Y-79853200D01*
X125290500Y-78611421D01*
X126354500Y-78611421D01*
X126354500Y-78788578D01*
X126382214Y-78963556D01*
X126436956Y-79132039D01*
X126436957Y-79132042D01*
X126517386Y-79289890D01*
X126621517Y-79433214D01*
X126746786Y-79558483D01*
X126890110Y-79662614D01*
X126958577Y-79697500D01*
X127047957Y-79743042D01*
X127047960Y-79743043D01*
X127132201Y-79770414D01*
X127216445Y-79797786D01*
X127391421Y-79825500D01*
X127391422Y-79825500D01*
X127568578Y-79825500D01*
X127568579Y-79825500D01*
X127743555Y-79797786D01*
X127912042Y-79743042D01*
X128069890Y-79662614D01*
X128213214Y-79558483D01*
X128338483Y-79433214D01*
X128442614Y-79289890D01*
X128523042Y-79132042D01*
X128577786Y-78963555D01*
X128605500Y-78788579D01*
X128605500Y-78611421D01*
X128577786Y-78436445D01*
X128523042Y-78267958D01*
X128523042Y-78267957D01*
X128442613Y-78110109D01*
X128338483Y-77966786D01*
X128213214Y-77841517D01*
X128069890Y-77737386D01*
X127912042Y-77656957D01*
X127912039Y-77656956D01*
X127743556Y-77602214D01*
X127656067Y-77588357D01*
X127568579Y-77574500D01*
X127391421Y-77574500D01*
X127333095Y-77583738D01*
X127216443Y-77602214D01*
X127047960Y-77656956D01*
X127047957Y-77656957D01*
X126890109Y-77737386D01*
X126808338Y-77796796D01*
X126746786Y-77841517D01*
X126746784Y-77841519D01*
X126746783Y-77841519D01*
X126621519Y-77966783D01*
X126621519Y-77966784D01*
X126621517Y-77966786D01*
X126576796Y-78028338D01*
X126517386Y-78110109D01*
X126436957Y-78267957D01*
X126436956Y-78267960D01*
X126382214Y-78436443D01*
X126354500Y-78611421D01*
X125290500Y-78611421D01*
X125290500Y-75121801D01*
X125310185Y-75054762D01*
X125362989Y-75009007D01*
X125374215Y-75004528D01*
X125524656Y-74952882D01*
X125736067Y-74838472D01*
X125925764Y-74690825D01*
X126088571Y-74513969D01*
X126220049Y-74312728D01*
X126316610Y-74092591D01*
X126375620Y-73859563D01*
X126395471Y-73620000D01*
X126375620Y-73380437D01*
X126316610Y-73147409D01*
X126220049Y-72927272D01*
X126088571Y-72726031D01*
X125925764Y-72549175D01*
X125925759Y-72549171D01*
X125925757Y-72549169D01*
X125736075Y-72401533D01*
X125736069Y-72401529D01*
X125524657Y-72287118D01*
X125524652Y-72287116D01*
X125297300Y-72209066D01*
X125119468Y-72179391D01*
X125060192Y-72169500D01*
X124819808Y-72169500D01*
X124772387Y-72177413D01*
X124582699Y-72209066D01*
X124355347Y-72287116D01*
X124355342Y-72287118D01*
X124143930Y-72401529D01*
X124143924Y-72401533D01*
X123954242Y-72549169D01*
X123954239Y-72549172D01*
X123791430Y-72726029D01*
X123791427Y-72726033D01*
X123659951Y-72927270D01*
X123563389Y-73147410D01*
X123504379Y-73380440D01*
X123484529Y-73619994D01*
X123484529Y-73620005D01*
X123504379Y-73859559D01*
X123563389Y-74092589D01*
X123659951Y-74312729D01*
X123789734Y-74511375D01*
X123791429Y-74513969D01*
X123954236Y-74690825D01*
X123954239Y-74690827D01*
X123954242Y-74690830D01*
X124143924Y-74838466D01*
X124143930Y-74838470D01*
X124143933Y-74838472D01*
X124355344Y-74952882D01*
X124505765Y-75004521D01*
X124562778Y-75044905D01*
X124588909Y-75109704D01*
X124589500Y-75121801D01*
X124589500Y-77528549D01*
X124569815Y-77595588D01*
X124517011Y-77641343D01*
X124447853Y-77651287D01*
X124384297Y-77622262D01*
X124358113Y-77590549D01*
X124275238Y-77447006D01*
X124095647Y-77212959D01*
X124095641Y-77212952D01*
X123887047Y-77004358D01*
X123887040Y-77004352D01*
X123652993Y-76824761D01*
X123397510Y-76677258D01*
X123397500Y-76677254D01*
X123124961Y-76564364D01*
X123124954Y-76564362D01*
X123124952Y-76564361D01*
X122839993Y-76488007D01*
X122791113Y-76481571D01*
X122547513Y-76449500D01*
X122547506Y-76449500D01*
X122252494Y-76449500D01*
X122252486Y-76449500D01*
X121974085Y-76486153D01*
X121960007Y-76488007D01*
X121675048Y-76564361D01*
X121675038Y-76564364D01*
X121402499Y-76677254D01*
X121402489Y-76677258D01*
X121147006Y-76824761D01*
X120912959Y-77004352D01*
X120912952Y-77004358D01*
X120704358Y-77212952D01*
X120704352Y-77212959D01*
X120524761Y-77447006D01*
X120377258Y-77702489D01*
X120377254Y-77702499D01*
X120264364Y-77975038D01*
X120264361Y-77975048D01*
X120228172Y-78110110D01*
X120188008Y-78260004D01*
X120188006Y-78260015D01*
X120149500Y-78552486D01*
X120149500Y-78847513D01*
X120164778Y-78963555D01*
X120188007Y-79139993D01*
X120264361Y-79424951D01*
X120264364Y-79424961D01*
X120377254Y-79697500D01*
X120377258Y-79697510D01*
X120524761Y-79952993D01*
X120704352Y-80187040D01*
X120704358Y-80187047D01*
X120912952Y-80395641D01*
X120912959Y-80395647D01*
X121147006Y-80575238D01*
X121402489Y-80722741D01*
X121402490Y-80722741D01*
X121402493Y-80722743D01*
X121675048Y-80835639D01*
X121960007Y-80911993D01*
X122252494Y-80950500D01*
X122252501Y-80950500D01*
X122547499Y-80950500D01*
X122547506Y-80950500D01*
X122839993Y-80911993D01*
X123075165Y-80848979D01*
X123145014Y-80850642D01*
X123202876Y-80889805D01*
X123230380Y-80954033D01*
X123218793Y-81022935D01*
X123194938Y-81056435D01*
X120638193Y-83613181D01*
X120576870Y-83646666D01*
X120550512Y-83649500D01*
X104645544Y-83649500D01*
X104578505Y-83629815D01*
X104532750Y-83577011D01*
X104522806Y-83507853D01*
X104551831Y-83444297D01*
X104557863Y-83437819D01*
X105882501Y-82113181D01*
X107720470Y-80275212D01*
X107766614Y-80195288D01*
X107790500Y-80106144D01*
X107790500Y-78611421D01*
X108854500Y-78611421D01*
X108854500Y-78788578D01*
X108882214Y-78963556D01*
X108936956Y-79132039D01*
X108936957Y-79132042D01*
X109017386Y-79289890D01*
X109121517Y-79433214D01*
X109246786Y-79558483D01*
X109390110Y-79662614D01*
X109458577Y-79697500D01*
X109547957Y-79743042D01*
X109547960Y-79743043D01*
X109632201Y-79770414D01*
X109716445Y-79797786D01*
X109891421Y-79825500D01*
X109891422Y-79825500D01*
X110068578Y-79825500D01*
X110068579Y-79825500D01*
X110243555Y-79797786D01*
X110412042Y-79743042D01*
X110569890Y-79662614D01*
X110713214Y-79558483D01*
X110838483Y-79433214D01*
X110942614Y-79289890D01*
X111023042Y-79132042D01*
X111077786Y-78963555D01*
X111105500Y-78788579D01*
X111105500Y-78611421D01*
X116194500Y-78611421D01*
X116194500Y-78788578D01*
X116222214Y-78963556D01*
X116276956Y-79132039D01*
X116276957Y-79132042D01*
X116357386Y-79289890D01*
X116461517Y-79433214D01*
X116586786Y-79558483D01*
X116730110Y-79662614D01*
X116798577Y-79697500D01*
X116887957Y-79743042D01*
X116887960Y-79743043D01*
X116972201Y-79770414D01*
X117056445Y-79797786D01*
X117231421Y-79825500D01*
X117231422Y-79825500D01*
X117408578Y-79825500D01*
X117408579Y-79825500D01*
X117583555Y-79797786D01*
X117752042Y-79743042D01*
X117909890Y-79662614D01*
X118053214Y-79558483D01*
X118178483Y-79433214D01*
X118282614Y-79289890D01*
X118363042Y-79132042D01*
X118417786Y-78963555D01*
X118445500Y-78788579D01*
X118445500Y-78611421D01*
X118417786Y-78436445D01*
X118363042Y-78267958D01*
X118363042Y-78267957D01*
X118282613Y-78110109D01*
X118178483Y-77966786D01*
X118053214Y-77841517D01*
X117909890Y-77737386D01*
X117752042Y-77656957D01*
X117752039Y-77656956D01*
X117583556Y-77602214D01*
X117496067Y-77588357D01*
X117408579Y-77574500D01*
X117231421Y-77574500D01*
X117173095Y-77583738D01*
X117056443Y-77602214D01*
X116887960Y-77656956D01*
X116887957Y-77656957D01*
X116730109Y-77737386D01*
X116648338Y-77796796D01*
X116586786Y-77841517D01*
X116586784Y-77841519D01*
X116586783Y-77841519D01*
X116461519Y-77966783D01*
X116461519Y-77966784D01*
X116461517Y-77966786D01*
X116416796Y-78028338D01*
X116357386Y-78110109D01*
X116276957Y-78267957D01*
X116276956Y-78267960D01*
X116222214Y-78436443D01*
X116194500Y-78611421D01*
X111105500Y-78611421D01*
X111077786Y-78436445D01*
X111023042Y-78267958D01*
X111023042Y-78267957D01*
X110942613Y-78110109D01*
X110838483Y-77966786D01*
X110713214Y-77841517D01*
X110569890Y-77737386D01*
X110412042Y-77656957D01*
X110412039Y-77656956D01*
X110243556Y-77602214D01*
X110156067Y-77588357D01*
X110068579Y-77574500D01*
X109891421Y-77574500D01*
X109833095Y-77583738D01*
X109716443Y-77602214D01*
X109547960Y-77656956D01*
X109547957Y-77656957D01*
X109390109Y-77737386D01*
X109308338Y-77796796D01*
X109246786Y-77841517D01*
X109246784Y-77841519D01*
X109246783Y-77841519D01*
X109121519Y-77966783D01*
X109121519Y-77966784D01*
X109121517Y-77966786D01*
X109076796Y-78028338D01*
X109017386Y-78110109D01*
X108936957Y-78267957D01*
X108936956Y-78267960D01*
X108882214Y-78436443D01*
X108854500Y-78611421D01*
X107790500Y-78611421D01*
X107790500Y-76159994D01*
X117134529Y-76159994D01*
X117134529Y-76160005D01*
X117154379Y-76399559D01*
X117213389Y-76632589D01*
X117309951Y-76852729D01*
X117409012Y-77004352D01*
X117441429Y-77053969D01*
X117604236Y-77230825D01*
X117604239Y-77230827D01*
X117604242Y-77230830D01*
X117793924Y-77378466D01*
X117793930Y-77378470D01*
X117793933Y-77378472D01*
X118005344Y-77492882D01*
X118005347Y-77492883D01*
X118232699Y-77570933D01*
X118232701Y-77570933D01*
X118232703Y-77570934D01*
X118469808Y-77610500D01*
X118469809Y-77610500D01*
X118710191Y-77610500D01*
X118710192Y-77610500D01*
X118947297Y-77570934D01*
X119174656Y-77492882D01*
X119386067Y-77378472D01*
X119575764Y-77230825D01*
X119738571Y-77053969D01*
X119870049Y-76852728D01*
X119966610Y-76632591D01*
X120025620Y-76399563D01*
X120045471Y-76160000D01*
X120025620Y-75920437D01*
X119966610Y-75687409D01*
X119870049Y-75467272D01*
X119738571Y-75266031D01*
X119575764Y-75089175D01*
X119575759Y-75089171D01*
X119575757Y-75089169D01*
X119386075Y-74941533D01*
X119386069Y-74941529D01*
X119174657Y-74827118D01*
X119174652Y-74827116D01*
X118947300Y-74749066D01*
X118769468Y-74719391D01*
X118710192Y-74709500D01*
X118469808Y-74709500D01*
X118422387Y-74717413D01*
X118232699Y-74749066D01*
X118005347Y-74827116D01*
X118005342Y-74827118D01*
X117793930Y-74941529D01*
X117793924Y-74941533D01*
X117604242Y-75089169D01*
X117604239Y-75089172D01*
X117441430Y-75266029D01*
X117441427Y-75266033D01*
X117309951Y-75467270D01*
X117213389Y-75687410D01*
X117154379Y-75920440D01*
X117134529Y-76159994D01*
X107790500Y-76159994D01*
X107790500Y-75121801D01*
X107810185Y-75054762D01*
X107862989Y-75009007D01*
X107874215Y-75004528D01*
X108024656Y-74952882D01*
X108236067Y-74838472D01*
X108425764Y-74690825D01*
X108588571Y-74513969D01*
X108720049Y-74312728D01*
X108816610Y-74092591D01*
X108875620Y-73859563D01*
X108895471Y-73620000D01*
X108875620Y-73380437D01*
X108816610Y-73147409D01*
X108720049Y-72927272D01*
X108588571Y-72726031D01*
X108425764Y-72549175D01*
X108425759Y-72549171D01*
X108425757Y-72549169D01*
X108236075Y-72401533D01*
X108236069Y-72401529D01*
X108024657Y-72287118D01*
X108024652Y-72287116D01*
X107797300Y-72209066D01*
X107619468Y-72179391D01*
X107560192Y-72169500D01*
X107319808Y-72169500D01*
X107272387Y-72177413D01*
X107082699Y-72209066D01*
X106855347Y-72287116D01*
X106855342Y-72287118D01*
X106643930Y-72401529D01*
X106643924Y-72401533D01*
X106454242Y-72549169D01*
X106454239Y-72549172D01*
X106291430Y-72726029D01*
X106291427Y-72726033D01*
X106159951Y-72927270D01*
X106063389Y-73147410D01*
X106004379Y-73380440D01*
X105984529Y-73619994D01*
X105984529Y-73620005D01*
X106004379Y-73859559D01*
X106063389Y-74092589D01*
X106159951Y-74312729D01*
X106289734Y-74511375D01*
X106291429Y-74513969D01*
X106454236Y-74690825D01*
X106454239Y-74690827D01*
X106454242Y-74690830D01*
X106643924Y-74838466D01*
X106643930Y-74838470D01*
X106643933Y-74838472D01*
X106855344Y-74952882D01*
X107005765Y-75004521D01*
X107062778Y-75044905D01*
X107088909Y-75109704D01*
X107089500Y-75121801D01*
X107089500Y-77528549D01*
X107069815Y-77595588D01*
X107017011Y-77641343D01*
X106947853Y-77651287D01*
X106884297Y-77622262D01*
X106858113Y-77590549D01*
X106775238Y-77447006D01*
X106595647Y-77212959D01*
X106595641Y-77212952D01*
X106387047Y-77004358D01*
X106387040Y-77004352D01*
X106152993Y-76824761D01*
X105897510Y-76677258D01*
X105897500Y-76677254D01*
X105624961Y-76564364D01*
X105624954Y-76564362D01*
X105624952Y-76564361D01*
X105339993Y-76488007D01*
X105291113Y-76481571D01*
X105047513Y-76449500D01*
X105047506Y-76449500D01*
X104752494Y-76449500D01*
X104752486Y-76449500D01*
X104474085Y-76486153D01*
X104460007Y-76488007D01*
X104175048Y-76564361D01*
X104175038Y-76564364D01*
X103902499Y-76677254D01*
X103902489Y-76677258D01*
X103647006Y-76824761D01*
X103412959Y-77004352D01*
X103412952Y-77004358D01*
X103204358Y-77212952D01*
X103204352Y-77212959D01*
X103024761Y-77447006D01*
X102877258Y-77702489D01*
X102877254Y-77702499D01*
X102764364Y-77975038D01*
X102764361Y-77975048D01*
X102728172Y-78110110D01*
X102688008Y-78260004D01*
X102688006Y-78260015D01*
X102649500Y-78552486D01*
X102649500Y-78847513D01*
X102664778Y-78963555D01*
X102688007Y-79139993D01*
X102764361Y-79424951D01*
X102764364Y-79424961D01*
X102877254Y-79697500D01*
X102877258Y-79697510D01*
X103024761Y-79952993D01*
X103204352Y-80187040D01*
X103204358Y-80187047D01*
X103412952Y-80395641D01*
X103412959Y-80395647D01*
X103647006Y-80575238D01*
X103902489Y-80722741D01*
X103902490Y-80722741D01*
X103902493Y-80722743D01*
X104175048Y-80835639D01*
X104460007Y-80911993D01*
X104752494Y-80950500D01*
X104752501Y-80950500D01*
X105047499Y-80950500D01*
X105047506Y-80950500D01*
X105339993Y-80911993D01*
X105624952Y-80835639D01*
X105897507Y-80722743D01*
X105990536Y-80669032D01*
X106058435Y-80652560D01*
X106124462Y-80675412D01*
X106167653Y-80730334D01*
X106174294Y-80799887D01*
X106142278Y-80861990D01*
X106140216Y-80864101D01*
X103891137Y-83113181D01*
X103829814Y-83146666D01*
X103803456Y-83149500D01*
X87645544Y-83149500D01*
X87578505Y-83129815D01*
X87532750Y-83077011D01*
X87522806Y-83007853D01*
X87551831Y-82944297D01*
X87557863Y-82937819D01*
X88382501Y-82113181D01*
X90220470Y-80275212D01*
X90266614Y-80195288D01*
X90290500Y-80106144D01*
X90290500Y-78611421D01*
X91354500Y-78611421D01*
X91354500Y-78788578D01*
X91382214Y-78963556D01*
X91436956Y-79132039D01*
X91436957Y-79132042D01*
X91517386Y-79289890D01*
X91621517Y-79433214D01*
X91746786Y-79558483D01*
X91890110Y-79662614D01*
X91958577Y-79697500D01*
X92047957Y-79743042D01*
X92047960Y-79743043D01*
X92132201Y-79770414D01*
X92216445Y-79797786D01*
X92391421Y-79825500D01*
X92391422Y-79825500D01*
X92568578Y-79825500D01*
X92568579Y-79825500D01*
X92743555Y-79797786D01*
X92912042Y-79743042D01*
X93069890Y-79662614D01*
X93213214Y-79558483D01*
X93338483Y-79433214D01*
X93442614Y-79289890D01*
X93523042Y-79132042D01*
X93577786Y-78963555D01*
X93605500Y-78788579D01*
X93605500Y-78611421D01*
X98694500Y-78611421D01*
X98694500Y-78788578D01*
X98722214Y-78963556D01*
X98776956Y-79132039D01*
X98776957Y-79132042D01*
X98857386Y-79289890D01*
X98961517Y-79433214D01*
X99086786Y-79558483D01*
X99230110Y-79662614D01*
X99298577Y-79697500D01*
X99387957Y-79743042D01*
X99387960Y-79743043D01*
X99472201Y-79770414D01*
X99556445Y-79797786D01*
X99731421Y-79825500D01*
X99731422Y-79825500D01*
X99908578Y-79825500D01*
X99908579Y-79825500D01*
X100083555Y-79797786D01*
X100252042Y-79743042D01*
X100409890Y-79662614D01*
X100553214Y-79558483D01*
X100678483Y-79433214D01*
X100782614Y-79289890D01*
X100863042Y-79132042D01*
X100917786Y-78963555D01*
X100945500Y-78788579D01*
X100945500Y-78611421D01*
X100917786Y-78436445D01*
X100863042Y-78267958D01*
X100863042Y-78267957D01*
X100782613Y-78110109D01*
X100678483Y-77966786D01*
X100553214Y-77841517D01*
X100409890Y-77737386D01*
X100252042Y-77656957D01*
X100252039Y-77656956D01*
X100083556Y-77602214D01*
X99996067Y-77588357D01*
X99908579Y-77574500D01*
X99731421Y-77574500D01*
X99673095Y-77583738D01*
X99556443Y-77602214D01*
X99387960Y-77656956D01*
X99387957Y-77656957D01*
X99230109Y-77737386D01*
X99148338Y-77796796D01*
X99086786Y-77841517D01*
X99086784Y-77841519D01*
X99086783Y-77841519D01*
X98961519Y-77966783D01*
X98961519Y-77966784D01*
X98961517Y-77966786D01*
X98916796Y-78028338D01*
X98857386Y-78110109D01*
X98776957Y-78267957D01*
X98776956Y-78267960D01*
X98722214Y-78436443D01*
X98694500Y-78611421D01*
X93605500Y-78611421D01*
X93577786Y-78436445D01*
X93523042Y-78267958D01*
X93523042Y-78267957D01*
X93442613Y-78110109D01*
X93338483Y-77966786D01*
X93213214Y-77841517D01*
X93069890Y-77737386D01*
X92912042Y-77656957D01*
X92912039Y-77656956D01*
X92743556Y-77602214D01*
X92656067Y-77588357D01*
X92568579Y-77574500D01*
X92391421Y-77574500D01*
X92333095Y-77583738D01*
X92216443Y-77602214D01*
X92047960Y-77656956D01*
X92047957Y-77656957D01*
X91890109Y-77737386D01*
X91808338Y-77796796D01*
X91746786Y-77841517D01*
X91746784Y-77841519D01*
X91746783Y-77841519D01*
X91621519Y-77966783D01*
X91621519Y-77966784D01*
X91621517Y-77966786D01*
X91576796Y-78028338D01*
X91517386Y-78110109D01*
X91436957Y-78267957D01*
X91436956Y-78267960D01*
X91382214Y-78436443D01*
X91354500Y-78611421D01*
X90290500Y-78611421D01*
X90290500Y-76159994D01*
X99634529Y-76159994D01*
X99634529Y-76160005D01*
X99654379Y-76399559D01*
X99713389Y-76632589D01*
X99809951Y-76852729D01*
X99909012Y-77004352D01*
X99941429Y-77053969D01*
X100104236Y-77230825D01*
X100104239Y-77230827D01*
X100104242Y-77230830D01*
X100293924Y-77378466D01*
X100293930Y-77378470D01*
X100293933Y-77378472D01*
X100505344Y-77492882D01*
X100505347Y-77492883D01*
X100732699Y-77570933D01*
X100732701Y-77570933D01*
X100732703Y-77570934D01*
X100969808Y-77610500D01*
X100969809Y-77610500D01*
X101210191Y-77610500D01*
X101210192Y-77610500D01*
X101447297Y-77570934D01*
X101674656Y-77492882D01*
X101886067Y-77378472D01*
X102075764Y-77230825D01*
X102238571Y-77053969D01*
X102370049Y-76852728D01*
X102466610Y-76632591D01*
X102525620Y-76399563D01*
X102545471Y-76160000D01*
X102525620Y-75920437D01*
X102466610Y-75687409D01*
X102370049Y-75467272D01*
X102238571Y-75266031D01*
X102075764Y-75089175D01*
X102075759Y-75089171D01*
X102075757Y-75089169D01*
X101886075Y-74941533D01*
X101886069Y-74941529D01*
X101674657Y-74827118D01*
X101674652Y-74827116D01*
X101447300Y-74749066D01*
X101269468Y-74719391D01*
X101210192Y-74709500D01*
X100969808Y-74709500D01*
X100922387Y-74717413D01*
X100732699Y-74749066D01*
X100505347Y-74827116D01*
X100505342Y-74827118D01*
X100293930Y-74941529D01*
X100293924Y-74941533D01*
X100104242Y-75089169D01*
X100104239Y-75089172D01*
X99941430Y-75266029D01*
X99941427Y-75266033D01*
X99809951Y-75467270D01*
X99713389Y-75687410D01*
X99654379Y-75920440D01*
X99634529Y-76159994D01*
X90290500Y-76159994D01*
X90290500Y-75121801D01*
X90310185Y-75054762D01*
X90362989Y-75009007D01*
X90374215Y-75004528D01*
X90524656Y-74952882D01*
X90736067Y-74838472D01*
X90925764Y-74690825D01*
X91088571Y-74513969D01*
X91220049Y-74312728D01*
X91316610Y-74092591D01*
X91375620Y-73859563D01*
X91395471Y-73620000D01*
X91375620Y-73380437D01*
X91316610Y-73147409D01*
X91220049Y-72927272D01*
X91088571Y-72726031D01*
X90925764Y-72549175D01*
X90925759Y-72549171D01*
X90925757Y-72549169D01*
X90736075Y-72401533D01*
X90736069Y-72401529D01*
X90524657Y-72287118D01*
X90524652Y-72287116D01*
X90297300Y-72209066D01*
X90119468Y-72179391D01*
X90060192Y-72169500D01*
X89819808Y-72169500D01*
X89772387Y-72177413D01*
X89582699Y-72209066D01*
X89355347Y-72287116D01*
X89355342Y-72287118D01*
X89143930Y-72401529D01*
X89143924Y-72401533D01*
X88954242Y-72549169D01*
X88954239Y-72549172D01*
X88791430Y-72726029D01*
X88791427Y-72726033D01*
X88659951Y-72927270D01*
X88563389Y-73147410D01*
X88504379Y-73380440D01*
X88484529Y-73619994D01*
X88484529Y-73620005D01*
X88504379Y-73859559D01*
X88563389Y-74092589D01*
X88659951Y-74312729D01*
X88789734Y-74511375D01*
X88791429Y-74513969D01*
X88954236Y-74690825D01*
X88954239Y-74690827D01*
X88954242Y-74690830D01*
X89143924Y-74838466D01*
X89143930Y-74838470D01*
X89143933Y-74838472D01*
X89355344Y-74952882D01*
X89505765Y-75004521D01*
X89562778Y-75044905D01*
X89588909Y-75109704D01*
X89589500Y-75121801D01*
X89589500Y-77528549D01*
X89569815Y-77595588D01*
X89517011Y-77641343D01*
X89447853Y-77651287D01*
X89384297Y-77622262D01*
X89358113Y-77590549D01*
X89275238Y-77447006D01*
X89095647Y-77212959D01*
X89095641Y-77212952D01*
X88887047Y-77004358D01*
X88887040Y-77004352D01*
X88652993Y-76824761D01*
X88397510Y-76677258D01*
X88397500Y-76677254D01*
X88124961Y-76564364D01*
X88124954Y-76564362D01*
X88124952Y-76564361D01*
X87839993Y-76488007D01*
X87791113Y-76481571D01*
X87547513Y-76449500D01*
X87547506Y-76449500D01*
X87252494Y-76449500D01*
X87252486Y-76449500D01*
X86974085Y-76486153D01*
X86960007Y-76488007D01*
X86675048Y-76564361D01*
X86675038Y-76564364D01*
X86402499Y-76677254D01*
X86402489Y-76677258D01*
X86147006Y-76824761D01*
X85912959Y-77004352D01*
X85912952Y-77004358D01*
X85704358Y-77212952D01*
X85704352Y-77212959D01*
X85524761Y-77447006D01*
X85377258Y-77702489D01*
X85377254Y-77702499D01*
X85264364Y-77975038D01*
X85264361Y-77975048D01*
X85228172Y-78110110D01*
X85188008Y-78260004D01*
X85188006Y-78260015D01*
X85149500Y-78552486D01*
X85149500Y-78847513D01*
X85164778Y-78963555D01*
X85188007Y-79139993D01*
X85264361Y-79424951D01*
X85264364Y-79424961D01*
X85377254Y-79697500D01*
X85377258Y-79697510D01*
X85524761Y-79952993D01*
X85704352Y-80187040D01*
X85704358Y-80187047D01*
X85912952Y-80395641D01*
X85912959Y-80395647D01*
X86147006Y-80575238D01*
X86402489Y-80722741D01*
X86402490Y-80722741D01*
X86402493Y-80722743D01*
X86675048Y-80835639D01*
X86960007Y-80911993D01*
X87252494Y-80950500D01*
X87252501Y-80950500D01*
X87547499Y-80950500D01*
X87547506Y-80950500D01*
X87839993Y-80911993D01*
X88124952Y-80835639D01*
X88397507Y-80722743D01*
X88490536Y-80669032D01*
X88558435Y-80652560D01*
X88624462Y-80675412D01*
X88667653Y-80730334D01*
X88674294Y-80799887D01*
X88642278Y-80861990D01*
X88640216Y-80864101D01*
X86891137Y-82613181D01*
X86829814Y-82646666D01*
X86803456Y-82649500D01*
X70392600Y-82649500D01*
X70325561Y-82629815D01*
X70279806Y-82577011D01*
X70269862Y-82507853D01*
X70298887Y-82444297D01*
X70304919Y-82437819D01*
X70629557Y-82113181D01*
X72720470Y-80022268D01*
X72766614Y-79942344D01*
X72771338Y-79924712D01*
X72790500Y-79853200D01*
X72790500Y-78611421D01*
X73854500Y-78611421D01*
X73854500Y-78788578D01*
X73882214Y-78963556D01*
X73936956Y-79132039D01*
X73936957Y-79132042D01*
X74017386Y-79289890D01*
X74121517Y-79433214D01*
X74246786Y-79558483D01*
X74390110Y-79662614D01*
X74458577Y-79697500D01*
X74547957Y-79743042D01*
X74547960Y-79743043D01*
X74632201Y-79770414D01*
X74716445Y-79797786D01*
X74891421Y-79825500D01*
X74891422Y-79825500D01*
X75068578Y-79825500D01*
X75068579Y-79825500D01*
X75243555Y-79797786D01*
X75412042Y-79743042D01*
X75569890Y-79662614D01*
X75713214Y-79558483D01*
X75838483Y-79433214D01*
X75942614Y-79289890D01*
X76023042Y-79132042D01*
X76077786Y-78963555D01*
X76105500Y-78788579D01*
X76105500Y-78611421D01*
X81194500Y-78611421D01*
X81194500Y-78788578D01*
X81222214Y-78963556D01*
X81276956Y-79132039D01*
X81276957Y-79132042D01*
X81357386Y-79289890D01*
X81461517Y-79433214D01*
X81586786Y-79558483D01*
X81730110Y-79662614D01*
X81798577Y-79697500D01*
X81887957Y-79743042D01*
X81887960Y-79743043D01*
X81972201Y-79770414D01*
X82056445Y-79797786D01*
X82231421Y-79825500D01*
X82231422Y-79825500D01*
X82408578Y-79825500D01*
X82408579Y-79825500D01*
X82583555Y-79797786D01*
X82752042Y-79743042D01*
X82909890Y-79662614D01*
X83053214Y-79558483D01*
X83178483Y-79433214D01*
X83282614Y-79289890D01*
X83363042Y-79132042D01*
X83417786Y-78963555D01*
X83445500Y-78788579D01*
X83445500Y-78611421D01*
X83417786Y-78436445D01*
X83363042Y-78267958D01*
X83363042Y-78267957D01*
X83282613Y-78110109D01*
X83178483Y-77966786D01*
X83053214Y-77841517D01*
X82909890Y-77737386D01*
X82752042Y-77656957D01*
X82752039Y-77656956D01*
X82583556Y-77602214D01*
X82496067Y-77588357D01*
X82408579Y-77574500D01*
X82231421Y-77574500D01*
X82173095Y-77583738D01*
X82056443Y-77602214D01*
X81887960Y-77656956D01*
X81887957Y-77656957D01*
X81730109Y-77737386D01*
X81648338Y-77796796D01*
X81586786Y-77841517D01*
X81586784Y-77841519D01*
X81586783Y-77841519D01*
X81461519Y-77966783D01*
X81461519Y-77966784D01*
X81461517Y-77966786D01*
X81416796Y-78028338D01*
X81357386Y-78110109D01*
X81276957Y-78267957D01*
X81276956Y-78267960D01*
X81222214Y-78436443D01*
X81194500Y-78611421D01*
X76105500Y-78611421D01*
X76077786Y-78436445D01*
X76023042Y-78267958D01*
X76023042Y-78267957D01*
X75942613Y-78110109D01*
X75838483Y-77966786D01*
X75713214Y-77841517D01*
X75569890Y-77737386D01*
X75412042Y-77656957D01*
X75412039Y-77656956D01*
X75243556Y-77602214D01*
X75156067Y-77588357D01*
X75068579Y-77574500D01*
X74891421Y-77574500D01*
X74833095Y-77583738D01*
X74716443Y-77602214D01*
X74547960Y-77656956D01*
X74547957Y-77656957D01*
X74390109Y-77737386D01*
X74308338Y-77796796D01*
X74246786Y-77841517D01*
X74246784Y-77841519D01*
X74246783Y-77841519D01*
X74121519Y-77966783D01*
X74121519Y-77966784D01*
X74121517Y-77966786D01*
X74076796Y-78028338D01*
X74017386Y-78110109D01*
X73936957Y-78267957D01*
X73936956Y-78267960D01*
X73882214Y-78436443D01*
X73854500Y-78611421D01*
X72790500Y-78611421D01*
X72790500Y-76159994D01*
X82134529Y-76159994D01*
X82134529Y-76160005D01*
X82154379Y-76399559D01*
X82213389Y-76632589D01*
X82309951Y-76852729D01*
X82409012Y-77004352D01*
X82441429Y-77053969D01*
X82604236Y-77230825D01*
X82604239Y-77230827D01*
X82604242Y-77230830D01*
X82793924Y-77378466D01*
X82793930Y-77378470D01*
X82793933Y-77378472D01*
X83005344Y-77492882D01*
X83005347Y-77492883D01*
X83232699Y-77570933D01*
X83232701Y-77570933D01*
X83232703Y-77570934D01*
X83469808Y-77610500D01*
X83469809Y-77610500D01*
X83710191Y-77610500D01*
X83710192Y-77610500D01*
X83947297Y-77570934D01*
X84174656Y-77492882D01*
X84386067Y-77378472D01*
X84575764Y-77230825D01*
X84738571Y-77053969D01*
X84870049Y-76852728D01*
X84966610Y-76632591D01*
X85025620Y-76399563D01*
X85045471Y-76160000D01*
X85025620Y-75920437D01*
X84966610Y-75687409D01*
X84870049Y-75467272D01*
X84738571Y-75266031D01*
X84575764Y-75089175D01*
X84575759Y-75089171D01*
X84575757Y-75089169D01*
X84386075Y-74941533D01*
X84386069Y-74941529D01*
X84174657Y-74827118D01*
X84174652Y-74827116D01*
X83947300Y-74749066D01*
X83769468Y-74719391D01*
X83710192Y-74709500D01*
X83469808Y-74709500D01*
X83422387Y-74717413D01*
X83232699Y-74749066D01*
X83005347Y-74827116D01*
X83005342Y-74827118D01*
X82793930Y-74941529D01*
X82793924Y-74941533D01*
X82604242Y-75089169D01*
X82604239Y-75089172D01*
X82441430Y-75266029D01*
X82441427Y-75266033D01*
X82309951Y-75467270D01*
X82213389Y-75687410D01*
X82154379Y-75920440D01*
X82134529Y-76159994D01*
X72790500Y-76159994D01*
X72790500Y-75121801D01*
X72810185Y-75054762D01*
X72862989Y-75009007D01*
X72874215Y-75004528D01*
X73024656Y-74952882D01*
X73236067Y-74838472D01*
X73425764Y-74690825D01*
X73588571Y-74513969D01*
X73720049Y-74312728D01*
X73816610Y-74092591D01*
X73875620Y-73859563D01*
X73895471Y-73620000D01*
X73875620Y-73380437D01*
X73816610Y-73147409D01*
X73720049Y-72927272D01*
X73588571Y-72726031D01*
X73425764Y-72549175D01*
X73425759Y-72549171D01*
X73425757Y-72549169D01*
X73236075Y-72401533D01*
X73236069Y-72401529D01*
X73024657Y-72287118D01*
X73024652Y-72287116D01*
X72797300Y-72209066D01*
X72619468Y-72179391D01*
X72560192Y-72169500D01*
X72319808Y-72169500D01*
X72272387Y-72177413D01*
X72082699Y-72209066D01*
X71855347Y-72287116D01*
X71855342Y-72287118D01*
X71643930Y-72401529D01*
X71643924Y-72401533D01*
X71454242Y-72549169D01*
X71454239Y-72549172D01*
X71291430Y-72726029D01*
X71291427Y-72726033D01*
X71159951Y-72927270D01*
X71063389Y-73147410D01*
X71004379Y-73380440D01*
X70984529Y-73619994D01*
X70984529Y-73620005D01*
X71004379Y-73859559D01*
X71063389Y-74092589D01*
X71159951Y-74312729D01*
X71289734Y-74511375D01*
X71291429Y-74513969D01*
X71454236Y-74690825D01*
X71454239Y-74690827D01*
X71454242Y-74690830D01*
X71643924Y-74838466D01*
X71643930Y-74838470D01*
X71643933Y-74838472D01*
X71855344Y-74952882D01*
X72005765Y-75004521D01*
X72062778Y-75044905D01*
X72088909Y-75109704D01*
X72089500Y-75121801D01*
X72089500Y-77528549D01*
X72069815Y-77595588D01*
X72017011Y-77641343D01*
X71947853Y-77651287D01*
X71884297Y-77622262D01*
X71858113Y-77590549D01*
X71775238Y-77447006D01*
X71595647Y-77212959D01*
X71595641Y-77212952D01*
X71387047Y-77004358D01*
X71387040Y-77004352D01*
X71152993Y-76824761D01*
X70897510Y-76677258D01*
X70897500Y-76677254D01*
X70624961Y-76564364D01*
X70624954Y-76564362D01*
X70624952Y-76564361D01*
X70339993Y-76488007D01*
X70291113Y-76481571D01*
X70047513Y-76449500D01*
X70047506Y-76449500D01*
X69752494Y-76449500D01*
X69752486Y-76449500D01*
X69474085Y-76486153D01*
X69460007Y-76488007D01*
X69175048Y-76564361D01*
X69175038Y-76564364D01*
X68902499Y-76677254D01*
X68902489Y-76677258D01*
X68647006Y-76824761D01*
X68412959Y-77004352D01*
X68412952Y-77004358D01*
X68204358Y-77212952D01*
X68204352Y-77212959D01*
X68024761Y-77447006D01*
X67877258Y-77702489D01*
X67877254Y-77702499D01*
X67764364Y-77975038D01*
X67764361Y-77975048D01*
X67728172Y-78110110D01*
X67688008Y-78260004D01*
X67688006Y-78260015D01*
X67649500Y-78552486D01*
X67649500Y-78847513D01*
X67664778Y-78963555D01*
X67688007Y-79139993D01*
X67764361Y-79424951D01*
X67764364Y-79424961D01*
X67877254Y-79697500D01*
X67877258Y-79697510D01*
X68024761Y-79952993D01*
X68204352Y-80187040D01*
X68204358Y-80187047D01*
X68412952Y-80395641D01*
X68412959Y-80395647D01*
X68647006Y-80575238D01*
X68902489Y-80722741D01*
X68902490Y-80722741D01*
X68902493Y-80722743D01*
X69175048Y-80835639D01*
X69460007Y-80911993D01*
X69752494Y-80950500D01*
X69752501Y-80950500D01*
X70047499Y-80950500D01*
X70047506Y-80950500D01*
X70339993Y-80911993D01*
X70575165Y-80848979D01*
X70645014Y-80850642D01*
X70702876Y-80889805D01*
X70730380Y-80954033D01*
X70718793Y-81022935D01*
X70694938Y-81056435D01*
X69638193Y-82113181D01*
X69576870Y-82146666D01*
X69550512Y-82149500D01*
X47354983Y-82149500D01*
X47287944Y-82129815D01*
X47267302Y-82113181D01*
X43765542Y-78611421D01*
X46194500Y-78611421D01*
X46194500Y-78788578D01*
X46222214Y-78963556D01*
X46276956Y-79132039D01*
X46276957Y-79132042D01*
X46357386Y-79289890D01*
X46461517Y-79433214D01*
X46586786Y-79558483D01*
X46730110Y-79662614D01*
X46798577Y-79697500D01*
X46887957Y-79743042D01*
X46887960Y-79743043D01*
X46972201Y-79770414D01*
X47056445Y-79797786D01*
X47231421Y-79825500D01*
X47231422Y-79825500D01*
X47408578Y-79825500D01*
X47408579Y-79825500D01*
X47583555Y-79797786D01*
X47752042Y-79743042D01*
X47909890Y-79662614D01*
X48053214Y-79558483D01*
X48178483Y-79433214D01*
X48282614Y-79289890D01*
X48363042Y-79132042D01*
X48417786Y-78963555D01*
X48445500Y-78788579D01*
X48445500Y-78611421D01*
X48436165Y-78552486D01*
X50149500Y-78552486D01*
X50149500Y-78847513D01*
X50164778Y-78963555D01*
X50188007Y-79139993D01*
X50264361Y-79424951D01*
X50264364Y-79424961D01*
X50377254Y-79697500D01*
X50377258Y-79697510D01*
X50524761Y-79952993D01*
X50704352Y-80187040D01*
X50704358Y-80187047D01*
X50912952Y-80395641D01*
X50912959Y-80395647D01*
X51147006Y-80575238D01*
X51402489Y-80722741D01*
X51402490Y-80722741D01*
X51402493Y-80722743D01*
X51675048Y-80835639D01*
X51960007Y-80911993D01*
X52252494Y-80950500D01*
X52252501Y-80950500D01*
X52547499Y-80950500D01*
X52547506Y-80950500D01*
X52839993Y-80911993D01*
X53124952Y-80835639D01*
X53397507Y-80722743D01*
X53652994Y-80575238D01*
X53887042Y-80395646D01*
X54095646Y-80187042D01*
X54275238Y-79952994D01*
X54422743Y-79697507D01*
X54535639Y-79424952D01*
X54611993Y-79139993D01*
X54650500Y-78847506D01*
X54650500Y-78611421D01*
X56354500Y-78611421D01*
X56354500Y-78788578D01*
X56382214Y-78963556D01*
X56436956Y-79132039D01*
X56436957Y-79132042D01*
X56517386Y-79289890D01*
X56621517Y-79433214D01*
X56746786Y-79558483D01*
X56890110Y-79662614D01*
X56958577Y-79697500D01*
X57047957Y-79743042D01*
X57047960Y-79743043D01*
X57132201Y-79770414D01*
X57216445Y-79797786D01*
X57391421Y-79825500D01*
X57391422Y-79825500D01*
X57568578Y-79825500D01*
X57568579Y-79825500D01*
X57743555Y-79797786D01*
X57912042Y-79743042D01*
X58069890Y-79662614D01*
X58213214Y-79558483D01*
X58338483Y-79433214D01*
X58442614Y-79289890D01*
X58523042Y-79132042D01*
X58577786Y-78963555D01*
X58605500Y-78788579D01*
X58605500Y-78611421D01*
X63694500Y-78611421D01*
X63694500Y-78788578D01*
X63722214Y-78963556D01*
X63776956Y-79132039D01*
X63776957Y-79132042D01*
X63857386Y-79289890D01*
X63961517Y-79433214D01*
X64086786Y-79558483D01*
X64230110Y-79662614D01*
X64298577Y-79697500D01*
X64387957Y-79743042D01*
X64387960Y-79743043D01*
X64472201Y-79770414D01*
X64556445Y-79797786D01*
X64731421Y-79825500D01*
X64731422Y-79825500D01*
X64908578Y-79825500D01*
X64908579Y-79825500D01*
X65083555Y-79797786D01*
X65252042Y-79743042D01*
X65409890Y-79662614D01*
X65553214Y-79558483D01*
X65678483Y-79433214D01*
X65782614Y-79289890D01*
X65863042Y-79132042D01*
X65917786Y-78963555D01*
X65945500Y-78788579D01*
X65945500Y-78611421D01*
X65917786Y-78436445D01*
X65863042Y-78267958D01*
X65863042Y-78267957D01*
X65782613Y-78110109D01*
X65678483Y-77966786D01*
X65553214Y-77841517D01*
X65409890Y-77737386D01*
X65252042Y-77656957D01*
X65252039Y-77656956D01*
X65083556Y-77602214D01*
X64996067Y-77588357D01*
X64908579Y-77574500D01*
X64731421Y-77574500D01*
X64673095Y-77583738D01*
X64556443Y-77602214D01*
X64387960Y-77656956D01*
X64387957Y-77656957D01*
X64230109Y-77737386D01*
X64148338Y-77796796D01*
X64086786Y-77841517D01*
X64086784Y-77841519D01*
X64086783Y-77841519D01*
X63961519Y-77966783D01*
X63961519Y-77966784D01*
X63961517Y-77966786D01*
X63916796Y-78028338D01*
X63857386Y-78110109D01*
X63776957Y-78267957D01*
X63776956Y-78267960D01*
X63722214Y-78436443D01*
X63694500Y-78611421D01*
X58605500Y-78611421D01*
X58577786Y-78436445D01*
X58523042Y-78267958D01*
X58523042Y-78267957D01*
X58442613Y-78110109D01*
X58338483Y-77966786D01*
X58213214Y-77841517D01*
X58069890Y-77737386D01*
X57912042Y-77656957D01*
X57912039Y-77656956D01*
X57743556Y-77602214D01*
X57656067Y-77588357D01*
X57568579Y-77574500D01*
X57391421Y-77574500D01*
X57333095Y-77583738D01*
X57216443Y-77602214D01*
X57047960Y-77656956D01*
X57047957Y-77656957D01*
X56890109Y-77737386D01*
X56808338Y-77796796D01*
X56746786Y-77841517D01*
X56746784Y-77841519D01*
X56746783Y-77841519D01*
X56621519Y-77966783D01*
X56621519Y-77966784D01*
X56621517Y-77966786D01*
X56576796Y-78028338D01*
X56517386Y-78110109D01*
X56436957Y-78267957D01*
X56436956Y-78267960D01*
X56382214Y-78436443D01*
X56354500Y-78611421D01*
X54650500Y-78611421D01*
X54650500Y-78552494D01*
X54611993Y-78260007D01*
X54535639Y-77975048D01*
X54422743Y-77702493D01*
X54396453Y-77656958D01*
X54275238Y-77447006D01*
X54095647Y-77212959D01*
X54095641Y-77212952D01*
X53887047Y-77004358D01*
X53887040Y-77004352D01*
X53652993Y-76824761D01*
X53397510Y-76677258D01*
X53397500Y-76677254D01*
X53124961Y-76564364D01*
X53124954Y-76564362D01*
X53124952Y-76564361D01*
X52839993Y-76488007D01*
X52791113Y-76481571D01*
X52547513Y-76449500D01*
X52547506Y-76449500D01*
X52252494Y-76449500D01*
X52252486Y-76449500D01*
X51974085Y-76486153D01*
X51960007Y-76488007D01*
X51675048Y-76564361D01*
X51675038Y-76564364D01*
X51402499Y-76677254D01*
X51402489Y-76677258D01*
X51147006Y-76824761D01*
X50912959Y-77004352D01*
X50912952Y-77004358D01*
X50704358Y-77212952D01*
X50704352Y-77212959D01*
X50524761Y-77447006D01*
X50377258Y-77702489D01*
X50377254Y-77702499D01*
X50264364Y-77975038D01*
X50264361Y-77975048D01*
X50228172Y-78110110D01*
X50188008Y-78260004D01*
X50188006Y-78260015D01*
X50149500Y-78552486D01*
X48436165Y-78552486D01*
X48417786Y-78436445D01*
X48363042Y-78267958D01*
X48363042Y-78267957D01*
X48282613Y-78110109D01*
X48178483Y-77966786D01*
X48053214Y-77841517D01*
X47909890Y-77737386D01*
X47752042Y-77656957D01*
X47752039Y-77656956D01*
X47583556Y-77602214D01*
X47496067Y-77588357D01*
X47408579Y-77574500D01*
X47231421Y-77574500D01*
X47173095Y-77583738D01*
X47056443Y-77602214D01*
X46887960Y-77656956D01*
X46887957Y-77656957D01*
X46730109Y-77737386D01*
X46648338Y-77796796D01*
X46586786Y-77841517D01*
X46586784Y-77841519D01*
X46586783Y-77841519D01*
X46461519Y-77966783D01*
X46461519Y-77966784D01*
X46461517Y-77966786D01*
X46416796Y-78028338D01*
X46357386Y-78110109D01*
X46276957Y-78267957D01*
X46276956Y-78267960D01*
X46222214Y-78436443D01*
X46194500Y-78611421D01*
X43765542Y-78611421D01*
X41314115Y-76159994D01*
X47134529Y-76159994D01*
X47134529Y-76160005D01*
X47154379Y-76399559D01*
X47213389Y-76632589D01*
X47309951Y-76852729D01*
X47409012Y-77004352D01*
X47441429Y-77053969D01*
X47604236Y-77230825D01*
X47604239Y-77230827D01*
X47604242Y-77230830D01*
X47793924Y-77378466D01*
X47793930Y-77378470D01*
X47793933Y-77378472D01*
X48005344Y-77492882D01*
X48005347Y-77492883D01*
X48232699Y-77570933D01*
X48232701Y-77570933D01*
X48232703Y-77570934D01*
X48469808Y-77610500D01*
X48469809Y-77610500D01*
X48710191Y-77610500D01*
X48710192Y-77610500D01*
X48947297Y-77570934D01*
X49174656Y-77492882D01*
X49386067Y-77378472D01*
X49575764Y-77230825D01*
X49738571Y-77053969D01*
X49870049Y-76852728D01*
X49966610Y-76632591D01*
X50025620Y-76399563D01*
X50045471Y-76160000D01*
X50045471Y-76159994D01*
X64634529Y-76159994D01*
X64634529Y-76160005D01*
X64654379Y-76399559D01*
X64713389Y-76632589D01*
X64809951Y-76852729D01*
X64909012Y-77004352D01*
X64941429Y-77053969D01*
X65104236Y-77230825D01*
X65104239Y-77230827D01*
X65104242Y-77230830D01*
X65293924Y-77378466D01*
X65293930Y-77378470D01*
X65293933Y-77378472D01*
X65505344Y-77492882D01*
X65505347Y-77492883D01*
X65732699Y-77570933D01*
X65732701Y-77570933D01*
X65732703Y-77570934D01*
X65969808Y-77610500D01*
X65969809Y-77610500D01*
X66210191Y-77610500D01*
X66210192Y-77610500D01*
X66447297Y-77570934D01*
X66674656Y-77492882D01*
X66886067Y-77378472D01*
X67075764Y-77230825D01*
X67238571Y-77053969D01*
X67370049Y-76852728D01*
X67466610Y-76632591D01*
X67525620Y-76399563D01*
X67545471Y-76160000D01*
X67525620Y-75920437D01*
X67466610Y-75687409D01*
X67370049Y-75467272D01*
X67238571Y-75266031D01*
X67075764Y-75089175D01*
X67075759Y-75089171D01*
X67075757Y-75089169D01*
X66886075Y-74941533D01*
X66886069Y-74941529D01*
X66674657Y-74827118D01*
X66674652Y-74827116D01*
X66447300Y-74749066D01*
X66269468Y-74719391D01*
X66210192Y-74709500D01*
X65969808Y-74709500D01*
X65922387Y-74717413D01*
X65732699Y-74749066D01*
X65505347Y-74827116D01*
X65505342Y-74827118D01*
X65293930Y-74941529D01*
X65293924Y-74941533D01*
X65104242Y-75089169D01*
X65104239Y-75089172D01*
X64941430Y-75266029D01*
X64941427Y-75266033D01*
X64809951Y-75467270D01*
X64713389Y-75687410D01*
X64654379Y-75920440D01*
X64634529Y-76159994D01*
X50045471Y-76159994D01*
X50025620Y-75920437D01*
X49966610Y-75687409D01*
X49870049Y-75467272D01*
X49738571Y-75266031D01*
X49575764Y-75089175D01*
X49575759Y-75089171D01*
X49575757Y-75089169D01*
X49386075Y-74941533D01*
X49386069Y-74941529D01*
X49174657Y-74827118D01*
X49174652Y-74827116D01*
X48947300Y-74749066D01*
X48769468Y-74719391D01*
X48710192Y-74709500D01*
X48469808Y-74709500D01*
X48422387Y-74717413D01*
X48232699Y-74749066D01*
X48005347Y-74827116D01*
X48005342Y-74827118D01*
X47793930Y-74941529D01*
X47793924Y-74941533D01*
X47604242Y-75089169D01*
X47604239Y-75089172D01*
X47441430Y-75266029D01*
X47441427Y-75266033D01*
X47309951Y-75467270D01*
X47213389Y-75687410D01*
X47154379Y-75920440D01*
X47134529Y-76159994D01*
X41314115Y-76159994D01*
X39726819Y-74572698D01*
X39693334Y-74511375D01*
X39690500Y-74485017D01*
X39690500Y-70635949D01*
X39710185Y-70568910D01*
X39762989Y-70523155D01*
X39798315Y-70513010D01*
X39896825Y-70500042D01*
X40042911Y-70439531D01*
X40042912Y-70439531D01*
X40042912Y-70439530D01*
X40042916Y-70439529D01*
X40168367Y-70343267D01*
X40264629Y-70217816D01*
X40325142Y-70071725D01*
X40340600Y-69954311D01*
X40340599Y-68075690D01*
X40340598Y-68075681D01*
X40879400Y-68075681D01*
X40879400Y-69954310D01*
X40894858Y-70071726D01*
X40955368Y-70217811D01*
X40955368Y-70217812D01*
X40955370Y-70217815D01*
X40955371Y-70217816D01*
X41051633Y-70343267D01*
X41177084Y-70439529D01*
X41177087Y-70439530D01*
X41177088Y-70439531D01*
X41250129Y-70469785D01*
X41323175Y-70500042D01*
X41440589Y-70515500D01*
X42319410Y-70515499D01*
X42436825Y-70500042D01*
X42582911Y-70439531D01*
X42582912Y-70439531D01*
X42582912Y-70439530D01*
X42582916Y-70439529D01*
X42708367Y-70343267D01*
X42804629Y-70217816D01*
X42845644Y-70118796D01*
X42889484Y-70064393D01*
X42955778Y-70042328D01*
X43023478Y-70059607D01*
X43047886Y-70078568D01*
X46869788Y-73900470D01*
X46949712Y-73946614D01*
X47038856Y-73970500D01*
X47038857Y-73970500D01*
X47131144Y-73970500D01*
X53435959Y-73970500D01*
X53502998Y-73990185D01*
X53548753Y-74042989D01*
X53556165Y-74064059D01*
X53563390Y-74092591D01*
X53659951Y-74312729D01*
X53789734Y-74511375D01*
X53791429Y-74513969D01*
X53954236Y-74690825D01*
X53954239Y-74690827D01*
X53954242Y-74690830D01*
X54143924Y-74838466D01*
X54143930Y-74838470D01*
X54143933Y-74838472D01*
X54317399Y-74932347D01*
X54334365Y-74941529D01*
X54355344Y-74952882D01*
X54355347Y-74952883D01*
X54582699Y-75030933D01*
X54582701Y-75030933D01*
X54582703Y-75030934D01*
X54819808Y-75070500D01*
X54819809Y-75070500D01*
X55060191Y-75070500D01*
X55060192Y-75070500D01*
X55297297Y-75030934D01*
X55524656Y-74952882D01*
X55736067Y-74838472D01*
X55925764Y-74690825D01*
X56088571Y-74513969D01*
X56220049Y-74312728D01*
X56316610Y-74092591D01*
X56375620Y-73859563D01*
X56395471Y-73620000D01*
X56375620Y-73380437D01*
X56316610Y-73147409D01*
X56220049Y-72927272D01*
X56088571Y-72726031D01*
X55925764Y-72549175D01*
X55925759Y-72549171D01*
X55925757Y-72549169D01*
X55736075Y-72401533D01*
X55736069Y-72401529D01*
X55524657Y-72287118D01*
X55524652Y-72287116D01*
X55297300Y-72209066D01*
X55119468Y-72179391D01*
X55060192Y-72169500D01*
X54819808Y-72169500D01*
X54772387Y-72177413D01*
X54582699Y-72209066D01*
X54355347Y-72287116D01*
X54355342Y-72287118D01*
X54143930Y-72401529D01*
X54143924Y-72401533D01*
X53954242Y-72549169D01*
X53954239Y-72549172D01*
X53791430Y-72726029D01*
X53791427Y-72726033D01*
X53659951Y-72927270D01*
X53563390Y-73147408D01*
X53556165Y-73175941D01*
X53520625Y-73236096D01*
X53458204Y-73267488D01*
X53435959Y-73269500D01*
X47281544Y-73269500D01*
X47214505Y-73249815D01*
X47193863Y-73233181D01*
X42916918Y-68956236D01*
X42883433Y-68894913D01*
X42880599Y-68868555D01*
X42880599Y-68075689D01*
X42878255Y-68057888D01*
X42865142Y-67958275D01*
X42804631Y-67812188D01*
X42804631Y-67812187D01*
X42804629Y-67812184D01*
X42708367Y-67686733D01*
X42582916Y-67590471D01*
X42582913Y-67590470D01*
X42582911Y-67590468D01*
X42436828Y-67529959D01*
X42436826Y-67529958D01*
X42436825Y-67529958D01*
X42319411Y-67514500D01*
X41440589Y-67514500D01*
X41323173Y-67529958D01*
X41177088Y-67590468D01*
X41177087Y-67590468D01*
X41051633Y-67686733D01*
X40955368Y-67812187D01*
X40955368Y-67812188D01*
X40894859Y-67958271D01*
X40894858Y-67958275D01*
X40879400Y-68075681D01*
X40340598Y-68075681D01*
X40325142Y-67958275D01*
X40264631Y-67812188D01*
X40264631Y-67812187D01*
X40264629Y-67812184D01*
X40168367Y-67686733D01*
X40042916Y-67590471D01*
X40042913Y-67590470D01*
X40042911Y-67590468D01*
X39896828Y-67529959D01*
X39896826Y-67529958D01*
X39896825Y-67529958D01*
X39779411Y-67514500D01*
X38900589Y-67514500D01*
X38783173Y-67529958D01*
X38637088Y-67590468D01*
X38637087Y-67590468D01*
X38511633Y-67686733D01*
X38415368Y-67812187D01*
X38415368Y-67812188D01*
X38354859Y-67958271D01*
X38354858Y-67958275D01*
X38339400Y-68075681D01*
X38339400Y-69954310D01*
X38354858Y-70071726D01*
X38415368Y-70217811D01*
X38415368Y-70217812D01*
X38415370Y-70217815D01*
X38415371Y-70217816D01*
X38511633Y-70343267D01*
X38637084Y-70439529D01*
X38637087Y-70439530D01*
X38637088Y-70439531D01*
X38710129Y-70469785D01*
X38783175Y-70500042D01*
X38881685Y-70513011D01*
X38945582Y-70541277D01*
X38984053Y-70599602D01*
X38989500Y-70635950D01*
X38989500Y-74243124D01*
X38969815Y-74310163D01*
X38917011Y-74355918D01*
X38847853Y-74365862D01*
X38784297Y-74336837D01*
X38777819Y-74330805D01*
X37186819Y-72739805D01*
X37153334Y-72678482D01*
X37150500Y-72652124D01*
X37150500Y-70635949D01*
X37170185Y-70568910D01*
X37222989Y-70523155D01*
X37258315Y-70513010D01*
X37356825Y-70500042D01*
X37502911Y-70439531D01*
X37502912Y-70439531D01*
X37502912Y-70439530D01*
X37502916Y-70439529D01*
X37628367Y-70343267D01*
X37724629Y-70217816D01*
X37785142Y-70071725D01*
X37800600Y-69954311D01*
X37800599Y-68075690D01*
X37785142Y-67958275D01*
X37724631Y-67812188D01*
X37724631Y-67812187D01*
X37724629Y-67812184D01*
X37628367Y-67686733D01*
X37502916Y-67590471D01*
X37502913Y-67590470D01*
X37502911Y-67590468D01*
X37356828Y-67529959D01*
X37356826Y-67529958D01*
X37356825Y-67529958D01*
X37239411Y-67514500D01*
X36360589Y-67514500D01*
X36243173Y-67529958D01*
X36097088Y-67590468D01*
X36097087Y-67590468D01*
X35971633Y-67686733D01*
X35875368Y-67812187D01*
X35875368Y-67812188D01*
X35814859Y-67958271D01*
X35814858Y-67958275D01*
X35799400Y-68075681D01*
X35799400Y-69954310D01*
X35814858Y-70071726D01*
X35875368Y-70217811D01*
X35875368Y-70217812D01*
X35875370Y-70217815D01*
X35875371Y-70217816D01*
X35971633Y-70343267D01*
X36097084Y-70439529D01*
X36097087Y-70439530D01*
X36097088Y-70439531D01*
X36170129Y-70469785D01*
X36243175Y-70500042D01*
X36341685Y-70513011D01*
X36405582Y-70541277D01*
X36444053Y-70599602D01*
X36449500Y-70635950D01*
X36449500Y-72410231D01*
X36429815Y-72477270D01*
X36377011Y-72523025D01*
X36307853Y-72532969D01*
X36244297Y-72503944D01*
X36237819Y-72497912D01*
X34646819Y-70906912D01*
X34613334Y-70845589D01*
X34610500Y-70819231D01*
X34610500Y-70635949D01*
X34630185Y-70568910D01*
X34682989Y-70523155D01*
X34718315Y-70513010D01*
X34816825Y-70500042D01*
X34962911Y-70439531D01*
X34962912Y-70439531D01*
X34962912Y-70439530D01*
X34962916Y-70439529D01*
X35088367Y-70343267D01*
X35184629Y-70217816D01*
X35245142Y-70071725D01*
X35260600Y-69954311D01*
X35260599Y-68075690D01*
X35245142Y-67958275D01*
X35184631Y-67812188D01*
X35184631Y-67812187D01*
X35184629Y-67812184D01*
X35088367Y-67686733D01*
X34962916Y-67590471D01*
X34962913Y-67590470D01*
X34962911Y-67590468D01*
X34816828Y-67529959D01*
X34816826Y-67529958D01*
X34816825Y-67529958D01*
X34699411Y-67514500D01*
X33820589Y-67514500D01*
X33703173Y-67529958D01*
X33557088Y-67590468D01*
X33557087Y-67590468D01*
X33431633Y-67686733D01*
X33335368Y-67812187D01*
X33335368Y-67812188D01*
X33274859Y-67958271D01*
X33274858Y-67958275D01*
X33259400Y-68075681D01*
X33259400Y-69927238D01*
X33239715Y-69994277D01*
X33186911Y-70040032D01*
X33117753Y-70049976D01*
X33054197Y-70020951D01*
X33047719Y-70014919D01*
X32756918Y-69724118D01*
X32723433Y-69662795D01*
X32720599Y-69636437D01*
X32720599Y-68075689D01*
X32718255Y-68057888D01*
X32705142Y-67958275D01*
X32644631Y-67812188D01*
X32644631Y-67812187D01*
X32644629Y-67812184D01*
X32548367Y-67686733D01*
X32422916Y-67590471D01*
X32422913Y-67590470D01*
X32422911Y-67590468D01*
X32276828Y-67529959D01*
X32276826Y-67529958D01*
X32276825Y-67529958D01*
X32159411Y-67514500D01*
X31280589Y-67514500D01*
X31163173Y-67529958D01*
X31017088Y-67590468D01*
X31017087Y-67590468D01*
X30891633Y-67686733D01*
X30795368Y-67812187D01*
X30795368Y-67812188D01*
X30734859Y-67958271D01*
X30734858Y-67958275D01*
X30719400Y-68075681D01*
X30180598Y-68075681D01*
X30165142Y-67958275D01*
X30104631Y-67812188D01*
X30104631Y-67812187D01*
X30104629Y-67812184D01*
X30008367Y-67686733D01*
X29882916Y-67590471D01*
X29882913Y-67590470D01*
X29882911Y-67590468D01*
X29736828Y-67529959D01*
X29736826Y-67529958D01*
X29736825Y-67529958D01*
X29619411Y-67514500D01*
X28740589Y-67514500D01*
X28623173Y-67529958D01*
X28477088Y-67590468D01*
X28477087Y-67590468D01*
X28351633Y-67686733D01*
X28255368Y-67812187D01*
X28255368Y-67812188D01*
X28194859Y-67958271D01*
X28194858Y-67958275D01*
X28179400Y-68075681D01*
X27640598Y-68075681D01*
X27625142Y-67958275D01*
X27564631Y-67812188D01*
X27564631Y-67812187D01*
X27564629Y-67812184D01*
X27468367Y-67686733D01*
X27342916Y-67590471D01*
X27342913Y-67590470D01*
X27342911Y-67590468D01*
X27196828Y-67529959D01*
X27196826Y-67529958D01*
X27196825Y-67529958D01*
X27079411Y-67514500D01*
X26200589Y-67514500D01*
X26083173Y-67529958D01*
X25937088Y-67590468D01*
X25937087Y-67590468D01*
X25811633Y-67686733D01*
X25715368Y-67812187D01*
X25715368Y-67812188D01*
X25654859Y-67958271D01*
X25654858Y-67958275D01*
X25639400Y-68075681D01*
X22560598Y-68075681D01*
X22545142Y-67958275D01*
X22484631Y-67812188D01*
X22484631Y-67812187D01*
X22484629Y-67812184D01*
X22388367Y-67686733D01*
X22262916Y-67590471D01*
X22262913Y-67590470D01*
X22262911Y-67590468D01*
X22116828Y-67529959D01*
X22116826Y-67529958D01*
X22116825Y-67529958D01*
X21999411Y-67514500D01*
X21120589Y-67514500D01*
X21003173Y-67529958D01*
X20857088Y-67590468D01*
X20857087Y-67590468D01*
X20731633Y-67686733D01*
X20635368Y-67812187D01*
X20635368Y-67812188D01*
X20574859Y-67958271D01*
X20574858Y-67958275D01*
X20559400Y-68075681D01*
X20063107Y-68075681D01*
X20109024Y-67934361D01*
X20116463Y-67916401D01*
X20214635Y-67723728D01*
X20224793Y-67707151D01*
X20351899Y-67532206D01*
X20364525Y-67517424D01*
X20517424Y-67364525D01*
X20532206Y-67351899D01*
X20707151Y-67224793D01*
X20723728Y-67214635D01*
X20916401Y-67116463D01*
X20934361Y-67109024D01*
X21140013Y-67042204D01*
X21158928Y-67037663D01*
X21373705Y-67003646D01*
X21390654Y-67002144D01*
X21496811Y-67000062D01*
X21498777Y-67000024D01*
X21501208Y-67000000D01*
X39500009Y-67000000D01*
X39575774Y-66998513D01*
X39617871Y-66997688D01*
X39850709Y-66960810D01*
X40074913Y-66887962D01*
X40284960Y-66780938D01*
X40475678Y-66642372D01*
X40642372Y-66475678D01*
X40780938Y-66284960D01*
X40887962Y-66074913D01*
X40947569Y-65891459D01*
X40987006Y-65833785D01*
X41051365Y-65806586D01*
X41120211Y-65818500D01*
X41171687Y-65865744D01*
X41189500Y-65929778D01*
X41189500Y-66307642D01*
X41204795Y-66423818D01*
X41264666Y-66568361D01*
X41264667Y-66568363D01*
X41264668Y-66568364D01*
X41359912Y-66692488D01*
X41484036Y-66787732D01*
X41628583Y-66847605D01*
X41744757Y-66862900D01*
X43635242Y-66862899D01*
X43751417Y-66847605D01*
X43895964Y-66787732D01*
X44020088Y-66692488D01*
X44115332Y-66568364D01*
X44175205Y-66423817D01*
X44190500Y-66307643D01*
X44190499Y-65442358D01*
X44175205Y-65326183D01*
X44115332Y-65181636D01*
X44020088Y-65057512D01*
X43895964Y-64962268D01*
X43895963Y-64962267D01*
X43895961Y-64962266D01*
X43751420Y-64902396D01*
X43751418Y-64902395D01*
X43751417Y-64902395D01*
X43635243Y-64887100D01*
X41744757Y-64887100D01*
X41628581Y-64902395D01*
X41484038Y-64962266D01*
X41359912Y-65057512D01*
X41264667Y-65181637D01*
X41238561Y-65244664D01*
X41194720Y-65299067D01*
X41128426Y-65321132D01*
X41060726Y-65303853D01*
X41013116Y-65252715D01*
X41000000Y-65197211D01*
X41000000Y-64012788D01*
X41019685Y-63945749D01*
X41072489Y-63899994D01*
X41141647Y-63890050D01*
X41205203Y-63919075D01*
X41238561Y-63965336D01*
X41264666Y-64028361D01*
X41264667Y-64028363D01*
X41264668Y-64028364D01*
X41359912Y-64152488D01*
X41484036Y-64247732D01*
X41628583Y-64307605D01*
X41744757Y-64322900D01*
X43635242Y-64322899D01*
X43751417Y-64307605D01*
X43895964Y-64247732D01*
X44020088Y-64152488D01*
X44115332Y-64028364D01*
X44175205Y-63883817D01*
X44190500Y-63767643D01*
X44190499Y-62902358D01*
X44175205Y-62786183D01*
X44115332Y-62641636D01*
X44020088Y-62517512D01*
X43895964Y-62422268D01*
X43895963Y-62422267D01*
X43895961Y-62422266D01*
X43751420Y-62362396D01*
X43751418Y-62362395D01*
X43751417Y-62362395D01*
X43635243Y-62347100D01*
X41744757Y-62347100D01*
X41628581Y-62362395D01*
X41484038Y-62422266D01*
X41359912Y-62517512D01*
X41264667Y-62641637D01*
X41238561Y-62704664D01*
X41194720Y-62759067D01*
X41128426Y-62781132D01*
X41060726Y-62763853D01*
X41013116Y-62712715D01*
X41000000Y-62657211D01*
X41000000Y-61472788D01*
X41019685Y-61405749D01*
X41072489Y-61359994D01*
X41141647Y-61350050D01*
X41205203Y-61379075D01*
X41238561Y-61425336D01*
X41264666Y-61488361D01*
X41264667Y-61488363D01*
X41264668Y-61488364D01*
X41359912Y-61612488D01*
X41484036Y-61707732D01*
X41628583Y-61767605D01*
X41744757Y-61782900D01*
X43635242Y-61782899D01*
X43751417Y-61767605D01*
X43895964Y-61707732D01*
X44020088Y-61612488D01*
X44115332Y-61488364D01*
X44175205Y-61343817D01*
X44190500Y-61227643D01*
X44190500Y-61151421D01*
X46194500Y-61151421D01*
X46194500Y-61328578D01*
X46222214Y-61503556D01*
X46276956Y-61672039D01*
X46276957Y-61672042D01*
X46333443Y-61782900D01*
X46357386Y-61829890D01*
X46461517Y-61973214D01*
X46586786Y-62098483D01*
X46730110Y-62202614D01*
X46798577Y-62237500D01*
X46887957Y-62283042D01*
X46887960Y-62283043D01*
X46972201Y-62310414D01*
X47056445Y-62337786D01*
X47231421Y-62365500D01*
X47231422Y-62365500D01*
X47408578Y-62365500D01*
X47408579Y-62365500D01*
X47583555Y-62337786D01*
X47752042Y-62283042D01*
X47909890Y-62202614D01*
X48053214Y-62098483D01*
X48178483Y-61973214D01*
X48282614Y-61829890D01*
X48363042Y-61672042D01*
X48417786Y-61503555D01*
X48445500Y-61328579D01*
X48445500Y-61151421D01*
X48436165Y-61092486D01*
X50149500Y-61092486D01*
X50149500Y-61387513D01*
X50162778Y-61488364D01*
X50188007Y-61679993D01*
X50264361Y-61964951D01*
X50264364Y-61964961D01*
X50377254Y-62237500D01*
X50377258Y-62237510D01*
X50524761Y-62492993D01*
X50704352Y-62727040D01*
X50704358Y-62727047D01*
X50912952Y-62935641D01*
X50912959Y-62935647D01*
X51147006Y-63115238D01*
X51402489Y-63262741D01*
X51402490Y-63262741D01*
X51402493Y-63262743D01*
X51675048Y-63375639D01*
X51960007Y-63451993D01*
X52252494Y-63490500D01*
X52252501Y-63490500D01*
X52547499Y-63490500D01*
X52547506Y-63490500D01*
X52839993Y-63451993D01*
X53124952Y-63375639D01*
X53397507Y-63262743D01*
X53652994Y-63115238D01*
X53887042Y-62935646D01*
X54095646Y-62727042D01*
X54275238Y-62492994D01*
X54422743Y-62237507D01*
X54535639Y-61964952D01*
X54611993Y-61679993D01*
X54650500Y-61387506D01*
X54650500Y-61151421D01*
X56354500Y-61151421D01*
X56354500Y-61328578D01*
X56382214Y-61503556D01*
X56436956Y-61672039D01*
X56436957Y-61672042D01*
X56493443Y-61782900D01*
X56517386Y-61829890D01*
X56621517Y-61973214D01*
X56746786Y-62098483D01*
X56890110Y-62202614D01*
X56958577Y-62237500D01*
X57047957Y-62283042D01*
X57047960Y-62283043D01*
X57132201Y-62310414D01*
X57216445Y-62337786D01*
X57391421Y-62365500D01*
X57391422Y-62365500D01*
X57568578Y-62365500D01*
X57568579Y-62365500D01*
X57743555Y-62337786D01*
X57912042Y-62283042D01*
X58069890Y-62202614D01*
X58213214Y-62098483D01*
X58338483Y-61973214D01*
X58442614Y-61829890D01*
X58523042Y-61672042D01*
X58577786Y-61503555D01*
X58605500Y-61328579D01*
X58605500Y-61151421D01*
X58577786Y-60976445D01*
X58523042Y-60807958D01*
X58523042Y-60807957D01*
X58442613Y-60650109D01*
X58338483Y-60506786D01*
X58213214Y-60381517D01*
X58069890Y-60277386D01*
X57912042Y-60196957D01*
X57912039Y-60196956D01*
X57743556Y-60142214D01*
X57656067Y-60128357D01*
X57568579Y-60114500D01*
X57391421Y-60114500D01*
X57374305Y-60117211D01*
X57216443Y-60142214D01*
X57047960Y-60196956D01*
X57047957Y-60196957D01*
X56890109Y-60277386D01*
X56808338Y-60336796D01*
X56746786Y-60381517D01*
X56746784Y-60381519D01*
X56746783Y-60381519D01*
X56621519Y-60506783D01*
X56621519Y-60506784D01*
X56621517Y-60506786D01*
X56576796Y-60568338D01*
X56517386Y-60650109D01*
X56436957Y-60807957D01*
X56436956Y-60807960D01*
X56382214Y-60976443D01*
X56354500Y-61151421D01*
X54650500Y-61151421D01*
X54650500Y-61092494D01*
X54611993Y-60800007D01*
X54535639Y-60515048D01*
X54422743Y-60242493D01*
X54421957Y-60241132D01*
X54275238Y-59987006D01*
X54095647Y-59752959D01*
X54095641Y-59752952D01*
X53887047Y-59544358D01*
X53887040Y-59544352D01*
X53652993Y-59364761D01*
X53397510Y-59217258D01*
X53397500Y-59217254D01*
X53124961Y-59104364D01*
X53124954Y-59104362D01*
X53124952Y-59104361D01*
X52839993Y-59028007D01*
X52791113Y-59021571D01*
X52547513Y-58989500D01*
X52547506Y-58989500D01*
X52252494Y-58989500D01*
X52252486Y-58989500D01*
X51974085Y-59026153D01*
X51960007Y-59028007D01*
X51675048Y-59104361D01*
X51675038Y-59104364D01*
X51402499Y-59217254D01*
X51402489Y-59217258D01*
X51147006Y-59364761D01*
X50912959Y-59544352D01*
X50912952Y-59544358D01*
X50704358Y-59752952D01*
X50704352Y-59752959D01*
X50524761Y-59987006D01*
X50377258Y-60242489D01*
X50377254Y-60242499D01*
X50264364Y-60515038D01*
X50264361Y-60515048D01*
X50228172Y-60650110D01*
X50188008Y-60800004D01*
X50188006Y-60800015D01*
X50149500Y-61092486D01*
X48436165Y-61092486D01*
X48417786Y-60976445D01*
X48363042Y-60807958D01*
X48363042Y-60807957D01*
X48282613Y-60650109D01*
X48178483Y-60506786D01*
X48053214Y-60381517D01*
X47909890Y-60277386D01*
X47752042Y-60196957D01*
X47752039Y-60196956D01*
X47583556Y-60142214D01*
X47496067Y-60128357D01*
X47408579Y-60114500D01*
X47231421Y-60114500D01*
X47214305Y-60117211D01*
X47056443Y-60142214D01*
X46887960Y-60196956D01*
X46887957Y-60196957D01*
X46730109Y-60277386D01*
X46648338Y-60336796D01*
X46586786Y-60381517D01*
X46586784Y-60381519D01*
X46586783Y-60381519D01*
X46461519Y-60506783D01*
X46461519Y-60506784D01*
X46461517Y-60506786D01*
X46416796Y-60568338D01*
X46357386Y-60650109D01*
X46276957Y-60807957D01*
X46276956Y-60807960D01*
X46222214Y-60976443D01*
X46194500Y-61151421D01*
X44190500Y-61151421D01*
X44190499Y-60362358D01*
X44175205Y-60246183D01*
X44121783Y-60117211D01*
X44115333Y-60101638D01*
X44115332Y-60101637D01*
X44115332Y-60101636D01*
X44020088Y-59977512D01*
X43895964Y-59882268D01*
X43895963Y-59882267D01*
X43895961Y-59882266D01*
X43751420Y-59822396D01*
X43751418Y-59822395D01*
X43751417Y-59822395D01*
X43635243Y-59807100D01*
X41744757Y-59807100D01*
X41628581Y-59822395D01*
X41484038Y-59882266D01*
X41359912Y-59977512D01*
X41264667Y-60101637D01*
X41238561Y-60164664D01*
X41194720Y-60219067D01*
X41128426Y-60241132D01*
X41060726Y-60223853D01*
X41013116Y-60172715D01*
X41000000Y-60117211D01*
X41000000Y-58932788D01*
X41019685Y-58865749D01*
X41072489Y-58819994D01*
X41141647Y-58810050D01*
X41205203Y-58839075D01*
X41238561Y-58885336D01*
X41264666Y-58948361D01*
X41264667Y-58948363D01*
X41264668Y-58948364D01*
X41359912Y-59072488D01*
X41484036Y-59167732D01*
X41484038Y-59167733D01*
X41484037Y-59167733D01*
X41575184Y-59205486D01*
X41628583Y-59227605D01*
X41744757Y-59242900D01*
X43635242Y-59242899D01*
X43751417Y-59227605D01*
X43863216Y-59181296D01*
X43895962Y-59167733D01*
X43895962Y-59167732D01*
X43895964Y-59167732D01*
X44020088Y-59072488D01*
X44115332Y-58948364D01*
X44175205Y-58803817D01*
X44188874Y-58699994D01*
X47134529Y-58699994D01*
X47134529Y-58700005D01*
X47154379Y-58939559D01*
X47213389Y-59172589D01*
X47309951Y-59392729D01*
X47343912Y-59444709D01*
X47441429Y-59593969D01*
X47604236Y-59770825D01*
X47604239Y-59770827D01*
X47604242Y-59770830D01*
X47793924Y-59918466D01*
X47793930Y-59918470D01*
X47793933Y-59918472D01*
X48005344Y-60032882D01*
X48005347Y-60032883D01*
X48232699Y-60110933D01*
X48232701Y-60110933D01*
X48232703Y-60110934D01*
X48469808Y-60150500D01*
X48469809Y-60150500D01*
X48710191Y-60150500D01*
X48710192Y-60150500D01*
X48947297Y-60110934D01*
X49174656Y-60032882D01*
X49386067Y-59918472D01*
X49575764Y-59770825D01*
X49738571Y-59593969D01*
X49870049Y-59392728D01*
X49966610Y-59172591D01*
X50025620Y-58939563D01*
X50045471Y-58700000D01*
X50044447Y-58687643D01*
X50025620Y-58460440D01*
X50025620Y-58460437D01*
X49966610Y-58227409D01*
X49870049Y-58007272D01*
X49738571Y-57806031D01*
X49575764Y-57629175D01*
X49575759Y-57629171D01*
X49575757Y-57629169D01*
X49386075Y-57481533D01*
X49386069Y-57481529D01*
X49174657Y-57367118D01*
X49174652Y-57367116D01*
X48947300Y-57289066D01*
X48769468Y-57259391D01*
X48710192Y-57249500D01*
X48469808Y-57249500D01*
X48422387Y-57257413D01*
X48232699Y-57289066D01*
X48005347Y-57367116D01*
X48005342Y-57367118D01*
X47793930Y-57481529D01*
X47793924Y-57481533D01*
X47604242Y-57629169D01*
X47604239Y-57629172D01*
X47441430Y-57806029D01*
X47441427Y-57806033D01*
X47309951Y-58007270D01*
X47213389Y-58227410D01*
X47154379Y-58460440D01*
X47134529Y-58699994D01*
X44188874Y-58699994D01*
X44190500Y-58687643D01*
X44190499Y-57822358D01*
X44175205Y-57706183D01*
X44115332Y-57561636D01*
X44020088Y-57437512D01*
X43895964Y-57342268D01*
X43895963Y-57342267D01*
X43895961Y-57342266D01*
X43751420Y-57282396D01*
X43751418Y-57282395D01*
X43751417Y-57282395D01*
X43635243Y-57267100D01*
X41744757Y-57267100D01*
X41628581Y-57282395D01*
X41484038Y-57342266D01*
X41359912Y-57437512D01*
X41264667Y-57561637D01*
X41238561Y-57624664D01*
X41194720Y-57679067D01*
X41128426Y-57701132D01*
X41060726Y-57683853D01*
X41013116Y-57632715D01*
X41000000Y-57577211D01*
X41000000Y-56400344D01*
X41019685Y-56333305D01*
X41072489Y-56287550D01*
X41141647Y-56277606D01*
X41205203Y-56306631D01*
X41238560Y-56352890D01*
X41265464Y-56417841D01*
X41361718Y-56543282D01*
X41487159Y-56639536D01*
X41633238Y-56700044D01*
X41750639Y-56715500D01*
X43629360Y-56715499D01*
X43629363Y-56715499D01*
X43746753Y-56700046D01*
X43746757Y-56700044D01*
X43746762Y-56700044D01*
X43892841Y-56639536D01*
X44018282Y-56543282D01*
X44114536Y-56417841D01*
X44175044Y-56271762D01*
X44189758Y-56159994D01*
X53484529Y-56159994D01*
X53484529Y-56160005D01*
X53504379Y-56399559D01*
X53563389Y-56632589D01*
X53659951Y-56852729D01*
X53791427Y-57053966D01*
X53791429Y-57053969D01*
X53954236Y-57230825D01*
X53954239Y-57230827D01*
X53954242Y-57230830D01*
X54143924Y-57378466D01*
X54143930Y-57378470D01*
X54143933Y-57378472D01*
X54317399Y-57472347D01*
X54334365Y-57481529D01*
X54355344Y-57492882D01*
X54355347Y-57492883D01*
X54582699Y-57570933D01*
X54582701Y-57570933D01*
X54582703Y-57570934D01*
X54819808Y-57610500D01*
X54819809Y-57610500D01*
X55060191Y-57610500D01*
X55060192Y-57610500D01*
X55297297Y-57570934D01*
X55524656Y-57492882D01*
X55736067Y-57378472D01*
X55925764Y-57230825D01*
X56088571Y-57053969D01*
X56220049Y-56852728D01*
X56316610Y-56632591D01*
X56375620Y-56399563D01*
X56395471Y-56160000D01*
X56375620Y-55920437D01*
X56316610Y-55687409D01*
X56220049Y-55467272D01*
X56088571Y-55266031D01*
X55925764Y-55089175D01*
X55925759Y-55089171D01*
X55925757Y-55089169D01*
X55736075Y-54941533D01*
X55736069Y-54941529D01*
X55524657Y-54827118D01*
X55524652Y-54827116D01*
X55297300Y-54749066D01*
X55090155Y-54714500D01*
X55060192Y-54709500D01*
X54819808Y-54709500D01*
X54789845Y-54714500D01*
X54582699Y-54749066D01*
X54355347Y-54827116D01*
X54355342Y-54827118D01*
X54143930Y-54941529D01*
X54143924Y-54941533D01*
X53954242Y-55089169D01*
X53954239Y-55089172D01*
X53791430Y-55266029D01*
X53791427Y-55266033D01*
X53659951Y-55467270D01*
X53563389Y-55687410D01*
X53504379Y-55920440D01*
X53484529Y-56159994D01*
X44189758Y-56159994D01*
X44190500Y-56154361D01*
X44190499Y-55275640D01*
X44190499Y-55275638D01*
X44190499Y-55275636D01*
X44175046Y-55158246D01*
X44175044Y-55158239D01*
X44175044Y-55158238D01*
X44114536Y-55012159D01*
X44018282Y-54886718D01*
X43892841Y-54790464D01*
X43746762Y-54729956D01*
X43746760Y-54729955D01*
X43629370Y-54714501D01*
X43629367Y-54714500D01*
X43629361Y-54714500D01*
X43629354Y-54714500D01*
X41750636Y-54714500D01*
X41633246Y-54729953D01*
X41633237Y-54729956D01*
X41487160Y-54790463D01*
X41361718Y-54886718D01*
X41265463Y-55012160D01*
X41204956Y-55158237D01*
X41204955Y-55158239D01*
X41189500Y-55275638D01*
X41189500Y-55320220D01*
X41169815Y-55387259D01*
X41117011Y-55433014D01*
X41047853Y-55442958D01*
X40984297Y-55413933D01*
X40947569Y-55358538D01*
X40887963Y-55175089D01*
X40887961Y-55175086D01*
X40879378Y-55158239D01*
X40780938Y-54965040D01*
X40642372Y-54774322D01*
X40475678Y-54607628D01*
X40284960Y-54469062D01*
X40074913Y-54362038D01*
X40074910Y-54362036D01*
X39883172Y-54299737D01*
X39825496Y-54260299D01*
X39798298Y-54195941D01*
X39810213Y-54127094D01*
X39857457Y-54075619D01*
X39889404Y-54062029D01*
X39896816Y-54060043D01*
X39896825Y-54060042D01*
X40042911Y-53999531D01*
X40042912Y-53999531D01*
X40042912Y-53999530D01*
X40042916Y-53999529D01*
X40168367Y-53903267D01*
X40264629Y-53777816D01*
X40325142Y-53631725D01*
X40340600Y-53514311D01*
X40340599Y-51635690D01*
X40340598Y-51635681D01*
X40879400Y-51635681D01*
X40879400Y-53514310D01*
X40894858Y-53631726D01*
X40955368Y-53777811D01*
X40955368Y-53777812D01*
X40955370Y-53777815D01*
X40955371Y-53777816D01*
X41051633Y-53903267D01*
X41177084Y-53999529D01*
X41177087Y-53999530D01*
X41177088Y-53999531D01*
X41205837Y-54011439D01*
X41323175Y-54060042D01*
X41440589Y-54075500D01*
X42319410Y-54075499D01*
X42436825Y-54060042D01*
X42582911Y-53999531D01*
X42582912Y-53999531D01*
X42582912Y-53999530D01*
X42582916Y-53999529D01*
X42708367Y-53903267D01*
X42804629Y-53777816D01*
X42865142Y-53631725D01*
X42865143Y-53631716D01*
X42867245Y-53623875D01*
X42868909Y-53624320D01*
X42893205Y-53569411D01*
X42951532Y-53530944D01*
X42987872Y-53525500D01*
X54978456Y-53525500D01*
X55045495Y-53545185D01*
X55066137Y-53561819D01*
X61193181Y-59688863D01*
X61226666Y-59750186D01*
X61229500Y-59776544D01*
X61229500Y-63590883D01*
X61209815Y-63657922D01*
X61180987Y-63689258D01*
X61151721Y-63711714D01*
X61055463Y-63837160D01*
X60994956Y-63983237D01*
X60994955Y-63983239D01*
X60974318Y-64139998D01*
X60974318Y-64140001D01*
X60994955Y-64296760D01*
X60994956Y-64296762D01*
X61055464Y-64442841D01*
X61151718Y-64568282D01*
X61277159Y-64664536D01*
X61423238Y-64725044D01*
X61501619Y-64735363D01*
X61579999Y-64745682D01*
X61580000Y-64745682D01*
X61580001Y-64745682D01*
X61632254Y-64738802D01*
X61736762Y-64725044D01*
X61882841Y-64664536D01*
X62008282Y-64568282D01*
X62030741Y-64539011D01*
X62087168Y-64497811D01*
X62129116Y-64490500D01*
X78630884Y-64490500D01*
X78697923Y-64510185D01*
X78729257Y-64539010D01*
X78751718Y-64568282D01*
X78877159Y-64664536D01*
X79023238Y-64725044D01*
X79101619Y-64735363D01*
X79179999Y-64745682D01*
X79180000Y-64745682D01*
X79180001Y-64745682D01*
X79232254Y-64738802D01*
X79336762Y-64725044D01*
X79482841Y-64664536D01*
X79608282Y-64568282D01*
X79630741Y-64539011D01*
X79687168Y-64497811D01*
X79729116Y-64490500D01*
X96030884Y-64490500D01*
X96097923Y-64510185D01*
X96129257Y-64539010D01*
X96151718Y-64568282D01*
X96277159Y-64664536D01*
X96423238Y-64725044D01*
X96501619Y-64735363D01*
X96579999Y-64745682D01*
X96580000Y-64745682D01*
X96580001Y-64745682D01*
X96632254Y-64738802D01*
X96736762Y-64725044D01*
X96882841Y-64664536D01*
X97008282Y-64568282D01*
X97030741Y-64539011D01*
X97087168Y-64497811D01*
X97129116Y-64490500D01*
X113630884Y-64490500D01*
X113697923Y-64510185D01*
X113729257Y-64539010D01*
X113751718Y-64568282D01*
X113877159Y-64664536D01*
X114023238Y-64725044D01*
X114101619Y-64735363D01*
X114179999Y-64745682D01*
X114180000Y-64745682D01*
X114180001Y-64745682D01*
X114232254Y-64738802D01*
X114336762Y-64725044D01*
X114482841Y-64664536D01*
X114608282Y-64568282D01*
X114704536Y-64442841D01*
X114765044Y-64296762D01*
X114785682Y-64140000D01*
X114765044Y-63983238D01*
X114704536Y-63837159D01*
X114608282Y-63711718D01*
X114482841Y-63615464D01*
X114423497Y-63590883D01*
X114336762Y-63554956D01*
X114336760Y-63554955D01*
X114180001Y-63534318D01*
X114179999Y-63534318D01*
X114023239Y-63554955D01*
X114023237Y-63554956D01*
X113877160Y-63615463D01*
X113751723Y-63711714D01*
X113751718Y-63711718D01*
X113729258Y-63740988D01*
X113672832Y-63782189D01*
X113630884Y-63789500D01*
X97129116Y-63789500D01*
X97062077Y-63769815D01*
X97030742Y-63740989D01*
X97008282Y-63711718D01*
X96882841Y-63615464D01*
X96823497Y-63590883D01*
X96736762Y-63554956D01*
X96736760Y-63554955D01*
X96580001Y-63534318D01*
X96579999Y-63534318D01*
X96423239Y-63554955D01*
X96423237Y-63554956D01*
X96277160Y-63615463D01*
X96151723Y-63711714D01*
X96151718Y-63711718D01*
X96129258Y-63740988D01*
X96072832Y-63782189D01*
X96030884Y-63789500D01*
X79729116Y-63789500D01*
X79662077Y-63769815D01*
X79630742Y-63740989D01*
X79608282Y-63711718D01*
X79482841Y-63615464D01*
X79423497Y-63590883D01*
X79336762Y-63554956D01*
X79336760Y-63554955D01*
X79180001Y-63534318D01*
X79179999Y-63534318D01*
X79023239Y-63554955D01*
X79023237Y-63554956D01*
X78877160Y-63615463D01*
X78751723Y-63711714D01*
X78751718Y-63711718D01*
X78729258Y-63740988D01*
X78672832Y-63782189D01*
X78630884Y-63789500D01*
X62129116Y-63789500D01*
X62062077Y-63769815D01*
X62030742Y-63740989D01*
X62008282Y-63711718D01*
X62008279Y-63711716D01*
X62008278Y-63711714D01*
X61979013Y-63689258D01*
X61937811Y-63632830D01*
X61930500Y-63590883D01*
X61930500Y-61151421D01*
X63694500Y-61151421D01*
X63694500Y-61328578D01*
X63722214Y-61503556D01*
X63776956Y-61672039D01*
X63776957Y-61672042D01*
X63833443Y-61782900D01*
X63857386Y-61829890D01*
X63961517Y-61973214D01*
X64086786Y-62098483D01*
X64230110Y-62202614D01*
X64298577Y-62237500D01*
X64387957Y-62283042D01*
X64387960Y-62283043D01*
X64472201Y-62310414D01*
X64556445Y-62337786D01*
X64731421Y-62365500D01*
X64731422Y-62365500D01*
X64908578Y-62365500D01*
X64908579Y-62365500D01*
X65083555Y-62337786D01*
X65252042Y-62283042D01*
X65409890Y-62202614D01*
X65553214Y-62098483D01*
X65678483Y-61973214D01*
X65782614Y-61829890D01*
X65863042Y-61672042D01*
X65917786Y-61503555D01*
X65945500Y-61328579D01*
X65945500Y-61151421D01*
X65936165Y-61092486D01*
X67649500Y-61092486D01*
X67649500Y-61387513D01*
X67662778Y-61488364D01*
X67688007Y-61679993D01*
X67764361Y-61964951D01*
X67764364Y-61964961D01*
X67877254Y-62237500D01*
X67877258Y-62237510D01*
X68024761Y-62492993D01*
X68204352Y-62727040D01*
X68204358Y-62727047D01*
X68412952Y-62935641D01*
X68412959Y-62935647D01*
X68647006Y-63115238D01*
X68902489Y-63262741D01*
X68902490Y-63262741D01*
X68902493Y-63262743D01*
X69175048Y-63375639D01*
X69460007Y-63451993D01*
X69752494Y-63490500D01*
X69752501Y-63490500D01*
X70047499Y-63490500D01*
X70047506Y-63490500D01*
X70339993Y-63451993D01*
X70624952Y-63375639D01*
X70897507Y-63262743D01*
X71152994Y-63115238D01*
X71387042Y-62935646D01*
X71595646Y-62727042D01*
X71775238Y-62492994D01*
X71922743Y-62237507D01*
X72035639Y-61964952D01*
X72111993Y-61679993D01*
X72150500Y-61387506D01*
X72150500Y-61151421D01*
X73854500Y-61151421D01*
X73854500Y-61328578D01*
X73882214Y-61503556D01*
X73936956Y-61672039D01*
X73936957Y-61672042D01*
X73993443Y-61782900D01*
X74017386Y-61829890D01*
X74121517Y-61973214D01*
X74246786Y-62098483D01*
X74390110Y-62202614D01*
X74458577Y-62237500D01*
X74547957Y-62283042D01*
X74547960Y-62283043D01*
X74632201Y-62310414D01*
X74716445Y-62337786D01*
X74891421Y-62365500D01*
X74891422Y-62365500D01*
X75068578Y-62365500D01*
X75068579Y-62365500D01*
X75243555Y-62337786D01*
X75412042Y-62283042D01*
X75569890Y-62202614D01*
X75713214Y-62098483D01*
X75838483Y-61973214D01*
X75942614Y-61829890D01*
X76023042Y-61672042D01*
X76077786Y-61503555D01*
X76105500Y-61328579D01*
X76105500Y-61151421D01*
X81194500Y-61151421D01*
X81194500Y-61328578D01*
X81222214Y-61503556D01*
X81276956Y-61672039D01*
X81276957Y-61672042D01*
X81333443Y-61782900D01*
X81357386Y-61829890D01*
X81461517Y-61973214D01*
X81586786Y-62098483D01*
X81730110Y-62202614D01*
X81798577Y-62237500D01*
X81887957Y-62283042D01*
X81887960Y-62283043D01*
X81972201Y-62310414D01*
X82056445Y-62337786D01*
X82231421Y-62365500D01*
X82231422Y-62365500D01*
X82408578Y-62365500D01*
X82408579Y-62365500D01*
X82583555Y-62337786D01*
X82752042Y-62283042D01*
X82909890Y-62202614D01*
X83053214Y-62098483D01*
X83178483Y-61973214D01*
X83282614Y-61829890D01*
X83363042Y-61672042D01*
X83417786Y-61503555D01*
X83445500Y-61328579D01*
X83445500Y-61151421D01*
X83436165Y-61092486D01*
X85149500Y-61092486D01*
X85149500Y-61387513D01*
X85162778Y-61488364D01*
X85188007Y-61679993D01*
X85264361Y-61964951D01*
X85264364Y-61964961D01*
X85377254Y-62237500D01*
X85377258Y-62237510D01*
X85524761Y-62492993D01*
X85704352Y-62727040D01*
X85704358Y-62727047D01*
X85912952Y-62935641D01*
X85912959Y-62935647D01*
X86147006Y-63115238D01*
X86402489Y-63262741D01*
X86402490Y-63262741D01*
X86402493Y-63262743D01*
X86675048Y-63375639D01*
X86960007Y-63451993D01*
X87252494Y-63490500D01*
X87252501Y-63490500D01*
X87547499Y-63490500D01*
X87547506Y-63490500D01*
X87839993Y-63451993D01*
X88124952Y-63375639D01*
X88397507Y-63262743D01*
X88652994Y-63115238D01*
X88887042Y-62935646D01*
X89095646Y-62727042D01*
X89275238Y-62492994D01*
X89422743Y-62237507D01*
X89535639Y-61964952D01*
X89611993Y-61679993D01*
X89650500Y-61387506D01*
X89650500Y-61151421D01*
X91354500Y-61151421D01*
X91354500Y-61328578D01*
X91382214Y-61503556D01*
X91436956Y-61672039D01*
X91436957Y-61672042D01*
X91493443Y-61782900D01*
X91517386Y-61829890D01*
X91621517Y-61973214D01*
X91746786Y-62098483D01*
X91890110Y-62202614D01*
X91958577Y-62237500D01*
X92047957Y-62283042D01*
X92047960Y-62283043D01*
X92132201Y-62310414D01*
X92216445Y-62337786D01*
X92391421Y-62365500D01*
X92391422Y-62365500D01*
X92568578Y-62365500D01*
X92568579Y-62365500D01*
X92743555Y-62337786D01*
X92912042Y-62283042D01*
X93069890Y-62202614D01*
X93213214Y-62098483D01*
X93338483Y-61973214D01*
X93442614Y-61829890D01*
X93523042Y-61672042D01*
X93577786Y-61503555D01*
X93605500Y-61328579D01*
X93605500Y-61151421D01*
X98694500Y-61151421D01*
X98694500Y-61328578D01*
X98722214Y-61503556D01*
X98776956Y-61672039D01*
X98776957Y-61672042D01*
X98833443Y-61782900D01*
X98857386Y-61829890D01*
X98961517Y-61973214D01*
X99086786Y-62098483D01*
X99230110Y-62202614D01*
X99298577Y-62237500D01*
X99387957Y-62283042D01*
X99387960Y-62283043D01*
X99472201Y-62310414D01*
X99556445Y-62337786D01*
X99731421Y-62365500D01*
X99731422Y-62365500D01*
X99908578Y-62365500D01*
X99908579Y-62365500D01*
X100083555Y-62337786D01*
X100252042Y-62283042D01*
X100409890Y-62202614D01*
X100553214Y-62098483D01*
X100678483Y-61973214D01*
X100782614Y-61829890D01*
X100863042Y-61672042D01*
X100917786Y-61503555D01*
X100945500Y-61328579D01*
X100945500Y-61151421D01*
X100936165Y-61092486D01*
X102649500Y-61092486D01*
X102649500Y-61387513D01*
X102662778Y-61488364D01*
X102688007Y-61679993D01*
X102764361Y-61964951D01*
X102764364Y-61964961D01*
X102877254Y-62237500D01*
X102877258Y-62237510D01*
X103024761Y-62492993D01*
X103204352Y-62727040D01*
X103204358Y-62727047D01*
X103412952Y-62935641D01*
X103412959Y-62935647D01*
X103647006Y-63115238D01*
X103902489Y-63262741D01*
X103902490Y-63262741D01*
X103902493Y-63262743D01*
X104175048Y-63375639D01*
X104460007Y-63451993D01*
X104752494Y-63490500D01*
X104752501Y-63490500D01*
X105047499Y-63490500D01*
X105047506Y-63490500D01*
X105339993Y-63451993D01*
X105624952Y-63375639D01*
X105897507Y-63262743D01*
X106152994Y-63115238D01*
X106387042Y-62935646D01*
X106595646Y-62727042D01*
X106775238Y-62492994D01*
X106922743Y-62237507D01*
X107035639Y-61964952D01*
X107111993Y-61679993D01*
X107150500Y-61387506D01*
X107150500Y-61151421D01*
X108854500Y-61151421D01*
X108854500Y-61328578D01*
X108882214Y-61503556D01*
X108936956Y-61672039D01*
X108936957Y-61672042D01*
X108993443Y-61782900D01*
X109017386Y-61829890D01*
X109121517Y-61973214D01*
X109246786Y-62098483D01*
X109390110Y-62202614D01*
X109458577Y-62237500D01*
X109547957Y-62283042D01*
X109547960Y-62283043D01*
X109632201Y-62310414D01*
X109716445Y-62337786D01*
X109891421Y-62365500D01*
X109891422Y-62365500D01*
X110068578Y-62365500D01*
X110068579Y-62365500D01*
X110243555Y-62337786D01*
X110412042Y-62283042D01*
X110569890Y-62202614D01*
X110713214Y-62098483D01*
X110838483Y-61973214D01*
X110942614Y-61829890D01*
X111023042Y-61672042D01*
X111077786Y-61503555D01*
X111105500Y-61328579D01*
X111105500Y-61151421D01*
X116194500Y-61151421D01*
X116194500Y-61328578D01*
X116222214Y-61503556D01*
X116276956Y-61672039D01*
X116276957Y-61672042D01*
X116333443Y-61782900D01*
X116357386Y-61829890D01*
X116461517Y-61973214D01*
X116586786Y-62098483D01*
X116730110Y-62202614D01*
X116798577Y-62237500D01*
X116887957Y-62283042D01*
X116887960Y-62283043D01*
X116972201Y-62310414D01*
X117056445Y-62337786D01*
X117231421Y-62365500D01*
X117231422Y-62365500D01*
X117408578Y-62365500D01*
X117408579Y-62365500D01*
X117583555Y-62337786D01*
X117752042Y-62283042D01*
X117909890Y-62202614D01*
X118053214Y-62098483D01*
X118178483Y-61973214D01*
X118282614Y-61829890D01*
X118363042Y-61672042D01*
X118417786Y-61503555D01*
X118445500Y-61328579D01*
X118445500Y-61151421D01*
X118436165Y-61092486D01*
X120149500Y-61092486D01*
X120149500Y-61387513D01*
X120162778Y-61488364D01*
X120188007Y-61679993D01*
X120264361Y-61964951D01*
X120264364Y-61964961D01*
X120377254Y-62237500D01*
X120377258Y-62237510D01*
X120524761Y-62492993D01*
X120704352Y-62727040D01*
X120704358Y-62727047D01*
X120912952Y-62935641D01*
X120912959Y-62935647D01*
X121147006Y-63115238D01*
X121402489Y-63262741D01*
X121402490Y-63262741D01*
X121402493Y-63262743D01*
X121675048Y-63375639D01*
X121960007Y-63451993D01*
X122252494Y-63490500D01*
X122252501Y-63490500D01*
X122547499Y-63490500D01*
X122547506Y-63490500D01*
X122839993Y-63451993D01*
X123124952Y-63375639D01*
X123397507Y-63262743D01*
X123652994Y-63115238D01*
X123887042Y-62935646D01*
X124095646Y-62727042D01*
X124275238Y-62492994D01*
X124422743Y-62237507D01*
X124535639Y-61964952D01*
X124611993Y-61679993D01*
X124650500Y-61387506D01*
X124650500Y-61151421D01*
X126354500Y-61151421D01*
X126354500Y-61328578D01*
X126382214Y-61503556D01*
X126436956Y-61672039D01*
X126436957Y-61672042D01*
X126493443Y-61782900D01*
X126517386Y-61829890D01*
X126621517Y-61973214D01*
X126746786Y-62098483D01*
X126890110Y-62202614D01*
X126958577Y-62237500D01*
X127047957Y-62283042D01*
X127047960Y-62283043D01*
X127132201Y-62310414D01*
X127216445Y-62337786D01*
X127391421Y-62365500D01*
X127391422Y-62365500D01*
X127568578Y-62365500D01*
X127568579Y-62365500D01*
X127743555Y-62337786D01*
X127912042Y-62283042D01*
X128069890Y-62202614D01*
X128213214Y-62098483D01*
X128338483Y-61973214D01*
X128442614Y-61829890D01*
X128523042Y-61672042D01*
X128577786Y-61503555D01*
X128605500Y-61328579D01*
X128605500Y-61151421D01*
X128577786Y-60976445D01*
X128523042Y-60807958D01*
X128523042Y-60807957D01*
X128442613Y-60650109D01*
X128338483Y-60506786D01*
X128213214Y-60381517D01*
X128069890Y-60277386D01*
X127912042Y-60196957D01*
X127912039Y-60196956D01*
X127743556Y-60142214D01*
X127656067Y-60128357D01*
X127568579Y-60114500D01*
X127391421Y-60114500D01*
X127374305Y-60117211D01*
X127216443Y-60142214D01*
X127047960Y-60196956D01*
X127047957Y-60196957D01*
X126890109Y-60277386D01*
X126808338Y-60336796D01*
X126746786Y-60381517D01*
X126746784Y-60381519D01*
X126746783Y-60381519D01*
X126621519Y-60506783D01*
X126621519Y-60506784D01*
X126621517Y-60506786D01*
X126576796Y-60568338D01*
X126517386Y-60650109D01*
X126436957Y-60807957D01*
X126436956Y-60807960D01*
X126382214Y-60976443D01*
X126354500Y-61151421D01*
X124650500Y-61151421D01*
X124650500Y-61092494D01*
X124611993Y-60800007D01*
X124535639Y-60515048D01*
X124422743Y-60242493D01*
X124421957Y-60241132D01*
X124275238Y-59987006D01*
X124095647Y-59752959D01*
X124095641Y-59752952D01*
X123887047Y-59544358D01*
X123887040Y-59544352D01*
X123652993Y-59364761D01*
X123397510Y-59217258D01*
X123397500Y-59217254D01*
X123124961Y-59104364D01*
X123124954Y-59104362D01*
X123124952Y-59104361D01*
X122839993Y-59028007D01*
X122791113Y-59021571D01*
X122547513Y-58989500D01*
X122547506Y-58989500D01*
X122252494Y-58989500D01*
X122252486Y-58989500D01*
X121974085Y-59026153D01*
X121960007Y-59028007D01*
X121675048Y-59104361D01*
X121675038Y-59104364D01*
X121402499Y-59217254D01*
X121402489Y-59217258D01*
X121147006Y-59364761D01*
X120912959Y-59544352D01*
X120912952Y-59544358D01*
X120704358Y-59752952D01*
X120704352Y-59752959D01*
X120524761Y-59987006D01*
X120377258Y-60242489D01*
X120377254Y-60242499D01*
X120264364Y-60515038D01*
X120264361Y-60515048D01*
X120228172Y-60650110D01*
X120188008Y-60800004D01*
X120188006Y-60800015D01*
X120149500Y-61092486D01*
X118436165Y-61092486D01*
X118417786Y-60976445D01*
X118363042Y-60807958D01*
X118363042Y-60807957D01*
X118282613Y-60650109D01*
X118178483Y-60506786D01*
X118053214Y-60381517D01*
X117909890Y-60277386D01*
X117752042Y-60196957D01*
X117752039Y-60196956D01*
X117583556Y-60142214D01*
X117496067Y-60128357D01*
X117408579Y-60114500D01*
X117231421Y-60114500D01*
X117214305Y-60117211D01*
X117056443Y-60142214D01*
X116887960Y-60196956D01*
X116887957Y-60196957D01*
X116730109Y-60277386D01*
X116648338Y-60336796D01*
X116586786Y-60381517D01*
X116586784Y-60381519D01*
X116586783Y-60381519D01*
X116461519Y-60506783D01*
X116461519Y-60506784D01*
X116461517Y-60506786D01*
X116416796Y-60568338D01*
X116357386Y-60650109D01*
X116276957Y-60807957D01*
X116276956Y-60807960D01*
X116222214Y-60976443D01*
X116194500Y-61151421D01*
X111105500Y-61151421D01*
X111077786Y-60976445D01*
X111023042Y-60807958D01*
X111023042Y-60807957D01*
X110942613Y-60650109D01*
X110838483Y-60506786D01*
X110713214Y-60381517D01*
X110569890Y-60277386D01*
X110412042Y-60196957D01*
X110412039Y-60196956D01*
X110243556Y-60142214D01*
X110156067Y-60128357D01*
X110068579Y-60114500D01*
X109891421Y-60114500D01*
X109874305Y-60117211D01*
X109716443Y-60142214D01*
X109547960Y-60196956D01*
X109547957Y-60196957D01*
X109390109Y-60277386D01*
X109308338Y-60336796D01*
X109246786Y-60381517D01*
X109246784Y-60381519D01*
X109246783Y-60381519D01*
X109121519Y-60506783D01*
X109121519Y-60506784D01*
X109121517Y-60506786D01*
X109076796Y-60568338D01*
X109017386Y-60650109D01*
X108936957Y-60807957D01*
X108936956Y-60807960D01*
X108882214Y-60976443D01*
X108854500Y-61151421D01*
X107150500Y-61151421D01*
X107150500Y-61092494D01*
X107111993Y-60800007D01*
X107035639Y-60515048D01*
X106922743Y-60242493D01*
X106921957Y-60241132D01*
X106775238Y-59987006D01*
X106595647Y-59752959D01*
X106595641Y-59752952D01*
X106387047Y-59544358D01*
X106387040Y-59544352D01*
X106152993Y-59364761D01*
X105897510Y-59217258D01*
X105897500Y-59217254D01*
X105624961Y-59104364D01*
X105624954Y-59104362D01*
X105624952Y-59104361D01*
X105339993Y-59028007D01*
X105291113Y-59021571D01*
X105047513Y-58989500D01*
X105047506Y-58989500D01*
X104752494Y-58989500D01*
X104752486Y-58989500D01*
X104474085Y-59026153D01*
X104460007Y-59028007D01*
X104175048Y-59104361D01*
X104175038Y-59104364D01*
X103902499Y-59217254D01*
X103902489Y-59217258D01*
X103647006Y-59364761D01*
X103412959Y-59544352D01*
X103412952Y-59544358D01*
X103204358Y-59752952D01*
X103204352Y-59752959D01*
X103024761Y-59987006D01*
X102877258Y-60242489D01*
X102877254Y-60242499D01*
X102764364Y-60515038D01*
X102764361Y-60515048D01*
X102728172Y-60650110D01*
X102688008Y-60800004D01*
X102688006Y-60800015D01*
X102649500Y-61092486D01*
X100936165Y-61092486D01*
X100917786Y-60976445D01*
X100863042Y-60807958D01*
X100863042Y-60807957D01*
X100782613Y-60650109D01*
X100678483Y-60506786D01*
X100553214Y-60381517D01*
X100409890Y-60277386D01*
X100252042Y-60196957D01*
X100252039Y-60196956D01*
X100083556Y-60142214D01*
X99996067Y-60128357D01*
X99908579Y-60114500D01*
X99731421Y-60114500D01*
X99714305Y-60117211D01*
X99556443Y-60142214D01*
X99387960Y-60196956D01*
X99387957Y-60196957D01*
X99230109Y-60277386D01*
X99148338Y-60336796D01*
X99086786Y-60381517D01*
X99086784Y-60381519D01*
X99086783Y-60381519D01*
X98961519Y-60506783D01*
X98961519Y-60506784D01*
X98961517Y-60506786D01*
X98916796Y-60568338D01*
X98857386Y-60650109D01*
X98776957Y-60807957D01*
X98776956Y-60807960D01*
X98722214Y-60976443D01*
X98694500Y-61151421D01*
X93605500Y-61151421D01*
X93577786Y-60976445D01*
X93523042Y-60807958D01*
X93523042Y-60807957D01*
X93442613Y-60650109D01*
X93338483Y-60506786D01*
X93213214Y-60381517D01*
X93069890Y-60277386D01*
X92912042Y-60196957D01*
X92912039Y-60196956D01*
X92743556Y-60142214D01*
X92656067Y-60128357D01*
X92568579Y-60114500D01*
X92391421Y-60114500D01*
X92374305Y-60117211D01*
X92216443Y-60142214D01*
X92047960Y-60196956D01*
X92047957Y-60196957D01*
X91890109Y-60277386D01*
X91808338Y-60336796D01*
X91746786Y-60381517D01*
X91746784Y-60381519D01*
X91746783Y-60381519D01*
X91621519Y-60506783D01*
X91621519Y-60506784D01*
X91621517Y-60506786D01*
X91576796Y-60568338D01*
X91517386Y-60650109D01*
X91436957Y-60807957D01*
X91436956Y-60807960D01*
X91382214Y-60976443D01*
X91354500Y-61151421D01*
X89650500Y-61151421D01*
X89650500Y-61092494D01*
X89611993Y-60800007D01*
X89535639Y-60515048D01*
X89422743Y-60242493D01*
X89421957Y-60241132D01*
X89275238Y-59987006D01*
X89095647Y-59752959D01*
X89095641Y-59752952D01*
X88887047Y-59544358D01*
X88887040Y-59544352D01*
X88652993Y-59364761D01*
X88397510Y-59217258D01*
X88397500Y-59217254D01*
X88124961Y-59104364D01*
X88124954Y-59104362D01*
X88124952Y-59104361D01*
X87839993Y-59028007D01*
X87791113Y-59021571D01*
X87547513Y-58989500D01*
X87547506Y-58989500D01*
X87252494Y-58989500D01*
X87252486Y-58989500D01*
X86974085Y-59026153D01*
X86960007Y-59028007D01*
X86675048Y-59104361D01*
X86675038Y-59104364D01*
X86402499Y-59217254D01*
X86402489Y-59217258D01*
X86147006Y-59364761D01*
X85912959Y-59544352D01*
X85912952Y-59544358D01*
X85704358Y-59752952D01*
X85704352Y-59752959D01*
X85524761Y-59987006D01*
X85377258Y-60242489D01*
X85377254Y-60242499D01*
X85264364Y-60515038D01*
X85264361Y-60515048D01*
X85228172Y-60650110D01*
X85188008Y-60800004D01*
X85188006Y-60800015D01*
X85149500Y-61092486D01*
X83436165Y-61092486D01*
X83417786Y-60976445D01*
X83363042Y-60807958D01*
X83363042Y-60807957D01*
X83282613Y-60650109D01*
X83178483Y-60506786D01*
X83053214Y-60381517D01*
X82909890Y-60277386D01*
X82752042Y-60196957D01*
X82752039Y-60196956D01*
X82583556Y-60142214D01*
X82496067Y-60128357D01*
X82408579Y-60114500D01*
X82231421Y-60114500D01*
X82214305Y-60117211D01*
X82056443Y-60142214D01*
X81887960Y-60196956D01*
X81887957Y-60196957D01*
X81730109Y-60277386D01*
X81648338Y-60336796D01*
X81586786Y-60381517D01*
X81586784Y-60381519D01*
X81586783Y-60381519D01*
X81461519Y-60506783D01*
X81461519Y-60506784D01*
X81461517Y-60506786D01*
X81416796Y-60568338D01*
X81357386Y-60650109D01*
X81276957Y-60807957D01*
X81276956Y-60807960D01*
X81222214Y-60976443D01*
X81194500Y-61151421D01*
X76105500Y-61151421D01*
X76077786Y-60976445D01*
X76023042Y-60807958D01*
X76023042Y-60807957D01*
X75942613Y-60650109D01*
X75838483Y-60506786D01*
X75713214Y-60381517D01*
X75569890Y-60277386D01*
X75412042Y-60196957D01*
X75412039Y-60196956D01*
X75243556Y-60142214D01*
X75156067Y-60128357D01*
X75068579Y-60114500D01*
X74891421Y-60114500D01*
X74874305Y-60117211D01*
X74716443Y-60142214D01*
X74547960Y-60196956D01*
X74547957Y-60196957D01*
X74390109Y-60277386D01*
X74308338Y-60336796D01*
X74246786Y-60381517D01*
X74246784Y-60381519D01*
X74246783Y-60381519D01*
X74121519Y-60506783D01*
X74121519Y-60506784D01*
X74121517Y-60506786D01*
X74076796Y-60568338D01*
X74017386Y-60650109D01*
X73936957Y-60807957D01*
X73936956Y-60807960D01*
X73882214Y-60976443D01*
X73854500Y-61151421D01*
X72150500Y-61151421D01*
X72150500Y-61092494D01*
X72111993Y-60800007D01*
X72035639Y-60515048D01*
X71922743Y-60242493D01*
X71921957Y-60241132D01*
X71775238Y-59987006D01*
X71595647Y-59752959D01*
X71595641Y-59752952D01*
X71387047Y-59544358D01*
X71387040Y-59544352D01*
X71152993Y-59364761D01*
X70897510Y-59217258D01*
X70897500Y-59217254D01*
X70624961Y-59104364D01*
X70624954Y-59104362D01*
X70624952Y-59104361D01*
X70339993Y-59028007D01*
X70291113Y-59021571D01*
X70047513Y-58989500D01*
X70047506Y-58989500D01*
X69752494Y-58989500D01*
X69752486Y-58989500D01*
X69474085Y-59026153D01*
X69460007Y-59028007D01*
X69175048Y-59104361D01*
X69175038Y-59104364D01*
X68902499Y-59217254D01*
X68902489Y-59217258D01*
X68647006Y-59364761D01*
X68412959Y-59544352D01*
X68412952Y-59544358D01*
X68204358Y-59752952D01*
X68204352Y-59752959D01*
X68024761Y-59987006D01*
X67877258Y-60242489D01*
X67877254Y-60242499D01*
X67764364Y-60515038D01*
X67764361Y-60515048D01*
X67728172Y-60650110D01*
X67688008Y-60800004D01*
X67688006Y-60800015D01*
X67649500Y-61092486D01*
X65936165Y-61092486D01*
X65917786Y-60976445D01*
X65863042Y-60807958D01*
X65863042Y-60807957D01*
X65782613Y-60650109D01*
X65678483Y-60506786D01*
X65553214Y-60381517D01*
X65409890Y-60277386D01*
X65252042Y-60196957D01*
X65252039Y-60196956D01*
X65083556Y-60142214D01*
X64996067Y-60128357D01*
X64908579Y-60114500D01*
X64731421Y-60114500D01*
X64714305Y-60117211D01*
X64556443Y-60142214D01*
X64387960Y-60196956D01*
X64387957Y-60196957D01*
X64230109Y-60277386D01*
X64148338Y-60336796D01*
X64086786Y-60381517D01*
X64086784Y-60381519D01*
X64086783Y-60381519D01*
X63961519Y-60506783D01*
X63961519Y-60506784D01*
X63961517Y-60506786D01*
X63916796Y-60568338D01*
X63857386Y-60650109D01*
X63776957Y-60807957D01*
X63776956Y-60807960D01*
X63722214Y-60976443D01*
X63694500Y-61151421D01*
X61930500Y-61151421D01*
X61930500Y-59533858D01*
X61930500Y-59533856D01*
X61906614Y-59444712D01*
X61860470Y-59364788D01*
X61195676Y-58699994D01*
X64634529Y-58699994D01*
X64634529Y-58700005D01*
X64654379Y-58939559D01*
X64713389Y-59172589D01*
X64809951Y-59392729D01*
X64843912Y-59444709D01*
X64941429Y-59593969D01*
X65104236Y-59770825D01*
X65104239Y-59770827D01*
X65104242Y-59770830D01*
X65293924Y-59918466D01*
X65293930Y-59918470D01*
X65293933Y-59918472D01*
X65505344Y-60032882D01*
X65505347Y-60032883D01*
X65732699Y-60110933D01*
X65732701Y-60110933D01*
X65732703Y-60110934D01*
X65969808Y-60150500D01*
X65969809Y-60150500D01*
X66210191Y-60150500D01*
X66210192Y-60150500D01*
X66447297Y-60110934D01*
X66674656Y-60032882D01*
X66886067Y-59918472D01*
X67075764Y-59770825D01*
X67238571Y-59593969D01*
X67370049Y-59392728D01*
X67466610Y-59172591D01*
X67525620Y-58939563D01*
X67545471Y-58700000D01*
X67545471Y-58699994D01*
X82134529Y-58699994D01*
X82134529Y-58700005D01*
X82154379Y-58939559D01*
X82213389Y-59172589D01*
X82309951Y-59392729D01*
X82343912Y-59444709D01*
X82441429Y-59593969D01*
X82604236Y-59770825D01*
X82604239Y-59770827D01*
X82604242Y-59770830D01*
X82793924Y-59918466D01*
X82793930Y-59918470D01*
X82793933Y-59918472D01*
X83005344Y-60032882D01*
X83005347Y-60032883D01*
X83232699Y-60110933D01*
X83232701Y-60110933D01*
X83232703Y-60110934D01*
X83469808Y-60150500D01*
X83469809Y-60150500D01*
X83710191Y-60150500D01*
X83710192Y-60150500D01*
X83947297Y-60110934D01*
X84174656Y-60032882D01*
X84386067Y-59918472D01*
X84575764Y-59770825D01*
X84738571Y-59593969D01*
X84870049Y-59392728D01*
X84966610Y-59172591D01*
X85025620Y-58939563D01*
X85045471Y-58700000D01*
X85045471Y-58699994D01*
X99634529Y-58699994D01*
X99634529Y-58700005D01*
X99654379Y-58939559D01*
X99713389Y-59172589D01*
X99809951Y-59392729D01*
X99843912Y-59444709D01*
X99941429Y-59593969D01*
X100104236Y-59770825D01*
X100104239Y-59770827D01*
X100104242Y-59770830D01*
X100293924Y-59918466D01*
X100293930Y-59918470D01*
X100293933Y-59918472D01*
X100505344Y-60032882D01*
X100505347Y-60032883D01*
X100732699Y-60110933D01*
X100732701Y-60110933D01*
X100732703Y-60110934D01*
X100969808Y-60150500D01*
X100969809Y-60150500D01*
X101210191Y-60150500D01*
X101210192Y-60150500D01*
X101447297Y-60110934D01*
X101674656Y-60032882D01*
X101886067Y-59918472D01*
X102075764Y-59770825D01*
X102238571Y-59593969D01*
X102370049Y-59392728D01*
X102466610Y-59172591D01*
X102525620Y-58939563D01*
X102545471Y-58700000D01*
X102545471Y-58699994D01*
X117134529Y-58699994D01*
X117134529Y-58700005D01*
X117154379Y-58939559D01*
X117213389Y-59172589D01*
X117309951Y-59392729D01*
X117343912Y-59444709D01*
X117441429Y-59593969D01*
X117604236Y-59770825D01*
X117604239Y-59770827D01*
X117604242Y-59770830D01*
X117793924Y-59918466D01*
X117793930Y-59918470D01*
X117793933Y-59918472D01*
X118005344Y-60032882D01*
X118005347Y-60032883D01*
X118232699Y-60110933D01*
X118232701Y-60110933D01*
X118232703Y-60110934D01*
X118469808Y-60150500D01*
X118469809Y-60150500D01*
X118710191Y-60150500D01*
X118710192Y-60150500D01*
X118947297Y-60110934D01*
X119174656Y-60032882D01*
X119386067Y-59918472D01*
X119575764Y-59770825D01*
X119738571Y-59593969D01*
X119870049Y-59392728D01*
X119966610Y-59172591D01*
X120025620Y-58939563D01*
X120045471Y-58700000D01*
X120044447Y-58687643D01*
X120025620Y-58460440D01*
X120025620Y-58460437D01*
X119966610Y-58227409D01*
X119870049Y-58007272D01*
X119738571Y-57806031D01*
X119575764Y-57629175D01*
X119575759Y-57629171D01*
X119575757Y-57629169D01*
X119386075Y-57481533D01*
X119386069Y-57481529D01*
X119174657Y-57367118D01*
X119174652Y-57367116D01*
X118947300Y-57289066D01*
X118769468Y-57259391D01*
X118710192Y-57249500D01*
X118469808Y-57249500D01*
X118422387Y-57257413D01*
X118232699Y-57289066D01*
X118005347Y-57367116D01*
X118005342Y-57367118D01*
X117793930Y-57481529D01*
X117793924Y-57481533D01*
X117604242Y-57629169D01*
X117604239Y-57629172D01*
X117441430Y-57806029D01*
X117441427Y-57806033D01*
X117309951Y-58007270D01*
X117213389Y-58227410D01*
X117154379Y-58460440D01*
X117134529Y-58699994D01*
X102545471Y-58699994D01*
X102544447Y-58687643D01*
X102525620Y-58460440D01*
X102525620Y-58460437D01*
X102466610Y-58227409D01*
X102370049Y-58007272D01*
X102238571Y-57806031D01*
X102075764Y-57629175D01*
X102075759Y-57629171D01*
X102075757Y-57629169D01*
X101886075Y-57481533D01*
X101886069Y-57481529D01*
X101674657Y-57367118D01*
X101674652Y-57367116D01*
X101447300Y-57289066D01*
X101269468Y-57259391D01*
X101210192Y-57249500D01*
X100969808Y-57249500D01*
X100922387Y-57257413D01*
X100732699Y-57289066D01*
X100505347Y-57367116D01*
X100505342Y-57367118D01*
X100293930Y-57481529D01*
X100293924Y-57481533D01*
X100104242Y-57629169D01*
X100104239Y-57629172D01*
X99941430Y-57806029D01*
X99941427Y-57806033D01*
X99809951Y-58007270D01*
X99713389Y-58227410D01*
X99654379Y-58460440D01*
X99634529Y-58699994D01*
X85045471Y-58699994D01*
X85044447Y-58687643D01*
X85025620Y-58460440D01*
X85025620Y-58460437D01*
X84966610Y-58227409D01*
X84870049Y-58007272D01*
X84738571Y-57806031D01*
X84575764Y-57629175D01*
X84575759Y-57629171D01*
X84575757Y-57629169D01*
X84386075Y-57481533D01*
X84386069Y-57481529D01*
X84174657Y-57367118D01*
X84174652Y-57367116D01*
X83947300Y-57289066D01*
X83769468Y-57259391D01*
X83710192Y-57249500D01*
X83469808Y-57249500D01*
X83422387Y-57257413D01*
X83232699Y-57289066D01*
X83005347Y-57367116D01*
X83005342Y-57367118D01*
X82793930Y-57481529D01*
X82793924Y-57481533D01*
X82604242Y-57629169D01*
X82604239Y-57629172D01*
X82441430Y-57806029D01*
X82441427Y-57806033D01*
X82309951Y-58007270D01*
X82213389Y-58227410D01*
X82154379Y-58460440D01*
X82134529Y-58699994D01*
X67545471Y-58699994D01*
X67544447Y-58687643D01*
X67525620Y-58460440D01*
X67525620Y-58460437D01*
X67466610Y-58227409D01*
X67370049Y-58007272D01*
X67238571Y-57806031D01*
X67075764Y-57629175D01*
X67075759Y-57629171D01*
X67075757Y-57629169D01*
X66886075Y-57481533D01*
X66886069Y-57481529D01*
X66674657Y-57367118D01*
X66674652Y-57367116D01*
X66447300Y-57289066D01*
X66269468Y-57259391D01*
X66210192Y-57249500D01*
X65969808Y-57249500D01*
X65922387Y-57257413D01*
X65732699Y-57289066D01*
X65505347Y-57367116D01*
X65505342Y-57367118D01*
X65293930Y-57481529D01*
X65293924Y-57481533D01*
X65104242Y-57629169D01*
X65104239Y-57629172D01*
X64941430Y-57806029D01*
X64941427Y-57806033D01*
X64809951Y-58007270D01*
X64713389Y-58227410D01*
X64654379Y-58460440D01*
X64634529Y-58699994D01*
X61195676Y-58699994D01*
X58655676Y-56159994D01*
X70984529Y-56159994D01*
X70984529Y-56160005D01*
X71004379Y-56399559D01*
X71063389Y-56632589D01*
X71159951Y-56852729D01*
X71291427Y-57053966D01*
X71291429Y-57053969D01*
X71454236Y-57230825D01*
X71454239Y-57230827D01*
X71454242Y-57230830D01*
X71643924Y-57378466D01*
X71643930Y-57378470D01*
X71643933Y-57378472D01*
X71817399Y-57472347D01*
X71834365Y-57481529D01*
X71855344Y-57492882D01*
X71855347Y-57492883D01*
X72082699Y-57570933D01*
X72082701Y-57570933D01*
X72082703Y-57570934D01*
X72319808Y-57610500D01*
X72319809Y-57610500D01*
X72560191Y-57610500D01*
X72560192Y-57610500D01*
X72797297Y-57570934D01*
X73024656Y-57492882D01*
X73236067Y-57378472D01*
X73425764Y-57230825D01*
X73588571Y-57053969D01*
X73720049Y-56852728D01*
X73816610Y-56632591D01*
X73875620Y-56399563D01*
X73895471Y-56160000D01*
X73895471Y-56159994D01*
X88484529Y-56159994D01*
X88484529Y-56160005D01*
X88504379Y-56399559D01*
X88563389Y-56632589D01*
X88659951Y-56852729D01*
X88791427Y-57053966D01*
X88791429Y-57053969D01*
X88954236Y-57230825D01*
X88954239Y-57230827D01*
X88954242Y-57230830D01*
X89143924Y-57378466D01*
X89143930Y-57378470D01*
X89143933Y-57378472D01*
X89317399Y-57472347D01*
X89334365Y-57481529D01*
X89355344Y-57492882D01*
X89355347Y-57492883D01*
X89582699Y-57570933D01*
X89582701Y-57570933D01*
X89582703Y-57570934D01*
X89819808Y-57610500D01*
X89819809Y-57610500D01*
X90060191Y-57610500D01*
X90060192Y-57610500D01*
X90297297Y-57570934D01*
X90524656Y-57492882D01*
X90736067Y-57378472D01*
X90925764Y-57230825D01*
X91088571Y-57053969D01*
X91220049Y-56852728D01*
X91316610Y-56632591D01*
X91375620Y-56399563D01*
X91395471Y-56160000D01*
X91395471Y-56159994D01*
X105984529Y-56159994D01*
X105984529Y-56160005D01*
X106004379Y-56399559D01*
X106063389Y-56632589D01*
X106159951Y-56852729D01*
X106291427Y-57053966D01*
X106291429Y-57053969D01*
X106454236Y-57230825D01*
X106454239Y-57230827D01*
X106454242Y-57230830D01*
X106643924Y-57378466D01*
X106643930Y-57378470D01*
X106643933Y-57378472D01*
X106817399Y-57472347D01*
X106834365Y-57481529D01*
X106855344Y-57492882D01*
X106855347Y-57492883D01*
X107082699Y-57570933D01*
X107082701Y-57570933D01*
X107082703Y-57570934D01*
X107319808Y-57610500D01*
X107319809Y-57610500D01*
X107560191Y-57610500D01*
X107560192Y-57610500D01*
X107797297Y-57570934D01*
X108024656Y-57492882D01*
X108236067Y-57378472D01*
X108425764Y-57230825D01*
X108588571Y-57053969D01*
X108720049Y-56852728D01*
X108816610Y-56632591D01*
X108875620Y-56399563D01*
X108895471Y-56160000D01*
X108895471Y-56159994D01*
X123484529Y-56159994D01*
X123484529Y-56160005D01*
X123504379Y-56399559D01*
X123563389Y-56632589D01*
X123659951Y-56852729D01*
X123791427Y-57053966D01*
X123791429Y-57053969D01*
X123954236Y-57230825D01*
X123954239Y-57230827D01*
X123954242Y-57230830D01*
X124143924Y-57378466D01*
X124143930Y-57378470D01*
X124143933Y-57378472D01*
X124317399Y-57472347D01*
X124334365Y-57481529D01*
X124355344Y-57492882D01*
X124355347Y-57492883D01*
X124582699Y-57570933D01*
X124582701Y-57570933D01*
X124582703Y-57570934D01*
X124819808Y-57610500D01*
X124819809Y-57610500D01*
X125060191Y-57610500D01*
X125060192Y-57610500D01*
X125297297Y-57570934D01*
X125524656Y-57492882D01*
X125736067Y-57378472D01*
X125925764Y-57230825D01*
X126088571Y-57053969D01*
X126220049Y-56852728D01*
X126316610Y-56632591D01*
X126375620Y-56399563D01*
X126395471Y-56160000D01*
X126375620Y-55920437D01*
X126316610Y-55687409D01*
X126220049Y-55467272D01*
X126088571Y-55266031D01*
X125925764Y-55089175D01*
X125925759Y-55089171D01*
X125925757Y-55089169D01*
X125736075Y-54941533D01*
X125736069Y-54941529D01*
X125524657Y-54827118D01*
X125524652Y-54827116D01*
X125297300Y-54749066D01*
X125090155Y-54714500D01*
X125060192Y-54709500D01*
X124819808Y-54709500D01*
X124789845Y-54714500D01*
X124582699Y-54749066D01*
X124355347Y-54827116D01*
X124355342Y-54827118D01*
X124143930Y-54941529D01*
X124143924Y-54941533D01*
X123954242Y-55089169D01*
X123954239Y-55089172D01*
X123791430Y-55266029D01*
X123791427Y-55266033D01*
X123659951Y-55467270D01*
X123563389Y-55687410D01*
X123504379Y-55920440D01*
X123484529Y-56159994D01*
X108895471Y-56159994D01*
X108875620Y-55920437D01*
X108816610Y-55687409D01*
X108720049Y-55467272D01*
X108588571Y-55266031D01*
X108425764Y-55089175D01*
X108425759Y-55089171D01*
X108425757Y-55089169D01*
X108236075Y-54941533D01*
X108236069Y-54941529D01*
X108024657Y-54827118D01*
X108024652Y-54827116D01*
X107797300Y-54749066D01*
X107590155Y-54714500D01*
X107560192Y-54709500D01*
X107319808Y-54709500D01*
X107289845Y-54714500D01*
X107082699Y-54749066D01*
X106855347Y-54827116D01*
X106855342Y-54827118D01*
X106643930Y-54941529D01*
X106643924Y-54941533D01*
X106454242Y-55089169D01*
X106454239Y-55089172D01*
X106291430Y-55266029D01*
X106291427Y-55266033D01*
X106159951Y-55467270D01*
X106063389Y-55687410D01*
X106004379Y-55920440D01*
X105984529Y-56159994D01*
X91395471Y-56159994D01*
X91375620Y-55920437D01*
X91316610Y-55687409D01*
X91220049Y-55467272D01*
X91088571Y-55266031D01*
X90925764Y-55089175D01*
X90925759Y-55089171D01*
X90925757Y-55089169D01*
X90736075Y-54941533D01*
X90736069Y-54941529D01*
X90524657Y-54827118D01*
X90524652Y-54827116D01*
X90297300Y-54749066D01*
X90090155Y-54714500D01*
X90060192Y-54709500D01*
X89819808Y-54709500D01*
X89789845Y-54714500D01*
X89582699Y-54749066D01*
X89355347Y-54827116D01*
X89355342Y-54827118D01*
X89143930Y-54941529D01*
X89143924Y-54941533D01*
X88954242Y-55089169D01*
X88954239Y-55089172D01*
X88791430Y-55266029D01*
X88791427Y-55266033D01*
X88659951Y-55467270D01*
X88563389Y-55687410D01*
X88504379Y-55920440D01*
X88484529Y-56159994D01*
X73895471Y-56159994D01*
X73875620Y-55920437D01*
X73816610Y-55687409D01*
X73720049Y-55467272D01*
X73588571Y-55266031D01*
X73425764Y-55089175D01*
X73425759Y-55089171D01*
X73425757Y-55089169D01*
X73236075Y-54941533D01*
X73236069Y-54941529D01*
X73024657Y-54827118D01*
X73024652Y-54827116D01*
X72797300Y-54749066D01*
X72590155Y-54714500D01*
X72560192Y-54709500D01*
X72319808Y-54709500D01*
X72289845Y-54714500D01*
X72082699Y-54749066D01*
X71855347Y-54827116D01*
X71855342Y-54827118D01*
X71643930Y-54941529D01*
X71643924Y-54941533D01*
X71454242Y-55089169D01*
X71454239Y-55089172D01*
X71291430Y-55266029D01*
X71291427Y-55266033D01*
X71159951Y-55467270D01*
X71063389Y-55687410D01*
X71004379Y-55920440D01*
X70984529Y-56159994D01*
X58655676Y-56159994D01*
X55390212Y-52894530D01*
X55390211Y-52894529D01*
X55390208Y-52894527D01*
X55310290Y-52848387D01*
X55310289Y-52848386D01*
X55310288Y-52848386D01*
X55221144Y-52824500D01*
X55221143Y-52824500D01*
X43004600Y-52824500D01*
X42937561Y-52804815D01*
X42891806Y-52752011D01*
X42880600Y-52700500D01*
X42880599Y-51635689D01*
X42878255Y-51617888D01*
X42865142Y-51518275D01*
X42804631Y-51372188D01*
X42804631Y-51372187D01*
X42804628Y-51372183D01*
X42708367Y-51246733D01*
X42582916Y-51150471D01*
X42582913Y-51150470D01*
X42582911Y-51150468D01*
X42436828Y-51089959D01*
X42436826Y-51089958D01*
X42436825Y-51089958D01*
X42319411Y-51074500D01*
X41440589Y-51074500D01*
X41323173Y-51089958D01*
X41177088Y-51150468D01*
X41177087Y-51150468D01*
X41051633Y-51246733D01*
X40955368Y-51372187D01*
X40955368Y-51372188D01*
X40894859Y-51518271D01*
X40894858Y-51518275D01*
X40879400Y-51635681D01*
X40340598Y-51635681D01*
X40340592Y-51635640D01*
X40338255Y-51617888D01*
X40325142Y-51518275D01*
X40264629Y-51372184D01*
X40174034Y-51254118D01*
X40148840Y-51188949D01*
X40162878Y-51120504D01*
X40184726Y-51090954D01*
X44039558Y-47236122D01*
X44100879Y-47202639D01*
X44143419Y-47200866D01*
X44180000Y-47205682D01*
X44336762Y-47185044D01*
X44482841Y-47124536D01*
X44608282Y-47028282D01*
X44630741Y-46999011D01*
X44687168Y-46957811D01*
X44729116Y-46950500D01*
X61030884Y-46950500D01*
X61097923Y-46970185D01*
X61129257Y-46999010D01*
X61151718Y-47028282D01*
X61277159Y-47124536D01*
X61423238Y-47185044D01*
X61482797Y-47192885D01*
X61579999Y-47205682D01*
X61580000Y-47205682D01*
X61580001Y-47205682D01*
X61677203Y-47192885D01*
X61736762Y-47185044D01*
X61882841Y-47124536D01*
X62008282Y-47028282D01*
X62030741Y-46999011D01*
X62087168Y-46957811D01*
X62129116Y-46950500D01*
X78630884Y-46950500D01*
X78697923Y-46970185D01*
X78729257Y-46999010D01*
X78751718Y-47028282D01*
X78877159Y-47124536D01*
X79023238Y-47185044D01*
X79082797Y-47192885D01*
X79179999Y-47205682D01*
X79180000Y-47205682D01*
X79180001Y-47205682D01*
X79277203Y-47192885D01*
X79336762Y-47185044D01*
X79482841Y-47124536D01*
X79608282Y-47028282D01*
X79630741Y-46999011D01*
X79687168Y-46957811D01*
X79729116Y-46950500D01*
X96030884Y-46950500D01*
X96097923Y-46970185D01*
X96129257Y-46999010D01*
X96151718Y-47028282D01*
X96277159Y-47124536D01*
X96423238Y-47185044D01*
X96482797Y-47192885D01*
X96579999Y-47205682D01*
X96580000Y-47205682D01*
X96580001Y-47205682D01*
X96677203Y-47192885D01*
X96736762Y-47185044D01*
X96882841Y-47124536D01*
X97008282Y-47028282D01*
X97030741Y-46999011D01*
X97087168Y-46957811D01*
X97129116Y-46950500D01*
X113630884Y-46950500D01*
X113697923Y-46970185D01*
X113729257Y-46999010D01*
X113751718Y-47028282D01*
X113877159Y-47124536D01*
X114023238Y-47185044D01*
X114082797Y-47192885D01*
X114179999Y-47205682D01*
X114180000Y-47205682D01*
X114180001Y-47205682D01*
X114277203Y-47192885D01*
X114336762Y-47185044D01*
X114482841Y-47124536D01*
X114608282Y-47028282D01*
X114704536Y-46902841D01*
X114765044Y-46756762D01*
X114785682Y-46600000D01*
X114765044Y-46443238D01*
X114704536Y-46297159D01*
X114608282Y-46171718D01*
X114482841Y-46075464D01*
X114336762Y-46014956D01*
X114336760Y-46014955D01*
X114180001Y-45994318D01*
X114179999Y-45994318D01*
X114023239Y-46014955D01*
X114023237Y-46014956D01*
X113877160Y-46075463D01*
X113877159Y-46075464D01*
X113751718Y-46171718D01*
X113729258Y-46200988D01*
X113672832Y-46242189D01*
X113630884Y-46249500D01*
X97129116Y-46249500D01*
X97062077Y-46229815D01*
X97030742Y-46200989D01*
X97008282Y-46171718D01*
X96882841Y-46075464D01*
X96736762Y-46014956D01*
X96736760Y-46014955D01*
X96580001Y-45994318D01*
X96579999Y-45994318D01*
X96423239Y-46014955D01*
X96423237Y-46014956D01*
X96277160Y-46075463D01*
X96277159Y-46075464D01*
X96151718Y-46171718D01*
X96129258Y-46200988D01*
X96072832Y-46242189D01*
X96030884Y-46249500D01*
X79729116Y-46249500D01*
X79662077Y-46229815D01*
X79630742Y-46200989D01*
X79608282Y-46171718D01*
X79482841Y-46075464D01*
X79336762Y-46014956D01*
X79336760Y-46014955D01*
X79180001Y-45994318D01*
X79179999Y-45994318D01*
X79023239Y-46014955D01*
X79023237Y-46014956D01*
X78877160Y-46075463D01*
X78877159Y-46075464D01*
X78751718Y-46171718D01*
X78729258Y-46200988D01*
X78672832Y-46242189D01*
X78630884Y-46249500D01*
X62129116Y-46249500D01*
X62062077Y-46229815D01*
X62030742Y-46200989D01*
X62008282Y-46171718D01*
X61882841Y-46075464D01*
X61736762Y-46014956D01*
X61736760Y-46014955D01*
X61580001Y-45994318D01*
X61579999Y-45994318D01*
X61423239Y-46014955D01*
X61423237Y-46014956D01*
X61277160Y-46075463D01*
X61277159Y-46075464D01*
X61151718Y-46171718D01*
X61129258Y-46200988D01*
X61072832Y-46242189D01*
X61030884Y-46249500D01*
X44729116Y-46249500D01*
X44662077Y-46229815D01*
X44630742Y-46200989D01*
X44608282Y-46171718D01*
X44482841Y-46075464D01*
X44336762Y-46014956D01*
X44336760Y-46014955D01*
X44180001Y-45994318D01*
X44179999Y-45994318D01*
X44023239Y-46014955D01*
X44023237Y-46014956D01*
X43877160Y-46075463D01*
X43751718Y-46171718D01*
X43655463Y-46297160D01*
X43594956Y-46443237D01*
X43594955Y-46443239D01*
X43574318Y-46599997D01*
X43574318Y-46600000D01*
X43576927Y-46619824D01*
X43579133Y-46636579D01*
X43568365Y-46705614D01*
X43543874Y-46740442D01*
X39246135Y-51038181D01*
X39184812Y-51071666D01*
X39158454Y-51074500D01*
X38900589Y-51074500D01*
X38783173Y-51089958D01*
X38637088Y-51150468D01*
X38637087Y-51150468D01*
X38511633Y-51246733D01*
X38415368Y-51372187D01*
X38415368Y-51372188D01*
X38354859Y-51518271D01*
X38354858Y-51518275D01*
X38339400Y-51635681D01*
X38339400Y-53514310D01*
X38354858Y-53631726D01*
X38415368Y-53777811D01*
X38415368Y-53777812D01*
X38415370Y-53777815D01*
X38415371Y-53777816D01*
X38511633Y-53903267D01*
X38637084Y-53999529D01*
X38637087Y-53999530D01*
X38637088Y-53999531D01*
X38665836Y-54011439D01*
X38720240Y-54055279D01*
X38742305Y-54121574D01*
X38725026Y-54189273D01*
X38673889Y-54236884D01*
X38618384Y-54250000D01*
X37521616Y-54250000D01*
X37454577Y-54230315D01*
X37408822Y-54177511D01*
X37398878Y-54108353D01*
X37427903Y-54044797D01*
X37474164Y-54011439D01*
X37502911Y-53999531D01*
X37502912Y-53999531D01*
X37502912Y-53999530D01*
X37502916Y-53999529D01*
X37628367Y-53903267D01*
X37724629Y-53777816D01*
X37785142Y-53631725D01*
X37800600Y-53514311D01*
X37800599Y-51635690D01*
X37800592Y-51635640D01*
X37798255Y-51617888D01*
X37785142Y-51518275D01*
X37724631Y-51372188D01*
X37724631Y-51372187D01*
X37724628Y-51372183D01*
X37628367Y-51246733D01*
X37502916Y-51150471D01*
X37502913Y-51150470D01*
X37502911Y-51150468D01*
X37356828Y-51089959D01*
X37356826Y-51089958D01*
X37356825Y-51089958D01*
X37328481Y-51086226D01*
X37258314Y-51076988D01*
X37194417Y-51048721D01*
X37155947Y-50990396D01*
X37150500Y-50954049D01*
X37150500Y-49746543D01*
X37170185Y-49679504D01*
X37186815Y-49658866D01*
X37425579Y-49420101D01*
X37486902Y-49386617D01*
X37549253Y-49389121D01*
X37703868Y-49436024D01*
X37900000Y-49455341D01*
X38096132Y-49436024D01*
X38284727Y-49378814D01*
X38458538Y-49285910D01*
X38610883Y-49160883D01*
X38735910Y-49008538D01*
X38828814Y-48834727D01*
X38886024Y-48646132D01*
X38905341Y-48450000D01*
X38886024Y-48253868D01*
X38828814Y-48065273D01*
X38828811Y-48065269D01*
X38828811Y-48065266D01*
X38735913Y-47891467D01*
X38735909Y-47891460D01*
X38610883Y-47739116D01*
X38458539Y-47614090D01*
X38458532Y-47614086D01*
X38284733Y-47521188D01*
X38284727Y-47521186D01*
X38096132Y-47463976D01*
X38096129Y-47463975D01*
X37900000Y-47444659D01*
X37703870Y-47463975D01*
X37515266Y-47521188D01*
X37341467Y-47614086D01*
X37341460Y-47614090D01*
X37189116Y-47739116D01*
X37064090Y-47891460D01*
X37064086Y-47891467D01*
X36971188Y-48065266D01*
X36913975Y-48253870D01*
X36894659Y-48450000D01*
X36913975Y-48646130D01*
X36960877Y-48800743D01*
X36961500Y-48870610D01*
X36929897Y-48924419D01*
X36519531Y-49334786D01*
X36519527Y-49334791D01*
X36473387Y-49414709D01*
X36473386Y-49414712D01*
X36449500Y-49503856D01*
X36449500Y-50954050D01*
X36429815Y-51021089D01*
X36377011Y-51066844D01*
X36341685Y-51076989D01*
X36243173Y-51089958D01*
X36097088Y-51150468D01*
X36097087Y-51150468D01*
X35971633Y-51246733D01*
X35875368Y-51372187D01*
X35875368Y-51372188D01*
X35814859Y-51518271D01*
X35814858Y-51518275D01*
X35799400Y-51635681D01*
X35799400Y-53514310D01*
X35814858Y-53631726D01*
X35875368Y-53777811D01*
X35875368Y-53777812D01*
X35875370Y-53777815D01*
X35875371Y-53777816D01*
X35971633Y-53903267D01*
X36097084Y-53999529D01*
X36097087Y-53999530D01*
X36097088Y-53999531D01*
X36125836Y-54011439D01*
X36180240Y-54055279D01*
X36202305Y-54121574D01*
X36185026Y-54189273D01*
X36133889Y-54236884D01*
X36078384Y-54250000D01*
X34981616Y-54250000D01*
X34914577Y-54230315D01*
X34868822Y-54177511D01*
X34858878Y-54108353D01*
X34887903Y-54044797D01*
X34934164Y-54011439D01*
X34962911Y-53999531D01*
X34962912Y-53999531D01*
X34962912Y-53999530D01*
X34962916Y-53999529D01*
X35088367Y-53903267D01*
X35184629Y-53777816D01*
X35245142Y-53631725D01*
X35260600Y-53514311D01*
X35260599Y-51635690D01*
X35260592Y-51635640D01*
X35258255Y-51617888D01*
X35245142Y-51518275D01*
X35184631Y-51372188D01*
X35184631Y-51372187D01*
X35184628Y-51372183D01*
X35088367Y-51246733D01*
X34962916Y-51150471D01*
X34962913Y-51150470D01*
X34962911Y-51150468D01*
X34816828Y-51089959D01*
X34816826Y-51089958D01*
X34816825Y-51089958D01*
X34788481Y-51086226D01*
X34718314Y-51076988D01*
X34654417Y-51048721D01*
X34615947Y-50990396D01*
X34610500Y-50954049D01*
X34610500Y-49763858D01*
X34610500Y-49763856D01*
X34586614Y-49674712D01*
X34541252Y-49596144D01*
X34541259Y-49596139D01*
X34541234Y-49596113D01*
X34540469Y-49594787D01*
X34540467Y-49594785D01*
X34540466Y-49594783D01*
X33936819Y-48991136D01*
X33903334Y-48929813D01*
X33900500Y-48903455D01*
X33900500Y-47845730D01*
X33897646Y-47815300D01*
X33897646Y-47815298D01*
X33852793Y-47687119D01*
X33852792Y-47687117D01*
X33772150Y-47577850D01*
X33662882Y-47497207D01*
X33662880Y-47497206D01*
X33534700Y-47452353D01*
X33504270Y-47449500D01*
X33504266Y-47449500D01*
X32295734Y-47449500D01*
X32295730Y-47449500D01*
X32265300Y-47452353D01*
X32265298Y-47452354D01*
X32190455Y-47478543D01*
X32120676Y-47482105D01*
X32060049Y-47447377D01*
X32027821Y-47385383D01*
X32025500Y-47361502D01*
X32025500Y-43611421D01*
X46194500Y-43611421D01*
X46194500Y-43788578D01*
X46222214Y-43963556D01*
X46276956Y-44132039D01*
X46276957Y-44132042D01*
X46357386Y-44289890D01*
X46461517Y-44433214D01*
X46586786Y-44558483D01*
X46730110Y-44662614D01*
X46798577Y-44697500D01*
X46887957Y-44743042D01*
X46887960Y-44743043D01*
X46972201Y-44770414D01*
X47056445Y-44797786D01*
X47231421Y-44825500D01*
X47231422Y-44825500D01*
X47408578Y-44825500D01*
X47408579Y-44825500D01*
X47583555Y-44797786D01*
X47752042Y-44743042D01*
X47909890Y-44662614D01*
X48053214Y-44558483D01*
X48178483Y-44433214D01*
X48282614Y-44289890D01*
X48363042Y-44132042D01*
X48417786Y-43963555D01*
X48445500Y-43788579D01*
X48445500Y-43611421D01*
X48436165Y-43552486D01*
X50149500Y-43552486D01*
X50149500Y-43847513D01*
X50164778Y-43963555D01*
X50188007Y-44139993D01*
X50264361Y-44424951D01*
X50264364Y-44424961D01*
X50377254Y-44697500D01*
X50377258Y-44697510D01*
X50524761Y-44952993D01*
X50704352Y-45187040D01*
X50704358Y-45187047D01*
X50912952Y-45395641D01*
X50912959Y-45395647D01*
X51147006Y-45575238D01*
X51402489Y-45722741D01*
X51402490Y-45722741D01*
X51402493Y-45722743D01*
X51675048Y-45835639D01*
X51960007Y-45911993D01*
X52252494Y-45950500D01*
X52252501Y-45950500D01*
X52547499Y-45950500D01*
X52547506Y-45950500D01*
X52839993Y-45911993D01*
X53124952Y-45835639D01*
X53397507Y-45722743D01*
X53652994Y-45575238D01*
X53887042Y-45395646D01*
X54095646Y-45187042D01*
X54275238Y-44952994D01*
X54422743Y-44697507D01*
X54535639Y-44424952D01*
X54611993Y-44139993D01*
X54650500Y-43847506D01*
X54650500Y-43611421D01*
X56354500Y-43611421D01*
X56354500Y-43788578D01*
X56382214Y-43963556D01*
X56436956Y-44132039D01*
X56436957Y-44132042D01*
X56517386Y-44289890D01*
X56621517Y-44433214D01*
X56746786Y-44558483D01*
X56890110Y-44662614D01*
X56958577Y-44697500D01*
X57047957Y-44743042D01*
X57047960Y-44743043D01*
X57132201Y-44770414D01*
X57216445Y-44797786D01*
X57391421Y-44825500D01*
X57391422Y-44825500D01*
X57568578Y-44825500D01*
X57568579Y-44825500D01*
X57743555Y-44797786D01*
X57912042Y-44743042D01*
X58069890Y-44662614D01*
X58213214Y-44558483D01*
X58338483Y-44433214D01*
X58442614Y-44289890D01*
X58523042Y-44132042D01*
X58577786Y-43963555D01*
X58605500Y-43788579D01*
X58605500Y-43611421D01*
X63694500Y-43611421D01*
X63694500Y-43788578D01*
X63722214Y-43963556D01*
X63776956Y-44132039D01*
X63776957Y-44132042D01*
X63857386Y-44289890D01*
X63961517Y-44433214D01*
X64086786Y-44558483D01*
X64230110Y-44662614D01*
X64298577Y-44697500D01*
X64387957Y-44743042D01*
X64387960Y-44743043D01*
X64472201Y-44770414D01*
X64556445Y-44797786D01*
X64731421Y-44825500D01*
X64731422Y-44825500D01*
X64908578Y-44825500D01*
X64908579Y-44825500D01*
X65083555Y-44797786D01*
X65252042Y-44743042D01*
X65409890Y-44662614D01*
X65553214Y-44558483D01*
X65678483Y-44433214D01*
X65782614Y-44289890D01*
X65863042Y-44132042D01*
X65917786Y-43963555D01*
X65945500Y-43788579D01*
X65945500Y-43611421D01*
X65936165Y-43552486D01*
X67649500Y-43552486D01*
X67649500Y-43847513D01*
X67664778Y-43963555D01*
X67688007Y-44139993D01*
X67764361Y-44424951D01*
X67764364Y-44424961D01*
X67877254Y-44697500D01*
X67877258Y-44697510D01*
X68024761Y-44952993D01*
X68204352Y-45187040D01*
X68204358Y-45187047D01*
X68412952Y-45395641D01*
X68412959Y-45395647D01*
X68647006Y-45575238D01*
X68902489Y-45722741D01*
X68902490Y-45722741D01*
X68902493Y-45722743D01*
X69175048Y-45835639D01*
X69460007Y-45911993D01*
X69752494Y-45950500D01*
X69752501Y-45950500D01*
X70047499Y-45950500D01*
X70047506Y-45950500D01*
X70339993Y-45911993D01*
X70624952Y-45835639D01*
X70897507Y-45722743D01*
X71152994Y-45575238D01*
X71387042Y-45395646D01*
X71595646Y-45187042D01*
X71775238Y-44952994D01*
X71922743Y-44697507D01*
X72035639Y-44424952D01*
X72111993Y-44139993D01*
X72150500Y-43847506D01*
X72150500Y-43611421D01*
X73854500Y-43611421D01*
X73854500Y-43788578D01*
X73882214Y-43963556D01*
X73936956Y-44132039D01*
X73936957Y-44132042D01*
X74017386Y-44289890D01*
X74121517Y-44433214D01*
X74246786Y-44558483D01*
X74390110Y-44662614D01*
X74458577Y-44697500D01*
X74547957Y-44743042D01*
X74547960Y-44743043D01*
X74632201Y-44770414D01*
X74716445Y-44797786D01*
X74891421Y-44825500D01*
X74891422Y-44825500D01*
X75068578Y-44825500D01*
X75068579Y-44825500D01*
X75243555Y-44797786D01*
X75412042Y-44743042D01*
X75569890Y-44662614D01*
X75713214Y-44558483D01*
X75838483Y-44433214D01*
X75942614Y-44289890D01*
X76023042Y-44132042D01*
X76077786Y-43963555D01*
X76105500Y-43788579D01*
X76105500Y-43611421D01*
X81194500Y-43611421D01*
X81194500Y-43788578D01*
X81222214Y-43963556D01*
X81276956Y-44132039D01*
X81276957Y-44132042D01*
X81357386Y-44289890D01*
X81461517Y-44433214D01*
X81586786Y-44558483D01*
X81730110Y-44662614D01*
X81798577Y-44697500D01*
X81887957Y-44743042D01*
X81887960Y-44743043D01*
X81972201Y-44770414D01*
X82056445Y-44797786D01*
X82231421Y-44825500D01*
X82231422Y-44825500D01*
X82408578Y-44825500D01*
X82408579Y-44825500D01*
X82583555Y-44797786D01*
X82752042Y-44743042D01*
X82909890Y-44662614D01*
X83053214Y-44558483D01*
X83178483Y-44433214D01*
X83282614Y-44289890D01*
X83363042Y-44132042D01*
X83417786Y-43963555D01*
X83445500Y-43788579D01*
X83445500Y-43611421D01*
X83436165Y-43552486D01*
X85149500Y-43552486D01*
X85149500Y-43847513D01*
X85164778Y-43963555D01*
X85188007Y-44139993D01*
X85264361Y-44424951D01*
X85264364Y-44424961D01*
X85377254Y-44697500D01*
X85377258Y-44697510D01*
X85524761Y-44952993D01*
X85704352Y-45187040D01*
X85704358Y-45187047D01*
X85912952Y-45395641D01*
X85912959Y-45395647D01*
X86147006Y-45575238D01*
X86402489Y-45722741D01*
X86402490Y-45722741D01*
X86402493Y-45722743D01*
X86675048Y-45835639D01*
X86960007Y-45911993D01*
X87252494Y-45950500D01*
X87252501Y-45950500D01*
X87547499Y-45950500D01*
X87547506Y-45950500D01*
X87839993Y-45911993D01*
X88124952Y-45835639D01*
X88397507Y-45722743D01*
X88652994Y-45575238D01*
X88887042Y-45395646D01*
X89095646Y-45187042D01*
X89275238Y-44952994D01*
X89422743Y-44697507D01*
X89535639Y-44424952D01*
X89611993Y-44139993D01*
X89650500Y-43847506D01*
X89650500Y-43611421D01*
X91354500Y-43611421D01*
X91354500Y-43788578D01*
X91382214Y-43963556D01*
X91436956Y-44132039D01*
X91436957Y-44132042D01*
X91517386Y-44289890D01*
X91621517Y-44433214D01*
X91746786Y-44558483D01*
X91890110Y-44662614D01*
X91958577Y-44697500D01*
X92047957Y-44743042D01*
X92047960Y-44743043D01*
X92132201Y-44770414D01*
X92216445Y-44797786D01*
X92391421Y-44825500D01*
X92391422Y-44825500D01*
X92568578Y-44825500D01*
X92568579Y-44825500D01*
X92743555Y-44797786D01*
X92912042Y-44743042D01*
X93069890Y-44662614D01*
X93213214Y-44558483D01*
X93338483Y-44433214D01*
X93442614Y-44289890D01*
X93523042Y-44132042D01*
X93577786Y-43963555D01*
X93605500Y-43788579D01*
X93605500Y-43611421D01*
X98694500Y-43611421D01*
X98694500Y-43788578D01*
X98722214Y-43963556D01*
X98776956Y-44132039D01*
X98776957Y-44132042D01*
X98857386Y-44289890D01*
X98961517Y-44433214D01*
X99086786Y-44558483D01*
X99230110Y-44662614D01*
X99298577Y-44697500D01*
X99387957Y-44743042D01*
X99387960Y-44743043D01*
X99472201Y-44770414D01*
X99556445Y-44797786D01*
X99731421Y-44825500D01*
X99731422Y-44825500D01*
X99908578Y-44825500D01*
X99908579Y-44825500D01*
X100083555Y-44797786D01*
X100252042Y-44743042D01*
X100409890Y-44662614D01*
X100553214Y-44558483D01*
X100678483Y-44433214D01*
X100782614Y-44289890D01*
X100863042Y-44132042D01*
X100917786Y-43963555D01*
X100945500Y-43788579D01*
X100945500Y-43611421D01*
X100936165Y-43552486D01*
X102649500Y-43552486D01*
X102649500Y-43847513D01*
X102664778Y-43963555D01*
X102688007Y-44139993D01*
X102764361Y-44424951D01*
X102764364Y-44424961D01*
X102877254Y-44697500D01*
X102877258Y-44697510D01*
X103024761Y-44952993D01*
X103204352Y-45187040D01*
X103204358Y-45187047D01*
X103412952Y-45395641D01*
X103412959Y-45395647D01*
X103647006Y-45575238D01*
X103902489Y-45722741D01*
X103902490Y-45722741D01*
X103902493Y-45722743D01*
X104175048Y-45835639D01*
X104460007Y-45911993D01*
X104752494Y-45950500D01*
X104752501Y-45950500D01*
X105047499Y-45950500D01*
X105047506Y-45950500D01*
X105339993Y-45911993D01*
X105624952Y-45835639D01*
X105897507Y-45722743D01*
X106152994Y-45575238D01*
X106387042Y-45395646D01*
X106595646Y-45187042D01*
X106775238Y-44952994D01*
X106922743Y-44697507D01*
X107035639Y-44424952D01*
X107111993Y-44139993D01*
X107150500Y-43847506D01*
X107150500Y-43611421D01*
X108854500Y-43611421D01*
X108854500Y-43788578D01*
X108882214Y-43963556D01*
X108936956Y-44132039D01*
X108936957Y-44132042D01*
X109017386Y-44289890D01*
X109121517Y-44433214D01*
X109246786Y-44558483D01*
X109390110Y-44662614D01*
X109458577Y-44697500D01*
X109547957Y-44743042D01*
X109547960Y-44743043D01*
X109632201Y-44770414D01*
X109716445Y-44797786D01*
X109891421Y-44825500D01*
X109891422Y-44825500D01*
X110068578Y-44825500D01*
X110068579Y-44825500D01*
X110243555Y-44797786D01*
X110412042Y-44743042D01*
X110569890Y-44662614D01*
X110713214Y-44558483D01*
X110838483Y-44433214D01*
X110942614Y-44289890D01*
X111023042Y-44132042D01*
X111077786Y-43963555D01*
X111105500Y-43788579D01*
X111105500Y-43611421D01*
X116194500Y-43611421D01*
X116194500Y-43788578D01*
X116222214Y-43963556D01*
X116276956Y-44132039D01*
X116276957Y-44132042D01*
X116357386Y-44289890D01*
X116461517Y-44433214D01*
X116586786Y-44558483D01*
X116730110Y-44662614D01*
X116798577Y-44697500D01*
X116887957Y-44743042D01*
X116887960Y-44743043D01*
X116972201Y-44770414D01*
X117056445Y-44797786D01*
X117231421Y-44825500D01*
X117231422Y-44825500D01*
X117408578Y-44825500D01*
X117408579Y-44825500D01*
X117583555Y-44797786D01*
X117752042Y-44743042D01*
X117909890Y-44662614D01*
X118053214Y-44558483D01*
X118178483Y-44433214D01*
X118282614Y-44289890D01*
X118363042Y-44132042D01*
X118417786Y-43963555D01*
X118445500Y-43788579D01*
X118445500Y-43611421D01*
X118436165Y-43552486D01*
X120149500Y-43552486D01*
X120149500Y-43847513D01*
X120164778Y-43963555D01*
X120188007Y-44139993D01*
X120264361Y-44424951D01*
X120264364Y-44424961D01*
X120377254Y-44697500D01*
X120377258Y-44697510D01*
X120524761Y-44952993D01*
X120704352Y-45187040D01*
X120704358Y-45187047D01*
X120912952Y-45395641D01*
X120912959Y-45395647D01*
X121147006Y-45575238D01*
X121402489Y-45722741D01*
X121402490Y-45722741D01*
X121402493Y-45722743D01*
X121675048Y-45835639D01*
X121960007Y-45911993D01*
X122252494Y-45950500D01*
X122252501Y-45950500D01*
X122547499Y-45950500D01*
X122547506Y-45950500D01*
X122839993Y-45911993D01*
X123124952Y-45835639D01*
X123397507Y-45722743D01*
X123652994Y-45575238D01*
X123887042Y-45395646D01*
X124095646Y-45187042D01*
X124275238Y-44952994D01*
X124422743Y-44697507D01*
X124535639Y-44424952D01*
X124611993Y-44139993D01*
X124650500Y-43847506D01*
X124650500Y-43611421D01*
X126354500Y-43611421D01*
X126354500Y-43788578D01*
X126382214Y-43963556D01*
X126436956Y-44132039D01*
X126436957Y-44132042D01*
X126517386Y-44289890D01*
X126621517Y-44433214D01*
X126746786Y-44558483D01*
X126890110Y-44662614D01*
X126958577Y-44697500D01*
X127047957Y-44743042D01*
X127047960Y-44743043D01*
X127132201Y-44770414D01*
X127216445Y-44797786D01*
X127391421Y-44825500D01*
X127391422Y-44825500D01*
X127568578Y-44825500D01*
X127568579Y-44825500D01*
X127743555Y-44797786D01*
X127912042Y-44743042D01*
X128069890Y-44662614D01*
X128213214Y-44558483D01*
X128338483Y-44433214D01*
X128442614Y-44289890D01*
X128523042Y-44132042D01*
X128577786Y-43963555D01*
X128605500Y-43788579D01*
X128605500Y-43611421D01*
X128577786Y-43436445D01*
X128523042Y-43267958D01*
X128523042Y-43267957D01*
X128442613Y-43110109D01*
X128338483Y-42966786D01*
X128213214Y-42841517D01*
X128069890Y-42737386D01*
X127912042Y-42656957D01*
X127912039Y-42656956D01*
X127743556Y-42602214D01*
X127656067Y-42588357D01*
X127568579Y-42574500D01*
X127391421Y-42574500D01*
X127333095Y-42583738D01*
X127216443Y-42602214D01*
X127047960Y-42656956D01*
X127047957Y-42656957D01*
X126890109Y-42737386D01*
X126808338Y-42796796D01*
X126746786Y-42841517D01*
X126746784Y-42841519D01*
X126746783Y-42841519D01*
X126621519Y-42966783D01*
X126621519Y-42966784D01*
X126621517Y-42966786D01*
X126576796Y-43028338D01*
X126517386Y-43110109D01*
X126436957Y-43267957D01*
X126436956Y-43267960D01*
X126382214Y-43436443D01*
X126354500Y-43611421D01*
X124650500Y-43611421D01*
X124650500Y-43552494D01*
X124611993Y-43260007D01*
X124535639Y-42975048D01*
X124422743Y-42702493D01*
X124396453Y-42656958D01*
X124275238Y-42447006D01*
X124095647Y-42212959D01*
X124095641Y-42212952D01*
X123887047Y-42004358D01*
X123887040Y-42004352D01*
X123652993Y-41824761D01*
X123397510Y-41677258D01*
X123397500Y-41677254D01*
X123124961Y-41564364D01*
X123124954Y-41564362D01*
X123124952Y-41564361D01*
X122839993Y-41488007D01*
X122791113Y-41481571D01*
X122547513Y-41449500D01*
X122547506Y-41449500D01*
X122252494Y-41449500D01*
X122252486Y-41449500D01*
X121974085Y-41486153D01*
X121960007Y-41488007D01*
X121675048Y-41564361D01*
X121675038Y-41564364D01*
X121402499Y-41677254D01*
X121402489Y-41677258D01*
X121147006Y-41824761D01*
X120912959Y-42004352D01*
X120912952Y-42004358D01*
X120704358Y-42212952D01*
X120704352Y-42212959D01*
X120524761Y-42447006D01*
X120377258Y-42702489D01*
X120377254Y-42702499D01*
X120264364Y-42975038D01*
X120264361Y-42975048D01*
X120228172Y-43110110D01*
X120188008Y-43260004D01*
X120188006Y-43260015D01*
X120149500Y-43552486D01*
X118436165Y-43552486D01*
X118417786Y-43436445D01*
X118363042Y-43267958D01*
X118363042Y-43267957D01*
X118282613Y-43110109D01*
X118178483Y-42966786D01*
X118053214Y-42841517D01*
X117909890Y-42737386D01*
X117752042Y-42656957D01*
X117752039Y-42656956D01*
X117583556Y-42602214D01*
X117496067Y-42588357D01*
X117408579Y-42574500D01*
X117231421Y-42574500D01*
X117173095Y-42583738D01*
X117056443Y-42602214D01*
X116887960Y-42656956D01*
X116887957Y-42656957D01*
X116730109Y-42737386D01*
X116648338Y-42796796D01*
X116586786Y-42841517D01*
X116586784Y-42841519D01*
X116586783Y-42841519D01*
X116461519Y-42966783D01*
X116461519Y-42966784D01*
X116461517Y-42966786D01*
X116416796Y-43028338D01*
X116357386Y-43110109D01*
X116276957Y-43267957D01*
X116276956Y-43267960D01*
X116222214Y-43436443D01*
X116194500Y-43611421D01*
X111105500Y-43611421D01*
X111077786Y-43436445D01*
X111023042Y-43267958D01*
X111023042Y-43267957D01*
X110942613Y-43110109D01*
X110838483Y-42966786D01*
X110713214Y-42841517D01*
X110569890Y-42737386D01*
X110412042Y-42656957D01*
X110412039Y-42656956D01*
X110243556Y-42602214D01*
X110156067Y-42588357D01*
X110068579Y-42574500D01*
X109891421Y-42574500D01*
X109833095Y-42583738D01*
X109716443Y-42602214D01*
X109547960Y-42656956D01*
X109547957Y-42656957D01*
X109390109Y-42737386D01*
X109308338Y-42796796D01*
X109246786Y-42841517D01*
X109246784Y-42841519D01*
X109246783Y-42841519D01*
X109121519Y-42966783D01*
X109121519Y-42966784D01*
X109121517Y-42966786D01*
X109076796Y-43028338D01*
X109017386Y-43110109D01*
X108936957Y-43267957D01*
X108936956Y-43267960D01*
X108882214Y-43436443D01*
X108854500Y-43611421D01*
X107150500Y-43611421D01*
X107150500Y-43552494D01*
X107111993Y-43260007D01*
X107035639Y-42975048D01*
X106922743Y-42702493D01*
X106896453Y-42656958D01*
X106775238Y-42447006D01*
X106595647Y-42212959D01*
X106595641Y-42212952D01*
X106387047Y-42004358D01*
X106387040Y-42004352D01*
X106152993Y-41824761D01*
X105897510Y-41677258D01*
X105897500Y-41677254D01*
X105624961Y-41564364D01*
X105624954Y-41564362D01*
X105624952Y-41564361D01*
X105339993Y-41488007D01*
X105291113Y-41481571D01*
X105047513Y-41449500D01*
X105047506Y-41449500D01*
X104752494Y-41449500D01*
X104752486Y-41449500D01*
X104474085Y-41486153D01*
X104460007Y-41488007D01*
X104175048Y-41564361D01*
X104175038Y-41564364D01*
X103902499Y-41677254D01*
X103902489Y-41677258D01*
X103647006Y-41824761D01*
X103412959Y-42004352D01*
X103412952Y-42004358D01*
X103204358Y-42212952D01*
X103204352Y-42212959D01*
X103024761Y-42447006D01*
X102877258Y-42702489D01*
X102877254Y-42702499D01*
X102764364Y-42975038D01*
X102764361Y-42975048D01*
X102728172Y-43110110D01*
X102688008Y-43260004D01*
X102688006Y-43260015D01*
X102649500Y-43552486D01*
X100936165Y-43552486D01*
X100917786Y-43436445D01*
X100863042Y-43267958D01*
X100863042Y-43267957D01*
X100782613Y-43110109D01*
X100678483Y-42966786D01*
X100553214Y-42841517D01*
X100409890Y-42737386D01*
X100252042Y-42656957D01*
X100252039Y-42656956D01*
X100083556Y-42602214D01*
X99996067Y-42588357D01*
X99908579Y-42574500D01*
X99731421Y-42574500D01*
X99673095Y-42583738D01*
X99556443Y-42602214D01*
X99387960Y-42656956D01*
X99387957Y-42656957D01*
X99230109Y-42737386D01*
X99148338Y-42796796D01*
X99086786Y-42841517D01*
X99086784Y-42841519D01*
X99086783Y-42841519D01*
X98961519Y-42966783D01*
X98961519Y-42966784D01*
X98961517Y-42966786D01*
X98916796Y-43028338D01*
X98857386Y-43110109D01*
X98776957Y-43267957D01*
X98776956Y-43267960D01*
X98722214Y-43436443D01*
X98694500Y-43611421D01*
X93605500Y-43611421D01*
X93577786Y-43436445D01*
X93523042Y-43267958D01*
X93523042Y-43267957D01*
X93442613Y-43110109D01*
X93338483Y-42966786D01*
X93213214Y-42841517D01*
X93069890Y-42737386D01*
X92912042Y-42656957D01*
X92912039Y-42656956D01*
X92743556Y-42602214D01*
X92656067Y-42588357D01*
X92568579Y-42574500D01*
X92391421Y-42574500D01*
X92333095Y-42583738D01*
X92216443Y-42602214D01*
X92047960Y-42656956D01*
X92047957Y-42656957D01*
X91890109Y-42737386D01*
X91808338Y-42796796D01*
X91746786Y-42841517D01*
X91746784Y-42841519D01*
X91746783Y-42841519D01*
X91621519Y-42966783D01*
X91621519Y-42966784D01*
X91621517Y-42966786D01*
X91576796Y-43028338D01*
X91517386Y-43110109D01*
X91436957Y-43267957D01*
X91436956Y-43267960D01*
X91382214Y-43436443D01*
X91354500Y-43611421D01*
X89650500Y-43611421D01*
X89650500Y-43552494D01*
X89611993Y-43260007D01*
X89535639Y-42975048D01*
X89422743Y-42702493D01*
X89396453Y-42656958D01*
X89275238Y-42447006D01*
X89095647Y-42212959D01*
X89095641Y-42212952D01*
X88887047Y-42004358D01*
X88887040Y-42004352D01*
X88652993Y-41824761D01*
X88397510Y-41677258D01*
X88397500Y-41677254D01*
X88124961Y-41564364D01*
X88124954Y-41564362D01*
X88124952Y-41564361D01*
X87839993Y-41488007D01*
X87791113Y-41481571D01*
X87547513Y-41449500D01*
X87547506Y-41449500D01*
X87252494Y-41449500D01*
X87252486Y-41449500D01*
X86974085Y-41486153D01*
X86960007Y-41488007D01*
X86675048Y-41564361D01*
X86675038Y-41564364D01*
X86402499Y-41677254D01*
X86402489Y-41677258D01*
X86147006Y-41824761D01*
X85912959Y-42004352D01*
X85912952Y-42004358D01*
X85704358Y-42212952D01*
X85704352Y-42212959D01*
X85524761Y-42447006D01*
X85377258Y-42702489D01*
X85377254Y-42702499D01*
X85264364Y-42975038D01*
X85264361Y-42975048D01*
X85228172Y-43110110D01*
X85188008Y-43260004D01*
X85188006Y-43260015D01*
X85149500Y-43552486D01*
X83436165Y-43552486D01*
X83417786Y-43436445D01*
X83363042Y-43267958D01*
X83363042Y-43267957D01*
X83282613Y-43110109D01*
X83178483Y-42966786D01*
X83053214Y-42841517D01*
X82909890Y-42737386D01*
X82752042Y-42656957D01*
X82752039Y-42656956D01*
X82583556Y-42602214D01*
X82496067Y-42588357D01*
X82408579Y-42574500D01*
X82231421Y-42574500D01*
X82173095Y-42583738D01*
X82056443Y-42602214D01*
X81887960Y-42656956D01*
X81887957Y-42656957D01*
X81730109Y-42737386D01*
X81648338Y-42796796D01*
X81586786Y-42841517D01*
X81586784Y-42841519D01*
X81586783Y-42841519D01*
X81461519Y-42966783D01*
X81461519Y-42966784D01*
X81461517Y-42966786D01*
X81416796Y-43028338D01*
X81357386Y-43110109D01*
X81276957Y-43267957D01*
X81276956Y-43267960D01*
X81222214Y-43436443D01*
X81194500Y-43611421D01*
X76105500Y-43611421D01*
X76077786Y-43436445D01*
X76023042Y-43267958D01*
X76023042Y-43267957D01*
X75942613Y-43110109D01*
X75838483Y-42966786D01*
X75713214Y-42841517D01*
X75569890Y-42737386D01*
X75412042Y-42656957D01*
X75412039Y-42656956D01*
X75243556Y-42602214D01*
X75156067Y-42588357D01*
X75068579Y-42574500D01*
X74891421Y-42574500D01*
X74833095Y-42583738D01*
X74716443Y-42602214D01*
X74547960Y-42656956D01*
X74547957Y-42656957D01*
X74390109Y-42737386D01*
X74308338Y-42796796D01*
X74246786Y-42841517D01*
X74246784Y-42841519D01*
X74246783Y-42841519D01*
X74121519Y-42966783D01*
X74121519Y-42966784D01*
X74121517Y-42966786D01*
X74076796Y-43028338D01*
X74017386Y-43110109D01*
X73936957Y-43267957D01*
X73936956Y-43267960D01*
X73882214Y-43436443D01*
X73854500Y-43611421D01*
X72150500Y-43611421D01*
X72150500Y-43552494D01*
X72111993Y-43260007D01*
X72035639Y-42975048D01*
X71922743Y-42702493D01*
X71896453Y-42656958D01*
X71775238Y-42447006D01*
X71595647Y-42212959D01*
X71595641Y-42212952D01*
X71387047Y-42004358D01*
X71387040Y-42004352D01*
X71152993Y-41824761D01*
X70897510Y-41677258D01*
X70897500Y-41677254D01*
X70624961Y-41564364D01*
X70624954Y-41564362D01*
X70624952Y-41564361D01*
X70339993Y-41488007D01*
X70291113Y-41481571D01*
X70047513Y-41449500D01*
X70047506Y-41449500D01*
X69752494Y-41449500D01*
X69752486Y-41449500D01*
X69474085Y-41486153D01*
X69460007Y-41488007D01*
X69175048Y-41564361D01*
X69175038Y-41564364D01*
X68902499Y-41677254D01*
X68902489Y-41677258D01*
X68647006Y-41824761D01*
X68412959Y-42004352D01*
X68412952Y-42004358D01*
X68204358Y-42212952D01*
X68204352Y-42212959D01*
X68024761Y-42447006D01*
X67877258Y-42702489D01*
X67877254Y-42702499D01*
X67764364Y-42975038D01*
X67764361Y-42975048D01*
X67728172Y-43110110D01*
X67688008Y-43260004D01*
X67688006Y-43260015D01*
X67649500Y-43552486D01*
X65936165Y-43552486D01*
X65917786Y-43436445D01*
X65863042Y-43267958D01*
X65863042Y-43267957D01*
X65782613Y-43110109D01*
X65678483Y-42966786D01*
X65553214Y-42841517D01*
X65409890Y-42737386D01*
X65252042Y-42656957D01*
X65252039Y-42656956D01*
X65083556Y-42602214D01*
X64996067Y-42588357D01*
X64908579Y-42574500D01*
X64731421Y-42574500D01*
X64673095Y-42583738D01*
X64556443Y-42602214D01*
X64387960Y-42656956D01*
X64387957Y-42656957D01*
X64230109Y-42737386D01*
X64148338Y-42796796D01*
X64086786Y-42841517D01*
X64086784Y-42841519D01*
X64086783Y-42841519D01*
X63961519Y-42966783D01*
X63961519Y-42966784D01*
X63961517Y-42966786D01*
X63916796Y-43028338D01*
X63857386Y-43110109D01*
X63776957Y-43267957D01*
X63776956Y-43267960D01*
X63722214Y-43436443D01*
X63694500Y-43611421D01*
X58605500Y-43611421D01*
X58577786Y-43436445D01*
X58523042Y-43267958D01*
X58523042Y-43267957D01*
X58442613Y-43110109D01*
X58338483Y-42966786D01*
X58213214Y-42841517D01*
X58069890Y-42737386D01*
X57912042Y-42656957D01*
X57912039Y-42656956D01*
X57743556Y-42602214D01*
X57656067Y-42588357D01*
X57568579Y-42574500D01*
X57391421Y-42574500D01*
X57333095Y-42583738D01*
X57216443Y-42602214D01*
X57047960Y-42656956D01*
X57047957Y-42656957D01*
X56890109Y-42737386D01*
X56808338Y-42796796D01*
X56746786Y-42841517D01*
X56746784Y-42841519D01*
X56746783Y-42841519D01*
X56621519Y-42966783D01*
X56621519Y-42966784D01*
X56621517Y-42966786D01*
X56576796Y-43028338D01*
X56517386Y-43110109D01*
X56436957Y-43267957D01*
X56436956Y-43267960D01*
X56382214Y-43436443D01*
X56354500Y-43611421D01*
X54650500Y-43611421D01*
X54650500Y-43552494D01*
X54611993Y-43260007D01*
X54535639Y-42975048D01*
X54422743Y-42702493D01*
X54396453Y-42656958D01*
X54275238Y-42447006D01*
X54095647Y-42212959D01*
X54095641Y-42212952D01*
X53887047Y-42004358D01*
X53887040Y-42004352D01*
X53652993Y-41824761D01*
X53397510Y-41677258D01*
X53397500Y-41677254D01*
X53124961Y-41564364D01*
X53124954Y-41564362D01*
X53124952Y-41564361D01*
X52839993Y-41488007D01*
X52791113Y-41481571D01*
X52547513Y-41449500D01*
X52547506Y-41449500D01*
X52252494Y-41449500D01*
X52252486Y-41449500D01*
X51974085Y-41486153D01*
X51960007Y-41488007D01*
X51675048Y-41564361D01*
X51675038Y-41564364D01*
X51402499Y-41677254D01*
X51402489Y-41677258D01*
X51147006Y-41824761D01*
X50912959Y-42004352D01*
X50912952Y-42004358D01*
X50704358Y-42212952D01*
X50704352Y-42212959D01*
X50524761Y-42447006D01*
X50377258Y-42702489D01*
X50377254Y-42702499D01*
X50264364Y-42975038D01*
X50264361Y-42975048D01*
X50228172Y-43110110D01*
X50188008Y-43260004D01*
X50188006Y-43260015D01*
X50149500Y-43552486D01*
X48436165Y-43552486D01*
X48417786Y-43436445D01*
X48363042Y-43267958D01*
X48363042Y-43267957D01*
X48282613Y-43110109D01*
X48178483Y-42966786D01*
X48053214Y-42841517D01*
X47909890Y-42737386D01*
X47752042Y-42656957D01*
X47752039Y-42656956D01*
X47583556Y-42602214D01*
X47496067Y-42588357D01*
X47408579Y-42574500D01*
X47231421Y-42574500D01*
X47173095Y-42583738D01*
X47056443Y-42602214D01*
X46887960Y-42656956D01*
X46887957Y-42656957D01*
X46730109Y-42737386D01*
X46648338Y-42796796D01*
X46586786Y-42841517D01*
X46586784Y-42841519D01*
X46586783Y-42841519D01*
X46461519Y-42966783D01*
X46461519Y-42966784D01*
X46461517Y-42966786D01*
X46416796Y-43028338D01*
X46357386Y-43110109D01*
X46276957Y-43267957D01*
X46276956Y-43267960D01*
X46222214Y-43436443D01*
X46194500Y-43611421D01*
X32025500Y-43611421D01*
X32025500Y-41159994D01*
X47134529Y-41159994D01*
X47134529Y-41160005D01*
X47154379Y-41399559D01*
X47213389Y-41632589D01*
X47309951Y-41852729D01*
X47409012Y-42004352D01*
X47441429Y-42053969D01*
X47604236Y-42230825D01*
X47604239Y-42230827D01*
X47604242Y-42230830D01*
X47793924Y-42378466D01*
X47793930Y-42378470D01*
X47793933Y-42378472D01*
X48005344Y-42492882D01*
X48005347Y-42492883D01*
X48232699Y-42570933D01*
X48232701Y-42570933D01*
X48232703Y-42570934D01*
X48469808Y-42610500D01*
X48469809Y-42610500D01*
X48710191Y-42610500D01*
X48710192Y-42610500D01*
X48947297Y-42570934D01*
X49174656Y-42492882D01*
X49386067Y-42378472D01*
X49575764Y-42230825D01*
X49738571Y-42053969D01*
X49870049Y-41852728D01*
X49966610Y-41632591D01*
X50025620Y-41399563D01*
X50045471Y-41160000D01*
X50045471Y-41159994D01*
X64634529Y-41159994D01*
X64634529Y-41160005D01*
X64654379Y-41399559D01*
X64713389Y-41632589D01*
X64809951Y-41852729D01*
X64909012Y-42004352D01*
X64941429Y-42053969D01*
X65104236Y-42230825D01*
X65104239Y-42230827D01*
X65104242Y-42230830D01*
X65293924Y-42378466D01*
X65293930Y-42378470D01*
X65293933Y-42378472D01*
X65505344Y-42492882D01*
X65505347Y-42492883D01*
X65732699Y-42570933D01*
X65732701Y-42570933D01*
X65732703Y-42570934D01*
X65969808Y-42610500D01*
X65969809Y-42610500D01*
X66210191Y-42610500D01*
X66210192Y-42610500D01*
X66447297Y-42570934D01*
X66674656Y-42492882D01*
X66886067Y-42378472D01*
X67075764Y-42230825D01*
X67238571Y-42053969D01*
X67370049Y-41852728D01*
X67466610Y-41632591D01*
X67525620Y-41399563D01*
X67545471Y-41160000D01*
X67545471Y-41159994D01*
X82134529Y-41159994D01*
X82134529Y-41160005D01*
X82154379Y-41399559D01*
X82213389Y-41632589D01*
X82309951Y-41852729D01*
X82409012Y-42004352D01*
X82441429Y-42053969D01*
X82604236Y-42230825D01*
X82604239Y-42230827D01*
X82604242Y-42230830D01*
X82793924Y-42378466D01*
X82793930Y-42378470D01*
X82793933Y-42378472D01*
X83005344Y-42492882D01*
X83005347Y-42492883D01*
X83232699Y-42570933D01*
X83232701Y-42570933D01*
X83232703Y-42570934D01*
X83469808Y-42610500D01*
X83469809Y-42610500D01*
X83710191Y-42610500D01*
X83710192Y-42610500D01*
X83947297Y-42570934D01*
X84174656Y-42492882D01*
X84386067Y-42378472D01*
X84575764Y-42230825D01*
X84738571Y-42053969D01*
X84870049Y-41852728D01*
X84966610Y-41632591D01*
X85025620Y-41399563D01*
X85045471Y-41160000D01*
X85045471Y-41159994D01*
X99634529Y-41159994D01*
X99634529Y-41160005D01*
X99654379Y-41399559D01*
X99713389Y-41632589D01*
X99809951Y-41852729D01*
X99909012Y-42004352D01*
X99941429Y-42053969D01*
X100104236Y-42230825D01*
X100104239Y-42230827D01*
X100104242Y-42230830D01*
X100293924Y-42378466D01*
X100293930Y-42378470D01*
X100293933Y-42378472D01*
X100505344Y-42492882D01*
X100505347Y-42492883D01*
X100732699Y-42570933D01*
X100732701Y-42570933D01*
X100732703Y-42570934D01*
X100969808Y-42610500D01*
X100969809Y-42610500D01*
X101210191Y-42610500D01*
X101210192Y-42610500D01*
X101447297Y-42570934D01*
X101674656Y-42492882D01*
X101886067Y-42378472D01*
X102075764Y-42230825D01*
X102238571Y-42053969D01*
X102370049Y-41852728D01*
X102466610Y-41632591D01*
X102525620Y-41399563D01*
X102545471Y-41160000D01*
X102545471Y-41159994D01*
X117134529Y-41159994D01*
X117134529Y-41160005D01*
X117154379Y-41399559D01*
X117213389Y-41632589D01*
X117309951Y-41852729D01*
X117409012Y-42004352D01*
X117441429Y-42053969D01*
X117604236Y-42230825D01*
X117604239Y-42230827D01*
X117604242Y-42230830D01*
X117793924Y-42378466D01*
X117793930Y-42378470D01*
X117793933Y-42378472D01*
X118005344Y-42492882D01*
X118005347Y-42492883D01*
X118232699Y-42570933D01*
X118232701Y-42570933D01*
X118232703Y-42570934D01*
X118469808Y-42610500D01*
X118469809Y-42610500D01*
X118710191Y-42610500D01*
X118710192Y-42610500D01*
X118947297Y-42570934D01*
X119174656Y-42492882D01*
X119386067Y-42378472D01*
X119575764Y-42230825D01*
X119738571Y-42053969D01*
X119870049Y-41852728D01*
X119966610Y-41632591D01*
X120025620Y-41399563D01*
X120045471Y-41160000D01*
X120025620Y-40920437D01*
X119966610Y-40687409D01*
X119870049Y-40467272D01*
X119738571Y-40266031D01*
X119575764Y-40089175D01*
X119575759Y-40089171D01*
X119575757Y-40089169D01*
X119386075Y-39941533D01*
X119386069Y-39941529D01*
X119174657Y-39827118D01*
X119174652Y-39827116D01*
X118947300Y-39749066D01*
X118769468Y-39719391D01*
X118710192Y-39709500D01*
X118469808Y-39709500D01*
X118422387Y-39717413D01*
X118232699Y-39749066D01*
X118005347Y-39827116D01*
X118005342Y-39827118D01*
X117793930Y-39941529D01*
X117793924Y-39941533D01*
X117604242Y-40089169D01*
X117604239Y-40089172D01*
X117441430Y-40266029D01*
X117441427Y-40266033D01*
X117309951Y-40467270D01*
X117213389Y-40687410D01*
X117154379Y-40920440D01*
X117134529Y-41159994D01*
X102545471Y-41159994D01*
X102525620Y-40920437D01*
X102466610Y-40687409D01*
X102370049Y-40467272D01*
X102238571Y-40266031D01*
X102075764Y-40089175D01*
X102075759Y-40089171D01*
X102075757Y-40089169D01*
X101886075Y-39941533D01*
X101886069Y-39941529D01*
X101674657Y-39827118D01*
X101674652Y-39827116D01*
X101447300Y-39749066D01*
X101269468Y-39719391D01*
X101210192Y-39709500D01*
X100969808Y-39709500D01*
X100922387Y-39717413D01*
X100732699Y-39749066D01*
X100505347Y-39827116D01*
X100505342Y-39827118D01*
X100293930Y-39941529D01*
X100293924Y-39941533D01*
X100104242Y-40089169D01*
X100104239Y-40089172D01*
X99941430Y-40266029D01*
X99941427Y-40266033D01*
X99809951Y-40467270D01*
X99713389Y-40687410D01*
X99654379Y-40920440D01*
X99634529Y-41159994D01*
X85045471Y-41159994D01*
X85025620Y-40920437D01*
X84966610Y-40687409D01*
X84870049Y-40467272D01*
X84738571Y-40266031D01*
X84575764Y-40089175D01*
X84575759Y-40089171D01*
X84575757Y-40089169D01*
X84386075Y-39941533D01*
X84386069Y-39941529D01*
X84174657Y-39827118D01*
X84174652Y-39827116D01*
X83947300Y-39749066D01*
X83769468Y-39719391D01*
X83710192Y-39709500D01*
X83469808Y-39709500D01*
X83422387Y-39717413D01*
X83232699Y-39749066D01*
X83005347Y-39827116D01*
X83005342Y-39827118D01*
X82793930Y-39941529D01*
X82793924Y-39941533D01*
X82604242Y-40089169D01*
X82604239Y-40089172D01*
X82441430Y-40266029D01*
X82441427Y-40266033D01*
X82309951Y-40467270D01*
X82213389Y-40687410D01*
X82154379Y-40920440D01*
X82134529Y-41159994D01*
X67545471Y-41159994D01*
X67525620Y-40920437D01*
X67466610Y-40687409D01*
X67370049Y-40467272D01*
X67238571Y-40266031D01*
X67075764Y-40089175D01*
X67075759Y-40089171D01*
X67075757Y-40089169D01*
X66886075Y-39941533D01*
X66886069Y-39941529D01*
X66674657Y-39827118D01*
X66674652Y-39827116D01*
X66447300Y-39749066D01*
X66269468Y-39719391D01*
X66210192Y-39709500D01*
X65969808Y-39709500D01*
X65922387Y-39717413D01*
X65732699Y-39749066D01*
X65505347Y-39827116D01*
X65505342Y-39827118D01*
X65293930Y-39941529D01*
X65293924Y-39941533D01*
X65104242Y-40089169D01*
X65104239Y-40089172D01*
X64941430Y-40266029D01*
X64941427Y-40266033D01*
X64809951Y-40467270D01*
X64713389Y-40687410D01*
X64654379Y-40920440D01*
X64634529Y-41159994D01*
X50045471Y-41159994D01*
X50025620Y-40920437D01*
X49966610Y-40687409D01*
X49870049Y-40467272D01*
X49738571Y-40266031D01*
X49575764Y-40089175D01*
X49575759Y-40089171D01*
X49575757Y-40089169D01*
X49386075Y-39941533D01*
X49386069Y-39941529D01*
X49174657Y-39827118D01*
X49174652Y-39827116D01*
X48947300Y-39749066D01*
X48769468Y-39719391D01*
X48710192Y-39709500D01*
X48469808Y-39709500D01*
X48422387Y-39717413D01*
X48232699Y-39749066D01*
X48005347Y-39827116D01*
X48005342Y-39827118D01*
X47793930Y-39941529D01*
X47793924Y-39941533D01*
X47604242Y-40089169D01*
X47604239Y-40089172D01*
X47441430Y-40266029D01*
X47441427Y-40266033D01*
X47309951Y-40467270D01*
X47213389Y-40687410D01*
X47154379Y-40920440D01*
X47134529Y-41159994D01*
X32025500Y-41159994D01*
X32025500Y-38619994D01*
X53484529Y-38619994D01*
X53484529Y-38620005D01*
X53504379Y-38859559D01*
X53563389Y-39092589D01*
X53659951Y-39312729D01*
X53791427Y-39513966D01*
X53791429Y-39513969D01*
X53954236Y-39690825D01*
X53954239Y-39690827D01*
X53954242Y-39690830D01*
X54143924Y-39838466D01*
X54143930Y-39838470D01*
X54143933Y-39838472D01*
X54317399Y-39932347D01*
X54334365Y-39941529D01*
X54355344Y-39952882D01*
X54355347Y-39952883D01*
X54582699Y-40030933D01*
X54582701Y-40030933D01*
X54582703Y-40030934D01*
X54819808Y-40070500D01*
X54819809Y-40070500D01*
X55060191Y-40070500D01*
X55060192Y-40070500D01*
X55297297Y-40030934D01*
X55524656Y-39952882D01*
X55736067Y-39838472D01*
X55925764Y-39690825D01*
X56088571Y-39513969D01*
X56220049Y-39312728D01*
X56316610Y-39092591D01*
X56375620Y-38859563D01*
X56395471Y-38620000D01*
X56395471Y-38619994D01*
X70984529Y-38619994D01*
X70984529Y-38620005D01*
X71004379Y-38859559D01*
X71063389Y-39092589D01*
X71159951Y-39312729D01*
X71291427Y-39513966D01*
X71291429Y-39513969D01*
X71454236Y-39690825D01*
X71454239Y-39690827D01*
X71454242Y-39690830D01*
X71643924Y-39838466D01*
X71643930Y-39838470D01*
X71643933Y-39838472D01*
X71817399Y-39932347D01*
X71834365Y-39941529D01*
X71855344Y-39952882D01*
X71855347Y-39952883D01*
X72082699Y-40030933D01*
X72082701Y-40030933D01*
X72082703Y-40030934D01*
X72319808Y-40070500D01*
X72319809Y-40070500D01*
X72560191Y-40070500D01*
X72560192Y-40070500D01*
X72797297Y-40030934D01*
X73024656Y-39952882D01*
X73236067Y-39838472D01*
X73425764Y-39690825D01*
X73588571Y-39513969D01*
X73720049Y-39312728D01*
X73816610Y-39092591D01*
X73875620Y-38859563D01*
X73895471Y-38620000D01*
X73895471Y-38619994D01*
X88484529Y-38619994D01*
X88484529Y-38620005D01*
X88504379Y-38859559D01*
X88563389Y-39092589D01*
X88659951Y-39312729D01*
X88791427Y-39513966D01*
X88791429Y-39513969D01*
X88954236Y-39690825D01*
X88954239Y-39690827D01*
X88954242Y-39690830D01*
X89143924Y-39838466D01*
X89143930Y-39838470D01*
X89143933Y-39838472D01*
X89317399Y-39932347D01*
X89334365Y-39941529D01*
X89355344Y-39952882D01*
X89355347Y-39952883D01*
X89582699Y-40030933D01*
X89582701Y-40030933D01*
X89582703Y-40030934D01*
X89819808Y-40070500D01*
X89819809Y-40070500D01*
X90060191Y-40070500D01*
X90060192Y-40070500D01*
X90297297Y-40030934D01*
X90524656Y-39952882D01*
X90736067Y-39838472D01*
X90925764Y-39690825D01*
X91088571Y-39513969D01*
X91220049Y-39312728D01*
X91316610Y-39092591D01*
X91375620Y-38859563D01*
X91395471Y-38620000D01*
X91395471Y-38619994D01*
X105984529Y-38619994D01*
X105984529Y-38620005D01*
X106004379Y-38859559D01*
X106063389Y-39092589D01*
X106159951Y-39312729D01*
X106291427Y-39513966D01*
X106291429Y-39513969D01*
X106454236Y-39690825D01*
X106454239Y-39690827D01*
X106454242Y-39690830D01*
X106643924Y-39838466D01*
X106643930Y-39838470D01*
X106643933Y-39838472D01*
X106817399Y-39932347D01*
X106834365Y-39941529D01*
X106855344Y-39952882D01*
X106855347Y-39952883D01*
X107082699Y-40030933D01*
X107082701Y-40030933D01*
X107082703Y-40030934D01*
X107319808Y-40070500D01*
X107319809Y-40070500D01*
X107560191Y-40070500D01*
X107560192Y-40070500D01*
X107797297Y-40030934D01*
X108024656Y-39952882D01*
X108236067Y-39838472D01*
X108425764Y-39690825D01*
X108588571Y-39513969D01*
X108720049Y-39312728D01*
X108816610Y-39092591D01*
X108875620Y-38859563D01*
X108895471Y-38620000D01*
X108895471Y-38619994D01*
X123484529Y-38619994D01*
X123484529Y-38620005D01*
X123504379Y-38859559D01*
X123563389Y-39092589D01*
X123659951Y-39312729D01*
X123791427Y-39513966D01*
X123791429Y-39513969D01*
X123954236Y-39690825D01*
X123954239Y-39690827D01*
X123954242Y-39690830D01*
X124143924Y-39838466D01*
X124143930Y-39838470D01*
X124143933Y-39838472D01*
X124317399Y-39932347D01*
X124334365Y-39941529D01*
X124355344Y-39952882D01*
X124355347Y-39952883D01*
X124582699Y-40030933D01*
X124582701Y-40030933D01*
X124582703Y-40030934D01*
X124819808Y-40070500D01*
X124819809Y-40070500D01*
X125060191Y-40070500D01*
X125060192Y-40070500D01*
X125297297Y-40030934D01*
X125524656Y-39952882D01*
X125736067Y-39838472D01*
X125925764Y-39690825D01*
X126088571Y-39513969D01*
X126220049Y-39312728D01*
X126316610Y-39092591D01*
X126375620Y-38859563D01*
X126395471Y-38620000D01*
X126375620Y-38380437D01*
X126316610Y-38147409D01*
X126220049Y-37927272D01*
X126088571Y-37726031D01*
X125925764Y-37549175D01*
X125925759Y-37549171D01*
X125925757Y-37549169D01*
X125736075Y-37401533D01*
X125736069Y-37401529D01*
X125524657Y-37287118D01*
X125524652Y-37287116D01*
X125297300Y-37209066D01*
X125119468Y-37179391D01*
X125060192Y-37169500D01*
X124819808Y-37169500D01*
X124772387Y-37177413D01*
X124582699Y-37209066D01*
X124355347Y-37287116D01*
X124355342Y-37287118D01*
X124143930Y-37401529D01*
X124143924Y-37401533D01*
X123954242Y-37549169D01*
X123954239Y-37549172D01*
X123791430Y-37726029D01*
X123791427Y-37726033D01*
X123659951Y-37927270D01*
X123563389Y-38147410D01*
X123504379Y-38380440D01*
X123484529Y-38619994D01*
X108895471Y-38619994D01*
X108875620Y-38380437D01*
X108816610Y-38147409D01*
X108720049Y-37927272D01*
X108588571Y-37726031D01*
X108425764Y-37549175D01*
X108425759Y-37549171D01*
X108425757Y-37549169D01*
X108236075Y-37401533D01*
X108236069Y-37401529D01*
X108024657Y-37287118D01*
X108024652Y-37287116D01*
X107797300Y-37209066D01*
X107619468Y-37179391D01*
X107560192Y-37169500D01*
X107319808Y-37169500D01*
X107272387Y-37177413D01*
X107082699Y-37209066D01*
X106855347Y-37287116D01*
X106855342Y-37287118D01*
X106643930Y-37401529D01*
X106643924Y-37401533D01*
X106454242Y-37549169D01*
X106454239Y-37549172D01*
X106291430Y-37726029D01*
X106291427Y-37726033D01*
X106159951Y-37927270D01*
X106063389Y-38147410D01*
X106004379Y-38380440D01*
X105984529Y-38619994D01*
X91395471Y-38619994D01*
X91375620Y-38380437D01*
X91316610Y-38147409D01*
X91220049Y-37927272D01*
X91088571Y-37726031D01*
X90925764Y-37549175D01*
X90925759Y-37549171D01*
X90925757Y-37549169D01*
X90736075Y-37401533D01*
X90736069Y-37401529D01*
X90524657Y-37287118D01*
X90524652Y-37287116D01*
X90297300Y-37209066D01*
X90119468Y-37179391D01*
X90060192Y-37169500D01*
X89819808Y-37169500D01*
X89772387Y-37177413D01*
X89582699Y-37209066D01*
X89355347Y-37287116D01*
X89355342Y-37287118D01*
X89143930Y-37401529D01*
X89143924Y-37401533D01*
X88954242Y-37549169D01*
X88954239Y-37549172D01*
X88791430Y-37726029D01*
X88791427Y-37726033D01*
X88659951Y-37927270D01*
X88563389Y-38147410D01*
X88504379Y-38380440D01*
X88484529Y-38619994D01*
X73895471Y-38619994D01*
X73875620Y-38380437D01*
X73816610Y-38147409D01*
X73720049Y-37927272D01*
X73588571Y-37726031D01*
X73425764Y-37549175D01*
X73425759Y-37549171D01*
X73425757Y-37549169D01*
X73236075Y-37401533D01*
X73236069Y-37401529D01*
X73024657Y-37287118D01*
X73024652Y-37287116D01*
X72797300Y-37209066D01*
X72619468Y-37179391D01*
X72560192Y-37169500D01*
X72319808Y-37169500D01*
X72272387Y-37177413D01*
X72082699Y-37209066D01*
X71855347Y-37287116D01*
X71855342Y-37287118D01*
X71643930Y-37401529D01*
X71643924Y-37401533D01*
X71454242Y-37549169D01*
X71454239Y-37549172D01*
X71291430Y-37726029D01*
X71291427Y-37726033D01*
X71159951Y-37927270D01*
X71063389Y-38147410D01*
X71004379Y-38380440D01*
X70984529Y-38619994D01*
X56395471Y-38619994D01*
X56375620Y-38380437D01*
X56316610Y-38147409D01*
X56220049Y-37927272D01*
X56088571Y-37726031D01*
X55925764Y-37549175D01*
X55925759Y-37549171D01*
X55925757Y-37549169D01*
X55736075Y-37401533D01*
X55736069Y-37401529D01*
X55524657Y-37287118D01*
X55524652Y-37287116D01*
X55297300Y-37209066D01*
X55119468Y-37179391D01*
X55060192Y-37169500D01*
X54819808Y-37169500D01*
X54772387Y-37177413D01*
X54582699Y-37209066D01*
X54355347Y-37287116D01*
X54355342Y-37287118D01*
X54143930Y-37401529D01*
X54143924Y-37401533D01*
X53954242Y-37549169D01*
X53954239Y-37549172D01*
X53791430Y-37726029D01*
X53791427Y-37726033D01*
X53659951Y-37927270D01*
X53563389Y-38147410D01*
X53504379Y-38380440D01*
X53484529Y-38619994D01*
X32025500Y-38619994D01*
X32025500Y-35371543D01*
X32045185Y-35304504D01*
X32061815Y-35283866D01*
X32425581Y-34920099D01*
X32486902Y-34886616D01*
X32549253Y-34889121D01*
X32703868Y-34936024D01*
X32900000Y-34955341D01*
X33096132Y-34936024D01*
X33284727Y-34878814D01*
X33458538Y-34785910D01*
X33610883Y-34660883D01*
X33735910Y-34508538D01*
X33828814Y-34334727D01*
X33886024Y-34146132D01*
X33905341Y-33950000D01*
X33886024Y-33753868D01*
X33828814Y-33565273D01*
X33828811Y-33565269D01*
X33828811Y-33565266D01*
X33735913Y-33391467D01*
X33735909Y-33391460D01*
X33610883Y-33239116D01*
X33458539Y-33114090D01*
X33458532Y-33114086D01*
X33284733Y-33021188D01*
X33284727Y-33021186D01*
X33096132Y-32963976D01*
X33096129Y-32963975D01*
X32900000Y-32944659D01*
X32703870Y-32963975D01*
X32515266Y-33021188D01*
X32341467Y-33114086D01*
X32341460Y-33114090D01*
X32189116Y-33239116D01*
X32064090Y-33391460D01*
X32064086Y-33391467D01*
X31971188Y-33565266D01*
X31913975Y-33753870D01*
X31894659Y-33950000D01*
X31913975Y-34146130D01*
X31960877Y-34300743D01*
X31961500Y-34370610D01*
X31929897Y-34424419D01*
X31394531Y-34959786D01*
X31394527Y-34959791D01*
X31348387Y-35039709D01*
X31348386Y-35039712D01*
X31324500Y-35128856D01*
X31324500Y-50959980D01*
X31304815Y-51027019D01*
X31252011Y-51072774D01*
X31216685Y-51082919D01*
X31163245Y-51089954D01*
X31163237Y-51089956D01*
X31017160Y-51150463D01*
X30891718Y-51246718D01*
X30795463Y-51372160D01*
X30734956Y-51518237D01*
X30734955Y-51518239D01*
X30719501Y-51635629D01*
X30719501Y-51635636D01*
X30719500Y-51635645D01*
X30719500Y-53514363D01*
X30734953Y-53631753D01*
X30734956Y-53631762D01*
X30795453Y-53777816D01*
X30795464Y-53777841D01*
X30891718Y-53903282D01*
X31017159Y-53999536D01*
X31017160Y-53999536D01*
X31017161Y-53999537D01*
X31045895Y-54011439D01*
X31100299Y-54055280D01*
X31122364Y-54121574D01*
X31105085Y-54189273D01*
X31053948Y-54236884D01*
X30998443Y-54250000D01*
X29901557Y-54250000D01*
X29834518Y-54230315D01*
X29788763Y-54177511D01*
X29778819Y-54108353D01*
X29807844Y-54044797D01*
X29854105Y-54011439D01*
X29864617Y-54007084D01*
X29882841Y-53999536D01*
X30008282Y-53903282D01*
X30104536Y-53777841D01*
X30165044Y-53631762D01*
X30180500Y-53514361D01*
X30180499Y-51635640D01*
X30180499Y-51635639D01*
X30180499Y-51635636D01*
X30165046Y-51518246D01*
X30165044Y-51518239D01*
X30165044Y-51518238D01*
X30104536Y-51372159D01*
X30008282Y-51246718D01*
X29882841Y-51150464D01*
X29736762Y-51089956D01*
X29736760Y-51089955D01*
X29619361Y-51074500D01*
X28740636Y-51074500D01*
X28623246Y-51089953D01*
X28623237Y-51089956D01*
X28477160Y-51150463D01*
X28351718Y-51246718D01*
X28255463Y-51372160D01*
X28194956Y-51518237D01*
X28194955Y-51518239D01*
X28179501Y-51635629D01*
X28179501Y-51635636D01*
X28179500Y-51635645D01*
X28179500Y-53514363D01*
X28194953Y-53631753D01*
X28194956Y-53631762D01*
X28255453Y-53777816D01*
X28255464Y-53777841D01*
X28351718Y-53903282D01*
X28477159Y-53999536D01*
X28477160Y-53999536D01*
X28477161Y-53999537D01*
X28505895Y-54011439D01*
X28560299Y-54055280D01*
X28582364Y-54121574D01*
X28565085Y-54189273D01*
X28513948Y-54236884D01*
X28458443Y-54250000D01*
X27361557Y-54250000D01*
X27294518Y-54230315D01*
X27248763Y-54177511D01*
X27238819Y-54108353D01*
X27267844Y-54044797D01*
X27314105Y-54011439D01*
X27324617Y-54007084D01*
X27342841Y-53999536D01*
X27468282Y-53903282D01*
X27564536Y-53777841D01*
X27625044Y-53631762D01*
X27640500Y-53514361D01*
X27640499Y-51635640D01*
X27640499Y-51635639D01*
X27640499Y-51635636D01*
X27625046Y-51518246D01*
X27625044Y-51518239D01*
X27625044Y-51518238D01*
X27564536Y-51372159D01*
X27468282Y-51246718D01*
X27342841Y-51150464D01*
X27196762Y-51089956D01*
X27196760Y-51089955D01*
X27079361Y-51074500D01*
X26200636Y-51074500D01*
X26083246Y-51089953D01*
X26083237Y-51089956D01*
X25937160Y-51150463D01*
X25811718Y-51246718D01*
X25715463Y-51372160D01*
X25654956Y-51518237D01*
X25654955Y-51518239D01*
X25639501Y-51635629D01*
X25639501Y-51635636D01*
X25639500Y-51635645D01*
X25639500Y-53514363D01*
X25654953Y-53631753D01*
X25654956Y-53631762D01*
X25715453Y-53777816D01*
X25715464Y-53777841D01*
X25811718Y-53903282D01*
X25937159Y-53999536D01*
X25937160Y-53999536D01*
X25937161Y-53999537D01*
X25965895Y-54011439D01*
X26020299Y-54055280D01*
X26042364Y-54121574D01*
X26025085Y-54189273D01*
X25973948Y-54236884D01*
X25918443Y-54250000D01*
X24821557Y-54250000D01*
X24754518Y-54230315D01*
X24708763Y-54177511D01*
X24698819Y-54108353D01*
X24727844Y-54044797D01*
X24774105Y-54011439D01*
X24784617Y-54007084D01*
X24802841Y-53999536D01*
X24928282Y-53903282D01*
X25024536Y-53777841D01*
X25085044Y-53631762D01*
X25100500Y-53514361D01*
X25100499Y-51635640D01*
X25100499Y-51635639D01*
X25100499Y-51635636D01*
X25085046Y-51518246D01*
X25085044Y-51518239D01*
X25085044Y-51518238D01*
X25024536Y-51372159D01*
X24928282Y-51246718D01*
X24802841Y-51150464D01*
X24656762Y-51089956D01*
X24656760Y-51089955D01*
X24539361Y-51074500D01*
X23660636Y-51074500D01*
X23543246Y-51089953D01*
X23543237Y-51089956D01*
X23397160Y-51150463D01*
X23271718Y-51246718D01*
X23175463Y-51372160D01*
X23114956Y-51518237D01*
X23114955Y-51518239D01*
X23099501Y-51635629D01*
X23099501Y-51635636D01*
X23099500Y-51635645D01*
X23099500Y-53514363D01*
X23114953Y-53631753D01*
X23114956Y-53631762D01*
X23175453Y-53777816D01*
X23175464Y-53777841D01*
X23271718Y-53903282D01*
X23397159Y-53999536D01*
X23397160Y-53999536D01*
X23397161Y-53999537D01*
X23425895Y-54011439D01*
X23480299Y-54055280D01*
X23502364Y-54121574D01*
X23485085Y-54189273D01*
X23433948Y-54236884D01*
X23378443Y-54250000D01*
X22281557Y-54250000D01*
X22214518Y-54230315D01*
X22168763Y-54177511D01*
X22158819Y-54108353D01*
X22187844Y-54044797D01*
X22234105Y-54011439D01*
X22244617Y-54007084D01*
X22262841Y-53999536D01*
X22388282Y-53903282D01*
X22484536Y-53777841D01*
X22545044Y-53631762D01*
X22560500Y-53514361D01*
X22560499Y-51635640D01*
X22560499Y-51635639D01*
X22560499Y-51635636D01*
X22545046Y-51518246D01*
X22545044Y-51518239D01*
X22545044Y-51518238D01*
X22484536Y-51372159D01*
X22388282Y-51246718D01*
X22262841Y-51150464D01*
X22116762Y-51089956D01*
X22116760Y-51089955D01*
X21999361Y-51074500D01*
X21120636Y-51074500D01*
X21003246Y-51089953D01*
X21003237Y-51089956D01*
X20857160Y-51150463D01*
X20731718Y-51246718D01*
X20635463Y-51372160D01*
X20574956Y-51518237D01*
X20574955Y-51518239D01*
X20559501Y-51635629D01*
X20559501Y-51635636D01*
X20559500Y-51635645D01*
X20559500Y-53514363D01*
X20574422Y-53627713D01*
X20563656Y-53696748D01*
X20517275Y-53749003D01*
X20450006Y-53767887D01*
X20383205Y-53747405D01*
X20351165Y-53716782D01*
X20224798Y-53542855D01*
X20214631Y-53526264D01*
X20116467Y-53333606D01*
X20109021Y-53315629D01*
X20042205Y-53109988D01*
X20037663Y-53091068D01*
X20003646Y-52876295D01*
X20002144Y-52859344D01*
X20000024Y-52751222D01*
X20000000Y-52748791D01*
X20000000Y-31501208D01*
X20000024Y-31498777D01*
X20000062Y-31496811D01*
X20002144Y-31390654D01*
X20003646Y-31373705D01*
X20037663Y-31158928D01*
X20042205Y-31140011D01*
X20109024Y-30934361D01*
X20116463Y-30916401D01*
X20214635Y-30723728D01*
X20224793Y-30707151D01*
X20351899Y-30532206D01*
X20364525Y-30517424D01*
X20517424Y-30364525D01*
X20532206Y-30351899D01*
X20707151Y-30224793D01*
X20723728Y-30214635D01*
X20916401Y-30116463D01*
X20934361Y-30109024D01*
X21140013Y-30042204D01*
X21158928Y-30037663D01*
X21373705Y-30003646D01*
X21390654Y-30002144D01*
X21496811Y-30000062D01*
X21498777Y-30000024D01*
X21501208Y-30000000D01*
X135998792Y-30000000D01*
X136001223Y-30000024D01*
G37*
%TD.AperFunction*%
%TD*%
%TA.AperFunction,NonConductor*%
G36*
X32190449Y-49421454D02*
G01*
X32265301Y-49447646D01*
X32265300Y-49447646D01*
X32295730Y-49450500D01*
X32295734Y-49450500D01*
X33353456Y-49450500D01*
X33420495Y-49470185D01*
X33441137Y-49486819D01*
X33873181Y-49918863D01*
X33906666Y-49980186D01*
X33909500Y-50006544D01*
X33909500Y-50954050D01*
X33889815Y-51021089D01*
X33837011Y-51066844D01*
X33801685Y-51076989D01*
X33703173Y-51089958D01*
X33557088Y-51150468D01*
X33557087Y-51150468D01*
X33431633Y-51246733D01*
X33335368Y-51372187D01*
X33335368Y-51372188D01*
X33274859Y-51518271D01*
X33274858Y-51518275D01*
X33259400Y-51635681D01*
X33259400Y-53514310D01*
X33274858Y-53631726D01*
X33335368Y-53777811D01*
X33335368Y-53777812D01*
X33335370Y-53777815D01*
X33335371Y-53777816D01*
X33431633Y-53903267D01*
X33557084Y-53999529D01*
X33557087Y-53999530D01*
X33557088Y-53999531D01*
X33585836Y-54011439D01*
X33640240Y-54055279D01*
X33662305Y-54121574D01*
X33645026Y-54189273D01*
X33593889Y-54236884D01*
X33538384Y-54250000D01*
X32441557Y-54250000D01*
X32374518Y-54230315D01*
X32328763Y-54177511D01*
X32318819Y-54108353D01*
X32347844Y-54044797D01*
X32394105Y-54011439D01*
X32404617Y-54007084D01*
X32422841Y-53999536D01*
X32548282Y-53903282D01*
X32644536Y-53777841D01*
X32705044Y-53631762D01*
X32720500Y-53514361D01*
X32720499Y-51635640D01*
X32720499Y-51635639D01*
X32720499Y-51635636D01*
X32705046Y-51518246D01*
X32705044Y-51518239D01*
X32705044Y-51518238D01*
X32644536Y-51372159D01*
X32548282Y-51246718D01*
X32422841Y-51150464D01*
X32276762Y-51089956D01*
X32276760Y-51089955D01*
X32159370Y-51074501D01*
X32159367Y-51074500D01*
X32159361Y-51074500D01*
X32159354Y-51074500D01*
X32149500Y-51074500D01*
X32082461Y-51054815D01*
X32036706Y-51002011D01*
X32025500Y-50950500D01*
X32025500Y-49538497D01*
X32045185Y-49471458D01*
X32097989Y-49425703D01*
X32167147Y-49415759D01*
X32190449Y-49421454D01*
G37*
%TD.AperFunction*%
M02*
