%TF.GenerationSoftware,KiCad,Pcbnew,7.0.8-7.0.8~ubuntu23.04.1*%
%TF.CreationDate,2023-10-25T21:16:08+10:00*%
%TF.ProjectId,SkyMusicPad,536b794d-7573-4696-9350-61642e6b6963,rev?*%
%TF.SameCoordinates,Original*%
%TF.FileFunction,Soldermask,Bot*%
%TF.FilePolarity,Negative*%
%FSLAX46Y46*%
G04 Gerber Fmt 4.6, Leading zero omitted, Abs format (unit mm)*
G04 Created by KiCad (PCBNEW 7.0.8-7.0.8~ubuntu23.04.1) date 2023-10-25 21:16:08*
%MOMM*%
%LPD*%
G01*
G04 APERTURE LIST*
G04 Aperture macros list*
%AMRoundRect*
0 Rectangle with rounded corners*
0 $1 Rounding radius*
0 $2 $3 $4 $5 $6 $7 $8 $9 X,Y pos of 4 corners*
0 Add a 4 corners polygon primitive as box body*
4,1,4,$2,$3,$4,$5,$6,$7,$8,$9,$2,$3,0*
0 Add four circle primitives for the rounded corners*
1,1,$1+$1,$2,$3*
1,1,$1+$1,$4,$5*
1,1,$1+$1,$6,$7*
1,1,$1+$1,$8,$9*
0 Add four rect primitives between the rounded corners*
20,1,$1+$1,$2,$3,$4,$5,0*
20,1,$1+$1,$4,$5,$6,$7,0*
20,1,$1+$1,$6,$7,$8,$9,0*
20,1,$1+$1,$8,$9,$2,$3,0*%
G04 Aperture macros list end*
%ADD10C,4.089400*%
%ADD11C,2.324000*%
%ADD12C,1.524000*%
%ADD13O,2.900000X3.000000*%
%ADD14RoundRect,0.243750X-0.456250X0.243750X-0.456250X-0.243750X0.456250X-0.243750X0.456250X0.243750X0*%
%ADD15RoundRect,0.400000X-0.400000X0.900000X-0.400000X-0.900000X0.400000X-0.900000X0.400000X0.900000X0*%
%ADD16RoundRect,0.400050X-0.400050X0.899950X-0.400050X-0.899950X0.400050X-0.899950X0.400050X0.899950X0*%
%ADD17RoundRect,0.400000X-0.900000X0.400000X-0.900000X-0.400000X0.900000X-0.400000X0.900000X0.400000X0*%
%ADD18RoundRect,0.393700X-0.906300X0.393700X-0.906300X-0.393700X0.906300X-0.393700X0.906300X0.393700X0*%
%ADD19C,0.800000*%
G04 APERTURE END LIST*
D10*
%TO.C,S12*%
X72500000Y-78650000D03*
D11*
X68690000Y-76110000D03*
X75040000Y-73570000D03*
%TD*%
D10*
%TO.C,S11*%
X54350000Y-78650000D03*
D11*
X50540000Y-76110000D03*
X56890000Y-73570000D03*
%TD*%
D10*
%TO.C,S9*%
X108800000Y-60500000D03*
D11*
X104990000Y-57960000D03*
X111340000Y-55420000D03*
%TD*%
D10*
%TO.C,S4*%
X108800000Y-42350000D03*
D11*
X104990000Y-39810000D03*
X111340000Y-37270000D03*
%TD*%
D10*
%TO.C,S3*%
X90650000Y-42350000D03*
D11*
X86840000Y-39810000D03*
X93190000Y-37270000D03*
%TD*%
D10*
%TO.C,S6*%
X54350000Y-60500000D03*
D11*
X50540000Y-57960000D03*
X56890000Y-55420000D03*
%TD*%
D10*
%TO.C,S14*%
X108800000Y-78650000D03*
D11*
X104990000Y-76110000D03*
X111340000Y-73570000D03*
%TD*%
D10*
%TO.C,S8*%
X90650000Y-60500000D03*
D11*
X86840000Y-57960000D03*
X93190000Y-55420000D03*
%TD*%
D12*
%TO.C,SW1*%
X29000000Y-47950000D03*
X34000000Y-47950000D03*
X31500000Y-47950000D03*
X29000000Y-33450000D03*
X34000000Y-33450000D03*
D13*
X24900000Y-40450000D03*
X38100000Y-40450000D03*
%TD*%
D10*
%TO.C,S15*%
X126950000Y-78650000D03*
D11*
X123140000Y-76110000D03*
X129490000Y-73570000D03*
%TD*%
D10*
%TO.C,S13*%
X90650000Y-78650000D03*
D11*
X86840000Y-76110000D03*
X93190000Y-73570000D03*
%TD*%
D10*
%TO.C,S5*%
X126950000Y-42350000D03*
D11*
X123140000Y-39810000D03*
X129490000Y-37270000D03*
%TD*%
D10*
%TO.C,S2*%
X72500000Y-42350000D03*
D11*
X68690000Y-39810000D03*
X75040000Y-37270000D03*
%TD*%
D10*
%TO.C,S1*%
X54350000Y-42350000D03*
D11*
X50540000Y-39810000D03*
X56890000Y-37270000D03*
%TD*%
D10*
%TO.C,S7*%
X72500000Y-60500000D03*
D11*
X68690000Y-57960000D03*
X75040000Y-55420000D03*
%TD*%
D10*
%TO.C,S10*%
X126950000Y-60500000D03*
D11*
X123140000Y-57960000D03*
X129490000Y-55420000D03*
%TD*%
D14*
%TO.C,D14*%
X127000000Y-51562500D03*
X127000000Y-53437500D03*
%TD*%
%TO.C,D11*%
X109000000Y-51562500D03*
X109000000Y-53437500D03*
%TD*%
%TO.C,D4*%
X72500000Y-33125000D03*
X72500000Y-35000000D03*
%TD*%
%TO.C,D2*%
X54000000Y-51562500D03*
X54000000Y-53437500D03*
%TD*%
%TO.C,D12*%
X109000000Y-69562500D03*
X109000000Y-71437500D03*
%TD*%
%TO.C,D9*%
X90500000Y-69562500D03*
X90500000Y-71437500D03*
%TD*%
%TO.C,D6*%
X72500000Y-69562500D03*
X72500000Y-71437500D03*
%TD*%
D15*
%TO.C,RZ1*%
X21765000Y-69115000D03*
X24305000Y-69115000D03*
X26845000Y-69115000D03*
X29385000Y-69115000D03*
X31925000Y-69115000D03*
D16*
X34465000Y-69115000D03*
X37005000Y-69115000D03*
X39545000Y-69115000D03*
X42085000Y-69115000D03*
D17*
X42895000Y-65975000D03*
D18*
X42895000Y-63435000D03*
X42895000Y-60895000D03*
X42895000Y-58355000D03*
X42895000Y-55815000D03*
D16*
X42085000Y-52675000D03*
X39545000Y-52675000D03*
X37005000Y-52675000D03*
X34465000Y-52675000D03*
X31925000Y-52675000D03*
X29385000Y-52675000D03*
X26845000Y-52675000D03*
X24305000Y-52675000D03*
X21765000Y-52675000D03*
%TD*%
D14*
%TO.C,D10*%
X109000000Y-33125000D03*
X109000000Y-35000000D03*
%TD*%
%TO.C,D7*%
X90500000Y-33125000D03*
X90500000Y-35000000D03*
%TD*%
%TO.C,D13*%
X127000000Y-33125000D03*
X127000000Y-35000000D03*
%TD*%
%TO.C,D1*%
X54000000Y-33125000D03*
X54000000Y-35000000D03*
%TD*%
%TO.C,D3*%
X54000000Y-69562500D03*
X54000000Y-71437500D03*
%TD*%
%TO.C,D8*%
X90500000Y-51562500D03*
X90500000Y-53437500D03*
%TD*%
%TO.C,D5*%
X72500000Y-51562500D03*
X72500000Y-53437500D03*
%TD*%
%TO.C,D15*%
X127000000Y-69562500D03*
X127000000Y-71437500D03*
%TD*%
D19*
X90500000Y-33000000D03*
X109000000Y-33000000D03*
X127000000Y-33000000D03*
X72500000Y-33000000D03*
X54000000Y-33000000D03*
X127000000Y-51500000D03*
X72500000Y-51500000D03*
X109000000Y-51500000D03*
X54000000Y-51500000D03*
X90500000Y-51500000D03*
X90500000Y-69500000D03*
X127000000Y-69500000D03*
X54000000Y-69500000D03*
X109000000Y-69500000D03*
X72500000Y-69500000D03*
X54000000Y-71500000D03*
X72500000Y-71500000D03*
X90500000Y-71500000D03*
X109000000Y-71500000D03*
X127000000Y-71500000D03*
M02*
