%TF.GenerationSoftware,KiCad,Pcbnew,8.99.0-unknown-e3e63fb1b8~178~ubuntu22.04.1*%
%TF.CreationDate,2024-06-01T22:38:45+10:00*%
%TF.ProjectId,SkyMusicPad,536b794d-7573-4696-9350-61642e6b6963,rev?*%
%TF.SameCoordinates,Original*%
%TF.FileFunction,Soldermask,Bot*%
%TF.FilePolarity,Negative*%
%FSLAX46Y46*%
G04 Gerber Fmt 4.6, Leading zero omitted, Abs format (unit mm)*
G04 Created by KiCad (PCBNEW 8.99.0-unknown-e3e63fb1b8~178~ubuntu22.04.1) date 2024-06-01 22:38:45*
%MOMM*%
%LPD*%
G01*
G04 APERTURE LIST*
G04 Aperture macros list*
%AMRoundRect*
0 Rectangle with rounded corners*
0 $1 Rounding radius*
0 $2 $3 $4 $5 $6 $7 $8 $9 X,Y pos of 4 corners*
0 Add a 4 corners polygon primitive as box body*
4,1,4,$2,$3,$4,$5,$6,$7,$8,$9,$2,$3,0*
0 Add four circle primitives for the rounded corners*
1,1,$1+$1,$2,$3*
1,1,$1+$1,$4,$5*
1,1,$1+$1,$6,$7*
1,1,$1+$1,$8,$9*
0 Add four rect primitives between the rounded corners*
20,1,$1+$1,$2,$3,$4,$5,0*
20,1,$1+$1,$4,$5,$6,$7,0*
20,1,$1+$1,$6,$7,$8,$9,0*
20,1,$1+$1,$8,$9,$2,$3,0*%
G04 Aperture macros list end*
%ADD10C,1.700000*%
%ADD11C,4.000000*%
%ADD12C,2.200000*%
%ADD13RoundRect,0.400000X0.400000X-0.900000X0.400000X0.900000X-0.400000X0.900000X-0.400000X-0.900000X0*%
%ADD14RoundRect,0.400050X0.400050X-0.899950X0.400050X0.899950X-0.400050X0.899950X-0.400050X-0.899950X0*%
%ADD15RoundRect,0.400000X0.900000X-0.400000X0.900000X0.400000X-0.900000X0.400000X-0.900000X-0.400000X0*%
%ADD16RoundRect,0.393700X0.906300X-0.393700X0.906300X0.393700X-0.906300X0.393700X-0.906300X-0.393700X0*%
%ADD17C,0.700000*%
%ADD18C,4.400000*%
%ADD19RoundRect,0.250000X0.550000X-0.550000X0.550000X0.550000X-0.550000X0.550000X-0.550000X-0.550000X0*%
%ADD20C,1.600000*%
%ADD21O,3.000000X4.100000*%
%ADD22RoundRect,0.250000X0.600000X-0.400000X0.600000X0.400000X-0.600000X0.400000X-0.600000X-0.400000X0*%
G04 APERTURE END LIST*
D10*
%TO.C,SW15*%
X145920000Y-74000000D03*
D11*
X151000000Y-74000000D03*
D10*
X156080000Y-74000000D03*
D12*
X153540000Y-68920000D03*
X147190000Y-71460000D03*
%TD*%
D10*
%TO.C,SW10*%
X126920000Y-36000000D03*
D11*
X132000000Y-36000000D03*
D10*
X137080000Y-36000000D03*
D12*
X134540000Y-30920000D03*
X128190000Y-33460000D03*
%TD*%
D13*
%TO.C,RZ1*%
X41590000Y-46780000D03*
X44130000Y-46780000D03*
X46670000Y-46780000D03*
X49210000Y-46780000D03*
X51750000Y-46780000D03*
D14*
X54290000Y-46780000D03*
X56830000Y-46780000D03*
X59370000Y-46780000D03*
X61910000Y-46780000D03*
D15*
X62720000Y-49920000D03*
D16*
X62720000Y-52460000D03*
X62720000Y-55000000D03*
X62720000Y-57540000D03*
X62720000Y-60080000D03*
D14*
X61910000Y-63220000D03*
X59370000Y-63220000D03*
X56830000Y-63220000D03*
X54290000Y-63220000D03*
X51750000Y-63220000D03*
X49210000Y-63220000D03*
X46670000Y-63220000D03*
X44130000Y-63220000D03*
X41590000Y-63220000D03*
%TD*%
D10*
%TO.C,SW2*%
X69920000Y-55000000D03*
D11*
X75000000Y-55000000D03*
D10*
X80080000Y-55000000D03*
D12*
X77540000Y-49920000D03*
X71190000Y-52460000D03*
%TD*%
D10*
%TO.C,SW1*%
X69920000Y-36000000D03*
D11*
X75000000Y-36000000D03*
D10*
X80080000Y-36000000D03*
D12*
X77540000Y-30920000D03*
X71190000Y-33460000D03*
%TD*%
D17*
%TO.C,H3*%
X43100000Y-81250000D03*
X43583274Y-80083274D03*
X43583274Y-82416726D03*
X44750000Y-79600000D03*
D18*
X44750000Y-81250000D03*
D17*
X44750000Y-82900000D03*
X45916726Y-80083274D03*
X45916726Y-82416726D03*
X46400000Y-81250000D03*
%TD*%
D10*
%TO.C,SW5*%
X88920000Y-55000000D03*
D11*
X94000000Y-55000000D03*
D10*
X99080000Y-55000000D03*
D12*
X96540000Y-49920000D03*
X90190000Y-52460000D03*
%TD*%
D10*
%TO.C,SW12*%
X126920000Y-74000000D03*
D11*
X132000000Y-74000000D03*
D10*
X137080000Y-74000000D03*
D12*
X134540000Y-68920000D03*
X128190000Y-71460000D03*
%TD*%
D19*
%TO.C,SW16*%
X53050000Y-42000000D03*
D20*
X58050000Y-42000000D03*
X55550000Y-42000000D03*
X53050000Y-27500000D03*
X58050000Y-27500000D03*
D21*
X49950000Y-34500000D03*
X61150000Y-34500000D03*
%TD*%
D17*
%TO.C,H2*%
X163100000Y-28750000D03*
X163583274Y-27583274D03*
X163583274Y-29916726D03*
X164750000Y-27100000D03*
D18*
X164750000Y-28750000D03*
D17*
X164750000Y-30400000D03*
X165916726Y-27583274D03*
X165916726Y-29916726D03*
X166400000Y-28750000D03*
%TD*%
D10*
%TO.C,SW8*%
X107920000Y-55000000D03*
D11*
X113000000Y-55000000D03*
D10*
X118080000Y-55000000D03*
D12*
X115540000Y-49920000D03*
X109190000Y-52460000D03*
%TD*%
D10*
%TO.C,SW13*%
X145920000Y-36000000D03*
D11*
X151000000Y-36000000D03*
D10*
X156080000Y-36000000D03*
D12*
X153540000Y-30920000D03*
X147190000Y-33460000D03*
%TD*%
D10*
%TO.C,SW4*%
X88920000Y-36000000D03*
D11*
X94000000Y-36000000D03*
D10*
X99080000Y-36000000D03*
D12*
X96540000Y-30920000D03*
X90190000Y-33460000D03*
%TD*%
D10*
%TO.C,SW9*%
X107920000Y-74000000D03*
D11*
X113000000Y-74000000D03*
D10*
X118080000Y-74000000D03*
D12*
X115540000Y-68920000D03*
X109190000Y-71460000D03*
%TD*%
D10*
%TO.C,SW6*%
X88920000Y-74000000D03*
D11*
X94000000Y-74000000D03*
D10*
X99080000Y-74000000D03*
D12*
X96540000Y-68920000D03*
X90190000Y-71460000D03*
%TD*%
D10*
%TO.C,SW3*%
X69920000Y-74000000D03*
D11*
X75000000Y-74000000D03*
D10*
X80080000Y-74000000D03*
D12*
X77540000Y-68920000D03*
X71190000Y-71460000D03*
%TD*%
D10*
%TO.C,SW11*%
X126920000Y-55000000D03*
D11*
X132000000Y-55000000D03*
D10*
X137080000Y-55000000D03*
D12*
X134540000Y-49920000D03*
X128190000Y-52460000D03*
%TD*%
D10*
%TO.C,SW7*%
X107920000Y-36000000D03*
D11*
X113000000Y-36000000D03*
D10*
X118080000Y-36000000D03*
D12*
X115540000Y-30920000D03*
X109190000Y-33460000D03*
%TD*%
D17*
%TO.C,H1*%
X43100000Y-28750000D03*
X43583274Y-27583274D03*
X43583274Y-29916726D03*
X44750000Y-27100000D03*
D18*
X44750000Y-28750000D03*
D17*
X44750000Y-30400000D03*
X45916726Y-27583274D03*
X45916726Y-29916726D03*
X46400000Y-28750000D03*
%TD*%
%TO.C,H4*%
X163100000Y-81250000D03*
X163583274Y-80083274D03*
X163583274Y-82416726D03*
X164750000Y-79600000D03*
D18*
X164750000Y-81250000D03*
D17*
X164750000Y-82900000D03*
X165916726Y-80083274D03*
X165916726Y-82416726D03*
X166400000Y-81250000D03*
%TD*%
D10*
%TO.C,SW14*%
X145920000Y-55000000D03*
D11*
X151000000Y-55000000D03*
D10*
X156080000Y-55000000D03*
D12*
X153540000Y-49920000D03*
X147190000Y-52460000D03*
%TD*%
D22*
%TO.C,D2*%
X70000000Y-60750000D03*
X70000000Y-57250000D03*
%TD*%
%TO.C,D1*%
X70000000Y-41750000D03*
X70000000Y-38250000D03*
%TD*%
%TO.C,D9*%
X108000000Y-79750000D03*
X108000000Y-76250000D03*
%TD*%
%TO.C,D15*%
X146000000Y-79750000D03*
X146000000Y-76250000D03*
%TD*%
%TO.C,D8*%
X108000000Y-60750000D03*
X108000000Y-57250000D03*
%TD*%
%TO.C,D6*%
X89000000Y-79750000D03*
X89000000Y-76250000D03*
%TD*%
%TO.C,D7*%
X108000000Y-41750000D03*
X108000000Y-38250000D03*
%TD*%
%TO.C,D4*%
X89000000Y-41750000D03*
X89000000Y-38250000D03*
%TD*%
%TO.C,D10*%
X127000000Y-41750000D03*
X127000000Y-38250000D03*
%TD*%
%TO.C,D13*%
X146000000Y-41750000D03*
X146000000Y-38250000D03*
%TD*%
%TO.C,D14*%
X146000000Y-60750000D03*
X146000000Y-57250000D03*
%TD*%
%TO.C,D3*%
X70000000Y-79750000D03*
X70000000Y-76250000D03*
%TD*%
%TO.C,D12*%
X127000000Y-79750000D03*
X127000000Y-76250000D03*
%TD*%
%TO.C,D5*%
X89000000Y-60750000D03*
X89000000Y-57250000D03*
%TD*%
%TO.C,D11*%
X127000000Y-60750000D03*
X127000000Y-57250000D03*
%TD*%
M02*
