%TF.GenerationSoftware,KiCad,Pcbnew,8.99.0-unknown-5d7e96841b~178~ubuntu22.04.1*%
%TF.CreationDate,2024-04-19T18:01:46+10:00*%
%TF.ProjectId,SkyMusicPad,536b794d-7573-4696-9350-61642e6b6963,rev?*%
%TF.SameCoordinates,Original*%
%TF.FileFunction,Drillmap*%
%TF.FilePolarity,Positive*%
%FSLAX45Y45*%
G04 Gerber Fmt 4.5, Leading zero omitted, Abs format (unit mm)*
G04 Created by KiCad (PCBNEW 8.99.0-unknown-5d7e96841b~178~ubuntu22.04.1) date 2024-04-19 18:01:46*
%MOMM*%
%LPD*%
G01*
G04 APERTURE LIST*
%ADD10C,0.100000*%
%ADD11C,0.200000*%
%ADD12C,0.175000*%
%ADD13C,0.400000*%
G04 APERTURE END LIST*
D10*
X2000000Y-6850000D02*
G75*
G02*
X2150000Y-6700000I150000J0D01*
G01*
X4100000Y-6550000D02*
G75*
G02*
X3950000Y-6700000I-150000J0D01*
G01*
X13750000Y-9100000D02*
G75*
G02*
X13600000Y-9250000I-150000J0D01*
G01*
X2000000Y-3150000D02*
G75*
G02*
X2150000Y-3000000I150000J0D01*
G01*
X4100000Y-6550000D02*
X4100000Y-5575000D01*
X13600000Y-3000000D02*
G75*
G02*
X13750000Y-3150000I0J-150000D01*
G01*
X2150000Y-3000000D02*
X13600000Y-3000000D01*
X13750000Y-3150000D02*
X13750000Y-9100000D01*
X2150000Y-9250000D02*
G75*
G02*
X2000000Y-9100000I0J150000D01*
G01*
X2150000Y-5425000D02*
G75*
G02*
X2000000Y-5275000I0J150000D01*
G01*
X3950000Y-5425000D02*
G75*
G02*
X4100000Y-5575000I0J-150000D01*
G01*
X3950000Y-5425000D02*
X2150000Y-5425000D01*
X2000000Y-5275000D02*
X2000000Y-3150000D01*
X2000000Y-9100000D02*
X2000000Y-6850000D01*
X2150000Y-6700000D02*
X3950000Y-6700000D01*
X13600000Y-9250000D02*
X2150000Y-9250000D01*
D11*
D12*
X4644500Y-4282500D02*
X4819500Y-4457500D01*
X4819500Y-4282500D02*
X4644500Y-4457500D01*
X4644500Y-6036500D02*
X4819500Y-6211500D01*
X4819500Y-6036500D02*
X4644500Y-6211500D01*
X4644500Y-7782500D02*
X4819500Y-7957500D01*
X4819500Y-7782500D02*
X4644500Y-7957500D01*
X5660500Y-4282500D02*
X5835500Y-4457500D01*
X5835500Y-4282500D02*
X5660500Y-4457500D01*
X5660500Y-6036500D02*
X5835500Y-6211500D01*
X5835500Y-6036500D02*
X5660500Y-6211500D01*
X5660500Y-7782500D02*
X5835500Y-7957500D01*
X5835500Y-7782500D02*
X5660500Y-7957500D01*
X6394500Y-4282500D02*
X6569500Y-4457500D01*
X6569500Y-4282500D02*
X6394500Y-4457500D01*
X6394500Y-6036500D02*
X6569500Y-6211500D01*
X6569500Y-6036500D02*
X6394500Y-6211500D01*
X6394500Y-7782500D02*
X6569500Y-7957500D01*
X6569500Y-7782500D02*
X6394500Y-7957500D01*
X7410500Y-4282500D02*
X7585500Y-4457500D01*
X7585500Y-4282500D02*
X7410500Y-4457500D01*
X7410500Y-6036500D02*
X7585500Y-6211500D01*
X7585500Y-6036500D02*
X7410500Y-6211500D01*
X7410500Y-7782500D02*
X7585500Y-7957500D01*
X7585500Y-7782500D02*
X7410500Y-7957500D01*
X8144500Y-4282500D02*
X8319500Y-4457500D01*
X8319500Y-4282500D02*
X8144500Y-4457500D01*
X8144500Y-6036500D02*
X8319500Y-6211500D01*
X8319500Y-6036500D02*
X8144500Y-6211500D01*
X8144500Y-7782500D02*
X8319500Y-7957500D01*
X8319500Y-7782500D02*
X8144500Y-7957500D01*
X9160500Y-4282500D02*
X9335500Y-4457500D01*
X9335500Y-4282500D02*
X9160500Y-4457500D01*
X9160500Y-6036500D02*
X9335500Y-6211500D01*
X9335500Y-6036500D02*
X9160500Y-6211500D01*
X9160500Y-7782500D02*
X9335500Y-7957500D01*
X9335500Y-7782500D02*
X9160500Y-7957500D01*
X9894500Y-4282500D02*
X10069500Y-4457500D01*
X10069500Y-4282500D02*
X9894500Y-4457500D01*
X9894500Y-6036500D02*
X10069500Y-6211500D01*
X10069500Y-6036500D02*
X9894500Y-6211500D01*
X9894500Y-7782500D02*
X10069500Y-7957500D01*
X10069500Y-7782500D02*
X9894500Y-7957500D01*
X10910500Y-4282500D02*
X11085500Y-4457500D01*
X11085500Y-4282500D02*
X10910500Y-4457500D01*
X10910500Y-6036500D02*
X11085500Y-6211500D01*
X11085500Y-6036500D02*
X10910500Y-6211500D01*
X10910500Y-7782500D02*
X11085500Y-7957500D01*
X11085500Y-7782500D02*
X10910500Y-7957500D01*
X11644500Y-4282500D02*
X11819500Y-4457500D01*
X11819500Y-4282500D02*
X11644500Y-4457500D01*
X11644500Y-6036500D02*
X11819500Y-6211500D01*
X11819500Y-6036500D02*
X11644500Y-6211500D01*
X11644500Y-7782500D02*
X11819500Y-7957500D01*
X11819500Y-7782500D02*
X11644500Y-7957500D01*
X12660500Y-4282500D02*
X12835500Y-4457500D01*
X12835500Y-4282500D02*
X12660500Y-4457500D01*
X12660500Y-6036500D02*
X12835500Y-6211500D01*
X12835500Y-6036500D02*
X12660500Y-6211500D01*
X12660500Y-7782500D02*
X12835500Y-7957500D01*
X12835500Y-7782500D02*
X12660500Y-7957500D01*
D13*
X5440000Y-4370000D02*
G75*
G02*
X5040000Y-4370000I-200000J0D01*
G01*
X5040000Y-4370000D02*
G75*
G02*
X5440000Y-4370000I200000J0D01*
G01*
X5440000Y-6124000D02*
G75*
G02*
X5040000Y-6124000I-200000J0D01*
G01*
X5040000Y-6124000D02*
G75*
G02*
X5440000Y-6124000I200000J0D01*
G01*
X5440000Y-7870000D02*
G75*
G02*
X5040000Y-7870000I-200000J0D01*
G01*
X5040000Y-7870000D02*
G75*
G02*
X5440000Y-7870000I200000J0D01*
G01*
X7190000Y-4370000D02*
G75*
G02*
X6790000Y-4370000I-200000J0D01*
G01*
X6790000Y-4370000D02*
G75*
G02*
X7190000Y-4370000I200000J0D01*
G01*
X7190000Y-6124000D02*
G75*
G02*
X6790000Y-6124000I-200000J0D01*
G01*
X6790000Y-6124000D02*
G75*
G02*
X7190000Y-6124000I200000J0D01*
G01*
X7190000Y-7870000D02*
G75*
G02*
X6790000Y-7870000I-200000J0D01*
G01*
X6790000Y-7870000D02*
G75*
G02*
X7190000Y-7870000I200000J0D01*
G01*
X8940000Y-4370000D02*
G75*
G02*
X8540000Y-4370000I-200000J0D01*
G01*
X8540000Y-4370000D02*
G75*
G02*
X8940000Y-4370000I200000J0D01*
G01*
X8940000Y-6124000D02*
G75*
G02*
X8540000Y-6124000I-200000J0D01*
G01*
X8540000Y-6124000D02*
G75*
G02*
X8940000Y-6124000I200000J0D01*
G01*
X8940000Y-7870000D02*
G75*
G02*
X8540000Y-7870000I-200000J0D01*
G01*
X8540000Y-7870000D02*
G75*
G02*
X8940000Y-7870000I200000J0D01*
G01*
X10690000Y-4370000D02*
G75*
G02*
X10290000Y-4370000I-200000J0D01*
G01*
X10290000Y-4370000D02*
G75*
G02*
X10690000Y-4370000I200000J0D01*
G01*
X10690000Y-6124000D02*
G75*
G02*
X10290000Y-6124000I-200000J0D01*
G01*
X10290000Y-6124000D02*
G75*
G02*
X10690000Y-6124000I200000J0D01*
G01*
X10690000Y-7870000D02*
G75*
G02*
X10290000Y-7870000I-200000J0D01*
G01*
X10290000Y-7870000D02*
G75*
G02*
X10690000Y-7870000I200000J0D01*
G01*
X12440000Y-4370000D02*
G75*
G02*
X12040000Y-4370000I-200000J0D01*
G01*
X12040000Y-4370000D02*
G75*
G02*
X12440000Y-4370000I200000J0D01*
G01*
X12440000Y-6124000D02*
G75*
G02*
X12040000Y-6124000I-200000J0D01*
G01*
X12040000Y-6124000D02*
G75*
G02*
X12440000Y-6124000I200000J0D01*
G01*
X12440000Y-7870000D02*
G75*
G02*
X12040000Y-7870000I-200000J0D01*
G01*
X12040000Y-7870000D02*
G75*
G02*
X12440000Y-7870000I200000J0D01*
G01*
D11*
X2255777Y-9566484D02*
X2255777Y-9366484D01*
X2255777Y-9366484D02*
X2303396Y-9366484D01*
X2303396Y-9366484D02*
X2331967Y-9376008D01*
X2331967Y-9376008D02*
X2351015Y-9395055D01*
X2351015Y-9395055D02*
X2360539Y-9414103D01*
X2360539Y-9414103D02*
X2370063Y-9452198D01*
X2370063Y-9452198D02*
X2370063Y-9480770D01*
X2370063Y-9480770D02*
X2360539Y-9518865D01*
X2360539Y-9518865D02*
X2351015Y-9537912D01*
X2351015Y-9537912D02*
X2331967Y-9556960D01*
X2331967Y-9556960D02*
X2303396Y-9566484D01*
X2303396Y-9566484D02*
X2255777Y-9566484D01*
X2455777Y-9566484D02*
X2455777Y-9433150D01*
X2455777Y-9471246D02*
X2465301Y-9452198D01*
X2465301Y-9452198D02*
X2474824Y-9442674D01*
X2474824Y-9442674D02*
X2493872Y-9433150D01*
X2493872Y-9433150D02*
X2512920Y-9433150D01*
X2579586Y-9566484D02*
X2579586Y-9433150D01*
X2579586Y-9366484D02*
X2570063Y-9376008D01*
X2570063Y-9376008D02*
X2579586Y-9385531D01*
X2579586Y-9385531D02*
X2589110Y-9376008D01*
X2589110Y-9376008D02*
X2579586Y-9366484D01*
X2579586Y-9366484D02*
X2579586Y-9385531D01*
X2703396Y-9566484D02*
X2684348Y-9556960D01*
X2684348Y-9556960D02*
X2674824Y-9537912D01*
X2674824Y-9537912D02*
X2674824Y-9366484D01*
X2808158Y-9566484D02*
X2789110Y-9556960D01*
X2789110Y-9556960D02*
X2779586Y-9537912D01*
X2779586Y-9537912D02*
X2779586Y-9366484D01*
X3036729Y-9566484D02*
X3036729Y-9366484D01*
X3036729Y-9366484D02*
X3103396Y-9509341D01*
X3103396Y-9509341D02*
X3170062Y-9366484D01*
X3170062Y-9366484D02*
X3170062Y-9566484D01*
X3351015Y-9566484D02*
X3351015Y-9461722D01*
X3351015Y-9461722D02*
X3341491Y-9442674D01*
X3341491Y-9442674D02*
X3322443Y-9433150D01*
X3322443Y-9433150D02*
X3284348Y-9433150D01*
X3284348Y-9433150D02*
X3265301Y-9442674D01*
X3351015Y-9556960D02*
X3331967Y-9566484D01*
X3331967Y-9566484D02*
X3284348Y-9566484D01*
X3284348Y-9566484D02*
X3265301Y-9556960D01*
X3265301Y-9556960D02*
X3255777Y-9537912D01*
X3255777Y-9537912D02*
X3255777Y-9518865D01*
X3255777Y-9518865D02*
X3265301Y-9499817D01*
X3265301Y-9499817D02*
X3284348Y-9490293D01*
X3284348Y-9490293D02*
X3331967Y-9490293D01*
X3331967Y-9490293D02*
X3351015Y-9480770D01*
X3446253Y-9433150D02*
X3446253Y-9633150D01*
X3446253Y-9442674D02*
X3465301Y-9433150D01*
X3465301Y-9433150D02*
X3503396Y-9433150D01*
X3503396Y-9433150D02*
X3522443Y-9442674D01*
X3522443Y-9442674D02*
X3531967Y-9452198D01*
X3531967Y-9452198D02*
X3541491Y-9471246D01*
X3541491Y-9471246D02*
X3541491Y-9528389D01*
X3541491Y-9528389D02*
X3531967Y-9547436D01*
X3531967Y-9547436D02*
X3522443Y-9556960D01*
X3522443Y-9556960D02*
X3503396Y-9566484D01*
X3503396Y-9566484D02*
X3465301Y-9566484D01*
X3465301Y-9566484D02*
X3446253Y-9556960D01*
X3627205Y-9547436D02*
X3636729Y-9556960D01*
X3636729Y-9556960D02*
X3627205Y-9566484D01*
X3627205Y-9566484D02*
X3617682Y-9556960D01*
X3617682Y-9556960D02*
X3627205Y-9547436D01*
X3627205Y-9547436D02*
X3627205Y-9566484D01*
X3627205Y-9442674D02*
X3636729Y-9452198D01*
X3636729Y-9452198D02*
X3627205Y-9461722D01*
X3627205Y-9461722D02*
X3617682Y-9452198D01*
X3617682Y-9452198D02*
X3627205Y-9442674D01*
X3627205Y-9442674D02*
X3627205Y-9461722D01*
D12*
X1820000Y-9807500D02*
X1995000Y-9982500D01*
X1995000Y-9807500D02*
X1820000Y-9982500D01*
D11*
X2360539Y-9986484D02*
X2246253Y-9986484D01*
X2303396Y-9986484D02*
X2303396Y-9786484D01*
X2303396Y-9786484D02*
X2284348Y-9815055D01*
X2284348Y-9815055D02*
X2265301Y-9834103D01*
X2265301Y-9834103D02*
X2246253Y-9843627D01*
X2446253Y-9967436D02*
X2455777Y-9976960D01*
X2455777Y-9976960D02*
X2446253Y-9986484D01*
X2446253Y-9986484D02*
X2436729Y-9976960D01*
X2436729Y-9976960D02*
X2446253Y-9967436D01*
X2446253Y-9967436D02*
X2446253Y-9986484D01*
X2522444Y-9786484D02*
X2655777Y-9786484D01*
X2655777Y-9786484D02*
X2570063Y-9986484D01*
X2827205Y-9786484D02*
X2731967Y-9786484D01*
X2731967Y-9786484D02*
X2722444Y-9881722D01*
X2722444Y-9881722D02*
X2731967Y-9872198D01*
X2731967Y-9872198D02*
X2751015Y-9862674D01*
X2751015Y-9862674D02*
X2798634Y-9862674D01*
X2798634Y-9862674D02*
X2817682Y-9872198D01*
X2817682Y-9872198D02*
X2827205Y-9881722D01*
X2827205Y-9881722D02*
X2836729Y-9900770D01*
X2836729Y-9900770D02*
X2836729Y-9948389D01*
X2836729Y-9948389D02*
X2827205Y-9967436D01*
X2827205Y-9967436D02*
X2817682Y-9976960D01*
X2817682Y-9976960D02*
X2798634Y-9986484D01*
X2798634Y-9986484D02*
X2751015Y-9986484D01*
X2751015Y-9986484D02*
X2731967Y-9976960D01*
X2731967Y-9976960D02*
X2722444Y-9967436D01*
X2960539Y-9786484D02*
X2979586Y-9786484D01*
X2979586Y-9786484D02*
X2998634Y-9796008D01*
X2998634Y-9796008D02*
X3008158Y-9805531D01*
X3008158Y-9805531D02*
X3017682Y-9824579D01*
X3017682Y-9824579D02*
X3027205Y-9862674D01*
X3027205Y-9862674D02*
X3027205Y-9910293D01*
X3027205Y-9910293D02*
X3017682Y-9948389D01*
X3017682Y-9948389D02*
X3008158Y-9967436D01*
X3008158Y-9967436D02*
X2998634Y-9976960D01*
X2998634Y-9976960D02*
X2979586Y-9986484D01*
X2979586Y-9986484D02*
X2960539Y-9986484D01*
X2960539Y-9986484D02*
X2941491Y-9976960D01*
X2941491Y-9976960D02*
X2931967Y-9967436D01*
X2931967Y-9967436D02*
X2922443Y-9948389D01*
X2922443Y-9948389D02*
X2912920Y-9910293D01*
X2912920Y-9910293D02*
X2912920Y-9862674D01*
X2912920Y-9862674D02*
X2922443Y-9824579D01*
X2922443Y-9824579D02*
X2931967Y-9805531D01*
X2931967Y-9805531D02*
X2941491Y-9796008D01*
X2941491Y-9796008D02*
X2960539Y-9786484D01*
X3112920Y-9986484D02*
X3112920Y-9853150D01*
X3112920Y-9872198D02*
X3122443Y-9862674D01*
X3122443Y-9862674D02*
X3141491Y-9853150D01*
X3141491Y-9853150D02*
X3170063Y-9853150D01*
X3170063Y-9853150D02*
X3189110Y-9862674D01*
X3189110Y-9862674D02*
X3198634Y-9881722D01*
X3198634Y-9881722D02*
X3198634Y-9986484D01*
X3198634Y-9881722D02*
X3208158Y-9862674D01*
X3208158Y-9862674D02*
X3227205Y-9853150D01*
X3227205Y-9853150D02*
X3255777Y-9853150D01*
X3255777Y-9853150D02*
X3274824Y-9862674D01*
X3274824Y-9862674D02*
X3284348Y-9881722D01*
X3284348Y-9881722D02*
X3284348Y-9986484D01*
X3379586Y-9986484D02*
X3379586Y-9853150D01*
X3379586Y-9872198D02*
X3389110Y-9862674D01*
X3389110Y-9862674D02*
X3408158Y-9853150D01*
X3408158Y-9853150D02*
X3436729Y-9853150D01*
X3436729Y-9853150D02*
X3455777Y-9862674D01*
X3455777Y-9862674D02*
X3465301Y-9881722D01*
X3465301Y-9881722D02*
X3465301Y-9986484D01*
X3465301Y-9881722D02*
X3474824Y-9862674D01*
X3474824Y-9862674D02*
X3493872Y-9853150D01*
X3493872Y-9853150D02*
X3522443Y-9853150D01*
X3522443Y-9853150D02*
X3541491Y-9862674D01*
X3541491Y-9862674D02*
X3551015Y-9881722D01*
X3551015Y-9881722D02*
X3551015Y-9986484D01*
X3941491Y-9776960D02*
X3770063Y-10034103D01*
X4198634Y-9786484D02*
X4217682Y-9786484D01*
X4217682Y-9786484D02*
X4236729Y-9796008D01*
X4236729Y-9796008D02*
X4246253Y-9805531D01*
X4246253Y-9805531D02*
X4255777Y-9824579D01*
X4255777Y-9824579D02*
X4265301Y-9862674D01*
X4265301Y-9862674D02*
X4265301Y-9910293D01*
X4265301Y-9910293D02*
X4255777Y-9948389D01*
X4255777Y-9948389D02*
X4246253Y-9967436D01*
X4246253Y-9967436D02*
X4236729Y-9976960D01*
X4236729Y-9976960D02*
X4217682Y-9986484D01*
X4217682Y-9986484D02*
X4198634Y-9986484D01*
X4198634Y-9986484D02*
X4179586Y-9976960D01*
X4179586Y-9976960D02*
X4170063Y-9967436D01*
X4170063Y-9967436D02*
X4160539Y-9948389D01*
X4160539Y-9948389D02*
X4151015Y-9910293D01*
X4151015Y-9910293D02*
X4151015Y-9862674D01*
X4151015Y-9862674D02*
X4160539Y-9824579D01*
X4160539Y-9824579D02*
X4170063Y-9805531D01*
X4170063Y-9805531D02*
X4179586Y-9796008D01*
X4179586Y-9796008D02*
X4198634Y-9786484D01*
X4351015Y-9967436D02*
X4360539Y-9976960D01*
X4360539Y-9976960D02*
X4351015Y-9986484D01*
X4351015Y-9986484D02*
X4341491Y-9976960D01*
X4341491Y-9976960D02*
X4351015Y-9967436D01*
X4351015Y-9967436D02*
X4351015Y-9986484D01*
X4484348Y-9786484D02*
X4503396Y-9786484D01*
X4503396Y-9786484D02*
X4522444Y-9796008D01*
X4522444Y-9796008D02*
X4531968Y-9805531D01*
X4531968Y-9805531D02*
X4541491Y-9824579D01*
X4541491Y-9824579D02*
X4551015Y-9862674D01*
X4551015Y-9862674D02*
X4551015Y-9910293D01*
X4551015Y-9910293D02*
X4541491Y-9948389D01*
X4541491Y-9948389D02*
X4531968Y-9967436D01*
X4531968Y-9967436D02*
X4522444Y-9976960D01*
X4522444Y-9976960D02*
X4503396Y-9986484D01*
X4503396Y-9986484D02*
X4484348Y-9986484D01*
X4484348Y-9986484D02*
X4465301Y-9976960D01*
X4465301Y-9976960D02*
X4455777Y-9967436D01*
X4455777Y-9967436D02*
X4446253Y-9948389D01*
X4446253Y-9948389D02*
X4436729Y-9910293D01*
X4436729Y-9910293D02*
X4436729Y-9862674D01*
X4436729Y-9862674D02*
X4446253Y-9824579D01*
X4446253Y-9824579D02*
X4455777Y-9805531D01*
X4455777Y-9805531D02*
X4465301Y-9796008D01*
X4465301Y-9796008D02*
X4484348Y-9786484D01*
X4722444Y-9786484D02*
X4684348Y-9786484D01*
X4684348Y-9786484D02*
X4665301Y-9796008D01*
X4665301Y-9796008D02*
X4655777Y-9805531D01*
X4655777Y-9805531D02*
X4636729Y-9834103D01*
X4636729Y-9834103D02*
X4627206Y-9872198D01*
X4627206Y-9872198D02*
X4627206Y-9948389D01*
X4627206Y-9948389D02*
X4636729Y-9967436D01*
X4636729Y-9967436D02*
X4646253Y-9976960D01*
X4646253Y-9976960D02*
X4665301Y-9986484D01*
X4665301Y-9986484D02*
X4703396Y-9986484D01*
X4703396Y-9986484D02*
X4722444Y-9976960D01*
X4722444Y-9976960D02*
X4731968Y-9967436D01*
X4731968Y-9967436D02*
X4741491Y-9948389D01*
X4741491Y-9948389D02*
X4741491Y-9900770D01*
X4741491Y-9900770D02*
X4731968Y-9881722D01*
X4731968Y-9881722D02*
X4722444Y-9872198D01*
X4722444Y-9872198D02*
X4703396Y-9862674D01*
X4703396Y-9862674D02*
X4665301Y-9862674D01*
X4665301Y-9862674D02*
X4646253Y-9872198D01*
X4646253Y-9872198D02*
X4636729Y-9881722D01*
X4636729Y-9881722D02*
X4627206Y-9900770D01*
X4855777Y-9872198D02*
X4836729Y-9862674D01*
X4836729Y-9862674D02*
X4827206Y-9853150D01*
X4827206Y-9853150D02*
X4817682Y-9834103D01*
X4817682Y-9834103D02*
X4817682Y-9824579D01*
X4817682Y-9824579D02*
X4827206Y-9805531D01*
X4827206Y-9805531D02*
X4836729Y-9796008D01*
X4836729Y-9796008D02*
X4855777Y-9786484D01*
X4855777Y-9786484D02*
X4893872Y-9786484D01*
X4893872Y-9786484D02*
X4912920Y-9796008D01*
X4912920Y-9796008D02*
X4922444Y-9805531D01*
X4922444Y-9805531D02*
X4931968Y-9824579D01*
X4931968Y-9824579D02*
X4931968Y-9834103D01*
X4931968Y-9834103D02*
X4922444Y-9853150D01*
X4922444Y-9853150D02*
X4912920Y-9862674D01*
X4912920Y-9862674D02*
X4893872Y-9872198D01*
X4893872Y-9872198D02*
X4855777Y-9872198D01*
X4855777Y-9872198D02*
X4836729Y-9881722D01*
X4836729Y-9881722D02*
X4827206Y-9891246D01*
X4827206Y-9891246D02*
X4817682Y-9910293D01*
X4817682Y-9910293D02*
X4817682Y-9948389D01*
X4817682Y-9948389D02*
X4827206Y-9967436D01*
X4827206Y-9967436D02*
X4836729Y-9976960D01*
X4836729Y-9976960D02*
X4855777Y-9986484D01*
X4855777Y-9986484D02*
X4893872Y-9986484D01*
X4893872Y-9986484D02*
X4912920Y-9976960D01*
X4912920Y-9976960D02*
X4922444Y-9967436D01*
X4922444Y-9967436D02*
X4931968Y-9948389D01*
X4931968Y-9948389D02*
X4931968Y-9910293D01*
X4931968Y-9910293D02*
X4922444Y-9891246D01*
X4922444Y-9891246D02*
X4912920Y-9881722D01*
X4912920Y-9881722D02*
X4893872Y-9872198D01*
X5027206Y-9986484D02*
X5065301Y-9986484D01*
X5065301Y-9986484D02*
X5084349Y-9976960D01*
X5084349Y-9976960D02*
X5093872Y-9967436D01*
X5093872Y-9967436D02*
X5112920Y-9938865D01*
X5112920Y-9938865D02*
X5122444Y-9900770D01*
X5122444Y-9900770D02*
X5122444Y-9824579D01*
X5122444Y-9824579D02*
X5112920Y-9805531D01*
X5112920Y-9805531D02*
X5103396Y-9796008D01*
X5103396Y-9796008D02*
X5084349Y-9786484D01*
X5084349Y-9786484D02*
X5046253Y-9786484D01*
X5046253Y-9786484D02*
X5027206Y-9796008D01*
X5027206Y-9796008D02*
X5017682Y-9805531D01*
X5017682Y-9805531D02*
X5008158Y-9824579D01*
X5008158Y-9824579D02*
X5008158Y-9872198D01*
X5008158Y-9872198D02*
X5017682Y-9891246D01*
X5017682Y-9891246D02*
X5027206Y-9900770D01*
X5027206Y-9900770D02*
X5046253Y-9910293D01*
X5046253Y-9910293D02*
X5084349Y-9910293D01*
X5084349Y-9910293D02*
X5103396Y-9900770D01*
X5103396Y-9900770D02*
X5112920Y-9891246D01*
X5112920Y-9891246D02*
X5122444Y-9872198D01*
X5198634Y-9786484D02*
X5198634Y-9824579D01*
X5274825Y-9786484D02*
X5274825Y-9824579D01*
X5570063Y-10062674D02*
X5560539Y-10053150D01*
X5560539Y-10053150D02*
X5541491Y-10024579D01*
X5541491Y-10024579D02*
X5531968Y-10005531D01*
X5531968Y-10005531D02*
X5522444Y-9976960D01*
X5522444Y-9976960D02*
X5512920Y-9929341D01*
X5512920Y-9929341D02*
X5512920Y-9891246D01*
X5512920Y-9891246D02*
X5522444Y-9843627D01*
X5522444Y-9843627D02*
X5531968Y-9815055D01*
X5531968Y-9815055D02*
X5541491Y-9796008D01*
X5541491Y-9796008D02*
X5560539Y-9767436D01*
X5560539Y-9767436D02*
X5570063Y-9757912D01*
X5627206Y-9786484D02*
X5751015Y-9786484D01*
X5751015Y-9786484D02*
X5684348Y-9862674D01*
X5684348Y-9862674D02*
X5712920Y-9862674D01*
X5712920Y-9862674D02*
X5731968Y-9872198D01*
X5731968Y-9872198D02*
X5741491Y-9881722D01*
X5741491Y-9881722D02*
X5751015Y-9900770D01*
X5751015Y-9900770D02*
X5751015Y-9948389D01*
X5751015Y-9948389D02*
X5741491Y-9967436D01*
X5741491Y-9967436D02*
X5731968Y-9976960D01*
X5731968Y-9976960D02*
X5712920Y-9986484D01*
X5712920Y-9986484D02*
X5655777Y-9986484D01*
X5655777Y-9986484D02*
X5636729Y-9976960D01*
X5636729Y-9976960D02*
X5627206Y-9967436D01*
X5874825Y-9786484D02*
X5893872Y-9786484D01*
X5893872Y-9786484D02*
X5912920Y-9796008D01*
X5912920Y-9796008D02*
X5922444Y-9805531D01*
X5922444Y-9805531D02*
X5931968Y-9824579D01*
X5931968Y-9824579D02*
X5941491Y-9862674D01*
X5941491Y-9862674D02*
X5941491Y-9910293D01*
X5941491Y-9910293D02*
X5931968Y-9948389D01*
X5931968Y-9948389D02*
X5922444Y-9967436D01*
X5922444Y-9967436D02*
X5912920Y-9976960D01*
X5912920Y-9976960D02*
X5893872Y-9986484D01*
X5893872Y-9986484D02*
X5874825Y-9986484D01*
X5874825Y-9986484D02*
X5855777Y-9976960D01*
X5855777Y-9976960D02*
X5846253Y-9967436D01*
X5846253Y-9967436D02*
X5836729Y-9948389D01*
X5836729Y-9948389D02*
X5827206Y-9910293D01*
X5827206Y-9910293D02*
X5827206Y-9862674D01*
X5827206Y-9862674D02*
X5836729Y-9824579D01*
X5836729Y-9824579D02*
X5846253Y-9805531D01*
X5846253Y-9805531D02*
X5855777Y-9796008D01*
X5855777Y-9796008D02*
X5874825Y-9786484D01*
X6179587Y-9986484D02*
X6179587Y-9786484D01*
X6265301Y-9986484D02*
X6265301Y-9881722D01*
X6265301Y-9881722D02*
X6255777Y-9862674D01*
X6255777Y-9862674D02*
X6236730Y-9853150D01*
X6236730Y-9853150D02*
X6208158Y-9853150D01*
X6208158Y-9853150D02*
X6189110Y-9862674D01*
X6189110Y-9862674D02*
X6179587Y-9872198D01*
X6389110Y-9986484D02*
X6370063Y-9976960D01*
X6370063Y-9976960D02*
X6360539Y-9967436D01*
X6360539Y-9967436D02*
X6351015Y-9948389D01*
X6351015Y-9948389D02*
X6351015Y-9891246D01*
X6351015Y-9891246D02*
X6360539Y-9872198D01*
X6360539Y-9872198D02*
X6370063Y-9862674D01*
X6370063Y-9862674D02*
X6389110Y-9853150D01*
X6389110Y-9853150D02*
X6417682Y-9853150D01*
X6417682Y-9853150D02*
X6436730Y-9862674D01*
X6436730Y-9862674D02*
X6446253Y-9872198D01*
X6446253Y-9872198D02*
X6455777Y-9891246D01*
X6455777Y-9891246D02*
X6455777Y-9948389D01*
X6455777Y-9948389D02*
X6446253Y-9967436D01*
X6446253Y-9967436D02*
X6436730Y-9976960D01*
X6436730Y-9976960D02*
X6417682Y-9986484D01*
X6417682Y-9986484D02*
X6389110Y-9986484D01*
X6570063Y-9986484D02*
X6551015Y-9976960D01*
X6551015Y-9976960D02*
X6541491Y-9957912D01*
X6541491Y-9957912D02*
X6541491Y-9786484D01*
X6722444Y-9976960D02*
X6703396Y-9986484D01*
X6703396Y-9986484D02*
X6665301Y-9986484D01*
X6665301Y-9986484D02*
X6646253Y-9976960D01*
X6646253Y-9976960D02*
X6636730Y-9957912D01*
X6636730Y-9957912D02*
X6636730Y-9881722D01*
X6636730Y-9881722D02*
X6646253Y-9862674D01*
X6646253Y-9862674D02*
X6665301Y-9853150D01*
X6665301Y-9853150D02*
X6703396Y-9853150D01*
X6703396Y-9853150D02*
X6722444Y-9862674D01*
X6722444Y-9862674D02*
X6731968Y-9881722D01*
X6731968Y-9881722D02*
X6731968Y-9900770D01*
X6731968Y-9900770D02*
X6636730Y-9919817D01*
X6808158Y-9976960D02*
X6827206Y-9986484D01*
X6827206Y-9986484D02*
X6865301Y-9986484D01*
X6865301Y-9986484D02*
X6884349Y-9976960D01*
X6884349Y-9976960D02*
X6893872Y-9957912D01*
X6893872Y-9957912D02*
X6893872Y-9948389D01*
X6893872Y-9948389D02*
X6884349Y-9929341D01*
X6884349Y-9929341D02*
X6865301Y-9919817D01*
X6865301Y-9919817D02*
X6836730Y-9919817D01*
X6836730Y-9919817D02*
X6817682Y-9910293D01*
X6817682Y-9910293D02*
X6808158Y-9891246D01*
X6808158Y-9891246D02*
X6808158Y-9881722D01*
X6808158Y-9881722D02*
X6817682Y-9862674D01*
X6817682Y-9862674D02*
X6836730Y-9853150D01*
X6836730Y-9853150D02*
X6865301Y-9853150D01*
X6865301Y-9853150D02*
X6884349Y-9862674D01*
X6960539Y-10062674D02*
X6970063Y-10053150D01*
X6970063Y-10053150D02*
X6989111Y-10024579D01*
X6989111Y-10024579D02*
X6998634Y-10005531D01*
X6998634Y-10005531D02*
X7008158Y-9976960D01*
X7008158Y-9976960D02*
X7017682Y-9929341D01*
X7017682Y-9929341D02*
X7017682Y-9891246D01*
X7017682Y-9891246D02*
X7008158Y-9843627D01*
X7008158Y-9843627D02*
X6998634Y-9815055D01*
X6998634Y-9815055D02*
X6989111Y-9796008D01*
X6989111Y-9796008D02*
X6970063Y-9767436D01*
X6970063Y-9767436D02*
X6960539Y-9757912D01*
X7322444Y-10062674D02*
X7312920Y-10053150D01*
X7312920Y-10053150D02*
X7293872Y-10024579D01*
X7293872Y-10024579D02*
X7284349Y-10005531D01*
X7284349Y-10005531D02*
X7274825Y-9976960D01*
X7274825Y-9976960D02*
X7265301Y-9929341D01*
X7265301Y-9929341D02*
X7265301Y-9891246D01*
X7265301Y-9891246D02*
X7274825Y-9843627D01*
X7274825Y-9843627D02*
X7284349Y-9815055D01*
X7284349Y-9815055D02*
X7293872Y-9796008D01*
X7293872Y-9796008D02*
X7312920Y-9767436D01*
X7312920Y-9767436D02*
X7322444Y-9757912D01*
X7398634Y-9853150D02*
X7398634Y-9986484D01*
X7398634Y-9872198D02*
X7408158Y-9862674D01*
X7408158Y-9862674D02*
X7427206Y-9853150D01*
X7427206Y-9853150D02*
X7455777Y-9853150D01*
X7455777Y-9853150D02*
X7474825Y-9862674D01*
X7474825Y-9862674D02*
X7484349Y-9881722D01*
X7484349Y-9881722D02*
X7484349Y-9986484D01*
X7608158Y-9986484D02*
X7589111Y-9976960D01*
X7589111Y-9976960D02*
X7579587Y-9967436D01*
X7579587Y-9967436D02*
X7570063Y-9948389D01*
X7570063Y-9948389D02*
X7570063Y-9891246D01*
X7570063Y-9891246D02*
X7579587Y-9872198D01*
X7579587Y-9872198D02*
X7589111Y-9862674D01*
X7589111Y-9862674D02*
X7608158Y-9853150D01*
X7608158Y-9853150D02*
X7636730Y-9853150D01*
X7636730Y-9853150D02*
X7655777Y-9862674D01*
X7655777Y-9862674D02*
X7665301Y-9872198D01*
X7665301Y-9872198D02*
X7674825Y-9891246D01*
X7674825Y-9891246D02*
X7674825Y-9948389D01*
X7674825Y-9948389D02*
X7665301Y-9967436D01*
X7665301Y-9967436D02*
X7655777Y-9976960D01*
X7655777Y-9976960D02*
X7636730Y-9986484D01*
X7636730Y-9986484D02*
X7608158Y-9986484D01*
X7731968Y-9853150D02*
X7808158Y-9853150D01*
X7760539Y-9786484D02*
X7760539Y-9957912D01*
X7760539Y-9957912D02*
X7770063Y-9976960D01*
X7770063Y-9976960D02*
X7789111Y-9986484D01*
X7789111Y-9986484D02*
X7808158Y-9986484D01*
X8027206Y-9853150D02*
X8027206Y-10053150D01*
X8027206Y-9862674D02*
X8046253Y-9853150D01*
X8046253Y-9853150D02*
X8084349Y-9853150D01*
X8084349Y-9853150D02*
X8103396Y-9862674D01*
X8103396Y-9862674D02*
X8112920Y-9872198D01*
X8112920Y-9872198D02*
X8122444Y-9891246D01*
X8122444Y-9891246D02*
X8122444Y-9948389D01*
X8122444Y-9948389D02*
X8112920Y-9967436D01*
X8112920Y-9967436D02*
X8103396Y-9976960D01*
X8103396Y-9976960D02*
X8084349Y-9986484D01*
X8084349Y-9986484D02*
X8046253Y-9986484D01*
X8046253Y-9986484D02*
X8027206Y-9976960D01*
X8236730Y-9986484D02*
X8217682Y-9976960D01*
X8217682Y-9976960D02*
X8208158Y-9957912D01*
X8208158Y-9957912D02*
X8208158Y-9786484D01*
X8398635Y-9986484D02*
X8398635Y-9881722D01*
X8398635Y-9881722D02*
X8389111Y-9862674D01*
X8389111Y-9862674D02*
X8370063Y-9853150D01*
X8370063Y-9853150D02*
X8331968Y-9853150D01*
X8331968Y-9853150D02*
X8312920Y-9862674D01*
X8398635Y-9976960D02*
X8379587Y-9986484D01*
X8379587Y-9986484D02*
X8331968Y-9986484D01*
X8331968Y-9986484D02*
X8312920Y-9976960D01*
X8312920Y-9976960D02*
X8303396Y-9957912D01*
X8303396Y-9957912D02*
X8303396Y-9938865D01*
X8303396Y-9938865D02*
X8312920Y-9919817D01*
X8312920Y-9919817D02*
X8331968Y-9910293D01*
X8331968Y-9910293D02*
X8379587Y-9910293D01*
X8379587Y-9910293D02*
X8398635Y-9900770D01*
X8465301Y-9853150D02*
X8541492Y-9853150D01*
X8493873Y-9786484D02*
X8493873Y-9957912D01*
X8493873Y-9957912D02*
X8503396Y-9976960D01*
X8503396Y-9976960D02*
X8522444Y-9986484D01*
X8522444Y-9986484D02*
X8541492Y-9986484D01*
X8684349Y-9976960D02*
X8665301Y-9986484D01*
X8665301Y-9986484D02*
X8627206Y-9986484D01*
X8627206Y-9986484D02*
X8608158Y-9976960D01*
X8608158Y-9976960D02*
X8598635Y-9957912D01*
X8598635Y-9957912D02*
X8598635Y-9881722D01*
X8598635Y-9881722D02*
X8608158Y-9862674D01*
X8608158Y-9862674D02*
X8627206Y-9853150D01*
X8627206Y-9853150D02*
X8665301Y-9853150D01*
X8665301Y-9853150D02*
X8684349Y-9862674D01*
X8684349Y-9862674D02*
X8693873Y-9881722D01*
X8693873Y-9881722D02*
X8693873Y-9900770D01*
X8693873Y-9900770D02*
X8598635Y-9919817D01*
X8865301Y-9986484D02*
X8865301Y-9786484D01*
X8865301Y-9976960D02*
X8846254Y-9986484D01*
X8846254Y-9986484D02*
X8808158Y-9986484D01*
X8808158Y-9986484D02*
X8789111Y-9976960D01*
X8789111Y-9976960D02*
X8779587Y-9967436D01*
X8779587Y-9967436D02*
X8770063Y-9948389D01*
X8770063Y-9948389D02*
X8770063Y-9891246D01*
X8770063Y-9891246D02*
X8779587Y-9872198D01*
X8779587Y-9872198D02*
X8789111Y-9862674D01*
X8789111Y-9862674D02*
X8808158Y-9853150D01*
X8808158Y-9853150D02*
X8846254Y-9853150D01*
X8846254Y-9853150D02*
X8865301Y-9862674D01*
X8941492Y-10062674D02*
X8951016Y-10053150D01*
X8951016Y-10053150D02*
X8970063Y-10024579D01*
X8970063Y-10024579D02*
X8979587Y-10005531D01*
X8979587Y-10005531D02*
X8989111Y-9976960D01*
X8989111Y-9976960D02*
X8998635Y-9929341D01*
X8998635Y-9929341D02*
X8998635Y-9891246D01*
X8998635Y-9891246D02*
X8989111Y-9843627D01*
X8989111Y-9843627D02*
X8979587Y-9815055D01*
X8979587Y-9815055D02*
X8970063Y-9796008D01*
X8970063Y-9796008D02*
X8951016Y-9767436D01*
X8951016Y-9767436D02*
X8941492Y-9757912D01*
X1995000Y-10190000D02*
G75*
G02*
X1795000Y-10190000I-100000J0D01*
G01*
X1795000Y-10190000D02*
G75*
G02*
X1995000Y-10190000I100000J0D01*
G01*
X2341491Y-10148150D02*
X2341491Y-10281484D01*
X2293872Y-10071960D02*
X2246253Y-10214817D01*
X2246253Y-10214817D02*
X2370063Y-10214817D01*
X2446253Y-10262436D02*
X2455777Y-10271960D01*
X2455777Y-10271960D02*
X2446253Y-10281484D01*
X2446253Y-10281484D02*
X2436729Y-10271960D01*
X2436729Y-10271960D02*
X2446253Y-10262436D01*
X2446253Y-10262436D02*
X2446253Y-10281484D01*
X2579586Y-10081484D02*
X2598634Y-10081484D01*
X2598634Y-10081484D02*
X2617682Y-10091008D01*
X2617682Y-10091008D02*
X2627205Y-10100531D01*
X2627205Y-10100531D02*
X2636729Y-10119579D01*
X2636729Y-10119579D02*
X2646253Y-10157674D01*
X2646253Y-10157674D02*
X2646253Y-10205293D01*
X2646253Y-10205293D02*
X2636729Y-10243389D01*
X2636729Y-10243389D02*
X2627205Y-10262436D01*
X2627205Y-10262436D02*
X2617682Y-10271960D01*
X2617682Y-10271960D02*
X2598634Y-10281484D01*
X2598634Y-10281484D02*
X2579586Y-10281484D01*
X2579586Y-10281484D02*
X2560539Y-10271960D01*
X2560539Y-10271960D02*
X2551015Y-10262436D01*
X2551015Y-10262436D02*
X2541491Y-10243389D01*
X2541491Y-10243389D02*
X2531967Y-10205293D01*
X2531967Y-10205293D02*
X2531967Y-10157674D01*
X2531967Y-10157674D02*
X2541491Y-10119579D01*
X2541491Y-10119579D02*
X2551015Y-10100531D01*
X2551015Y-10100531D02*
X2560539Y-10091008D01*
X2560539Y-10091008D02*
X2579586Y-10081484D01*
X2770063Y-10081484D02*
X2789110Y-10081484D01*
X2789110Y-10081484D02*
X2808158Y-10091008D01*
X2808158Y-10091008D02*
X2817682Y-10100531D01*
X2817682Y-10100531D02*
X2827205Y-10119579D01*
X2827205Y-10119579D02*
X2836729Y-10157674D01*
X2836729Y-10157674D02*
X2836729Y-10205293D01*
X2836729Y-10205293D02*
X2827205Y-10243389D01*
X2827205Y-10243389D02*
X2817682Y-10262436D01*
X2817682Y-10262436D02*
X2808158Y-10271960D01*
X2808158Y-10271960D02*
X2789110Y-10281484D01*
X2789110Y-10281484D02*
X2770063Y-10281484D01*
X2770063Y-10281484D02*
X2751015Y-10271960D01*
X2751015Y-10271960D02*
X2741491Y-10262436D01*
X2741491Y-10262436D02*
X2731967Y-10243389D01*
X2731967Y-10243389D02*
X2722444Y-10205293D01*
X2722444Y-10205293D02*
X2722444Y-10157674D01*
X2722444Y-10157674D02*
X2731967Y-10119579D01*
X2731967Y-10119579D02*
X2741491Y-10100531D01*
X2741491Y-10100531D02*
X2751015Y-10091008D01*
X2751015Y-10091008D02*
X2770063Y-10081484D01*
X2960539Y-10081484D02*
X2979586Y-10081484D01*
X2979586Y-10081484D02*
X2998634Y-10091008D01*
X2998634Y-10091008D02*
X3008158Y-10100531D01*
X3008158Y-10100531D02*
X3017682Y-10119579D01*
X3017682Y-10119579D02*
X3027205Y-10157674D01*
X3027205Y-10157674D02*
X3027205Y-10205293D01*
X3027205Y-10205293D02*
X3017682Y-10243389D01*
X3017682Y-10243389D02*
X3008158Y-10262436D01*
X3008158Y-10262436D02*
X2998634Y-10271960D01*
X2998634Y-10271960D02*
X2979586Y-10281484D01*
X2979586Y-10281484D02*
X2960539Y-10281484D01*
X2960539Y-10281484D02*
X2941491Y-10271960D01*
X2941491Y-10271960D02*
X2931967Y-10262436D01*
X2931967Y-10262436D02*
X2922443Y-10243389D01*
X2922443Y-10243389D02*
X2912920Y-10205293D01*
X2912920Y-10205293D02*
X2912920Y-10157674D01*
X2912920Y-10157674D02*
X2922443Y-10119579D01*
X2922443Y-10119579D02*
X2931967Y-10100531D01*
X2931967Y-10100531D02*
X2941491Y-10091008D01*
X2941491Y-10091008D02*
X2960539Y-10081484D01*
X3112920Y-10281484D02*
X3112920Y-10148150D01*
X3112920Y-10167198D02*
X3122443Y-10157674D01*
X3122443Y-10157674D02*
X3141491Y-10148150D01*
X3141491Y-10148150D02*
X3170063Y-10148150D01*
X3170063Y-10148150D02*
X3189110Y-10157674D01*
X3189110Y-10157674D02*
X3198634Y-10176722D01*
X3198634Y-10176722D02*
X3198634Y-10281484D01*
X3198634Y-10176722D02*
X3208158Y-10157674D01*
X3208158Y-10157674D02*
X3227205Y-10148150D01*
X3227205Y-10148150D02*
X3255777Y-10148150D01*
X3255777Y-10148150D02*
X3274824Y-10157674D01*
X3274824Y-10157674D02*
X3284348Y-10176722D01*
X3284348Y-10176722D02*
X3284348Y-10281484D01*
X3379586Y-10281484D02*
X3379586Y-10148150D01*
X3379586Y-10167198D02*
X3389110Y-10157674D01*
X3389110Y-10157674D02*
X3408158Y-10148150D01*
X3408158Y-10148150D02*
X3436729Y-10148150D01*
X3436729Y-10148150D02*
X3455777Y-10157674D01*
X3455777Y-10157674D02*
X3465301Y-10176722D01*
X3465301Y-10176722D02*
X3465301Y-10281484D01*
X3465301Y-10176722D02*
X3474824Y-10157674D01*
X3474824Y-10157674D02*
X3493872Y-10148150D01*
X3493872Y-10148150D02*
X3522443Y-10148150D01*
X3522443Y-10148150D02*
X3541491Y-10157674D01*
X3541491Y-10157674D02*
X3551015Y-10176722D01*
X3551015Y-10176722D02*
X3551015Y-10281484D01*
X3941491Y-10071960D02*
X3770063Y-10329103D01*
X4198634Y-10081484D02*
X4217682Y-10081484D01*
X4217682Y-10081484D02*
X4236729Y-10091008D01*
X4236729Y-10091008D02*
X4246253Y-10100531D01*
X4246253Y-10100531D02*
X4255777Y-10119579D01*
X4255777Y-10119579D02*
X4265301Y-10157674D01*
X4265301Y-10157674D02*
X4265301Y-10205293D01*
X4265301Y-10205293D02*
X4255777Y-10243389D01*
X4255777Y-10243389D02*
X4246253Y-10262436D01*
X4246253Y-10262436D02*
X4236729Y-10271960D01*
X4236729Y-10271960D02*
X4217682Y-10281484D01*
X4217682Y-10281484D02*
X4198634Y-10281484D01*
X4198634Y-10281484D02*
X4179586Y-10271960D01*
X4179586Y-10271960D02*
X4170063Y-10262436D01*
X4170063Y-10262436D02*
X4160539Y-10243389D01*
X4160539Y-10243389D02*
X4151015Y-10205293D01*
X4151015Y-10205293D02*
X4151015Y-10157674D01*
X4151015Y-10157674D02*
X4160539Y-10119579D01*
X4160539Y-10119579D02*
X4170063Y-10100531D01*
X4170063Y-10100531D02*
X4179586Y-10091008D01*
X4179586Y-10091008D02*
X4198634Y-10081484D01*
X4351015Y-10262436D02*
X4360539Y-10271960D01*
X4360539Y-10271960D02*
X4351015Y-10281484D01*
X4351015Y-10281484D02*
X4341491Y-10271960D01*
X4341491Y-10271960D02*
X4351015Y-10262436D01*
X4351015Y-10262436D02*
X4351015Y-10281484D01*
X4551015Y-10281484D02*
X4436729Y-10281484D01*
X4493872Y-10281484D02*
X4493872Y-10081484D01*
X4493872Y-10081484D02*
X4474825Y-10110055D01*
X4474825Y-10110055D02*
X4455777Y-10129103D01*
X4455777Y-10129103D02*
X4436729Y-10138627D01*
X4731968Y-10081484D02*
X4636729Y-10081484D01*
X4636729Y-10081484D02*
X4627206Y-10176722D01*
X4627206Y-10176722D02*
X4636729Y-10167198D01*
X4636729Y-10167198D02*
X4655777Y-10157674D01*
X4655777Y-10157674D02*
X4703396Y-10157674D01*
X4703396Y-10157674D02*
X4722444Y-10167198D01*
X4722444Y-10167198D02*
X4731968Y-10176722D01*
X4731968Y-10176722D02*
X4741491Y-10195770D01*
X4741491Y-10195770D02*
X4741491Y-10243389D01*
X4741491Y-10243389D02*
X4731968Y-10262436D01*
X4731968Y-10262436D02*
X4722444Y-10271960D01*
X4722444Y-10271960D02*
X4703396Y-10281484D01*
X4703396Y-10281484D02*
X4655777Y-10281484D01*
X4655777Y-10281484D02*
X4636729Y-10271960D01*
X4636729Y-10271960D02*
X4627206Y-10262436D01*
X4808158Y-10081484D02*
X4941491Y-10081484D01*
X4941491Y-10081484D02*
X4855777Y-10281484D01*
X5112920Y-10081484D02*
X5017682Y-10081484D01*
X5017682Y-10081484D02*
X5008158Y-10176722D01*
X5008158Y-10176722D02*
X5017682Y-10167198D01*
X5017682Y-10167198D02*
X5036729Y-10157674D01*
X5036729Y-10157674D02*
X5084349Y-10157674D01*
X5084349Y-10157674D02*
X5103396Y-10167198D01*
X5103396Y-10167198D02*
X5112920Y-10176722D01*
X5112920Y-10176722D02*
X5122444Y-10195770D01*
X5122444Y-10195770D02*
X5122444Y-10243389D01*
X5122444Y-10243389D02*
X5112920Y-10262436D01*
X5112920Y-10262436D02*
X5103396Y-10271960D01*
X5103396Y-10271960D02*
X5084349Y-10281484D01*
X5084349Y-10281484D02*
X5036729Y-10281484D01*
X5036729Y-10281484D02*
X5017682Y-10271960D01*
X5017682Y-10271960D02*
X5008158Y-10262436D01*
X5198634Y-10081484D02*
X5198634Y-10119579D01*
X5274825Y-10081484D02*
X5274825Y-10119579D01*
X5570063Y-10357674D02*
X5560539Y-10348150D01*
X5560539Y-10348150D02*
X5541491Y-10319579D01*
X5541491Y-10319579D02*
X5531968Y-10300531D01*
X5531968Y-10300531D02*
X5522444Y-10271960D01*
X5522444Y-10271960D02*
X5512920Y-10224341D01*
X5512920Y-10224341D02*
X5512920Y-10186246D01*
X5512920Y-10186246D02*
X5522444Y-10138627D01*
X5522444Y-10138627D02*
X5531968Y-10110055D01*
X5531968Y-10110055D02*
X5541491Y-10091008D01*
X5541491Y-10091008D02*
X5560539Y-10062436D01*
X5560539Y-10062436D02*
X5570063Y-10052912D01*
X5751015Y-10281484D02*
X5636729Y-10281484D01*
X5693872Y-10281484D02*
X5693872Y-10081484D01*
X5693872Y-10081484D02*
X5674825Y-10110055D01*
X5674825Y-10110055D02*
X5655777Y-10129103D01*
X5655777Y-10129103D02*
X5636729Y-10138627D01*
X5931968Y-10081484D02*
X5836729Y-10081484D01*
X5836729Y-10081484D02*
X5827206Y-10176722D01*
X5827206Y-10176722D02*
X5836729Y-10167198D01*
X5836729Y-10167198D02*
X5855777Y-10157674D01*
X5855777Y-10157674D02*
X5903396Y-10157674D01*
X5903396Y-10157674D02*
X5922444Y-10167198D01*
X5922444Y-10167198D02*
X5931968Y-10176722D01*
X5931968Y-10176722D02*
X5941491Y-10195770D01*
X5941491Y-10195770D02*
X5941491Y-10243389D01*
X5941491Y-10243389D02*
X5931968Y-10262436D01*
X5931968Y-10262436D02*
X5922444Y-10271960D01*
X5922444Y-10271960D02*
X5903396Y-10281484D01*
X5903396Y-10281484D02*
X5855777Y-10281484D01*
X5855777Y-10281484D02*
X5836729Y-10271960D01*
X5836729Y-10271960D02*
X5827206Y-10262436D01*
X6179587Y-10281484D02*
X6179587Y-10081484D01*
X6265301Y-10281484D02*
X6265301Y-10176722D01*
X6265301Y-10176722D02*
X6255777Y-10157674D01*
X6255777Y-10157674D02*
X6236730Y-10148150D01*
X6236730Y-10148150D02*
X6208158Y-10148150D01*
X6208158Y-10148150D02*
X6189110Y-10157674D01*
X6189110Y-10157674D02*
X6179587Y-10167198D01*
X6389110Y-10281484D02*
X6370063Y-10271960D01*
X6370063Y-10271960D02*
X6360539Y-10262436D01*
X6360539Y-10262436D02*
X6351015Y-10243389D01*
X6351015Y-10243389D02*
X6351015Y-10186246D01*
X6351015Y-10186246D02*
X6360539Y-10167198D01*
X6360539Y-10167198D02*
X6370063Y-10157674D01*
X6370063Y-10157674D02*
X6389110Y-10148150D01*
X6389110Y-10148150D02*
X6417682Y-10148150D01*
X6417682Y-10148150D02*
X6436730Y-10157674D01*
X6436730Y-10157674D02*
X6446253Y-10167198D01*
X6446253Y-10167198D02*
X6455777Y-10186246D01*
X6455777Y-10186246D02*
X6455777Y-10243389D01*
X6455777Y-10243389D02*
X6446253Y-10262436D01*
X6446253Y-10262436D02*
X6436730Y-10271960D01*
X6436730Y-10271960D02*
X6417682Y-10281484D01*
X6417682Y-10281484D02*
X6389110Y-10281484D01*
X6570063Y-10281484D02*
X6551015Y-10271960D01*
X6551015Y-10271960D02*
X6541491Y-10252912D01*
X6541491Y-10252912D02*
X6541491Y-10081484D01*
X6722444Y-10271960D02*
X6703396Y-10281484D01*
X6703396Y-10281484D02*
X6665301Y-10281484D01*
X6665301Y-10281484D02*
X6646253Y-10271960D01*
X6646253Y-10271960D02*
X6636730Y-10252912D01*
X6636730Y-10252912D02*
X6636730Y-10176722D01*
X6636730Y-10176722D02*
X6646253Y-10157674D01*
X6646253Y-10157674D02*
X6665301Y-10148150D01*
X6665301Y-10148150D02*
X6703396Y-10148150D01*
X6703396Y-10148150D02*
X6722444Y-10157674D01*
X6722444Y-10157674D02*
X6731968Y-10176722D01*
X6731968Y-10176722D02*
X6731968Y-10195770D01*
X6731968Y-10195770D02*
X6636730Y-10214817D01*
X6808158Y-10271960D02*
X6827206Y-10281484D01*
X6827206Y-10281484D02*
X6865301Y-10281484D01*
X6865301Y-10281484D02*
X6884349Y-10271960D01*
X6884349Y-10271960D02*
X6893872Y-10252912D01*
X6893872Y-10252912D02*
X6893872Y-10243389D01*
X6893872Y-10243389D02*
X6884349Y-10224341D01*
X6884349Y-10224341D02*
X6865301Y-10214817D01*
X6865301Y-10214817D02*
X6836730Y-10214817D01*
X6836730Y-10214817D02*
X6817682Y-10205293D01*
X6817682Y-10205293D02*
X6808158Y-10186246D01*
X6808158Y-10186246D02*
X6808158Y-10176722D01*
X6808158Y-10176722D02*
X6817682Y-10157674D01*
X6817682Y-10157674D02*
X6836730Y-10148150D01*
X6836730Y-10148150D02*
X6865301Y-10148150D01*
X6865301Y-10148150D02*
X6884349Y-10157674D01*
X6960539Y-10357674D02*
X6970063Y-10348150D01*
X6970063Y-10348150D02*
X6989111Y-10319579D01*
X6989111Y-10319579D02*
X6998634Y-10300531D01*
X6998634Y-10300531D02*
X7008158Y-10271960D01*
X7008158Y-10271960D02*
X7017682Y-10224341D01*
X7017682Y-10224341D02*
X7017682Y-10186246D01*
X7017682Y-10186246D02*
X7008158Y-10138627D01*
X7008158Y-10138627D02*
X6998634Y-10110055D01*
X6998634Y-10110055D02*
X6989111Y-10091008D01*
X6989111Y-10091008D02*
X6970063Y-10062436D01*
X6970063Y-10062436D02*
X6960539Y-10052912D01*
X7322444Y-10357674D02*
X7312920Y-10348150D01*
X7312920Y-10348150D02*
X7293872Y-10319579D01*
X7293872Y-10319579D02*
X7284349Y-10300531D01*
X7284349Y-10300531D02*
X7274825Y-10271960D01*
X7274825Y-10271960D02*
X7265301Y-10224341D01*
X7265301Y-10224341D02*
X7265301Y-10186246D01*
X7265301Y-10186246D02*
X7274825Y-10138627D01*
X7274825Y-10138627D02*
X7284349Y-10110055D01*
X7284349Y-10110055D02*
X7293872Y-10091008D01*
X7293872Y-10091008D02*
X7312920Y-10062436D01*
X7312920Y-10062436D02*
X7322444Y-10052912D01*
X7398634Y-10148150D02*
X7398634Y-10281484D01*
X7398634Y-10167198D02*
X7408158Y-10157674D01*
X7408158Y-10157674D02*
X7427206Y-10148150D01*
X7427206Y-10148150D02*
X7455777Y-10148150D01*
X7455777Y-10148150D02*
X7474825Y-10157674D01*
X7474825Y-10157674D02*
X7484349Y-10176722D01*
X7484349Y-10176722D02*
X7484349Y-10281484D01*
X7608158Y-10281484D02*
X7589111Y-10271960D01*
X7589111Y-10271960D02*
X7579587Y-10262436D01*
X7579587Y-10262436D02*
X7570063Y-10243389D01*
X7570063Y-10243389D02*
X7570063Y-10186246D01*
X7570063Y-10186246D02*
X7579587Y-10167198D01*
X7579587Y-10167198D02*
X7589111Y-10157674D01*
X7589111Y-10157674D02*
X7608158Y-10148150D01*
X7608158Y-10148150D02*
X7636730Y-10148150D01*
X7636730Y-10148150D02*
X7655777Y-10157674D01*
X7655777Y-10157674D02*
X7665301Y-10167198D01*
X7665301Y-10167198D02*
X7674825Y-10186246D01*
X7674825Y-10186246D02*
X7674825Y-10243389D01*
X7674825Y-10243389D02*
X7665301Y-10262436D01*
X7665301Y-10262436D02*
X7655777Y-10271960D01*
X7655777Y-10271960D02*
X7636730Y-10281484D01*
X7636730Y-10281484D02*
X7608158Y-10281484D01*
X7731968Y-10148150D02*
X7808158Y-10148150D01*
X7760539Y-10081484D02*
X7760539Y-10252912D01*
X7760539Y-10252912D02*
X7770063Y-10271960D01*
X7770063Y-10271960D02*
X7789111Y-10281484D01*
X7789111Y-10281484D02*
X7808158Y-10281484D01*
X8027206Y-10148150D02*
X8027206Y-10348150D01*
X8027206Y-10157674D02*
X8046253Y-10148150D01*
X8046253Y-10148150D02*
X8084349Y-10148150D01*
X8084349Y-10148150D02*
X8103396Y-10157674D01*
X8103396Y-10157674D02*
X8112920Y-10167198D01*
X8112920Y-10167198D02*
X8122444Y-10186246D01*
X8122444Y-10186246D02*
X8122444Y-10243389D01*
X8122444Y-10243389D02*
X8112920Y-10262436D01*
X8112920Y-10262436D02*
X8103396Y-10271960D01*
X8103396Y-10271960D02*
X8084349Y-10281484D01*
X8084349Y-10281484D02*
X8046253Y-10281484D01*
X8046253Y-10281484D02*
X8027206Y-10271960D01*
X8236730Y-10281484D02*
X8217682Y-10271960D01*
X8217682Y-10271960D02*
X8208158Y-10252912D01*
X8208158Y-10252912D02*
X8208158Y-10081484D01*
X8398635Y-10281484D02*
X8398635Y-10176722D01*
X8398635Y-10176722D02*
X8389111Y-10157674D01*
X8389111Y-10157674D02*
X8370063Y-10148150D01*
X8370063Y-10148150D02*
X8331968Y-10148150D01*
X8331968Y-10148150D02*
X8312920Y-10157674D01*
X8398635Y-10271960D02*
X8379587Y-10281484D01*
X8379587Y-10281484D02*
X8331968Y-10281484D01*
X8331968Y-10281484D02*
X8312920Y-10271960D01*
X8312920Y-10271960D02*
X8303396Y-10252912D01*
X8303396Y-10252912D02*
X8303396Y-10233865D01*
X8303396Y-10233865D02*
X8312920Y-10214817D01*
X8312920Y-10214817D02*
X8331968Y-10205293D01*
X8331968Y-10205293D02*
X8379587Y-10205293D01*
X8379587Y-10205293D02*
X8398635Y-10195770D01*
X8465301Y-10148150D02*
X8541492Y-10148150D01*
X8493873Y-10081484D02*
X8493873Y-10252912D01*
X8493873Y-10252912D02*
X8503396Y-10271960D01*
X8503396Y-10271960D02*
X8522444Y-10281484D01*
X8522444Y-10281484D02*
X8541492Y-10281484D01*
X8684349Y-10271960D02*
X8665301Y-10281484D01*
X8665301Y-10281484D02*
X8627206Y-10281484D01*
X8627206Y-10281484D02*
X8608158Y-10271960D01*
X8608158Y-10271960D02*
X8598635Y-10252912D01*
X8598635Y-10252912D02*
X8598635Y-10176722D01*
X8598635Y-10176722D02*
X8608158Y-10157674D01*
X8608158Y-10157674D02*
X8627206Y-10148150D01*
X8627206Y-10148150D02*
X8665301Y-10148150D01*
X8665301Y-10148150D02*
X8684349Y-10157674D01*
X8684349Y-10157674D02*
X8693873Y-10176722D01*
X8693873Y-10176722D02*
X8693873Y-10195770D01*
X8693873Y-10195770D02*
X8598635Y-10214817D01*
X8865301Y-10281484D02*
X8865301Y-10081484D01*
X8865301Y-10271960D02*
X8846254Y-10281484D01*
X8846254Y-10281484D02*
X8808158Y-10281484D01*
X8808158Y-10281484D02*
X8789111Y-10271960D01*
X8789111Y-10271960D02*
X8779587Y-10262436D01*
X8779587Y-10262436D02*
X8770063Y-10243389D01*
X8770063Y-10243389D02*
X8770063Y-10186246D01*
X8770063Y-10186246D02*
X8779587Y-10167198D01*
X8779587Y-10167198D02*
X8789111Y-10157674D01*
X8789111Y-10157674D02*
X8808158Y-10148150D01*
X8808158Y-10148150D02*
X8846254Y-10148150D01*
X8846254Y-10148150D02*
X8865301Y-10157674D01*
X8941492Y-10357674D02*
X8951016Y-10348150D01*
X8951016Y-10348150D02*
X8970063Y-10319579D01*
X8970063Y-10319579D02*
X8979587Y-10300531D01*
X8979587Y-10300531D02*
X8989111Y-10271960D01*
X8989111Y-10271960D02*
X8998635Y-10224341D01*
X8998635Y-10224341D02*
X8998635Y-10186246D01*
X8998635Y-10186246D02*
X8989111Y-10138627D01*
X8989111Y-10138627D02*
X8979587Y-10110055D01*
X8979587Y-10110055D02*
X8970063Y-10091008D01*
X8970063Y-10091008D02*
X8951016Y-10062436D01*
X8951016Y-10062436D02*
X8941492Y-10052912D01*
M02*
