%TF.GenerationSoftware,KiCad,Pcbnew,7.0.8-7.0.8~ubuntu23.04.1*%
%TF.CreationDate,2023-10-25T21:16:19+10:00*%
%TF.ProjectId,SkyMusicPad,536b794d-7573-4696-9350-61642e6b6963,rev?*%
%TF.SameCoordinates,Original*%
%TF.FileFunction,Drillmap*%
%TF.FilePolarity,Positive*%
%FSLAX45Y45*%
G04 Gerber Fmt 4.5, Leading zero omitted, Abs format (unit mm)*
G04 Created by KiCad (PCBNEW 7.0.8-7.0.8~ubuntu23.04.1) date 2023-10-25 21:16:19*
%MOMM*%
%LPD*%
G01*
G04 APERTURE LIST*
%ADD10C,0.100000*%
%ADD11C,0.200000*%
%ADD12C,0.040000*%
%ADD13C,0.080000*%
%ADD14C,0.154940*%
%ADD15C,0.210000*%
G04 APERTURE END LIST*
D10*
X2000000Y-3000000D02*
X13940000Y-3000000D01*
X2000000Y-5500000D02*
X2000000Y-3000000D01*
X13940000Y-3000000D02*
X13940000Y-9100000D01*
X4100000Y-5500000D02*
X2000000Y-5500000D01*
X2000000Y-9100000D02*
X2000000Y-6700000D01*
X4100000Y-6700000D02*
X4100000Y-5500000D01*
X13940000Y-9100000D02*
X2000000Y-9100000D01*
X2000000Y-6700000D02*
X4100000Y-6700000D01*
D11*
D12*
X5380000Y-3280000D02*
X5420000Y-3320000D01*
X5420000Y-3280000D02*
X5380000Y-3320000D01*
X5380000Y-5130000D02*
X5420000Y-5170000D01*
X5420000Y-5130000D02*
X5380000Y-5170000D01*
X5380000Y-6930000D02*
X5420000Y-6970000D01*
X5420000Y-6930000D02*
X5380000Y-6970000D01*
X5380000Y-7130000D02*
X5420000Y-7170000D01*
X5420000Y-7130000D02*
X5380000Y-7170000D01*
X7230000Y-3280000D02*
X7270000Y-3320000D01*
X7270000Y-3280000D02*
X7230000Y-3320000D01*
X7230000Y-5130000D02*
X7270000Y-5170000D01*
X7270000Y-5130000D02*
X7230000Y-5170000D01*
X7230000Y-6930000D02*
X7270000Y-6970000D01*
X7270000Y-6930000D02*
X7230000Y-6970000D01*
X7230000Y-7130000D02*
X7270000Y-7170000D01*
X7270000Y-7130000D02*
X7230000Y-7170000D01*
X9030000Y-3280000D02*
X9070000Y-3320000D01*
X9070000Y-3280000D02*
X9030000Y-3320000D01*
X9030000Y-5130000D02*
X9070000Y-5170000D01*
X9070000Y-5130000D02*
X9030000Y-5170000D01*
X9030000Y-6930000D02*
X9070000Y-6970000D01*
X9070000Y-6930000D02*
X9030000Y-6970000D01*
X9030000Y-7130000D02*
X9070000Y-7170000D01*
X9070000Y-7130000D02*
X9030000Y-7170000D01*
X10880000Y-3280000D02*
X10920000Y-3320000D01*
X10920000Y-3280000D02*
X10880000Y-3320000D01*
X10880000Y-5130000D02*
X10920000Y-5170000D01*
X10920000Y-5130000D02*
X10880000Y-5170000D01*
X10880000Y-6930000D02*
X10920000Y-6970000D01*
X10920000Y-6930000D02*
X10880000Y-6970000D01*
X10880000Y-7130000D02*
X10920000Y-7170000D01*
X10920000Y-7130000D02*
X10880000Y-7170000D01*
X12680000Y-3280000D02*
X12720000Y-3320000D01*
X12720000Y-3280000D02*
X12680000Y-3320000D01*
X12680000Y-5130000D02*
X12720000Y-5170000D01*
X12720000Y-5130000D02*
X12680000Y-5170000D01*
X12680000Y-6930000D02*
X12720000Y-6970000D01*
X12720000Y-6930000D02*
X12680000Y-6970000D01*
X12680000Y-7130000D02*
X12720000Y-7170000D01*
X12720000Y-7130000D02*
X12680000Y-7170000D01*
D13*
X2216500Y-5327500D02*
G75*
G03*
X2216500Y-5327500I-40000J0D01*
G01*
X2216500Y-6851500D02*
G75*
G03*
X2216500Y-6851500I-40000J0D01*
G01*
X2470500Y-5327500D02*
G75*
G03*
X2470500Y-5327500I-40000J0D01*
G01*
X2470500Y-6851500D02*
G75*
G03*
X2470500Y-6851500I-40000J0D01*
G01*
X2724500Y-5327500D02*
G75*
G03*
X2724500Y-5327500I-40000J0D01*
G01*
X2724500Y-6851500D02*
G75*
G03*
X2724500Y-6851500I-40000J0D01*
G01*
X2978500Y-5327500D02*
G75*
G03*
X2978500Y-5327500I-40000J0D01*
G01*
X2978500Y-6851500D02*
G75*
G03*
X2978500Y-6851500I-40000J0D01*
G01*
X3232500Y-5327500D02*
G75*
G03*
X3232500Y-5327500I-40000J0D01*
G01*
X3232500Y-6851500D02*
G75*
G03*
X3232500Y-6851500I-40000J0D01*
G01*
X3486500Y-5327500D02*
G75*
G03*
X3486500Y-5327500I-40000J0D01*
G01*
X3486500Y-6851500D02*
G75*
G03*
X3486500Y-6851500I-40000J0D01*
G01*
X3740500Y-5327500D02*
G75*
G03*
X3740500Y-5327500I-40000J0D01*
G01*
X3740500Y-6851500D02*
G75*
G03*
X3740500Y-6851500I-40000J0D01*
G01*
X3994500Y-5327500D02*
G75*
G03*
X3994500Y-5327500I-40000J0D01*
G01*
X3994500Y-6851500D02*
G75*
G03*
X3994500Y-6851500I-40000J0D01*
G01*
X4248500Y-5327500D02*
G75*
G03*
X4248500Y-5327500I-40000J0D01*
G01*
X4248500Y-6851500D02*
G75*
G03*
X4248500Y-6851500I-40000J0D01*
G01*
X4269500Y-5581500D02*
G75*
G03*
X4269500Y-5581500I-40000J0D01*
G01*
X4269500Y-5835500D02*
G75*
G03*
X4269500Y-5835500I-40000J0D01*
G01*
X4269500Y-6089500D02*
G75*
G03*
X4269500Y-6089500I-40000J0D01*
G01*
X4269500Y-6343500D02*
G75*
G03*
X4269500Y-6343500I-40000J0D01*
G01*
X4269500Y-6597500D02*
G75*
G03*
X4269500Y-6597500I-40000J0D01*
G01*
D10*
X2900000Y-3295000D02*
X2900000Y-3395000D01*
X2850000Y-3345000D02*
X2950000Y-3345000D01*
X2900000Y-4745000D02*
X2900000Y-4845000D01*
X2850000Y-4795000D02*
X2950000Y-4795000D01*
X3150000Y-4745000D02*
X3150000Y-4845000D01*
X3100000Y-4795000D02*
X3200000Y-4795000D01*
X3400000Y-3295000D02*
X3400000Y-3395000D01*
X3350000Y-3345000D02*
X3450000Y-3345000D01*
X3400000Y-4745000D02*
X3400000Y-4845000D01*
X3350000Y-4795000D02*
X3450000Y-4795000D01*
D14*
X5108780Y-4035780D02*
X5108780Y-3926220D01*
X4999220Y-3926220D01*
X4999220Y-4035780D01*
X5108780Y-4035780D01*
X5108780Y-5850780D02*
X5108780Y-5741220D01*
X4999220Y-5741220D01*
X4999220Y-5850780D01*
X5108780Y-5850780D01*
X5108780Y-7665780D02*
X5108780Y-7556220D01*
X4999220Y-7556220D01*
X4999220Y-7665780D01*
X5108780Y-7665780D01*
X5743780Y-3781780D02*
X5743780Y-3672220D01*
X5634220Y-3672220D01*
X5634220Y-3781780D01*
X5743780Y-3781780D01*
X5743780Y-5596780D02*
X5743780Y-5487220D01*
X5634220Y-5487220D01*
X5634220Y-5596780D01*
X5743780Y-5596780D01*
X5743780Y-7411780D02*
X5743780Y-7302220D01*
X5634220Y-7302220D01*
X5634220Y-7411780D01*
X5743780Y-7411780D01*
X6923780Y-4035780D02*
X6923780Y-3926220D01*
X6814220Y-3926220D01*
X6814220Y-4035780D01*
X6923780Y-4035780D01*
X6923780Y-5850780D02*
X6923780Y-5741220D01*
X6814220Y-5741220D01*
X6814220Y-5850780D01*
X6923780Y-5850780D01*
X6923780Y-7665780D02*
X6923780Y-7556220D01*
X6814220Y-7556220D01*
X6814220Y-7665780D01*
X6923780Y-7665780D01*
X7558780Y-3781780D02*
X7558780Y-3672220D01*
X7449220Y-3672220D01*
X7449220Y-3781780D01*
X7558780Y-3781780D01*
X7558780Y-5596780D02*
X7558780Y-5487220D01*
X7449220Y-5487220D01*
X7449220Y-5596780D01*
X7558780Y-5596780D01*
X7558780Y-7411780D02*
X7558780Y-7302220D01*
X7449220Y-7302220D01*
X7449220Y-7411780D01*
X7558780Y-7411780D01*
X8738780Y-4035780D02*
X8738780Y-3926220D01*
X8629220Y-3926220D01*
X8629220Y-4035780D01*
X8738780Y-4035780D01*
X8738780Y-5850780D02*
X8738780Y-5741220D01*
X8629220Y-5741220D01*
X8629220Y-5850780D01*
X8738780Y-5850780D01*
X8738780Y-7665780D02*
X8738780Y-7556220D01*
X8629220Y-7556220D01*
X8629220Y-7665780D01*
X8738780Y-7665780D01*
X9373780Y-3781780D02*
X9373780Y-3672220D01*
X9264220Y-3672220D01*
X9264220Y-3781780D01*
X9373780Y-3781780D01*
X9373780Y-5596780D02*
X9373780Y-5487220D01*
X9264220Y-5487220D01*
X9264220Y-5596780D01*
X9373780Y-5596780D01*
X9373780Y-7411780D02*
X9373780Y-7302220D01*
X9264220Y-7302220D01*
X9264220Y-7411780D01*
X9373780Y-7411780D01*
X10553780Y-4035780D02*
X10553780Y-3926220D01*
X10444220Y-3926220D01*
X10444220Y-4035780D01*
X10553780Y-4035780D01*
X10553780Y-5850780D02*
X10553780Y-5741220D01*
X10444220Y-5741220D01*
X10444220Y-5850780D01*
X10553780Y-5850780D01*
X10553780Y-7665780D02*
X10553780Y-7556220D01*
X10444220Y-7556220D01*
X10444220Y-7665780D01*
X10553780Y-7665780D01*
X11188780Y-3781780D02*
X11188780Y-3672220D01*
X11079220Y-3672220D01*
X11079220Y-3781780D01*
X11188780Y-3781780D01*
X11188780Y-5596780D02*
X11188780Y-5487220D01*
X11079220Y-5487220D01*
X11079220Y-5596780D01*
X11188780Y-5596780D01*
X11188780Y-7411780D02*
X11188780Y-7302220D01*
X11079220Y-7302220D01*
X11079220Y-7411780D01*
X11188780Y-7411780D01*
X12368780Y-4035780D02*
X12368780Y-3926220D01*
X12259220Y-3926220D01*
X12259220Y-4035780D01*
X12368780Y-4035780D01*
X12368780Y-5850780D02*
X12368780Y-5741220D01*
X12259220Y-5741220D01*
X12259220Y-5850780D01*
X12368780Y-5850780D01*
X12368780Y-7665780D02*
X12368780Y-7556220D01*
X12259220Y-7556220D01*
X12259220Y-7665780D01*
X12368780Y-7665780D01*
X13003780Y-3781780D02*
X13003780Y-3672220D01*
X12894220Y-3672220D01*
X12894220Y-3781780D01*
X13003780Y-3781780D01*
X13003780Y-5596780D02*
X13003780Y-5487220D01*
X12894220Y-5487220D01*
X12894220Y-5596780D01*
X13003780Y-5596780D01*
X13003780Y-7411780D02*
X13003780Y-7302220D01*
X12894220Y-7302220D01*
X12894220Y-7411780D01*
X13003780Y-7411780D01*
D15*
X2490000Y-4150000D02*
X2595000Y-4045000D01*
X2490000Y-3940000D01*
X2385000Y-4045000D01*
X2490000Y-4150000D01*
D11*
X2385000Y-4040000D02*
X2385000Y-4050000D01*
X2385000Y-4050000D02*
G75*
G03*
X2595000Y-4050000I105000J0D01*
G01*
X2595000Y-4050000D02*
X2595000Y-4040000D01*
X2595000Y-4040000D02*
G75*
G03*
X2385000Y-4040000I-105000J0D01*
G01*
D15*
X3810000Y-4150000D02*
X3915000Y-4045000D01*
X3810000Y-3940000D01*
X3705000Y-4045000D01*
X3810000Y-4150000D01*
D11*
X3705000Y-4040000D02*
X3705000Y-4050000D01*
X3705000Y-4050000D02*
G75*
G03*
X3915000Y-4050000I105000J0D01*
G01*
X3915000Y-4050000D02*
X3915000Y-4040000D01*
X3915000Y-4040000D02*
G75*
G03*
X3705000Y-4040000I-105000J0D01*
G01*
X2255777Y-9416484D02*
X2255777Y-9216484D01*
X2255777Y-9216484D02*
X2303396Y-9216484D01*
X2303396Y-9216484D02*
X2331967Y-9226008D01*
X2331967Y-9226008D02*
X2351015Y-9245055D01*
X2351015Y-9245055D02*
X2360539Y-9264103D01*
X2360539Y-9264103D02*
X2370063Y-9302198D01*
X2370063Y-9302198D02*
X2370063Y-9330770D01*
X2370063Y-9330770D02*
X2360539Y-9368865D01*
X2360539Y-9368865D02*
X2351015Y-9387912D01*
X2351015Y-9387912D02*
X2331967Y-9406960D01*
X2331967Y-9406960D02*
X2303396Y-9416484D01*
X2303396Y-9416484D02*
X2255777Y-9416484D01*
X2455777Y-9416484D02*
X2455777Y-9283150D01*
X2455777Y-9321246D02*
X2465301Y-9302198D01*
X2465301Y-9302198D02*
X2474824Y-9292674D01*
X2474824Y-9292674D02*
X2493872Y-9283150D01*
X2493872Y-9283150D02*
X2512920Y-9283150D01*
X2579586Y-9416484D02*
X2579586Y-9283150D01*
X2579586Y-9216484D02*
X2570063Y-9226008D01*
X2570063Y-9226008D02*
X2579586Y-9235531D01*
X2579586Y-9235531D02*
X2589110Y-9226008D01*
X2589110Y-9226008D02*
X2579586Y-9216484D01*
X2579586Y-9216484D02*
X2579586Y-9235531D01*
X2703396Y-9416484D02*
X2684348Y-9406960D01*
X2684348Y-9406960D02*
X2674824Y-9387912D01*
X2674824Y-9387912D02*
X2674824Y-9216484D01*
X2808158Y-9416484D02*
X2789110Y-9406960D01*
X2789110Y-9406960D02*
X2779586Y-9387912D01*
X2779586Y-9387912D02*
X2779586Y-9216484D01*
X3036729Y-9416484D02*
X3036729Y-9216484D01*
X3036729Y-9216484D02*
X3103396Y-9359341D01*
X3103396Y-9359341D02*
X3170062Y-9216484D01*
X3170062Y-9216484D02*
X3170062Y-9416484D01*
X3351015Y-9416484D02*
X3351015Y-9311722D01*
X3351015Y-9311722D02*
X3341491Y-9292674D01*
X3341491Y-9292674D02*
X3322443Y-9283150D01*
X3322443Y-9283150D02*
X3284348Y-9283150D01*
X3284348Y-9283150D02*
X3265301Y-9292674D01*
X3351015Y-9406960D02*
X3331967Y-9416484D01*
X3331967Y-9416484D02*
X3284348Y-9416484D01*
X3284348Y-9416484D02*
X3265301Y-9406960D01*
X3265301Y-9406960D02*
X3255777Y-9387912D01*
X3255777Y-9387912D02*
X3255777Y-9368865D01*
X3255777Y-9368865D02*
X3265301Y-9349817D01*
X3265301Y-9349817D02*
X3284348Y-9340293D01*
X3284348Y-9340293D02*
X3331967Y-9340293D01*
X3331967Y-9340293D02*
X3351015Y-9330770D01*
X3446253Y-9283150D02*
X3446253Y-9483150D01*
X3446253Y-9292674D02*
X3465301Y-9283150D01*
X3465301Y-9283150D02*
X3503396Y-9283150D01*
X3503396Y-9283150D02*
X3522443Y-9292674D01*
X3522443Y-9292674D02*
X3531967Y-9302198D01*
X3531967Y-9302198D02*
X3541491Y-9321246D01*
X3541491Y-9321246D02*
X3541491Y-9378389D01*
X3541491Y-9378389D02*
X3531967Y-9397436D01*
X3531967Y-9397436D02*
X3522443Y-9406960D01*
X3522443Y-9406960D02*
X3503396Y-9416484D01*
X3503396Y-9416484D02*
X3465301Y-9416484D01*
X3465301Y-9416484D02*
X3446253Y-9406960D01*
X3627205Y-9397436D02*
X3636729Y-9406960D01*
X3636729Y-9406960D02*
X3627205Y-9416484D01*
X3627205Y-9416484D02*
X3617682Y-9406960D01*
X3617682Y-9406960D02*
X3627205Y-9397436D01*
X3627205Y-9397436D02*
X3627205Y-9416484D01*
X3627205Y-9292674D02*
X3636729Y-9302198D01*
X3636729Y-9302198D02*
X3627205Y-9311722D01*
X3627205Y-9311722D02*
X3617682Y-9302198D01*
X3617682Y-9302198D02*
X3627205Y-9292674D01*
X3627205Y-9292674D02*
X3627205Y-9311722D01*
D12*
X1955000Y-9725000D02*
X1995000Y-9765000D01*
X1995000Y-9725000D02*
X1955000Y-9765000D01*
D11*
X2293872Y-9636484D02*
X2312920Y-9636484D01*
X2312920Y-9636484D02*
X2331967Y-9646008D01*
X2331967Y-9646008D02*
X2341491Y-9655531D01*
X2341491Y-9655531D02*
X2351015Y-9674579D01*
X2351015Y-9674579D02*
X2360539Y-9712674D01*
X2360539Y-9712674D02*
X2360539Y-9760293D01*
X2360539Y-9760293D02*
X2351015Y-9798389D01*
X2351015Y-9798389D02*
X2341491Y-9817436D01*
X2341491Y-9817436D02*
X2331967Y-9826960D01*
X2331967Y-9826960D02*
X2312920Y-9836484D01*
X2312920Y-9836484D02*
X2293872Y-9836484D01*
X2293872Y-9836484D02*
X2274824Y-9826960D01*
X2274824Y-9826960D02*
X2265301Y-9817436D01*
X2265301Y-9817436D02*
X2255777Y-9798389D01*
X2255777Y-9798389D02*
X2246253Y-9760293D01*
X2246253Y-9760293D02*
X2246253Y-9712674D01*
X2246253Y-9712674D02*
X2255777Y-9674579D01*
X2255777Y-9674579D02*
X2265301Y-9655531D01*
X2265301Y-9655531D02*
X2274824Y-9646008D01*
X2274824Y-9646008D02*
X2293872Y-9636484D01*
X2446253Y-9817436D02*
X2455777Y-9826960D01*
X2455777Y-9826960D02*
X2446253Y-9836484D01*
X2446253Y-9836484D02*
X2436729Y-9826960D01*
X2436729Y-9826960D02*
X2446253Y-9817436D01*
X2446253Y-9817436D02*
X2446253Y-9836484D01*
X2627205Y-9703150D02*
X2627205Y-9836484D01*
X2579586Y-9626960D02*
X2531967Y-9769817D01*
X2531967Y-9769817D02*
X2655777Y-9769817D01*
X2770063Y-9636484D02*
X2789110Y-9636484D01*
X2789110Y-9636484D02*
X2808158Y-9646008D01*
X2808158Y-9646008D02*
X2817682Y-9655531D01*
X2817682Y-9655531D02*
X2827205Y-9674579D01*
X2827205Y-9674579D02*
X2836729Y-9712674D01*
X2836729Y-9712674D02*
X2836729Y-9760293D01*
X2836729Y-9760293D02*
X2827205Y-9798389D01*
X2827205Y-9798389D02*
X2817682Y-9817436D01*
X2817682Y-9817436D02*
X2808158Y-9826960D01*
X2808158Y-9826960D02*
X2789110Y-9836484D01*
X2789110Y-9836484D02*
X2770063Y-9836484D01*
X2770063Y-9836484D02*
X2751015Y-9826960D01*
X2751015Y-9826960D02*
X2741491Y-9817436D01*
X2741491Y-9817436D02*
X2731967Y-9798389D01*
X2731967Y-9798389D02*
X2722444Y-9760293D01*
X2722444Y-9760293D02*
X2722444Y-9712674D01*
X2722444Y-9712674D02*
X2731967Y-9674579D01*
X2731967Y-9674579D02*
X2741491Y-9655531D01*
X2741491Y-9655531D02*
X2751015Y-9646008D01*
X2751015Y-9646008D02*
X2770063Y-9636484D01*
X2960539Y-9636484D02*
X2979586Y-9636484D01*
X2979586Y-9636484D02*
X2998634Y-9646008D01*
X2998634Y-9646008D02*
X3008158Y-9655531D01*
X3008158Y-9655531D02*
X3017682Y-9674579D01*
X3017682Y-9674579D02*
X3027205Y-9712674D01*
X3027205Y-9712674D02*
X3027205Y-9760293D01*
X3027205Y-9760293D02*
X3017682Y-9798389D01*
X3017682Y-9798389D02*
X3008158Y-9817436D01*
X3008158Y-9817436D02*
X2998634Y-9826960D01*
X2998634Y-9826960D02*
X2979586Y-9836484D01*
X2979586Y-9836484D02*
X2960539Y-9836484D01*
X2960539Y-9836484D02*
X2941491Y-9826960D01*
X2941491Y-9826960D02*
X2931967Y-9817436D01*
X2931967Y-9817436D02*
X2922443Y-9798389D01*
X2922443Y-9798389D02*
X2912920Y-9760293D01*
X2912920Y-9760293D02*
X2912920Y-9712674D01*
X2912920Y-9712674D02*
X2922443Y-9674579D01*
X2922443Y-9674579D02*
X2931967Y-9655531D01*
X2931967Y-9655531D02*
X2941491Y-9646008D01*
X2941491Y-9646008D02*
X2960539Y-9636484D01*
X3112920Y-9836484D02*
X3112920Y-9703150D01*
X3112920Y-9722198D02*
X3122443Y-9712674D01*
X3122443Y-9712674D02*
X3141491Y-9703150D01*
X3141491Y-9703150D02*
X3170063Y-9703150D01*
X3170063Y-9703150D02*
X3189110Y-9712674D01*
X3189110Y-9712674D02*
X3198634Y-9731722D01*
X3198634Y-9731722D02*
X3198634Y-9836484D01*
X3198634Y-9731722D02*
X3208158Y-9712674D01*
X3208158Y-9712674D02*
X3227205Y-9703150D01*
X3227205Y-9703150D02*
X3255777Y-9703150D01*
X3255777Y-9703150D02*
X3274824Y-9712674D01*
X3274824Y-9712674D02*
X3284348Y-9731722D01*
X3284348Y-9731722D02*
X3284348Y-9836484D01*
X3379586Y-9836484D02*
X3379586Y-9703150D01*
X3379586Y-9722198D02*
X3389110Y-9712674D01*
X3389110Y-9712674D02*
X3408158Y-9703150D01*
X3408158Y-9703150D02*
X3436729Y-9703150D01*
X3436729Y-9703150D02*
X3455777Y-9712674D01*
X3455777Y-9712674D02*
X3465301Y-9731722D01*
X3465301Y-9731722D02*
X3465301Y-9836484D01*
X3465301Y-9731722D02*
X3474824Y-9712674D01*
X3474824Y-9712674D02*
X3493872Y-9703150D01*
X3493872Y-9703150D02*
X3522443Y-9703150D01*
X3522443Y-9703150D02*
X3541491Y-9712674D01*
X3541491Y-9712674D02*
X3551015Y-9731722D01*
X3551015Y-9731722D02*
X3551015Y-9836484D01*
X3941491Y-9626960D02*
X3770063Y-9884103D01*
X4198634Y-9636484D02*
X4217682Y-9636484D01*
X4217682Y-9636484D02*
X4236729Y-9646008D01*
X4236729Y-9646008D02*
X4246253Y-9655531D01*
X4246253Y-9655531D02*
X4255777Y-9674579D01*
X4255777Y-9674579D02*
X4265301Y-9712674D01*
X4265301Y-9712674D02*
X4265301Y-9760293D01*
X4265301Y-9760293D02*
X4255777Y-9798389D01*
X4255777Y-9798389D02*
X4246253Y-9817436D01*
X4246253Y-9817436D02*
X4236729Y-9826960D01*
X4236729Y-9826960D02*
X4217682Y-9836484D01*
X4217682Y-9836484D02*
X4198634Y-9836484D01*
X4198634Y-9836484D02*
X4179586Y-9826960D01*
X4179586Y-9826960D02*
X4170063Y-9817436D01*
X4170063Y-9817436D02*
X4160539Y-9798389D01*
X4160539Y-9798389D02*
X4151015Y-9760293D01*
X4151015Y-9760293D02*
X4151015Y-9712674D01*
X4151015Y-9712674D02*
X4160539Y-9674579D01*
X4160539Y-9674579D02*
X4170063Y-9655531D01*
X4170063Y-9655531D02*
X4179586Y-9646008D01*
X4179586Y-9646008D02*
X4198634Y-9636484D01*
X4351015Y-9817436D02*
X4360539Y-9826960D01*
X4360539Y-9826960D02*
X4351015Y-9836484D01*
X4351015Y-9836484D02*
X4341491Y-9826960D01*
X4341491Y-9826960D02*
X4351015Y-9817436D01*
X4351015Y-9817436D02*
X4351015Y-9836484D01*
X4484348Y-9636484D02*
X4503396Y-9636484D01*
X4503396Y-9636484D02*
X4522444Y-9646008D01*
X4522444Y-9646008D02*
X4531968Y-9655531D01*
X4531968Y-9655531D02*
X4541491Y-9674579D01*
X4541491Y-9674579D02*
X4551015Y-9712674D01*
X4551015Y-9712674D02*
X4551015Y-9760293D01*
X4551015Y-9760293D02*
X4541491Y-9798389D01*
X4541491Y-9798389D02*
X4531968Y-9817436D01*
X4531968Y-9817436D02*
X4522444Y-9826960D01*
X4522444Y-9826960D02*
X4503396Y-9836484D01*
X4503396Y-9836484D02*
X4484348Y-9836484D01*
X4484348Y-9836484D02*
X4465301Y-9826960D01*
X4465301Y-9826960D02*
X4455777Y-9817436D01*
X4455777Y-9817436D02*
X4446253Y-9798389D01*
X4446253Y-9798389D02*
X4436729Y-9760293D01*
X4436729Y-9760293D02*
X4436729Y-9712674D01*
X4436729Y-9712674D02*
X4446253Y-9674579D01*
X4446253Y-9674579D02*
X4455777Y-9655531D01*
X4455777Y-9655531D02*
X4465301Y-9646008D01*
X4465301Y-9646008D02*
X4484348Y-9636484D01*
X4741491Y-9836484D02*
X4627206Y-9836484D01*
X4684348Y-9836484D02*
X4684348Y-9636484D01*
X4684348Y-9636484D02*
X4665301Y-9665055D01*
X4665301Y-9665055D02*
X4646253Y-9684103D01*
X4646253Y-9684103D02*
X4627206Y-9693627D01*
X4922444Y-9636484D02*
X4827206Y-9636484D01*
X4827206Y-9636484D02*
X4817682Y-9731722D01*
X4817682Y-9731722D02*
X4827206Y-9722198D01*
X4827206Y-9722198D02*
X4846253Y-9712674D01*
X4846253Y-9712674D02*
X4893872Y-9712674D01*
X4893872Y-9712674D02*
X4912920Y-9722198D01*
X4912920Y-9722198D02*
X4922444Y-9731722D01*
X4922444Y-9731722D02*
X4931968Y-9750770D01*
X4931968Y-9750770D02*
X4931968Y-9798389D01*
X4931968Y-9798389D02*
X4922444Y-9817436D01*
X4922444Y-9817436D02*
X4912920Y-9826960D01*
X4912920Y-9826960D02*
X4893872Y-9836484D01*
X4893872Y-9836484D02*
X4846253Y-9836484D01*
X4846253Y-9836484D02*
X4827206Y-9826960D01*
X4827206Y-9826960D02*
X4817682Y-9817436D01*
X4998634Y-9636484D02*
X5131968Y-9636484D01*
X5131968Y-9636484D02*
X5046253Y-9836484D01*
X5198634Y-9636484D02*
X5198634Y-9674579D01*
X5274825Y-9636484D02*
X5274825Y-9674579D01*
X5570063Y-9912674D02*
X5560539Y-9903150D01*
X5560539Y-9903150D02*
X5541491Y-9874579D01*
X5541491Y-9874579D02*
X5531968Y-9855531D01*
X5531968Y-9855531D02*
X5522444Y-9826960D01*
X5522444Y-9826960D02*
X5512920Y-9779341D01*
X5512920Y-9779341D02*
X5512920Y-9741246D01*
X5512920Y-9741246D02*
X5522444Y-9693627D01*
X5522444Y-9693627D02*
X5531968Y-9665055D01*
X5531968Y-9665055D02*
X5541491Y-9646008D01*
X5541491Y-9646008D02*
X5560539Y-9617436D01*
X5560539Y-9617436D02*
X5570063Y-9607912D01*
X5636729Y-9655531D02*
X5646253Y-9646008D01*
X5646253Y-9646008D02*
X5665301Y-9636484D01*
X5665301Y-9636484D02*
X5712920Y-9636484D01*
X5712920Y-9636484D02*
X5731968Y-9646008D01*
X5731968Y-9646008D02*
X5741491Y-9655531D01*
X5741491Y-9655531D02*
X5751015Y-9674579D01*
X5751015Y-9674579D02*
X5751015Y-9693627D01*
X5751015Y-9693627D02*
X5741491Y-9722198D01*
X5741491Y-9722198D02*
X5627206Y-9836484D01*
X5627206Y-9836484D02*
X5751015Y-9836484D01*
X5874825Y-9636484D02*
X5893872Y-9636484D01*
X5893872Y-9636484D02*
X5912920Y-9646008D01*
X5912920Y-9646008D02*
X5922444Y-9655531D01*
X5922444Y-9655531D02*
X5931968Y-9674579D01*
X5931968Y-9674579D02*
X5941491Y-9712674D01*
X5941491Y-9712674D02*
X5941491Y-9760293D01*
X5941491Y-9760293D02*
X5931968Y-9798389D01*
X5931968Y-9798389D02*
X5922444Y-9817436D01*
X5922444Y-9817436D02*
X5912920Y-9826960D01*
X5912920Y-9826960D02*
X5893872Y-9836484D01*
X5893872Y-9836484D02*
X5874825Y-9836484D01*
X5874825Y-9836484D02*
X5855777Y-9826960D01*
X5855777Y-9826960D02*
X5846253Y-9817436D01*
X5846253Y-9817436D02*
X5836729Y-9798389D01*
X5836729Y-9798389D02*
X5827206Y-9760293D01*
X5827206Y-9760293D02*
X5827206Y-9712674D01*
X5827206Y-9712674D02*
X5836729Y-9674579D01*
X5836729Y-9674579D02*
X5846253Y-9655531D01*
X5846253Y-9655531D02*
X5855777Y-9646008D01*
X5855777Y-9646008D02*
X5874825Y-9636484D01*
X6179587Y-9836484D02*
X6179587Y-9636484D01*
X6265301Y-9836484D02*
X6265301Y-9731722D01*
X6265301Y-9731722D02*
X6255777Y-9712674D01*
X6255777Y-9712674D02*
X6236730Y-9703150D01*
X6236730Y-9703150D02*
X6208158Y-9703150D01*
X6208158Y-9703150D02*
X6189110Y-9712674D01*
X6189110Y-9712674D02*
X6179587Y-9722198D01*
X6389110Y-9836484D02*
X6370063Y-9826960D01*
X6370063Y-9826960D02*
X6360539Y-9817436D01*
X6360539Y-9817436D02*
X6351015Y-9798389D01*
X6351015Y-9798389D02*
X6351015Y-9741246D01*
X6351015Y-9741246D02*
X6360539Y-9722198D01*
X6360539Y-9722198D02*
X6370063Y-9712674D01*
X6370063Y-9712674D02*
X6389110Y-9703150D01*
X6389110Y-9703150D02*
X6417682Y-9703150D01*
X6417682Y-9703150D02*
X6436730Y-9712674D01*
X6436730Y-9712674D02*
X6446253Y-9722198D01*
X6446253Y-9722198D02*
X6455777Y-9741246D01*
X6455777Y-9741246D02*
X6455777Y-9798389D01*
X6455777Y-9798389D02*
X6446253Y-9817436D01*
X6446253Y-9817436D02*
X6436730Y-9826960D01*
X6436730Y-9826960D02*
X6417682Y-9836484D01*
X6417682Y-9836484D02*
X6389110Y-9836484D01*
X6570063Y-9836484D02*
X6551015Y-9826960D01*
X6551015Y-9826960D02*
X6541491Y-9807912D01*
X6541491Y-9807912D02*
X6541491Y-9636484D01*
X6722444Y-9826960D02*
X6703396Y-9836484D01*
X6703396Y-9836484D02*
X6665301Y-9836484D01*
X6665301Y-9836484D02*
X6646253Y-9826960D01*
X6646253Y-9826960D02*
X6636730Y-9807912D01*
X6636730Y-9807912D02*
X6636730Y-9731722D01*
X6636730Y-9731722D02*
X6646253Y-9712674D01*
X6646253Y-9712674D02*
X6665301Y-9703150D01*
X6665301Y-9703150D02*
X6703396Y-9703150D01*
X6703396Y-9703150D02*
X6722444Y-9712674D01*
X6722444Y-9712674D02*
X6731968Y-9731722D01*
X6731968Y-9731722D02*
X6731968Y-9750770D01*
X6731968Y-9750770D02*
X6636730Y-9769817D01*
X6808158Y-9826960D02*
X6827206Y-9836484D01*
X6827206Y-9836484D02*
X6865301Y-9836484D01*
X6865301Y-9836484D02*
X6884349Y-9826960D01*
X6884349Y-9826960D02*
X6893872Y-9807912D01*
X6893872Y-9807912D02*
X6893872Y-9798389D01*
X6893872Y-9798389D02*
X6884349Y-9779341D01*
X6884349Y-9779341D02*
X6865301Y-9769817D01*
X6865301Y-9769817D02*
X6836730Y-9769817D01*
X6836730Y-9769817D02*
X6817682Y-9760293D01*
X6817682Y-9760293D02*
X6808158Y-9741246D01*
X6808158Y-9741246D02*
X6808158Y-9731722D01*
X6808158Y-9731722D02*
X6817682Y-9712674D01*
X6817682Y-9712674D02*
X6836730Y-9703150D01*
X6836730Y-9703150D02*
X6865301Y-9703150D01*
X6865301Y-9703150D02*
X6884349Y-9712674D01*
X6960539Y-9912674D02*
X6970063Y-9903150D01*
X6970063Y-9903150D02*
X6989111Y-9874579D01*
X6989111Y-9874579D02*
X6998634Y-9855531D01*
X6998634Y-9855531D02*
X7008158Y-9826960D01*
X7008158Y-9826960D02*
X7017682Y-9779341D01*
X7017682Y-9779341D02*
X7017682Y-9741246D01*
X7017682Y-9741246D02*
X7008158Y-9693627D01*
X7008158Y-9693627D02*
X6998634Y-9665055D01*
X6998634Y-9665055D02*
X6989111Y-9646008D01*
X6989111Y-9646008D02*
X6970063Y-9617436D01*
X6970063Y-9617436D02*
X6960539Y-9607912D01*
D13*
X1995000Y-10009000D02*
G75*
G03*
X1995000Y-10009000I-40000J0D01*
G01*
D11*
X2293872Y-9900484D02*
X2312920Y-9900484D01*
X2312920Y-9900484D02*
X2331967Y-9910008D01*
X2331967Y-9910008D02*
X2341491Y-9919531D01*
X2341491Y-9919531D02*
X2351015Y-9938579D01*
X2351015Y-9938579D02*
X2360539Y-9976674D01*
X2360539Y-9976674D02*
X2360539Y-10024293D01*
X2360539Y-10024293D02*
X2351015Y-10062389D01*
X2351015Y-10062389D02*
X2341491Y-10081436D01*
X2341491Y-10081436D02*
X2331967Y-10090960D01*
X2331967Y-10090960D02*
X2312920Y-10100484D01*
X2312920Y-10100484D02*
X2293872Y-10100484D01*
X2293872Y-10100484D02*
X2274824Y-10090960D01*
X2274824Y-10090960D02*
X2265301Y-10081436D01*
X2265301Y-10081436D02*
X2255777Y-10062389D01*
X2255777Y-10062389D02*
X2246253Y-10024293D01*
X2246253Y-10024293D02*
X2246253Y-9976674D01*
X2246253Y-9976674D02*
X2255777Y-9938579D01*
X2255777Y-9938579D02*
X2265301Y-9919531D01*
X2265301Y-9919531D02*
X2274824Y-9910008D01*
X2274824Y-9910008D02*
X2293872Y-9900484D01*
X2446253Y-10081436D02*
X2455777Y-10090960D01*
X2455777Y-10090960D02*
X2446253Y-10100484D01*
X2446253Y-10100484D02*
X2436729Y-10090960D01*
X2436729Y-10090960D02*
X2446253Y-10081436D01*
X2446253Y-10081436D02*
X2446253Y-10100484D01*
X2570063Y-9986198D02*
X2551015Y-9976674D01*
X2551015Y-9976674D02*
X2541491Y-9967150D01*
X2541491Y-9967150D02*
X2531967Y-9948103D01*
X2531967Y-9948103D02*
X2531967Y-9938579D01*
X2531967Y-9938579D02*
X2541491Y-9919531D01*
X2541491Y-9919531D02*
X2551015Y-9910008D01*
X2551015Y-9910008D02*
X2570063Y-9900484D01*
X2570063Y-9900484D02*
X2608158Y-9900484D01*
X2608158Y-9900484D02*
X2627205Y-9910008D01*
X2627205Y-9910008D02*
X2636729Y-9919531D01*
X2636729Y-9919531D02*
X2646253Y-9938579D01*
X2646253Y-9938579D02*
X2646253Y-9948103D01*
X2646253Y-9948103D02*
X2636729Y-9967150D01*
X2636729Y-9967150D02*
X2627205Y-9976674D01*
X2627205Y-9976674D02*
X2608158Y-9986198D01*
X2608158Y-9986198D02*
X2570063Y-9986198D01*
X2570063Y-9986198D02*
X2551015Y-9995722D01*
X2551015Y-9995722D02*
X2541491Y-10005246D01*
X2541491Y-10005246D02*
X2531967Y-10024293D01*
X2531967Y-10024293D02*
X2531967Y-10062389D01*
X2531967Y-10062389D02*
X2541491Y-10081436D01*
X2541491Y-10081436D02*
X2551015Y-10090960D01*
X2551015Y-10090960D02*
X2570063Y-10100484D01*
X2570063Y-10100484D02*
X2608158Y-10100484D01*
X2608158Y-10100484D02*
X2627205Y-10090960D01*
X2627205Y-10090960D02*
X2636729Y-10081436D01*
X2636729Y-10081436D02*
X2646253Y-10062389D01*
X2646253Y-10062389D02*
X2646253Y-10024293D01*
X2646253Y-10024293D02*
X2636729Y-10005246D01*
X2636729Y-10005246D02*
X2627205Y-9995722D01*
X2627205Y-9995722D02*
X2608158Y-9986198D01*
X2770063Y-9900484D02*
X2789110Y-9900484D01*
X2789110Y-9900484D02*
X2808158Y-9910008D01*
X2808158Y-9910008D02*
X2817682Y-9919531D01*
X2817682Y-9919531D02*
X2827205Y-9938579D01*
X2827205Y-9938579D02*
X2836729Y-9976674D01*
X2836729Y-9976674D02*
X2836729Y-10024293D01*
X2836729Y-10024293D02*
X2827205Y-10062389D01*
X2827205Y-10062389D02*
X2817682Y-10081436D01*
X2817682Y-10081436D02*
X2808158Y-10090960D01*
X2808158Y-10090960D02*
X2789110Y-10100484D01*
X2789110Y-10100484D02*
X2770063Y-10100484D01*
X2770063Y-10100484D02*
X2751015Y-10090960D01*
X2751015Y-10090960D02*
X2741491Y-10081436D01*
X2741491Y-10081436D02*
X2731967Y-10062389D01*
X2731967Y-10062389D02*
X2722444Y-10024293D01*
X2722444Y-10024293D02*
X2722444Y-9976674D01*
X2722444Y-9976674D02*
X2731967Y-9938579D01*
X2731967Y-9938579D02*
X2741491Y-9919531D01*
X2741491Y-9919531D02*
X2751015Y-9910008D01*
X2751015Y-9910008D02*
X2770063Y-9900484D01*
X2960539Y-9900484D02*
X2979586Y-9900484D01*
X2979586Y-9900484D02*
X2998634Y-9910008D01*
X2998634Y-9910008D02*
X3008158Y-9919531D01*
X3008158Y-9919531D02*
X3017682Y-9938579D01*
X3017682Y-9938579D02*
X3027205Y-9976674D01*
X3027205Y-9976674D02*
X3027205Y-10024293D01*
X3027205Y-10024293D02*
X3017682Y-10062389D01*
X3017682Y-10062389D02*
X3008158Y-10081436D01*
X3008158Y-10081436D02*
X2998634Y-10090960D01*
X2998634Y-10090960D02*
X2979586Y-10100484D01*
X2979586Y-10100484D02*
X2960539Y-10100484D01*
X2960539Y-10100484D02*
X2941491Y-10090960D01*
X2941491Y-10090960D02*
X2931967Y-10081436D01*
X2931967Y-10081436D02*
X2922443Y-10062389D01*
X2922443Y-10062389D02*
X2912920Y-10024293D01*
X2912920Y-10024293D02*
X2912920Y-9976674D01*
X2912920Y-9976674D02*
X2922443Y-9938579D01*
X2922443Y-9938579D02*
X2931967Y-9919531D01*
X2931967Y-9919531D02*
X2941491Y-9910008D01*
X2941491Y-9910008D02*
X2960539Y-9900484D01*
X3112920Y-10100484D02*
X3112920Y-9967150D01*
X3112920Y-9986198D02*
X3122443Y-9976674D01*
X3122443Y-9976674D02*
X3141491Y-9967150D01*
X3141491Y-9967150D02*
X3170063Y-9967150D01*
X3170063Y-9967150D02*
X3189110Y-9976674D01*
X3189110Y-9976674D02*
X3198634Y-9995722D01*
X3198634Y-9995722D02*
X3198634Y-10100484D01*
X3198634Y-9995722D02*
X3208158Y-9976674D01*
X3208158Y-9976674D02*
X3227205Y-9967150D01*
X3227205Y-9967150D02*
X3255777Y-9967150D01*
X3255777Y-9967150D02*
X3274824Y-9976674D01*
X3274824Y-9976674D02*
X3284348Y-9995722D01*
X3284348Y-9995722D02*
X3284348Y-10100484D01*
X3379586Y-10100484D02*
X3379586Y-9967150D01*
X3379586Y-9986198D02*
X3389110Y-9976674D01*
X3389110Y-9976674D02*
X3408158Y-9967150D01*
X3408158Y-9967150D02*
X3436729Y-9967150D01*
X3436729Y-9967150D02*
X3455777Y-9976674D01*
X3455777Y-9976674D02*
X3465301Y-9995722D01*
X3465301Y-9995722D02*
X3465301Y-10100484D01*
X3465301Y-9995722D02*
X3474824Y-9976674D01*
X3474824Y-9976674D02*
X3493872Y-9967150D01*
X3493872Y-9967150D02*
X3522443Y-9967150D01*
X3522443Y-9967150D02*
X3541491Y-9976674D01*
X3541491Y-9976674D02*
X3551015Y-9995722D01*
X3551015Y-9995722D02*
X3551015Y-10100484D01*
X3941491Y-9890960D02*
X3770063Y-10148103D01*
X4198634Y-9900484D02*
X4217682Y-9900484D01*
X4217682Y-9900484D02*
X4236729Y-9910008D01*
X4236729Y-9910008D02*
X4246253Y-9919531D01*
X4246253Y-9919531D02*
X4255777Y-9938579D01*
X4255777Y-9938579D02*
X4265301Y-9976674D01*
X4265301Y-9976674D02*
X4265301Y-10024293D01*
X4265301Y-10024293D02*
X4255777Y-10062389D01*
X4255777Y-10062389D02*
X4246253Y-10081436D01*
X4246253Y-10081436D02*
X4236729Y-10090960D01*
X4236729Y-10090960D02*
X4217682Y-10100484D01*
X4217682Y-10100484D02*
X4198634Y-10100484D01*
X4198634Y-10100484D02*
X4179586Y-10090960D01*
X4179586Y-10090960D02*
X4170063Y-10081436D01*
X4170063Y-10081436D02*
X4160539Y-10062389D01*
X4160539Y-10062389D02*
X4151015Y-10024293D01*
X4151015Y-10024293D02*
X4151015Y-9976674D01*
X4151015Y-9976674D02*
X4160539Y-9938579D01*
X4160539Y-9938579D02*
X4170063Y-9919531D01*
X4170063Y-9919531D02*
X4179586Y-9910008D01*
X4179586Y-9910008D02*
X4198634Y-9900484D01*
X4351015Y-10081436D02*
X4360539Y-10090960D01*
X4360539Y-10090960D02*
X4351015Y-10100484D01*
X4351015Y-10100484D02*
X4341491Y-10090960D01*
X4341491Y-10090960D02*
X4351015Y-10081436D01*
X4351015Y-10081436D02*
X4351015Y-10100484D01*
X4484348Y-9900484D02*
X4503396Y-9900484D01*
X4503396Y-9900484D02*
X4522444Y-9910008D01*
X4522444Y-9910008D02*
X4531968Y-9919531D01*
X4531968Y-9919531D02*
X4541491Y-9938579D01*
X4541491Y-9938579D02*
X4551015Y-9976674D01*
X4551015Y-9976674D02*
X4551015Y-10024293D01*
X4551015Y-10024293D02*
X4541491Y-10062389D01*
X4541491Y-10062389D02*
X4531968Y-10081436D01*
X4531968Y-10081436D02*
X4522444Y-10090960D01*
X4522444Y-10090960D02*
X4503396Y-10100484D01*
X4503396Y-10100484D02*
X4484348Y-10100484D01*
X4484348Y-10100484D02*
X4465301Y-10090960D01*
X4465301Y-10090960D02*
X4455777Y-10081436D01*
X4455777Y-10081436D02*
X4446253Y-10062389D01*
X4446253Y-10062389D02*
X4436729Y-10024293D01*
X4436729Y-10024293D02*
X4436729Y-9976674D01*
X4436729Y-9976674D02*
X4446253Y-9938579D01*
X4446253Y-9938579D02*
X4455777Y-9919531D01*
X4455777Y-9919531D02*
X4465301Y-9910008D01*
X4465301Y-9910008D02*
X4484348Y-9900484D01*
X4617682Y-9900484D02*
X4741491Y-9900484D01*
X4741491Y-9900484D02*
X4674825Y-9976674D01*
X4674825Y-9976674D02*
X4703396Y-9976674D01*
X4703396Y-9976674D02*
X4722444Y-9986198D01*
X4722444Y-9986198D02*
X4731968Y-9995722D01*
X4731968Y-9995722D02*
X4741491Y-10014770D01*
X4741491Y-10014770D02*
X4741491Y-10062389D01*
X4741491Y-10062389D02*
X4731968Y-10081436D01*
X4731968Y-10081436D02*
X4722444Y-10090960D01*
X4722444Y-10090960D02*
X4703396Y-10100484D01*
X4703396Y-10100484D02*
X4646253Y-10100484D01*
X4646253Y-10100484D02*
X4627206Y-10090960D01*
X4627206Y-10090960D02*
X4617682Y-10081436D01*
X4931968Y-10100484D02*
X4817682Y-10100484D01*
X4874825Y-10100484D02*
X4874825Y-9900484D01*
X4874825Y-9900484D02*
X4855777Y-9929055D01*
X4855777Y-9929055D02*
X4836729Y-9948103D01*
X4836729Y-9948103D02*
X4817682Y-9957627D01*
X5112920Y-9900484D02*
X5017682Y-9900484D01*
X5017682Y-9900484D02*
X5008158Y-9995722D01*
X5008158Y-9995722D02*
X5017682Y-9986198D01*
X5017682Y-9986198D02*
X5036729Y-9976674D01*
X5036729Y-9976674D02*
X5084349Y-9976674D01*
X5084349Y-9976674D02*
X5103396Y-9986198D01*
X5103396Y-9986198D02*
X5112920Y-9995722D01*
X5112920Y-9995722D02*
X5122444Y-10014770D01*
X5122444Y-10014770D02*
X5122444Y-10062389D01*
X5122444Y-10062389D02*
X5112920Y-10081436D01*
X5112920Y-10081436D02*
X5103396Y-10090960D01*
X5103396Y-10090960D02*
X5084349Y-10100484D01*
X5084349Y-10100484D02*
X5036729Y-10100484D01*
X5036729Y-10100484D02*
X5017682Y-10090960D01*
X5017682Y-10090960D02*
X5008158Y-10081436D01*
X5198634Y-9900484D02*
X5198634Y-9938579D01*
X5274825Y-9900484D02*
X5274825Y-9938579D01*
X5570063Y-10176674D02*
X5560539Y-10167150D01*
X5560539Y-10167150D02*
X5541491Y-10138579D01*
X5541491Y-10138579D02*
X5531968Y-10119531D01*
X5531968Y-10119531D02*
X5522444Y-10090960D01*
X5522444Y-10090960D02*
X5512920Y-10043341D01*
X5512920Y-10043341D02*
X5512920Y-10005246D01*
X5512920Y-10005246D02*
X5522444Y-9957627D01*
X5522444Y-9957627D02*
X5531968Y-9929055D01*
X5531968Y-9929055D02*
X5541491Y-9910008D01*
X5541491Y-9910008D02*
X5560539Y-9881436D01*
X5560539Y-9881436D02*
X5570063Y-9871912D01*
X5636729Y-9919531D02*
X5646253Y-9910008D01*
X5646253Y-9910008D02*
X5665301Y-9900484D01*
X5665301Y-9900484D02*
X5712920Y-9900484D01*
X5712920Y-9900484D02*
X5731968Y-9910008D01*
X5731968Y-9910008D02*
X5741491Y-9919531D01*
X5741491Y-9919531D02*
X5751015Y-9938579D01*
X5751015Y-9938579D02*
X5751015Y-9957627D01*
X5751015Y-9957627D02*
X5741491Y-9986198D01*
X5741491Y-9986198D02*
X5627206Y-10100484D01*
X5627206Y-10100484D02*
X5751015Y-10100484D01*
X5817682Y-9900484D02*
X5941491Y-9900484D01*
X5941491Y-9900484D02*
X5874825Y-9976674D01*
X5874825Y-9976674D02*
X5903396Y-9976674D01*
X5903396Y-9976674D02*
X5922444Y-9986198D01*
X5922444Y-9986198D02*
X5931968Y-9995722D01*
X5931968Y-9995722D02*
X5941491Y-10014770D01*
X5941491Y-10014770D02*
X5941491Y-10062389D01*
X5941491Y-10062389D02*
X5931968Y-10081436D01*
X5931968Y-10081436D02*
X5922444Y-10090960D01*
X5922444Y-10090960D02*
X5903396Y-10100484D01*
X5903396Y-10100484D02*
X5846253Y-10100484D01*
X5846253Y-10100484D02*
X5827206Y-10090960D01*
X5827206Y-10090960D02*
X5817682Y-10081436D01*
X6179587Y-10100484D02*
X6179587Y-9900484D01*
X6265301Y-10100484D02*
X6265301Y-9995722D01*
X6265301Y-9995722D02*
X6255777Y-9976674D01*
X6255777Y-9976674D02*
X6236730Y-9967150D01*
X6236730Y-9967150D02*
X6208158Y-9967150D01*
X6208158Y-9967150D02*
X6189110Y-9976674D01*
X6189110Y-9976674D02*
X6179587Y-9986198D01*
X6389110Y-10100484D02*
X6370063Y-10090960D01*
X6370063Y-10090960D02*
X6360539Y-10081436D01*
X6360539Y-10081436D02*
X6351015Y-10062389D01*
X6351015Y-10062389D02*
X6351015Y-10005246D01*
X6351015Y-10005246D02*
X6360539Y-9986198D01*
X6360539Y-9986198D02*
X6370063Y-9976674D01*
X6370063Y-9976674D02*
X6389110Y-9967150D01*
X6389110Y-9967150D02*
X6417682Y-9967150D01*
X6417682Y-9967150D02*
X6436730Y-9976674D01*
X6436730Y-9976674D02*
X6446253Y-9986198D01*
X6446253Y-9986198D02*
X6455777Y-10005246D01*
X6455777Y-10005246D02*
X6455777Y-10062389D01*
X6455777Y-10062389D02*
X6446253Y-10081436D01*
X6446253Y-10081436D02*
X6436730Y-10090960D01*
X6436730Y-10090960D02*
X6417682Y-10100484D01*
X6417682Y-10100484D02*
X6389110Y-10100484D01*
X6570063Y-10100484D02*
X6551015Y-10090960D01*
X6551015Y-10090960D02*
X6541491Y-10071912D01*
X6541491Y-10071912D02*
X6541491Y-9900484D01*
X6722444Y-10090960D02*
X6703396Y-10100484D01*
X6703396Y-10100484D02*
X6665301Y-10100484D01*
X6665301Y-10100484D02*
X6646253Y-10090960D01*
X6646253Y-10090960D02*
X6636730Y-10071912D01*
X6636730Y-10071912D02*
X6636730Y-9995722D01*
X6636730Y-9995722D02*
X6646253Y-9976674D01*
X6646253Y-9976674D02*
X6665301Y-9967150D01*
X6665301Y-9967150D02*
X6703396Y-9967150D01*
X6703396Y-9967150D02*
X6722444Y-9976674D01*
X6722444Y-9976674D02*
X6731968Y-9995722D01*
X6731968Y-9995722D02*
X6731968Y-10014770D01*
X6731968Y-10014770D02*
X6636730Y-10033817D01*
X6808158Y-10090960D02*
X6827206Y-10100484D01*
X6827206Y-10100484D02*
X6865301Y-10100484D01*
X6865301Y-10100484D02*
X6884349Y-10090960D01*
X6884349Y-10090960D02*
X6893872Y-10071912D01*
X6893872Y-10071912D02*
X6893872Y-10062389D01*
X6893872Y-10062389D02*
X6884349Y-10043341D01*
X6884349Y-10043341D02*
X6865301Y-10033817D01*
X6865301Y-10033817D02*
X6836730Y-10033817D01*
X6836730Y-10033817D02*
X6817682Y-10024293D01*
X6817682Y-10024293D02*
X6808158Y-10005246D01*
X6808158Y-10005246D02*
X6808158Y-9995722D01*
X6808158Y-9995722D02*
X6817682Y-9976674D01*
X6817682Y-9976674D02*
X6836730Y-9967150D01*
X6836730Y-9967150D02*
X6865301Y-9967150D01*
X6865301Y-9967150D02*
X6884349Y-9976674D01*
X6960539Y-10176674D02*
X6970063Y-10167150D01*
X6970063Y-10167150D02*
X6989111Y-10138579D01*
X6989111Y-10138579D02*
X6998634Y-10119531D01*
X6998634Y-10119531D02*
X7008158Y-10090960D01*
X7008158Y-10090960D02*
X7017682Y-10043341D01*
X7017682Y-10043341D02*
X7017682Y-10005246D01*
X7017682Y-10005246D02*
X7008158Y-9957627D01*
X7008158Y-9957627D02*
X6998634Y-9929055D01*
X6998634Y-9929055D02*
X6989111Y-9910008D01*
X6989111Y-9910008D02*
X6970063Y-9881436D01*
X6970063Y-9881436D02*
X6960539Y-9871912D01*
D10*
X1945000Y-10223000D02*
X1945000Y-10323000D01*
X1895000Y-10273000D02*
X1995000Y-10273000D01*
D11*
X2360539Y-10364484D02*
X2246253Y-10364484D01*
X2303396Y-10364484D02*
X2303396Y-10164484D01*
X2303396Y-10164484D02*
X2284348Y-10193055D01*
X2284348Y-10193055D02*
X2265301Y-10212103D01*
X2265301Y-10212103D02*
X2246253Y-10221627D01*
X2446253Y-10345436D02*
X2455777Y-10354960D01*
X2455777Y-10354960D02*
X2446253Y-10364484D01*
X2446253Y-10364484D02*
X2436729Y-10354960D01*
X2436729Y-10354960D02*
X2446253Y-10345436D01*
X2446253Y-10345436D02*
X2446253Y-10364484D01*
X2579586Y-10164484D02*
X2598634Y-10164484D01*
X2598634Y-10164484D02*
X2617682Y-10174008D01*
X2617682Y-10174008D02*
X2627205Y-10183531D01*
X2627205Y-10183531D02*
X2636729Y-10202579D01*
X2636729Y-10202579D02*
X2646253Y-10240674D01*
X2646253Y-10240674D02*
X2646253Y-10288293D01*
X2646253Y-10288293D02*
X2636729Y-10326389D01*
X2636729Y-10326389D02*
X2627205Y-10345436D01*
X2627205Y-10345436D02*
X2617682Y-10354960D01*
X2617682Y-10354960D02*
X2598634Y-10364484D01*
X2598634Y-10364484D02*
X2579586Y-10364484D01*
X2579586Y-10364484D02*
X2560539Y-10354960D01*
X2560539Y-10354960D02*
X2551015Y-10345436D01*
X2551015Y-10345436D02*
X2541491Y-10326389D01*
X2541491Y-10326389D02*
X2531967Y-10288293D01*
X2531967Y-10288293D02*
X2531967Y-10240674D01*
X2531967Y-10240674D02*
X2541491Y-10202579D01*
X2541491Y-10202579D02*
X2551015Y-10183531D01*
X2551015Y-10183531D02*
X2560539Y-10174008D01*
X2560539Y-10174008D02*
X2579586Y-10164484D01*
X2770063Y-10164484D02*
X2789110Y-10164484D01*
X2789110Y-10164484D02*
X2808158Y-10174008D01*
X2808158Y-10174008D02*
X2817682Y-10183531D01*
X2817682Y-10183531D02*
X2827205Y-10202579D01*
X2827205Y-10202579D02*
X2836729Y-10240674D01*
X2836729Y-10240674D02*
X2836729Y-10288293D01*
X2836729Y-10288293D02*
X2827205Y-10326389D01*
X2827205Y-10326389D02*
X2817682Y-10345436D01*
X2817682Y-10345436D02*
X2808158Y-10354960D01*
X2808158Y-10354960D02*
X2789110Y-10364484D01*
X2789110Y-10364484D02*
X2770063Y-10364484D01*
X2770063Y-10364484D02*
X2751015Y-10354960D01*
X2751015Y-10354960D02*
X2741491Y-10345436D01*
X2741491Y-10345436D02*
X2731967Y-10326389D01*
X2731967Y-10326389D02*
X2722444Y-10288293D01*
X2722444Y-10288293D02*
X2722444Y-10240674D01*
X2722444Y-10240674D02*
X2731967Y-10202579D01*
X2731967Y-10202579D02*
X2741491Y-10183531D01*
X2741491Y-10183531D02*
X2751015Y-10174008D01*
X2751015Y-10174008D02*
X2770063Y-10164484D01*
X2960539Y-10164484D02*
X2979586Y-10164484D01*
X2979586Y-10164484D02*
X2998634Y-10174008D01*
X2998634Y-10174008D02*
X3008158Y-10183531D01*
X3008158Y-10183531D02*
X3017682Y-10202579D01*
X3017682Y-10202579D02*
X3027205Y-10240674D01*
X3027205Y-10240674D02*
X3027205Y-10288293D01*
X3027205Y-10288293D02*
X3017682Y-10326389D01*
X3017682Y-10326389D02*
X3008158Y-10345436D01*
X3008158Y-10345436D02*
X2998634Y-10354960D01*
X2998634Y-10354960D02*
X2979586Y-10364484D01*
X2979586Y-10364484D02*
X2960539Y-10364484D01*
X2960539Y-10364484D02*
X2941491Y-10354960D01*
X2941491Y-10354960D02*
X2931967Y-10345436D01*
X2931967Y-10345436D02*
X2922443Y-10326389D01*
X2922443Y-10326389D02*
X2912920Y-10288293D01*
X2912920Y-10288293D02*
X2912920Y-10240674D01*
X2912920Y-10240674D02*
X2922443Y-10202579D01*
X2922443Y-10202579D02*
X2931967Y-10183531D01*
X2931967Y-10183531D02*
X2941491Y-10174008D01*
X2941491Y-10174008D02*
X2960539Y-10164484D01*
X3112920Y-10364484D02*
X3112920Y-10231150D01*
X3112920Y-10250198D02*
X3122443Y-10240674D01*
X3122443Y-10240674D02*
X3141491Y-10231150D01*
X3141491Y-10231150D02*
X3170063Y-10231150D01*
X3170063Y-10231150D02*
X3189110Y-10240674D01*
X3189110Y-10240674D02*
X3198634Y-10259722D01*
X3198634Y-10259722D02*
X3198634Y-10364484D01*
X3198634Y-10259722D02*
X3208158Y-10240674D01*
X3208158Y-10240674D02*
X3227205Y-10231150D01*
X3227205Y-10231150D02*
X3255777Y-10231150D01*
X3255777Y-10231150D02*
X3274824Y-10240674D01*
X3274824Y-10240674D02*
X3284348Y-10259722D01*
X3284348Y-10259722D02*
X3284348Y-10364484D01*
X3379586Y-10364484D02*
X3379586Y-10231150D01*
X3379586Y-10250198D02*
X3389110Y-10240674D01*
X3389110Y-10240674D02*
X3408158Y-10231150D01*
X3408158Y-10231150D02*
X3436729Y-10231150D01*
X3436729Y-10231150D02*
X3455777Y-10240674D01*
X3455777Y-10240674D02*
X3465301Y-10259722D01*
X3465301Y-10259722D02*
X3465301Y-10364484D01*
X3465301Y-10259722D02*
X3474824Y-10240674D01*
X3474824Y-10240674D02*
X3493872Y-10231150D01*
X3493872Y-10231150D02*
X3522443Y-10231150D01*
X3522443Y-10231150D02*
X3541491Y-10240674D01*
X3541491Y-10240674D02*
X3551015Y-10259722D01*
X3551015Y-10259722D02*
X3551015Y-10364484D01*
X3941491Y-10154960D02*
X3770063Y-10412103D01*
X4198634Y-10164484D02*
X4217682Y-10164484D01*
X4217682Y-10164484D02*
X4236729Y-10174008D01*
X4236729Y-10174008D02*
X4246253Y-10183531D01*
X4246253Y-10183531D02*
X4255777Y-10202579D01*
X4255777Y-10202579D02*
X4265301Y-10240674D01*
X4265301Y-10240674D02*
X4265301Y-10288293D01*
X4265301Y-10288293D02*
X4255777Y-10326389D01*
X4255777Y-10326389D02*
X4246253Y-10345436D01*
X4246253Y-10345436D02*
X4236729Y-10354960D01*
X4236729Y-10354960D02*
X4217682Y-10364484D01*
X4217682Y-10364484D02*
X4198634Y-10364484D01*
X4198634Y-10364484D02*
X4179586Y-10354960D01*
X4179586Y-10354960D02*
X4170063Y-10345436D01*
X4170063Y-10345436D02*
X4160539Y-10326389D01*
X4160539Y-10326389D02*
X4151015Y-10288293D01*
X4151015Y-10288293D02*
X4151015Y-10240674D01*
X4151015Y-10240674D02*
X4160539Y-10202579D01*
X4160539Y-10202579D02*
X4170063Y-10183531D01*
X4170063Y-10183531D02*
X4179586Y-10174008D01*
X4179586Y-10174008D02*
X4198634Y-10164484D01*
X4351015Y-10345436D02*
X4360539Y-10354960D01*
X4360539Y-10354960D02*
X4351015Y-10364484D01*
X4351015Y-10364484D02*
X4341491Y-10354960D01*
X4341491Y-10354960D02*
X4351015Y-10345436D01*
X4351015Y-10345436D02*
X4351015Y-10364484D01*
X4484348Y-10164484D02*
X4503396Y-10164484D01*
X4503396Y-10164484D02*
X4522444Y-10174008D01*
X4522444Y-10174008D02*
X4531968Y-10183531D01*
X4531968Y-10183531D02*
X4541491Y-10202579D01*
X4541491Y-10202579D02*
X4551015Y-10240674D01*
X4551015Y-10240674D02*
X4551015Y-10288293D01*
X4551015Y-10288293D02*
X4541491Y-10326389D01*
X4541491Y-10326389D02*
X4531968Y-10345436D01*
X4531968Y-10345436D02*
X4522444Y-10354960D01*
X4522444Y-10354960D02*
X4503396Y-10364484D01*
X4503396Y-10364484D02*
X4484348Y-10364484D01*
X4484348Y-10364484D02*
X4465301Y-10354960D01*
X4465301Y-10354960D02*
X4455777Y-10345436D01*
X4455777Y-10345436D02*
X4446253Y-10326389D01*
X4446253Y-10326389D02*
X4436729Y-10288293D01*
X4436729Y-10288293D02*
X4436729Y-10240674D01*
X4436729Y-10240674D02*
X4446253Y-10202579D01*
X4446253Y-10202579D02*
X4455777Y-10183531D01*
X4455777Y-10183531D02*
X4465301Y-10174008D01*
X4465301Y-10174008D02*
X4484348Y-10164484D01*
X4617682Y-10164484D02*
X4741491Y-10164484D01*
X4741491Y-10164484D02*
X4674825Y-10240674D01*
X4674825Y-10240674D02*
X4703396Y-10240674D01*
X4703396Y-10240674D02*
X4722444Y-10250198D01*
X4722444Y-10250198D02*
X4731968Y-10259722D01*
X4731968Y-10259722D02*
X4741491Y-10278770D01*
X4741491Y-10278770D02*
X4741491Y-10326389D01*
X4741491Y-10326389D02*
X4731968Y-10345436D01*
X4731968Y-10345436D02*
X4722444Y-10354960D01*
X4722444Y-10354960D02*
X4703396Y-10364484D01*
X4703396Y-10364484D02*
X4646253Y-10364484D01*
X4646253Y-10364484D02*
X4627206Y-10354960D01*
X4627206Y-10354960D02*
X4617682Y-10345436D01*
X4836729Y-10364484D02*
X4874825Y-10364484D01*
X4874825Y-10364484D02*
X4893872Y-10354960D01*
X4893872Y-10354960D02*
X4903396Y-10345436D01*
X4903396Y-10345436D02*
X4922444Y-10316865D01*
X4922444Y-10316865D02*
X4931968Y-10278770D01*
X4931968Y-10278770D02*
X4931968Y-10202579D01*
X4931968Y-10202579D02*
X4922444Y-10183531D01*
X4922444Y-10183531D02*
X4912920Y-10174008D01*
X4912920Y-10174008D02*
X4893872Y-10164484D01*
X4893872Y-10164484D02*
X4855777Y-10164484D01*
X4855777Y-10164484D02*
X4836729Y-10174008D01*
X4836729Y-10174008D02*
X4827206Y-10183531D01*
X4827206Y-10183531D02*
X4817682Y-10202579D01*
X4817682Y-10202579D02*
X4817682Y-10250198D01*
X4817682Y-10250198D02*
X4827206Y-10269246D01*
X4827206Y-10269246D02*
X4836729Y-10278770D01*
X4836729Y-10278770D02*
X4855777Y-10288293D01*
X4855777Y-10288293D02*
X4893872Y-10288293D01*
X4893872Y-10288293D02*
X4912920Y-10278770D01*
X4912920Y-10278770D02*
X4922444Y-10269246D01*
X4922444Y-10269246D02*
X4931968Y-10250198D01*
X5103396Y-10231150D02*
X5103396Y-10364484D01*
X5055777Y-10154960D02*
X5008158Y-10297817D01*
X5008158Y-10297817D02*
X5131968Y-10297817D01*
X5198634Y-10164484D02*
X5198634Y-10202579D01*
X5274825Y-10164484D02*
X5274825Y-10202579D01*
X5570063Y-10440674D02*
X5560539Y-10431150D01*
X5560539Y-10431150D02*
X5541491Y-10402579D01*
X5541491Y-10402579D02*
X5531968Y-10383531D01*
X5531968Y-10383531D02*
X5522444Y-10354960D01*
X5522444Y-10354960D02*
X5512920Y-10307341D01*
X5512920Y-10307341D02*
X5512920Y-10269246D01*
X5512920Y-10269246D02*
X5522444Y-10221627D01*
X5522444Y-10221627D02*
X5531968Y-10193055D01*
X5531968Y-10193055D02*
X5541491Y-10174008D01*
X5541491Y-10174008D02*
X5560539Y-10145436D01*
X5560539Y-10145436D02*
X5570063Y-10135912D01*
X5741491Y-10164484D02*
X5646253Y-10164484D01*
X5646253Y-10164484D02*
X5636729Y-10259722D01*
X5636729Y-10259722D02*
X5646253Y-10250198D01*
X5646253Y-10250198D02*
X5665301Y-10240674D01*
X5665301Y-10240674D02*
X5712920Y-10240674D01*
X5712920Y-10240674D02*
X5731968Y-10250198D01*
X5731968Y-10250198D02*
X5741491Y-10259722D01*
X5741491Y-10259722D02*
X5751015Y-10278770D01*
X5751015Y-10278770D02*
X5751015Y-10326389D01*
X5751015Y-10326389D02*
X5741491Y-10345436D01*
X5741491Y-10345436D02*
X5731968Y-10354960D01*
X5731968Y-10354960D02*
X5712920Y-10364484D01*
X5712920Y-10364484D02*
X5665301Y-10364484D01*
X5665301Y-10364484D02*
X5646253Y-10354960D01*
X5646253Y-10354960D02*
X5636729Y-10345436D01*
X5989110Y-10364484D02*
X5989110Y-10164484D01*
X6074825Y-10364484D02*
X6074825Y-10259722D01*
X6074825Y-10259722D02*
X6065301Y-10240674D01*
X6065301Y-10240674D02*
X6046253Y-10231150D01*
X6046253Y-10231150D02*
X6017682Y-10231150D01*
X6017682Y-10231150D02*
X5998634Y-10240674D01*
X5998634Y-10240674D02*
X5989110Y-10250198D01*
X6198634Y-10364484D02*
X6179587Y-10354960D01*
X6179587Y-10354960D02*
X6170063Y-10345436D01*
X6170063Y-10345436D02*
X6160539Y-10326389D01*
X6160539Y-10326389D02*
X6160539Y-10269246D01*
X6160539Y-10269246D02*
X6170063Y-10250198D01*
X6170063Y-10250198D02*
X6179587Y-10240674D01*
X6179587Y-10240674D02*
X6198634Y-10231150D01*
X6198634Y-10231150D02*
X6227206Y-10231150D01*
X6227206Y-10231150D02*
X6246253Y-10240674D01*
X6246253Y-10240674D02*
X6255777Y-10250198D01*
X6255777Y-10250198D02*
X6265301Y-10269246D01*
X6265301Y-10269246D02*
X6265301Y-10326389D01*
X6265301Y-10326389D02*
X6255777Y-10345436D01*
X6255777Y-10345436D02*
X6246253Y-10354960D01*
X6246253Y-10354960D02*
X6227206Y-10364484D01*
X6227206Y-10364484D02*
X6198634Y-10364484D01*
X6379587Y-10364484D02*
X6360539Y-10354960D01*
X6360539Y-10354960D02*
X6351015Y-10335912D01*
X6351015Y-10335912D02*
X6351015Y-10164484D01*
X6531968Y-10354960D02*
X6512920Y-10364484D01*
X6512920Y-10364484D02*
X6474825Y-10364484D01*
X6474825Y-10364484D02*
X6455777Y-10354960D01*
X6455777Y-10354960D02*
X6446253Y-10335912D01*
X6446253Y-10335912D02*
X6446253Y-10259722D01*
X6446253Y-10259722D02*
X6455777Y-10240674D01*
X6455777Y-10240674D02*
X6474825Y-10231150D01*
X6474825Y-10231150D02*
X6512920Y-10231150D01*
X6512920Y-10231150D02*
X6531968Y-10240674D01*
X6531968Y-10240674D02*
X6541491Y-10259722D01*
X6541491Y-10259722D02*
X6541491Y-10278770D01*
X6541491Y-10278770D02*
X6446253Y-10297817D01*
X6617682Y-10354960D02*
X6636730Y-10364484D01*
X6636730Y-10364484D02*
X6674825Y-10364484D01*
X6674825Y-10364484D02*
X6693872Y-10354960D01*
X6693872Y-10354960D02*
X6703396Y-10335912D01*
X6703396Y-10335912D02*
X6703396Y-10326389D01*
X6703396Y-10326389D02*
X6693872Y-10307341D01*
X6693872Y-10307341D02*
X6674825Y-10297817D01*
X6674825Y-10297817D02*
X6646253Y-10297817D01*
X6646253Y-10297817D02*
X6627206Y-10288293D01*
X6627206Y-10288293D02*
X6617682Y-10269246D01*
X6617682Y-10269246D02*
X6617682Y-10259722D01*
X6617682Y-10259722D02*
X6627206Y-10240674D01*
X6627206Y-10240674D02*
X6646253Y-10231150D01*
X6646253Y-10231150D02*
X6674825Y-10231150D01*
X6674825Y-10231150D02*
X6693872Y-10240674D01*
X6770063Y-10440674D02*
X6779587Y-10431150D01*
X6779587Y-10431150D02*
X6798634Y-10402579D01*
X6798634Y-10402579D02*
X6808158Y-10383531D01*
X6808158Y-10383531D02*
X6817682Y-10354960D01*
X6817682Y-10354960D02*
X6827206Y-10307341D01*
X6827206Y-10307341D02*
X6827206Y-10269246D01*
X6827206Y-10269246D02*
X6817682Y-10221627D01*
X6817682Y-10221627D02*
X6808158Y-10193055D01*
X6808158Y-10193055D02*
X6798634Y-10174008D01*
X6798634Y-10174008D02*
X6779587Y-10145436D01*
X6779587Y-10145436D02*
X6770063Y-10135912D01*
D14*
X1972310Y-10591780D02*
X1972310Y-10482220D01*
X1862750Y-10482220D01*
X1862750Y-10591780D01*
X1972310Y-10591780D01*
D11*
X2360539Y-10628484D02*
X2246253Y-10628484D01*
X2303396Y-10628484D02*
X2303396Y-10428484D01*
X2303396Y-10428484D02*
X2284348Y-10457055D01*
X2284348Y-10457055D02*
X2265301Y-10476103D01*
X2265301Y-10476103D02*
X2246253Y-10485627D01*
X2446253Y-10609436D02*
X2455777Y-10618960D01*
X2455777Y-10618960D02*
X2446253Y-10628484D01*
X2446253Y-10628484D02*
X2436729Y-10618960D01*
X2436729Y-10618960D02*
X2446253Y-10609436D01*
X2446253Y-10609436D02*
X2446253Y-10628484D01*
X2636729Y-10428484D02*
X2541491Y-10428484D01*
X2541491Y-10428484D02*
X2531967Y-10523722D01*
X2531967Y-10523722D02*
X2541491Y-10514198D01*
X2541491Y-10514198D02*
X2560539Y-10504674D01*
X2560539Y-10504674D02*
X2608158Y-10504674D01*
X2608158Y-10504674D02*
X2627205Y-10514198D01*
X2627205Y-10514198D02*
X2636729Y-10523722D01*
X2636729Y-10523722D02*
X2646253Y-10542770D01*
X2646253Y-10542770D02*
X2646253Y-10590389D01*
X2646253Y-10590389D02*
X2636729Y-10609436D01*
X2636729Y-10609436D02*
X2627205Y-10618960D01*
X2627205Y-10618960D02*
X2608158Y-10628484D01*
X2608158Y-10628484D02*
X2560539Y-10628484D01*
X2560539Y-10628484D02*
X2541491Y-10618960D01*
X2541491Y-10618960D02*
X2531967Y-10609436D01*
X2817682Y-10495150D02*
X2817682Y-10628484D01*
X2770063Y-10418960D02*
X2722444Y-10561817D01*
X2722444Y-10561817D02*
X2846253Y-10561817D01*
X2931967Y-10628484D02*
X2970062Y-10628484D01*
X2970062Y-10628484D02*
X2989110Y-10618960D01*
X2989110Y-10618960D02*
X2998634Y-10609436D01*
X2998634Y-10609436D02*
X3017682Y-10580865D01*
X3017682Y-10580865D02*
X3027205Y-10542770D01*
X3027205Y-10542770D02*
X3027205Y-10466579D01*
X3027205Y-10466579D02*
X3017682Y-10447531D01*
X3017682Y-10447531D02*
X3008158Y-10438008D01*
X3008158Y-10438008D02*
X2989110Y-10428484D01*
X2989110Y-10428484D02*
X2951015Y-10428484D01*
X2951015Y-10428484D02*
X2931967Y-10438008D01*
X2931967Y-10438008D02*
X2922443Y-10447531D01*
X2922443Y-10447531D02*
X2912920Y-10466579D01*
X2912920Y-10466579D02*
X2912920Y-10514198D01*
X2912920Y-10514198D02*
X2922443Y-10533246D01*
X2922443Y-10533246D02*
X2931967Y-10542770D01*
X2931967Y-10542770D02*
X2951015Y-10552293D01*
X2951015Y-10552293D02*
X2989110Y-10552293D01*
X2989110Y-10552293D02*
X3008158Y-10542770D01*
X3008158Y-10542770D02*
X3017682Y-10533246D01*
X3017682Y-10533246D02*
X3027205Y-10514198D01*
X3112920Y-10628484D02*
X3112920Y-10495150D01*
X3112920Y-10514198D02*
X3122443Y-10504674D01*
X3122443Y-10504674D02*
X3141491Y-10495150D01*
X3141491Y-10495150D02*
X3170063Y-10495150D01*
X3170063Y-10495150D02*
X3189110Y-10504674D01*
X3189110Y-10504674D02*
X3198634Y-10523722D01*
X3198634Y-10523722D02*
X3198634Y-10628484D01*
X3198634Y-10523722D02*
X3208158Y-10504674D01*
X3208158Y-10504674D02*
X3227205Y-10495150D01*
X3227205Y-10495150D02*
X3255777Y-10495150D01*
X3255777Y-10495150D02*
X3274824Y-10504674D01*
X3274824Y-10504674D02*
X3284348Y-10523722D01*
X3284348Y-10523722D02*
X3284348Y-10628484D01*
X3379586Y-10628484D02*
X3379586Y-10495150D01*
X3379586Y-10514198D02*
X3389110Y-10504674D01*
X3389110Y-10504674D02*
X3408158Y-10495150D01*
X3408158Y-10495150D02*
X3436729Y-10495150D01*
X3436729Y-10495150D02*
X3455777Y-10504674D01*
X3455777Y-10504674D02*
X3465301Y-10523722D01*
X3465301Y-10523722D02*
X3465301Y-10628484D01*
X3465301Y-10523722D02*
X3474824Y-10504674D01*
X3474824Y-10504674D02*
X3493872Y-10495150D01*
X3493872Y-10495150D02*
X3522443Y-10495150D01*
X3522443Y-10495150D02*
X3541491Y-10504674D01*
X3541491Y-10504674D02*
X3551015Y-10523722D01*
X3551015Y-10523722D02*
X3551015Y-10628484D01*
X3941491Y-10418960D02*
X3770063Y-10676103D01*
X4198634Y-10428484D02*
X4217682Y-10428484D01*
X4217682Y-10428484D02*
X4236729Y-10438008D01*
X4236729Y-10438008D02*
X4246253Y-10447531D01*
X4246253Y-10447531D02*
X4255777Y-10466579D01*
X4255777Y-10466579D02*
X4265301Y-10504674D01*
X4265301Y-10504674D02*
X4265301Y-10552293D01*
X4265301Y-10552293D02*
X4255777Y-10590389D01*
X4255777Y-10590389D02*
X4246253Y-10609436D01*
X4246253Y-10609436D02*
X4236729Y-10618960D01*
X4236729Y-10618960D02*
X4217682Y-10628484D01*
X4217682Y-10628484D02*
X4198634Y-10628484D01*
X4198634Y-10628484D02*
X4179586Y-10618960D01*
X4179586Y-10618960D02*
X4170063Y-10609436D01*
X4170063Y-10609436D02*
X4160539Y-10590389D01*
X4160539Y-10590389D02*
X4151015Y-10552293D01*
X4151015Y-10552293D02*
X4151015Y-10504674D01*
X4151015Y-10504674D02*
X4160539Y-10466579D01*
X4160539Y-10466579D02*
X4170063Y-10447531D01*
X4170063Y-10447531D02*
X4179586Y-10438008D01*
X4179586Y-10438008D02*
X4198634Y-10428484D01*
X4351015Y-10609436D02*
X4360539Y-10618960D01*
X4360539Y-10618960D02*
X4351015Y-10628484D01*
X4351015Y-10628484D02*
X4341491Y-10618960D01*
X4341491Y-10618960D02*
X4351015Y-10609436D01*
X4351015Y-10609436D02*
X4351015Y-10628484D01*
X4484348Y-10428484D02*
X4503396Y-10428484D01*
X4503396Y-10428484D02*
X4522444Y-10438008D01*
X4522444Y-10438008D02*
X4531968Y-10447531D01*
X4531968Y-10447531D02*
X4541491Y-10466579D01*
X4541491Y-10466579D02*
X4551015Y-10504674D01*
X4551015Y-10504674D02*
X4551015Y-10552293D01*
X4551015Y-10552293D02*
X4541491Y-10590389D01*
X4541491Y-10590389D02*
X4531968Y-10609436D01*
X4531968Y-10609436D02*
X4522444Y-10618960D01*
X4522444Y-10618960D02*
X4503396Y-10628484D01*
X4503396Y-10628484D02*
X4484348Y-10628484D01*
X4484348Y-10628484D02*
X4465301Y-10618960D01*
X4465301Y-10618960D02*
X4455777Y-10609436D01*
X4455777Y-10609436D02*
X4446253Y-10590389D01*
X4446253Y-10590389D02*
X4436729Y-10552293D01*
X4436729Y-10552293D02*
X4436729Y-10504674D01*
X4436729Y-10504674D02*
X4446253Y-10466579D01*
X4446253Y-10466579D02*
X4455777Y-10447531D01*
X4455777Y-10447531D02*
X4465301Y-10438008D01*
X4465301Y-10438008D02*
X4484348Y-10428484D01*
X4722444Y-10428484D02*
X4684348Y-10428484D01*
X4684348Y-10428484D02*
X4665301Y-10438008D01*
X4665301Y-10438008D02*
X4655777Y-10447531D01*
X4655777Y-10447531D02*
X4636729Y-10476103D01*
X4636729Y-10476103D02*
X4627206Y-10514198D01*
X4627206Y-10514198D02*
X4627206Y-10590389D01*
X4627206Y-10590389D02*
X4636729Y-10609436D01*
X4636729Y-10609436D02*
X4646253Y-10618960D01*
X4646253Y-10618960D02*
X4665301Y-10628484D01*
X4665301Y-10628484D02*
X4703396Y-10628484D01*
X4703396Y-10628484D02*
X4722444Y-10618960D01*
X4722444Y-10618960D02*
X4731968Y-10609436D01*
X4731968Y-10609436D02*
X4741491Y-10590389D01*
X4741491Y-10590389D02*
X4741491Y-10542770D01*
X4741491Y-10542770D02*
X4731968Y-10523722D01*
X4731968Y-10523722D02*
X4722444Y-10514198D01*
X4722444Y-10514198D02*
X4703396Y-10504674D01*
X4703396Y-10504674D02*
X4665301Y-10504674D01*
X4665301Y-10504674D02*
X4646253Y-10514198D01*
X4646253Y-10514198D02*
X4636729Y-10523722D01*
X4636729Y-10523722D02*
X4627206Y-10542770D01*
X4931968Y-10628484D02*
X4817682Y-10628484D01*
X4874825Y-10628484D02*
X4874825Y-10428484D01*
X4874825Y-10428484D02*
X4855777Y-10457055D01*
X4855777Y-10457055D02*
X4836729Y-10476103D01*
X4836729Y-10476103D02*
X4817682Y-10485627D01*
X5055777Y-10428484D02*
X5074825Y-10428484D01*
X5074825Y-10428484D02*
X5093872Y-10438008D01*
X5093872Y-10438008D02*
X5103396Y-10447531D01*
X5103396Y-10447531D02*
X5112920Y-10466579D01*
X5112920Y-10466579D02*
X5122444Y-10504674D01*
X5122444Y-10504674D02*
X5122444Y-10552293D01*
X5122444Y-10552293D02*
X5112920Y-10590389D01*
X5112920Y-10590389D02*
X5103396Y-10609436D01*
X5103396Y-10609436D02*
X5093872Y-10618960D01*
X5093872Y-10618960D02*
X5074825Y-10628484D01*
X5074825Y-10628484D02*
X5055777Y-10628484D01*
X5055777Y-10628484D02*
X5036729Y-10618960D01*
X5036729Y-10618960D02*
X5027206Y-10609436D01*
X5027206Y-10609436D02*
X5017682Y-10590389D01*
X5017682Y-10590389D02*
X5008158Y-10552293D01*
X5008158Y-10552293D02*
X5008158Y-10504674D01*
X5008158Y-10504674D02*
X5017682Y-10466579D01*
X5017682Y-10466579D02*
X5027206Y-10447531D01*
X5027206Y-10447531D02*
X5036729Y-10438008D01*
X5036729Y-10438008D02*
X5055777Y-10428484D01*
X5198634Y-10428484D02*
X5198634Y-10466579D01*
X5274825Y-10428484D02*
X5274825Y-10466579D01*
X5570063Y-10704674D02*
X5560539Y-10695150D01*
X5560539Y-10695150D02*
X5541491Y-10666579D01*
X5541491Y-10666579D02*
X5531968Y-10647531D01*
X5531968Y-10647531D02*
X5522444Y-10618960D01*
X5522444Y-10618960D02*
X5512920Y-10571341D01*
X5512920Y-10571341D02*
X5512920Y-10533246D01*
X5512920Y-10533246D02*
X5522444Y-10485627D01*
X5522444Y-10485627D02*
X5531968Y-10457055D01*
X5531968Y-10457055D02*
X5541491Y-10438008D01*
X5541491Y-10438008D02*
X5560539Y-10409436D01*
X5560539Y-10409436D02*
X5570063Y-10399912D01*
X5627206Y-10428484D02*
X5751015Y-10428484D01*
X5751015Y-10428484D02*
X5684348Y-10504674D01*
X5684348Y-10504674D02*
X5712920Y-10504674D01*
X5712920Y-10504674D02*
X5731968Y-10514198D01*
X5731968Y-10514198D02*
X5741491Y-10523722D01*
X5741491Y-10523722D02*
X5751015Y-10542770D01*
X5751015Y-10542770D02*
X5751015Y-10590389D01*
X5751015Y-10590389D02*
X5741491Y-10609436D01*
X5741491Y-10609436D02*
X5731968Y-10618960D01*
X5731968Y-10618960D02*
X5712920Y-10628484D01*
X5712920Y-10628484D02*
X5655777Y-10628484D01*
X5655777Y-10628484D02*
X5636729Y-10618960D01*
X5636729Y-10618960D02*
X5627206Y-10609436D01*
X5874825Y-10428484D02*
X5893872Y-10428484D01*
X5893872Y-10428484D02*
X5912920Y-10438008D01*
X5912920Y-10438008D02*
X5922444Y-10447531D01*
X5922444Y-10447531D02*
X5931968Y-10466579D01*
X5931968Y-10466579D02*
X5941491Y-10504674D01*
X5941491Y-10504674D02*
X5941491Y-10552293D01*
X5941491Y-10552293D02*
X5931968Y-10590389D01*
X5931968Y-10590389D02*
X5922444Y-10609436D01*
X5922444Y-10609436D02*
X5912920Y-10618960D01*
X5912920Y-10618960D02*
X5893872Y-10628484D01*
X5893872Y-10628484D02*
X5874825Y-10628484D01*
X5874825Y-10628484D02*
X5855777Y-10618960D01*
X5855777Y-10618960D02*
X5846253Y-10609436D01*
X5846253Y-10609436D02*
X5836729Y-10590389D01*
X5836729Y-10590389D02*
X5827206Y-10552293D01*
X5827206Y-10552293D02*
X5827206Y-10504674D01*
X5827206Y-10504674D02*
X5836729Y-10466579D01*
X5836729Y-10466579D02*
X5846253Y-10447531D01*
X5846253Y-10447531D02*
X5855777Y-10438008D01*
X5855777Y-10438008D02*
X5874825Y-10428484D01*
X6179587Y-10628484D02*
X6179587Y-10428484D01*
X6265301Y-10628484D02*
X6265301Y-10523722D01*
X6265301Y-10523722D02*
X6255777Y-10504674D01*
X6255777Y-10504674D02*
X6236730Y-10495150D01*
X6236730Y-10495150D02*
X6208158Y-10495150D01*
X6208158Y-10495150D02*
X6189110Y-10504674D01*
X6189110Y-10504674D02*
X6179587Y-10514198D01*
X6389110Y-10628484D02*
X6370063Y-10618960D01*
X6370063Y-10618960D02*
X6360539Y-10609436D01*
X6360539Y-10609436D02*
X6351015Y-10590389D01*
X6351015Y-10590389D02*
X6351015Y-10533246D01*
X6351015Y-10533246D02*
X6360539Y-10514198D01*
X6360539Y-10514198D02*
X6370063Y-10504674D01*
X6370063Y-10504674D02*
X6389110Y-10495150D01*
X6389110Y-10495150D02*
X6417682Y-10495150D01*
X6417682Y-10495150D02*
X6436730Y-10504674D01*
X6436730Y-10504674D02*
X6446253Y-10514198D01*
X6446253Y-10514198D02*
X6455777Y-10533246D01*
X6455777Y-10533246D02*
X6455777Y-10590389D01*
X6455777Y-10590389D02*
X6446253Y-10609436D01*
X6446253Y-10609436D02*
X6436730Y-10618960D01*
X6436730Y-10618960D02*
X6417682Y-10628484D01*
X6417682Y-10628484D02*
X6389110Y-10628484D01*
X6570063Y-10628484D02*
X6551015Y-10618960D01*
X6551015Y-10618960D02*
X6541491Y-10599912D01*
X6541491Y-10599912D02*
X6541491Y-10428484D01*
X6722444Y-10618960D02*
X6703396Y-10628484D01*
X6703396Y-10628484D02*
X6665301Y-10628484D01*
X6665301Y-10628484D02*
X6646253Y-10618960D01*
X6646253Y-10618960D02*
X6636730Y-10599912D01*
X6636730Y-10599912D02*
X6636730Y-10523722D01*
X6636730Y-10523722D02*
X6646253Y-10504674D01*
X6646253Y-10504674D02*
X6665301Y-10495150D01*
X6665301Y-10495150D02*
X6703396Y-10495150D01*
X6703396Y-10495150D02*
X6722444Y-10504674D01*
X6722444Y-10504674D02*
X6731968Y-10523722D01*
X6731968Y-10523722D02*
X6731968Y-10542770D01*
X6731968Y-10542770D02*
X6636730Y-10561817D01*
X6808158Y-10618960D02*
X6827206Y-10628484D01*
X6827206Y-10628484D02*
X6865301Y-10628484D01*
X6865301Y-10628484D02*
X6884349Y-10618960D01*
X6884349Y-10618960D02*
X6893872Y-10599912D01*
X6893872Y-10599912D02*
X6893872Y-10590389D01*
X6893872Y-10590389D02*
X6884349Y-10571341D01*
X6884349Y-10571341D02*
X6865301Y-10561817D01*
X6865301Y-10561817D02*
X6836730Y-10561817D01*
X6836730Y-10561817D02*
X6817682Y-10552293D01*
X6817682Y-10552293D02*
X6808158Y-10533246D01*
X6808158Y-10533246D02*
X6808158Y-10523722D01*
X6808158Y-10523722D02*
X6817682Y-10504674D01*
X6817682Y-10504674D02*
X6836730Y-10495150D01*
X6836730Y-10495150D02*
X6865301Y-10495150D01*
X6865301Y-10495150D02*
X6884349Y-10504674D01*
X6960539Y-10704674D02*
X6970063Y-10695150D01*
X6970063Y-10695150D02*
X6989111Y-10666579D01*
X6989111Y-10666579D02*
X6998634Y-10647531D01*
X6998634Y-10647531D02*
X7008158Y-10618960D01*
X7008158Y-10618960D02*
X7017682Y-10571341D01*
X7017682Y-10571341D02*
X7017682Y-10533246D01*
X7017682Y-10533246D02*
X7008158Y-10485627D01*
X7008158Y-10485627D02*
X6998634Y-10457055D01*
X6998634Y-10457055D02*
X6989111Y-10438008D01*
X6989111Y-10438008D02*
X6970063Y-10409436D01*
X6970063Y-10409436D02*
X6960539Y-10399912D01*
X1895000Y-10911940D02*
X1995000Y-10811940D01*
X1895000Y-10711940D01*
X1795000Y-10811940D01*
X1895000Y-10911940D01*
X2246253Y-10722471D02*
X2255777Y-10712948D01*
X2255777Y-10712948D02*
X2274824Y-10703424D01*
X2274824Y-10703424D02*
X2322444Y-10703424D01*
X2322444Y-10703424D02*
X2341491Y-10712948D01*
X2341491Y-10712948D02*
X2351015Y-10722471D01*
X2351015Y-10722471D02*
X2360539Y-10741519D01*
X2360539Y-10741519D02*
X2360539Y-10760567D01*
X2360539Y-10760567D02*
X2351015Y-10789138D01*
X2351015Y-10789138D02*
X2236729Y-10903424D01*
X2236729Y-10903424D02*
X2360539Y-10903424D01*
X2446253Y-10884376D02*
X2455777Y-10893900D01*
X2455777Y-10893900D02*
X2446253Y-10903424D01*
X2446253Y-10903424D02*
X2436729Y-10893900D01*
X2436729Y-10893900D02*
X2446253Y-10884376D01*
X2446253Y-10884376D02*
X2446253Y-10903424D01*
X2646253Y-10903424D02*
X2531967Y-10903424D01*
X2589110Y-10903424D02*
X2589110Y-10703424D01*
X2589110Y-10703424D02*
X2570063Y-10731995D01*
X2570063Y-10731995D02*
X2551015Y-10751043D01*
X2551015Y-10751043D02*
X2531967Y-10760567D01*
X2770063Y-10703424D02*
X2789110Y-10703424D01*
X2789110Y-10703424D02*
X2808158Y-10712948D01*
X2808158Y-10712948D02*
X2817682Y-10722471D01*
X2817682Y-10722471D02*
X2827205Y-10741519D01*
X2827205Y-10741519D02*
X2836729Y-10779614D01*
X2836729Y-10779614D02*
X2836729Y-10827233D01*
X2836729Y-10827233D02*
X2827205Y-10865329D01*
X2827205Y-10865329D02*
X2817682Y-10884376D01*
X2817682Y-10884376D02*
X2808158Y-10893900D01*
X2808158Y-10893900D02*
X2789110Y-10903424D01*
X2789110Y-10903424D02*
X2770063Y-10903424D01*
X2770063Y-10903424D02*
X2751015Y-10893900D01*
X2751015Y-10893900D02*
X2741491Y-10884376D01*
X2741491Y-10884376D02*
X2731967Y-10865329D01*
X2731967Y-10865329D02*
X2722444Y-10827233D01*
X2722444Y-10827233D02*
X2722444Y-10779614D01*
X2722444Y-10779614D02*
X2731967Y-10741519D01*
X2731967Y-10741519D02*
X2741491Y-10722471D01*
X2741491Y-10722471D02*
X2751015Y-10712948D01*
X2751015Y-10712948D02*
X2770063Y-10703424D01*
X2960539Y-10703424D02*
X2979586Y-10703424D01*
X2979586Y-10703424D02*
X2998634Y-10712948D01*
X2998634Y-10712948D02*
X3008158Y-10722471D01*
X3008158Y-10722471D02*
X3017682Y-10741519D01*
X3017682Y-10741519D02*
X3027205Y-10779614D01*
X3027205Y-10779614D02*
X3027205Y-10827233D01*
X3027205Y-10827233D02*
X3017682Y-10865329D01*
X3017682Y-10865329D02*
X3008158Y-10884376D01*
X3008158Y-10884376D02*
X2998634Y-10893900D01*
X2998634Y-10893900D02*
X2979586Y-10903424D01*
X2979586Y-10903424D02*
X2960539Y-10903424D01*
X2960539Y-10903424D02*
X2941491Y-10893900D01*
X2941491Y-10893900D02*
X2931967Y-10884376D01*
X2931967Y-10884376D02*
X2922443Y-10865329D01*
X2922443Y-10865329D02*
X2912920Y-10827233D01*
X2912920Y-10827233D02*
X2912920Y-10779614D01*
X2912920Y-10779614D02*
X2922443Y-10741519D01*
X2922443Y-10741519D02*
X2931967Y-10722471D01*
X2931967Y-10722471D02*
X2941491Y-10712948D01*
X2941491Y-10712948D02*
X2960539Y-10703424D01*
X3112920Y-10903424D02*
X3112920Y-10770090D01*
X3112920Y-10789138D02*
X3122443Y-10779614D01*
X3122443Y-10779614D02*
X3141491Y-10770090D01*
X3141491Y-10770090D02*
X3170063Y-10770090D01*
X3170063Y-10770090D02*
X3189110Y-10779614D01*
X3189110Y-10779614D02*
X3198634Y-10798662D01*
X3198634Y-10798662D02*
X3198634Y-10903424D01*
X3198634Y-10798662D02*
X3208158Y-10779614D01*
X3208158Y-10779614D02*
X3227205Y-10770090D01*
X3227205Y-10770090D02*
X3255777Y-10770090D01*
X3255777Y-10770090D02*
X3274824Y-10779614D01*
X3274824Y-10779614D02*
X3284348Y-10798662D01*
X3284348Y-10798662D02*
X3284348Y-10903424D01*
X3379586Y-10903424D02*
X3379586Y-10770090D01*
X3379586Y-10789138D02*
X3389110Y-10779614D01*
X3389110Y-10779614D02*
X3408158Y-10770090D01*
X3408158Y-10770090D02*
X3436729Y-10770090D01*
X3436729Y-10770090D02*
X3455777Y-10779614D01*
X3455777Y-10779614D02*
X3465301Y-10798662D01*
X3465301Y-10798662D02*
X3465301Y-10903424D01*
X3465301Y-10798662D02*
X3474824Y-10779614D01*
X3474824Y-10779614D02*
X3493872Y-10770090D01*
X3493872Y-10770090D02*
X3522443Y-10770090D01*
X3522443Y-10770090D02*
X3541491Y-10779614D01*
X3541491Y-10779614D02*
X3551015Y-10798662D01*
X3551015Y-10798662D02*
X3551015Y-10903424D01*
X3941491Y-10693900D02*
X3770063Y-10951043D01*
X4198634Y-10703424D02*
X4217682Y-10703424D01*
X4217682Y-10703424D02*
X4236729Y-10712948D01*
X4236729Y-10712948D02*
X4246253Y-10722471D01*
X4246253Y-10722471D02*
X4255777Y-10741519D01*
X4255777Y-10741519D02*
X4265301Y-10779614D01*
X4265301Y-10779614D02*
X4265301Y-10827233D01*
X4265301Y-10827233D02*
X4255777Y-10865329D01*
X4255777Y-10865329D02*
X4246253Y-10884376D01*
X4246253Y-10884376D02*
X4236729Y-10893900D01*
X4236729Y-10893900D02*
X4217682Y-10903424D01*
X4217682Y-10903424D02*
X4198634Y-10903424D01*
X4198634Y-10903424D02*
X4179586Y-10893900D01*
X4179586Y-10893900D02*
X4170063Y-10884376D01*
X4170063Y-10884376D02*
X4160539Y-10865329D01*
X4160539Y-10865329D02*
X4151015Y-10827233D01*
X4151015Y-10827233D02*
X4151015Y-10779614D01*
X4151015Y-10779614D02*
X4160539Y-10741519D01*
X4160539Y-10741519D02*
X4170063Y-10722471D01*
X4170063Y-10722471D02*
X4179586Y-10712948D01*
X4179586Y-10712948D02*
X4198634Y-10703424D01*
X4351015Y-10884376D02*
X4360539Y-10893900D01*
X4360539Y-10893900D02*
X4351015Y-10903424D01*
X4351015Y-10903424D02*
X4341491Y-10893900D01*
X4341491Y-10893900D02*
X4351015Y-10884376D01*
X4351015Y-10884376D02*
X4351015Y-10903424D01*
X4484348Y-10703424D02*
X4503396Y-10703424D01*
X4503396Y-10703424D02*
X4522444Y-10712948D01*
X4522444Y-10712948D02*
X4531968Y-10722471D01*
X4531968Y-10722471D02*
X4541491Y-10741519D01*
X4541491Y-10741519D02*
X4551015Y-10779614D01*
X4551015Y-10779614D02*
X4551015Y-10827233D01*
X4551015Y-10827233D02*
X4541491Y-10865329D01*
X4541491Y-10865329D02*
X4531968Y-10884376D01*
X4531968Y-10884376D02*
X4522444Y-10893900D01*
X4522444Y-10893900D02*
X4503396Y-10903424D01*
X4503396Y-10903424D02*
X4484348Y-10903424D01*
X4484348Y-10903424D02*
X4465301Y-10893900D01*
X4465301Y-10893900D02*
X4455777Y-10884376D01*
X4455777Y-10884376D02*
X4446253Y-10865329D01*
X4446253Y-10865329D02*
X4436729Y-10827233D01*
X4436729Y-10827233D02*
X4436729Y-10779614D01*
X4436729Y-10779614D02*
X4446253Y-10741519D01*
X4446253Y-10741519D02*
X4455777Y-10722471D01*
X4455777Y-10722471D02*
X4465301Y-10712948D01*
X4465301Y-10712948D02*
X4484348Y-10703424D01*
X4665301Y-10789138D02*
X4646253Y-10779614D01*
X4646253Y-10779614D02*
X4636729Y-10770090D01*
X4636729Y-10770090D02*
X4627206Y-10751043D01*
X4627206Y-10751043D02*
X4627206Y-10741519D01*
X4627206Y-10741519D02*
X4636729Y-10722471D01*
X4636729Y-10722471D02*
X4646253Y-10712948D01*
X4646253Y-10712948D02*
X4665301Y-10703424D01*
X4665301Y-10703424D02*
X4703396Y-10703424D01*
X4703396Y-10703424D02*
X4722444Y-10712948D01*
X4722444Y-10712948D02*
X4731968Y-10722471D01*
X4731968Y-10722471D02*
X4741491Y-10741519D01*
X4741491Y-10741519D02*
X4741491Y-10751043D01*
X4741491Y-10751043D02*
X4731968Y-10770090D01*
X4731968Y-10770090D02*
X4722444Y-10779614D01*
X4722444Y-10779614D02*
X4703396Y-10789138D01*
X4703396Y-10789138D02*
X4665301Y-10789138D01*
X4665301Y-10789138D02*
X4646253Y-10798662D01*
X4646253Y-10798662D02*
X4636729Y-10808186D01*
X4636729Y-10808186D02*
X4627206Y-10827233D01*
X4627206Y-10827233D02*
X4627206Y-10865329D01*
X4627206Y-10865329D02*
X4636729Y-10884376D01*
X4636729Y-10884376D02*
X4646253Y-10893900D01*
X4646253Y-10893900D02*
X4665301Y-10903424D01*
X4665301Y-10903424D02*
X4703396Y-10903424D01*
X4703396Y-10903424D02*
X4722444Y-10893900D01*
X4722444Y-10893900D02*
X4731968Y-10884376D01*
X4731968Y-10884376D02*
X4741491Y-10865329D01*
X4741491Y-10865329D02*
X4741491Y-10827233D01*
X4741491Y-10827233D02*
X4731968Y-10808186D01*
X4731968Y-10808186D02*
X4722444Y-10798662D01*
X4722444Y-10798662D02*
X4703396Y-10789138D01*
X4817682Y-10722471D02*
X4827206Y-10712948D01*
X4827206Y-10712948D02*
X4846253Y-10703424D01*
X4846253Y-10703424D02*
X4893872Y-10703424D01*
X4893872Y-10703424D02*
X4912920Y-10712948D01*
X4912920Y-10712948D02*
X4922444Y-10722471D01*
X4922444Y-10722471D02*
X4931968Y-10741519D01*
X4931968Y-10741519D02*
X4931968Y-10760567D01*
X4931968Y-10760567D02*
X4922444Y-10789138D01*
X4922444Y-10789138D02*
X4808158Y-10903424D01*
X4808158Y-10903424D02*
X4931968Y-10903424D01*
X4998634Y-10703424D02*
X5131968Y-10703424D01*
X5131968Y-10703424D02*
X5046253Y-10903424D01*
X5198634Y-10703424D02*
X5198634Y-10741519D01*
X5274825Y-10703424D02*
X5274825Y-10741519D01*
X5570063Y-10979614D02*
X5560539Y-10970090D01*
X5560539Y-10970090D02*
X5541491Y-10941519D01*
X5541491Y-10941519D02*
X5531968Y-10922471D01*
X5531968Y-10922471D02*
X5522444Y-10893900D01*
X5522444Y-10893900D02*
X5512920Y-10846281D01*
X5512920Y-10846281D02*
X5512920Y-10808186D01*
X5512920Y-10808186D02*
X5522444Y-10760567D01*
X5522444Y-10760567D02*
X5531968Y-10731995D01*
X5531968Y-10731995D02*
X5541491Y-10712948D01*
X5541491Y-10712948D02*
X5560539Y-10684376D01*
X5560539Y-10684376D02*
X5570063Y-10674852D01*
X5684348Y-10703424D02*
X5703396Y-10703424D01*
X5703396Y-10703424D02*
X5722444Y-10712948D01*
X5722444Y-10712948D02*
X5731968Y-10722471D01*
X5731968Y-10722471D02*
X5741491Y-10741519D01*
X5741491Y-10741519D02*
X5751015Y-10779614D01*
X5751015Y-10779614D02*
X5751015Y-10827233D01*
X5751015Y-10827233D02*
X5741491Y-10865329D01*
X5741491Y-10865329D02*
X5731968Y-10884376D01*
X5731968Y-10884376D02*
X5722444Y-10893900D01*
X5722444Y-10893900D02*
X5703396Y-10903424D01*
X5703396Y-10903424D02*
X5684348Y-10903424D01*
X5684348Y-10903424D02*
X5665301Y-10893900D01*
X5665301Y-10893900D02*
X5655777Y-10884376D01*
X5655777Y-10884376D02*
X5646253Y-10865329D01*
X5646253Y-10865329D02*
X5636729Y-10827233D01*
X5636729Y-10827233D02*
X5636729Y-10779614D01*
X5636729Y-10779614D02*
X5646253Y-10741519D01*
X5646253Y-10741519D02*
X5655777Y-10722471D01*
X5655777Y-10722471D02*
X5665301Y-10712948D01*
X5665301Y-10712948D02*
X5684348Y-10703424D01*
X5989110Y-10903424D02*
X5989110Y-10703424D01*
X6074825Y-10903424D02*
X6074825Y-10798662D01*
X6074825Y-10798662D02*
X6065301Y-10779614D01*
X6065301Y-10779614D02*
X6046253Y-10770090D01*
X6046253Y-10770090D02*
X6017682Y-10770090D01*
X6017682Y-10770090D02*
X5998634Y-10779614D01*
X5998634Y-10779614D02*
X5989110Y-10789138D01*
X6198634Y-10903424D02*
X6179587Y-10893900D01*
X6179587Y-10893900D02*
X6170063Y-10884376D01*
X6170063Y-10884376D02*
X6160539Y-10865329D01*
X6160539Y-10865329D02*
X6160539Y-10808186D01*
X6160539Y-10808186D02*
X6170063Y-10789138D01*
X6170063Y-10789138D02*
X6179587Y-10779614D01*
X6179587Y-10779614D02*
X6198634Y-10770090D01*
X6198634Y-10770090D02*
X6227206Y-10770090D01*
X6227206Y-10770090D02*
X6246253Y-10779614D01*
X6246253Y-10779614D02*
X6255777Y-10789138D01*
X6255777Y-10789138D02*
X6265301Y-10808186D01*
X6265301Y-10808186D02*
X6265301Y-10865329D01*
X6265301Y-10865329D02*
X6255777Y-10884376D01*
X6255777Y-10884376D02*
X6246253Y-10893900D01*
X6246253Y-10893900D02*
X6227206Y-10903424D01*
X6227206Y-10903424D02*
X6198634Y-10903424D01*
X6379587Y-10903424D02*
X6360539Y-10893900D01*
X6360539Y-10893900D02*
X6351015Y-10874852D01*
X6351015Y-10874852D02*
X6351015Y-10703424D01*
X6531968Y-10893900D02*
X6512920Y-10903424D01*
X6512920Y-10903424D02*
X6474825Y-10903424D01*
X6474825Y-10903424D02*
X6455777Y-10893900D01*
X6455777Y-10893900D02*
X6446253Y-10874852D01*
X6446253Y-10874852D02*
X6446253Y-10798662D01*
X6446253Y-10798662D02*
X6455777Y-10779614D01*
X6455777Y-10779614D02*
X6474825Y-10770090D01*
X6474825Y-10770090D02*
X6512920Y-10770090D01*
X6512920Y-10770090D02*
X6531968Y-10779614D01*
X6531968Y-10779614D02*
X6541491Y-10798662D01*
X6541491Y-10798662D02*
X6541491Y-10817710D01*
X6541491Y-10817710D02*
X6446253Y-10836757D01*
X6617682Y-10893900D02*
X6636730Y-10903424D01*
X6636730Y-10903424D02*
X6674825Y-10903424D01*
X6674825Y-10903424D02*
X6693872Y-10893900D01*
X6693872Y-10893900D02*
X6703396Y-10874852D01*
X6703396Y-10874852D02*
X6703396Y-10865329D01*
X6703396Y-10865329D02*
X6693872Y-10846281D01*
X6693872Y-10846281D02*
X6674825Y-10836757D01*
X6674825Y-10836757D02*
X6646253Y-10836757D01*
X6646253Y-10836757D02*
X6627206Y-10827233D01*
X6627206Y-10827233D02*
X6617682Y-10808186D01*
X6617682Y-10808186D02*
X6617682Y-10798662D01*
X6617682Y-10798662D02*
X6627206Y-10779614D01*
X6627206Y-10779614D02*
X6646253Y-10770090D01*
X6646253Y-10770090D02*
X6674825Y-10770090D01*
X6674825Y-10770090D02*
X6693872Y-10779614D01*
X6941492Y-10827233D02*
X7093873Y-10827233D01*
X7017682Y-10903424D02*
X7017682Y-10751043D01*
X7331968Y-10722471D02*
X7341492Y-10712948D01*
X7341492Y-10712948D02*
X7360539Y-10703424D01*
X7360539Y-10703424D02*
X7408158Y-10703424D01*
X7408158Y-10703424D02*
X7427206Y-10712948D01*
X7427206Y-10712948D02*
X7436730Y-10722471D01*
X7436730Y-10722471D02*
X7446253Y-10741519D01*
X7446253Y-10741519D02*
X7446253Y-10760567D01*
X7446253Y-10760567D02*
X7436730Y-10789138D01*
X7436730Y-10789138D02*
X7322444Y-10903424D01*
X7322444Y-10903424D02*
X7446253Y-10903424D01*
X7674825Y-10893900D02*
X7693873Y-10903424D01*
X7693873Y-10903424D02*
X7731968Y-10903424D01*
X7731968Y-10903424D02*
X7751015Y-10893900D01*
X7751015Y-10893900D02*
X7760539Y-10874852D01*
X7760539Y-10874852D02*
X7760539Y-10865329D01*
X7760539Y-10865329D02*
X7751015Y-10846281D01*
X7751015Y-10846281D02*
X7731968Y-10836757D01*
X7731968Y-10836757D02*
X7703396Y-10836757D01*
X7703396Y-10836757D02*
X7684349Y-10827233D01*
X7684349Y-10827233D02*
X7674825Y-10808186D01*
X7674825Y-10808186D02*
X7674825Y-10798662D01*
X7674825Y-10798662D02*
X7684349Y-10779614D01*
X7684349Y-10779614D02*
X7703396Y-10770090D01*
X7703396Y-10770090D02*
X7731968Y-10770090D01*
X7731968Y-10770090D02*
X7751015Y-10779614D01*
X7874825Y-10903424D02*
X7855777Y-10893900D01*
X7855777Y-10893900D02*
X7846254Y-10874852D01*
X7846254Y-10874852D02*
X7846254Y-10703424D01*
X7979587Y-10903424D02*
X7960539Y-10893900D01*
X7960539Y-10893900D02*
X7951015Y-10884376D01*
X7951015Y-10884376D02*
X7941492Y-10865329D01*
X7941492Y-10865329D02*
X7941492Y-10808186D01*
X7941492Y-10808186D02*
X7951015Y-10789138D01*
X7951015Y-10789138D02*
X7960539Y-10779614D01*
X7960539Y-10779614D02*
X7979587Y-10770090D01*
X7979587Y-10770090D02*
X8008158Y-10770090D01*
X8008158Y-10770090D02*
X8027206Y-10779614D01*
X8027206Y-10779614D02*
X8036730Y-10789138D01*
X8036730Y-10789138D02*
X8046254Y-10808186D01*
X8046254Y-10808186D02*
X8046254Y-10865329D01*
X8046254Y-10865329D02*
X8036730Y-10884376D01*
X8036730Y-10884376D02*
X8027206Y-10893900D01*
X8027206Y-10893900D02*
X8008158Y-10903424D01*
X8008158Y-10903424D02*
X7979587Y-10903424D01*
X8103396Y-10770090D02*
X8179587Y-10770090D01*
X8131968Y-10703424D02*
X8131968Y-10874852D01*
X8131968Y-10874852D02*
X8141492Y-10893900D01*
X8141492Y-10893900D02*
X8160539Y-10903424D01*
X8160539Y-10903424D02*
X8179587Y-10903424D01*
X8236730Y-10893900D02*
X8255777Y-10903424D01*
X8255777Y-10903424D02*
X8293873Y-10903424D01*
X8293873Y-10903424D02*
X8312920Y-10893900D01*
X8312920Y-10893900D02*
X8322444Y-10874852D01*
X8322444Y-10874852D02*
X8322444Y-10865329D01*
X8322444Y-10865329D02*
X8312920Y-10846281D01*
X8312920Y-10846281D02*
X8293873Y-10836757D01*
X8293873Y-10836757D02*
X8265301Y-10836757D01*
X8265301Y-10836757D02*
X8246254Y-10827233D01*
X8246254Y-10827233D02*
X8236730Y-10808186D01*
X8236730Y-10808186D02*
X8236730Y-10798662D01*
X8236730Y-10798662D02*
X8246254Y-10779614D01*
X8246254Y-10779614D02*
X8265301Y-10770090D01*
X8265301Y-10770090D02*
X8293873Y-10770090D01*
X8293873Y-10770090D02*
X8312920Y-10779614D01*
X8389111Y-10979614D02*
X8398635Y-10970090D01*
X8398635Y-10970090D02*
X8417682Y-10941519D01*
X8417682Y-10941519D02*
X8427206Y-10922471D01*
X8427206Y-10922471D02*
X8436730Y-10893900D01*
X8436730Y-10893900D02*
X8446254Y-10846281D01*
X8446254Y-10846281D02*
X8446254Y-10808186D01*
X8446254Y-10808186D02*
X8436730Y-10760567D01*
X8436730Y-10760567D02*
X8427206Y-10731995D01*
X8427206Y-10731995D02*
X8417682Y-10712948D01*
X8417682Y-10712948D02*
X8398635Y-10684376D01*
X8398635Y-10684376D02*
X8389111Y-10674852D01*
M02*
