%TF.GenerationSoftware,KiCad,Pcbnew,7.0.8-7.0.8~ubuntu23.04.1*%
%TF.CreationDate,2023-10-31T21:45:29+10:00*%
%TF.ProjectId,SkyMusicPad,536b794d-7573-4696-9350-61642e6b6963,rev?*%
%TF.SameCoordinates,Original*%
%TF.FileFunction,Legend,Bot*%
%TF.FilePolarity,Positive*%
%FSLAX46Y46*%
G04 Gerber Fmt 4.6, Leading zero omitted, Abs format (unit mm)*
G04 Created by KiCad (PCBNEW 7.0.8-7.0.8~ubuntu23.04.1) date 2023-10-31 21:45:29*
%MOMM*%
%LPD*%
G01*
G04 APERTURE LIST*
%ADD10C,0.150000*%
%ADD11C,0.120000*%
G04 APERTURE END LIST*
D10*
X45954819Y-56514047D02*
X45478628Y-56180714D01*
X45954819Y-55942619D02*
X44954819Y-55942619D01*
X44954819Y-55942619D02*
X44954819Y-56323571D01*
X44954819Y-56323571D02*
X45002438Y-56418809D01*
X45002438Y-56418809D02*
X45050057Y-56466428D01*
X45050057Y-56466428D02*
X45145295Y-56514047D01*
X45145295Y-56514047D02*
X45288152Y-56514047D01*
X45288152Y-56514047D02*
X45383390Y-56466428D01*
X45383390Y-56466428D02*
X45431009Y-56418809D01*
X45431009Y-56418809D02*
X45478628Y-56323571D01*
X45478628Y-56323571D02*
X45478628Y-55942619D01*
X45954819Y-56942619D02*
X44954819Y-56942619D01*
X44954819Y-56942619D02*
X44954819Y-57323571D01*
X44954819Y-57323571D02*
X45002438Y-57418809D01*
X45002438Y-57418809D02*
X45050057Y-57466428D01*
X45050057Y-57466428D02*
X45145295Y-57514047D01*
X45145295Y-57514047D02*
X45288152Y-57514047D01*
X45288152Y-57514047D02*
X45383390Y-57466428D01*
X45383390Y-57466428D02*
X45431009Y-57418809D01*
X45431009Y-57418809D02*
X45478628Y-57323571D01*
X45478628Y-57323571D02*
X45478628Y-56942619D01*
X45050057Y-57895000D02*
X45002438Y-57942619D01*
X45002438Y-57942619D02*
X44954819Y-58037857D01*
X44954819Y-58037857D02*
X44954819Y-58275952D01*
X44954819Y-58275952D02*
X45002438Y-58371190D01*
X45002438Y-58371190D02*
X45050057Y-58418809D01*
X45050057Y-58418809D02*
X45145295Y-58466428D01*
X45145295Y-58466428D02*
X45240533Y-58466428D01*
X45240533Y-58466428D02*
X45383390Y-58418809D01*
X45383390Y-58418809D02*
X45954819Y-57847381D01*
X45954819Y-57847381D02*
X45954819Y-58466428D01*
X44954819Y-59085476D02*
X44954819Y-59180714D01*
X44954819Y-59180714D02*
X45002438Y-59275952D01*
X45002438Y-59275952D02*
X45050057Y-59323571D01*
X45050057Y-59323571D02*
X45145295Y-59371190D01*
X45145295Y-59371190D02*
X45335771Y-59418809D01*
X45335771Y-59418809D02*
X45573866Y-59418809D01*
X45573866Y-59418809D02*
X45764342Y-59371190D01*
X45764342Y-59371190D02*
X45859580Y-59323571D01*
X45859580Y-59323571D02*
X45907200Y-59275952D01*
X45907200Y-59275952D02*
X45954819Y-59180714D01*
X45954819Y-59180714D02*
X45954819Y-59085476D01*
X45954819Y-59085476D02*
X45907200Y-58990238D01*
X45907200Y-58990238D02*
X45859580Y-58942619D01*
X45859580Y-58942619D02*
X45764342Y-58895000D01*
X45764342Y-58895000D02*
X45573866Y-58847381D01*
X45573866Y-58847381D02*
X45335771Y-58847381D01*
X45335771Y-58847381D02*
X45145295Y-58895000D01*
X45145295Y-58895000D02*
X45050057Y-58942619D01*
X45050057Y-58942619D02*
X45002438Y-58990238D01*
X45002438Y-58990238D02*
X44954819Y-59085476D01*
X45288152Y-60275952D02*
X45954819Y-60275952D01*
X44907200Y-60037857D02*
X45621485Y-59799762D01*
X45621485Y-59799762D02*
X45621485Y-60418809D01*
X44954819Y-60990238D02*
X44954819Y-61085476D01*
X44954819Y-61085476D02*
X45002438Y-61180714D01*
X45002438Y-61180714D02*
X45050057Y-61228333D01*
X45050057Y-61228333D02*
X45145295Y-61275952D01*
X45145295Y-61275952D02*
X45335771Y-61323571D01*
X45335771Y-61323571D02*
X45573866Y-61323571D01*
X45573866Y-61323571D02*
X45764342Y-61275952D01*
X45764342Y-61275952D02*
X45859580Y-61228333D01*
X45859580Y-61228333D02*
X45907200Y-61180714D01*
X45907200Y-61180714D02*
X45954819Y-61085476D01*
X45954819Y-61085476D02*
X45954819Y-60990238D01*
X45954819Y-60990238D02*
X45907200Y-60895000D01*
X45907200Y-60895000D02*
X45859580Y-60847381D01*
X45859580Y-60847381D02*
X45764342Y-60799762D01*
X45764342Y-60799762D02*
X45573866Y-60752143D01*
X45573866Y-60752143D02*
X45335771Y-60752143D01*
X45335771Y-60752143D02*
X45145295Y-60799762D01*
X45145295Y-60799762D02*
X45050057Y-60847381D01*
X45050057Y-60847381D02*
X45002438Y-60895000D01*
X45002438Y-60895000D02*
X44954819Y-60990238D01*
X45573866Y-61752143D02*
X45573866Y-62514048D01*
X44954819Y-62895000D02*
X44954819Y-63561666D01*
X44954819Y-63561666D02*
X45954819Y-62895000D01*
X45954819Y-62895000D02*
X45954819Y-63561666D01*
X45907200Y-64323571D02*
X45954819Y-64228333D01*
X45954819Y-64228333D02*
X45954819Y-64037857D01*
X45954819Y-64037857D02*
X45907200Y-63942619D01*
X45907200Y-63942619D02*
X45811961Y-63895000D01*
X45811961Y-63895000D02*
X45431009Y-63895000D01*
X45431009Y-63895000D02*
X45335771Y-63942619D01*
X45335771Y-63942619D02*
X45288152Y-64037857D01*
X45288152Y-64037857D02*
X45288152Y-64228333D01*
X45288152Y-64228333D02*
X45335771Y-64323571D01*
X45335771Y-64323571D02*
X45431009Y-64371190D01*
X45431009Y-64371190D02*
X45526247Y-64371190D01*
X45526247Y-64371190D02*
X45621485Y-63895000D01*
X45954819Y-64799762D02*
X45288152Y-64799762D01*
X45478628Y-64799762D02*
X45383390Y-64847381D01*
X45383390Y-64847381D02*
X45335771Y-64895000D01*
X45335771Y-64895000D02*
X45288152Y-64990238D01*
X45288152Y-64990238D02*
X45288152Y-65085476D01*
X45954819Y-65561667D02*
X45907200Y-65466429D01*
X45907200Y-65466429D02*
X45859580Y-65418810D01*
X45859580Y-65418810D02*
X45764342Y-65371191D01*
X45764342Y-65371191D02*
X45478628Y-65371191D01*
X45478628Y-65371191D02*
X45383390Y-65418810D01*
X45383390Y-65418810D02*
X45335771Y-65466429D01*
X45335771Y-65466429D02*
X45288152Y-65561667D01*
X45288152Y-65561667D02*
X45288152Y-65704524D01*
X45288152Y-65704524D02*
X45335771Y-65799762D01*
X45335771Y-65799762D02*
X45383390Y-65847381D01*
X45383390Y-65847381D02*
X45478628Y-65895000D01*
X45478628Y-65895000D02*
X45764342Y-65895000D01*
X45764342Y-65895000D02*
X45859580Y-65847381D01*
X45859580Y-65847381D02*
X45907200Y-65799762D01*
X45907200Y-65799762D02*
X45954819Y-65704524D01*
X45954819Y-65704524D02*
X45954819Y-65561667D01*
X125804819Y-51285714D02*
X124804819Y-51285714D01*
X124804819Y-51285714D02*
X124804819Y-51523809D01*
X124804819Y-51523809D02*
X124852438Y-51666666D01*
X124852438Y-51666666D02*
X124947676Y-51761904D01*
X124947676Y-51761904D02*
X125042914Y-51809523D01*
X125042914Y-51809523D02*
X125233390Y-51857142D01*
X125233390Y-51857142D02*
X125376247Y-51857142D01*
X125376247Y-51857142D02*
X125566723Y-51809523D01*
X125566723Y-51809523D02*
X125661961Y-51761904D01*
X125661961Y-51761904D02*
X125757200Y-51666666D01*
X125757200Y-51666666D02*
X125804819Y-51523809D01*
X125804819Y-51523809D02*
X125804819Y-51285714D01*
X125804819Y-52809523D02*
X125804819Y-52238095D01*
X125804819Y-52523809D02*
X124804819Y-52523809D01*
X124804819Y-52523809D02*
X124947676Y-52428571D01*
X124947676Y-52428571D02*
X125042914Y-52333333D01*
X125042914Y-52333333D02*
X125090533Y-52238095D01*
X125138152Y-53666666D02*
X125804819Y-53666666D01*
X124757200Y-53428571D02*
X125471485Y-53190476D01*
X125471485Y-53190476D02*
X125471485Y-53809523D01*
X107804819Y-51285714D02*
X106804819Y-51285714D01*
X106804819Y-51285714D02*
X106804819Y-51523809D01*
X106804819Y-51523809D02*
X106852438Y-51666666D01*
X106852438Y-51666666D02*
X106947676Y-51761904D01*
X106947676Y-51761904D02*
X107042914Y-51809523D01*
X107042914Y-51809523D02*
X107233390Y-51857142D01*
X107233390Y-51857142D02*
X107376247Y-51857142D01*
X107376247Y-51857142D02*
X107566723Y-51809523D01*
X107566723Y-51809523D02*
X107661961Y-51761904D01*
X107661961Y-51761904D02*
X107757200Y-51666666D01*
X107757200Y-51666666D02*
X107804819Y-51523809D01*
X107804819Y-51523809D02*
X107804819Y-51285714D01*
X107804819Y-52809523D02*
X107804819Y-52238095D01*
X107804819Y-52523809D02*
X106804819Y-52523809D01*
X106804819Y-52523809D02*
X106947676Y-52428571D01*
X106947676Y-52428571D02*
X107042914Y-52333333D01*
X107042914Y-52333333D02*
X107090533Y-52238095D01*
X107804819Y-53761904D02*
X107804819Y-53190476D01*
X107804819Y-53476190D02*
X106804819Y-53476190D01*
X106804819Y-53476190D02*
X106947676Y-53380952D01*
X106947676Y-53380952D02*
X107042914Y-53285714D01*
X107042914Y-53285714D02*
X107090533Y-53190476D01*
X71304819Y-33324405D02*
X70304819Y-33324405D01*
X70304819Y-33324405D02*
X70304819Y-33562500D01*
X70304819Y-33562500D02*
X70352438Y-33705357D01*
X70352438Y-33705357D02*
X70447676Y-33800595D01*
X70447676Y-33800595D02*
X70542914Y-33848214D01*
X70542914Y-33848214D02*
X70733390Y-33895833D01*
X70733390Y-33895833D02*
X70876247Y-33895833D01*
X70876247Y-33895833D02*
X71066723Y-33848214D01*
X71066723Y-33848214D02*
X71161961Y-33800595D01*
X71161961Y-33800595D02*
X71257200Y-33705357D01*
X71257200Y-33705357D02*
X71304819Y-33562500D01*
X71304819Y-33562500D02*
X71304819Y-33324405D01*
X70638152Y-34752976D02*
X71304819Y-34752976D01*
X70257200Y-34514881D02*
X70971485Y-34276786D01*
X70971485Y-34276786D02*
X70971485Y-34895833D01*
X52804819Y-51761905D02*
X51804819Y-51761905D01*
X51804819Y-51761905D02*
X51804819Y-52000000D01*
X51804819Y-52000000D02*
X51852438Y-52142857D01*
X51852438Y-52142857D02*
X51947676Y-52238095D01*
X51947676Y-52238095D02*
X52042914Y-52285714D01*
X52042914Y-52285714D02*
X52233390Y-52333333D01*
X52233390Y-52333333D02*
X52376247Y-52333333D01*
X52376247Y-52333333D02*
X52566723Y-52285714D01*
X52566723Y-52285714D02*
X52661961Y-52238095D01*
X52661961Y-52238095D02*
X52757200Y-52142857D01*
X52757200Y-52142857D02*
X52804819Y-52000000D01*
X52804819Y-52000000D02*
X52804819Y-51761905D01*
X51900057Y-52714286D02*
X51852438Y-52761905D01*
X51852438Y-52761905D02*
X51804819Y-52857143D01*
X51804819Y-52857143D02*
X51804819Y-53095238D01*
X51804819Y-53095238D02*
X51852438Y-53190476D01*
X51852438Y-53190476D02*
X51900057Y-53238095D01*
X51900057Y-53238095D02*
X51995295Y-53285714D01*
X51995295Y-53285714D02*
X52090533Y-53285714D01*
X52090533Y-53285714D02*
X52233390Y-53238095D01*
X52233390Y-53238095D02*
X52804819Y-52666667D01*
X52804819Y-52666667D02*
X52804819Y-53285714D01*
X107804819Y-69285714D02*
X106804819Y-69285714D01*
X106804819Y-69285714D02*
X106804819Y-69523809D01*
X106804819Y-69523809D02*
X106852438Y-69666666D01*
X106852438Y-69666666D02*
X106947676Y-69761904D01*
X106947676Y-69761904D02*
X107042914Y-69809523D01*
X107042914Y-69809523D02*
X107233390Y-69857142D01*
X107233390Y-69857142D02*
X107376247Y-69857142D01*
X107376247Y-69857142D02*
X107566723Y-69809523D01*
X107566723Y-69809523D02*
X107661961Y-69761904D01*
X107661961Y-69761904D02*
X107757200Y-69666666D01*
X107757200Y-69666666D02*
X107804819Y-69523809D01*
X107804819Y-69523809D02*
X107804819Y-69285714D01*
X107804819Y-70809523D02*
X107804819Y-70238095D01*
X107804819Y-70523809D02*
X106804819Y-70523809D01*
X106804819Y-70523809D02*
X106947676Y-70428571D01*
X106947676Y-70428571D02*
X107042914Y-70333333D01*
X107042914Y-70333333D02*
X107090533Y-70238095D01*
X106900057Y-71190476D02*
X106852438Y-71238095D01*
X106852438Y-71238095D02*
X106804819Y-71333333D01*
X106804819Y-71333333D02*
X106804819Y-71571428D01*
X106804819Y-71571428D02*
X106852438Y-71666666D01*
X106852438Y-71666666D02*
X106900057Y-71714285D01*
X106900057Y-71714285D02*
X106995295Y-71761904D01*
X106995295Y-71761904D02*
X107090533Y-71761904D01*
X107090533Y-71761904D02*
X107233390Y-71714285D01*
X107233390Y-71714285D02*
X107804819Y-71142857D01*
X107804819Y-71142857D02*
X107804819Y-71761904D01*
X89304819Y-69761905D02*
X88304819Y-69761905D01*
X88304819Y-69761905D02*
X88304819Y-70000000D01*
X88304819Y-70000000D02*
X88352438Y-70142857D01*
X88352438Y-70142857D02*
X88447676Y-70238095D01*
X88447676Y-70238095D02*
X88542914Y-70285714D01*
X88542914Y-70285714D02*
X88733390Y-70333333D01*
X88733390Y-70333333D02*
X88876247Y-70333333D01*
X88876247Y-70333333D02*
X89066723Y-70285714D01*
X89066723Y-70285714D02*
X89161961Y-70238095D01*
X89161961Y-70238095D02*
X89257200Y-70142857D01*
X89257200Y-70142857D02*
X89304819Y-70000000D01*
X89304819Y-70000000D02*
X89304819Y-69761905D01*
X89304819Y-70809524D02*
X89304819Y-71000000D01*
X89304819Y-71000000D02*
X89257200Y-71095238D01*
X89257200Y-71095238D02*
X89209580Y-71142857D01*
X89209580Y-71142857D02*
X89066723Y-71238095D01*
X89066723Y-71238095D02*
X88876247Y-71285714D01*
X88876247Y-71285714D02*
X88495295Y-71285714D01*
X88495295Y-71285714D02*
X88400057Y-71238095D01*
X88400057Y-71238095D02*
X88352438Y-71190476D01*
X88352438Y-71190476D02*
X88304819Y-71095238D01*
X88304819Y-71095238D02*
X88304819Y-70904762D01*
X88304819Y-70904762D02*
X88352438Y-70809524D01*
X88352438Y-70809524D02*
X88400057Y-70761905D01*
X88400057Y-70761905D02*
X88495295Y-70714286D01*
X88495295Y-70714286D02*
X88733390Y-70714286D01*
X88733390Y-70714286D02*
X88828628Y-70761905D01*
X88828628Y-70761905D02*
X88876247Y-70809524D01*
X88876247Y-70809524D02*
X88923866Y-70904762D01*
X88923866Y-70904762D02*
X88923866Y-71095238D01*
X88923866Y-71095238D02*
X88876247Y-71190476D01*
X88876247Y-71190476D02*
X88828628Y-71238095D01*
X88828628Y-71238095D02*
X88733390Y-71285714D01*
X71304819Y-69761905D02*
X70304819Y-69761905D01*
X70304819Y-69761905D02*
X70304819Y-70000000D01*
X70304819Y-70000000D02*
X70352438Y-70142857D01*
X70352438Y-70142857D02*
X70447676Y-70238095D01*
X70447676Y-70238095D02*
X70542914Y-70285714D01*
X70542914Y-70285714D02*
X70733390Y-70333333D01*
X70733390Y-70333333D02*
X70876247Y-70333333D01*
X70876247Y-70333333D02*
X71066723Y-70285714D01*
X71066723Y-70285714D02*
X71161961Y-70238095D01*
X71161961Y-70238095D02*
X71257200Y-70142857D01*
X71257200Y-70142857D02*
X71304819Y-70000000D01*
X71304819Y-70000000D02*
X71304819Y-69761905D01*
X70304819Y-71190476D02*
X70304819Y-71000000D01*
X70304819Y-71000000D02*
X70352438Y-70904762D01*
X70352438Y-70904762D02*
X70400057Y-70857143D01*
X70400057Y-70857143D02*
X70542914Y-70761905D01*
X70542914Y-70761905D02*
X70733390Y-70714286D01*
X70733390Y-70714286D02*
X71114342Y-70714286D01*
X71114342Y-70714286D02*
X71209580Y-70761905D01*
X71209580Y-70761905D02*
X71257200Y-70809524D01*
X71257200Y-70809524D02*
X71304819Y-70904762D01*
X71304819Y-70904762D02*
X71304819Y-71095238D01*
X71304819Y-71095238D02*
X71257200Y-71190476D01*
X71257200Y-71190476D02*
X71209580Y-71238095D01*
X71209580Y-71238095D02*
X71114342Y-71285714D01*
X71114342Y-71285714D02*
X70876247Y-71285714D01*
X70876247Y-71285714D02*
X70781009Y-71238095D01*
X70781009Y-71238095D02*
X70733390Y-71190476D01*
X70733390Y-71190476D02*
X70685771Y-71095238D01*
X70685771Y-71095238D02*
X70685771Y-70904762D01*
X70685771Y-70904762D02*
X70733390Y-70809524D01*
X70733390Y-70809524D02*
X70781009Y-70761905D01*
X70781009Y-70761905D02*
X70876247Y-70714286D01*
X107804819Y-32848214D02*
X106804819Y-32848214D01*
X106804819Y-32848214D02*
X106804819Y-33086309D01*
X106804819Y-33086309D02*
X106852438Y-33229166D01*
X106852438Y-33229166D02*
X106947676Y-33324404D01*
X106947676Y-33324404D02*
X107042914Y-33372023D01*
X107042914Y-33372023D02*
X107233390Y-33419642D01*
X107233390Y-33419642D02*
X107376247Y-33419642D01*
X107376247Y-33419642D02*
X107566723Y-33372023D01*
X107566723Y-33372023D02*
X107661961Y-33324404D01*
X107661961Y-33324404D02*
X107757200Y-33229166D01*
X107757200Y-33229166D02*
X107804819Y-33086309D01*
X107804819Y-33086309D02*
X107804819Y-32848214D01*
X107804819Y-34372023D02*
X107804819Y-33800595D01*
X107804819Y-34086309D02*
X106804819Y-34086309D01*
X106804819Y-34086309D02*
X106947676Y-33991071D01*
X106947676Y-33991071D02*
X107042914Y-33895833D01*
X107042914Y-33895833D02*
X107090533Y-33800595D01*
X106804819Y-34991071D02*
X106804819Y-35086309D01*
X106804819Y-35086309D02*
X106852438Y-35181547D01*
X106852438Y-35181547D02*
X106900057Y-35229166D01*
X106900057Y-35229166D02*
X106995295Y-35276785D01*
X106995295Y-35276785D02*
X107185771Y-35324404D01*
X107185771Y-35324404D02*
X107423866Y-35324404D01*
X107423866Y-35324404D02*
X107614342Y-35276785D01*
X107614342Y-35276785D02*
X107709580Y-35229166D01*
X107709580Y-35229166D02*
X107757200Y-35181547D01*
X107757200Y-35181547D02*
X107804819Y-35086309D01*
X107804819Y-35086309D02*
X107804819Y-34991071D01*
X107804819Y-34991071D02*
X107757200Y-34895833D01*
X107757200Y-34895833D02*
X107709580Y-34848214D01*
X107709580Y-34848214D02*
X107614342Y-34800595D01*
X107614342Y-34800595D02*
X107423866Y-34752976D01*
X107423866Y-34752976D02*
X107185771Y-34752976D01*
X107185771Y-34752976D02*
X106995295Y-34800595D01*
X106995295Y-34800595D02*
X106900057Y-34848214D01*
X106900057Y-34848214D02*
X106852438Y-34895833D01*
X106852438Y-34895833D02*
X106804819Y-34991071D01*
X89304819Y-33324405D02*
X88304819Y-33324405D01*
X88304819Y-33324405D02*
X88304819Y-33562500D01*
X88304819Y-33562500D02*
X88352438Y-33705357D01*
X88352438Y-33705357D02*
X88447676Y-33800595D01*
X88447676Y-33800595D02*
X88542914Y-33848214D01*
X88542914Y-33848214D02*
X88733390Y-33895833D01*
X88733390Y-33895833D02*
X88876247Y-33895833D01*
X88876247Y-33895833D02*
X89066723Y-33848214D01*
X89066723Y-33848214D02*
X89161961Y-33800595D01*
X89161961Y-33800595D02*
X89257200Y-33705357D01*
X89257200Y-33705357D02*
X89304819Y-33562500D01*
X89304819Y-33562500D02*
X89304819Y-33324405D01*
X88304819Y-34229167D02*
X88304819Y-34895833D01*
X88304819Y-34895833D02*
X89304819Y-34467262D01*
X125804819Y-32848214D02*
X124804819Y-32848214D01*
X124804819Y-32848214D02*
X124804819Y-33086309D01*
X124804819Y-33086309D02*
X124852438Y-33229166D01*
X124852438Y-33229166D02*
X124947676Y-33324404D01*
X124947676Y-33324404D02*
X125042914Y-33372023D01*
X125042914Y-33372023D02*
X125233390Y-33419642D01*
X125233390Y-33419642D02*
X125376247Y-33419642D01*
X125376247Y-33419642D02*
X125566723Y-33372023D01*
X125566723Y-33372023D02*
X125661961Y-33324404D01*
X125661961Y-33324404D02*
X125757200Y-33229166D01*
X125757200Y-33229166D02*
X125804819Y-33086309D01*
X125804819Y-33086309D02*
X125804819Y-32848214D01*
X125804819Y-34372023D02*
X125804819Y-33800595D01*
X125804819Y-34086309D02*
X124804819Y-34086309D01*
X124804819Y-34086309D02*
X124947676Y-33991071D01*
X124947676Y-33991071D02*
X125042914Y-33895833D01*
X125042914Y-33895833D02*
X125090533Y-33800595D01*
X124804819Y-34705357D02*
X124804819Y-35324404D01*
X124804819Y-35324404D02*
X125185771Y-34991071D01*
X125185771Y-34991071D02*
X125185771Y-35133928D01*
X125185771Y-35133928D02*
X125233390Y-35229166D01*
X125233390Y-35229166D02*
X125281009Y-35276785D01*
X125281009Y-35276785D02*
X125376247Y-35324404D01*
X125376247Y-35324404D02*
X125614342Y-35324404D01*
X125614342Y-35324404D02*
X125709580Y-35276785D01*
X125709580Y-35276785D02*
X125757200Y-35229166D01*
X125757200Y-35229166D02*
X125804819Y-35133928D01*
X125804819Y-35133928D02*
X125804819Y-34848214D01*
X125804819Y-34848214D02*
X125757200Y-34752976D01*
X125757200Y-34752976D02*
X125709580Y-34705357D01*
X52804819Y-33324405D02*
X51804819Y-33324405D01*
X51804819Y-33324405D02*
X51804819Y-33562500D01*
X51804819Y-33562500D02*
X51852438Y-33705357D01*
X51852438Y-33705357D02*
X51947676Y-33800595D01*
X51947676Y-33800595D02*
X52042914Y-33848214D01*
X52042914Y-33848214D02*
X52233390Y-33895833D01*
X52233390Y-33895833D02*
X52376247Y-33895833D01*
X52376247Y-33895833D02*
X52566723Y-33848214D01*
X52566723Y-33848214D02*
X52661961Y-33800595D01*
X52661961Y-33800595D02*
X52757200Y-33705357D01*
X52757200Y-33705357D02*
X52804819Y-33562500D01*
X52804819Y-33562500D02*
X52804819Y-33324405D01*
X52804819Y-34848214D02*
X52804819Y-34276786D01*
X52804819Y-34562500D02*
X51804819Y-34562500D01*
X51804819Y-34562500D02*
X51947676Y-34467262D01*
X51947676Y-34467262D02*
X52042914Y-34372024D01*
X52042914Y-34372024D02*
X52090533Y-34276786D01*
X52804819Y-69761905D02*
X51804819Y-69761905D01*
X51804819Y-69761905D02*
X51804819Y-70000000D01*
X51804819Y-70000000D02*
X51852438Y-70142857D01*
X51852438Y-70142857D02*
X51947676Y-70238095D01*
X51947676Y-70238095D02*
X52042914Y-70285714D01*
X52042914Y-70285714D02*
X52233390Y-70333333D01*
X52233390Y-70333333D02*
X52376247Y-70333333D01*
X52376247Y-70333333D02*
X52566723Y-70285714D01*
X52566723Y-70285714D02*
X52661961Y-70238095D01*
X52661961Y-70238095D02*
X52757200Y-70142857D01*
X52757200Y-70142857D02*
X52804819Y-70000000D01*
X52804819Y-70000000D02*
X52804819Y-69761905D01*
X51804819Y-70666667D02*
X51804819Y-71285714D01*
X51804819Y-71285714D02*
X52185771Y-70952381D01*
X52185771Y-70952381D02*
X52185771Y-71095238D01*
X52185771Y-71095238D02*
X52233390Y-71190476D01*
X52233390Y-71190476D02*
X52281009Y-71238095D01*
X52281009Y-71238095D02*
X52376247Y-71285714D01*
X52376247Y-71285714D02*
X52614342Y-71285714D01*
X52614342Y-71285714D02*
X52709580Y-71238095D01*
X52709580Y-71238095D02*
X52757200Y-71190476D01*
X52757200Y-71190476D02*
X52804819Y-71095238D01*
X52804819Y-71095238D02*
X52804819Y-70809524D01*
X52804819Y-70809524D02*
X52757200Y-70714286D01*
X52757200Y-70714286D02*
X52709580Y-70666667D01*
X89304819Y-51761905D02*
X88304819Y-51761905D01*
X88304819Y-51761905D02*
X88304819Y-52000000D01*
X88304819Y-52000000D02*
X88352438Y-52142857D01*
X88352438Y-52142857D02*
X88447676Y-52238095D01*
X88447676Y-52238095D02*
X88542914Y-52285714D01*
X88542914Y-52285714D02*
X88733390Y-52333333D01*
X88733390Y-52333333D02*
X88876247Y-52333333D01*
X88876247Y-52333333D02*
X89066723Y-52285714D01*
X89066723Y-52285714D02*
X89161961Y-52238095D01*
X89161961Y-52238095D02*
X89257200Y-52142857D01*
X89257200Y-52142857D02*
X89304819Y-52000000D01*
X89304819Y-52000000D02*
X89304819Y-51761905D01*
X88733390Y-52904762D02*
X88685771Y-52809524D01*
X88685771Y-52809524D02*
X88638152Y-52761905D01*
X88638152Y-52761905D02*
X88542914Y-52714286D01*
X88542914Y-52714286D02*
X88495295Y-52714286D01*
X88495295Y-52714286D02*
X88400057Y-52761905D01*
X88400057Y-52761905D02*
X88352438Y-52809524D01*
X88352438Y-52809524D02*
X88304819Y-52904762D01*
X88304819Y-52904762D02*
X88304819Y-53095238D01*
X88304819Y-53095238D02*
X88352438Y-53190476D01*
X88352438Y-53190476D02*
X88400057Y-53238095D01*
X88400057Y-53238095D02*
X88495295Y-53285714D01*
X88495295Y-53285714D02*
X88542914Y-53285714D01*
X88542914Y-53285714D02*
X88638152Y-53238095D01*
X88638152Y-53238095D02*
X88685771Y-53190476D01*
X88685771Y-53190476D02*
X88733390Y-53095238D01*
X88733390Y-53095238D02*
X88733390Y-52904762D01*
X88733390Y-52904762D02*
X88781009Y-52809524D01*
X88781009Y-52809524D02*
X88828628Y-52761905D01*
X88828628Y-52761905D02*
X88923866Y-52714286D01*
X88923866Y-52714286D02*
X89114342Y-52714286D01*
X89114342Y-52714286D02*
X89209580Y-52761905D01*
X89209580Y-52761905D02*
X89257200Y-52809524D01*
X89257200Y-52809524D02*
X89304819Y-52904762D01*
X89304819Y-52904762D02*
X89304819Y-53095238D01*
X89304819Y-53095238D02*
X89257200Y-53190476D01*
X89257200Y-53190476D02*
X89209580Y-53238095D01*
X89209580Y-53238095D02*
X89114342Y-53285714D01*
X89114342Y-53285714D02*
X88923866Y-53285714D01*
X88923866Y-53285714D02*
X88828628Y-53238095D01*
X88828628Y-53238095D02*
X88781009Y-53190476D01*
X88781009Y-53190476D02*
X88733390Y-53095238D01*
X71304819Y-51761905D02*
X70304819Y-51761905D01*
X70304819Y-51761905D02*
X70304819Y-52000000D01*
X70304819Y-52000000D02*
X70352438Y-52142857D01*
X70352438Y-52142857D02*
X70447676Y-52238095D01*
X70447676Y-52238095D02*
X70542914Y-52285714D01*
X70542914Y-52285714D02*
X70733390Y-52333333D01*
X70733390Y-52333333D02*
X70876247Y-52333333D01*
X70876247Y-52333333D02*
X71066723Y-52285714D01*
X71066723Y-52285714D02*
X71161961Y-52238095D01*
X71161961Y-52238095D02*
X71257200Y-52142857D01*
X71257200Y-52142857D02*
X71304819Y-52000000D01*
X71304819Y-52000000D02*
X71304819Y-51761905D01*
X70304819Y-53238095D02*
X70304819Y-52761905D01*
X70304819Y-52761905D02*
X70781009Y-52714286D01*
X70781009Y-52714286D02*
X70733390Y-52761905D01*
X70733390Y-52761905D02*
X70685771Y-52857143D01*
X70685771Y-52857143D02*
X70685771Y-53095238D01*
X70685771Y-53095238D02*
X70733390Y-53190476D01*
X70733390Y-53190476D02*
X70781009Y-53238095D01*
X70781009Y-53238095D02*
X70876247Y-53285714D01*
X70876247Y-53285714D02*
X71114342Y-53285714D01*
X71114342Y-53285714D02*
X71209580Y-53238095D01*
X71209580Y-53238095D02*
X71257200Y-53190476D01*
X71257200Y-53190476D02*
X71304819Y-53095238D01*
X71304819Y-53095238D02*
X71304819Y-52857143D01*
X71304819Y-52857143D02*
X71257200Y-52761905D01*
X71257200Y-52761905D02*
X71209580Y-52714286D01*
X125804819Y-69285714D02*
X124804819Y-69285714D01*
X124804819Y-69285714D02*
X124804819Y-69523809D01*
X124804819Y-69523809D02*
X124852438Y-69666666D01*
X124852438Y-69666666D02*
X124947676Y-69761904D01*
X124947676Y-69761904D02*
X125042914Y-69809523D01*
X125042914Y-69809523D02*
X125233390Y-69857142D01*
X125233390Y-69857142D02*
X125376247Y-69857142D01*
X125376247Y-69857142D02*
X125566723Y-69809523D01*
X125566723Y-69809523D02*
X125661961Y-69761904D01*
X125661961Y-69761904D02*
X125757200Y-69666666D01*
X125757200Y-69666666D02*
X125804819Y-69523809D01*
X125804819Y-69523809D02*
X125804819Y-69285714D01*
X125804819Y-70809523D02*
X125804819Y-70238095D01*
X125804819Y-70523809D02*
X124804819Y-70523809D01*
X124804819Y-70523809D02*
X124947676Y-70428571D01*
X124947676Y-70428571D02*
X125042914Y-70333333D01*
X125042914Y-70333333D02*
X125090533Y-70238095D01*
X124804819Y-71714285D02*
X124804819Y-71238095D01*
X124804819Y-71238095D02*
X125281009Y-71190476D01*
X125281009Y-71190476D02*
X125233390Y-71238095D01*
X125233390Y-71238095D02*
X125185771Y-71333333D01*
X125185771Y-71333333D02*
X125185771Y-71571428D01*
X125185771Y-71571428D02*
X125233390Y-71666666D01*
X125233390Y-71666666D02*
X125281009Y-71714285D01*
X125281009Y-71714285D02*
X125376247Y-71761904D01*
X125376247Y-71761904D02*
X125614342Y-71761904D01*
X125614342Y-71761904D02*
X125709580Y-71714285D01*
X125709580Y-71714285D02*
X125757200Y-71666666D01*
X125757200Y-71666666D02*
X125804819Y-71571428D01*
X125804819Y-71571428D02*
X125804819Y-71333333D01*
X125804819Y-71333333D02*
X125757200Y-71238095D01*
X125757200Y-71238095D02*
X125709580Y-71190476D01*
D11*
%TO.C,RZ1*%
X43675000Y-51895000D02*
X43675000Y-69895000D01*
X20175000Y-51895000D02*
X43675000Y-51895000D01*
X43675000Y-69895000D02*
X20175000Y-69895000D01*
X20175000Y-69895000D02*
X20175000Y-51895000D01*
%TO.C,D14*%
X127960000Y-50815000D02*
X127960000Y-53500000D01*
X126040000Y-50815000D02*
X127960000Y-50815000D01*
X126040000Y-53500000D02*
X126040000Y-50815000D01*
%TO.C,D11*%
X109960000Y-50815000D02*
X109960000Y-53500000D01*
X108040000Y-50815000D02*
X109960000Y-50815000D01*
X108040000Y-53500000D02*
X108040000Y-50815000D01*
%TO.C,D4*%
X73460000Y-32377500D02*
X73460000Y-35062500D01*
X71540000Y-32377500D02*
X73460000Y-32377500D01*
X71540000Y-35062500D02*
X71540000Y-32377500D01*
%TO.C,D2*%
X54960000Y-50815000D02*
X54960000Y-53500000D01*
X53040000Y-50815000D02*
X54960000Y-50815000D01*
X53040000Y-53500000D02*
X53040000Y-50815000D01*
%TO.C,D12*%
X109960000Y-68815000D02*
X109960000Y-71500000D01*
X108040000Y-68815000D02*
X109960000Y-68815000D01*
X108040000Y-71500000D02*
X108040000Y-68815000D01*
%TO.C,D9*%
X91460000Y-68815000D02*
X91460000Y-71500000D01*
X89540000Y-68815000D02*
X91460000Y-68815000D01*
X89540000Y-71500000D02*
X89540000Y-68815000D01*
%TO.C,D6*%
X73460000Y-68815000D02*
X73460000Y-71500000D01*
X71540000Y-68815000D02*
X73460000Y-68815000D01*
X71540000Y-71500000D02*
X71540000Y-68815000D01*
%TO.C,D10*%
X109960000Y-32377500D02*
X109960000Y-35062500D01*
X108040000Y-32377500D02*
X109960000Y-32377500D01*
X108040000Y-35062500D02*
X108040000Y-32377500D01*
%TO.C,D7*%
X91460000Y-32377500D02*
X91460000Y-35062500D01*
X89540000Y-32377500D02*
X91460000Y-32377500D01*
X89540000Y-35062500D02*
X89540000Y-32377500D01*
%TO.C,D13*%
X127960000Y-32377500D02*
X127960000Y-35062500D01*
X126040000Y-32377500D02*
X127960000Y-32377500D01*
X126040000Y-35062500D02*
X126040000Y-32377500D01*
%TO.C,D1*%
X54960000Y-32377500D02*
X54960000Y-35062500D01*
X53040000Y-32377500D02*
X54960000Y-32377500D01*
X53040000Y-35062500D02*
X53040000Y-32377500D01*
%TO.C,D3*%
X54960000Y-68815000D02*
X54960000Y-71500000D01*
X53040000Y-68815000D02*
X54960000Y-68815000D01*
X53040000Y-71500000D02*
X53040000Y-68815000D01*
%TO.C,D8*%
X91460000Y-50815000D02*
X91460000Y-53500000D01*
X89540000Y-50815000D02*
X91460000Y-50815000D01*
X89540000Y-53500000D02*
X89540000Y-50815000D01*
%TO.C,D5*%
X73460000Y-50815000D02*
X73460000Y-53500000D01*
X71540000Y-50815000D02*
X73460000Y-50815000D01*
X71540000Y-53500000D02*
X71540000Y-50815000D01*
%TO.C,D15*%
X127960000Y-68815000D02*
X127960000Y-71500000D01*
X126040000Y-68815000D02*
X127960000Y-68815000D01*
X126040000Y-71500000D02*
X126040000Y-68815000D01*
%TD*%
M02*
