M48
; DRILL file {KiCad 7.0.8-7.0.8~ubuntu23.04.1} date Tue 31 Oct 2023 21:45:31
; FORMAT={-:-/ absolute / metric / decimal}
; #@! TF.CreationDate,2023-10-31T21:45:31+10:00
; #@! TF.GenerationSoftware,Kicad,Pcbnew,7.0.8-7.0.8~ubuntu23.04.1
; #@! TF.FileFunction,Plated,1,2,PTH
FMAT,2
METRIC
; #@! TA.AperFunction,Plated,PTH,ViaDrill
T1C0.400
; #@! TA.AperFunction,Plated,PTH,ComponentDrill
T2C0.800
; #@! TA.AperFunction,Plated,PTH,ComponentDrill
T3C1.000
; #@! TA.AperFunction,Plated,PTH,ComponentDrill
T4C1.549
; #@! TA.AperFunction,Plated,PTH,ComponentDrill
T5C2.100
%
G90
G05
T1
X54.0Y-33.0
X54.0Y-51.5
X54.0Y-69.5
X54.0Y-71.5
X72.5Y-33.0
X72.5Y-51.5
X72.5Y-69.5
X72.5Y-71.5
X90.5Y-33.0
X90.5Y-51.5
X90.5Y-69.5
X90.5Y-71.5
X109.0Y-33.0
X109.0Y-51.5
X109.0Y-69.5
X109.0Y-71.5
X127.0Y-33.0
X127.0Y-51.5
X127.0Y-69.5
X127.0Y-71.5
T2
X21.765Y-53.275
X21.765Y-68.515
X24.305Y-53.275
X24.305Y-68.515
X26.845Y-53.275
X26.845Y-68.515
X29.385Y-53.275
X29.385Y-68.515
X31.925Y-53.275
X31.925Y-68.515
X34.465Y-53.275
X34.465Y-68.515
X37.005Y-53.275
X37.005Y-68.515
X39.545Y-53.275
X39.545Y-68.515
X42.085Y-53.275
X42.085Y-68.515
X42.295Y-55.815
X42.295Y-58.355
X42.295Y-60.895
X42.295Y-63.435
X42.295Y-65.975
T3
X29.0Y-33.45
X29.0Y-47.95
X31.5Y-47.95
X34.0Y-33.45
X34.0Y-47.95
T4
X50.54Y-39.81
X50.54Y-57.96
X50.54Y-76.11
X56.89Y-37.27
X56.89Y-55.42
X56.89Y-73.57
X68.69Y-39.81
X68.69Y-57.96
X68.69Y-76.11
X75.04Y-37.27
X75.04Y-55.42
X75.04Y-73.57
X86.84Y-39.81
X86.84Y-57.96
X86.84Y-76.11
X93.19Y-37.27
X93.19Y-55.42
X93.19Y-73.57
X104.99Y-39.81
X104.99Y-57.96
X104.99Y-76.11
X111.34Y-37.27
X111.34Y-55.42
X111.34Y-73.57
X123.14Y-39.81
X123.14Y-57.96
X123.14Y-76.11
X129.49Y-37.27
X129.49Y-55.42
X129.49Y-73.57
T5
G00X24.9Y-40.4
M15
G01X24.9Y-40.5
M16
G05
G00X38.1Y-40.4
M15
G01X38.1Y-40.5
M16
G05
T0
M30
