%TF.GenerationSoftware,KiCad,Pcbnew,7.0.8-7.0.8~ubuntu23.04.1*%
%TF.CreationDate,2023-10-31T21:45:29+10:00*%
%TF.ProjectId,SkyMusicPad,536b794d-7573-4696-9350-61642e6b6963,rev?*%
%TF.SameCoordinates,Original*%
%TF.FileFunction,Copper,L2,Bot*%
%TF.FilePolarity,Positive*%
%FSLAX46Y46*%
G04 Gerber Fmt 4.6, Leading zero omitted, Abs format (unit mm)*
G04 Created by KiCad (PCBNEW 7.0.8-7.0.8~ubuntu23.04.1) date 2023-10-31 21:45:29*
%MOMM*%
%LPD*%
G01*
G04 APERTURE LIST*
G04 Aperture macros list*
%AMRoundRect*
0 Rectangle with rounded corners*
0 $1 Rounding radius*
0 $2 $3 $4 $5 $6 $7 $8 $9 X,Y pos of 4 corners*
0 Add a 4 corners polygon primitive as box body*
4,1,4,$2,$3,$4,$5,$6,$7,$8,$9,$2,$3,0*
0 Add four circle primitives for the rounded corners*
1,1,$1+$1,$2,$3*
1,1,$1+$1,$4,$5*
1,1,$1+$1,$6,$7*
1,1,$1+$1,$8,$9*
0 Add four rect primitives between the rounded corners*
20,1,$1+$1,$2,$3,$4,$5,0*
20,1,$1+$1,$4,$5,$6,$7,0*
20,1,$1+$1,$6,$7,$8,$9,0*
20,1,$1+$1,$8,$9,$2,$3,0*%
G04 Aperture macros list end*
%TA.AperFunction,ComponentPad*%
%ADD10RoundRect,0.400000X-0.400000X0.900000X-0.400000X-0.900000X0.400000X-0.900000X0.400000X0.900000X0*%
%TD*%
%TA.AperFunction,ComponentPad*%
%ADD11RoundRect,0.400050X-0.400050X0.899950X-0.400050X-0.899950X0.400050X-0.899950X0.400050X0.899950X0*%
%TD*%
%TA.AperFunction,ComponentPad*%
%ADD12RoundRect,0.400000X-0.900000X0.400000X-0.900000X-0.400000X0.900000X-0.400000X0.900000X0.400000X0*%
%TD*%
%TA.AperFunction,ComponentPad*%
%ADD13RoundRect,0.393700X-0.906300X0.393700X-0.906300X-0.393700X0.906300X-0.393700X0.906300X0.393700X0*%
%TD*%
%TA.AperFunction,ComponentPad*%
%ADD14C,2.324000*%
%TD*%
%TA.AperFunction,ComponentPad*%
%ADD15C,1.524000*%
%TD*%
%TA.AperFunction,ComponentPad*%
%ADD16O,2.900000X3.000000*%
%TD*%
%TA.AperFunction,SMDPad,CuDef*%
%ADD17RoundRect,0.243750X-0.456250X0.243750X-0.456250X-0.243750X0.456250X-0.243750X0.456250X0.243750X0*%
%TD*%
%TA.AperFunction,ViaPad*%
%ADD18C,0.800000*%
%TD*%
%TA.AperFunction,Conductor*%
%ADD19C,0.250000*%
%TD*%
G04 APERTURE END LIST*
D10*
%TO.P,RZ1,0,GP0*%
%TO.N,unconnected-(RZ1-GP0-Pad0)*%
X21765000Y-69115000D03*
%TO.P,RZ1,1,GP1*%
%TO.N,unconnected-(RZ1-GP1-Pad1)*%
X24305000Y-69115000D03*
%TO.P,RZ1,2,GP2*%
%TO.N,Col4*%
X26845000Y-69115000D03*
%TO.P,RZ1,3,GP3*%
%TO.N,Col3*%
X29385000Y-69115000D03*
%TO.P,RZ1,4,GP4*%
%TO.N,Col2*%
X31925000Y-69115000D03*
D11*
%TO.P,RZ1,5,GP5*%
%TO.N,Col1*%
X34465000Y-69115000D03*
%TO.P,RZ1,6,GP6*%
%TO.N,Col0*%
X37005000Y-69115000D03*
%TO.P,RZ1,7,GP7*%
%TO.N,unconnected-(RZ1-GP7-Pad7)*%
X39545000Y-69115000D03*
%TO.P,RZ1,8,GP8*%
%TO.N,unconnected-(RZ1-GP8-Pad8)*%
X42085000Y-69115000D03*
D12*
%TO.P,RZ1,9,GP9*%
%TO.N,unconnected-(RZ1-GP9-Pad9)*%
X42895000Y-65975000D03*
D13*
%TO.P,RZ1,10,GP10*%
%TO.N,Row2*%
X42895000Y-63435000D03*
%TO.P,RZ1,11,GP11*%
%TO.N,Row1*%
X42895000Y-60895000D03*
%TO.P,RZ1,12,GP12*%
%TO.N,Row0*%
X42895000Y-58355000D03*
%TO.P,RZ1,13,GP13*%
%TO.N,Net-(RZ1-GP13)*%
X42895000Y-55815000D03*
D11*
%TO.P,RZ1,14,GP14*%
%TO.N,Net-(RZ1-GP14)*%
X42085000Y-52675000D03*
%TO.P,RZ1,15,GP15*%
%TO.N,Net-(RZ1-GP15)*%
X39545000Y-52675000D03*
%TO.P,RZ1,26,GP26*%
%TO.N,unconnected-(RZ1-GP26-Pad26)*%
X37005000Y-52675000D03*
%TO.P,RZ1,27,GP27*%
%TO.N,unconnected-(RZ1-GP27-Pad27)*%
X34465000Y-52675000D03*
%TO.P,RZ1,28,GP28*%
%TO.N,unconnected-(RZ1-GP28-Pad28)*%
X31925000Y-52675000D03*
%TO.P,RZ1,29,GP29*%
%TO.N,unconnected-(RZ1-GP29-Pad29)*%
X29385000Y-52675000D03*
%TO.P,RZ1,30,3V3*%
%TO.N,+3.3V*%
X26845000Y-52675000D03*
%TO.P,RZ1,31,GND*%
%TO.N,GND*%
X24305000Y-52675000D03*
%TO.P,RZ1,32,5V*%
%TO.N,+5V*%
X21765000Y-52675000D03*
%TD*%
D14*
%TO.P,S12,1,1*%
%TO.N,Net-(D6-A)*%
X68690000Y-76110000D03*
%TO.P,S12,2,2*%
%TO.N,Col1*%
X75040000Y-73570000D03*
%TD*%
%TO.P,S11,1,1*%
%TO.N,Net-(D3-A)*%
X50540000Y-76110000D03*
%TO.P,S11,2,2*%
%TO.N,Col0*%
X56890000Y-73570000D03*
%TD*%
%TO.P,S9,1,1*%
%TO.N,Net-(D11-A)*%
X104990000Y-57960000D03*
%TO.P,S9,2,2*%
%TO.N,Col3*%
X111340000Y-55420000D03*
%TD*%
%TO.P,S4,1,1*%
%TO.N,Net-(D10-A)*%
X104990000Y-39810000D03*
%TO.P,S4,2,2*%
%TO.N,Col3*%
X111340000Y-37270000D03*
%TD*%
%TO.P,S3,1,1*%
%TO.N,Net-(D7-A)*%
X86840000Y-39810000D03*
%TO.P,S3,2,2*%
%TO.N,Col2*%
X93190000Y-37270000D03*
%TD*%
%TO.P,S6,1,1*%
%TO.N,Net-(D2-A)*%
X50540000Y-57960000D03*
%TO.P,S6,2,2*%
%TO.N,Col0*%
X56890000Y-55420000D03*
%TD*%
%TO.P,S14,1,1*%
%TO.N,Net-(D12-A)*%
X104990000Y-76110000D03*
%TO.P,S14,2,2*%
%TO.N,Col3*%
X111340000Y-73570000D03*
%TD*%
%TO.P,S8,1,1*%
%TO.N,Net-(D8-A)*%
X86840000Y-57960000D03*
%TO.P,S8,2,2*%
%TO.N,Col2*%
X93190000Y-55420000D03*
%TD*%
D15*
%TO.P,SW1,A,A*%
%TO.N,Net-(RZ1-GP14)*%
X29000000Y-47950000D03*
%TO.P,SW1,B,B*%
%TO.N,Net-(RZ1-GP13)*%
X34000000Y-47950000D03*
%TO.P,SW1,C,C*%
%TO.N,GND*%
X31500000Y-47950000D03*
%TO.P,SW1,S1,S1*%
%TO.N,Net-(RZ1-GP15)*%
X29000000Y-33450000D03*
%TO.P,SW1,S2,S2*%
%TO.N,GND*%
X34000000Y-33450000D03*
D16*
%TO.P,SW1,SH,Shell_Ground*%
X24900000Y-40450000D03*
X38100000Y-40450000D03*
%TD*%
D14*
%TO.P,S15,1,1*%
%TO.N,Net-(D15-A)*%
X123140000Y-76110000D03*
%TO.P,S15,2,2*%
%TO.N,Col4*%
X129490000Y-73570000D03*
%TD*%
%TO.P,S13,1,1*%
%TO.N,Net-(D9-A)*%
X86840000Y-76110000D03*
%TO.P,S13,2,2*%
%TO.N,Col2*%
X93190000Y-73570000D03*
%TD*%
%TO.P,S5,1,1*%
%TO.N,Net-(D13-A)*%
X123140000Y-39810000D03*
%TO.P,S5,2,2*%
%TO.N,Col4*%
X129490000Y-37270000D03*
%TD*%
%TO.P,S2,1,1*%
%TO.N,Net-(D4-A)*%
X68690000Y-39810000D03*
%TO.P,S2,2,2*%
%TO.N,Col1*%
X75040000Y-37270000D03*
%TD*%
%TO.P,S1,1,1*%
%TO.N,Net-(D1-A)*%
X50540000Y-39810000D03*
%TO.P,S1,2,2*%
%TO.N,Col0*%
X56890000Y-37270000D03*
%TD*%
%TO.P,S7,1,1*%
%TO.N,Net-(D5-A)*%
X68690000Y-57960000D03*
%TO.P,S7,2,2*%
%TO.N,Col1*%
X75040000Y-55420000D03*
%TD*%
%TO.P,S10,1,1*%
%TO.N,Net-(D14-A)*%
X123140000Y-57960000D03*
%TO.P,S10,2,2*%
%TO.N,Col4*%
X129490000Y-55420000D03*
%TD*%
D17*
%TO.P,D14,1,K*%
%TO.N,Row1*%
X127000000Y-51562500D03*
%TO.P,D14,2,A*%
%TO.N,Net-(D14-A)*%
X127000000Y-53437500D03*
%TD*%
%TO.P,D11,1,K*%
%TO.N,Row1*%
X109000000Y-51562500D03*
%TO.P,D11,2,A*%
%TO.N,Net-(D11-A)*%
X109000000Y-53437500D03*
%TD*%
%TO.P,D4,1,K*%
%TO.N,Row0*%
X72500000Y-33125000D03*
%TO.P,D4,2,A*%
%TO.N,Net-(D4-A)*%
X72500000Y-35000000D03*
%TD*%
%TO.P,D2,1,K*%
%TO.N,Row1*%
X54000000Y-51562500D03*
%TO.P,D2,2,A*%
%TO.N,Net-(D2-A)*%
X54000000Y-53437500D03*
%TD*%
%TO.P,D12,1,K*%
%TO.N,Row2*%
X109000000Y-69562500D03*
%TO.P,D12,2,A*%
%TO.N,Net-(D12-A)*%
X109000000Y-71437500D03*
%TD*%
%TO.P,D9,1,K*%
%TO.N,Row2*%
X90500000Y-69562500D03*
%TO.P,D9,2,A*%
%TO.N,Net-(D9-A)*%
X90500000Y-71437500D03*
%TD*%
%TO.P,D6,1,K*%
%TO.N,Row2*%
X72500000Y-69562500D03*
%TO.P,D6,2,A*%
%TO.N,Net-(D6-A)*%
X72500000Y-71437500D03*
%TD*%
%TO.P,D10,1,K*%
%TO.N,Row0*%
X109000000Y-33125000D03*
%TO.P,D10,2,A*%
%TO.N,Net-(D10-A)*%
X109000000Y-35000000D03*
%TD*%
%TO.P,D7,1,K*%
%TO.N,Row0*%
X90500000Y-33125000D03*
%TO.P,D7,2,A*%
%TO.N,Net-(D7-A)*%
X90500000Y-35000000D03*
%TD*%
%TO.P,D13,1,K*%
%TO.N,Row0*%
X127000000Y-33125000D03*
%TO.P,D13,2,A*%
%TO.N,Net-(D13-A)*%
X127000000Y-35000000D03*
%TD*%
%TO.P,D1,1,K*%
%TO.N,Row0*%
X54000000Y-33125000D03*
%TO.P,D1,2,A*%
%TO.N,Net-(D1-A)*%
X54000000Y-35000000D03*
%TD*%
%TO.P,D3,1,K*%
%TO.N,Row2*%
X54000000Y-69562500D03*
%TO.P,D3,2,A*%
%TO.N,Net-(D3-A)*%
X54000000Y-71437500D03*
%TD*%
%TO.P,D8,1,K*%
%TO.N,Row1*%
X90500000Y-51562500D03*
%TO.P,D8,2,A*%
%TO.N,Net-(D8-A)*%
X90500000Y-53437500D03*
%TD*%
%TO.P,D5,1,K*%
%TO.N,Row1*%
X72500000Y-51562500D03*
%TO.P,D5,2,A*%
%TO.N,Net-(D5-A)*%
X72500000Y-53437500D03*
%TD*%
%TO.P,D15,1,K*%
%TO.N,Row2*%
X127000000Y-69562500D03*
%TO.P,D15,2,A*%
%TO.N,Net-(D15-A)*%
X127000000Y-71437500D03*
%TD*%
D18*
%TO.N,Row0*%
X90500000Y-33000000D03*
X109000000Y-33000000D03*
X127000000Y-33000000D03*
X72500000Y-33000000D03*
X54000000Y-33000000D03*
%TO.N,Row1*%
X127000000Y-51500000D03*
X72500000Y-51500000D03*
X109000000Y-51500000D03*
X54000000Y-51500000D03*
X90500000Y-51500000D03*
%TO.N,Row2*%
X90500000Y-69500000D03*
X127000000Y-69500000D03*
X54000000Y-69500000D03*
X109000000Y-69500000D03*
X72500000Y-69500000D03*
%TO.N,Net-(D3-A)*%
X54000000Y-71500000D03*
%TO.N,Net-(D6-A)*%
X72500000Y-71500000D03*
%TO.N,Net-(D9-A)*%
X90500000Y-71500000D03*
%TO.N,Net-(D12-A)*%
X109000000Y-71500000D03*
%TO.N,Net-(D15-A)*%
X127000000Y-71500000D03*
%TD*%
D19*
%TO.N,Col0*%
X56890000Y-79531973D02*
X56890000Y-73570000D01*
X54921973Y-81500000D02*
X56890000Y-79531973D01*
X37005000Y-72005000D02*
X46500000Y-81500000D01*
X46500000Y-81500000D02*
X54921973Y-81500000D01*
X56890000Y-73570000D02*
X56890000Y-37270000D01*
X37005000Y-68515000D02*
X37005000Y-72005000D01*
%TO.N,Col1*%
X72621973Y-81950000D02*
X75040000Y-79531973D01*
X75040000Y-79531973D02*
X75040000Y-73570000D01*
X34465000Y-68515000D02*
X34465000Y-71965000D01*
X44450000Y-81950000D02*
X72621973Y-81950000D01*
X75040000Y-37270000D02*
X75040000Y-73570000D01*
X34465000Y-71965000D02*
X44450000Y-81950000D01*
%TO.N,Col2*%
X93190000Y-73570000D02*
X93190000Y-37270000D01*
X31925000Y-71925000D02*
X31925000Y-68515000D01*
X93190000Y-73570000D02*
X93190000Y-79531973D01*
X90321973Y-82400000D02*
X42400000Y-82400000D01*
X42400000Y-82400000D02*
X31925000Y-71925000D01*
X93190000Y-79531973D02*
X90321973Y-82400000D01*
%TO.N,Col3*%
X107921972Y-82950000D02*
X107935986Y-82935986D01*
X107935986Y-82935986D02*
X107921973Y-82950000D01*
X111340000Y-73570000D02*
X111340000Y-79531973D01*
X111340000Y-73570000D02*
X111340000Y-37270000D01*
X29385000Y-71885000D02*
X40450000Y-82950000D01*
X111340000Y-79531973D02*
X107935986Y-82935986D01*
X29385000Y-68515000D02*
X29385000Y-71885000D01*
X40450000Y-82950000D02*
X107921972Y-82950000D01*
%TO.N,Col4*%
X26845000Y-71845000D02*
X38500000Y-83500000D01*
X125521973Y-83500000D02*
X129490000Y-79531973D01*
X129490000Y-73570000D02*
X129490000Y-37270000D01*
X129490000Y-79531973D02*
X129490000Y-73570000D01*
X38500000Y-83500000D02*
X125521973Y-83500000D01*
X26845000Y-68515000D02*
X26845000Y-71845000D01*
X129490000Y-73570000D02*
X129500000Y-73580000D01*
%TO.N,Net-(RZ1-GP13)*%
X38250000Y-54000000D02*
X38250000Y-51299145D01*
X42295000Y-55815000D02*
X40980000Y-54500000D01*
X34900855Y-47950000D02*
X34000000Y-47950000D01*
X38750000Y-54500000D02*
X38250000Y-54000000D01*
X38250000Y-51299145D02*
X34900855Y-47950000D01*
X40980000Y-54500000D02*
X38750000Y-54500000D01*
%TO.N,Net-(RZ1-GP15)*%
X29000000Y-33450000D02*
X29000000Y-41412749D01*
X39545000Y-51957749D02*
X39545000Y-53275000D01*
X29000000Y-41412749D02*
X39545000Y-51957749D01*
%TO.N,Net-(D1-A)*%
X54000000Y-35000000D02*
X54000000Y-36350000D01*
X54000000Y-36350000D02*
X50540000Y-39810000D01*
%TO.N,Net-(D2-A)*%
X54000000Y-53437500D02*
X54000000Y-54500000D01*
X54000000Y-54500000D02*
X50540000Y-57960000D01*
%TO.N,Net-(D4-A)*%
X72500000Y-36000000D02*
X68690000Y-39810000D01*
X72500000Y-35000000D02*
X72500000Y-36000000D01*
%TO.N,Net-(D5-A)*%
X72500000Y-54150000D02*
X68690000Y-57960000D01*
X72500000Y-53437500D02*
X72500000Y-54150000D01*
%TO.N,Net-(D7-A)*%
X90500000Y-35000000D02*
X90500000Y-36150000D01*
X90500000Y-36150000D02*
X86840000Y-39810000D01*
%TO.N,Net-(D8-A)*%
X90500000Y-53437500D02*
X90500000Y-54300000D01*
X90500000Y-54300000D02*
X86840000Y-57960000D01*
%TO.N,Net-(D10-A)*%
X109000000Y-35000000D02*
X109000000Y-35800000D01*
X109000000Y-35800000D02*
X104990000Y-39810000D01*
%TO.N,Net-(D11-A)*%
X109000000Y-53437500D02*
X109000000Y-53950000D01*
X109000000Y-53950000D02*
X104990000Y-57960000D01*
%TO.N,Net-(D13-A)*%
X127000000Y-35000000D02*
X127000000Y-35950000D01*
X127000000Y-35950000D02*
X123140000Y-39810000D01*
%TO.N,Net-(D14-A)*%
X127000000Y-53437500D02*
X127000000Y-54100000D01*
X127000000Y-54100000D02*
X123140000Y-57960000D01*
%TD*%
%TA.AperFunction,Conductor*%
%TO.N,GND*%
G36*
X139342539Y-30020185D02*
G01*
X139388294Y-30072989D01*
X139399500Y-30124500D01*
X139399500Y-90875500D01*
X139379815Y-90942539D01*
X139327011Y-90988294D01*
X139275500Y-90999500D01*
X20124500Y-90999500D01*
X20057461Y-90979815D01*
X20011706Y-90927011D01*
X20000500Y-90875500D01*
X20000500Y-67124500D01*
X20020185Y-67057461D01*
X20072989Y-67011706D01*
X20124500Y-67000500D01*
X40975240Y-67000500D01*
X40975383Y-67000528D01*
X40975384Y-67000524D01*
X40999997Y-67000539D01*
X41000000Y-67000541D01*
X41000383Y-67000383D01*
X41000500Y-67000099D01*
X41000541Y-67000000D01*
X41000540Y-66999997D01*
X41000583Y-66975889D01*
X41000500Y-66975467D01*
X41000500Y-66923203D01*
X41020185Y-66856164D01*
X41072989Y-66810409D01*
X41142147Y-66800465D01*
X41205703Y-66829490D01*
X41231817Y-66862862D01*
X41232075Y-66862696D01*
X41233967Y-66865609D01*
X41234987Y-66866913D01*
X41235617Y-66868149D01*
X41354743Y-67015257D01*
X41489647Y-67124500D01*
X41495894Y-67129559D01*
X41535605Y-67187046D01*
X41537933Y-67256877D01*
X41502137Y-67316881D01*
X41449952Y-67345700D01*
X41360444Y-67369683D01*
X41191775Y-67455623D01*
X41191773Y-67455624D01*
X41044658Y-67574758D01*
X40925524Y-67721873D01*
X40925484Y-67721953D01*
X40925449Y-67721989D01*
X40921986Y-67727323D01*
X40921010Y-67726689D01*
X40877509Y-67772749D01*
X40809688Y-67789543D01*
X40743553Y-67767005D01*
X40708753Y-67726843D01*
X40708014Y-67727323D01*
X40704559Y-67722002D01*
X40704516Y-67721953D01*
X40704476Y-67721875D01*
X40704475Y-67721873D01*
X40651168Y-67656046D01*
X40585342Y-67574758D01*
X40487918Y-67495865D01*
X40438226Y-67455624D01*
X40438224Y-67455623D01*
X40327214Y-67399062D01*
X40269556Y-67369684D01*
X40180048Y-67345700D01*
X40086701Y-67320687D01*
X40008077Y-67314500D01*
X40008075Y-67314500D01*
X39545000Y-67314500D01*
X39081924Y-67314501D01*
X39081925Y-67314501D01*
X39003300Y-67320687D01*
X38820444Y-67369684D01*
X38651775Y-67455623D01*
X38651773Y-67455624D01*
X38504658Y-67574758D01*
X38385524Y-67721873D01*
X38385484Y-67721953D01*
X38385449Y-67721989D01*
X38381986Y-67727323D01*
X38381010Y-67726689D01*
X38337509Y-67772749D01*
X38269688Y-67789543D01*
X38203553Y-67767005D01*
X38168753Y-67726843D01*
X38168014Y-67727323D01*
X38164559Y-67722002D01*
X38164516Y-67721953D01*
X38164476Y-67721875D01*
X38164475Y-67721873D01*
X38111168Y-67656046D01*
X38045342Y-67574758D01*
X37947918Y-67495865D01*
X37898226Y-67455624D01*
X37898224Y-67455623D01*
X37787214Y-67399062D01*
X37729556Y-67369684D01*
X37640048Y-67345700D01*
X37546701Y-67320687D01*
X37468077Y-67314500D01*
X37468075Y-67314500D01*
X37005000Y-67314500D01*
X36541924Y-67314501D01*
X36541925Y-67314501D01*
X36463300Y-67320687D01*
X36280444Y-67369684D01*
X36111775Y-67455623D01*
X36111773Y-67455624D01*
X35964658Y-67574758D01*
X35845524Y-67721873D01*
X35845484Y-67721953D01*
X35845449Y-67721989D01*
X35841986Y-67727323D01*
X35841010Y-67726689D01*
X35797509Y-67772749D01*
X35729688Y-67789543D01*
X35663553Y-67767005D01*
X35628753Y-67726843D01*
X35628014Y-67727323D01*
X35624559Y-67722002D01*
X35624516Y-67721953D01*
X35624476Y-67721875D01*
X35624475Y-67721873D01*
X35571168Y-67656046D01*
X35505342Y-67574758D01*
X35407918Y-67495865D01*
X35358226Y-67455624D01*
X35358224Y-67455623D01*
X35247214Y-67399062D01*
X35189556Y-67369684D01*
X35100048Y-67345700D01*
X35006701Y-67320687D01*
X34928077Y-67314500D01*
X34928075Y-67314500D01*
X34465000Y-67314500D01*
X34001924Y-67314501D01*
X34001925Y-67314501D01*
X33923300Y-67320687D01*
X33740444Y-67369684D01*
X33571775Y-67455623D01*
X33571773Y-67455624D01*
X33424658Y-67574758D01*
X33305524Y-67721873D01*
X33305518Y-67721883D01*
X33305437Y-67722043D01*
X33305365Y-67722118D01*
X33301986Y-67727323D01*
X33301033Y-67726704D01*
X33257457Y-67772834D01*
X33189634Y-67789622D01*
X33123502Y-67767077D01*
X33088643Y-67726837D01*
X33087925Y-67727304D01*
X33084563Y-67722128D01*
X33084468Y-67722018D01*
X33084383Y-67721851D01*
X32965257Y-67574743D01*
X32867851Y-67495865D01*
X32818146Y-67455614D01*
X32692868Y-67391783D01*
X32649488Y-67369680D01*
X32543924Y-67341394D01*
X32466642Y-67320687D01*
X32388024Y-67314500D01*
X32388021Y-67314500D01*
X31832396Y-67314500D01*
X31461978Y-67314501D01*
X31461979Y-67314501D01*
X31383356Y-67320687D01*
X31200512Y-67369680D01*
X31031853Y-67455614D01*
X30884743Y-67574743D01*
X30765613Y-67721855D01*
X30765482Y-67722114D01*
X30765365Y-67722237D01*
X30762075Y-67727304D01*
X30761148Y-67726702D01*
X30717505Y-67772908D01*
X30649683Y-67789700D01*
X30583549Y-67767159D01*
X30548622Y-67726850D01*
X30547925Y-67727304D01*
X30544663Y-67722281D01*
X30544518Y-67722114D01*
X30544386Y-67721855D01*
X30544383Y-67721851D01*
X30425257Y-67574743D01*
X30327851Y-67495865D01*
X30278146Y-67455614D01*
X30152868Y-67391783D01*
X30109488Y-67369680D01*
X30003924Y-67341394D01*
X29926642Y-67320687D01*
X29848024Y-67314500D01*
X29848021Y-67314500D01*
X29292396Y-67314500D01*
X28921978Y-67314501D01*
X28921979Y-67314501D01*
X28843356Y-67320687D01*
X28660512Y-67369680D01*
X28491853Y-67455614D01*
X28344743Y-67574743D01*
X28225613Y-67721855D01*
X28225482Y-67722114D01*
X28225365Y-67722237D01*
X28222075Y-67727304D01*
X28221148Y-67726702D01*
X28177505Y-67772908D01*
X28109683Y-67789700D01*
X28043549Y-67767159D01*
X28008622Y-67726850D01*
X28007925Y-67727304D01*
X28004663Y-67722281D01*
X28004518Y-67722114D01*
X28004386Y-67721855D01*
X28004383Y-67721851D01*
X27885257Y-67574743D01*
X27787851Y-67495865D01*
X27738146Y-67455614D01*
X27612868Y-67391783D01*
X27569488Y-67369680D01*
X27463924Y-67341394D01*
X27386642Y-67320687D01*
X27308024Y-67314500D01*
X27308021Y-67314500D01*
X26752396Y-67314500D01*
X26381978Y-67314501D01*
X26381979Y-67314501D01*
X26303356Y-67320687D01*
X26120512Y-67369680D01*
X25951853Y-67455614D01*
X25804743Y-67574743D01*
X25685613Y-67721855D01*
X25685482Y-67722114D01*
X25685365Y-67722237D01*
X25682075Y-67727304D01*
X25681148Y-67726702D01*
X25637505Y-67772908D01*
X25569683Y-67789700D01*
X25503549Y-67767159D01*
X25468622Y-67726850D01*
X25467925Y-67727304D01*
X25464663Y-67722281D01*
X25464518Y-67722114D01*
X25464386Y-67721855D01*
X25464383Y-67721851D01*
X25345257Y-67574743D01*
X25247851Y-67495865D01*
X25198146Y-67455614D01*
X25072868Y-67391783D01*
X25029488Y-67369680D01*
X24923924Y-67341394D01*
X24846642Y-67320687D01*
X24768024Y-67314500D01*
X24768021Y-67314500D01*
X24212396Y-67314500D01*
X23841978Y-67314501D01*
X23841979Y-67314501D01*
X23763356Y-67320687D01*
X23580512Y-67369680D01*
X23411853Y-67455614D01*
X23264743Y-67574743D01*
X23145613Y-67721855D01*
X23145482Y-67722114D01*
X23145365Y-67722237D01*
X23142075Y-67727304D01*
X23141148Y-67726702D01*
X23097505Y-67772908D01*
X23029683Y-67789700D01*
X22963549Y-67767159D01*
X22928622Y-67726850D01*
X22927925Y-67727304D01*
X22924663Y-67722281D01*
X22924518Y-67722114D01*
X22924386Y-67721855D01*
X22924383Y-67721851D01*
X22805257Y-67574743D01*
X22707851Y-67495865D01*
X22658146Y-67455614D01*
X22532868Y-67391783D01*
X22489488Y-67369680D01*
X22383924Y-67341394D01*
X22306642Y-67320687D01*
X22228024Y-67314500D01*
X22228021Y-67314500D01*
X21672396Y-67314500D01*
X21301978Y-67314501D01*
X21301979Y-67314501D01*
X21223356Y-67320687D01*
X21040512Y-67369680D01*
X20871853Y-67455614D01*
X20724743Y-67574743D01*
X20605614Y-67721853D01*
X20519680Y-67890512D01*
X20470687Y-68073356D01*
X20470687Y-68073357D01*
X20464500Y-68151976D01*
X20464501Y-70078022D01*
X20464501Y-70078021D01*
X20470687Y-70156643D01*
X20470688Y-70156645D01*
X20519680Y-70339488D01*
X20541783Y-70382868D01*
X20605614Y-70508146D01*
X20611466Y-70515372D01*
X20724743Y-70655257D01*
X20815803Y-70728996D01*
X20871853Y-70774385D01*
X20955371Y-70816938D01*
X21040512Y-70860320D01*
X21223355Y-70909312D01*
X21254804Y-70911787D01*
X21301976Y-70915500D01*
X21301978Y-70915499D01*
X21301979Y-70915500D01*
X21857603Y-70915499D01*
X22228021Y-70915499D01*
X22254228Y-70913436D01*
X22306645Y-70909312D01*
X22489488Y-70860320D01*
X22618008Y-70794835D01*
X22658146Y-70774385D01*
X22658147Y-70774383D01*
X22658149Y-70774383D01*
X22805257Y-70655257D01*
X22924383Y-70508149D01*
X22924514Y-70507892D01*
X22924630Y-70507768D01*
X22927925Y-70502696D01*
X22928852Y-70503298D01*
X22972488Y-70457095D01*
X23040309Y-70440299D01*
X23106444Y-70462835D01*
X23141376Y-70503149D01*
X23142075Y-70502696D01*
X23145340Y-70507724D01*
X23145486Y-70507892D01*
X23145616Y-70508148D01*
X23150872Y-70514638D01*
X23264743Y-70655257D01*
X23355803Y-70728996D01*
X23411853Y-70774385D01*
X23495371Y-70816938D01*
X23580512Y-70860320D01*
X23763355Y-70909312D01*
X23794804Y-70911787D01*
X23841976Y-70915500D01*
X23841978Y-70915499D01*
X23841979Y-70915500D01*
X24397603Y-70915499D01*
X24768021Y-70915499D01*
X24794228Y-70913436D01*
X24846645Y-70909312D01*
X25029488Y-70860320D01*
X25158008Y-70794835D01*
X25198146Y-70774385D01*
X25198147Y-70774383D01*
X25198149Y-70774383D01*
X25345257Y-70655257D01*
X25464383Y-70508149D01*
X25464514Y-70507892D01*
X25464630Y-70507768D01*
X25467925Y-70502696D01*
X25468852Y-70503298D01*
X25512488Y-70457095D01*
X25580309Y-70440299D01*
X25646444Y-70462835D01*
X25681376Y-70503149D01*
X25682075Y-70502696D01*
X25685340Y-70507724D01*
X25685486Y-70507892D01*
X25685616Y-70508148D01*
X25690872Y-70514638D01*
X25804743Y-70655257D01*
X25895803Y-70728996D01*
X25951853Y-70774385D01*
X26062855Y-70830942D01*
X26120512Y-70860320D01*
X26124234Y-70861317D01*
X26127591Y-70862217D01*
X26187252Y-70898580D01*
X26217783Y-70961427D01*
X26219500Y-70981992D01*
X26219500Y-71762255D01*
X26217775Y-71777872D01*
X26218061Y-71777899D01*
X26217326Y-71785665D01*
X26219500Y-71854814D01*
X26219500Y-71884343D01*
X26219501Y-71884360D01*
X26220368Y-71891231D01*
X26220826Y-71897050D01*
X26222290Y-71943624D01*
X26222291Y-71943627D01*
X26227880Y-71962867D01*
X26231824Y-71981911D01*
X26234336Y-72001792D01*
X26251490Y-72045119D01*
X26253382Y-72050647D01*
X26265464Y-72092233D01*
X26266382Y-72095390D01*
X26271251Y-72103624D01*
X26276580Y-72112634D01*
X26285136Y-72130100D01*
X26292514Y-72148732D01*
X26306394Y-72167837D01*
X26319898Y-72186423D01*
X26323106Y-72191307D01*
X26346827Y-72231416D01*
X26346833Y-72231424D01*
X26360990Y-72245580D01*
X26373628Y-72260376D01*
X26379912Y-72269026D01*
X26385406Y-72276587D01*
X26404622Y-72292484D01*
X26421309Y-72306288D01*
X26425620Y-72310210D01*
X35133098Y-81017689D01*
X37999197Y-83883788D01*
X38009022Y-83896051D01*
X38009243Y-83895869D01*
X38014214Y-83901878D01*
X38035043Y-83921437D01*
X38064635Y-83949226D01*
X38085529Y-83970120D01*
X38091011Y-83974373D01*
X38095443Y-83978157D01*
X38129418Y-84010062D01*
X38146976Y-84019714D01*
X38163233Y-84030393D01*
X38179064Y-84042673D01*
X38198737Y-84051186D01*
X38221833Y-84061182D01*
X38227077Y-84063750D01*
X38267908Y-84086197D01*
X38280523Y-84089435D01*
X38287305Y-84091177D01*
X38305719Y-84097481D01*
X38324104Y-84105438D01*
X38370157Y-84112732D01*
X38375826Y-84113906D01*
X38420981Y-84125500D01*
X38441016Y-84125500D01*
X38460413Y-84127026D01*
X38480196Y-84130160D01*
X38526584Y-84125775D01*
X38532422Y-84125500D01*
X125439230Y-84125500D01*
X125454850Y-84127224D01*
X125454877Y-84126939D01*
X125462633Y-84127671D01*
X125462640Y-84127673D01*
X125531787Y-84125500D01*
X125561323Y-84125500D01*
X125568201Y-84124630D01*
X125574014Y-84124172D01*
X125620600Y-84122709D01*
X125639842Y-84117117D01*
X125658885Y-84113174D01*
X125678765Y-84110664D01*
X125722095Y-84093507D01*
X125727619Y-84091617D01*
X125731369Y-84090527D01*
X125772363Y-84078618D01*
X125789602Y-84068422D01*
X125807076Y-84059862D01*
X125825700Y-84052488D01*
X125825700Y-84052487D01*
X125825705Y-84052486D01*
X125863422Y-84025082D01*
X125868278Y-84021892D01*
X125908393Y-83998170D01*
X125922562Y-83983999D01*
X125937352Y-83971368D01*
X125953560Y-83959594D01*
X125983272Y-83923676D01*
X125987185Y-83919376D01*
X129873786Y-80032775D01*
X129886048Y-80022953D01*
X129885865Y-80022732D01*
X129891867Y-80017765D01*
X129891877Y-80017759D01*
X129939241Y-79967321D01*
X129960120Y-79946443D01*
X129964373Y-79940959D01*
X129968150Y-79936536D01*
X130000062Y-79902555D01*
X130009714Y-79884996D01*
X130020389Y-79868745D01*
X130032674Y-79852909D01*
X130051186Y-79810125D01*
X130053742Y-79804908D01*
X130076197Y-79764065D01*
X130081180Y-79744653D01*
X130087477Y-79726264D01*
X130095438Y-79707868D01*
X130102729Y-79661826D01*
X130103909Y-79656131D01*
X130115500Y-79610992D01*
X130115500Y-79590956D01*
X130117027Y-79571555D01*
X130120160Y-79551777D01*
X130115775Y-79505388D01*
X130115500Y-79499550D01*
X130115500Y-75193240D01*
X130135185Y-75126201D01*
X130187989Y-75080446D01*
X130192015Y-75078692D01*
X130247093Y-75055879D01*
X130470215Y-74919150D01*
X130669200Y-74749200D01*
X130839150Y-74550215D01*
X130975879Y-74327093D01*
X131076021Y-74085329D01*
X131137110Y-73830877D01*
X131157641Y-73570000D01*
X131137110Y-73309123D01*
X131076021Y-73054671D01*
X131076019Y-73054666D01*
X130975881Y-72812910D01*
X130975879Y-72812907D01*
X130839153Y-72589789D01*
X130839152Y-72589788D01*
X130839151Y-72589787D01*
X130839150Y-72589785D01*
X130669200Y-72390800D01*
X130470215Y-72220850D01*
X130470213Y-72220848D01*
X130470211Y-72220847D01*
X130470210Y-72220846D01*
X130247095Y-72084121D01*
X130192046Y-72061319D01*
X130137643Y-72017477D01*
X130115579Y-71951182D01*
X130115500Y-71946758D01*
X130115500Y-57043240D01*
X130135185Y-56976201D01*
X130187989Y-56930446D01*
X130192015Y-56928692D01*
X130247093Y-56905879D01*
X130470215Y-56769150D01*
X130669200Y-56599200D01*
X130839150Y-56400215D01*
X130975879Y-56177093D01*
X131076021Y-55935329D01*
X131137110Y-55680877D01*
X131157641Y-55420000D01*
X131137110Y-55159123D01*
X131076021Y-54904671D01*
X131051087Y-54844474D01*
X130975881Y-54662910D01*
X130975879Y-54662907D01*
X130839153Y-54439789D01*
X130839152Y-54439788D01*
X130839151Y-54439787D01*
X130839150Y-54439785D01*
X130669200Y-54240800D01*
X130470215Y-54070850D01*
X130470213Y-54070848D01*
X130470211Y-54070847D01*
X130470210Y-54070846D01*
X130247095Y-53934121D01*
X130192046Y-53911319D01*
X130137643Y-53867477D01*
X130115579Y-53801182D01*
X130115500Y-53796758D01*
X130115500Y-38893240D01*
X130135185Y-38826201D01*
X130187989Y-38780446D01*
X130192015Y-38778692D01*
X130247093Y-38755879D01*
X130470215Y-38619150D01*
X130669200Y-38449200D01*
X130839150Y-38250215D01*
X130975879Y-38027093D01*
X131076021Y-37785329D01*
X131137110Y-37530877D01*
X131157641Y-37270000D01*
X131137110Y-37009123D01*
X131076021Y-36754671D01*
X131051087Y-36694474D01*
X130975881Y-36512910D01*
X130975879Y-36512907D01*
X130839153Y-36289789D01*
X130839152Y-36289788D01*
X130839151Y-36289787D01*
X130839150Y-36289785D01*
X130669200Y-36090800D01*
X130470215Y-35920850D01*
X130470213Y-35920848D01*
X130470211Y-35920847D01*
X130470210Y-35920846D01*
X130247092Y-35784120D01*
X130247089Y-35784118D01*
X130005333Y-35683980D01*
X130005329Y-35683979D01*
X129750877Y-35622890D01*
X129750874Y-35622889D01*
X129750871Y-35622889D01*
X129490000Y-35602359D01*
X129229128Y-35622889D01*
X129229124Y-35622889D01*
X129229123Y-35622890D01*
X129101897Y-35653434D01*
X128974666Y-35683980D01*
X128732910Y-35784118D01*
X128732907Y-35784120D01*
X128509789Y-35920846D01*
X128509788Y-35920847D01*
X128310800Y-36090800D01*
X128140847Y-36289788D01*
X128140846Y-36289789D01*
X128004120Y-36512907D01*
X128004118Y-36512910D01*
X127903980Y-36754666D01*
X127842889Y-37009128D01*
X127822359Y-37270000D01*
X127842889Y-37530871D01*
X127903980Y-37785333D01*
X128004118Y-38027089D01*
X128004120Y-38027092D01*
X128140846Y-38250210D01*
X128140847Y-38250211D01*
X128140848Y-38250213D01*
X128140850Y-38250215D01*
X128310800Y-38449200D01*
X128509785Y-38619150D01*
X128509787Y-38619151D01*
X128509788Y-38619152D01*
X128509789Y-38619153D01*
X128732063Y-38755362D01*
X128732907Y-38755879D01*
X128787952Y-38778679D01*
X128842355Y-38822518D01*
X128864421Y-38888812D01*
X128864500Y-38893240D01*
X128864500Y-40722581D01*
X128844815Y-40789620D01*
X128792011Y-40835375D01*
X128722853Y-40845319D01*
X128659297Y-40816294D01*
X128647272Y-40804340D01*
X128576434Y-40723565D01*
X128350225Y-40525186D01*
X128100064Y-40358034D01*
X128100057Y-40358030D01*
X127830222Y-40224962D01*
X127830212Y-40224958D01*
X127545328Y-40128253D01*
X127545308Y-40128248D01*
X127250237Y-40069555D01*
X127250227Y-40069553D01*
X127025141Y-40054800D01*
X126874859Y-40054800D01*
X126649773Y-40069553D01*
X126649767Y-40069554D01*
X126649762Y-40069555D01*
X126354691Y-40128248D01*
X126354671Y-40128253D01*
X126069787Y-40224958D01*
X126069777Y-40224962D01*
X125799942Y-40358030D01*
X125799935Y-40358034D01*
X125549774Y-40525186D01*
X125323565Y-40723565D01*
X125125189Y-40949771D01*
X124958036Y-41199931D01*
X124958029Y-41199944D01*
X124824962Y-41469777D01*
X124824958Y-41469787D01*
X124728253Y-41754671D01*
X124728248Y-41754691D01*
X124669555Y-42049762D01*
X124669553Y-42049774D01*
X124649875Y-42350000D01*
X124669553Y-42650225D01*
X124669555Y-42650237D01*
X124728248Y-42945308D01*
X124728253Y-42945328D01*
X124824958Y-43230212D01*
X124824962Y-43230222D01*
X124958030Y-43500057D01*
X124958034Y-43500064D01*
X125125186Y-43750225D01*
X125323565Y-43976434D01*
X125549774Y-44174813D01*
X125799935Y-44341965D01*
X125799942Y-44341969D01*
X126069777Y-44475037D01*
X126069787Y-44475041D01*
X126354671Y-44571746D01*
X126354675Y-44571747D01*
X126354684Y-44571750D01*
X126649773Y-44630447D01*
X126874859Y-44645200D01*
X126874863Y-44645200D01*
X127025137Y-44645200D01*
X127025141Y-44645200D01*
X127250227Y-44630447D01*
X127545316Y-44571750D01*
X127545328Y-44571746D01*
X127830212Y-44475041D01*
X127830222Y-44475037D01*
X128100062Y-44341967D01*
X128350227Y-44174812D01*
X128576434Y-43976434D01*
X128647272Y-43895659D01*
X128706273Y-43858235D01*
X128776142Y-43858651D01*
X128834694Y-43896774D01*
X128863341Y-43960501D01*
X128864500Y-43977418D01*
X128864500Y-53796758D01*
X128844815Y-53863797D01*
X128792011Y-53909552D01*
X128787954Y-53911319D01*
X128732904Y-53934121D01*
X128509789Y-54070846D01*
X128509788Y-54070847D01*
X128310800Y-54240800D01*
X128140847Y-54439788D01*
X128140846Y-54439789D01*
X128004120Y-54662907D01*
X128004118Y-54662910D01*
X127903980Y-54904666D01*
X127888266Y-54970120D01*
X127849844Y-55130160D01*
X127842889Y-55159128D01*
X127822359Y-55420000D01*
X127842889Y-55680871D01*
X127903980Y-55935333D01*
X128004118Y-56177089D01*
X128004120Y-56177092D01*
X128140846Y-56400210D01*
X128140847Y-56400211D01*
X128140848Y-56400213D01*
X128140850Y-56400215D01*
X128310800Y-56599200D01*
X128509785Y-56769150D01*
X128509787Y-56769151D01*
X128509788Y-56769152D01*
X128509789Y-56769153D01*
X128632709Y-56844478D01*
X128732907Y-56905879D01*
X128787952Y-56928679D01*
X128842355Y-56972518D01*
X128864421Y-57038812D01*
X128864500Y-57043240D01*
X128864500Y-58872581D01*
X128844815Y-58939620D01*
X128792011Y-58985375D01*
X128722853Y-58995319D01*
X128659297Y-58966294D01*
X128647272Y-58954340D01*
X128576434Y-58873565D01*
X128350225Y-58675186D01*
X128100064Y-58508034D01*
X128100057Y-58508030D01*
X127830222Y-58374962D01*
X127830212Y-58374958D01*
X127545328Y-58278253D01*
X127545308Y-58278248D01*
X127250237Y-58219555D01*
X127250227Y-58219553D01*
X127025141Y-58204800D01*
X126874859Y-58204800D01*
X126649773Y-58219553D01*
X126649767Y-58219554D01*
X126649762Y-58219555D01*
X126354691Y-58278248D01*
X126354671Y-58278253D01*
X126069787Y-58374958D01*
X126069777Y-58374962D01*
X125799942Y-58508030D01*
X125799935Y-58508034D01*
X125549774Y-58675186D01*
X125323565Y-58873565D01*
X125125189Y-59099771D01*
X124958036Y-59349931D01*
X124958029Y-59349944D01*
X124824962Y-59619777D01*
X124824958Y-59619787D01*
X124728253Y-59904671D01*
X124728248Y-59904691D01*
X124669555Y-60199762D01*
X124669553Y-60199774D01*
X124649875Y-60500000D01*
X124669553Y-60800225D01*
X124669555Y-60800237D01*
X124728248Y-61095308D01*
X124728253Y-61095328D01*
X124824958Y-61380212D01*
X124824962Y-61380222D01*
X124958030Y-61650057D01*
X124958034Y-61650064D01*
X125125186Y-61900225D01*
X125323565Y-62126434D01*
X125549774Y-62324813D01*
X125799935Y-62491965D01*
X125799942Y-62491969D01*
X126069777Y-62625037D01*
X126069787Y-62625041D01*
X126354671Y-62721746D01*
X126354675Y-62721747D01*
X126354684Y-62721750D01*
X126649773Y-62780447D01*
X126874859Y-62795200D01*
X126874863Y-62795200D01*
X127025137Y-62795200D01*
X127025141Y-62795200D01*
X127250227Y-62780447D01*
X127545316Y-62721750D01*
X127553176Y-62719082D01*
X127830212Y-62625041D01*
X127830222Y-62625037D01*
X127877549Y-62601698D01*
X128100062Y-62491967D01*
X128350227Y-62324812D01*
X128576434Y-62126434D01*
X128647272Y-62045659D01*
X128706273Y-62008235D01*
X128776142Y-62008651D01*
X128834694Y-62046774D01*
X128863341Y-62110501D01*
X128864500Y-62127418D01*
X128864500Y-71946758D01*
X128844815Y-72013797D01*
X128792011Y-72059552D01*
X128787954Y-72061319D01*
X128732904Y-72084121D01*
X128509789Y-72220846D01*
X128509788Y-72220847D01*
X128310800Y-72390800D01*
X128140847Y-72589788D01*
X128140846Y-72589789D01*
X128004120Y-72812907D01*
X128004118Y-72812910D01*
X127903980Y-73054666D01*
X127842889Y-73309128D01*
X127822359Y-73570000D01*
X127842889Y-73830871D01*
X127903980Y-74085333D01*
X128004118Y-74327089D01*
X128004120Y-74327092D01*
X128140846Y-74550210D01*
X128140847Y-74550211D01*
X128140848Y-74550213D01*
X128140850Y-74550215D01*
X128310800Y-74749200D01*
X128509785Y-74919150D01*
X128509787Y-74919151D01*
X128509788Y-74919152D01*
X128509789Y-74919153D01*
X128732905Y-75055878D01*
X128732907Y-75055879D01*
X128787952Y-75078679D01*
X128842355Y-75122518D01*
X128864421Y-75188812D01*
X128864500Y-75193240D01*
X128864500Y-77022581D01*
X128844815Y-77089620D01*
X128792011Y-77135375D01*
X128722853Y-77145319D01*
X128659297Y-77116294D01*
X128647272Y-77104340D01*
X128576434Y-77023565D01*
X128350225Y-76825186D01*
X128100064Y-76658034D01*
X128100057Y-76658030D01*
X127830222Y-76524962D01*
X127830212Y-76524958D01*
X127545328Y-76428253D01*
X127545308Y-76428248D01*
X127250237Y-76369555D01*
X127250227Y-76369553D01*
X127025141Y-76354800D01*
X126874859Y-76354800D01*
X126649773Y-76369553D01*
X126649767Y-76369554D01*
X126649762Y-76369555D01*
X126354691Y-76428248D01*
X126354671Y-76428253D01*
X126069787Y-76524958D01*
X126069777Y-76524962D01*
X125799942Y-76658030D01*
X125799935Y-76658034D01*
X125549774Y-76825186D01*
X125323565Y-77023565D01*
X125125189Y-77249771D01*
X124958036Y-77499931D01*
X124958029Y-77499944D01*
X124824962Y-77769777D01*
X124824958Y-77769787D01*
X124728253Y-78054671D01*
X124728248Y-78054691D01*
X124669555Y-78349762D01*
X124669553Y-78349774D01*
X124649875Y-78650000D01*
X124669553Y-78950225D01*
X124669555Y-78950237D01*
X124728248Y-79245308D01*
X124728253Y-79245328D01*
X124824958Y-79530212D01*
X124824962Y-79530222D01*
X124958030Y-79800057D01*
X124958034Y-79800064D01*
X125125186Y-80050225D01*
X125323565Y-80276434D01*
X125549774Y-80474813D01*
X125799935Y-80641965D01*
X125799942Y-80641969D01*
X126069777Y-80775037D01*
X126069787Y-80775041D01*
X126354671Y-80871746D01*
X126354675Y-80871747D01*
X126354684Y-80871750D01*
X126649773Y-80930447D01*
X126874859Y-80945200D01*
X126874863Y-80945200D01*
X126892820Y-80945200D01*
X126959859Y-80964885D01*
X127005614Y-81017689D01*
X127015558Y-81086847D01*
X126986533Y-81150403D01*
X126980501Y-81156881D01*
X125299201Y-82838181D01*
X125237878Y-82871666D01*
X125211520Y-82874500D01*
X109181424Y-82874500D01*
X109114385Y-82854815D01*
X109068630Y-82802011D01*
X109058686Y-82732853D01*
X109087711Y-82669297D01*
X109093743Y-82662819D01*
X110193743Y-81562819D01*
X111723788Y-80032774D01*
X111736042Y-80022959D01*
X111735859Y-80022737D01*
X111741866Y-80017765D01*
X111741877Y-80017759D01*
X111772775Y-79984855D01*
X111789227Y-79967337D01*
X111799671Y-79956891D01*
X111810120Y-79946444D01*
X111814379Y-79940951D01*
X111818152Y-79936534D01*
X111850062Y-79902555D01*
X111859713Y-79884997D01*
X111870396Y-79868734D01*
X111882673Y-79852909D01*
X111901185Y-79810126D01*
X111903738Y-79804914D01*
X111926197Y-79764065D01*
X111931180Y-79744653D01*
X111937481Y-79726253D01*
X111945437Y-79707869D01*
X111952729Y-79661825D01*
X111953906Y-79656144D01*
X111965500Y-79610992D01*
X111965500Y-79590956D01*
X111967027Y-79571555D01*
X111970160Y-79551777D01*
X111965775Y-79505388D01*
X111965500Y-79499550D01*
X111965500Y-76110000D01*
X121472359Y-76110000D01*
X121492889Y-76370871D01*
X121553980Y-76625333D01*
X121654118Y-76867089D01*
X121654120Y-76867092D01*
X121790846Y-77090210D01*
X121790847Y-77090211D01*
X121790848Y-77090213D01*
X121790850Y-77090215D01*
X121960800Y-77289200D01*
X122159785Y-77459150D01*
X122159787Y-77459151D01*
X122159788Y-77459152D01*
X122159789Y-77459153D01*
X122382907Y-77595879D01*
X122382910Y-77595881D01*
X122624666Y-77696019D01*
X122624671Y-77696021D01*
X122879123Y-77757110D01*
X123140000Y-77777641D01*
X123400877Y-77757110D01*
X123655329Y-77696021D01*
X123776211Y-77645950D01*
X123897089Y-77595881D01*
X123897090Y-77595880D01*
X123897093Y-77595879D01*
X124120215Y-77459150D01*
X124319200Y-77289200D01*
X124489150Y-77090215D01*
X124625879Y-76867093D01*
X124643238Y-76825186D01*
X124712474Y-76658034D01*
X124726021Y-76625329D01*
X124787110Y-76370877D01*
X124807641Y-76110000D01*
X124787110Y-75849123D01*
X124726021Y-75594671D01*
X124726019Y-75594666D01*
X124625881Y-75352910D01*
X124625879Y-75352907D01*
X124489153Y-75129789D01*
X124489152Y-75129788D01*
X124489151Y-75129787D01*
X124489150Y-75129785D01*
X124319200Y-74930800D01*
X124120215Y-74760850D01*
X124120213Y-74760848D01*
X124120211Y-74760847D01*
X124120210Y-74760846D01*
X123897092Y-74624120D01*
X123897089Y-74624118D01*
X123655333Y-74523980D01*
X123655329Y-74523979D01*
X123400877Y-74462890D01*
X123400874Y-74462889D01*
X123400871Y-74462889D01*
X123140000Y-74442359D01*
X122879128Y-74462889D01*
X122879124Y-74462889D01*
X122879123Y-74462890D01*
X122751897Y-74493434D01*
X122624666Y-74523980D01*
X122382910Y-74624118D01*
X122382907Y-74624120D01*
X122159789Y-74760846D01*
X122159788Y-74760847D01*
X121960800Y-74930800D01*
X121790847Y-75129788D01*
X121790846Y-75129789D01*
X121654120Y-75352907D01*
X121654118Y-75352910D01*
X121553980Y-75594666D01*
X121492889Y-75849128D01*
X121472359Y-76110000D01*
X111965500Y-76110000D01*
X111965500Y-75193240D01*
X111985185Y-75126201D01*
X112037989Y-75080446D01*
X112042015Y-75078692D01*
X112097093Y-75055879D01*
X112320215Y-74919150D01*
X112519200Y-74749200D01*
X112689150Y-74550215D01*
X112825879Y-74327093D01*
X112926021Y-74085329D01*
X112987110Y-73830877D01*
X113007641Y-73570000D01*
X112987110Y-73309123D01*
X112926021Y-73054671D01*
X112926019Y-73054666D01*
X112825881Y-72812910D01*
X112825879Y-72812907D01*
X112689153Y-72589789D01*
X112689152Y-72589788D01*
X112689151Y-72589787D01*
X112689150Y-72589785D01*
X112519200Y-72390800D01*
X112320215Y-72220850D01*
X112320213Y-72220848D01*
X112320211Y-72220847D01*
X112320210Y-72220846D01*
X112097095Y-72084121D01*
X112042046Y-72061319D01*
X111987643Y-72017477D01*
X111965579Y-71951182D01*
X111965500Y-71946758D01*
X111965500Y-71730855D01*
X125799500Y-71730855D01*
X125809913Y-71832776D01*
X125864637Y-71997922D01*
X125864642Y-71997933D01*
X125955971Y-72145999D01*
X125955974Y-72146003D01*
X126078996Y-72269025D01*
X126079000Y-72269028D01*
X126227066Y-72360357D01*
X126227069Y-72360358D01*
X126227075Y-72360362D01*
X126392225Y-72415087D01*
X126494152Y-72425500D01*
X126494157Y-72425500D01*
X127505843Y-72425500D01*
X127505848Y-72425500D01*
X127607775Y-72415087D01*
X127772925Y-72360362D01*
X127921003Y-72269026D01*
X128044026Y-72146003D01*
X128135362Y-71997925D01*
X128190087Y-71832775D01*
X128200500Y-71730848D01*
X128200500Y-71144152D01*
X128190087Y-71042225D01*
X128135362Y-70877075D01*
X128135358Y-70877069D01*
X128135357Y-70877066D01*
X128044028Y-70729000D01*
X128044025Y-70728996D01*
X127921004Y-70605975D01*
X127921003Y-70605974D01*
X127920301Y-70605541D01*
X127919921Y-70605118D01*
X127915336Y-70601493D01*
X127915955Y-70600709D01*
X127873575Y-70553598D01*
X127862349Y-70484636D01*
X127890188Y-70420552D01*
X127915455Y-70398657D01*
X127915336Y-70398507D01*
X127918687Y-70395856D01*
X127920299Y-70394459D01*
X127921003Y-70394026D01*
X128044026Y-70271003D01*
X128135362Y-70122925D01*
X128190087Y-69957775D01*
X128200500Y-69855848D01*
X128200500Y-69269152D01*
X128190087Y-69167225D01*
X128135362Y-69002075D01*
X128135358Y-69002069D01*
X128135357Y-69002066D01*
X128044028Y-68854000D01*
X128044025Y-68853996D01*
X127921003Y-68730974D01*
X127920999Y-68730971D01*
X127772933Y-68639642D01*
X127772927Y-68639639D01*
X127772925Y-68639638D01*
X127772922Y-68639637D01*
X127607776Y-68584913D01*
X127505855Y-68574500D01*
X127505848Y-68574500D01*
X126494152Y-68574500D01*
X126494144Y-68574500D01*
X126392223Y-68584913D01*
X126227077Y-68639637D01*
X126227066Y-68639642D01*
X126079000Y-68730971D01*
X126078996Y-68730974D01*
X125955974Y-68853996D01*
X125955971Y-68854000D01*
X125864642Y-69002066D01*
X125864637Y-69002077D01*
X125809913Y-69167223D01*
X125799500Y-69269144D01*
X125799500Y-69855855D01*
X125809913Y-69957776D01*
X125864637Y-70122922D01*
X125864642Y-70122933D01*
X125955971Y-70270999D01*
X125955974Y-70271003D01*
X126078996Y-70394025D01*
X126079000Y-70394028D01*
X126079703Y-70394462D01*
X126080083Y-70394885D01*
X126084664Y-70398507D01*
X126084045Y-70399289D01*
X126126428Y-70446410D01*
X126137649Y-70515372D01*
X126109806Y-70579454D01*
X126084544Y-70601342D01*
X126084664Y-70601493D01*
X126081315Y-70604140D01*
X126079703Y-70605538D01*
X126079000Y-70605971D01*
X126078996Y-70605974D01*
X125955974Y-70728996D01*
X125955971Y-70729000D01*
X125864642Y-70877066D01*
X125864637Y-70877077D01*
X125809913Y-71042223D01*
X125799500Y-71144144D01*
X125799500Y-71730855D01*
X111965500Y-71730855D01*
X111965500Y-57960000D01*
X121472359Y-57960000D01*
X121492889Y-58220871D01*
X121553980Y-58475333D01*
X121654118Y-58717089D01*
X121654120Y-58717092D01*
X121790846Y-58940210D01*
X121790847Y-58940211D01*
X121790848Y-58940213D01*
X121790850Y-58940215D01*
X121960800Y-59139200D01*
X122159785Y-59309150D01*
X122159787Y-59309151D01*
X122159788Y-59309152D01*
X122159789Y-59309153D01*
X122382907Y-59445879D01*
X122382910Y-59445881D01*
X122624666Y-59546019D01*
X122624671Y-59546021D01*
X122879123Y-59607110D01*
X123140000Y-59627641D01*
X123400877Y-59607110D01*
X123655329Y-59546021D01*
X123776211Y-59495950D01*
X123897089Y-59445881D01*
X123897090Y-59445880D01*
X123897093Y-59445879D01*
X124120215Y-59309150D01*
X124319200Y-59139200D01*
X124489150Y-58940215D01*
X124625879Y-58717093D01*
X124643238Y-58675186D01*
X124712474Y-58508034D01*
X124726021Y-58475329D01*
X124787110Y-58220877D01*
X124807641Y-57960000D01*
X124787110Y-57699123D01*
X124726021Y-57444671D01*
X124703218Y-57389621D01*
X124695750Y-57320155D01*
X124727025Y-57257676D01*
X124730071Y-57254518D01*
X127383788Y-54600801D01*
X127396042Y-54590986D01*
X127395859Y-54590764D01*
X127401866Y-54585792D01*
X127401877Y-54585786D01*
X127436209Y-54549226D01*
X127449227Y-54535364D01*
X127459671Y-54524918D01*
X127470120Y-54514471D01*
X127474379Y-54508978D01*
X127478152Y-54504561D01*
X127510062Y-54470582D01*
X127510064Y-54470577D01*
X127513197Y-54466266D01*
X127568524Y-54423597D01*
X127600922Y-54415787D01*
X127607775Y-54415087D01*
X127772925Y-54360362D01*
X127921003Y-54269026D01*
X128044026Y-54146003D01*
X128135362Y-53997925D01*
X128190087Y-53832775D01*
X128200500Y-53730848D01*
X128200500Y-53144152D01*
X128190087Y-53042225D01*
X128135362Y-52877075D01*
X128135358Y-52877069D01*
X128135357Y-52877066D01*
X128044028Y-52729000D01*
X128044025Y-52728996D01*
X127921004Y-52605975D01*
X127921003Y-52605974D01*
X127920301Y-52605541D01*
X127919921Y-52605118D01*
X127915336Y-52601493D01*
X127915955Y-52600709D01*
X127873575Y-52553598D01*
X127862349Y-52484636D01*
X127890188Y-52420552D01*
X127915455Y-52398657D01*
X127915336Y-52398507D01*
X127918687Y-52395856D01*
X127920299Y-52394459D01*
X127921003Y-52394026D01*
X128044026Y-52271003D01*
X128135362Y-52122925D01*
X128190087Y-51957775D01*
X128200500Y-51855848D01*
X128200500Y-51269152D01*
X128190087Y-51167225D01*
X128135362Y-51002075D01*
X128135358Y-51002069D01*
X128135357Y-51002066D01*
X128044028Y-50854000D01*
X128044025Y-50853996D01*
X127921003Y-50730974D01*
X127920999Y-50730971D01*
X127772933Y-50639642D01*
X127772927Y-50639639D01*
X127772925Y-50639638D01*
X127772922Y-50639637D01*
X127607776Y-50584913D01*
X127505855Y-50574500D01*
X127505848Y-50574500D01*
X126494152Y-50574500D01*
X126494144Y-50574500D01*
X126392223Y-50584913D01*
X126227077Y-50639637D01*
X126227066Y-50639642D01*
X126079000Y-50730971D01*
X126078996Y-50730974D01*
X125955974Y-50853996D01*
X125955971Y-50854000D01*
X125864642Y-51002066D01*
X125864637Y-51002077D01*
X125809913Y-51167223D01*
X125799500Y-51269144D01*
X125799500Y-51855855D01*
X125809913Y-51957776D01*
X125864637Y-52122922D01*
X125864642Y-52122933D01*
X125955971Y-52270999D01*
X125955974Y-52271003D01*
X126078996Y-52394025D01*
X126079000Y-52394028D01*
X126079703Y-52394462D01*
X126080083Y-52394885D01*
X126084664Y-52398507D01*
X126084045Y-52399289D01*
X126126428Y-52446410D01*
X126137649Y-52515372D01*
X126109806Y-52579454D01*
X126084544Y-52601342D01*
X126084664Y-52601493D01*
X126081315Y-52604140D01*
X126079703Y-52605538D01*
X126079000Y-52605971D01*
X126078996Y-52605974D01*
X125955974Y-52728996D01*
X125955971Y-52729000D01*
X125864642Y-52877066D01*
X125864637Y-52877077D01*
X125809913Y-53042223D01*
X125799500Y-53144144D01*
X125799500Y-53730855D01*
X125809913Y-53832776D01*
X125864637Y-53997922D01*
X125864639Y-53997927D01*
X125947776Y-54132712D01*
X125966216Y-54200104D01*
X125945294Y-54266768D01*
X125929918Y-54285490D01*
X123845508Y-56369899D01*
X123784185Y-56403384D01*
X123714493Y-56398400D01*
X123710375Y-56396779D01*
X123655329Y-56373978D01*
X123400873Y-56312889D01*
X123140000Y-56292359D01*
X122879128Y-56312889D01*
X122879124Y-56312889D01*
X122879123Y-56312890D01*
X122751897Y-56343434D01*
X122624666Y-56373980D01*
X122382910Y-56474118D01*
X122382907Y-56474120D01*
X122159789Y-56610846D01*
X122159788Y-56610847D01*
X121960800Y-56780800D01*
X121790847Y-56979788D01*
X121790846Y-56979789D01*
X121654120Y-57202907D01*
X121654118Y-57202910D01*
X121553980Y-57444666D01*
X121547513Y-57471603D01*
X121507305Y-57639083D01*
X121492889Y-57699128D01*
X121472359Y-57960000D01*
X111965500Y-57960000D01*
X111965500Y-57043240D01*
X111985185Y-56976201D01*
X112037989Y-56930446D01*
X112042015Y-56928692D01*
X112097093Y-56905879D01*
X112320215Y-56769150D01*
X112519200Y-56599200D01*
X112689150Y-56400215D01*
X112825879Y-56177093D01*
X112926021Y-55935329D01*
X112987110Y-55680877D01*
X113007641Y-55420000D01*
X112987110Y-55159123D01*
X112926021Y-54904671D01*
X112901087Y-54844474D01*
X112825881Y-54662910D01*
X112825879Y-54662907D01*
X112689153Y-54439789D01*
X112689152Y-54439788D01*
X112689151Y-54439787D01*
X112689150Y-54439785D01*
X112519200Y-54240800D01*
X112320215Y-54070850D01*
X112320213Y-54070848D01*
X112320211Y-54070847D01*
X112320210Y-54070846D01*
X112097095Y-53934121D01*
X112042046Y-53911319D01*
X111987643Y-53867477D01*
X111965579Y-53801182D01*
X111965500Y-53796758D01*
X111965500Y-39810000D01*
X121472359Y-39810000D01*
X121492889Y-40070871D01*
X121553980Y-40325333D01*
X121654118Y-40567089D01*
X121654120Y-40567092D01*
X121790846Y-40790210D01*
X121790847Y-40790211D01*
X121790848Y-40790213D01*
X121790850Y-40790215D01*
X121960800Y-40989200D01*
X122159785Y-41159150D01*
X122159787Y-41159151D01*
X122159788Y-41159152D01*
X122159789Y-41159153D01*
X122382907Y-41295879D01*
X122382910Y-41295881D01*
X122579397Y-41377268D01*
X122624671Y-41396021D01*
X122879123Y-41457110D01*
X123140000Y-41477641D01*
X123400877Y-41457110D01*
X123655329Y-41396021D01*
X123814708Y-41330004D01*
X123897089Y-41295881D01*
X123897090Y-41295880D01*
X123897093Y-41295879D01*
X124120215Y-41159150D01*
X124319200Y-40989200D01*
X124489150Y-40790215D01*
X124625879Y-40567093D01*
X124632302Y-40551588D01*
X124712474Y-40358034D01*
X124726021Y-40325329D01*
X124787110Y-40070877D01*
X124807641Y-39810000D01*
X124787110Y-39549123D01*
X124726021Y-39294671D01*
X124703218Y-39239621D01*
X124695750Y-39170155D01*
X124727025Y-39107676D01*
X124730071Y-39104518D01*
X127383788Y-36450801D01*
X127396042Y-36440986D01*
X127395859Y-36440764D01*
X127401866Y-36435792D01*
X127401877Y-36435786D01*
X127436209Y-36399226D01*
X127449227Y-36385364D01*
X127459671Y-36374918D01*
X127470120Y-36364471D01*
X127474379Y-36358978D01*
X127478152Y-36354561D01*
X127510062Y-36320582D01*
X127519713Y-36303024D01*
X127530396Y-36286761D01*
X127542673Y-36270936D01*
X127561185Y-36228153D01*
X127563738Y-36222941D01*
X127586197Y-36182092D01*
X127591180Y-36162680D01*
X127597481Y-36144280D01*
X127605437Y-36125896D01*
X127612728Y-36079856D01*
X127613909Y-36074159D01*
X127614228Y-36072917D01*
X127624746Y-36031955D01*
X127660483Y-35971919D01*
X127705843Y-35945090D01*
X127772925Y-35922862D01*
X127921003Y-35831526D01*
X128044026Y-35708503D01*
X128135362Y-35560425D01*
X128190087Y-35395275D01*
X128200500Y-35293348D01*
X128200500Y-34706652D01*
X128190087Y-34604725D01*
X128135362Y-34439575D01*
X128135358Y-34439569D01*
X128135357Y-34439566D01*
X128044028Y-34291500D01*
X128044025Y-34291496D01*
X127921004Y-34168475D01*
X127921003Y-34168474D01*
X127920301Y-34168041D01*
X127919921Y-34167618D01*
X127915336Y-34163993D01*
X127915955Y-34163209D01*
X127873575Y-34116098D01*
X127862349Y-34047136D01*
X127890188Y-33983052D01*
X127915455Y-33961157D01*
X127915336Y-33961007D01*
X127918687Y-33958356D01*
X127920299Y-33956959D01*
X127921003Y-33956526D01*
X128044026Y-33833503D01*
X128135362Y-33685425D01*
X128190087Y-33520275D01*
X128200500Y-33418348D01*
X128200500Y-32831652D01*
X128190087Y-32729725D01*
X128135362Y-32564575D01*
X128135358Y-32564569D01*
X128135357Y-32564566D01*
X128044028Y-32416500D01*
X128044025Y-32416496D01*
X127921003Y-32293474D01*
X127920999Y-32293471D01*
X127772933Y-32202142D01*
X127772927Y-32202139D01*
X127772925Y-32202138D01*
X127772294Y-32201929D01*
X127607776Y-32147413D01*
X127505855Y-32137000D01*
X127505848Y-32137000D01*
X127284102Y-32137000D01*
X127258321Y-32134290D01*
X127094646Y-32099500D01*
X126905354Y-32099500D01*
X126741679Y-32134290D01*
X126715898Y-32137000D01*
X126494144Y-32137000D01*
X126392223Y-32147413D01*
X126227077Y-32202137D01*
X126227066Y-32202142D01*
X126079000Y-32293471D01*
X126078996Y-32293474D01*
X125955974Y-32416496D01*
X125955971Y-32416500D01*
X125864642Y-32564566D01*
X125864637Y-32564577D01*
X125809913Y-32729723D01*
X125799500Y-32831644D01*
X125799500Y-33418355D01*
X125809913Y-33520276D01*
X125864637Y-33685422D01*
X125864642Y-33685433D01*
X125955971Y-33833499D01*
X125955974Y-33833503D01*
X126078996Y-33956525D01*
X126079000Y-33956528D01*
X126079703Y-33956962D01*
X126080083Y-33957385D01*
X126084664Y-33961007D01*
X126084045Y-33961789D01*
X126126428Y-34008910D01*
X126137649Y-34077872D01*
X126109806Y-34141954D01*
X126084544Y-34163842D01*
X126084664Y-34163993D01*
X126081315Y-34166640D01*
X126079703Y-34168038D01*
X126079000Y-34168471D01*
X126078996Y-34168474D01*
X125955974Y-34291496D01*
X125955971Y-34291500D01*
X125864642Y-34439566D01*
X125864637Y-34439577D01*
X125809913Y-34604723D01*
X125799500Y-34706644D01*
X125799500Y-35293355D01*
X125809913Y-35395276D01*
X125864637Y-35560422D01*
X125864642Y-35560433D01*
X125955971Y-35708499D01*
X125955974Y-35708503D01*
X126068758Y-35821287D01*
X126102243Y-35882610D01*
X126097259Y-35952302D01*
X126068758Y-35996649D01*
X123845508Y-38219899D01*
X123784185Y-38253384D01*
X123714493Y-38248400D01*
X123710375Y-38246779D01*
X123655329Y-38223978D01*
X123400873Y-38162889D01*
X123140000Y-38142359D01*
X122879128Y-38162889D01*
X122879124Y-38162889D01*
X122879123Y-38162890D01*
X122751897Y-38193434D01*
X122624666Y-38223980D01*
X122382910Y-38324118D01*
X122382907Y-38324120D01*
X122159789Y-38460846D01*
X122159788Y-38460847D01*
X121960800Y-38630800D01*
X121790847Y-38829788D01*
X121790846Y-38829789D01*
X121654120Y-39052907D01*
X121654118Y-39052910D01*
X121553980Y-39294666D01*
X121492889Y-39549128D01*
X121472359Y-39810000D01*
X111965500Y-39810000D01*
X111965500Y-38893240D01*
X111985185Y-38826201D01*
X112037989Y-38780446D01*
X112042015Y-38778692D01*
X112097093Y-38755879D01*
X112320215Y-38619150D01*
X112519200Y-38449200D01*
X112689150Y-38250215D01*
X112825879Y-38027093D01*
X112926021Y-37785329D01*
X112987110Y-37530877D01*
X113007641Y-37270000D01*
X112987110Y-37009123D01*
X112926021Y-36754671D01*
X112901087Y-36694474D01*
X112825881Y-36512910D01*
X112825879Y-36512907D01*
X112689153Y-36289789D01*
X112689152Y-36289788D01*
X112689151Y-36289787D01*
X112689150Y-36289785D01*
X112519200Y-36090800D01*
X112320215Y-35920850D01*
X112320213Y-35920848D01*
X112320211Y-35920847D01*
X112320210Y-35920846D01*
X112097092Y-35784120D01*
X112097089Y-35784118D01*
X111855333Y-35683980D01*
X111855329Y-35683979D01*
X111600877Y-35622890D01*
X111600874Y-35622889D01*
X111600871Y-35622889D01*
X111340000Y-35602359D01*
X111079128Y-35622889D01*
X111079124Y-35622889D01*
X111079123Y-35622890D01*
X110951897Y-35653434D01*
X110824666Y-35683980D01*
X110582910Y-35784118D01*
X110582907Y-35784120D01*
X110359789Y-35920846D01*
X110359788Y-35920847D01*
X110160800Y-36090800D01*
X109990847Y-36289788D01*
X109990846Y-36289789D01*
X109854120Y-36512907D01*
X109854118Y-36512910D01*
X109753980Y-36754666D01*
X109692889Y-37009128D01*
X109672359Y-37270000D01*
X109692889Y-37530871D01*
X109753980Y-37785333D01*
X109854118Y-38027089D01*
X109854120Y-38027092D01*
X109990846Y-38250210D01*
X109990847Y-38250211D01*
X109990848Y-38250213D01*
X109990850Y-38250215D01*
X110160800Y-38449200D01*
X110359785Y-38619150D01*
X110359787Y-38619151D01*
X110359788Y-38619152D01*
X110359789Y-38619153D01*
X110582063Y-38755362D01*
X110582907Y-38755879D01*
X110637952Y-38778679D01*
X110692355Y-38822518D01*
X110714421Y-38888812D01*
X110714500Y-38893240D01*
X110714500Y-40722581D01*
X110694815Y-40789620D01*
X110642011Y-40835375D01*
X110572853Y-40845319D01*
X110509297Y-40816294D01*
X110497272Y-40804340D01*
X110426434Y-40723565D01*
X110200225Y-40525186D01*
X109950064Y-40358034D01*
X109950057Y-40358030D01*
X109680222Y-40224962D01*
X109680212Y-40224958D01*
X109395328Y-40128253D01*
X109395308Y-40128248D01*
X109100237Y-40069555D01*
X109100227Y-40069553D01*
X108875141Y-40054800D01*
X108724859Y-40054800D01*
X108499773Y-40069553D01*
X108499767Y-40069554D01*
X108499762Y-40069555D01*
X108204691Y-40128248D01*
X108204671Y-40128253D01*
X107919787Y-40224958D01*
X107919777Y-40224962D01*
X107649942Y-40358030D01*
X107649935Y-40358034D01*
X107399774Y-40525186D01*
X107173565Y-40723565D01*
X106975189Y-40949771D01*
X106808036Y-41199931D01*
X106808029Y-41199944D01*
X106674962Y-41469777D01*
X106674958Y-41469787D01*
X106578253Y-41754671D01*
X106578248Y-41754691D01*
X106519555Y-42049762D01*
X106519553Y-42049774D01*
X106499875Y-42350000D01*
X106519553Y-42650225D01*
X106519555Y-42650237D01*
X106578248Y-42945308D01*
X106578253Y-42945328D01*
X106674958Y-43230212D01*
X106674962Y-43230222D01*
X106808030Y-43500057D01*
X106808034Y-43500064D01*
X106975186Y-43750225D01*
X107173565Y-43976434D01*
X107399774Y-44174813D01*
X107649935Y-44341965D01*
X107649942Y-44341969D01*
X107919777Y-44475037D01*
X107919787Y-44475041D01*
X108204671Y-44571746D01*
X108204675Y-44571747D01*
X108204684Y-44571750D01*
X108499773Y-44630447D01*
X108724859Y-44645200D01*
X108724863Y-44645200D01*
X108875137Y-44645200D01*
X108875141Y-44645200D01*
X109100227Y-44630447D01*
X109395316Y-44571750D01*
X109395328Y-44571746D01*
X109680212Y-44475041D01*
X109680222Y-44475037D01*
X109950062Y-44341967D01*
X110200227Y-44174812D01*
X110426434Y-43976434D01*
X110497272Y-43895659D01*
X110556273Y-43858235D01*
X110626142Y-43858651D01*
X110684694Y-43896774D01*
X110713341Y-43960501D01*
X110714500Y-43977418D01*
X110714500Y-53796758D01*
X110694815Y-53863797D01*
X110642011Y-53909552D01*
X110637954Y-53911319D01*
X110582904Y-53934121D01*
X110359789Y-54070846D01*
X110359783Y-54070850D01*
X110351157Y-54078218D01*
X110287394Y-54106785D01*
X110218309Y-54096344D01*
X110165836Y-54050210D01*
X110146634Y-53983030D01*
X110152923Y-53944928D01*
X110190087Y-53832775D01*
X110200500Y-53730848D01*
X110200500Y-53144152D01*
X110190087Y-53042225D01*
X110135362Y-52877075D01*
X110135358Y-52877069D01*
X110135357Y-52877066D01*
X110044028Y-52729000D01*
X110044025Y-52728996D01*
X109921004Y-52605975D01*
X109921003Y-52605974D01*
X109920301Y-52605541D01*
X109919921Y-52605118D01*
X109915336Y-52601493D01*
X109915955Y-52600709D01*
X109873575Y-52553598D01*
X109862349Y-52484636D01*
X109890188Y-52420552D01*
X109915455Y-52398657D01*
X109915336Y-52398507D01*
X109918687Y-52395856D01*
X109920299Y-52394459D01*
X109921003Y-52394026D01*
X110044026Y-52271003D01*
X110135362Y-52122925D01*
X110190087Y-51957775D01*
X110200500Y-51855848D01*
X110200500Y-51269152D01*
X110190087Y-51167225D01*
X110135362Y-51002075D01*
X110135358Y-51002069D01*
X110135357Y-51002066D01*
X110044028Y-50854000D01*
X110044025Y-50853996D01*
X109921003Y-50730974D01*
X109920999Y-50730971D01*
X109772933Y-50639642D01*
X109772927Y-50639639D01*
X109772925Y-50639638D01*
X109772922Y-50639637D01*
X109607776Y-50584913D01*
X109505855Y-50574500D01*
X109505848Y-50574500D01*
X108494152Y-50574500D01*
X108494144Y-50574500D01*
X108392223Y-50584913D01*
X108227077Y-50639637D01*
X108227066Y-50639642D01*
X108079000Y-50730971D01*
X108078996Y-50730974D01*
X107955974Y-50853996D01*
X107955971Y-50854000D01*
X107864642Y-51002066D01*
X107864637Y-51002077D01*
X107809913Y-51167223D01*
X107799500Y-51269144D01*
X107799500Y-51855855D01*
X107809913Y-51957776D01*
X107864637Y-52122922D01*
X107864642Y-52122933D01*
X107955971Y-52270999D01*
X107955974Y-52271003D01*
X108078996Y-52394025D01*
X108079000Y-52394028D01*
X108079703Y-52394462D01*
X108080083Y-52394885D01*
X108084664Y-52398507D01*
X108084045Y-52399289D01*
X108126428Y-52446410D01*
X108137649Y-52515372D01*
X108109806Y-52579454D01*
X108084544Y-52601342D01*
X108084664Y-52601493D01*
X108081315Y-52604140D01*
X108079703Y-52605538D01*
X108079000Y-52605971D01*
X108078996Y-52605974D01*
X107955974Y-52728996D01*
X107955971Y-52729000D01*
X107864642Y-52877066D01*
X107864637Y-52877077D01*
X107809913Y-53042223D01*
X107799500Y-53144144D01*
X107799500Y-53730855D01*
X107809913Y-53832776D01*
X107864637Y-53997922D01*
X107864639Y-53997927D01*
X107890551Y-54039936D01*
X107908991Y-54107329D01*
X107888068Y-54173992D01*
X107872693Y-54192714D01*
X105695508Y-56369899D01*
X105634185Y-56403384D01*
X105564493Y-56398400D01*
X105560375Y-56396779D01*
X105505329Y-56373978D01*
X105250873Y-56312889D01*
X104990000Y-56292359D01*
X104729128Y-56312889D01*
X104729124Y-56312889D01*
X104729123Y-56312890D01*
X104601897Y-56343434D01*
X104474666Y-56373980D01*
X104232910Y-56474118D01*
X104232907Y-56474120D01*
X104009789Y-56610846D01*
X104009788Y-56610847D01*
X103810800Y-56780800D01*
X103640847Y-56979788D01*
X103640846Y-56979789D01*
X103504120Y-57202907D01*
X103504118Y-57202910D01*
X103403980Y-57444666D01*
X103397513Y-57471603D01*
X103357305Y-57639083D01*
X103342889Y-57699128D01*
X103322359Y-57960000D01*
X103342889Y-58220871D01*
X103403980Y-58475333D01*
X103504118Y-58717089D01*
X103504120Y-58717092D01*
X103640846Y-58940210D01*
X103640847Y-58940211D01*
X103640848Y-58940213D01*
X103640850Y-58940215D01*
X103810800Y-59139200D01*
X104009785Y-59309150D01*
X104009787Y-59309151D01*
X104009788Y-59309152D01*
X104009789Y-59309153D01*
X104232907Y-59445879D01*
X104232910Y-59445881D01*
X104474666Y-59546019D01*
X104474671Y-59546021D01*
X104729123Y-59607110D01*
X104990000Y-59627641D01*
X105250877Y-59607110D01*
X105505329Y-59546021D01*
X105626211Y-59495950D01*
X105747089Y-59445881D01*
X105747090Y-59445880D01*
X105747093Y-59445879D01*
X105970215Y-59309150D01*
X106169200Y-59139200D01*
X106339150Y-58940215D01*
X106475879Y-58717093D01*
X106493238Y-58675186D01*
X106562474Y-58508034D01*
X106576021Y-58475329D01*
X106637110Y-58220877D01*
X106657641Y-57960000D01*
X106637110Y-57699123D01*
X106576021Y-57444671D01*
X106553218Y-57389621D01*
X106545750Y-57320155D01*
X106577025Y-57257676D01*
X106580071Y-57254518D01*
X109372771Y-54461819D01*
X109434094Y-54428334D01*
X109460452Y-54425500D01*
X109505843Y-54425500D01*
X109505848Y-54425500D01*
X109607775Y-54415087D01*
X109772925Y-54360362D01*
X109772926Y-54360360D01*
X109779780Y-54358090D01*
X109780183Y-54359308D01*
X109841844Y-54349939D01*
X109905630Y-54378455D01*
X109943872Y-54436930D01*
X109944430Y-54506797D01*
X109930906Y-54537603D01*
X109854118Y-54662910D01*
X109753980Y-54904666D01*
X109738266Y-54970120D01*
X109699844Y-55130160D01*
X109692889Y-55159128D01*
X109672359Y-55420000D01*
X109692889Y-55680871D01*
X109753980Y-55935333D01*
X109854118Y-56177089D01*
X109854120Y-56177092D01*
X109990846Y-56400210D01*
X109990847Y-56400211D01*
X109990848Y-56400213D01*
X109990850Y-56400215D01*
X110160800Y-56599200D01*
X110359785Y-56769150D01*
X110359787Y-56769151D01*
X110359788Y-56769152D01*
X110359789Y-56769153D01*
X110482709Y-56844478D01*
X110582907Y-56905879D01*
X110637952Y-56928679D01*
X110692355Y-56972518D01*
X110714421Y-57038812D01*
X110714500Y-57043240D01*
X110714500Y-58872581D01*
X110694815Y-58939620D01*
X110642011Y-58985375D01*
X110572853Y-58995319D01*
X110509297Y-58966294D01*
X110497272Y-58954340D01*
X110426434Y-58873565D01*
X110200225Y-58675186D01*
X109950064Y-58508034D01*
X109950057Y-58508030D01*
X109680222Y-58374962D01*
X109680212Y-58374958D01*
X109395328Y-58278253D01*
X109395308Y-58278248D01*
X109100237Y-58219555D01*
X109100227Y-58219553D01*
X108875141Y-58204800D01*
X108724859Y-58204800D01*
X108499773Y-58219553D01*
X108499767Y-58219554D01*
X108499762Y-58219555D01*
X108204691Y-58278248D01*
X108204671Y-58278253D01*
X107919787Y-58374958D01*
X107919777Y-58374962D01*
X107649942Y-58508030D01*
X107649935Y-58508034D01*
X107399774Y-58675186D01*
X107173565Y-58873565D01*
X106975189Y-59099771D01*
X106808036Y-59349931D01*
X106808029Y-59349944D01*
X106674962Y-59619777D01*
X106674958Y-59619787D01*
X106578253Y-59904671D01*
X106578248Y-59904691D01*
X106519555Y-60199762D01*
X106519553Y-60199774D01*
X106499875Y-60500000D01*
X106519553Y-60800225D01*
X106519555Y-60800237D01*
X106578248Y-61095308D01*
X106578253Y-61095328D01*
X106674958Y-61380212D01*
X106674962Y-61380222D01*
X106808030Y-61650057D01*
X106808034Y-61650064D01*
X106975186Y-61900225D01*
X107173565Y-62126434D01*
X107399774Y-62324813D01*
X107649935Y-62491965D01*
X107649942Y-62491969D01*
X107919777Y-62625037D01*
X107919787Y-62625041D01*
X108204671Y-62721746D01*
X108204675Y-62721747D01*
X108204684Y-62721750D01*
X108499773Y-62780447D01*
X108724859Y-62795200D01*
X108724863Y-62795200D01*
X108875137Y-62795200D01*
X108875141Y-62795200D01*
X109100227Y-62780447D01*
X109395316Y-62721750D01*
X109403176Y-62719082D01*
X109680212Y-62625041D01*
X109680222Y-62625037D01*
X109727549Y-62601698D01*
X109950062Y-62491967D01*
X110200227Y-62324812D01*
X110426434Y-62126434D01*
X110497272Y-62045659D01*
X110556273Y-62008235D01*
X110626142Y-62008651D01*
X110684694Y-62046774D01*
X110713341Y-62110501D01*
X110714500Y-62127418D01*
X110714500Y-71946758D01*
X110694815Y-72013797D01*
X110642011Y-72059552D01*
X110637954Y-72061319D01*
X110582904Y-72084121D01*
X110359789Y-72220846D01*
X110359788Y-72220847D01*
X110160800Y-72390800D01*
X109990847Y-72589788D01*
X109990846Y-72589789D01*
X109854120Y-72812907D01*
X109854118Y-72812910D01*
X109753980Y-73054666D01*
X109692889Y-73309128D01*
X109672359Y-73570000D01*
X109692889Y-73830871D01*
X109753980Y-74085333D01*
X109854118Y-74327089D01*
X109854120Y-74327092D01*
X109990846Y-74550210D01*
X109990847Y-74550211D01*
X109990848Y-74550213D01*
X109990850Y-74550215D01*
X110160800Y-74749200D01*
X110359785Y-74919150D01*
X110359787Y-74919151D01*
X110359788Y-74919152D01*
X110359789Y-74919153D01*
X110582905Y-75055878D01*
X110582907Y-75055879D01*
X110637952Y-75078679D01*
X110692355Y-75122518D01*
X110714421Y-75188812D01*
X110714500Y-75193240D01*
X110714500Y-77022581D01*
X110694815Y-77089620D01*
X110642011Y-77135375D01*
X110572853Y-77145319D01*
X110509297Y-77116294D01*
X110497272Y-77104340D01*
X110426434Y-77023565D01*
X110200225Y-76825186D01*
X109950064Y-76658034D01*
X109950057Y-76658030D01*
X109680222Y-76524962D01*
X109680212Y-76524958D01*
X109395328Y-76428253D01*
X109395308Y-76428248D01*
X109100237Y-76369555D01*
X109100227Y-76369553D01*
X108875141Y-76354800D01*
X108724859Y-76354800D01*
X108499773Y-76369553D01*
X108499767Y-76369554D01*
X108499762Y-76369555D01*
X108204691Y-76428248D01*
X108204671Y-76428253D01*
X107919787Y-76524958D01*
X107919777Y-76524962D01*
X107649942Y-76658030D01*
X107649935Y-76658034D01*
X107399774Y-76825186D01*
X107173565Y-77023565D01*
X106975189Y-77249771D01*
X106808036Y-77499931D01*
X106808029Y-77499944D01*
X106674962Y-77769777D01*
X106674958Y-77769787D01*
X106578253Y-78054671D01*
X106578248Y-78054691D01*
X106519555Y-78349762D01*
X106519553Y-78349774D01*
X106499875Y-78650000D01*
X106519553Y-78950225D01*
X106519555Y-78950237D01*
X106578248Y-79245308D01*
X106578253Y-79245328D01*
X106674958Y-79530212D01*
X106674962Y-79530222D01*
X106808030Y-79800057D01*
X106808034Y-79800064D01*
X106975186Y-80050225D01*
X107173565Y-80276434D01*
X107399774Y-80474813D01*
X107649935Y-80641965D01*
X107649942Y-80641969D01*
X107919777Y-80775037D01*
X107919787Y-80775041D01*
X108204671Y-80871746D01*
X108204675Y-80871747D01*
X108204684Y-80871750D01*
X108499773Y-80930447D01*
X108724859Y-80945200D01*
X108724863Y-80945200D01*
X108742819Y-80945200D01*
X108809858Y-80964885D01*
X108855613Y-81017689D01*
X108865557Y-81086847D01*
X108836532Y-81150403D01*
X108830500Y-81156881D01*
X107699200Y-82288181D01*
X107637877Y-82321666D01*
X107611519Y-82324500D01*
X91581425Y-82324500D01*
X91514386Y-82304815D01*
X91468631Y-82252011D01*
X91458687Y-82182853D01*
X91487712Y-82119297D01*
X91493744Y-82112819D01*
X91982421Y-81624142D01*
X93573786Y-80032775D01*
X93586048Y-80022953D01*
X93585865Y-80022732D01*
X93591867Y-80017765D01*
X93591877Y-80017759D01*
X93639241Y-79967321D01*
X93660120Y-79946443D01*
X93664373Y-79940959D01*
X93668150Y-79936536D01*
X93700062Y-79902555D01*
X93709714Y-79884996D01*
X93720389Y-79868745D01*
X93732674Y-79852909D01*
X93751186Y-79810125D01*
X93753742Y-79804908D01*
X93776197Y-79764065D01*
X93781180Y-79744653D01*
X93787477Y-79726264D01*
X93795438Y-79707868D01*
X93802729Y-79661826D01*
X93803909Y-79656131D01*
X93815500Y-79610992D01*
X93815500Y-79590956D01*
X93817027Y-79571555D01*
X93820160Y-79551777D01*
X93815775Y-79505388D01*
X93815500Y-79499550D01*
X93815500Y-76110000D01*
X103322359Y-76110000D01*
X103342889Y-76370871D01*
X103403980Y-76625333D01*
X103504118Y-76867089D01*
X103504120Y-76867092D01*
X103640846Y-77090210D01*
X103640847Y-77090211D01*
X103640848Y-77090213D01*
X103640850Y-77090215D01*
X103810800Y-77289200D01*
X104009785Y-77459150D01*
X104009787Y-77459151D01*
X104009788Y-77459152D01*
X104009789Y-77459153D01*
X104232907Y-77595879D01*
X104232910Y-77595881D01*
X104474666Y-77696019D01*
X104474671Y-77696021D01*
X104729123Y-77757110D01*
X104990000Y-77777641D01*
X105250877Y-77757110D01*
X105505329Y-77696021D01*
X105626211Y-77645950D01*
X105747089Y-77595881D01*
X105747090Y-77595880D01*
X105747093Y-77595879D01*
X105970215Y-77459150D01*
X106169200Y-77289200D01*
X106339150Y-77090215D01*
X106475879Y-76867093D01*
X106493238Y-76825186D01*
X106562474Y-76658034D01*
X106576021Y-76625329D01*
X106637110Y-76370877D01*
X106657641Y-76110000D01*
X106637110Y-75849123D01*
X106576021Y-75594671D01*
X106576019Y-75594666D01*
X106475881Y-75352910D01*
X106475879Y-75352907D01*
X106339153Y-75129789D01*
X106339152Y-75129788D01*
X106339151Y-75129787D01*
X106339150Y-75129785D01*
X106169200Y-74930800D01*
X105970215Y-74760850D01*
X105970213Y-74760848D01*
X105970211Y-74760847D01*
X105970210Y-74760846D01*
X105747092Y-74624120D01*
X105747089Y-74624118D01*
X105505333Y-74523980D01*
X105505329Y-74523979D01*
X105250877Y-74462890D01*
X105250874Y-74462889D01*
X105250871Y-74462889D01*
X104990000Y-74442359D01*
X104729128Y-74462889D01*
X104729124Y-74462889D01*
X104729123Y-74462890D01*
X104601897Y-74493434D01*
X104474666Y-74523980D01*
X104232910Y-74624118D01*
X104232907Y-74624120D01*
X104009789Y-74760846D01*
X104009788Y-74760847D01*
X103810800Y-74930800D01*
X103640847Y-75129788D01*
X103640846Y-75129789D01*
X103504120Y-75352907D01*
X103504118Y-75352910D01*
X103403980Y-75594666D01*
X103342889Y-75849128D01*
X103322359Y-76110000D01*
X93815500Y-76110000D01*
X93815500Y-75193240D01*
X93835185Y-75126201D01*
X93887989Y-75080446D01*
X93892015Y-75078692D01*
X93947093Y-75055879D01*
X94170215Y-74919150D01*
X94369200Y-74749200D01*
X94539150Y-74550215D01*
X94675879Y-74327093D01*
X94776021Y-74085329D01*
X94837110Y-73830877D01*
X94857641Y-73570000D01*
X94837110Y-73309123D01*
X94776021Y-73054671D01*
X94776019Y-73054666D01*
X94675881Y-72812910D01*
X94675879Y-72812907D01*
X94539153Y-72589789D01*
X94539152Y-72589788D01*
X94539151Y-72589787D01*
X94539150Y-72589785D01*
X94369200Y-72390800D01*
X94170215Y-72220850D01*
X94170213Y-72220848D01*
X94170211Y-72220847D01*
X94170210Y-72220846D01*
X93947095Y-72084121D01*
X93892046Y-72061319D01*
X93837643Y-72017477D01*
X93815579Y-71951182D01*
X93815500Y-71946758D01*
X93815500Y-71730855D01*
X107799500Y-71730855D01*
X107809913Y-71832776D01*
X107864637Y-71997922D01*
X107864642Y-71997933D01*
X107955971Y-72145999D01*
X107955974Y-72146003D01*
X108078996Y-72269025D01*
X108079000Y-72269028D01*
X108227066Y-72360357D01*
X108227069Y-72360358D01*
X108227075Y-72360362D01*
X108392225Y-72415087D01*
X108494152Y-72425500D01*
X108494157Y-72425500D01*
X109505843Y-72425500D01*
X109505848Y-72425500D01*
X109607775Y-72415087D01*
X109772925Y-72360362D01*
X109921003Y-72269026D01*
X110044026Y-72146003D01*
X110135362Y-71997925D01*
X110190087Y-71832775D01*
X110200500Y-71730848D01*
X110200500Y-71144152D01*
X110190087Y-71042225D01*
X110135362Y-70877075D01*
X110135358Y-70877069D01*
X110135357Y-70877066D01*
X110044028Y-70729000D01*
X110044025Y-70728996D01*
X109921004Y-70605975D01*
X109921003Y-70605974D01*
X109920301Y-70605541D01*
X109919921Y-70605118D01*
X109915336Y-70601493D01*
X109915955Y-70600709D01*
X109873575Y-70553598D01*
X109862349Y-70484636D01*
X109890188Y-70420552D01*
X109915455Y-70398657D01*
X109915336Y-70398507D01*
X109918687Y-70395856D01*
X109920299Y-70394459D01*
X109921003Y-70394026D01*
X110044026Y-70271003D01*
X110135362Y-70122925D01*
X110190087Y-69957775D01*
X110200500Y-69855848D01*
X110200500Y-69269152D01*
X110190087Y-69167225D01*
X110135362Y-69002075D01*
X110135358Y-69002069D01*
X110135357Y-69002066D01*
X110044028Y-68854000D01*
X110044025Y-68853996D01*
X109921003Y-68730974D01*
X109920999Y-68730971D01*
X109772933Y-68639642D01*
X109772927Y-68639639D01*
X109772925Y-68639638D01*
X109772922Y-68639637D01*
X109607776Y-68584913D01*
X109505855Y-68574500D01*
X109505848Y-68574500D01*
X108494152Y-68574500D01*
X108494144Y-68574500D01*
X108392223Y-68584913D01*
X108227077Y-68639637D01*
X108227066Y-68639642D01*
X108079000Y-68730971D01*
X108078996Y-68730974D01*
X107955974Y-68853996D01*
X107955971Y-68854000D01*
X107864642Y-69002066D01*
X107864637Y-69002077D01*
X107809913Y-69167223D01*
X107799500Y-69269144D01*
X107799500Y-69855855D01*
X107809913Y-69957776D01*
X107864637Y-70122922D01*
X107864642Y-70122933D01*
X107955971Y-70270999D01*
X107955974Y-70271003D01*
X108078996Y-70394025D01*
X108079000Y-70394028D01*
X108079703Y-70394462D01*
X108080083Y-70394885D01*
X108084664Y-70398507D01*
X108084045Y-70399289D01*
X108126428Y-70446410D01*
X108137649Y-70515372D01*
X108109806Y-70579454D01*
X108084544Y-70601342D01*
X108084664Y-70601493D01*
X108081315Y-70604140D01*
X108079703Y-70605538D01*
X108079000Y-70605971D01*
X108078996Y-70605974D01*
X107955974Y-70728996D01*
X107955971Y-70729000D01*
X107864642Y-70877066D01*
X107864637Y-70877077D01*
X107809913Y-71042223D01*
X107799500Y-71144144D01*
X107799500Y-71730855D01*
X93815500Y-71730855D01*
X93815500Y-57043240D01*
X93835185Y-56976201D01*
X93887989Y-56930446D01*
X93892015Y-56928692D01*
X93947093Y-56905879D01*
X94170215Y-56769150D01*
X94369200Y-56599200D01*
X94539150Y-56400215D01*
X94675879Y-56177093D01*
X94776021Y-55935329D01*
X94837110Y-55680877D01*
X94857641Y-55420000D01*
X94837110Y-55159123D01*
X94776021Y-54904671D01*
X94751087Y-54844474D01*
X94675881Y-54662910D01*
X94675879Y-54662907D01*
X94539153Y-54439789D01*
X94539152Y-54439788D01*
X94539151Y-54439787D01*
X94539150Y-54439785D01*
X94369200Y-54240800D01*
X94170215Y-54070850D01*
X94170213Y-54070848D01*
X94170211Y-54070847D01*
X94170210Y-54070846D01*
X93947095Y-53934121D01*
X93892046Y-53911319D01*
X93837643Y-53867477D01*
X93815579Y-53801182D01*
X93815500Y-53796758D01*
X93815500Y-39810000D01*
X103322359Y-39810000D01*
X103342889Y-40070871D01*
X103403980Y-40325333D01*
X103504118Y-40567089D01*
X103504120Y-40567092D01*
X103640846Y-40790210D01*
X103640847Y-40790211D01*
X103640848Y-40790213D01*
X103640850Y-40790215D01*
X103810800Y-40989200D01*
X104009785Y-41159150D01*
X104009787Y-41159151D01*
X104009788Y-41159152D01*
X104009789Y-41159153D01*
X104232907Y-41295879D01*
X104232910Y-41295881D01*
X104429397Y-41377268D01*
X104474671Y-41396021D01*
X104729123Y-41457110D01*
X104990000Y-41477641D01*
X105250877Y-41457110D01*
X105505329Y-41396021D01*
X105664708Y-41330004D01*
X105747089Y-41295881D01*
X105747090Y-41295880D01*
X105747093Y-41295879D01*
X105970215Y-41159150D01*
X106169200Y-40989200D01*
X106339150Y-40790215D01*
X106475879Y-40567093D01*
X106482302Y-40551588D01*
X106562474Y-40358034D01*
X106576021Y-40325329D01*
X106637110Y-40070877D01*
X106657641Y-39810000D01*
X106637110Y-39549123D01*
X106576021Y-39294671D01*
X106553218Y-39239621D01*
X106545750Y-39170155D01*
X106577025Y-39107676D01*
X106580071Y-39104518D01*
X109383788Y-36300801D01*
X109396042Y-36290986D01*
X109395859Y-36290764D01*
X109401866Y-36285792D01*
X109401877Y-36285786D01*
X109432775Y-36252882D01*
X109449227Y-36235364D01*
X109459671Y-36224918D01*
X109470120Y-36214471D01*
X109474379Y-36208978D01*
X109478152Y-36204561D01*
X109510062Y-36170582D01*
X109519713Y-36153024D01*
X109530396Y-36136761D01*
X109542673Y-36120936D01*
X109561185Y-36078153D01*
X109563738Y-36072941D01*
X109586197Y-36032092D01*
X109586200Y-36032079D01*
X109586454Y-36031441D01*
X109586795Y-36031003D01*
X109589957Y-36025253D01*
X109590883Y-36025762D01*
X109629429Y-35976351D01*
X109662743Y-35959372D01*
X109772925Y-35922862D01*
X109921003Y-35831526D01*
X110044026Y-35708503D01*
X110135362Y-35560425D01*
X110190087Y-35395275D01*
X110200500Y-35293348D01*
X110200500Y-34706652D01*
X110190087Y-34604725D01*
X110135362Y-34439575D01*
X110135358Y-34439569D01*
X110135357Y-34439566D01*
X110044028Y-34291500D01*
X110044025Y-34291496D01*
X109921004Y-34168475D01*
X109921003Y-34168474D01*
X109920301Y-34168041D01*
X109919921Y-34167618D01*
X109915336Y-34163993D01*
X109915955Y-34163209D01*
X109873575Y-34116098D01*
X109862349Y-34047136D01*
X109890188Y-33983052D01*
X109915455Y-33961157D01*
X109915336Y-33961007D01*
X109918687Y-33958356D01*
X109920299Y-33956959D01*
X109921003Y-33956526D01*
X110044026Y-33833503D01*
X110135362Y-33685425D01*
X110190087Y-33520275D01*
X110200500Y-33418348D01*
X110200500Y-32831652D01*
X110190087Y-32729725D01*
X110135362Y-32564575D01*
X110135358Y-32564569D01*
X110135357Y-32564566D01*
X110044028Y-32416500D01*
X110044025Y-32416496D01*
X109921003Y-32293474D01*
X109920999Y-32293471D01*
X109772933Y-32202142D01*
X109772927Y-32202139D01*
X109772925Y-32202138D01*
X109772294Y-32201929D01*
X109607776Y-32147413D01*
X109505855Y-32137000D01*
X109505848Y-32137000D01*
X109284102Y-32137000D01*
X109258321Y-32134290D01*
X109094646Y-32099500D01*
X108905354Y-32099500D01*
X108741679Y-32134290D01*
X108715898Y-32137000D01*
X108494144Y-32137000D01*
X108392223Y-32147413D01*
X108227077Y-32202137D01*
X108227066Y-32202142D01*
X108079000Y-32293471D01*
X108078996Y-32293474D01*
X107955974Y-32416496D01*
X107955971Y-32416500D01*
X107864642Y-32564566D01*
X107864637Y-32564577D01*
X107809913Y-32729723D01*
X107799500Y-32831644D01*
X107799500Y-33418355D01*
X107809913Y-33520276D01*
X107864637Y-33685422D01*
X107864642Y-33685433D01*
X107955971Y-33833499D01*
X107955974Y-33833503D01*
X108078996Y-33956525D01*
X108079000Y-33956528D01*
X108079703Y-33956962D01*
X108080083Y-33957385D01*
X108084664Y-33961007D01*
X108084045Y-33961789D01*
X108126428Y-34008910D01*
X108137649Y-34077872D01*
X108109806Y-34141954D01*
X108084544Y-34163842D01*
X108084664Y-34163993D01*
X108081315Y-34166640D01*
X108079703Y-34168038D01*
X108079000Y-34168471D01*
X108078996Y-34168474D01*
X107955974Y-34291496D01*
X107955971Y-34291500D01*
X107864642Y-34439566D01*
X107864637Y-34439577D01*
X107809913Y-34604723D01*
X107799500Y-34706644D01*
X107799500Y-35293355D01*
X107809913Y-35395276D01*
X107864637Y-35560422D01*
X107864642Y-35560433D01*
X107955971Y-35708499D01*
X107955974Y-35708503D01*
X107993758Y-35746287D01*
X108027243Y-35807610D01*
X108022259Y-35877302D01*
X107993758Y-35921649D01*
X105695508Y-38219899D01*
X105634185Y-38253384D01*
X105564493Y-38248400D01*
X105560375Y-38246779D01*
X105505329Y-38223978D01*
X105250873Y-38162889D01*
X104990000Y-38142359D01*
X104729128Y-38162889D01*
X104729124Y-38162889D01*
X104729123Y-38162890D01*
X104601897Y-38193434D01*
X104474666Y-38223980D01*
X104232910Y-38324118D01*
X104232907Y-38324120D01*
X104009789Y-38460846D01*
X104009788Y-38460847D01*
X103810800Y-38630800D01*
X103640847Y-38829788D01*
X103640846Y-38829789D01*
X103504120Y-39052907D01*
X103504118Y-39052910D01*
X103403980Y-39294666D01*
X103342889Y-39549128D01*
X103322359Y-39810000D01*
X93815500Y-39810000D01*
X93815500Y-38893240D01*
X93835185Y-38826201D01*
X93887989Y-38780446D01*
X93892015Y-38778692D01*
X93947093Y-38755879D01*
X94170215Y-38619150D01*
X94369200Y-38449200D01*
X94539150Y-38250215D01*
X94675879Y-38027093D01*
X94776021Y-37785329D01*
X94837110Y-37530877D01*
X94857641Y-37270000D01*
X94837110Y-37009123D01*
X94776021Y-36754671D01*
X94751087Y-36694474D01*
X94675881Y-36512910D01*
X94675879Y-36512907D01*
X94539153Y-36289789D01*
X94539152Y-36289788D01*
X94539151Y-36289787D01*
X94539150Y-36289785D01*
X94369200Y-36090800D01*
X94170215Y-35920850D01*
X94170213Y-35920848D01*
X94170211Y-35920847D01*
X94170210Y-35920846D01*
X93947092Y-35784120D01*
X93947089Y-35784118D01*
X93705333Y-35683980D01*
X93705329Y-35683979D01*
X93450877Y-35622890D01*
X93450874Y-35622889D01*
X93450871Y-35622889D01*
X93190000Y-35602359D01*
X92929128Y-35622889D01*
X92929124Y-35622889D01*
X92929123Y-35622890D01*
X92801897Y-35653434D01*
X92674666Y-35683980D01*
X92432910Y-35784118D01*
X92432907Y-35784120D01*
X92209789Y-35920846D01*
X92209788Y-35920847D01*
X92010800Y-36090800D01*
X91840847Y-36289788D01*
X91840846Y-36289789D01*
X91704120Y-36512907D01*
X91704118Y-36512910D01*
X91603980Y-36754666D01*
X91542889Y-37009128D01*
X91522359Y-37270000D01*
X91542889Y-37530871D01*
X91603980Y-37785333D01*
X91704118Y-38027089D01*
X91704120Y-38027092D01*
X91840846Y-38250210D01*
X91840847Y-38250211D01*
X91840848Y-38250213D01*
X91840850Y-38250215D01*
X92010800Y-38449200D01*
X92209785Y-38619150D01*
X92209787Y-38619151D01*
X92209788Y-38619152D01*
X92209789Y-38619153D01*
X92432063Y-38755362D01*
X92432907Y-38755879D01*
X92487952Y-38778679D01*
X92542355Y-38822518D01*
X92564421Y-38888812D01*
X92564500Y-38893240D01*
X92564500Y-40722581D01*
X92544815Y-40789620D01*
X92492011Y-40835375D01*
X92422853Y-40845319D01*
X92359297Y-40816294D01*
X92347272Y-40804340D01*
X92276434Y-40723565D01*
X92050225Y-40525186D01*
X91800064Y-40358034D01*
X91800057Y-40358030D01*
X91530222Y-40224962D01*
X91530212Y-40224958D01*
X91245328Y-40128253D01*
X91245308Y-40128248D01*
X90950237Y-40069555D01*
X90950227Y-40069553D01*
X90725141Y-40054800D01*
X90574859Y-40054800D01*
X90349773Y-40069553D01*
X90349767Y-40069554D01*
X90349762Y-40069555D01*
X90054691Y-40128248D01*
X90054671Y-40128253D01*
X89769787Y-40224958D01*
X89769777Y-40224962D01*
X89499942Y-40358030D01*
X89499935Y-40358034D01*
X89249774Y-40525186D01*
X89023565Y-40723565D01*
X88825189Y-40949771D01*
X88658036Y-41199931D01*
X88658029Y-41199944D01*
X88524962Y-41469777D01*
X88524958Y-41469787D01*
X88428253Y-41754671D01*
X88428248Y-41754691D01*
X88369555Y-42049762D01*
X88369553Y-42049774D01*
X88349875Y-42350000D01*
X88369553Y-42650225D01*
X88369555Y-42650237D01*
X88428248Y-42945308D01*
X88428253Y-42945328D01*
X88524958Y-43230212D01*
X88524962Y-43230222D01*
X88658030Y-43500057D01*
X88658034Y-43500064D01*
X88825186Y-43750225D01*
X89023565Y-43976434D01*
X89249774Y-44174813D01*
X89499935Y-44341965D01*
X89499942Y-44341969D01*
X89769777Y-44475037D01*
X89769787Y-44475041D01*
X90054671Y-44571746D01*
X90054675Y-44571747D01*
X90054684Y-44571750D01*
X90349773Y-44630447D01*
X90574859Y-44645200D01*
X90574863Y-44645200D01*
X90725137Y-44645200D01*
X90725141Y-44645200D01*
X90950227Y-44630447D01*
X91245316Y-44571750D01*
X91245328Y-44571746D01*
X91530212Y-44475041D01*
X91530222Y-44475037D01*
X91800062Y-44341967D01*
X92050227Y-44174812D01*
X92276434Y-43976434D01*
X92347272Y-43895659D01*
X92406273Y-43858235D01*
X92476142Y-43858651D01*
X92534694Y-43896774D01*
X92563341Y-43960501D01*
X92564500Y-43977418D01*
X92564500Y-53796758D01*
X92544815Y-53863797D01*
X92492011Y-53909552D01*
X92487954Y-53911319D01*
X92432904Y-53934121D01*
X92209789Y-54070846D01*
X92209788Y-54070847D01*
X92010800Y-54240800D01*
X91840847Y-54439788D01*
X91840846Y-54439789D01*
X91704120Y-54662907D01*
X91704118Y-54662910D01*
X91603980Y-54904666D01*
X91588266Y-54970120D01*
X91549844Y-55130160D01*
X91542889Y-55159128D01*
X91522359Y-55420000D01*
X91542889Y-55680871D01*
X91603980Y-55935333D01*
X91704118Y-56177089D01*
X91704120Y-56177092D01*
X91840846Y-56400210D01*
X91840847Y-56400211D01*
X91840848Y-56400213D01*
X91840850Y-56400215D01*
X92010800Y-56599200D01*
X92209785Y-56769150D01*
X92209787Y-56769151D01*
X92209788Y-56769152D01*
X92209789Y-56769153D01*
X92332709Y-56844478D01*
X92432907Y-56905879D01*
X92487952Y-56928679D01*
X92542355Y-56972518D01*
X92564421Y-57038812D01*
X92564500Y-57043240D01*
X92564500Y-58872581D01*
X92544815Y-58939620D01*
X92492011Y-58985375D01*
X92422853Y-58995319D01*
X92359297Y-58966294D01*
X92347272Y-58954340D01*
X92276434Y-58873565D01*
X92050225Y-58675186D01*
X91800064Y-58508034D01*
X91800057Y-58508030D01*
X91530222Y-58374962D01*
X91530212Y-58374958D01*
X91245328Y-58278253D01*
X91245308Y-58278248D01*
X90950237Y-58219555D01*
X90950227Y-58219553D01*
X90725141Y-58204800D01*
X90574859Y-58204800D01*
X90349773Y-58219553D01*
X90349767Y-58219554D01*
X90349762Y-58219555D01*
X90054691Y-58278248D01*
X90054671Y-58278253D01*
X89769787Y-58374958D01*
X89769777Y-58374962D01*
X89499942Y-58508030D01*
X89499935Y-58508034D01*
X89249774Y-58675186D01*
X89023565Y-58873565D01*
X88825189Y-59099771D01*
X88658036Y-59349931D01*
X88658029Y-59349944D01*
X88524962Y-59619777D01*
X88524958Y-59619787D01*
X88428253Y-59904671D01*
X88428248Y-59904691D01*
X88369555Y-60199762D01*
X88369553Y-60199774D01*
X88349875Y-60500000D01*
X88369553Y-60800225D01*
X88369555Y-60800237D01*
X88428248Y-61095308D01*
X88428253Y-61095328D01*
X88524958Y-61380212D01*
X88524962Y-61380222D01*
X88658030Y-61650057D01*
X88658034Y-61650064D01*
X88825186Y-61900225D01*
X89023565Y-62126434D01*
X89249774Y-62324813D01*
X89499935Y-62491965D01*
X89499942Y-62491969D01*
X89769777Y-62625037D01*
X89769787Y-62625041D01*
X90054671Y-62721746D01*
X90054675Y-62721747D01*
X90054684Y-62721750D01*
X90349773Y-62780447D01*
X90574859Y-62795200D01*
X90574863Y-62795200D01*
X90725137Y-62795200D01*
X90725141Y-62795200D01*
X90950227Y-62780447D01*
X91245316Y-62721750D01*
X91253176Y-62719082D01*
X91530212Y-62625041D01*
X91530222Y-62625037D01*
X91577549Y-62601698D01*
X91800062Y-62491967D01*
X92050227Y-62324812D01*
X92276434Y-62126434D01*
X92347272Y-62045659D01*
X92406273Y-62008235D01*
X92476142Y-62008651D01*
X92534694Y-62046774D01*
X92563341Y-62110501D01*
X92564500Y-62127418D01*
X92564500Y-71946758D01*
X92544815Y-72013797D01*
X92492011Y-72059552D01*
X92487954Y-72061319D01*
X92432904Y-72084121D01*
X92209789Y-72220846D01*
X92209788Y-72220847D01*
X92010800Y-72390800D01*
X91840847Y-72589788D01*
X91840846Y-72589789D01*
X91704120Y-72812907D01*
X91704118Y-72812910D01*
X91603980Y-73054666D01*
X91542889Y-73309128D01*
X91522359Y-73570000D01*
X91542889Y-73830871D01*
X91603980Y-74085333D01*
X91704118Y-74327089D01*
X91704120Y-74327092D01*
X91840846Y-74550210D01*
X91840847Y-74550211D01*
X91840848Y-74550213D01*
X91840850Y-74550215D01*
X92010800Y-74749200D01*
X92209785Y-74919150D01*
X92209787Y-74919151D01*
X92209788Y-74919152D01*
X92209789Y-74919153D01*
X92432905Y-75055878D01*
X92432907Y-75055879D01*
X92487952Y-75078679D01*
X92542355Y-75122518D01*
X92564421Y-75188812D01*
X92564500Y-75193240D01*
X92564500Y-77022581D01*
X92544815Y-77089620D01*
X92492011Y-77135375D01*
X92422853Y-77145319D01*
X92359297Y-77116294D01*
X92347272Y-77104340D01*
X92276434Y-77023565D01*
X92050225Y-76825186D01*
X91800064Y-76658034D01*
X91800057Y-76658030D01*
X91530222Y-76524962D01*
X91530212Y-76524958D01*
X91245328Y-76428253D01*
X91245308Y-76428248D01*
X90950237Y-76369555D01*
X90950227Y-76369553D01*
X90725141Y-76354800D01*
X90574859Y-76354800D01*
X90349773Y-76369553D01*
X90349767Y-76369554D01*
X90349762Y-76369555D01*
X90054691Y-76428248D01*
X90054671Y-76428253D01*
X89769787Y-76524958D01*
X89769777Y-76524962D01*
X89499942Y-76658030D01*
X89499935Y-76658034D01*
X89249774Y-76825186D01*
X89023565Y-77023565D01*
X88825189Y-77249771D01*
X88658036Y-77499931D01*
X88658029Y-77499944D01*
X88524962Y-77769777D01*
X88524958Y-77769787D01*
X88428253Y-78054671D01*
X88428248Y-78054691D01*
X88369555Y-78349762D01*
X88369553Y-78349774D01*
X88349875Y-78650000D01*
X88369553Y-78950225D01*
X88369555Y-78950237D01*
X88428248Y-79245308D01*
X88428253Y-79245328D01*
X88524958Y-79530212D01*
X88524962Y-79530222D01*
X88658030Y-79800057D01*
X88658034Y-79800064D01*
X88825186Y-80050225D01*
X89023565Y-80276434D01*
X89249774Y-80474813D01*
X89499935Y-80641965D01*
X89499942Y-80641969D01*
X89769777Y-80775037D01*
X89769787Y-80775041D01*
X90054671Y-80871746D01*
X90054675Y-80871747D01*
X90054684Y-80871750D01*
X90349773Y-80930447D01*
X90574859Y-80945200D01*
X90574863Y-80945200D01*
X90592819Y-80945200D01*
X90659858Y-80964885D01*
X90705613Y-81017689D01*
X90715557Y-81086847D01*
X90686532Y-81150403D01*
X90680500Y-81156881D01*
X90099201Y-81738181D01*
X90037878Y-81771666D01*
X90011520Y-81774500D01*
X73981425Y-81774500D01*
X73914386Y-81754815D01*
X73868631Y-81702011D01*
X73858687Y-81632853D01*
X73887712Y-81569297D01*
X73893744Y-81562819D01*
X74273710Y-81182853D01*
X75423786Y-80032775D01*
X75436048Y-80022953D01*
X75435865Y-80022732D01*
X75441867Y-80017765D01*
X75441877Y-80017759D01*
X75489241Y-79967321D01*
X75510120Y-79946443D01*
X75514373Y-79940959D01*
X75518150Y-79936536D01*
X75550062Y-79902555D01*
X75559714Y-79884996D01*
X75570389Y-79868745D01*
X75582674Y-79852909D01*
X75601186Y-79810125D01*
X75603742Y-79804908D01*
X75626197Y-79764065D01*
X75631180Y-79744653D01*
X75637477Y-79726264D01*
X75645438Y-79707868D01*
X75652729Y-79661826D01*
X75653909Y-79656131D01*
X75665500Y-79610992D01*
X75665500Y-79590956D01*
X75667027Y-79571555D01*
X75670160Y-79551777D01*
X75665775Y-79505388D01*
X75665500Y-79499550D01*
X75665500Y-76110000D01*
X85172359Y-76110000D01*
X85192889Y-76370871D01*
X85253980Y-76625333D01*
X85354118Y-76867089D01*
X85354120Y-76867092D01*
X85490846Y-77090210D01*
X85490847Y-77090211D01*
X85490848Y-77090213D01*
X85490850Y-77090215D01*
X85660800Y-77289200D01*
X85859785Y-77459150D01*
X85859787Y-77459151D01*
X85859788Y-77459152D01*
X85859789Y-77459153D01*
X86082907Y-77595879D01*
X86082910Y-77595881D01*
X86324666Y-77696019D01*
X86324671Y-77696021D01*
X86579123Y-77757110D01*
X86840000Y-77777641D01*
X87100877Y-77757110D01*
X87355329Y-77696021D01*
X87476211Y-77645950D01*
X87597089Y-77595881D01*
X87597090Y-77595880D01*
X87597093Y-77595879D01*
X87820215Y-77459150D01*
X88019200Y-77289200D01*
X88189150Y-77090215D01*
X88325879Y-76867093D01*
X88343238Y-76825186D01*
X88412474Y-76658034D01*
X88426021Y-76625329D01*
X88487110Y-76370877D01*
X88507641Y-76110000D01*
X88487110Y-75849123D01*
X88426021Y-75594671D01*
X88426019Y-75594666D01*
X88325881Y-75352910D01*
X88325879Y-75352907D01*
X88189153Y-75129789D01*
X88189152Y-75129788D01*
X88189151Y-75129787D01*
X88189150Y-75129785D01*
X88019200Y-74930800D01*
X87820215Y-74760850D01*
X87820213Y-74760848D01*
X87820211Y-74760847D01*
X87820210Y-74760846D01*
X87597092Y-74624120D01*
X87597089Y-74624118D01*
X87355333Y-74523980D01*
X87355329Y-74523979D01*
X87100877Y-74462890D01*
X87100874Y-74462889D01*
X87100871Y-74462889D01*
X86840000Y-74442359D01*
X86579128Y-74462889D01*
X86579124Y-74462889D01*
X86579123Y-74462890D01*
X86451897Y-74493434D01*
X86324666Y-74523980D01*
X86082910Y-74624118D01*
X86082907Y-74624120D01*
X85859789Y-74760846D01*
X85859788Y-74760847D01*
X85660800Y-74930800D01*
X85490847Y-75129788D01*
X85490846Y-75129789D01*
X85354120Y-75352907D01*
X85354118Y-75352910D01*
X85253980Y-75594666D01*
X85192889Y-75849128D01*
X85172359Y-76110000D01*
X75665500Y-76110000D01*
X75665500Y-75193240D01*
X75685185Y-75126201D01*
X75737989Y-75080446D01*
X75742015Y-75078692D01*
X75797093Y-75055879D01*
X76020215Y-74919150D01*
X76219200Y-74749200D01*
X76389150Y-74550215D01*
X76525879Y-74327093D01*
X76626021Y-74085329D01*
X76687110Y-73830877D01*
X76707641Y-73570000D01*
X76687110Y-73309123D01*
X76626021Y-73054671D01*
X76626019Y-73054666D01*
X76525881Y-72812910D01*
X76525879Y-72812907D01*
X76389153Y-72589789D01*
X76389152Y-72589788D01*
X76389151Y-72589787D01*
X76389150Y-72589785D01*
X76219200Y-72390800D01*
X76020215Y-72220850D01*
X76020213Y-72220848D01*
X76020211Y-72220847D01*
X76020210Y-72220846D01*
X75797095Y-72084121D01*
X75742046Y-72061319D01*
X75687643Y-72017477D01*
X75665579Y-71951182D01*
X75665500Y-71946758D01*
X75665500Y-71730855D01*
X89299500Y-71730855D01*
X89309913Y-71832776D01*
X89364637Y-71997922D01*
X89364642Y-71997933D01*
X89455971Y-72145999D01*
X89455974Y-72146003D01*
X89578996Y-72269025D01*
X89579000Y-72269028D01*
X89727066Y-72360357D01*
X89727069Y-72360358D01*
X89727075Y-72360362D01*
X89892225Y-72415087D01*
X89994152Y-72425500D01*
X89994157Y-72425500D01*
X91005843Y-72425500D01*
X91005848Y-72425500D01*
X91107775Y-72415087D01*
X91272925Y-72360362D01*
X91421003Y-72269026D01*
X91544026Y-72146003D01*
X91635362Y-71997925D01*
X91690087Y-71832775D01*
X91700500Y-71730848D01*
X91700500Y-71144152D01*
X91690087Y-71042225D01*
X91635362Y-70877075D01*
X91635358Y-70877069D01*
X91635357Y-70877066D01*
X91544028Y-70729000D01*
X91544025Y-70728996D01*
X91421004Y-70605975D01*
X91421003Y-70605974D01*
X91420301Y-70605541D01*
X91419921Y-70605118D01*
X91415336Y-70601493D01*
X91415955Y-70600709D01*
X91373575Y-70553598D01*
X91362349Y-70484636D01*
X91390188Y-70420552D01*
X91415455Y-70398657D01*
X91415336Y-70398507D01*
X91418687Y-70395856D01*
X91420299Y-70394459D01*
X91421003Y-70394026D01*
X91544026Y-70271003D01*
X91635362Y-70122925D01*
X91690087Y-69957775D01*
X91700500Y-69855848D01*
X91700500Y-69269152D01*
X91690087Y-69167225D01*
X91635362Y-69002075D01*
X91635358Y-69002069D01*
X91635357Y-69002066D01*
X91544028Y-68854000D01*
X91544025Y-68853996D01*
X91421003Y-68730974D01*
X91420999Y-68730971D01*
X91272933Y-68639642D01*
X91272927Y-68639639D01*
X91272925Y-68639638D01*
X91272922Y-68639637D01*
X91107776Y-68584913D01*
X91005855Y-68574500D01*
X91005848Y-68574500D01*
X89994152Y-68574500D01*
X89994144Y-68574500D01*
X89892223Y-68584913D01*
X89727077Y-68639637D01*
X89727066Y-68639642D01*
X89579000Y-68730971D01*
X89578996Y-68730974D01*
X89455974Y-68853996D01*
X89455971Y-68854000D01*
X89364642Y-69002066D01*
X89364637Y-69002077D01*
X89309913Y-69167223D01*
X89299500Y-69269144D01*
X89299500Y-69855855D01*
X89309913Y-69957776D01*
X89364637Y-70122922D01*
X89364642Y-70122933D01*
X89455971Y-70270999D01*
X89455974Y-70271003D01*
X89578996Y-70394025D01*
X89579000Y-70394028D01*
X89579703Y-70394462D01*
X89580083Y-70394885D01*
X89584664Y-70398507D01*
X89584045Y-70399289D01*
X89626428Y-70446410D01*
X89637649Y-70515372D01*
X89609806Y-70579454D01*
X89584544Y-70601342D01*
X89584664Y-70601493D01*
X89581315Y-70604140D01*
X89579703Y-70605538D01*
X89579000Y-70605971D01*
X89578996Y-70605974D01*
X89455974Y-70728996D01*
X89455971Y-70729000D01*
X89364642Y-70877066D01*
X89364637Y-70877077D01*
X89309913Y-71042223D01*
X89299500Y-71144144D01*
X89299500Y-71730855D01*
X75665500Y-71730855D01*
X75665500Y-57960000D01*
X85172359Y-57960000D01*
X85192889Y-58220871D01*
X85253980Y-58475333D01*
X85354118Y-58717089D01*
X85354120Y-58717092D01*
X85490846Y-58940210D01*
X85490847Y-58940211D01*
X85490848Y-58940213D01*
X85490850Y-58940215D01*
X85660800Y-59139200D01*
X85859785Y-59309150D01*
X85859787Y-59309151D01*
X85859788Y-59309152D01*
X85859789Y-59309153D01*
X86082907Y-59445879D01*
X86082910Y-59445881D01*
X86324666Y-59546019D01*
X86324671Y-59546021D01*
X86579123Y-59607110D01*
X86840000Y-59627641D01*
X87100877Y-59607110D01*
X87355329Y-59546021D01*
X87476211Y-59495950D01*
X87597089Y-59445881D01*
X87597090Y-59445880D01*
X87597093Y-59445879D01*
X87820215Y-59309150D01*
X88019200Y-59139200D01*
X88189150Y-58940215D01*
X88325879Y-58717093D01*
X88343238Y-58675186D01*
X88412474Y-58508034D01*
X88426021Y-58475329D01*
X88487110Y-58220877D01*
X88507641Y-57960000D01*
X88487110Y-57699123D01*
X88426021Y-57444671D01*
X88403219Y-57389623D01*
X88395750Y-57320153D01*
X88427025Y-57257674D01*
X88430071Y-57254517D01*
X90883786Y-54800802D01*
X90896048Y-54790980D01*
X90895865Y-54790759D01*
X90901867Y-54785792D01*
X90901877Y-54785786D01*
X90949241Y-54735348D01*
X90970120Y-54714470D01*
X90974373Y-54708986D01*
X90978150Y-54704563D01*
X91010062Y-54670582D01*
X91019714Y-54653023D01*
X91030389Y-54636772D01*
X91042674Y-54620936D01*
X91061186Y-54578152D01*
X91063742Y-54572935D01*
X91086197Y-54532092D01*
X91091180Y-54512680D01*
X91097477Y-54494291D01*
X91105438Y-54475895D01*
X91105439Y-54475886D01*
X91106547Y-54472076D01*
X91108231Y-54469437D01*
X91108538Y-54468730D01*
X91108652Y-54468779D01*
X91144150Y-54413188D01*
X91186619Y-54388960D01*
X91272925Y-54360362D01*
X91421003Y-54269026D01*
X91544026Y-54146003D01*
X91635362Y-53997925D01*
X91690087Y-53832775D01*
X91700500Y-53730848D01*
X91700500Y-53144152D01*
X91690087Y-53042225D01*
X91635362Y-52877075D01*
X91635358Y-52877069D01*
X91635357Y-52877066D01*
X91544028Y-52729000D01*
X91544025Y-52728996D01*
X91421004Y-52605975D01*
X91421003Y-52605974D01*
X91420301Y-52605541D01*
X91419921Y-52605118D01*
X91415336Y-52601493D01*
X91415955Y-52600709D01*
X91373575Y-52553598D01*
X91362349Y-52484636D01*
X91390188Y-52420552D01*
X91415455Y-52398657D01*
X91415336Y-52398507D01*
X91418687Y-52395856D01*
X91420299Y-52394459D01*
X91421003Y-52394026D01*
X91544026Y-52271003D01*
X91635362Y-52122925D01*
X91690087Y-51957775D01*
X91700500Y-51855848D01*
X91700500Y-51269152D01*
X91690087Y-51167225D01*
X91635362Y-51002075D01*
X91635358Y-51002069D01*
X91635357Y-51002066D01*
X91544028Y-50854000D01*
X91544025Y-50853996D01*
X91421003Y-50730974D01*
X91420999Y-50730971D01*
X91272933Y-50639642D01*
X91272927Y-50639639D01*
X91272925Y-50639638D01*
X91272922Y-50639637D01*
X91107776Y-50584913D01*
X91005855Y-50574500D01*
X91005848Y-50574500D01*
X89994152Y-50574500D01*
X89994144Y-50574500D01*
X89892223Y-50584913D01*
X89727077Y-50639637D01*
X89727066Y-50639642D01*
X89579000Y-50730971D01*
X89578996Y-50730974D01*
X89455974Y-50853996D01*
X89455971Y-50854000D01*
X89364642Y-51002066D01*
X89364637Y-51002077D01*
X89309913Y-51167223D01*
X89299500Y-51269144D01*
X89299500Y-51855855D01*
X89309913Y-51957776D01*
X89364637Y-52122922D01*
X89364642Y-52122933D01*
X89455971Y-52270999D01*
X89455974Y-52271003D01*
X89578996Y-52394025D01*
X89579000Y-52394028D01*
X89579703Y-52394462D01*
X89580083Y-52394885D01*
X89584664Y-52398507D01*
X89584045Y-52399289D01*
X89626428Y-52446410D01*
X89637649Y-52515372D01*
X89609806Y-52579454D01*
X89584544Y-52601342D01*
X89584664Y-52601493D01*
X89581315Y-52604140D01*
X89579703Y-52605538D01*
X89579000Y-52605971D01*
X89578996Y-52605974D01*
X89455974Y-52728996D01*
X89455971Y-52729000D01*
X89364642Y-52877066D01*
X89364637Y-52877077D01*
X89309913Y-53042223D01*
X89299500Y-53144144D01*
X89299500Y-53730855D01*
X89309913Y-53832776D01*
X89364637Y-53997922D01*
X89364642Y-53997933D01*
X89455971Y-54145999D01*
X89455974Y-54146003D01*
X89525008Y-54215037D01*
X89558493Y-54276360D01*
X89553509Y-54346052D01*
X89525008Y-54390399D01*
X87545508Y-56369899D01*
X87484185Y-56403384D01*
X87414493Y-56398400D01*
X87410375Y-56396779D01*
X87355329Y-56373978D01*
X87100873Y-56312889D01*
X86840000Y-56292359D01*
X86579128Y-56312889D01*
X86579124Y-56312889D01*
X86579123Y-56312890D01*
X86451897Y-56343434D01*
X86324666Y-56373980D01*
X86082910Y-56474118D01*
X86082907Y-56474120D01*
X85859789Y-56610846D01*
X85859788Y-56610847D01*
X85660800Y-56780800D01*
X85490847Y-56979788D01*
X85490846Y-56979789D01*
X85354120Y-57202907D01*
X85354118Y-57202910D01*
X85253980Y-57444666D01*
X85247513Y-57471603D01*
X85207305Y-57639083D01*
X85192889Y-57699128D01*
X85172359Y-57960000D01*
X75665500Y-57960000D01*
X75665500Y-57043240D01*
X75685185Y-56976201D01*
X75737989Y-56930446D01*
X75742015Y-56928692D01*
X75797093Y-56905879D01*
X76020215Y-56769150D01*
X76219200Y-56599200D01*
X76389150Y-56400215D01*
X76525879Y-56177093D01*
X76626021Y-55935329D01*
X76687110Y-55680877D01*
X76707641Y-55420000D01*
X76687110Y-55159123D01*
X76626021Y-54904671D01*
X76601087Y-54844474D01*
X76525881Y-54662910D01*
X76525879Y-54662907D01*
X76389153Y-54439789D01*
X76389152Y-54439788D01*
X76389151Y-54439787D01*
X76389150Y-54439785D01*
X76219200Y-54240800D01*
X76020215Y-54070850D01*
X76020213Y-54070848D01*
X76020211Y-54070847D01*
X76020210Y-54070846D01*
X75797095Y-53934121D01*
X75742046Y-53911319D01*
X75687643Y-53867477D01*
X75665579Y-53801182D01*
X75665500Y-53796758D01*
X75665500Y-39810000D01*
X85172359Y-39810000D01*
X85192889Y-40070871D01*
X85253980Y-40325333D01*
X85354118Y-40567089D01*
X85354120Y-40567092D01*
X85490846Y-40790210D01*
X85490847Y-40790211D01*
X85490848Y-40790213D01*
X85490850Y-40790215D01*
X85660800Y-40989200D01*
X85859785Y-41159150D01*
X85859787Y-41159151D01*
X85859788Y-41159152D01*
X85859789Y-41159153D01*
X86082907Y-41295879D01*
X86082910Y-41295881D01*
X86279397Y-41377268D01*
X86324671Y-41396021D01*
X86579123Y-41457110D01*
X86840000Y-41477641D01*
X87100877Y-41457110D01*
X87355329Y-41396021D01*
X87514708Y-41330004D01*
X87597089Y-41295881D01*
X87597090Y-41295880D01*
X87597093Y-41295879D01*
X87820215Y-41159150D01*
X88019200Y-40989200D01*
X88189150Y-40790215D01*
X88325879Y-40567093D01*
X88332302Y-40551588D01*
X88412474Y-40358034D01*
X88426021Y-40325329D01*
X88487110Y-40070877D01*
X88507641Y-39810000D01*
X88487110Y-39549123D01*
X88426021Y-39294671D01*
X88403219Y-39239623D01*
X88395750Y-39170153D01*
X88427025Y-39107674D01*
X88430071Y-39104517D01*
X90883786Y-36650802D01*
X90896048Y-36640980D01*
X90895865Y-36640759D01*
X90901867Y-36635792D01*
X90901877Y-36635786D01*
X90949241Y-36585348D01*
X90970120Y-36564470D01*
X90974373Y-36558986D01*
X90978150Y-36554563D01*
X91010062Y-36520582D01*
X91019714Y-36503023D01*
X91030389Y-36486772D01*
X91042674Y-36470936D01*
X91061186Y-36428152D01*
X91063742Y-36422935D01*
X91086197Y-36382092D01*
X91091180Y-36362680D01*
X91097477Y-36344291D01*
X91105438Y-36325895D01*
X91112729Y-36279853D01*
X91113908Y-36274162D01*
X91125500Y-36229019D01*
X91125500Y-36208983D01*
X91127027Y-36189582D01*
X91128213Y-36182095D01*
X91130160Y-36169804D01*
X91125775Y-36123415D01*
X91125500Y-36117577D01*
X91125500Y-36061254D01*
X91145185Y-35994215D01*
X91197989Y-35948460D01*
X91210492Y-35943549D01*
X91272925Y-35922862D01*
X91421003Y-35831526D01*
X91544026Y-35708503D01*
X91635362Y-35560425D01*
X91690087Y-35395275D01*
X91700500Y-35293348D01*
X91700500Y-34706652D01*
X91690087Y-34604725D01*
X91635362Y-34439575D01*
X91635358Y-34439569D01*
X91635357Y-34439566D01*
X91544028Y-34291500D01*
X91544025Y-34291496D01*
X91421004Y-34168475D01*
X91421003Y-34168474D01*
X91420301Y-34168041D01*
X91419921Y-34167618D01*
X91415336Y-34163993D01*
X91415955Y-34163209D01*
X91373575Y-34116098D01*
X91362349Y-34047136D01*
X91390188Y-33983052D01*
X91415455Y-33961157D01*
X91415336Y-33961007D01*
X91418687Y-33958356D01*
X91420299Y-33956959D01*
X91421003Y-33956526D01*
X91544026Y-33833503D01*
X91635362Y-33685425D01*
X91690087Y-33520275D01*
X91700500Y-33418348D01*
X91700500Y-32831652D01*
X91690087Y-32729725D01*
X91635362Y-32564575D01*
X91635358Y-32564569D01*
X91635357Y-32564566D01*
X91544028Y-32416500D01*
X91544025Y-32416496D01*
X91421003Y-32293474D01*
X91420999Y-32293471D01*
X91272933Y-32202142D01*
X91272927Y-32202139D01*
X91272925Y-32202138D01*
X91272294Y-32201929D01*
X91107776Y-32147413D01*
X91005855Y-32137000D01*
X91005848Y-32137000D01*
X90784102Y-32137000D01*
X90758321Y-32134290D01*
X90594646Y-32099500D01*
X90405354Y-32099500D01*
X90241679Y-32134290D01*
X90215898Y-32137000D01*
X89994144Y-32137000D01*
X89892223Y-32147413D01*
X89727077Y-32202137D01*
X89727066Y-32202142D01*
X89579000Y-32293471D01*
X89578996Y-32293474D01*
X89455974Y-32416496D01*
X89455971Y-32416500D01*
X89364642Y-32564566D01*
X89364637Y-32564577D01*
X89309913Y-32729723D01*
X89299500Y-32831644D01*
X89299500Y-33418355D01*
X89309913Y-33520276D01*
X89364637Y-33685422D01*
X89364642Y-33685433D01*
X89455971Y-33833499D01*
X89455974Y-33833503D01*
X89578996Y-33956525D01*
X89579000Y-33956528D01*
X89579703Y-33956962D01*
X89580083Y-33957385D01*
X89584664Y-33961007D01*
X89584045Y-33961789D01*
X89626428Y-34008910D01*
X89637649Y-34077872D01*
X89609806Y-34141954D01*
X89584544Y-34163842D01*
X89584664Y-34163993D01*
X89581315Y-34166640D01*
X89579703Y-34168038D01*
X89579000Y-34168471D01*
X89578996Y-34168474D01*
X89455974Y-34291496D01*
X89455971Y-34291500D01*
X89364642Y-34439566D01*
X89364637Y-34439577D01*
X89309913Y-34604723D01*
X89299500Y-34706644D01*
X89299500Y-35293355D01*
X89309913Y-35395276D01*
X89364637Y-35560422D01*
X89364642Y-35560433D01*
X89455971Y-35708499D01*
X89455974Y-35708503D01*
X89578996Y-35831525D01*
X89579000Y-35831528D01*
X89665019Y-35884586D01*
X89711744Y-35936534D01*
X89722965Y-36005496D01*
X89695122Y-36069578D01*
X89687603Y-36077805D01*
X87545508Y-38219899D01*
X87484185Y-38253384D01*
X87414493Y-38248400D01*
X87410375Y-38246779D01*
X87355329Y-38223978D01*
X87100873Y-38162889D01*
X86840000Y-38142359D01*
X86579128Y-38162889D01*
X86579124Y-38162889D01*
X86579123Y-38162890D01*
X86451897Y-38193434D01*
X86324666Y-38223980D01*
X86082910Y-38324118D01*
X86082907Y-38324120D01*
X85859789Y-38460846D01*
X85859788Y-38460847D01*
X85660800Y-38630800D01*
X85490847Y-38829788D01*
X85490846Y-38829789D01*
X85354120Y-39052907D01*
X85354118Y-39052910D01*
X85253980Y-39294666D01*
X85192889Y-39549128D01*
X85172359Y-39810000D01*
X75665500Y-39810000D01*
X75665500Y-38893240D01*
X75685185Y-38826201D01*
X75737989Y-38780446D01*
X75742015Y-38778692D01*
X75797093Y-38755879D01*
X76020215Y-38619150D01*
X76219200Y-38449200D01*
X76389150Y-38250215D01*
X76525879Y-38027093D01*
X76626021Y-37785329D01*
X76687110Y-37530877D01*
X76707641Y-37270000D01*
X76687110Y-37009123D01*
X76626021Y-36754671D01*
X76601087Y-36694474D01*
X76525881Y-36512910D01*
X76525879Y-36512907D01*
X76389153Y-36289789D01*
X76389152Y-36289788D01*
X76389151Y-36289787D01*
X76389150Y-36289785D01*
X76219200Y-36090800D01*
X76020215Y-35920850D01*
X76020213Y-35920848D01*
X76020211Y-35920847D01*
X76020210Y-35920846D01*
X75797092Y-35784120D01*
X75797089Y-35784118D01*
X75555333Y-35683980D01*
X75555329Y-35683979D01*
X75300877Y-35622890D01*
X75300874Y-35622889D01*
X75300871Y-35622889D01*
X75040000Y-35602359D01*
X74779128Y-35622889D01*
X74779124Y-35622889D01*
X74779123Y-35622890D01*
X74651897Y-35653434D01*
X74524666Y-35683980D01*
X74282910Y-35784118D01*
X74282907Y-35784120D01*
X74059789Y-35920846D01*
X74059788Y-35920847D01*
X73860800Y-36090800D01*
X73690847Y-36289788D01*
X73690846Y-36289789D01*
X73554120Y-36512907D01*
X73554118Y-36512910D01*
X73453980Y-36754666D01*
X73392889Y-37009128D01*
X73372359Y-37270000D01*
X73392889Y-37530871D01*
X73453980Y-37785333D01*
X73554118Y-38027089D01*
X73554120Y-38027092D01*
X73690846Y-38250210D01*
X73690847Y-38250211D01*
X73690848Y-38250213D01*
X73690850Y-38250215D01*
X73860800Y-38449200D01*
X74059785Y-38619150D01*
X74059787Y-38619151D01*
X74059788Y-38619152D01*
X74059789Y-38619153D01*
X74282063Y-38755362D01*
X74282907Y-38755879D01*
X74337952Y-38778679D01*
X74392355Y-38822518D01*
X74414421Y-38888812D01*
X74414500Y-38893240D01*
X74414500Y-40722581D01*
X74394815Y-40789620D01*
X74342011Y-40835375D01*
X74272853Y-40845319D01*
X74209297Y-40816294D01*
X74197272Y-40804340D01*
X74126434Y-40723565D01*
X73900225Y-40525186D01*
X73650064Y-40358034D01*
X73650057Y-40358030D01*
X73380222Y-40224962D01*
X73380212Y-40224958D01*
X73095328Y-40128253D01*
X73095308Y-40128248D01*
X72800237Y-40069555D01*
X72800227Y-40069553D01*
X72575141Y-40054800D01*
X72424859Y-40054800D01*
X72199773Y-40069553D01*
X72199767Y-40069554D01*
X72199762Y-40069555D01*
X71904691Y-40128248D01*
X71904671Y-40128253D01*
X71619787Y-40224958D01*
X71619777Y-40224962D01*
X71349942Y-40358030D01*
X71349935Y-40358034D01*
X71099774Y-40525186D01*
X70873565Y-40723565D01*
X70675189Y-40949771D01*
X70508036Y-41199931D01*
X70508029Y-41199944D01*
X70374962Y-41469777D01*
X70374958Y-41469787D01*
X70278253Y-41754671D01*
X70278248Y-41754691D01*
X70219555Y-42049762D01*
X70219553Y-42049774D01*
X70199875Y-42350000D01*
X70219553Y-42650225D01*
X70219555Y-42650237D01*
X70278248Y-42945308D01*
X70278253Y-42945328D01*
X70374958Y-43230212D01*
X70374962Y-43230222D01*
X70508030Y-43500057D01*
X70508034Y-43500064D01*
X70675186Y-43750225D01*
X70873565Y-43976434D01*
X71099774Y-44174813D01*
X71349935Y-44341965D01*
X71349942Y-44341969D01*
X71619777Y-44475037D01*
X71619787Y-44475041D01*
X71904671Y-44571746D01*
X71904675Y-44571747D01*
X71904684Y-44571750D01*
X72199773Y-44630447D01*
X72424859Y-44645200D01*
X72424863Y-44645200D01*
X72575137Y-44645200D01*
X72575141Y-44645200D01*
X72800227Y-44630447D01*
X73095316Y-44571750D01*
X73095328Y-44571746D01*
X73380212Y-44475041D01*
X73380222Y-44475037D01*
X73650062Y-44341967D01*
X73900227Y-44174812D01*
X74126434Y-43976434D01*
X74197272Y-43895659D01*
X74256273Y-43858235D01*
X74326142Y-43858651D01*
X74384694Y-43896774D01*
X74413341Y-43960501D01*
X74414500Y-43977418D01*
X74414500Y-53796758D01*
X74394815Y-53863797D01*
X74342011Y-53909552D01*
X74337954Y-53911319D01*
X74282904Y-53934121D01*
X74059789Y-54070846D01*
X74059788Y-54070847D01*
X73860800Y-54240800D01*
X73690847Y-54439788D01*
X73690846Y-54439789D01*
X73554120Y-54662907D01*
X73554118Y-54662910D01*
X73453980Y-54904666D01*
X73438266Y-54970120D01*
X73399844Y-55130160D01*
X73392889Y-55159128D01*
X73372359Y-55420000D01*
X73392889Y-55680871D01*
X73453980Y-55935333D01*
X73554118Y-56177089D01*
X73554120Y-56177092D01*
X73690846Y-56400210D01*
X73690847Y-56400211D01*
X73690848Y-56400213D01*
X73690850Y-56400215D01*
X73860800Y-56599200D01*
X74059785Y-56769150D01*
X74059787Y-56769151D01*
X74059788Y-56769152D01*
X74059789Y-56769153D01*
X74182709Y-56844478D01*
X74282907Y-56905879D01*
X74337952Y-56928679D01*
X74392355Y-56972518D01*
X74414421Y-57038812D01*
X74414500Y-57043240D01*
X74414500Y-58872581D01*
X74394815Y-58939620D01*
X74342011Y-58985375D01*
X74272853Y-58995319D01*
X74209297Y-58966294D01*
X74197272Y-58954340D01*
X74126434Y-58873565D01*
X73900225Y-58675186D01*
X73650064Y-58508034D01*
X73650057Y-58508030D01*
X73380222Y-58374962D01*
X73380212Y-58374958D01*
X73095328Y-58278253D01*
X73095308Y-58278248D01*
X72800237Y-58219555D01*
X72800227Y-58219553D01*
X72575141Y-58204800D01*
X72424859Y-58204800D01*
X72199773Y-58219553D01*
X72199767Y-58219554D01*
X72199762Y-58219555D01*
X71904691Y-58278248D01*
X71904671Y-58278253D01*
X71619787Y-58374958D01*
X71619777Y-58374962D01*
X71349942Y-58508030D01*
X71349935Y-58508034D01*
X71099774Y-58675186D01*
X70873565Y-58873565D01*
X70675189Y-59099771D01*
X70508036Y-59349931D01*
X70508029Y-59349944D01*
X70374962Y-59619777D01*
X70374958Y-59619787D01*
X70278253Y-59904671D01*
X70278248Y-59904691D01*
X70219555Y-60199762D01*
X70219553Y-60199774D01*
X70199875Y-60500000D01*
X70219553Y-60800225D01*
X70219555Y-60800237D01*
X70278248Y-61095308D01*
X70278253Y-61095328D01*
X70374958Y-61380212D01*
X70374962Y-61380222D01*
X70508030Y-61650057D01*
X70508034Y-61650064D01*
X70675186Y-61900225D01*
X70873565Y-62126434D01*
X71099774Y-62324813D01*
X71349935Y-62491965D01*
X71349942Y-62491969D01*
X71619777Y-62625037D01*
X71619787Y-62625041D01*
X71904671Y-62721746D01*
X71904675Y-62721747D01*
X71904684Y-62721750D01*
X72199773Y-62780447D01*
X72424859Y-62795200D01*
X72424863Y-62795200D01*
X72575137Y-62795200D01*
X72575141Y-62795200D01*
X72800227Y-62780447D01*
X73095316Y-62721750D01*
X73103176Y-62719082D01*
X73380212Y-62625041D01*
X73380222Y-62625037D01*
X73427549Y-62601698D01*
X73650062Y-62491967D01*
X73900227Y-62324812D01*
X74126434Y-62126434D01*
X74197272Y-62045659D01*
X74256273Y-62008235D01*
X74326142Y-62008651D01*
X74384694Y-62046774D01*
X74413341Y-62110501D01*
X74414500Y-62127418D01*
X74414500Y-71946758D01*
X74394815Y-72013797D01*
X74342011Y-72059552D01*
X74337954Y-72061319D01*
X74282904Y-72084121D01*
X74059789Y-72220846D01*
X74059788Y-72220847D01*
X73860800Y-72390800D01*
X73690847Y-72589788D01*
X73690846Y-72589789D01*
X73554120Y-72812907D01*
X73554118Y-72812910D01*
X73453980Y-73054666D01*
X73392889Y-73309128D01*
X73372359Y-73570000D01*
X73392889Y-73830871D01*
X73453980Y-74085333D01*
X73554118Y-74327089D01*
X73554120Y-74327092D01*
X73690846Y-74550210D01*
X73690847Y-74550211D01*
X73690848Y-74550213D01*
X73690850Y-74550215D01*
X73860800Y-74749200D01*
X74059785Y-74919150D01*
X74059787Y-74919151D01*
X74059788Y-74919152D01*
X74059789Y-74919153D01*
X74282905Y-75055878D01*
X74282907Y-75055879D01*
X74337952Y-75078679D01*
X74392355Y-75122518D01*
X74414421Y-75188812D01*
X74414500Y-75193240D01*
X74414500Y-77022581D01*
X74394815Y-77089620D01*
X74342011Y-77135375D01*
X74272853Y-77145319D01*
X74209297Y-77116294D01*
X74197272Y-77104340D01*
X74126434Y-77023565D01*
X73900225Y-76825186D01*
X73650064Y-76658034D01*
X73650057Y-76658030D01*
X73380222Y-76524962D01*
X73380212Y-76524958D01*
X73095328Y-76428253D01*
X73095308Y-76428248D01*
X72800237Y-76369555D01*
X72800227Y-76369553D01*
X72575141Y-76354800D01*
X72424859Y-76354800D01*
X72199773Y-76369553D01*
X72199767Y-76369554D01*
X72199762Y-76369555D01*
X71904691Y-76428248D01*
X71904671Y-76428253D01*
X71619787Y-76524958D01*
X71619777Y-76524962D01*
X71349942Y-76658030D01*
X71349935Y-76658034D01*
X71099774Y-76825186D01*
X70873565Y-77023565D01*
X70675189Y-77249771D01*
X70508036Y-77499931D01*
X70508029Y-77499944D01*
X70374962Y-77769777D01*
X70374958Y-77769787D01*
X70278253Y-78054671D01*
X70278248Y-78054691D01*
X70219555Y-78349762D01*
X70219553Y-78349774D01*
X70199875Y-78650000D01*
X70219553Y-78950225D01*
X70219555Y-78950237D01*
X70278248Y-79245308D01*
X70278253Y-79245328D01*
X70374958Y-79530212D01*
X70374962Y-79530222D01*
X70508030Y-79800057D01*
X70508034Y-79800064D01*
X70675186Y-80050225D01*
X70873565Y-80276434D01*
X71099774Y-80474813D01*
X71349935Y-80641965D01*
X71349942Y-80641969D01*
X71619777Y-80775037D01*
X71619787Y-80775041D01*
X71904671Y-80871746D01*
X71904675Y-80871747D01*
X71904684Y-80871750D01*
X72199773Y-80930447D01*
X72424859Y-80945200D01*
X72424863Y-80945200D01*
X72442820Y-80945200D01*
X72509859Y-80964885D01*
X72555614Y-81017689D01*
X72565558Y-81086847D01*
X72536533Y-81150403D01*
X72530501Y-81156881D01*
X72399201Y-81288181D01*
X72337878Y-81321666D01*
X72311520Y-81324500D01*
X56281425Y-81324500D01*
X56214386Y-81304815D01*
X56168631Y-81252011D01*
X56158687Y-81182853D01*
X56187712Y-81119297D01*
X56193744Y-81112819D01*
X56664598Y-80641965D01*
X57273788Y-80032774D01*
X57286042Y-80022959D01*
X57285859Y-80022737D01*
X57291866Y-80017765D01*
X57291877Y-80017759D01*
X57322775Y-79984855D01*
X57339227Y-79967337D01*
X57349671Y-79956891D01*
X57360120Y-79946444D01*
X57364379Y-79940951D01*
X57368152Y-79936534D01*
X57400062Y-79902555D01*
X57409713Y-79884997D01*
X57420396Y-79868734D01*
X57432673Y-79852909D01*
X57451185Y-79810126D01*
X57453738Y-79804914D01*
X57476197Y-79764065D01*
X57481180Y-79744653D01*
X57487481Y-79726253D01*
X57495437Y-79707869D01*
X57502729Y-79661825D01*
X57503906Y-79656144D01*
X57515500Y-79610992D01*
X57515500Y-79590956D01*
X57517027Y-79571555D01*
X57520160Y-79551777D01*
X57515775Y-79505388D01*
X57515500Y-79499550D01*
X57515500Y-76110000D01*
X67022359Y-76110000D01*
X67042889Y-76370871D01*
X67103980Y-76625333D01*
X67204118Y-76867089D01*
X67204120Y-76867092D01*
X67340846Y-77090210D01*
X67340847Y-77090211D01*
X67340848Y-77090213D01*
X67340850Y-77090215D01*
X67510800Y-77289200D01*
X67709785Y-77459150D01*
X67709787Y-77459151D01*
X67709788Y-77459152D01*
X67709789Y-77459153D01*
X67932907Y-77595879D01*
X67932910Y-77595881D01*
X68174666Y-77696019D01*
X68174671Y-77696021D01*
X68429123Y-77757110D01*
X68690000Y-77777641D01*
X68950877Y-77757110D01*
X69205329Y-77696021D01*
X69326211Y-77645950D01*
X69447089Y-77595881D01*
X69447090Y-77595880D01*
X69447093Y-77595879D01*
X69670215Y-77459150D01*
X69869200Y-77289200D01*
X70039150Y-77090215D01*
X70175879Y-76867093D01*
X70193238Y-76825186D01*
X70262474Y-76658034D01*
X70276021Y-76625329D01*
X70337110Y-76370877D01*
X70357641Y-76110000D01*
X70337110Y-75849123D01*
X70276021Y-75594671D01*
X70276019Y-75594666D01*
X70175881Y-75352910D01*
X70175879Y-75352907D01*
X70039153Y-75129789D01*
X70039152Y-75129788D01*
X70039151Y-75129787D01*
X70039150Y-75129785D01*
X69869200Y-74930800D01*
X69670215Y-74760850D01*
X69670213Y-74760848D01*
X69670211Y-74760847D01*
X69670210Y-74760846D01*
X69447092Y-74624120D01*
X69447089Y-74624118D01*
X69205333Y-74523980D01*
X69205329Y-74523979D01*
X68950877Y-74462890D01*
X68950874Y-74462889D01*
X68950871Y-74462889D01*
X68690000Y-74442359D01*
X68429128Y-74462889D01*
X68429124Y-74462889D01*
X68429123Y-74462890D01*
X68301897Y-74493434D01*
X68174666Y-74523980D01*
X67932910Y-74624118D01*
X67932907Y-74624120D01*
X67709789Y-74760846D01*
X67709788Y-74760847D01*
X67510800Y-74930800D01*
X67340847Y-75129788D01*
X67340846Y-75129789D01*
X67204120Y-75352907D01*
X67204118Y-75352910D01*
X67103980Y-75594666D01*
X67042889Y-75849128D01*
X67022359Y-76110000D01*
X57515500Y-76110000D01*
X57515500Y-75193240D01*
X57535185Y-75126201D01*
X57587989Y-75080446D01*
X57592015Y-75078692D01*
X57647093Y-75055879D01*
X57870215Y-74919150D01*
X58069200Y-74749200D01*
X58239150Y-74550215D01*
X58375879Y-74327093D01*
X58476021Y-74085329D01*
X58537110Y-73830877D01*
X58557641Y-73570000D01*
X58537110Y-73309123D01*
X58476021Y-73054671D01*
X58476019Y-73054666D01*
X58375881Y-72812910D01*
X58375879Y-72812907D01*
X58239153Y-72589789D01*
X58239152Y-72589788D01*
X58239151Y-72589787D01*
X58239150Y-72589785D01*
X58069200Y-72390800D01*
X57870215Y-72220850D01*
X57870213Y-72220848D01*
X57870211Y-72220847D01*
X57870210Y-72220846D01*
X57647095Y-72084121D01*
X57592046Y-72061319D01*
X57537643Y-72017477D01*
X57515579Y-71951182D01*
X57515500Y-71946758D01*
X57515500Y-71730855D01*
X71299500Y-71730855D01*
X71309913Y-71832776D01*
X71364637Y-71997922D01*
X71364642Y-71997933D01*
X71455971Y-72145999D01*
X71455974Y-72146003D01*
X71578996Y-72269025D01*
X71579000Y-72269028D01*
X71727066Y-72360357D01*
X71727069Y-72360358D01*
X71727075Y-72360362D01*
X71892225Y-72415087D01*
X71994152Y-72425500D01*
X71994157Y-72425500D01*
X73005843Y-72425500D01*
X73005848Y-72425500D01*
X73107775Y-72415087D01*
X73272925Y-72360362D01*
X73421003Y-72269026D01*
X73544026Y-72146003D01*
X73635362Y-71997925D01*
X73690087Y-71832775D01*
X73700500Y-71730848D01*
X73700500Y-71144152D01*
X73690087Y-71042225D01*
X73635362Y-70877075D01*
X73635358Y-70877069D01*
X73635357Y-70877066D01*
X73544028Y-70729000D01*
X73544025Y-70728996D01*
X73421004Y-70605975D01*
X73421003Y-70605974D01*
X73420301Y-70605541D01*
X73419921Y-70605118D01*
X73415336Y-70601493D01*
X73415955Y-70600709D01*
X73373575Y-70553598D01*
X73362349Y-70484636D01*
X73390188Y-70420552D01*
X73415455Y-70398657D01*
X73415336Y-70398507D01*
X73418687Y-70395856D01*
X73420299Y-70394459D01*
X73421003Y-70394026D01*
X73544026Y-70271003D01*
X73635362Y-70122925D01*
X73690087Y-69957775D01*
X73700500Y-69855848D01*
X73700500Y-69269152D01*
X73690087Y-69167225D01*
X73635362Y-69002075D01*
X73635358Y-69002069D01*
X73635357Y-69002066D01*
X73544028Y-68854000D01*
X73544025Y-68853996D01*
X73421003Y-68730974D01*
X73420999Y-68730971D01*
X73272933Y-68639642D01*
X73272927Y-68639639D01*
X73272925Y-68639638D01*
X73272922Y-68639637D01*
X73107776Y-68584913D01*
X73005855Y-68574500D01*
X73005848Y-68574500D01*
X71994152Y-68574500D01*
X71994144Y-68574500D01*
X71892223Y-68584913D01*
X71727077Y-68639637D01*
X71727066Y-68639642D01*
X71579000Y-68730971D01*
X71578996Y-68730974D01*
X71455974Y-68853996D01*
X71455971Y-68854000D01*
X71364642Y-69002066D01*
X71364637Y-69002077D01*
X71309913Y-69167223D01*
X71299500Y-69269144D01*
X71299500Y-69855855D01*
X71309913Y-69957776D01*
X71364637Y-70122922D01*
X71364642Y-70122933D01*
X71455971Y-70270999D01*
X71455974Y-70271003D01*
X71578996Y-70394025D01*
X71579000Y-70394028D01*
X71579703Y-70394462D01*
X71580083Y-70394885D01*
X71584664Y-70398507D01*
X71584045Y-70399289D01*
X71626428Y-70446410D01*
X71637649Y-70515372D01*
X71609806Y-70579454D01*
X71584544Y-70601342D01*
X71584664Y-70601493D01*
X71581315Y-70604140D01*
X71579703Y-70605538D01*
X71579000Y-70605971D01*
X71578996Y-70605974D01*
X71455974Y-70728996D01*
X71455971Y-70729000D01*
X71364642Y-70877066D01*
X71364637Y-70877077D01*
X71309913Y-71042223D01*
X71299500Y-71144144D01*
X71299500Y-71730855D01*
X57515500Y-71730855D01*
X57515500Y-57960000D01*
X67022359Y-57960000D01*
X67042889Y-58220871D01*
X67103980Y-58475333D01*
X67204118Y-58717089D01*
X67204120Y-58717092D01*
X67340846Y-58940210D01*
X67340847Y-58940211D01*
X67340848Y-58940213D01*
X67340850Y-58940215D01*
X67510800Y-59139200D01*
X67709785Y-59309150D01*
X67709787Y-59309151D01*
X67709788Y-59309152D01*
X67709789Y-59309153D01*
X67932907Y-59445879D01*
X67932910Y-59445881D01*
X68174666Y-59546019D01*
X68174671Y-59546021D01*
X68429123Y-59607110D01*
X68690000Y-59627641D01*
X68950877Y-59607110D01*
X69205329Y-59546021D01*
X69326211Y-59495950D01*
X69447089Y-59445881D01*
X69447090Y-59445880D01*
X69447093Y-59445879D01*
X69670215Y-59309150D01*
X69869200Y-59139200D01*
X70039150Y-58940215D01*
X70175879Y-58717093D01*
X70193238Y-58675186D01*
X70262474Y-58508034D01*
X70276021Y-58475329D01*
X70337110Y-58220877D01*
X70357641Y-57960000D01*
X70337110Y-57699123D01*
X70276021Y-57444671D01*
X70253219Y-57389623D01*
X70245750Y-57320153D01*
X70277025Y-57257674D01*
X70280071Y-57254517D01*
X72883786Y-54650802D01*
X72896048Y-54640980D01*
X72895865Y-54640759D01*
X72901867Y-54635792D01*
X72901877Y-54635786D01*
X72949241Y-54585348D01*
X72970120Y-54564470D01*
X72974376Y-54558983D01*
X72978150Y-54554563D01*
X73010062Y-54520582D01*
X73019714Y-54503023D01*
X73030389Y-54486772D01*
X73042674Y-54470936D01*
X73042680Y-54470920D01*
X73044238Y-54468289D01*
X73046011Y-54466633D01*
X73047458Y-54464768D01*
X73047758Y-54465001D01*
X73095303Y-54420602D01*
X73111963Y-54413698D01*
X73272925Y-54360362D01*
X73421003Y-54269026D01*
X73544026Y-54146003D01*
X73635362Y-53997925D01*
X73690087Y-53832775D01*
X73700500Y-53730848D01*
X73700500Y-53144152D01*
X73690087Y-53042225D01*
X73635362Y-52877075D01*
X73635358Y-52877069D01*
X73635357Y-52877066D01*
X73544028Y-52729000D01*
X73544025Y-52728996D01*
X73421004Y-52605975D01*
X73421003Y-52605974D01*
X73420301Y-52605541D01*
X73419921Y-52605118D01*
X73415336Y-52601493D01*
X73415955Y-52600709D01*
X73373575Y-52553598D01*
X73362349Y-52484636D01*
X73390188Y-52420552D01*
X73415455Y-52398657D01*
X73415336Y-52398507D01*
X73418687Y-52395856D01*
X73420299Y-52394459D01*
X73421003Y-52394026D01*
X73544026Y-52271003D01*
X73635362Y-52122925D01*
X73690087Y-51957775D01*
X73700500Y-51855848D01*
X73700500Y-51269152D01*
X73690087Y-51167225D01*
X73635362Y-51002075D01*
X73635358Y-51002069D01*
X73635357Y-51002066D01*
X73544028Y-50854000D01*
X73544025Y-50853996D01*
X73421003Y-50730974D01*
X73420999Y-50730971D01*
X73272933Y-50639642D01*
X73272927Y-50639639D01*
X73272925Y-50639638D01*
X73272922Y-50639637D01*
X73107776Y-50584913D01*
X73005855Y-50574500D01*
X73005848Y-50574500D01*
X71994152Y-50574500D01*
X71994144Y-50574500D01*
X71892223Y-50584913D01*
X71727077Y-50639637D01*
X71727066Y-50639642D01*
X71579000Y-50730971D01*
X71578996Y-50730974D01*
X71455974Y-50853996D01*
X71455971Y-50854000D01*
X71364642Y-51002066D01*
X71364637Y-51002077D01*
X71309913Y-51167223D01*
X71299500Y-51269144D01*
X71299500Y-51855855D01*
X71309913Y-51957776D01*
X71364637Y-52122922D01*
X71364642Y-52122933D01*
X71455971Y-52270999D01*
X71455974Y-52271003D01*
X71578996Y-52394025D01*
X71579000Y-52394028D01*
X71579703Y-52394462D01*
X71580083Y-52394885D01*
X71584664Y-52398507D01*
X71584045Y-52399289D01*
X71626428Y-52446410D01*
X71637649Y-52515372D01*
X71609806Y-52579454D01*
X71584544Y-52601342D01*
X71584664Y-52601493D01*
X71581315Y-52604140D01*
X71579703Y-52605538D01*
X71579000Y-52605971D01*
X71578996Y-52605974D01*
X71455974Y-52728996D01*
X71455971Y-52729000D01*
X71364642Y-52877066D01*
X71364637Y-52877077D01*
X71309913Y-53042223D01*
X71299500Y-53144144D01*
X71299500Y-53730855D01*
X71309913Y-53832776D01*
X71364637Y-53997922D01*
X71364642Y-53997933D01*
X71455972Y-54146000D01*
X71459692Y-54150705D01*
X71485834Y-54215500D01*
X71472796Y-54284142D01*
X71450109Y-54315299D01*
X69395508Y-56369899D01*
X69334185Y-56403384D01*
X69264493Y-56398400D01*
X69260375Y-56396779D01*
X69205329Y-56373978D01*
X68950873Y-56312889D01*
X68690000Y-56292359D01*
X68429128Y-56312889D01*
X68429124Y-56312889D01*
X68429123Y-56312890D01*
X68301897Y-56343434D01*
X68174666Y-56373980D01*
X67932910Y-56474118D01*
X67932907Y-56474120D01*
X67709789Y-56610846D01*
X67709788Y-56610847D01*
X67510800Y-56780800D01*
X67340847Y-56979788D01*
X67340846Y-56979789D01*
X67204120Y-57202907D01*
X67204118Y-57202910D01*
X67103980Y-57444666D01*
X67097513Y-57471603D01*
X67057305Y-57639083D01*
X67042889Y-57699128D01*
X67022359Y-57960000D01*
X57515500Y-57960000D01*
X57515500Y-57043240D01*
X57535185Y-56976201D01*
X57587989Y-56930446D01*
X57592015Y-56928692D01*
X57647093Y-56905879D01*
X57870215Y-56769150D01*
X58069200Y-56599200D01*
X58239150Y-56400215D01*
X58375879Y-56177093D01*
X58476021Y-55935329D01*
X58537110Y-55680877D01*
X58557641Y-55420000D01*
X58537110Y-55159123D01*
X58476021Y-54904671D01*
X58451087Y-54844474D01*
X58375881Y-54662910D01*
X58375879Y-54662907D01*
X58239153Y-54439789D01*
X58239152Y-54439788D01*
X58239151Y-54439787D01*
X58239150Y-54439785D01*
X58069200Y-54240800D01*
X57870215Y-54070850D01*
X57870213Y-54070848D01*
X57870211Y-54070847D01*
X57870210Y-54070846D01*
X57647095Y-53934121D01*
X57592046Y-53911319D01*
X57537643Y-53867477D01*
X57515579Y-53801182D01*
X57515500Y-53796758D01*
X57515500Y-39810000D01*
X67022359Y-39810000D01*
X67042889Y-40070871D01*
X67103980Y-40325333D01*
X67204118Y-40567089D01*
X67204120Y-40567092D01*
X67340846Y-40790210D01*
X67340847Y-40790211D01*
X67340848Y-40790213D01*
X67340850Y-40790215D01*
X67510800Y-40989200D01*
X67709785Y-41159150D01*
X67709787Y-41159151D01*
X67709788Y-41159152D01*
X67709789Y-41159153D01*
X67932907Y-41295879D01*
X67932910Y-41295881D01*
X68129397Y-41377268D01*
X68174671Y-41396021D01*
X68429123Y-41457110D01*
X68690000Y-41477641D01*
X68950877Y-41457110D01*
X69205329Y-41396021D01*
X69364708Y-41330004D01*
X69447089Y-41295881D01*
X69447090Y-41295880D01*
X69447093Y-41295879D01*
X69670215Y-41159150D01*
X69869200Y-40989200D01*
X70039150Y-40790215D01*
X70175879Y-40567093D01*
X70182302Y-40551588D01*
X70262474Y-40358034D01*
X70276021Y-40325329D01*
X70337110Y-40070877D01*
X70357641Y-39810000D01*
X70337110Y-39549123D01*
X70276021Y-39294671D01*
X70253219Y-39239623D01*
X70245750Y-39170153D01*
X70277025Y-39107674D01*
X70280071Y-39104517D01*
X72883786Y-36500802D01*
X72896048Y-36490980D01*
X72895865Y-36490759D01*
X72901867Y-36485792D01*
X72901877Y-36485786D01*
X72949241Y-36435348D01*
X72970120Y-36414470D01*
X72974376Y-36408983D01*
X72978150Y-36404563D01*
X73010062Y-36370582D01*
X73019714Y-36353023D01*
X73030389Y-36336772D01*
X73042674Y-36320936D01*
X73061186Y-36278152D01*
X73063742Y-36272935D01*
X73086197Y-36232092D01*
X73091180Y-36212680D01*
X73097477Y-36194291D01*
X73105438Y-36175895D01*
X73112729Y-36129853D01*
X73113908Y-36124162D01*
X73125500Y-36079019D01*
X73125500Y-36061254D01*
X73145185Y-35994215D01*
X73197989Y-35948460D01*
X73210486Y-35943551D01*
X73272925Y-35922862D01*
X73421003Y-35831526D01*
X73544026Y-35708503D01*
X73635362Y-35560425D01*
X73690087Y-35395275D01*
X73700500Y-35293348D01*
X73700500Y-34706652D01*
X73690087Y-34604725D01*
X73635362Y-34439575D01*
X73635358Y-34439569D01*
X73635357Y-34439566D01*
X73544028Y-34291500D01*
X73544025Y-34291496D01*
X73421004Y-34168475D01*
X73421003Y-34168474D01*
X73420301Y-34168041D01*
X73419921Y-34167618D01*
X73415336Y-34163993D01*
X73415955Y-34163209D01*
X73373575Y-34116098D01*
X73362349Y-34047136D01*
X73390188Y-33983052D01*
X73415455Y-33961157D01*
X73415336Y-33961007D01*
X73418687Y-33958356D01*
X73420299Y-33956959D01*
X73421003Y-33956526D01*
X73544026Y-33833503D01*
X73635362Y-33685425D01*
X73690087Y-33520275D01*
X73700500Y-33418348D01*
X73700500Y-32831652D01*
X73690087Y-32729725D01*
X73635362Y-32564575D01*
X73635358Y-32564569D01*
X73635357Y-32564566D01*
X73544028Y-32416500D01*
X73544025Y-32416496D01*
X73421003Y-32293474D01*
X73420999Y-32293471D01*
X73272933Y-32202142D01*
X73272927Y-32202139D01*
X73272925Y-32202138D01*
X73272294Y-32201929D01*
X73107776Y-32147413D01*
X73005855Y-32137000D01*
X73005848Y-32137000D01*
X72784102Y-32137000D01*
X72758321Y-32134290D01*
X72594646Y-32099500D01*
X72405354Y-32099500D01*
X72241679Y-32134290D01*
X72215898Y-32137000D01*
X71994144Y-32137000D01*
X71892223Y-32147413D01*
X71727077Y-32202137D01*
X71727066Y-32202142D01*
X71579000Y-32293471D01*
X71578996Y-32293474D01*
X71455974Y-32416496D01*
X71455971Y-32416500D01*
X71364642Y-32564566D01*
X71364637Y-32564577D01*
X71309913Y-32729723D01*
X71299500Y-32831644D01*
X71299500Y-33418355D01*
X71309913Y-33520276D01*
X71364637Y-33685422D01*
X71364642Y-33685433D01*
X71455971Y-33833499D01*
X71455974Y-33833503D01*
X71578996Y-33956525D01*
X71579000Y-33956528D01*
X71579703Y-33956962D01*
X71580083Y-33957385D01*
X71584664Y-33961007D01*
X71584045Y-33961789D01*
X71626428Y-34008910D01*
X71637649Y-34077872D01*
X71609806Y-34141954D01*
X71584544Y-34163842D01*
X71584664Y-34163993D01*
X71581315Y-34166640D01*
X71579703Y-34168038D01*
X71579000Y-34168471D01*
X71578996Y-34168474D01*
X71455974Y-34291496D01*
X71455971Y-34291500D01*
X71364642Y-34439566D01*
X71364637Y-34439577D01*
X71309913Y-34604723D01*
X71299500Y-34706644D01*
X71299500Y-35293355D01*
X71309913Y-35395276D01*
X71364637Y-35560422D01*
X71364642Y-35560433D01*
X71455971Y-35708499D01*
X71455974Y-35708503D01*
X71578999Y-35831528D01*
X71584118Y-35835576D01*
X71624494Y-35892598D01*
X71627631Y-35962397D01*
X71594886Y-36020521D01*
X69395508Y-38219899D01*
X69334185Y-38253384D01*
X69264493Y-38248400D01*
X69260375Y-38246779D01*
X69205329Y-38223978D01*
X68950873Y-38162889D01*
X68690000Y-38142359D01*
X68429128Y-38162889D01*
X68429124Y-38162889D01*
X68429123Y-38162890D01*
X68301897Y-38193434D01*
X68174666Y-38223980D01*
X67932910Y-38324118D01*
X67932907Y-38324120D01*
X67709789Y-38460846D01*
X67709788Y-38460847D01*
X67510800Y-38630800D01*
X67340847Y-38829788D01*
X67340846Y-38829789D01*
X67204120Y-39052907D01*
X67204118Y-39052910D01*
X67103980Y-39294666D01*
X67042889Y-39549128D01*
X67022359Y-39810000D01*
X57515500Y-39810000D01*
X57515500Y-38893240D01*
X57535185Y-38826201D01*
X57587989Y-38780446D01*
X57592015Y-38778692D01*
X57647093Y-38755879D01*
X57870215Y-38619150D01*
X58069200Y-38449200D01*
X58239150Y-38250215D01*
X58375879Y-38027093D01*
X58476021Y-37785329D01*
X58537110Y-37530877D01*
X58557641Y-37270000D01*
X58537110Y-37009123D01*
X58476021Y-36754671D01*
X58451087Y-36694474D01*
X58375881Y-36512910D01*
X58375879Y-36512907D01*
X58239153Y-36289789D01*
X58239152Y-36289788D01*
X58239151Y-36289787D01*
X58239150Y-36289785D01*
X58069200Y-36090800D01*
X57870215Y-35920850D01*
X57870213Y-35920848D01*
X57870211Y-35920847D01*
X57870210Y-35920846D01*
X57647092Y-35784120D01*
X57647089Y-35784118D01*
X57405333Y-35683980D01*
X57405329Y-35683979D01*
X57150877Y-35622890D01*
X57150874Y-35622889D01*
X57150871Y-35622889D01*
X56890000Y-35602359D01*
X56629128Y-35622889D01*
X56629124Y-35622889D01*
X56629123Y-35622890D01*
X56501897Y-35653434D01*
X56374666Y-35683980D01*
X56132910Y-35784118D01*
X56132907Y-35784120D01*
X55909789Y-35920846D01*
X55909788Y-35920847D01*
X55710800Y-36090800D01*
X55540847Y-36289788D01*
X55540846Y-36289789D01*
X55404120Y-36512907D01*
X55404118Y-36512910D01*
X55303980Y-36754666D01*
X55242889Y-37009128D01*
X55222359Y-37270000D01*
X55242889Y-37530871D01*
X55303980Y-37785333D01*
X55404118Y-38027089D01*
X55404120Y-38027092D01*
X55540846Y-38250210D01*
X55540847Y-38250211D01*
X55540848Y-38250213D01*
X55540850Y-38250215D01*
X55710800Y-38449200D01*
X55909785Y-38619150D01*
X55909787Y-38619151D01*
X55909788Y-38619152D01*
X55909789Y-38619153D01*
X56132063Y-38755362D01*
X56132907Y-38755879D01*
X56187952Y-38778679D01*
X56242355Y-38822518D01*
X56264421Y-38888812D01*
X56264500Y-38893240D01*
X56264500Y-40722581D01*
X56244815Y-40789620D01*
X56192011Y-40835375D01*
X56122853Y-40845319D01*
X56059297Y-40816294D01*
X56047272Y-40804340D01*
X55976434Y-40723565D01*
X55750225Y-40525186D01*
X55500064Y-40358034D01*
X55500057Y-40358030D01*
X55230222Y-40224962D01*
X55230212Y-40224958D01*
X54945328Y-40128253D01*
X54945308Y-40128248D01*
X54650237Y-40069555D01*
X54650227Y-40069553D01*
X54425141Y-40054800D01*
X54274859Y-40054800D01*
X54049773Y-40069553D01*
X54049767Y-40069554D01*
X54049762Y-40069555D01*
X53754691Y-40128248D01*
X53754671Y-40128253D01*
X53469787Y-40224958D01*
X53469777Y-40224962D01*
X53199942Y-40358030D01*
X53199935Y-40358034D01*
X52949774Y-40525186D01*
X52723565Y-40723565D01*
X52525189Y-40949771D01*
X52358036Y-41199931D01*
X52358029Y-41199944D01*
X52224962Y-41469777D01*
X52224958Y-41469787D01*
X52128253Y-41754671D01*
X52128248Y-41754691D01*
X52069555Y-42049762D01*
X52069553Y-42049774D01*
X52049875Y-42350000D01*
X52069553Y-42650225D01*
X52069555Y-42650237D01*
X52128248Y-42945308D01*
X52128253Y-42945328D01*
X52224958Y-43230212D01*
X52224962Y-43230222D01*
X52358030Y-43500057D01*
X52358034Y-43500064D01*
X52525186Y-43750225D01*
X52723565Y-43976434D01*
X52949774Y-44174813D01*
X53199935Y-44341965D01*
X53199942Y-44341969D01*
X53469777Y-44475037D01*
X53469787Y-44475041D01*
X53754671Y-44571746D01*
X53754675Y-44571747D01*
X53754684Y-44571750D01*
X54049773Y-44630447D01*
X54274859Y-44645200D01*
X54274863Y-44645200D01*
X54425137Y-44645200D01*
X54425141Y-44645200D01*
X54650227Y-44630447D01*
X54945316Y-44571750D01*
X54945328Y-44571746D01*
X55230212Y-44475041D01*
X55230222Y-44475037D01*
X55500062Y-44341967D01*
X55750227Y-44174812D01*
X55976434Y-43976434D01*
X56047272Y-43895659D01*
X56106273Y-43858235D01*
X56176142Y-43858651D01*
X56234694Y-43896774D01*
X56263341Y-43960501D01*
X56264500Y-43977418D01*
X56264500Y-53796758D01*
X56244815Y-53863797D01*
X56192011Y-53909552D01*
X56187954Y-53911319D01*
X56132904Y-53934121D01*
X55909789Y-54070846D01*
X55909788Y-54070847D01*
X55710800Y-54240800D01*
X55540847Y-54439788D01*
X55540846Y-54439789D01*
X55404120Y-54662907D01*
X55404118Y-54662910D01*
X55303980Y-54904666D01*
X55288266Y-54970120D01*
X55249844Y-55130160D01*
X55242889Y-55159128D01*
X55222359Y-55420000D01*
X55242889Y-55680871D01*
X55303980Y-55935333D01*
X55404118Y-56177089D01*
X55404120Y-56177092D01*
X55540846Y-56400210D01*
X55540847Y-56400211D01*
X55540848Y-56400213D01*
X55540850Y-56400215D01*
X55710800Y-56599200D01*
X55909785Y-56769150D01*
X55909787Y-56769151D01*
X55909788Y-56769152D01*
X55909789Y-56769153D01*
X56032709Y-56844478D01*
X56132907Y-56905879D01*
X56187952Y-56928679D01*
X56242355Y-56972518D01*
X56264421Y-57038812D01*
X56264500Y-57043240D01*
X56264500Y-58872581D01*
X56244815Y-58939620D01*
X56192011Y-58985375D01*
X56122853Y-58995319D01*
X56059297Y-58966294D01*
X56047272Y-58954340D01*
X55976434Y-58873565D01*
X55750225Y-58675186D01*
X55500064Y-58508034D01*
X55500057Y-58508030D01*
X55230222Y-58374962D01*
X55230212Y-58374958D01*
X54945328Y-58278253D01*
X54945308Y-58278248D01*
X54650237Y-58219555D01*
X54650227Y-58219553D01*
X54425141Y-58204800D01*
X54274859Y-58204800D01*
X54049773Y-58219553D01*
X54049767Y-58219554D01*
X54049762Y-58219555D01*
X53754691Y-58278248D01*
X53754671Y-58278253D01*
X53469787Y-58374958D01*
X53469777Y-58374962D01*
X53199942Y-58508030D01*
X53199935Y-58508034D01*
X52949774Y-58675186D01*
X52723565Y-58873565D01*
X52525189Y-59099771D01*
X52358036Y-59349931D01*
X52358029Y-59349944D01*
X52224962Y-59619777D01*
X52224958Y-59619787D01*
X52128253Y-59904671D01*
X52128248Y-59904691D01*
X52069555Y-60199762D01*
X52069553Y-60199774D01*
X52049875Y-60500000D01*
X52069553Y-60800225D01*
X52069555Y-60800237D01*
X52128248Y-61095308D01*
X52128253Y-61095328D01*
X52224958Y-61380212D01*
X52224962Y-61380222D01*
X52358030Y-61650057D01*
X52358034Y-61650064D01*
X52525186Y-61900225D01*
X52723565Y-62126434D01*
X52949774Y-62324813D01*
X53199935Y-62491965D01*
X53199942Y-62491969D01*
X53469777Y-62625037D01*
X53469787Y-62625041D01*
X53754671Y-62721746D01*
X53754675Y-62721747D01*
X53754684Y-62721750D01*
X54049773Y-62780447D01*
X54274859Y-62795200D01*
X54274863Y-62795200D01*
X54425137Y-62795200D01*
X54425141Y-62795200D01*
X54650227Y-62780447D01*
X54945316Y-62721750D01*
X54953176Y-62719082D01*
X55230212Y-62625041D01*
X55230222Y-62625037D01*
X55277549Y-62601698D01*
X55500062Y-62491967D01*
X55750227Y-62324812D01*
X55976434Y-62126434D01*
X56047272Y-62045659D01*
X56106273Y-62008235D01*
X56176142Y-62008651D01*
X56234694Y-62046774D01*
X56263341Y-62110501D01*
X56264500Y-62127418D01*
X56264500Y-71946758D01*
X56244815Y-72013797D01*
X56192011Y-72059552D01*
X56187954Y-72061319D01*
X56132904Y-72084121D01*
X55909789Y-72220846D01*
X55909788Y-72220847D01*
X55710800Y-72390800D01*
X55540847Y-72589788D01*
X55540846Y-72589789D01*
X55404120Y-72812907D01*
X55404118Y-72812910D01*
X55303980Y-73054666D01*
X55242889Y-73309128D01*
X55222359Y-73570000D01*
X55242889Y-73830871D01*
X55303980Y-74085333D01*
X55404118Y-74327089D01*
X55404120Y-74327092D01*
X55540846Y-74550210D01*
X55540847Y-74550211D01*
X55540848Y-74550213D01*
X55540850Y-74550215D01*
X55710800Y-74749200D01*
X55909785Y-74919150D01*
X55909787Y-74919151D01*
X55909788Y-74919152D01*
X55909789Y-74919153D01*
X56132905Y-75055878D01*
X56132907Y-75055879D01*
X56187952Y-75078679D01*
X56242355Y-75122518D01*
X56264421Y-75188812D01*
X56264500Y-75193240D01*
X56264500Y-77022581D01*
X56244815Y-77089620D01*
X56192011Y-77135375D01*
X56122853Y-77145319D01*
X56059297Y-77116294D01*
X56047272Y-77104340D01*
X55976434Y-77023565D01*
X55750225Y-76825186D01*
X55500064Y-76658034D01*
X55500057Y-76658030D01*
X55230222Y-76524962D01*
X55230212Y-76524958D01*
X54945328Y-76428253D01*
X54945308Y-76428248D01*
X54650237Y-76369555D01*
X54650227Y-76369553D01*
X54425141Y-76354800D01*
X54274859Y-76354800D01*
X54049773Y-76369553D01*
X54049767Y-76369554D01*
X54049762Y-76369555D01*
X53754691Y-76428248D01*
X53754671Y-76428253D01*
X53469787Y-76524958D01*
X53469777Y-76524962D01*
X53199942Y-76658030D01*
X53199935Y-76658034D01*
X52949774Y-76825186D01*
X52723565Y-77023565D01*
X52525189Y-77249771D01*
X52358036Y-77499931D01*
X52358029Y-77499944D01*
X52224962Y-77769777D01*
X52224958Y-77769787D01*
X52128253Y-78054671D01*
X52128248Y-78054691D01*
X52069555Y-78349762D01*
X52069553Y-78349774D01*
X52049875Y-78650000D01*
X52069553Y-78950225D01*
X52069555Y-78950237D01*
X52128248Y-79245308D01*
X52128253Y-79245328D01*
X52224958Y-79530212D01*
X52224962Y-79530222D01*
X52358030Y-79800057D01*
X52358034Y-79800064D01*
X52525186Y-80050225D01*
X52723565Y-80276434D01*
X52949773Y-80474812D01*
X53199938Y-80641967D01*
X53199939Y-80641967D01*
X53199940Y-80641968D01*
X53201931Y-80643118D01*
X53202405Y-80643615D01*
X53203313Y-80644222D01*
X53203177Y-80644425D01*
X53250143Y-80693689D01*
X53263361Y-80762297D01*
X53237388Y-80827159D01*
X53180470Y-80867683D01*
X53139923Y-80874500D01*
X46810452Y-80874500D01*
X46743413Y-80854815D01*
X46722771Y-80838181D01*
X41994591Y-76110000D01*
X48872359Y-76110000D01*
X48892889Y-76370871D01*
X48953980Y-76625333D01*
X49054118Y-76867089D01*
X49054120Y-76867092D01*
X49190846Y-77090210D01*
X49190847Y-77090211D01*
X49190848Y-77090213D01*
X49190850Y-77090215D01*
X49360800Y-77289200D01*
X49559785Y-77459150D01*
X49559787Y-77459151D01*
X49559788Y-77459152D01*
X49559789Y-77459153D01*
X49782907Y-77595879D01*
X49782910Y-77595881D01*
X50024666Y-77696019D01*
X50024671Y-77696021D01*
X50279123Y-77757110D01*
X50540000Y-77777641D01*
X50800877Y-77757110D01*
X51055329Y-77696021D01*
X51176211Y-77645950D01*
X51297089Y-77595881D01*
X51297090Y-77595880D01*
X51297093Y-77595879D01*
X51520215Y-77459150D01*
X51719200Y-77289200D01*
X51889150Y-77090215D01*
X52025879Y-76867093D01*
X52043238Y-76825186D01*
X52112474Y-76658034D01*
X52126021Y-76625329D01*
X52187110Y-76370877D01*
X52207641Y-76110000D01*
X52187110Y-75849123D01*
X52126021Y-75594671D01*
X52126019Y-75594666D01*
X52025881Y-75352910D01*
X52025879Y-75352907D01*
X51889153Y-75129789D01*
X51889152Y-75129788D01*
X51889151Y-75129787D01*
X51889150Y-75129785D01*
X51719200Y-74930800D01*
X51520215Y-74760850D01*
X51520213Y-74760848D01*
X51520211Y-74760847D01*
X51520210Y-74760846D01*
X51297092Y-74624120D01*
X51297089Y-74624118D01*
X51055333Y-74523980D01*
X51055329Y-74523979D01*
X50800877Y-74462890D01*
X50800874Y-74462889D01*
X50800871Y-74462889D01*
X50540000Y-74442359D01*
X50279128Y-74462889D01*
X50279124Y-74462889D01*
X50279123Y-74462890D01*
X50151897Y-74493434D01*
X50024666Y-74523980D01*
X49782910Y-74624118D01*
X49782907Y-74624120D01*
X49559789Y-74760846D01*
X49559788Y-74760847D01*
X49360800Y-74930800D01*
X49190847Y-75129788D01*
X49190846Y-75129789D01*
X49054120Y-75352907D01*
X49054118Y-75352910D01*
X48953980Y-75594666D01*
X48892889Y-75849128D01*
X48872359Y-76110000D01*
X41994591Y-76110000D01*
X37666819Y-71782228D01*
X37638767Y-71730855D01*
X52799500Y-71730855D01*
X52809913Y-71832776D01*
X52864637Y-71997922D01*
X52864642Y-71997933D01*
X52955971Y-72145999D01*
X52955974Y-72146003D01*
X53078996Y-72269025D01*
X53079000Y-72269028D01*
X53227066Y-72360357D01*
X53227069Y-72360358D01*
X53227075Y-72360362D01*
X53392225Y-72415087D01*
X53494152Y-72425500D01*
X53494157Y-72425500D01*
X54505843Y-72425500D01*
X54505848Y-72425500D01*
X54607775Y-72415087D01*
X54772925Y-72360362D01*
X54921003Y-72269026D01*
X55044026Y-72146003D01*
X55135362Y-71997925D01*
X55190087Y-71832775D01*
X55200500Y-71730848D01*
X55200500Y-71144152D01*
X55190087Y-71042225D01*
X55135362Y-70877075D01*
X55135358Y-70877069D01*
X55135357Y-70877066D01*
X55044028Y-70729000D01*
X55044025Y-70728996D01*
X54921004Y-70605975D01*
X54921003Y-70605974D01*
X54920301Y-70605541D01*
X54919921Y-70605118D01*
X54915336Y-70601493D01*
X54915955Y-70600709D01*
X54873575Y-70553598D01*
X54862349Y-70484636D01*
X54890188Y-70420552D01*
X54915455Y-70398657D01*
X54915336Y-70398507D01*
X54918687Y-70395856D01*
X54920299Y-70394459D01*
X54921003Y-70394026D01*
X55044026Y-70271003D01*
X55135362Y-70122925D01*
X55190087Y-69957775D01*
X55200500Y-69855848D01*
X55200500Y-69269152D01*
X55190087Y-69167225D01*
X55135362Y-69002075D01*
X55135358Y-69002069D01*
X55135357Y-69002066D01*
X55044028Y-68854000D01*
X55044025Y-68853996D01*
X54921003Y-68730974D01*
X54920999Y-68730971D01*
X54772933Y-68639642D01*
X54772927Y-68639639D01*
X54772925Y-68639638D01*
X54772922Y-68639637D01*
X54607776Y-68584913D01*
X54505855Y-68574500D01*
X54505848Y-68574500D01*
X53494152Y-68574500D01*
X53494144Y-68574500D01*
X53392223Y-68584913D01*
X53227077Y-68639637D01*
X53227066Y-68639642D01*
X53079000Y-68730971D01*
X53078996Y-68730974D01*
X52955974Y-68853996D01*
X52955971Y-68854000D01*
X52864642Y-69002066D01*
X52864637Y-69002077D01*
X52809913Y-69167223D01*
X52799500Y-69269144D01*
X52799500Y-69855855D01*
X52809913Y-69957776D01*
X52864637Y-70122922D01*
X52864642Y-70122933D01*
X52955971Y-70270999D01*
X52955974Y-70271003D01*
X53078996Y-70394025D01*
X53079000Y-70394028D01*
X53079703Y-70394462D01*
X53080083Y-70394885D01*
X53084664Y-70398507D01*
X53084045Y-70399289D01*
X53126428Y-70446410D01*
X53137649Y-70515372D01*
X53109806Y-70579454D01*
X53084544Y-70601342D01*
X53084664Y-70601493D01*
X53081315Y-70604140D01*
X53079703Y-70605538D01*
X53079000Y-70605971D01*
X53078996Y-70605974D01*
X52955974Y-70728996D01*
X52955971Y-70729000D01*
X52864642Y-70877066D01*
X52864637Y-70877077D01*
X52809913Y-71042223D01*
X52799500Y-71144144D01*
X52799500Y-71730855D01*
X37638767Y-71730855D01*
X37633334Y-71720905D01*
X37630500Y-71694547D01*
X37630500Y-70982006D01*
X37650185Y-70914967D01*
X37702989Y-70869212D01*
X37722413Y-70862230D01*
X37729553Y-70860317D01*
X37729553Y-70860316D01*
X37729556Y-70860316D01*
X37898226Y-70774375D01*
X38045342Y-70655242D01*
X38164475Y-70508126D01*
X38164512Y-70508052D01*
X38164546Y-70508016D01*
X38168014Y-70502677D01*
X38168990Y-70503310D01*
X38212484Y-70457255D01*
X38280304Y-70440455D01*
X38346440Y-70462989D01*
X38381246Y-70503157D01*
X38381986Y-70502677D01*
X38385444Y-70508002D01*
X38385488Y-70508053D01*
X38385526Y-70508128D01*
X38422348Y-70553598D01*
X38504658Y-70655242D01*
X38585946Y-70721068D01*
X38651773Y-70774375D01*
X38651775Y-70774376D01*
X38707279Y-70802656D01*
X38820444Y-70860316D01*
X39003297Y-70909312D01*
X39029506Y-70911374D01*
X39081923Y-70915500D01*
X39081924Y-70915499D01*
X39081925Y-70915500D01*
X39544999Y-70915499D01*
X40008075Y-70915499D01*
X40023799Y-70914261D01*
X40086703Y-70909312D01*
X40269556Y-70860316D01*
X40438226Y-70774375D01*
X40585342Y-70655242D01*
X40704475Y-70508126D01*
X40704512Y-70508052D01*
X40704546Y-70508016D01*
X40708014Y-70502677D01*
X40708990Y-70503310D01*
X40752484Y-70457255D01*
X40820304Y-70440455D01*
X40886440Y-70462989D01*
X40921246Y-70503157D01*
X40921986Y-70502677D01*
X40925444Y-70508002D01*
X40925488Y-70508053D01*
X40925526Y-70508128D01*
X40962348Y-70553598D01*
X41044658Y-70655242D01*
X41125946Y-70721068D01*
X41191773Y-70774375D01*
X41191775Y-70774376D01*
X41247279Y-70802656D01*
X41360444Y-70860316D01*
X41543297Y-70909312D01*
X41569506Y-70911374D01*
X41621923Y-70915500D01*
X41621924Y-70915499D01*
X41621925Y-70915500D01*
X42084999Y-70915499D01*
X42548075Y-70915499D01*
X42563799Y-70914261D01*
X42626703Y-70909312D01*
X42809556Y-70860316D01*
X42978226Y-70774375D01*
X43125342Y-70655242D01*
X43244475Y-70508126D01*
X43330416Y-70339456D01*
X43379412Y-70156603D01*
X43385596Y-70078022D01*
X43385600Y-70077977D01*
X43385599Y-68152024D01*
X43385599Y-68152025D01*
X43379412Y-68073397D01*
X43330416Y-67890544D01*
X43267470Y-67767005D01*
X43244476Y-67721875D01*
X43244475Y-67721873D01*
X43191168Y-67656046D01*
X43125342Y-67574758D01*
X43027918Y-67495865D01*
X42988206Y-67438377D01*
X42985879Y-67368546D01*
X43021675Y-67308543D01*
X43084229Y-67277417D01*
X43105949Y-67275499D01*
X43858020Y-67275499D01*
X43858021Y-67275499D01*
X43884228Y-67273436D01*
X43936645Y-67269312D01*
X44119488Y-67220320D01*
X44248008Y-67154835D01*
X44288146Y-67134385D01*
X44288147Y-67134383D01*
X44288149Y-67134383D01*
X44435257Y-67015257D01*
X44554383Y-66868149D01*
X44555013Y-66866914D01*
X44583803Y-66810409D01*
X44640320Y-66699488D01*
X44689312Y-66516645D01*
X44695500Y-66438021D01*
X44695499Y-65511980D01*
X44689312Y-65433355D01*
X44640320Y-65250512D01*
X44580897Y-65133887D01*
X44554385Y-65081853D01*
X44509800Y-65026796D01*
X44435257Y-64934743D01*
X44348958Y-64864859D01*
X44288146Y-64815614D01*
X44277921Y-64810405D01*
X44227124Y-64762431D01*
X44210329Y-64694610D01*
X44232866Y-64628475D01*
X44277921Y-64589435D01*
X44290996Y-64582773D01*
X44290997Y-64582771D01*
X44290999Y-64582771D01*
X44437078Y-64464478D01*
X44555371Y-64318399D01*
X44557949Y-64313341D01*
X44588869Y-64252654D01*
X44640706Y-64150918D01*
X44689356Y-63969354D01*
X44695500Y-63891289D01*
X44695499Y-62978712D01*
X44689356Y-62900646D01*
X44640706Y-62719082D01*
X44611534Y-62661829D01*
X44555373Y-62551603D01*
X44507078Y-62491965D01*
X44437078Y-62405522D01*
X44290999Y-62287229D01*
X44290998Y-62287228D01*
X44278691Y-62280958D01*
X44267950Y-62275485D01*
X44217154Y-62227513D01*
X44200358Y-62159692D01*
X44222894Y-62093557D01*
X44267949Y-62054515D01*
X44290999Y-62042771D01*
X44437078Y-61924478D01*
X44555371Y-61778399D01*
X44557949Y-61773341D01*
X44620761Y-61650062D01*
X44640706Y-61610918D01*
X44689356Y-61429354D01*
X44695500Y-61351289D01*
X44695499Y-60438712D01*
X44689356Y-60360646D01*
X44640706Y-60179082D01*
X44589454Y-60078493D01*
X44555373Y-60011603D01*
X44509218Y-59954607D01*
X44437078Y-59865522D01*
X44290999Y-59747229D01*
X44290998Y-59747228D01*
X44278691Y-59740958D01*
X44267950Y-59735485D01*
X44217154Y-59687513D01*
X44200358Y-59619692D01*
X44222894Y-59553557D01*
X44267949Y-59514515D01*
X44290999Y-59502771D01*
X44437078Y-59384478D01*
X44555371Y-59238399D01*
X44557613Y-59234000D01*
X44605915Y-59139199D01*
X44640706Y-59070918D01*
X44689356Y-58889354D01*
X44695500Y-58811289D01*
X44695499Y-57960000D01*
X48872359Y-57960000D01*
X48892889Y-58220871D01*
X48953980Y-58475333D01*
X49054118Y-58717089D01*
X49054120Y-58717092D01*
X49190846Y-58940210D01*
X49190847Y-58940211D01*
X49190848Y-58940213D01*
X49190850Y-58940215D01*
X49360800Y-59139200D01*
X49559785Y-59309150D01*
X49559787Y-59309151D01*
X49559788Y-59309152D01*
X49559789Y-59309153D01*
X49782907Y-59445879D01*
X49782910Y-59445881D01*
X50024666Y-59546019D01*
X50024671Y-59546021D01*
X50279123Y-59607110D01*
X50540000Y-59627641D01*
X50800877Y-59607110D01*
X51055329Y-59546021D01*
X51176211Y-59495950D01*
X51297089Y-59445881D01*
X51297090Y-59445880D01*
X51297093Y-59445879D01*
X51520215Y-59309150D01*
X51719200Y-59139200D01*
X51889150Y-58940215D01*
X52025879Y-58717093D01*
X52043238Y-58675186D01*
X52112474Y-58508034D01*
X52126021Y-58475329D01*
X52187110Y-58220877D01*
X52207641Y-57960000D01*
X52187110Y-57699123D01*
X52126021Y-57444671D01*
X52103218Y-57389621D01*
X52095750Y-57320155D01*
X52127025Y-57257676D01*
X52130071Y-57254518D01*
X54383788Y-55000801D01*
X54396042Y-54990986D01*
X54395859Y-54990764D01*
X54401866Y-54985792D01*
X54401877Y-54985786D01*
X54436195Y-54949241D01*
X54449227Y-54935364D01*
X54459671Y-54924918D01*
X54470120Y-54914471D01*
X54474379Y-54908978D01*
X54478152Y-54904561D01*
X54510062Y-54870582D01*
X54519715Y-54853020D01*
X54530389Y-54836770D01*
X54542673Y-54820936D01*
X54561180Y-54778167D01*
X54563749Y-54772924D01*
X54586196Y-54732093D01*
X54586197Y-54732092D01*
X54591177Y-54712691D01*
X54597478Y-54694288D01*
X54605438Y-54675896D01*
X54612730Y-54629849D01*
X54613911Y-54624152D01*
X54614737Y-54620936D01*
X54625500Y-54579019D01*
X54625500Y-54558983D01*
X54627027Y-54539582D01*
X54630160Y-54519804D01*
X54629175Y-54509387D01*
X54642463Y-54440794D01*
X54690726Y-54390273D01*
X54713619Y-54380013D01*
X54772925Y-54360362D01*
X54921003Y-54269026D01*
X55044026Y-54146003D01*
X55135362Y-53997925D01*
X55190087Y-53832775D01*
X55200500Y-53730848D01*
X55200500Y-53144152D01*
X55190087Y-53042225D01*
X55135362Y-52877075D01*
X55135358Y-52877069D01*
X55135357Y-52877066D01*
X55044028Y-52729000D01*
X55044025Y-52728996D01*
X54921004Y-52605975D01*
X54921003Y-52605974D01*
X54920301Y-52605541D01*
X54919921Y-52605118D01*
X54915336Y-52601493D01*
X54915955Y-52600709D01*
X54873575Y-52553598D01*
X54862349Y-52484636D01*
X54890188Y-52420552D01*
X54915455Y-52398657D01*
X54915336Y-52398507D01*
X54918687Y-52395856D01*
X54920299Y-52394459D01*
X54921003Y-52394026D01*
X55044026Y-52271003D01*
X55135362Y-52122925D01*
X55190087Y-51957775D01*
X55200500Y-51855848D01*
X55200500Y-51269152D01*
X55190087Y-51167225D01*
X55135362Y-51002075D01*
X55135358Y-51002069D01*
X55135357Y-51002066D01*
X55044028Y-50854000D01*
X55044025Y-50853996D01*
X54921003Y-50730974D01*
X54920999Y-50730971D01*
X54772933Y-50639642D01*
X54772927Y-50639639D01*
X54772925Y-50639638D01*
X54772922Y-50639637D01*
X54607776Y-50584913D01*
X54505855Y-50574500D01*
X54505848Y-50574500D01*
X53494152Y-50574500D01*
X53494144Y-50574500D01*
X53392223Y-50584913D01*
X53227077Y-50639637D01*
X53227066Y-50639642D01*
X53079000Y-50730971D01*
X53078996Y-50730974D01*
X52955974Y-50853996D01*
X52955971Y-50854000D01*
X52864642Y-51002066D01*
X52864637Y-51002077D01*
X52809913Y-51167223D01*
X52799500Y-51269144D01*
X52799500Y-51855855D01*
X52809913Y-51957776D01*
X52864637Y-52122922D01*
X52864642Y-52122933D01*
X52955971Y-52270999D01*
X52955974Y-52271003D01*
X53078996Y-52394025D01*
X53079000Y-52394028D01*
X53079703Y-52394462D01*
X53080083Y-52394885D01*
X53084664Y-52398507D01*
X53084045Y-52399289D01*
X53126428Y-52446410D01*
X53137649Y-52515372D01*
X53109806Y-52579454D01*
X53084544Y-52601342D01*
X53084664Y-52601493D01*
X53081315Y-52604140D01*
X53079703Y-52605538D01*
X53079000Y-52605971D01*
X53078996Y-52605974D01*
X52955974Y-52728996D01*
X52955971Y-52729000D01*
X52864642Y-52877066D01*
X52864637Y-52877077D01*
X52809913Y-53042223D01*
X52799500Y-53144144D01*
X52799500Y-53730855D01*
X52809913Y-53832776D01*
X52864637Y-53997922D01*
X52864642Y-53997933D01*
X52955971Y-54145999D01*
X52955974Y-54146003D01*
X53078997Y-54269026D01*
X53110901Y-54288705D01*
X53157625Y-54340653D01*
X53168846Y-54409616D01*
X53141002Y-54473698D01*
X53133484Y-54481924D01*
X51245508Y-56369899D01*
X51184185Y-56403384D01*
X51114493Y-56398400D01*
X51110375Y-56396779D01*
X51055329Y-56373978D01*
X50800873Y-56312889D01*
X50540000Y-56292359D01*
X50279128Y-56312889D01*
X50279124Y-56312889D01*
X50279123Y-56312890D01*
X50151897Y-56343434D01*
X50024666Y-56373980D01*
X49782910Y-56474118D01*
X49782907Y-56474120D01*
X49559789Y-56610846D01*
X49559788Y-56610847D01*
X49360800Y-56780800D01*
X49190847Y-56979788D01*
X49190846Y-56979789D01*
X49054120Y-57202907D01*
X49054118Y-57202910D01*
X48953980Y-57444666D01*
X48947513Y-57471603D01*
X48907305Y-57639083D01*
X48892889Y-57699128D01*
X48872359Y-57960000D01*
X44695499Y-57960000D01*
X44695499Y-57898712D01*
X44689356Y-57820646D01*
X44640706Y-57639082D01*
X44589454Y-57538493D01*
X44555373Y-57471603D01*
X44488986Y-57389623D01*
X44437078Y-57325522D01*
X44290999Y-57207229D01*
X44290998Y-57207228D01*
X44278691Y-57200958D01*
X44267950Y-57195485D01*
X44217154Y-57147513D01*
X44200358Y-57079692D01*
X44222894Y-57013557D01*
X44267949Y-56974515D01*
X44290999Y-56962771D01*
X44437078Y-56844478D01*
X44555371Y-56698399D01*
X44557949Y-56693341D01*
X44599979Y-56610850D01*
X44640706Y-56530918D01*
X44689356Y-56349354D01*
X44695500Y-56271289D01*
X44695499Y-55358712D01*
X44689356Y-55280646D01*
X44640706Y-55099082D01*
X44602661Y-55024414D01*
X44555373Y-54931603D01*
X44505959Y-54870583D01*
X44437078Y-54785522D01*
X44301702Y-54675896D01*
X44290996Y-54667226D01*
X44123516Y-54581893D01*
X43941951Y-54533243D01*
X43863892Y-54527100D01*
X43090395Y-54527100D01*
X43023356Y-54507415D01*
X42977601Y-54454611D01*
X42967657Y-54385453D01*
X42996682Y-54321897D01*
X43012356Y-54306736D01*
X43125342Y-54215242D01*
X43244475Y-54068126D01*
X43330416Y-53899456D01*
X43379412Y-53716603D01*
X43385600Y-53637975D01*
X43385599Y-51712026D01*
X43379412Y-51633397D01*
X43330416Y-51450544D01*
X43267470Y-51327005D01*
X43244476Y-51281875D01*
X43244475Y-51281873D01*
X43151633Y-51167225D01*
X43125342Y-51134758D01*
X43059514Y-51081451D01*
X42978226Y-51015624D01*
X42978224Y-51015623D01*
X42867214Y-50959062D01*
X42809556Y-50929684D01*
X42742624Y-50911749D01*
X42626701Y-50880687D01*
X42548077Y-50874500D01*
X42548075Y-50874500D01*
X42085000Y-50874500D01*
X41621924Y-50874501D01*
X41621925Y-50874501D01*
X41543300Y-50880687D01*
X41360444Y-50929684D01*
X41191775Y-51015623D01*
X41191773Y-51015624D01*
X41044658Y-51134758D01*
X40925524Y-51281873D01*
X40925484Y-51281953D01*
X40925449Y-51281989D01*
X40921986Y-51287323D01*
X40921010Y-51286689D01*
X40877509Y-51332749D01*
X40809688Y-51349543D01*
X40743553Y-51327005D01*
X40708753Y-51286843D01*
X40708014Y-51287323D01*
X40704559Y-51282002D01*
X40704516Y-51281953D01*
X40704476Y-51281875D01*
X40704475Y-51281873D01*
X40611633Y-51167225D01*
X40585342Y-51134758D01*
X40519514Y-51081451D01*
X40438226Y-51015624D01*
X40438224Y-51015623D01*
X40327214Y-50959062D01*
X40269556Y-50929684D01*
X40202624Y-50911749D01*
X40086701Y-50880687D01*
X40008077Y-50874500D01*
X40008075Y-50874500D01*
X39397703Y-50874500D01*
X39330664Y-50854815D01*
X39310022Y-50838181D01*
X29661819Y-41189977D01*
X29628334Y-41128654D01*
X29625500Y-41102296D01*
X29625500Y-40199999D01*
X36159322Y-40199999D01*
X36159323Y-40200000D01*
X37064617Y-40200000D01*
X37050000Y-40348412D01*
X37050000Y-40551588D01*
X37064617Y-40700000D01*
X36159323Y-40700000D01*
X36164918Y-40778224D01*
X36164919Y-40778231D01*
X36224207Y-41050774D01*
X36321689Y-41312134D01*
X36455361Y-41556938D01*
X36622523Y-41780238D01*
X36622533Y-41780250D01*
X36819749Y-41977466D01*
X36819761Y-41977476D01*
X37043061Y-42144637D01*
X37043061Y-42144638D01*
X37287865Y-42278310D01*
X37549225Y-42375792D01*
X37821772Y-42435081D01*
X37850000Y-42437100D01*
X37850000Y-41521411D01*
X37894164Y-41534808D01*
X38100000Y-41555081D01*
X38305836Y-41534808D01*
X38350000Y-41521411D01*
X38350000Y-42437099D01*
X38378227Y-42435081D01*
X38650774Y-42375792D01*
X38912134Y-42278310D01*
X39156938Y-42144638D01*
X39156938Y-42144637D01*
X39380238Y-41977476D01*
X39380250Y-41977466D01*
X39577466Y-41780250D01*
X39577476Y-41780238D01*
X39744637Y-41556938D01*
X39744638Y-41556938D01*
X39878310Y-41312134D01*
X39975792Y-41050774D01*
X40035080Y-40778231D01*
X40035081Y-40778224D01*
X40040677Y-40700000D01*
X39135383Y-40700000D01*
X39150000Y-40551588D01*
X39150000Y-40348412D01*
X39135383Y-40200000D01*
X40040677Y-40200000D01*
X40040677Y-40199999D01*
X40035081Y-40121775D01*
X40035080Y-40121768D01*
X39975792Y-39849225D01*
X39961162Y-39810000D01*
X48872359Y-39810000D01*
X48892889Y-40070871D01*
X48953980Y-40325333D01*
X49054118Y-40567089D01*
X49054120Y-40567092D01*
X49190846Y-40790210D01*
X49190847Y-40790211D01*
X49190848Y-40790213D01*
X49190850Y-40790215D01*
X49360800Y-40989200D01*
X49559785Y-41159150D01*
X49559787Y-41159151D01*
X49559788Y-41159152D01*
X49559789Y-41159153D01*
X49782907Y-41295879D01*
X49782910Y-41295881D01*
X49979397Y-41377268D01*
X50024671Y-41396021D01*
X50279123Y-41457110D01*
X50540000Y-41477641D01*
X50800877Y-41457110D01*
X51055329Y-41396021D01*
X51214708Y-41330004D01*
X51297089Y-41295881D01*
X51297090Y-41295880D01*
X51297093Y-41295879D01*
X51520215Y-41159150D01*
X51719200Y-40989200D01*
X51889150Y-40790215D01*
X52025879Y-40567093D01*
X52032302Y-40551588D01*
X52112474Y-40358034D01*
X52126021Y-40325329D01*
X52187110Y-40070877D01*
X52207641Y-39810000D01*
X52187110Y-39549123D01*
X52126021Y-39294671D01*
X52103218Y-39239621D01*
X52095750Y-39170155D01*
X52127025Y-39107676D01*
X52130071Y-39104518D01*
X54383788Y-36850801D01*
X54396042Y-36840986D01*
X54395859Y-36840764D01*
X54401866Y-36835792D01*
X54401877Y-36835786D01*
X54432775Y-36802882D01*
X54449227Y-36785364D01*
X54459671Y-36774918D01*
X54470120Y-36764471D01*
X54474379Y-36758978D01*
X54478152Y-36754561D01*
X54510062Y-36720582D01*
X54519715Y-36703020D01*
X54530389Y-36686770D01*
X54542673Y-36670936D01*
X54561180Y-36628167D01*
X54563749Y-36622924D01*
X54586196Y-36582093D01*
X54586197Y-36582092D01*
X54591177Y-36562691D01*
X54597478Y-36544288D01*
X54605438Y-36525896D01*
X54612730Y-36479849D01*
X54613911Y-36474152D01*
X54614737Y-36470936D01*
X54625500Y-36429019D01*
X54625500Y-36408983D01*
X54627027Y-36389582D01*
X54630160Y-36369804D01*
X54625775Y-36323415D01*
X54625500Y-36317577D01*
X54625500Y-36061254D01*
X54645185Y-35994215D01*
X54697989Y-35948460D01*
X54710492Y-35943549D01*
X54772925Y-35922862D01*
X54921003Y-35831526D01*
X55044026Y-35708503D01*
X55135362Y-35560425D01*
X55190087Y-35395275D01*
X55200500Y-35293348D01*
X55200500Y-34706652D01*
X55190087Y-34604725D01*
X55135362Y-34439575D01*
X55135358Y-34439569D01*
X55135357Y-34439566D01*
X55044028Y-34291500D01*
X55044025Y-34291496D01*
X54921004Y-34168475D01*
X54921003Y-34168474D01*
X54920301Y-34168041D01*
X54919921Y-34167618D01*
X54915336Y-34163993D01*
X54915955Y-34163209D01*
X54873575Y-34116098D01*
X54862349Y-34047136D01*
X54890188Y-33983052D01*
X54915455Y-33961157D01*
X54915336Y-33961007D01*
X54918687Y-33958356D01*
X54920299Y-33956959D01*
X54921003Y-33956526D01*
X55044026Y-33833503D01*
X55135362Y-33685425D01*
X55190087Y-33520275D01*
X55200500Y-33418348D01*
X55200500Y-32831652D01*
X55190087Y-32729725D01*
X55135362Y-32564575D01*
X55135358Y-32564569D01*
X55135357Y-32564566D01*
X55044028Y-32416500D01*
X55044025Y-32416496D01*
X54921003Y-32293474D01*
X54920999Y-32293471D01*
X54772933Y-32202142D01*
X54772927Y-32202139D01*
X54772925Y-32202138D01*
X54772294Y-32201929D01*
X54607776Y-32147413D01*
X54505855Y-32137000D01*
X54505848Y-32137000D01*
X54284102Y-32137000D01*
X54258321Y-32134290D01*
X54094646Y-32099500D01*
X53905354Y-32099500D01*
X53741679Y-32134290D01*
X53715898Y-32137000D01*
X53494144Y-32137000D01*
X53392223Y-32147413D01*
X53227077Y-32202137D01*
X53227066Y-32202142D01*
X53079000Y-32293471D01*
X53078996Y-32293474D01*
X52955974Y-32416496D01*
X52955971Y-32416500D01*
X52864642Y-32564566D01*
X52864637Y-32564577D01*
X52809913Y-32729723D01*
X52799500Y-32831644D01*
X52799500Y-33418355D01*
X52809913Y-33520276D01*
X52864637Y-33685422D01*
X52864642Y-33685433D01*
X52955971Y-33833499D01*
X52955974Y-33833503D01*
X53078996Y-33956525D01*
X53079000Y-33956528D01*
X53079703Y-33956962D01*
X53080083Y-33957385D01*
X53084664Y-33961007D01*
X53084045Y-33961789D01*
X53126428Y-34008910D01*
X53137649Y-34077872D01*
X53109806Y-34141954D01*
X53084544Y-34163842D01*
X53084664Y-34163993D01*
X53081315Y-34166640D01*
X53079703Y-34168038D01*
X53079000Y-34168471D01*
X53078996Y-34168474D01*
X52955974Y-34291496D01*
X52955971Y-34291500D01*
X52864642Y-34439566D01*
X52864637Y-34439577D01*
X52809913Y-34604723D01*
X52799500Y-34706644D01*
X52799500Y-35293355D01*
X52809913Y-35395276D01*
X52864637Y-35560422D01*
X52864642Y-35560433D01*
X52955971Y-35708499D01*
X52955974Y-35708503D01*
X53078996Y-35831525D01*
X53079000Y-35831528D01*
X53227066Y-35922857D01*
X53227069Y-35922858D01*
X53227075Y-35922862D01*
X53273199Y-35938145D01*
X53330643Y-35977917D01*
X53357467Y-36042432D01*
X53345153Y-36111208D01*
X53321876Y-36143532D01*
X51245508Y-38219899D01*
X51184185Y-38253384D01*
X51114493Y-38248400D01*
X51110375Y-38246779D01*
X51055329Y-38223978D01*
X50800873Y-38162889D01*
X50540000Y-38142359D01*
X50279128Y-38162889D01*
X50279124Y-38162889D01*
X50279123Y-38162890D01*
X50151897Y-38193434D01*
X50024666Y-38223980D01*
X49782910Y-38324118D01*
X49782907Y-38324120D01*
X49559789Y-38460846D01*
X49559788Y-38460847D01*
X49360800Y-38630800D01*
X49190847Y-38829788D01*
X49190846Y-38829789D01*
X49054120Y-39052907D01*
X49054118Y-39052910D01*
X48953980Y-39294666D01*
X48892889Y-39549128D01*
X48872359Y-39810000D01*
X39961162Y-39810000D01*
X39878310Y-39587865D01*
X39744638Y-39343061D01*
X39577476Y-39119761D01*
X39577466Y-39119749D01*
X39380250Y-38922533D01*
X39380238Y-38922523D01*
X39156938Y-38755362D01*
X39156938Y-38755361D01*
X38912134Y-38621689D01*
X38650774Y-38524207D01*
X38378234Y-38464919D01*
X38378220Y-38464917D01*
X38350000Y-38462899D01*
X38350000Y-39378588D01*
X38305836Y-39365192D01*
X38100000Y-39344919D01*
X37894164Y-39365192D01*
X37850000Y-39378588D01*
X37850000Y-38462899D01*
X37849999Y-38462899D01*
X37821779Y-38464917D01*
X37821765Y-38464919D01*
X37549225Y-38524207D01*
X37287865Y-38621689D01*
X37043061Y-38755361D01*
X37043061Y-38755362D01*
X36819761Y-38922523D01*
X36819749Y-38922533D01*
X36622533Y-39119749D01*
X36622523Y-39119761D01*
X36455362Y-39343061D01*
X36455361Y-39343061D01*
X36321689Y-39587865D01*
X36224207Y-39849225D01*
X36164919Y-40121768D01*
X36164918Y-40121775D01*
X36159322Y-40199999D01*
X29625500Y-40199999D01*
X29625500Y-34617799D01*
X29645185Y-34550760D01*
X29678377Y-34516224D01*
X29814620Y-34420826D01*
X29970826Y-34264620D01*
X30097534Y-34083662D01*
X30190894Y-33883450D01*
X30248070Y-33670068D01*
X30267323Y-33450000D01*
X32733179Y-33450000D01*
X32752424Y-33669976D01*
X32752426Y-33669986D01*
X32809575Y-33883270D01*
X32809580Y-33883284D01*
X32902899Y-34083407D01*
X32902900Y-34083409D01*
X32948258Y-34148187D01*
X33516922Y-33579523D01*
X33540507Y-33659844D01*
X33618239Y-33780798D01*
X33726900Y-33874952D01*
X33857685Y-33934680D01*
X33867466Y-33936086D01*
X33301811Y-34501741D01*
X33366582Y-34547094D01*
X33366592Y-34547100D01*
X33566715Y-34640419D01*
X33566729Y-34640424D01*
X33780013Y-34697573D01*
X33780023Y-34697575D01*
X33999999Y-34716821D01*
X34000001Y-34716821D01*
X34219976Y-34697575D01*
X34219986Y-34697573D01*
X34433270Y-34640424D01*
X34433284Y-34640419D01*
X34633408Y-34547100D01*
X34633420Y-34547093D01*
X34698186Y-34501742D01*
X34698187Y-34501740D01*
X34132534Y-33936086D01*
X34142315Y-33934680D01*
X34273100Y-33874952D01*
X34381761Y-33780798D01*
X34459493Y-33659844D01*
X34483076Y-33579523D01*
X35051740Y-34148187D01*
X35051742Y-34148186D01*
X35097093Y-34083420D01*
X35097100Y-34083408D01*
X35190419Y-33883284D01*
X35190424Y-33883270D01*
X35247573Y-33669986D01*
X35247575Y-33669976D01*
X35266821Y-33450000D01*
X35266821Y-33449999D01*
X35247575Y-33230023D01*
X35247573Y-33230013D01*
X35190424Y-33016729D01*
X35190420Y-33016720D01*
X35097098Y-32816590D01*
X35051740Y-32751811D01*
X34483076Y-33320475D01*
X34459493Y-33240156D01*
X34381761Y-33119202D01*
X34273100Y-33025048D01*
X34142315Y-32965320D01*
X34132533Y-32963913D01*
X34698187Y-32398258D01*
X34633409Y-32352900D01*
X34633407Y-32352899D01*
X34433284Y-32259580D01*
X34433270Y-32259575D01*
X34219986Y-32202426D01*
X34219976Y-32202424D01*
X34000001Y-32183179D01*
X33999999Y-32183179D01*
X33780023Y-32202424D01*
X33780013Y-32202426D01*
X33566729Y-32259575D01*
X33566720Y-32259579D01*
X33366586Y-32352903D01*
X33301812Y-32398257D01*
X33301811Y-32398258D01*
X33867467Y-32963913D01*
X33857685Y-32965320D01*
X33726900Y-33025048D01*
X33618239Y-33119202D01*
X33540507Y-33240156D01*
X33516923Y-33320476D01*
X32948258Y-32751811D01*
X32948257Y-32751812D01*
X32902903Y-32816586D01*
X32809579Y-33016720D01*
X32809575Y-33016729D01*
X32752426Y-33230013D01*
X32752424Y-33230023D01*
X32733179Y-33449999D01*
X32733179Y-33450000D01*
X30267323Y-33450000D01*
X30264554Y-33418355D01*
X30248070Y-33229937D01*
X30248070Y-33229932D01*
X30190894Y-33016550D01*
X30097534Y-32816339D01*
X29970826Y-32635380D01*
X29814620Y-32479174D01*
X29814616Y-32479171D01*
X29814615Y-32479170D01*
X29633666Y-32352468D01*
X29633662Y-32352466D01*
X29633660Y-32352465D01*
X29433450Y-32259106D01*
X29433447Y-32259105D01*
X29433445Y-32259104D01*
X29220070Y-32201930D01*
X29220062Y-32201929D01*
X29000002Y-32182677D01*
X28999998Y-32182677D01*
X28779937Y-32201929D01*
X28779929Y-32201930D01*
X28566554Y-32259104D01*
X28566548Y-32259107D01*
X28366340Y-32352465D01*
X28366338Y-32352466D01*
X28185377Y-32479175D01*
X28029175Y-32635377D01*
X27902466Y-32816338D01*
X27902465Y-32816340D01*
X27809107Y-33016548D01*
X27809104Y-33016554D01*
X27751930Y-33229929D01*
X27751929Y-33229937D01*
X27732677Y-33449997D01*
X27732677Y-33450002D01*
X27751929Y-33670062D01*
X27751930Y-33670070D01*
X27809104Y-33883445D01*
X27809105Y-33883447D01*
X27809106Y-33883450D01*
X27845636Y-33961789D01*
X27902466Y-34083662D01*
X27902468Y-34083666D01*
X28029170Y-34264615D01*
X28029175Y-34264621D01*
X28185378Y-34420824D01*
X28185384Y-34420829D01*
X28212156Y-34439575D01*
X28300937Y-34501740D01*
X28321623Y-34516224D01*
X28365248Y-34570801D01*
X28374500Y-34617799D01*
X28374500Y-41330004D01*
X28372775Y-41345621D01*
X28373061Y-41345648D01*
X28372326Y-41353414D01*
X28374500Y-41422563D01*
X28374500Y-41452092D01*
X28374501Y-41452109D01*
X28375368Y-41458980D01*
X28375826Y-41464799D01*
X28377290Y-41511373D01*
X28377291Y-41511376D01*
X28382880Y-41530616D01*
X28386824Y-41549660D01*
X28387744Y-41556938D01*
X28389336Y-41569540D01*
X28406490Y-41612868D01*
X28408382Y-41618396D01*
X28421381Y-41663137D01*
X28431580Y-41680383D01*
X28440138Y-41697852D01*
X28447514Y-41716481D01*
X28474898Y-41754172D01*
X28478106Y-41759056D01*
X28501827Y-41799165D01*
X28501833Y-41799173D01*
X28515990Y-41813329D01*
X28528628Y-41828125D01*
X28540405Y-41844335D01*
X28540406Y-41844336D01*
X28576309Y-41874037D01*
X28580620Y-41877959D01*
X31044626Y-44341965D01*
X33372882Y-46670221D01*
X33406367Y-46731544D01*
X33401383Y-46801236D01*
X33359511Y-46857169D01*
X33356325Y-46859477D01*
X33185375Y-46979177D01*
X33029175Y-47135377D01*
X32902466Y-47316338D01*
X32902462Y-47316345D01*
X32862104Y-47402892D01*
X32815931Y-47455331D01*
X32748738Y-47474482D01*
X32681857Y-47454265D01*
X32637341Y-47402890D01*
X32597100Y-47316593D01*
X32597099Y-47316591D01*
X32551740Y-47251811D01*
X31983076Y-47820475D01*
X31959493Y-47740156D01*
X31881761Y-47619202D01*
X31773100Y-47525048D01*
X31642315Y-47465320D01*
X31632533Y-47463913D01*
X32198187Y-46898258D01*
X32133409Y-46852900D01*
X32133407Y-46852899D01*
X31933284Y-46759580D01*
X31933270Y-46759575D01*
X31719986Y-46702426D01*
X31719976Y-46702424D01*
X31500001Y-46683179D01*
X31499999Y-46683179D01*
X31280023Y-46702424D01*
X31280013Y-46702426D01*
X31066729Y-46759575D01*
X31066720Y-46759579D01*
X30866586Y-46852903D01*
X30801812Y-46898257D01*
X30801811Y-46898258D01*
X31367467Y-47463913D01*
X31357685Y-47465320D01*
X31226900Y-47525048D01*
X31118239Y-47619202D01*
X31040507Y-47740156D01*
X31016923Y-47820476D01*
X30448258Y-47251811D01*
X30448257Y-47251812D01*
X30402903Y-47316586D01*
X30362658Y-47402891D01*
X30316485Y-47455330D01*
X30249292Y-47474482D01*
X30182411Y-47454266D01*
X30137894Y-47402891D01*
X30097652Y-47316593D01*
X30097534Y-47316339D01*
X29970826Y-47135380D01*
X29814620Y-46979174D01*
X29814616Y-46979171D01*
X29814615Y-46979170D01*
X29633666Y-46852468D01*
X29633662Y-46852466D01*
X29523798Y-46801236D01*
X29433450Y-46759106D01*
X29433447Y-46759105D01*
X29433445Y-46759104D01*
X29220070Y-46701930D01*
X29220062Y-46701929D01*
X29000002Y-46682677D01*
X28999998Y-46682677D01*
X28779937Y-46701929D01*
X28779929Y-46701930D01*
X28566554Y-46759104D01*
X28566548Y-46759107D01*
X28366340Y-46852465D01*
X28366338Y-46852466D01*
X28185377Y-46979175D01*
X28029175Y-47135377D01*
X27902466Y-47316338D01*
X27902465Y-47316340D01*
X27809107Y-47516548D01*
X27809104Y-47516554D01*
X27751930Y-47729929D01*
X27751929Y-47729937D01*
X27732677Y-47949997D01*
X27732677Y-47950002D01*
X27751929Y-48170062D01*
X27751930Y-48170070D01*
X27809104Y-48383445D01*
X27809105Y-48383447D01*
X27809106Y-48383450D01*
X27840139Y-48450000D01*
X27902466Y-48583662D01*
X27902468Y-48583666D01*
X28029170Y-48764615D01*
X28029175Y-48764621D01*
X28185378Y-48920824D01*
X28185384Y-48920829D01*
X28366333Y-49047531D01*
X28366335Y-49047532D01*
X28366338Y-49047534D01*
X28566550Y-49140894D01*
X28779932Y-49198070D01*
X28937123Y-49211822D01*
X28999998Y-49217323D01*
X29000000Y-49217323D01*
X29000002Y-49217323D01*
X29055017Y-49212509D01*
X29220068Y-49198070D01*
X29433450Y-49140894D01*
X29633662Y-49047534D01*
X29814620Y-48920826D01*
X29970826Y-48764620D01*
X30097534Y-48583662D01*
X30137894Y-48497108D01*
X30184066Y-48444669D01*
X30251259Y-48425517D01*
X30318140Y-48445732D01*
X30362658Y-48497109D01*
X30402899Y-48583407D01*
X30402900Y-48583409D01*
X30448258Y-48648187D01*
X31016922Y-48079523D01*
X31040507Y-48159844D01*
X31118239Y-48280798D01*
X31226900Y-48374952D01*
X31357685Y-48434680D01*
X31367466Y-48436086D01*
X30801811Y-49001741D01*
X30866582Y-49047094D01*
X30866592Y-49047100D01*
X31066715Y-49140419D01*
X31066729Y-49140424D01*
X31280013Y-49197573D01*
X31280023Y-49197575D01*
X31499999Y-49216821D01*
X31500001Y-49216821D01*
X31719976Y-49197575D01*
X31719986Y-49197573D01*
X31933270Y-49140424D01*
X31933284Y-49140419D01*
X32133408Y-49047100D01*
X32133420Y-49047093D01*
X32198186Y-49001742D01*
X32198187Y-49001740D01*
X31632534Y-48436086D01*
X31642315Y-48434680D01*
X31773100Y-48374952D01*
X31881761Y-48280798D01*
X31959493Y-48159844D01*
X31983076Y-48079523D01*
X32551740Y-48648187D01*
X32551742Y-48648186D01*
X32597093Y-48583420D01*
X32597095Y-48583417D01*
X32637341Y-48497109D01*
X32683513Y-48444670D01*
X32750707Y-48425517D01*
X32817588Y-48445732D01*
X32862106Y-48497109D01*
X32902464Y-48583658D01*
X32902468Y-48583666D01*
X33029170Y-48764615D01*
X33029175Y-48764621D01*
X33185378Y-48920824D01*
X33185384Y-48920829D01*
X33366333Y-49047531D01*
X33366335Y-49047532D01*
X33366338Y-49047534D01*
X33566550Y-49140894D01*
X33779932Y-49198070D01*
X33937123Y-49211822D01*
X33999998Y-49217323D01*
X34000000Y-49217323D01*
X34000002Y-49217323D01*
X34055017Y-49212509D01*
X34220068Y-49198070D01*
X34433450Y-49140894D01*
X34633662Y-49047534D01*
X34814620Y-48920826D01*
X34814629Y-48920817D01*
X34818770Y-48917344D01*
X34819850Y-48918631D01*
X34874471Y-48888791D01*
X34944164Y-48893761D01*
X34988536Y-48922271D01*
X36729083Y-50662819D01*
X36762568Y-50724142D01*
X36757584Y-50793834D01*
X36715712Y-50849767D01*
X36650248Y-50874184D01*
X36641403Y-50874500D01*
X36541925Y-50874501D01*
X36463300Y-50880687D01*
X36280444Y-50929684D01*
X36111775Y-51015623D01*
X36111773Y-51015624D01*
X35964658Y-51134758D01*
X35845524Y-51281873D01*
X35845484Y-51281953D01*
X35845449Y-51281989D01*
X35841986Y-51287323D01*
X35841010Y-51286689D01*
X35797509Y-51332749D01*
X35729688Y-51349543D01*
X35663553Y-51327005D01*
X35628753Y-51286843D01*
X35628014Y-51287323D01*
X35624559Y-51282002D01*
X35624516Y-51281953D01*
X35624476Y-51281875D01*
X35624475Y-51281873D01*
X35531633Y-51167225D01*
X35505342Y-51134758D01*
X35439514Y-51081451D01*
X35358226Y-51015624D01*
X35358224Y-51015623D01*
X35247214Y-50959062D01*
X35189556Y-50929684D01*
X35122624Y-50911749D01*
X35006701Y-50880687D01*
X34928077Y-50874500D01*
X34928075Y-50874500D01*
X34465000Y-50874500D01*
X34001924Y-50874501D01*
X34001925Y-50874501D01*
X33923300Y-50880687D01*
X33740444Y-50929684D01*
X33571775Y-51015623D01*
X33571773Y-51015624D01*
X33424658Y-51134758D01*
X33305524Y-51281873D01*
X33305484Y-51281953D01*
X33305449Y-51281989D01*
X33301986Y-51287323D01*
X33301010Y-51286689D01*
X33257509Y-51332749D01*
X33189688Y-51349543D01*
X33123553Y-51327005D01*
X33088753Y-51286843D01*
X33088014Y-51287323D01*
X33084559Y-51282002D01*
X33084516Y-51281953D01*
X33084476Y-51281875D01*
X33084475Y-51281873D01*
X32991633Y-51167225D01*
X32965342Y-51134758D01*
X32899514Y-51081451D01*
X32818226Y-51015624D01*
X32818224Y-51015623D01*
X32707214Y-50959062D01*
X32649556Y-50929684D01*
X32582624Y-50911749D01*
X32466701Y-50880687D01*
X32388077Y-50874500D01*
X32388075Y-50874500D01*
X31925000Y-50874500D01*
X31461924Y-50874501D01*
X31461925Y-50874501D01*
X31383300Y-50880687D01*
X31200444Y-50929684D01*
X31031775Y-51015623D01*
X31031773Y-51015624D01*
X30884658Y-51134758D01*
X30765524Y-51281873D01*
X30765484Y-51281953D01*
X30765449Y-51281989D01*
X30761986Y-51287323D01*
X30761010Y-51286689D01*
X30717509Y-51332749D01*
X30649688Y-51349543D01*
X30583553Y-51327005D01*
X30548753Y-51286843D01*
X30548014Y-51287323D01*
X30544559Y-51282002D01*
X30544516Y-51281953D01*
X30544476Y-51281875D01*
X30544475Y-51281873D01*
X30451633Y-51167225D01*
X30425342Y-51134758D01*
X30359514Y-51081451D01*
X30278226Y-51015624D01*
X30278224Y-51015623D01*
X30167214Y-50959062D01*
X30109556Y-50929684D01*
X30042624Y-50911749D01*
X29926701Y-50880687D01*
X29848077Y-50874500D01*
X29848075Y-50874500D01*
X29385000Y-50874500D01*
X28921924Y-50874501D01*
X28921925Y-50874501D01*
X28843300Y-50880687D01*
X28660444Y-50929684D01*
X28491775Y-51015623D01*
X28491773Y-51015624D01*
X28344658Y-51134758D01*
X28225524Y-51281873D01*
X28225484Y-51281953D01*
X28225449Y-51281989D01*
X28221986Y-51287323D01*
X28221010Y-51286689D01*
X28177509Y-51332749D01*
X28109688Y-51349543D01*
X28043553Y-51327005D01*
X28008753Y-51286843D01*
X28008014Y-51287323D01*
X28004559Y-51282002D01*
X28004516Y-51281953D01*
X28004476Y-51281875D01*
X28004475Y-51281873D01*
X27911633Y-51167225D01*
X27885342Y-51134758D01*
X27819514Y-51081451D01*
X27738226Y-51015624D01*
X27738224Y-51015623D01*
X27627214Y-50959062D01*
X27569556Y-50929684D01*
X27502624Y-50911749D01*
X27386701Y-50880687D01*
X27308077Y-50874500D01*
X27308075Y-50874500D01*
X26845000Y-50874500D01*
X26381924Y-50874501D01*
X26381925Y-50874501D01*
X26303300Y-50880687D01*
X26120444Y-50929684D01*
X25951775Y-51015623D01*
X25951773Y-51015624D01*
X25804658Y-51134758D01*
X25685524Y-51281873D01*
X25685518Y-51281882D01*
X25685194Y-51282520D01*
X25684909Y-51282821D01*
X25681986Y-51287323D01*
X25681161Y-51286787D01*
X25637211Y-51333307D01*
X25569387Y-51350091D01*
X25503256Y-51327542D01*
X25468269Y-51287156D01*
X25467593Y-51287596D01*
X25464426Y-51282719D01*
X25464230Y-51282493D01*
X25464052Y-51282143D01*
X25344986Y-51135113D01*
X25197954Y-51016046D01*
X25197951Y-51016044D01*
X25029374Y-50930151D01*
X24846622Y-50881183D01*
X24768050Y-50875000D01*
X24555000Y-50875000D01*
X24555000Y-52959314D01*
X24543045Y-52947359D01*
X24430148Y-52889835D01*
X24336481Y-52875000D01*
X24273519Y-52875000D01*
X24179852Y-52889835D01*
X24066955Y-52947359D01*
X24055000Y-52959314D01*
X24055000Y-50875000D01*
X23841950Y-50875000D01*
X23763377Y-50881183D01*
X23580625Y-50930151D01*
X23412048Y-51016044D01*
X23412045Y-51016046D01*
X23265013Y-51135113D01*
X23145946Y-51282145D01*
X23145942Y-51282151D01*
X23145761Y-51282508D01*
X23145601Y-51282677D01*
X23142407Y-51287596D01*
X23141507Y-51287011D01*
X23097784Y-51333301D01*
X23029962Y-51350092D01*
X22963828Y-51327550D01*
X22928626Y-51286924D01*
X22928014Y-51287323D01*
X22925148Y-51282910D01*
X22924798Y-51282506D01*
X22924477Y-51281877D01*
X22924475Y-51281873D01*
X22831633Y-51167225D01*
X22805342Y-51134758D01*
X22739514Y-51081451D01*
X22658226Y-51015624D01*
X22658224Y-51015623D01*
X22547214Y-50959062D01*
X22489556Y-50929684D01*
X22422624Y-50911749D01*
X22306701Y-50880687D01*
X22228077Y-50874500D01*
X22228075Y-50874500D01*
X21765000Y-50874500D01*
X21301924Y-50874501D01*
X21301925Y-50874501D01*
X21223300Y-50880687D01*
X21040444Y-50929684D01*
X20871775Y-51015623D01*
X20871773Y-51015624D01*
X20724658Y-51134758D01*
X20605524Y-51281873D01*
X20605523Y-51281875D01*
X20519584Y-51450544D01*
X20470587Y-51633398D01*
X20464400Y-51712023D01*
X20464401Y-53637976D01*
X20464401Y-53637975D01*
X20470587Y-53716599D01*
X20470588Y-53716601D01*
X20470588Y-53716603D01*
X20519584Y-53899456D01*
X20537247Y-53934121D01*
X20605523Y-54068124D01*
X20605524Y-54068126D01*
X20637271Y-54107329D01*
X20724658Y-54215242D01*
X20788287Y-54266768D01*
X20871773Y-54334375D01*
X20871775Y-54334376D01*
X20902320Y-54349939D01*
X21040444Y-54420316D01*
X21223297Y-54469312D01*
X21243945Y-54470937D01*
X21301923Y-54475500D01*
X21301924Y-54475499D01*
X21301925Y-54475500D01*
X21764999Y-54475499D01*
X22228075Y-54475499D01*
X22250962Y-54473698D01*
X22306703Y-54469312D01*
X22489556Y-54420316D01*
X22658226Y-54334375D01*
X22805342Y-54215242D01*
X22924475Y-54068126D01*
X22924794Y-54067500D01*
X22925075Y-54067201D01*
X22928014Y-54062677D01*
X22928841Y-54063214D01*
X22972768Y-54016703D01*
X23040588Y-53999907D01*
X23106724Y-54022443D01*
X23141730Y-54062843D01*
X23142407Y-54062404D01*
X23145568Y-54067271D01*
X23145765Y-54067499D01*
X23145944Y-54067851D01*
X23145946Y-54067854D01*
X23265013Y-54214886D01*
X23412045Y-54333953D01*
X23412048Y-54333955D01*
X23580625Y-54419848D01*
X23763377Y-54468816D01*
X23841950Y-54475000D01*
X24055000Y-54475000D01*
X24055000Y-53590686D01*
X24066955Y-53602641D01*
X24179852Y-53660165D01*
X24273519Y-53675000D01*
X24336481Y-53675000D01*
X24430148Y-53660165D01*
X24543045Y-53602641D01*
X24555000Y-53590686D01*
X24555000Y-54475000D01*
X24768050Y-54475000D01*
X24846622Y-54468816D01*
X25029374Y-54419848D01*
X25197951Y-54333955D01*
X25197954Y-54333953D01*
X25344986Y-54214886D01*
X25464052Y-54067855D01*
X25464227Y-54067513D01*
X25464381Y-54067349D01*
X25467593Y-54062404D01*
X25468496Y-54062990D01*
X25512194Y-54016711D01*
X25580013Y-53999906D01*
X25646151Y-54022435D01*
X25681374Y-54063074D01*
X25681986Y-54062677D01*
X25684842Y-54067076D01*
X25685198Y-54067486D01*
X25685522Y-54068123D01*
X25685524Y-54068126D01*
X25717271Y-54107329D01*
X25804658Y-54215242D01*
X25868287Y-54266768D01*
X25951773Y-54334375D01*
X25951775Y-54334376D01*
X25982320Y-54349939D01*
X26120444Y-54420316D01*
X26303297Y-54469312D01*
X26323945Y-54470937D01*
X26381923Y-54475500D01*
X26381924Y-54475499D01*
X26381925Y-54475500D01*
X26844999Y-54475499D01*
X27308075Y-54475499D01*
X27330962Y-54473698D01*
X27386703Y-54469312D01*
X27569556Y-54420316D01*
X27738226Y-54334375D01*
X27885342Y-54215242D01*
X28004475Y-54068126D01*
X28004512Y-54068052D01*
X28004546Y-54068016D01*
X28008014Y-54062677D01*
X28008990Y-54063310D01*
X28052484Y-54017255D01*
X28120304Y-54000455D01*
X28186440Y-54022989D01*
X28221246Y-54063157D01*
X28221986Y-54062677D01*
X28225444Y-54068002D01*
X28225488Y-54068053D01*
X28225526Y-54068128D01*
X28257271Y-54107329D01*
X28344658Y-54215242D01*
X28408287Y-54266768D01*
X28491773Y-54334375D01*
X28491775Y-54334376D01*
X28522320Y-54349939D01*
X28660444Y-54420316D01*
X28843297Y-54469312D01*
X28863945Y-54470937D01*
X28921923Y-54475500D01*
X28921924Y-54475499D01*
X28921925Y-54475500D01*
X29384999Y-54475499D01*
X29848075Y-54475499D01*
X29870962Y-54473698D01*
X29926703Y-54469312D01*
X30109556Y-54420316D01*
X30278226Y-54334375D01*
X30425342Y-54215242D01*
X30544475Y-54068126D01*
X30544512Y-54068052D01*
X30544546Y-54068016D01*
X30548014Y-54062677D01*
X30548990Y-54063310D01*
X30592484Y-54017255D01*
X30660304Y-54000455D01*
X30726440Y-54022989D01*
X30761246Y-54063157D01*
X30761986Y-54062677D01*
X30765444Y-54068002D01*
X30765488Y-54068053D01*
X30765526Y-54068128D01*
X30797271Y-54107329D01*
X30884658Y-54215242D01*
X30948287Y-54266768D01*
X31031773Y-54334375D01*
X31031775Y-54334376D01*
X31062320Y-54349939D01*
X31200444Y-54420316D01*
X31383297Y-54469312D01*
X31403945Y-54470937D01*
X31461923Y-54475500D01*
X31461924Y-54475499D01*
X31461925Y-54475500D01*
X31924999Y-54475499D01*
X32388075Y-54475499D01*
X32410962Y-54473698D01*
X32466703Y-54469312D01*
X32649556Y-54420316D01*
X32818226Y-54334375D01*
X32965342Y-54215242D01*
X33084475Y-54068126D01*
X33084512Y-54068052D01*
X33084546Y-54068016D01*
X33088014Y-54062677D01*
X33088990Y-54063310D01*
X33132484Y-54017255D01*
X33200304Y-54000455D01*
X33266440Y-54022989D01*
X33301246Y-54063157D01*
X33301986Y-54062677D01*
X33305444Y-54068002D01*
X33305488Y-54068053D01*
X33305526Y-54068128D01*
X33337271Y-54107329D01*
X33424658Y-54215242D01*
X33488287Y-54266768D01*
X33571773Y-54334375D01*
X33571775Y-54334376D01*
X33602320Y-54349939D01*
X33740444Y-54420316D01*
X33923297Y-54469312D01*
X33943945Y-54470937D01*
X34001923Y-54475500D01*
X34001924Y-54475499D01*
X34001925Y-54475500D01*
X34464999Y-54475499D01*
X34928075Y-54475499D01*
X34950962Y-54473698D01*
X35006703Y-54469312D01*
X35189556Y-54420316D01*
X35358226Y-54334375D01*
X35505342Y-54215242D01*
X35624475Y-54068126D01*
X35624512Y-54068052D01*
X35624546Y-54068016D01*
X35628014Y-54062677D01*
X35628990Y-54063310D01*
X35672484Y-54017255D01*
X35740304Y-54000455D01*
X35806440Y-54022989D01*
X35841246Y-54063157D01*
X35841986Y-54062677D01*
X35845444Y-54068002D01*
X35845488Y-54068053D01*
X35845526Y-54068128D01*
X35877271Y-54107329D01*
X35964658Y-54215242D01*
X36028287Y-54266768D01*
X36111773Y-54334375D01*
X36111775Y-54334376D01*
X36142320Y-54349939D01*
X36280444Y-54420316D01*
X36463297Y-54469312D01*
X36483945Y-54470937D01*
X36541923Y-54475500D01*
X36541924Y-54475499D01*
X36541925Y-54475500D01*
X37004999Y-54475499D01*
X37468075Y-54475499D01*
X37490962Y-54473698D01*
X37546703Y-54469312D01*
X37703409Y-54427322D01*
X37773257Y-54428985D01*
X37814540Y-54451552D01*
X37826308Y-54461287D01*
X37830631Y-54465221D01*
X38153229Y-54787819D01*
X38186714Y-54849142D01*
X38181730Y-54918834D01*
X38139858Y-54974767D01*
X38074394Y-54999184D01*
X38065548Y-54999500D01*
X20124500Y-54999500D01*
X20057461Y-54979815D01*
X20011706Y-54927011D01*
X20000500Y-54875500D01*
X20000500Y-40199999D01*
X22959322Y-40199999D01*
X22959323Y-40200000D01*
X23864617Y-40200000D01*
X23850000Y-40348412D01*
X23850000Y-40551588D01*
X23864617Y-40700000D01*
X22959323Y-40700000D01*
X22964918Y-40778224D01*
X22964919Y-40778231D01*
X23024207Y-41050774D01*
X23121689Y-41312134D01*
X23255361Y-41556938D01*
X23422523Y-41780238D01*
X23422533Y-41780250D01*
X23619749Y-41977466D01*
X23619761Y-41977476D01*
X23843061Y-42144637D01*
X23843061Y-42144638D01*
X24087865Y-42278310D01*
X24349225Y-42375792D01*
X24621772Y-42435081D01*
X24650000Y-42437100D01*
X24650000Y-41521411D01*
X24694164Y-41534808D01*
X24900000Y-41555081D01*
X25105836Y-41534808D01*
X25150000Y-41521411D01*
X25150000Y-42437099D01*
X25178227Y-42435081D01*
X25450774Y-42375792D01*
X25712134Y-42278310D01*
X25956938Y-42144638D01*
X25956938Y-42144637D01*
X26180238Y-41977476D01*
X26180250Y-41977466D01*
X26377466Y-41780250D01*
X26377476Y-41780238D01*
X26544637Y-41556938D01*
X26544638Y-41556938D01*
X26678310Y-41312134D01*
X26775792Y-41050774D01*
X26835080Y-40778231D01*
X26835081Y-40778224D01*
X26840677Y-40700000D01*
X25935383Y-40700000D01*
X25950000Y-40551588D01*
X25950000Y-40348412D01*
X25935383Y-40200000D01*
X26840677Y-40200000D01*
X26840677Y-40199999D01*
X26835081Y-40121775D01*
X26835080Y-40121768D01*
X26775792Y-39849225D01*
X26678310Y-39587865D01*
X26544638Y-39343061D01*
X26377476Y-39119761D01*
X26377466Y-39119749D01*
X26180250Y-38922533D01*
X26180238Y-38922523D01*
X25956938Y-38755362D01*
X25956938Y-38755361D01*
X25712134Y-38621689D01*
X25450774Y-38524207D01*
X25178234Y-38464919D01*
X25178220Y-38464917D01*
X25150000Y-38462899D01*
X25150000Y-39378588D01*
X25105836Y-39365192D01*
X24900000Y-39344919D01*
X24694164Y-39365192D01*
X24650000Y-39378588D01*
X24650000Y-38462899D01*
X24649999Y-38462899D01*
X24621779Y-38464917D01*
X24621765Y-38464919D01*
X24349225Y-38524207D01*
X24087865Y-38621689D01*
X23843061Y-38755361D01*
X23843061Y-38755362D01*
X23619761Y-38922523D01*
X23619749Y-38922533D01*
X23422533Y-39119749D01*
X23422523Y-39119761D01*
X23255362Y-39343061D01*
X23255361Y-39343061D01*
X23121689Y-39587865D01*
X23024207Y-39849225D01*
X22964919Y-40121768D01*
X22964918Y-40121775D01*
X22959322Y-40199999D01*
X20000500Y-40199999D01*
X20000500Y-30124500D01*
X20020185Y-30057461D01*
X20072989Y-30011706D01*
X20124500Y-30000500D01*
X139275500Y-30000500D01*
X139342539Y-30020185D01*
G37*
%TD.AperFunction*%
%TD*%
M02*
