M48
; DRILL file {KiCad 8.99.0-unknown-5d7e96841b~178~ubuntu22.04.1} date 2024-04-19T18:01:45+1000
; FORMAT={-:-/ absolute / metric / decimal}
; #@! TF.CreationDate,2024-04-19T18:01:45+10:00
; #@! TF.GenerationSoftware,Kicad,Pcbnew,8.99.0-unknown-5d7e96841b~178~ubuntu22.04.1
; #@! TF.FileFunction,NonPlated,1,2,NPTH
FMAT,2
METRIC
; #@! TA.AperFunction,NonPlated,NPTH,ComponentDrill
T1C1.750
; #@! TA.AperFunction,NonPlated,NPTH,ComponentDrill
T2C4.000
%
G90
G05
T1
X47.32Y-43.7
X47.32Y-61.24
X47.32Y-78.7
X57.48Y-43.7
X57.48Y-61.24
X57.48Y-78.7
X64.82Y-43.7
X64.82Y-61.24
X64.82Y-78.7
X74.98Y-43.7
X74.98Y-61.24
X74.98Y-78.7
X82.32Y-43.7
X82.32Y-61.24
X82.32Y-78.7
X92.48Y-43.7
X92.48Y-61.24
X92.48Y-78.7
X99.82Y-43.7
X99.82Y-61.24
X99.82Y-78.7
X109.98Y-43.7
X109.98Y-61.24
X109.98Y-78.7
X117.32Y-43.7
X117.32Y-61.24
X117.32Y-78.7
X127.48Y-43.7
X127.48Y-61.24
X127.48Y-78.7
T2
X52.4Y-43.7
X52.4Y-61.24
X52.4Y-78.7
X69.9Y-43.7
X69.9Y-61.24
X69.9Y-78.7
X87.4Y-43.7
X87.4Y-61.24
X87.4Y-78.7
X104.9Y-43.7
X104.9Y-61.24
X104.9Y-78.7
X122.4Y-43.7
X122.4Y-61.24
X122.4Y-78.7
M30
