M48
; DRILL file {KiCad 8.99.0-unknown-5d7e96841b~178~ubuntu22.04.1} date 2024-04-19T18:01:45+1000
; FORMAT={-:-/ absolute / metric / decimal}
; #@! TF.CreationDate,2024-04-19T18:01:45+10:00
; #@! TF.GenerationSoftware,Kicad,Pcbnew,8.99.0-unknown-5d7e96841b~178~ubuntu22.04.1
; #@! TF.FileFunction,Plated,1,2,PTH
FMAT,2
METRIC
; #@! TA.AperFunction,Plated,PTH,ViaDrill
T1C0.400
; #@! TA.AperFunction,Plated,PTH,ComponentDrill
T2C0.400
; #@! TA.AperFunction,Plated,PTH,ComponentDrill
T3C0.800
; #@! TA.AperFunction,Plated,PTH,ComponentDrill
T4C1.000
; #@! TA.AperFunction,Plated,PTH,ComponentDrill
T5C1.500
; #@! TA.AperFunction,Plated,PTH,ComponentDrill
T6C2.000
; #@! TA.AperFunction,Plated,PTH,ComponentDrill
T7C2.200
%
G90
G05
T1
X44.18Y-46.6
X61.58Y-46.6
X61.58Y-64.14
X79.18Y-46.6
X79.18Y-64.14
X96.58Y-46.6
X96.58Y-64.14
X114.18Y-46.6
X114.18Y-64.14
T2
X23.35Y-35.0
X23.35Y-87.5
X23.833Y-33.833
X23.833Y-36.167
X23.833Y-86.333
X23.833Y-88.667
X25.0Y-33.35
X25.0Y-36.65
X25.0Y-85.85
X25.0Y-89.15
X26.167Y-33.833
X26.167Y-36.167
X26.167Y-86.333
X26.167Y-88.667
X26.65Y-35.0
X26.65Y-87.5
X130.85Y-35.0
X130.85Y-87.5
X131.333Y-33.833
X131.333Y-36.167
X131.333Y-86.333
X131.333Y-88.667
X132.5Y-33.35
X132.5Y-36.65
X132.5Y-85.85
X132.5Y-89.15
X133.667Y-33.833
X133.667Y-36.167
X133.667Y-86.333
X133.667Y-88.667
X134.15Y-35.0
X134.15Y-87.5
T3
X21.56Y-53.175
X21.56Y-68.415
X24.1Y-53.175
X24.1Y-68.415
X26.64Y-53.175
X26.64Y-68.415
X29.18Y-53.175
X29.18Y-68.415
X31.72Y-53.175
X31.72Y-68.415
X34.26Y-53.175
X34.26Y-68.415
X36.8Y-53.175
X36.8Y-68.415
X39.34Y-53.175
X39.34Y-68.415
X41.88Y-53.175
X41.88Y-68.415
X42.09Y-55.715
X42.09Y-58.255
X42.09Y-60.795
X42.09Y-63.335
X42.09Y-65.875
T4
X32.9Y-33.95
X32.9Y-48.45
X35.4Y-48.45
X37.9Y-33.95
X37.9Y-48.45
T5
X48.59Y-41.16
X48.59Y-58.7
X48.59Y-76.16
X54.94Y-38.62
X54.94Y-56.16
X54.94Y-73.62
X66.09Y-41.16
X66.09Y-58.7
X66.09Y-76.16
X72.44Y-38.62
X72.44Y-56.16
X72.44Y-73.62
X83.59Y-41.16
X83.59Y-58.7
X83.59Y-76.16
X89.94Y-38.62
X89.94Y-56.16
X89.94Y-73.62
X101.09Y-41.16
X101.09Y-58.7
X101.09Y-76.16
X107.44Y-38.62
X107.44Y-56.16
X107.44Y-73.62
X118.59Y-41.16
X118.59Y-58.7
X118.59Y-76.16
X124.94Y-38.62
X124.94Y-56.16
X124.94Y-73.62
T7
X25.0Y-35.0
X25.0Y-87.5
X132.5Y-35.0
X132.5Y-87.5
T6
G00X29.8Y-41.5
M15
G01X29.8Y-40.4
M16
G05
G00X41.0Y-41.5
M15
G01X41.0Y-40.4
M16
G05
M30
