%TF.GenerationSoftware,KiCad,Pcbnew,8.99.0-unknown-e3e63fb1b8~178~ubuntu22.04.1*%
%TF.CreationDate,2024-06-01T22:38:45+10:00*%
%TF.ProjectId,SkyMusicPad,536b794d-7573-4696-9350-61642e6b6963,rev?*%
%TF.SameCoordinates,Original*%
%TF.FileFunction,Legend,Bot*%
%TF.FilePolarity,Positive*%
%FSLAX46Y46*%
G04 Gerber Fmt 4.6, Leading zero omitted, Abs format (unit mm)*
G04 Created by KiCad (PCBNEW 8.99.0-unknown-e3e63fb1b8~178~ubuntu22.04.1) date 2024-06-01 22:38:45*
%MOMM*%
%LPD*%
G01*
G04 APERTURE LIST*
%ADD10C,0.300000*%
%ADD11C,0.150000*%
%ADD12C,0.120000*%
G04 APERTURE END LIST*
D10*
X126607142Y-45768664D02*
X126607142Y-44268664D01*
X126607142Y-44268664D02*
X126249999Y-44268664D01*
X126249999Y-44268664D02*
X126035713Y-44340093D01*
X126035713Y-44340093D02*
X125892856Y-44482950D01*
X125892856Y-44482950D02*
X125821427Y-44625807D01*
X125821427Y-44625807D02*
X125749999Y-44911521D01*
X125749999Y-44911521D02*
X125749999Y-45125807D01*
X125749999Y-45125807D02*
X125821427Y-45411521D01*
X125821427Y-45411521D02*
X125892856Y-45554378D01*
X125892856Y-45554378D02*
X126035713Y-45697236D01*
X126035713Y-45697236D02*
X126249999Y-45768664D01*
X126249999Y-45768664D02*
X126607142Y-45768664D01*
X124535713Y-45697236D02*
X124678570Y-45768664D01*
X124678570Y-45768664D02*
X124964285Y-45768664D01*
X124964285Y-45768664D02*
X125107142Y-45697236D01*
X125107142Y-45697236D02*
X125178570Y-45554378D01*
X125178570Y-45554378D02*
X125178570Y-44982950D01*
X125178570Y-44982950D02*
X125107142Y-44840093D01*
X125107142Y-44840093D02*
X124964285Y-44768664D01*
X124964285Y-44768664D02*
X124678570Y-44768664D01*
X124678570Y-44768664D02*
X124535713Y-44840093D01*
X124535713Y-44840093D02*
X124464285Y-44982950D01*
X124464285Y-44982950D02*
X124464285Y-45125807D01*
X124464285Y-45125807D02*
X125178570Y-45268664D01*
X123892856Y-45697236D02*
X123749999Y-45768664D01*
X123749999Y-45768664D02*
X123464285Y-45768664D01*
X123464285Y-45768664D02*
X123321428Y-45697236D01*
X123321428Y-45697236D02*
X123249999Y-45554378D01*
X123249999Y-45554378D02*
X123249999Y-45482950D01*
X123249999Y-45482950D02*
X123321428Y-45340093D01*
X123321428Y-45340093D02*
X123464285Y-45268664D01*
X123464285Y-45268664D02*
X123678571Y-45268664D01*
X123678571Y-45268664D02*
X123821428Y-45197236D01*
X123821428Y-45197236D02*
X123892856Y-45054378D01*
X123892856Y-45054378D02*
X123892856Y-44982950D01*
X123892856Y-44982950D02*
X123821428Y-44840093D01*
X123821428Y-44840093D02*
X123678571Y-44768664D01*
X123678571Y-44768664D02*
X123464285Y-44768664D01*
X123464285Y-44768664D02*
X123321428Y-44840093D01*
X122607142Y-45768664D02*
X122607142Y-44768664D01*
X122607142Y-44268664D02*
X122678570Y-44340093D01*
X122678570Y-44340093D02*
X122607142Y-44411521D01*
X122607142Y-44411521D02*
X122535713Y-44340093D01*
X122535713Y-44340093D02*
X122607142Y-44268664D01*
X122607142Y-44268664D02*
X122607142Y-44411521D01*
X121249999Y-44768664D02*
X121249999Y-45982950D01*
X121249999Y-45982950D02*
X121321427Y-46125807D01*
X121321427Y-46125807D02*
X121392856Y-46197236D01*
X121392856Y-46197236D02*
X121535713Y-46268664D01*
X121535713Y-46268664D02*
X121749999Y-46268664D01*
X121749999Y-46268664D02*
X121892856Y-46197236D01*
X121249999Y-45697236D02*
X121392856Y-45768664D01*
X121392856Y-45768664D02*
X121678570Y-45768664D01*
X121678570Y-45768664D02*
X121821427Y-45697236D01*
X121821427Y-45697236D02*
X121892856Y-45625807D01*
X121892856Y-45625807D02*
X121964284Y-45482950D01*
X121964284Y-45482950D02*
X121964284Y-45054378D01*
X121964284Y-45054378D02*
X121892856Y-44911521D01*
X121892856Y-44911521D02*
X121821427Y-44840093D01*
X121821427Y-44840093D02*
X121678570Y-44768664D01*
X121678570Y-44768664D02*
X121392856Y-44768664D01*
X121392856Y-44768664D02*
X121249999Y-44840093D01*
X120535713Y-44768664D02*
X120535713Y-45768664D01*
X120535713Y-44911521D02*
X120464284Y-44840093D01*
X120464284Y-44840093D02*
X120321427Y-44768664D01*
X120321427Y-44768664D02*
X120107141Y-44768664D01*
X120107141Y-44768664D02*
X119964284Y-44840093D01*
X119964284Y-44840093D02*
X119892856Y-44982950D01*
X119892856Y-44982950D02*
X119892856Y-45768664D01*
X118607141Y-45697236D02*
X118749998Y-45768664D01*
X118749998Y-45768664D02*
X119035713Y-45768664D01*
X119035713Y-45768664D02*
X119178570Y-45697236D01*
X119178570Y-45697236D02*
X119249998Y-45554378D01*
X119249998Y-45554378D02*
X119249998Y-44982950D01*
X119249998Y-44982950D02*
X119178570Y-44840093D01*
X119178570Y-44840093D02*
X119035713Y-44768664D01*
X119035713Y-44768664D02*
X118749998Y-44768664D01*
X118749998Y-44768664D02*
X118607141Y-44840093D01*
X118607141Y-44840093D02*
X118535713Y-44982950D01*
X118535713Y-44982950D02*
X118535713Y-45125807D01*
X118535713Y-45125807D02*
X119249998Y-45268664D01*
X117249999Y-45768664D02*
X117249999Y-44268664D01*
X117249999Y-45697236D02*
X117392856Y-45768664D01*
X117392856Y-45768664D02*
X117678570Y-45768664D01*
X117678570Y-45768664D02*
X117821427Y-45697236D01*
X117821427Y-45697236D02*
X117892856Y-45625807D01*
X117892856Y-45625807D02*
X117964284Y-45482950D01*
X117964284Y-45482950D02*
X117964284Y-45054378D01*
X117964284Y-45054378D02*
X117892856Y-44911521D01*
X117892856Y-44911521D02*
X117821427Y-44840093D01*
X117821427Y-44840093D02*
X117678570Y-44768664D01*
X117678570Y-44768664D02*
X117392856Y-44768664D01*
X117392856Y-44768664D02*
X117249999Y-44840093D01*
X115392856Y-45768664D02*
X115392856Y-44268664D01*
X115392856Y-44840093D02*
X115249999Y-44768664D01*
X115249999Y-44768664D02*
X114964284Y-44768664D01*
X114964284Y-44768664D02*
X114821427Y-44840093D01*
X114821427Y-44840093D02*
X114749999Y-44911521D01*
X114749999Y-44911521D02*
X114678570Y-45054378D01*
X114678570Y-45054378D02*
X114678570Y-45482950D01*
X114678570Y-45482950D02*
X114749999Y-45625807D01*
X114749999Y-45625807D02*
X114821427Y-45697236D01*
X114821427Y-45697236D02*
X114964284Y-45768664D01*
X114964284Y-45768664D02*
X115249999Y-45768664D01*
X115249999Y-45768664D02*
X115392856Y-45697236D01*
X114178570Y-44768664D02*
X113821427Y-45768664D01*
X113464284Y-44768664D02*
X113821427Y-45768664D01*
X113821427Y-45768664D02*
X113964284Y-46125807D01*
X113964284Y-46125807D02*
X114035713Y-46197236D01*
X114035713Y-46197236D02*
X114178570Y-46268664D01*
X110821427Y-45054378D02*
X110892856Y-44982950D01*
X110892856Y-44982950D02*
X111035713Y-44911521D01*
X111035713Y-44911521D02*
X111178570Y-44911521D01*
X111178570Y-44911521D02*
X111321427Y-44982950D01*
X111321427Y-44982950D02*
X111392856Y-45054378D01*
X111392856Y-45054378D02*
X111464284Y-45197236D01*
X111464284Y-45197236D02*
X111464284Y-45340093D01*
X111464284Y-45340093D02*
X111392856Y-45482950D01*
X111392856Y-45482950D02*
X111321427Y-45554378D01*
X111321427Y-45554378D02*
X111178570Y-45625807D01*
X111178570Y-45625807D02*
X111035713Y-45625807D01*
X111035713Y-45625807D02*
X110892856Y-45554378D01*
X110892856Y-45554378D02*
X110821427Y-45482950D01*
X110821427Y-44911521D02*
X110821427Y-45482950D01*
X110821427Y-45482950D02*
X110749999Y-45554378D01*
X110749999Y-45554378D02*
X110678570Y-45554378D01*
X110678570Y-45554378D02*
X110535713Y-45482950D01*
X110535713Y-45482950D02*
X110464284Y-45340093D01*
X110464284Y-45340093D02*
X110464284Y-44982950D01*
X110464284Y-44982950D02*
X110607142Y-44768664D01*
X110607142Y-44768664D02*
X110821427Y-44625807D01*
X110821427Y-44625807D02*
X111107142Y-44554378D01*
X111107142Y-44554378D02*
X111392856Y-44625807D01*
X111392856Y-44625807D02*
X111607142Y-44768664D01*
X111607142Y-44768664D02*
X111749999Y-44982950D01*
X111749999Y-44982950D02*
X111821427Y-45268664D01*
X111821427Y-45268664D02*
X111749999Y-45554378D01*
X111749999Y-45554378D02*
X111607142Y-45768664D01*
X111607142Y-45768664D02*
X111392856Y-45911521D01*
X111392856Y-45911521D02*
X111107142Y-45982950D01*
X111107142Y-45982950D02*
X110821427Y-45911521D01*
X110821427Y-45911521D02*
X110607142Y-45768664D01*
X109964285Y-44768664D02*
X109607142Y-45768664D01*
X109607142Y-45768664D02*
X109249999Y-44768664D01*
X108464285Y-45768664D02*
X108607142Y-45697236D01*
X108607142Y-45697236D02*
X108678571Y-45625807D01*
X108678571Y-45625807D02*
X108749999Y-45482950D01*
X108749999Y-45482950D02*
X108749999Y-45054378D01*
X108749999Y-45054378D02*
X108678571Y-44911521D01*
X108678571Y-44911521D02*
X108607142Y-44840093D01*
X108607142Y-44840093D02*
X108464285Y-44768664D01*
X108464285Y-44768664D02*
X108249999Y-44768664D01*
X108249999Y-44768664D02*
X108107142Y-44840093D01*
X108107142Y-44840093D02*
X108035714Y-44911521D01*
X108035714Y-44911521D02*
X107964285Y-45054378D01*
X107964285Y-45054378D02*
X107964285Y-45482950D01*
X107964285Y-45482950D02*
X108035714Y-45625807D01*
X108035714Y-45625807D02*
X108107142Y-45697236D01*
X108107142Y-45697236D02*
X108249999Y-45768664D01*
X108249999Y-45768664D02*
X108464285Y-45768664D01*
X107464285Y-45768664D02*
X106678571Y-44768664D01*
X107464285Y-44768664D02*
X106678571Y-45768664D01*
X105535713Y-45697236D02*
X105678570Y-45768664D01*
X105678570Y-45768664D02*
X105964285Y-45768664D01*
X105964285Y-45768664D02*
X106107142Y-45697236D01*
X106107142Y-45697236D02*
X106178570Y-45554378D01*
X106178570Y-45554378D02*
X106178570Y-44982950D01*
X106178570Y-44982950D02*
X106107142Y-44840093D01*
X106107142Y-44840093D02*
X105964285Y-44768664D01*
X105964285Y-44768664D02*
X105678570Y-44768664D01*
X105678570Y-44768664D02*
X105535713Y-44840093D01*
X105535713Y-44840093D02*
X105464285Y-44982950D01*
X105464285Y-44982950D02*
X105464285Y-45125807D01*
X105464285Y-45125807D02*
X106178570Y-45268664D01*
X104607142Y-45768664D02*
X104749999Y-45697236D01*
X104749999Y-45697236D02*
X104821428Y-45554378D01*
X104821428Y-45554378D02*
X104821428Y-44268664D01*
X104249999Y-44768664D02*
X103678571Y-44768664D01*
X104035714Y-44268664D02*
X104035714Y-45554378D01*
X104035714Y-45554378D02*
X103964285Y-45697236D01*
X103964285Y-45697236D02*
X103821428Y-45768664D01*
X103821428Y-45768664D02*
X103678571Y-45768664D01*
X102607142Y-45697236D02*
X102749999Y-45768664D01*
X102749999Y-45768664D02*
X103035714Y-45768664D01*
X103035714Y-45768664D02*
X103178571Y-45697236D01*
X103178571Y-45697236D02*
X103249999Y-45554378D01*
X103249999Y-45554378D02*
X103249999Y-44982950D01*
X103249999Y-44982950D02*
X103178571Y-44840093D01*
X103178571Y-44840093D02*
X103035714Y-44768664D01*
X103035714Y-44768664D02*
X102749999Y-44768664D01*
X102749999Y-44768664D02*
X102607142Y-44840093D01*
X102607142Y-44840093D02*
X102535714Y-44982950D01*
X102535714Y-44982950D02*
X102535714Y-45125807D01*
X102535714Y-45125807D02*
X103249999Y-45268664D01*
X101892857Y-45768664D02*
X101892857Y-44268664D01*
X101750000Y-45197236D02*
X101321428Y-45768664D01*
X101321428Y-44768664D02*
X101892857Y-45340093D01*
X98892857Y-45768664D02*
X98892857Y-44982950D01*
X98892857Y-44982950D02*
X98964285Y-44840093D01*
X98964285Y-44840093D02*
X99107142Y-44768664D01*
X99107142Y-44768664D02*
X99392857Y-44768664D01*
X99392857Y-44768664D02*
X99535714Y-44840093D01*
X98892857Y-45697236D02*
X99035714Y-45768664D01*
X99035714Y-45768664D02*
X99392857Y-45768664D01*
X99392857Y-45768664D02*
X99535714Y-45697236D01*
X99535714Y-45697236D02*
X99607142Y-45554378D01*
X99607142Y-45554378D02*
X99607142Y-45411521D01*
X99607142Y-45411521D02*
X99535714Y-45268664D01*
X99535714Y-45268664D02*
X99392857Y-45197236D01*
X99392857Y-45197236D02*
X99035714Y-45197236D01*
X99035714Y-45197236D02*
X98892857Y-45125807D01*
X98178571Y-44768664D02*
X98178571Y-45768664D01*
X98178571Y-44911521D02*
X98107142Y-44840093D01*
X98107142Y-44840093D02*
X97964285Y-44768664D01*
X97964285Y-44768664D02*
X97749999Y-44768664D01*
X97749999Y-44768664D02*
X97607142Y-44840093D01*
X97607142Y-44840093D02*
X97535714Y-44982950D01*
X97535714Y-44982950D02*
X97535714Y-45768664D01*
X96178571Y-45768664D02*
X96178571Y-44268664D01*
X96178571Y-45697236D02*
X96321428Y-45768664D01*
X96321428Y-45768664D02*
X96607142Y-45768664D01*
X96607142Y-45768664D02*
X96749999Y-45697236D01*
X96749999Y-45697236D02*
X96821428Y-45625807D01*
X96821428Y-45625807D02*
X96892856Y-45482950D01*
X96892856Y-45482950D02*
X96892856Y-45054378D01*
X96892856Y-45054378D02*
X96821428Y-44911521D01*
X96821428Y-44911521D02*
X96749999Y-44840093D01*
X96749999Y-44840093D02*
X96607142Y-44768664D01*
X96607142Y-44768664D02*
X96321428Y-44768664D01*
X96321428Y-44768664D02*
X96178571Y-44840093D01*
X93392856Y-45054378D02*
X93464285Y-44982950D01*
X93464285Y-44982950D02*
X93607142Y-44911521D01*
X93607142Y-44911521D02*
X93749999Y-44911521D01*
X93749999Y-44911521D02*
X93892856Y-44982950D01*
X93892856Y-44982950D02*
X93964285Y-45054378D01*
X93964285Y-45054378D02*
X94035713Y-45197236D01*
X94035713Y-45197236D02*
X94035713Y-45340093D01*
X94035713Y-45340093D02*
X93964285Y-45482950D01*
X93964285Y-45482950D02*
X93892856Y-45554378D01*
X93892856Y-45554378D02*
X93749999Y-45625807D01*
X93749999Y-45625807D02*
X93607142Y-45625807D01*
X93607142Y-45625807D02*
X93464285Y-45554378D01*
X93464285Y-45554378D02*
X93392856Y-45482950D01*
X93392856Y-44911521D02*
X93392856Y-45482950D01*
X93392856Y-45482950D02*
X93321428Y-45554378D01*
X93321428Y-45554378D02*
X93249999Y-45554378D01*
X93249999Y-45554378D02*
X93107142Y-45482950D01*
X93107142Y-45482950D02*
X93035713Y-45340093D01*
X93035713Y-45340093D02*
X93035713Y-44982950D01*
X93035713Y-44982950D02*
X93178571Y-44768664D01*
X93178571Y-44768664D02*
X93392856Y-44625807D01*
X93392856Y-44625807D02*
X93678571Y-44554378D01*
X93678571Y-44554378D02*
X93964285Y-44625807D01*
X93964285Y-44625807D02*
X94178571Y-44768664D01*
X94178571Y-44768664D02*
X94321428Y-44982950D01*
X94321428Y-44982950D02*
X94392856Y-45268664D01*
X94392856Y-45268664D02*
X94321428Y-45554378D01*
X94321428Y-45554378D02*
X94178571Y-45768664D01*
X94178571Y-45768664D02*
X93964285Y-45911521D01*
X93964285Y-45911521D02*
X93678571Y-45982950D01*
X93678571Y-45982950D02*
X93392856Y-45911521D01*
X93392856Y-45911521D02*
X93178571Y-45768664D01*
X91750000Y-45697236D02*
X91892857Y-45768664D01*
X91892857Y-45768664D02*
X92178571Y-45768664D01*
X92178571Y-45768664D02*
X92321428Y-45697236D01*
X92321428Y-45697236D02*
X92392857Y-45625807D01*
X92392857Y-45625807D02*
X92464285Y-45482950D01*
X92464285Y-45482950D02*
X92464285Y-45054378D01*
X92464285Y-45054378D02*
X92392857Y-44911521D01*
X92392857Y-44911521D02*
X92321428Y-44840093D01*
X92321428Y-44840093D02*
X92178571Y-44768664D01*
X92178571Y-44768664D02*
X91892857Y-44768664D01*
X91892857Y-44768664D02*
X91750000Y-44840093D01*
X91107143Y-45768664D02*
X91107143Y-44768664D01*
X91107143Y-44268664D02*
X91178571Y-44340093D01*
X91178571Y-44340093D02*
X91107143Y-44411521D01*
X91107143Y-44411521D02*
X91035714Y-44340093D01*
X91035714Y-44340093D02*
X91107143Y-44268664D01*
X91107143Y-44268664D02*
X91107143Y-44411521D01*
X90607142Y-44768664D02*
X90035714Y-44768664D01*
X90392857Y-44268664D02*
X90392857Y-45554378D01*
X90392857Y-45554378D02*
X90321428Y-45697236D01*
X90321428Y-45697236D02*
X90178571Y-45768664D01*
X90178571Y-45768664D02*
X90035714Y-45768664D01*
X88892857Y-45768664D02*
X88892857Y-44982950D01*
X88892857Y-44982950D02*
X88964285Y-44840093D01*
X88964285Y-44840093D02*
X89107142Y-44768664D01*
X89107142Y-44768664D02*
X89392857Y-44768664D01*
X89392857Y-44768664D02*
X89535714Y-44840093D01*
X88892857Y-45697236D02*
X89035714Y-45768664D01*
X89035714Y-45768664D02*
X89392857Y-45768664D01*
X89392857Y-45768664D02*
X89535714Y-45697236D01*
X89535714Y-45697236D02*
X89607142Y-45554378D01*
X89607142Y-45554378D02*
X89607142Y-45411521D01*
X89607142Y-45411521D02*
X89535714Y-45268664D01*
X89535714Y-45268664D02*
X89392857Y-45197236D01*
X89392857Y-45197236D02*
X89035714Y-45197236D01*
X89035714Y-45197236D02*
X88892857Y-45125807D01*
X87535714Y-45697236D02*
X87678571Y-45768664D01*
X87678571Y-45768664D02*
X87964285Y-45768664D01*
X87964285Y-45768664D02*
X88107142Y-45697236D01*
X88107142Y-45697236D02*
X88178571Y-45625807D01*
X88178571Y-45625807D02*
X88249999Y-45482950D01*
X88249999Y-45482950D02*
X88249999Y-45054378D01*
X88249999Y-45054378D02*
X88178571Y-44911521D01*
X88178571Y-44911521D02*
X88107142Y-44840093D01*
X88107142Y-44840093D02*
X87964285Y-44768664D01*
X87964285Y-44768664D02*
X87678571Y-44768664D01*
X87678571Y-44768664D02*
X87535714Y-44840093D01*
X86892857Y-45768664D02*
X86892857Y-44768664D01*
X86892857Y-45054378D02*
X86821428Y-44911521D01*
X86821428Y-44911521D02*
X86750000Y-44840093D01*
X86750000Y-44840093D02*
X86607142Y-44768664D01*
X86607142Y-44768664D02*
X86464285Y-44768664D01*
X85964286Y-45768664D02*
X85964286Y-44768664D01*
X85964286Y-44268664D02*
X86035714Y-44340093D01*
X86035714Y-44340093D02*
X85964286Y-44411521D01*
X85964286Y-44411521D02*
X85892857Y-44340093D01*
X85892857Y-44340093D02*
X85964286Y-44268664D01*
X85964286Y-44268664D02*
X85964286Y-44411521D01*
X85464285Y-44768664D02*
X84892857Y-44768664D01*
X85250000Y-44268664D02*
X85250000Y-45554378D01*
X85250000Y-45554378D02*
X85178571Y-45697236D01*
X85178571Y-45697236D02*
X85035714Y-45768664D01*
X85035714Y-45768664D02*
X84892857Y-45768664D01*
X84607142Y-44768664D02*
X84035714Y-44768664D01*
X84392857Y-44268664D02*
X84392857Y-45554378D01*
X84392857Y-45554378D02*
X84321428Y-45697236D01*
X84321428Y-45697236D02*
X84178571Y-45768664D01*
X84178571Y-45768664D02*
X84035714Y-45768664D01*
X82892857Y-45768664D02*
X82892857Y-44982950D01*
X82892857Y-44982950D02*
X82964285Y-44840093D01*
X82964285Y-44840093D02*
X83107142Y-44768664D01*
X83107142Y-44768664D02*
X83392857Y-44768664D01*
X83392857Y-44768664D02*
X83535714Y-44840093D01*
X82892857Y-45697236D02*
X83035714Y-45768664D01*
X83035714Y-45768664D02*
X83392857Y-45768664D01*
X83392857Y-45768664D02*
X83535714Y-45697236D01*
X83535714Y-45697236D02*
X83607142Y-45554378D01*
X83607142Y-45554378D02*
X83607142Y-45411521D01*
X83607142Y-45411521D02*
X83535714Y-45268664D01*
X83535714Y-45268664D02*
X83392857Y-45197236D01*
X83392857Y-45197236D02*
X83035714Y-45197236D01*
X83035714Y-45197236D02*
X82892857Y-45125807D01*
X122571428Y-47755009D02*
X121857143Y-47755009D01*
X122714285Y-48183580D02*
X122214285Y-46683580D01*
X122214285Y-46683580D02*
X121714285Y-48183580D01*
X121285714Y-48112152D02*
X121142857Y-48183580D01*
X121142857Y-48183580D02*
X120857143Y-48183580D01*
X120857143Y-48183580D02*
X120714286Y-48112152D01*
X120714286Y-48112152D02*
X120642857Y-47969294D01*
X120642857Y-47969294D02*
X120642857Y-47897866D01*
X120642857Y-47897866D02*
X120714286Y-47755009D01*
X120714286Y-47755009D02*
X120857143Y-47683580D01*
X120857143Y-47683580D02*
X121071429Y-47683580D01*
X121071429Y-47683580D02*
X121214286Y-47612152D01*
X121214286Y-47612152D02*
X121285714Y-47469294D01*
X121285714Y-47469294D02*
X121285714Y-47397866D01*
X121285714Y-47397866D02*
X121214286Y-47255009D01*
X121214286Y-47255009D02*
X121071429Y-47183580D01*
X121071429Y-47183580D02*
X120857143Y-47183580D01*
X120857143Y-47183580D02*
X120714286Y-47255009D01*
X120071428Y-48112152D02*
X119928571Y-48183580D01*
X119928571Y-48183580D02*
X119642857Y-48183580D01*
X119642857Y-48183580D02*
X119500000Y-48112152D01*
X119500000Y-48112152D02*
X119428571Y-47969294D01*
X119428571Y-47969294D02*
X119428571Y-47897866D01*
X119428571Y-47897866D02*
X119500000Y-47755009D01*
X119500000Y-47755009D02*
X119642857Y-47683580D01*
X119642857Y-47683580D02*
X119857143Y-47683580D01*
X119857143Y-47683580D02*
X120000000Y-47612152D01*
X120000000Y-47612152D02*
X120071428Y-47469294D01*
X120071428Y-47469294D02*
X120071428Y-47397866D01*
X120071428Y-47397866D02*
X120000000Y-47255009D01*
X120000000Y-47255009D02*
X119857143Y-47183580D01*
X119857143Y-47183580D02*
X119642857Y-47183580D01*
X119642857Y-47183580D02*
X119500000Y-47255009D01*
X118214285Y-48112152D02*
X118357142Y-48183580D01*
X118357142Y-48183580D02*
X118642857Y-48183580D01*
X118642857Y-48183580D02*
X118785714Y-48112152D01*
X118785714Y-48112152D02*
X118857142Y-47969294D01*
X118857142Y-47969294D02*
X118857142Y-47397866D01*
X118857142Y-47397866D02*
X118785714Y-47255009D01*
X118785714Y-47255009D02*
X118642857Y-47183580D01*
X118642857Y-47183580D02*
X118357142Y-47183580D01*
X118357142Y-47183580D02*
X118214285Y-47255009D01*
X118214285Y-47255009D02*
X118142857Y-47397866D01*
X118142857Y-47397866D02*
X118142857Y-47540723D01*
X118142857Y-47540723D02*
X118857142Y-47683580D01*
X117500000Y-48183580D02*
X117500000Y-47183580D01*
X117500000Y-47326437D02*
X117428571Y-47255009D01*
X117428571Y-47255009D02*
X117285714Y-47183580D01*
X117285714Y-47183580D02*
X117071428Y-47183580D01*
X117071428Y-47183580D02*
X116928571Y-47255009D01*
X116928571Y-47255009D02*
X116857143Y-47397866D01*
X116857143Y-47397866D02*
X116857143Y-48183580D01*
X116857143Y-47397866D02*
X116785714Y-47255009D01*
X116785714Y-47255009D02*
X116642857Y-47183580D01*
X116642857Y-47183580D02*
X116428571Y-47183580D01*
X116428571Y-47183580D02*
X116285714Y-47255009D01*
X116285714Y-47255009D02*
X116214285Y-47397866D01*
X116214285Y-47397866D02*
X116214285Y-48183580D01*
X115500000Y-48183580D02*
X115500000Y-46683580D01*
X115500000Y-47255009D02*
X115357143Y-47183580D01*
X115357143Y-47183580D02*
X115071428Y-47183580D01*
X115071428Y-47183580D02*
X114928571Y-47255009D01*
X114928571Y-47255009D02*
X114857143Y-47326437D01*
X114857143Y-47326437D02*
X114785714Y-47469294D01*
X114785714Y-47469294D02*
X114785714Y-47897866D01*
X114785714Y-47897866D02*
X114857143Y-48040723D01*
X114857143Y-48040723D02*
X114928571Y-48112152D01*
X114928571Y-48112152D02*
X115071428Y-48183580D01*
X115071428Y-48183580D02*
X115357143Y-48183580D01*
X115357143Y-48183580D02*
X115500000Y-48112152D01*
X113928571Y-48183580D02*
X114071428Y-48112152D01*
X114071428Y-48112152D02*
X114142857Y-47969294D01*
X114142857Y-47969294D02*
X114142857Y-46683580D01*
X112785714Y-48112152D02*
X112928571Y-48183580D01*
X112928571Y-48183580D02*
X113214286Y-48183580D01*
X113214286Y-48183580D02*
X113357143Y-48112152D01*
X113357143Y-48112152D02*
X113428571Y-47969294D01*
X113428571Y-47969294D02*
X113428571Y-47397866D01*
X113428571Y-47397866D02*
X113357143Y-47255009D01*
X113357143Y-47255009D02*
X113214286Y-47183580D01*
X113214286Y-47183580D02*
X112928571Y-47183580D01*
X112928571Y-47183580D02*
X112785714Y-47255009D01*
X112785714Y-47255009D02*
X112714286Y-47397866D01*
X112714286Y-47397866D02*
X112714286Y-47540723D01*
X112714286Y-47540723D02*
X113428571Y-47683580D01*
X111428572Y-48183580D02*
X111428572Y-46683580D01*
X111428572Y-48112152D02*
X111571429Y-48183580D01*
X111571429Y-48183580D02*
X111857143Y-48183580D01*
X111857143Y-48183580D02*
X112000000Y-48112152D01*
X112000000Y-48112152D02*
X112071429Y-48040723D01*
X112071429Y-48040723D02*
X112142857Y-47897866D01*
X112142857Y-47897866D02*
X112142857Y-47469294D01*
X112142857Y-47469294D02*
X112071429Y-47326437D01*
X112071429Y-47326437D02*
X112000000Y-47255009D01*
X112000000Y-47255009D02*
X111857143Y-47183580D01*
X111857143Y-47183580D02*
X111571429Y-47183580D01*
X111571429Y-47183580D02*
X111428572Y-47255009D01*
X109571429Y-48183580D02*
X109571429Y-46683580D01*
X109571429Y-47255009D02*
X109428572Y-47183580D01*
X109428572Y-47183580D02*
X109142857Y-47183580D01*
X109142857Y-47183580D02*
X109000000Y-47255009D01*
X109000000Y-47255009D02*
X108928572Y-47326437D01*
X108928572Y-47326437D02*
X108857143Y-47469294D01*
X108857143Y-47469294D02*
X108857143Y-47897866D01*
X108857143Y-47897866D02*
X108928572Y-48040723D01*
X108928572Y-48040723D02*
X109000000Y-48112152D01*
X109000000Y-48112152D02*
X109142857Y-48183580D01*
X109142857Y-48183580D02*
X109428572Y-48183580D01*
X109428572Y-48183580D02*
X109571429Y-48112152D01*
X108357143Y-47183580D02*
X108000000Y-48183580D01*
X107642857Y-47183580D02*
X108000000Y-48183580D01*
X108000000Y-48183580D02*
X108142857Y-48540723D01*
X108142857Y-48540723D02*
X108214286Y-48612152D01*
X108214286Y-48612152D02*
X108357143Y-48683580D01*
X105928572Y-48183580D02*
X105928572Y-46683580D01*
X105285715Y-48183580D02*
X105285715Y-47397866D01*
X105285715Y-47397866D02*
X105357143Y-47255009D01*
X105357143Y-47255009D02*
X105500000Y-47183580D01*
X105500000Y-47183580D02*
X105714286Y-47183580D01*
X105714286Y-47183580D02*
X105857143Y-47255009D01*
X105857143Y-47255009D02*
X105928572Y-47326437D01*
X103928572Y-48183580D02*
X103928572Y-47397866D01*
X103928572Y-47397866D02*
X104000000Y-47255009D01*
X104000000Y-47255009D02*
X104142857Y-47183580D01*
X104142857Y-47183580D02*
X104428572Y-47183580D01*
X104428572Y-47183580D02*
X104571429Y-47255009D01*
X103928572Y-48112152D02*
X104071429Y-48183580D01*
X104071429Y-48183580D02*
X104428572Y-48183580D01*
X104428572Y-48183580D02*
X104571429Y-48112152D01*
X104571429Y-48112152D02*
X104642857Y-47969294D01*
X104642857Y-47969294D02*
X104642857Y-47826437D01*
X104642857Y-47826437D02*
X104571429Y-47683580D01*
X104571429Y-47683580D02*
X104428572Y-47612152D01*
X104428572Y-47612152D02*
X104071429Y-47612152D01*
X104071429Y-47612152D02*
X103928572Y-47540723D01*
X103214286Y-47183580D02*
X103214286Y-48183580D01*
X103214286Y-47326437D02*
X103142857Y-47255009D01*
X103142857Y-47255009D02*
X103000000Y-47183580D01*
X103000000Y-47183580D02*
X102785714Y-47183580D01*
X102785714Y-47183580D02*
X102642857Y-47255009D01*
X102642857Y-47255009D02*
X102571429Y-47397866D01*
X102571429Y-47397866D02*
X102571429Y-48183580D01*
X101214286Y-48183580D02*
X101214286Y-46683580D01*
X101214286Y-48112152D02*
X101357143Y-48183580D01*
X101357143Y-48183580D02*
X101642857Y-48183580D01*
X101642857Y-48183580D02*
X101785714Y-48112152D01*
X101785714Y-48112152D02*
X101857143Y-48040723D01*
X101857143Y-48040723D02*
X101928571Y-47897866D01*
X101928571Y-47897866D02*
X101928571Y-47469294D01*
X101928571Y-47469294D02*
X101857143Y-47326437D01*
X101857143Y-47326437D02*
X101785714Y-47255009D01*
X101785714Y-47255009D02*
X101642857Y-47183580D01*
X101642857Y-47183580D02*
X101357143Y-47183580D01*
X101357143Y-47183580D02*
X101214286Y-47255009D01*
X99357143Y-48183580D02*
X99357143Y-47183580D01*
X99357143Y-46683580D02*
X99428571Y-46755009D01*
X99428571Y-46755009D02*
X99357143Y-46826437D01*
X99357143Y-46826437D02*
X99285714Y-46755009D01*
X99285714Y-46755009D02*
X99357143Y-46683580D01*
X99357143Y-46683580D02*
X99357143Y-46826437D01*
X98642857Y-47183580D02*
X98642857Y-48183580D01*
X98642857Y-47326437D02*
X98571428Y-47255009D01*
X98571428Y-47255009D02*
X98428571Y-47183580D01*
X98428571Y-47183580D02*
X98214285Y-47183580D01*
X98214285Y-47183580D02*
X98071428Y-47255009D01*
X98071428Y-47255009D02*
X98000000Y-47397866D01*
X98000000Y-47397866D02*
X98000000Y-48183580D01*
X96214285Y-47755009D02*
X95500000Y-47755009D01*
X96357142Y-48183580D02*
X95857142Y-46683580D01*
X95857142Y-46683580D02*
X95357142Y-48183580D01*
X94214286Y-47183580D02*
X94214286Y-48183580D01*
X94857143Y-47183580D02*
X94857143Y-47969294D01*
X94857143Y-47969294D02*
X94785714Y-48112152D01*
X94785714Y-48112152D02*
X94642857Y-48183580D01*
X94642857Y-48183580D02*
X94428571Y-48183580D01*
X94428571Y-48183580D02*
X94285714Y-48112152D01*
X94285714Y-48112152D02*
X94214286Y-48040723D01*
X93571428Y-48112152D02*
X93428571Y-48183580D01*
X93428571Y-48183580D02*
X93142857Y-48183580D01*
X93142857Y-48183580D02*
X93000000Y-48112152D01*
X93000000Y-48112152D02*
X92928571Y-47969294D01*
X92928571Y-47969294D02*
X92928571Y-47897866D01*
X92928571Y-47897866D02*
X93000000Y-47755009D01*
X93000000Y-47755009D02*
X93142857Y-47683580D01*
X93142857Y-47683580D02*
X93357143Y-47683580D01*
X93357143Y-47683580D02*
X93500000Y-47612152D01*
X93500000Y-47612152D02*
X93571428Y-47469294D01*
X93571428Y-47469294D02*
X93571428Y-47397866D01*
X93571428Y-47397866D02*
X93500000Y-47255009D01*
X93500000Y-47255009D02*
X93357143Y-47183580D01*
X93357143Y-47183580D02*
X93142857Y-47183580D01*
X93142857Y-47183580D02*
X93000000Y-47255009D01*
X92499999Y-47183580D02*
X91928571Y-47183580D01*
X92285714Y-46683580D02*
X92285714Y-47969294D01*
X92285714Y-47969294D02*
X92214285Y-48112152D01*
X92214285Y-48112152D02*
X92071428Y-48183580D01*
X92071428Y-48183580D02*
X91928571Y-48183580D01*
X91428571Y-48183580D02*
X91428571Y-47183580D01*
X91428571Y-47469294D02*
X91357142Y-47326437D01*
X91357142Y-47326437D02*
X91285714Y-47255009D01*
X91285714Y-47255009D02*
X91142856Y-47183580D01*
X91142856Y-47183580D02*
X90999999Y-47183580D01*
X89857143Y-48183580D02*
X89857143Y-47397866D01*
X89857143Y-47397866D02*
X89928571Y-47255009D01*
X89928571Y-47255009D02*
X90071428Y-47183580D01*
X90071428Y-47183580D02*
X90357143Y-47183580D01*
X90357143Y-47183580D02*
X90500000Y-47255009D01*
X89857143Y-48112152D02*
X90000000Y-48183580D01*
X90000000Y-48183580D02*
X90357143Y-48183580D01*
X90357143Y-48183580D02*
X90500000Y-48112152D01*
X90500000Y-48112152D02*
X90571428Y-47969294D01*
X90571428Y-47969294D02*
X90571428Y-47826437D01*
X90571428Y-47826437D02*
X90500000Y-47683580D01*
X90500000Y-47683580D02*
X90357143Y-47612152D01*
X90357143Y-47612152D02*
X90000000Y-47612152D01*
X90000000Y-47612152D02*
X89857143Y-47540723D01*
X88928571Y-48183580D02*
X89071428Y-48112152D01*
X89071428Y-48112152D02*
X89142857Y-47969294D01*
X89142857Y-47969294D02*
X89142857Y-46683580D01*
X88357143Y-48183580D02*
X88357143Y-47183580D01*
X88357143Y-46683580D02*
X88428571Y-46755009D01*
X88428571Y-46755009D02*
X88357143Y-46826437D01*
X88357143Y-46826437D02*
X88285714Y-46755009D01*
X88285714Y-46755009D02*
X88357143Y-46683580D01*
X88357143Y-46683580D02*
X88357143Y-46826437D01*
X87000000Y-48183580D02*
X87000000Y-47397866D01*
X87000000Y-47397866D02*
X87071428Y-47255009D01*
X87071428Y-47255009D02*
X87214285Y-47183580D01*
X87214285Y-47183580D02*
X87500000Y-47183580D01*
X87500000Y-47183580D02*
X87642857Y-47255009D01*
X87000000Y-48112152D02*
X87142857Y-48183580D01*
X87142857Y-48183580D02*
X87500000Y-48183580D01*
X87500000Y-48183580D02*
X87642857Y-48112152D01*
X87642857Y-48112152D02*
X87714285Y-47969294D01*
X87714285Y-47969294D02*
X87714285Y-47826437D01*
X87714285Y-47826437D02*
X87642857Y-47683580D01*
X87642857Y-47683580D02*
X87500000Y-47612152D01*
X87500000Y-47612152D02*
X87142857Y-47612152D01*
X87142857Y-47612152D02*
X87000000Y-47540723D01*
X127928571Y-63587992D02*
X127071429Y-63587992D01*
X127500000Y-65087992D02*
X127500000Y-63587992D01*
X126571429Y-65087992D02*
X126571429Y-63587992D01*
X125928572Y-65087992D02*
X125928572Y-64302278D01*
X125928572Y-64302278D02*
X126000000Y-64159421D01*
X126000000Y-64159421D02*
X126142857Y-64087992D01*
X126142857Y-64087992D02*
X126357143Y-64087992D01*
X126357143Y-64087992D02*
X126500000Y-64159421D01*
X126500000Y-64159421D02*
X126571429Y-64230849D01*
X125214286Y-65087992D02*
X125214286Y-64087992D01*
X125214286Y-63587992D02*
X125285714Y-63659421D01*
X125285714Y-63659421D02*
X125214286Y-63730849D01*
X125214286Y-63730849D02*
X125142857Y-63659421D01*
X125142857Y-63659421D02*
X125214286Y-63587992D01*
X125214286Y-63587992D02*
X125214286Y-63730849D01*
X124571428Y-65016564D02*
X124428571Y-65087992D01*
X124428571Y-65087992D02*
X124142857Y-65087992D01*
X124142857Y-65087992D02*
X124000000Y-65016564D01*
X124000000Y-65016564D02*
X123928571Y-64873706D01*
X123928571Y-64873706D02*
X123928571Y-64802278D01*
X123928571Y-64802278D02*
X124000000Y-64659421D01*
X124000000Y-64659421D02*
X124142857Y-64587992D01*
X124142857Y-64587992D02*
X124357143Y-64587992D01*
X124357143Y-64587992D02*
X124500000Y-64516564D01*
X124500000Y-64516564D02*
X124571428Y-64373706D01*
X124571428Y-64373706D02*
X124571428Y-64302278D01*
X124571428Y-64302278D02*
X124500000Y-64159421D01*
X124500000Y-64159421D02*
X124357143Y-64087992D01*
X124357143Y-64087992D02*
X124142857Y-64087992D01*
X124142857Y-64087992D02*
X124000000Y-64159421D01*
X122142857Y-65087992D02*
X122142857Y-64087992D01*
X122142857Y-63587992D02*
X122214285Y-63659421D01*
X122214285Y-63659421D02*
X122142857Y-63730849D01*
X122142857Y-63730849D02*
X122071428Y-63659421D01*
X122071428Y-63659421D02*
X122142857Y-63587992D01*
X122142857Y-63587992D02*
X122142857Y-63730849D01*
X121499999Y-65016564D02*
X121357142Y-65087992D01*
X121357142Y-65087992D02*
X121071428Y-65087992D01*
X121071428Y-65087992D02*
X120928571Y-65016564D01*
X120928571Y-65016564D02*
X120857142Y-64873706D01*
X120857142Y-64873706D02*
X120857142Y-64802278D01*
X120857142Y-64802278D02*
X120928571Y-64659421D01*
X120928571Y-64659421D02*
X121071428Y-64587992D01*
X121071428Y-64587992D02*
X121285714Y-64587992D01*
X121285714Y-64587992D02*
X121428571Y-64516564D01*
X121428571Y-64516564D02*
X121499999Y-64373706D01*
X121499999Y-64373706D02*
X121499999Y-64302278D01*
X121499999Y-64302278D02*
X121428571Y-64159421D01*
X121428571Y-64159421D02*
X121285714Y-64087992D01*
X121285714Y-64087992D02*
X121071428Y-64087992D01*
X121071428Y-64087992D02*
X120928571Y-64159421D01*
X118428571Y-65087992D02*
X118428571Y-64302278D01*
X118428571Y-64302278D02*
X118499999Y-64159421D01*
X118499999Y-64159421D02*
X118642856Y-64087992D01*
X118642856Y-64087992D02*
X118928571Y-64087992D01*
X118928571Y-64087992D02*
X119071428Y-64159421D01*
X118428571Y-65016564D02*
X118571428Y-65087992D01*
X118571428Y-65087992D02*
X118928571Y-65087992D01*
X118928571Y-65087992D02*
X119071428Y-65016564D01*
X119071428Y-65016564D02*
X119142856Y-64873706D01*
X119142856Y-64873706D02*
X119142856Y-64730849D01*
X119142856Y-64730849D02*
X119071428Y-64587992D01*
X119071428Y-64587992D02*
X118928571Y-64516564D01*
X118928571Y-64516564D02*
X118571428Y-64516564D01*
X118571428Y-64516564D02*
X118428571Y-64445135D01*
X117714285Y-64087992D02*
X117714285Y-65087992D01*
X117714285Y-64230849D02*
X117642856Y-64159421D01*
X117642856Y-64159421D02*
X117499999Y-64087992D01*
X117499999Y-64087992D02*
X117285713Y-64087992D01*
X117285713Y-64087992D02*
X117142856Y-64159421D01*
X117142856Y-64159421D02*
X117071428Y-64302278D01*
X117071428Y-64302278D02*
X117071428Y-65087992D01*
X114571428Y-64087992D02*
X114571428Y-65087992D01*
X115214285Y-64087992D02*
X115214285Y-64873706D01*
X115214285Y-64873706D02*
X115142856Y-65016564D01*
X115142856Y-65016564D02*
X114999999Y-65087992D01*
X114999999Y-65087992D02*
X114785713Y-65087992D01*
X114785713Y-65087992D02*
X114642856Y-65016564D01*
X114642856Y-65016564D02*
X114571428Y-64945135D01*
X113857142Y-64087992D02*
X113857142Y-65087992D01*
X113857142Y-64230849D02*
X113785713Y-64159421D01*
X113785713Y-64159421D02*
X113642856Y-64087992D01*
X113642856Y-64087992D02*
X113428570Y-64087992D01*
X113428570Y-64087992D02*
X113285713Y-64159421D01*
X113285713Y-64159421D02*
X113214285Y-64302278D01*
X113214285Y-64302278D02*
X113214285Y-65087992D01*
X112499999Y-64087992D02*
X112499999Y-65087992D01*
X112499999Y-64230849D02*
X112428570Y-64159421D01*
X112428570Y-64159421D02*
X112285713Y-64087992D01*
X112285713Y-64087992D02*
X112071427Y-64087992D01*
X112071427Y-64087992D02*
X111928570Y-64159421D01*
X111928570Y-64159421D02*
X111857142Y-64302278D01*
X111857142Y-64302278D02*
X111857142Y-65087992D01*
X110928570Y-65087992D02*
X111071427Y-65016564D01*
X111071427Y-65016564D02*
X111142856Y-64945135D01*
X111142856Y-64945135D02*
X111214284Y-64802278D01*
X111214284Y-64802278D02*
X111214284Y-64373706D01*
X111214284Y-64373706D02*
X111142856Y-64230849D01*
X111142856Y-64230849D02*
X111071427Y-64159421D01*
X111071427Y-64159421D02*
X110928570Y-64087992D01*
X110928570Y-64087992D02*
X110714284Y-64087992D01*
X110714284Y-64087992D02*
X110571427Y-64159421D01*
X110571427Y-64159421D02*
X110499999Y-64230849D01*
X110499999Y-64230849D02*
X110428570Y-64373706D01*
X110428570Y-64373706D02*
X110428570Y-64802278D01*
X110428570Y-64802278D02*
X110499999Y-64945135D01*
X110499999Y-64945135D02*
X110571427Y-65016564D01*
X110571427Y-65016564D02*
X110714284Y-65087992D01*
X110714284Y-65087992D02*
X110928570Y-65087992D01*
X109999998Y-64087992D02*
X109428570Y-64087992D01*
X109785713Y-65087992D02*
X109785713Y-63802278D01*
X109785713Y-63802278D02*
X109714284Y-63659421D01*
X109714284Y-63659421D02*
X109571427Y-63587992D01*
X109571427Y-63587992D02*
X109428570Y-63587992D01*
X109142855Y-64087992D02*
X108571427Y-64087992D01*
X108928570Y-65087992D02*
X108928570Y-63802278D01*
X108928570Y-63802278D02*
X108857141Y-63659421D01*
X108857141Y-63659421D02*
X108714284Y-63587992D01*
X108714284Y-63587992D02*
X108571427Y-63587992D01*
X108071427Y-65087992D02*
X108071427Y-64087992D01*
X108071427Y-63587992D02*
X108142855Y-63659421D01*
X108142855Y-63659421D02*
X108071427Y-63730849D01*
X108071427Y-63730849D02*
X107999998Y-63659421D01*
X107999998Y-63659421D02*
X108071427Y-63587992D01*
X108071427Y-63587992D02*
X108071427Y-63730849D01*
X106714284Y-65016564D02*
X106857141Y-65087992D01*
X106857141Y-65087992D02*
X107142855Y-65087992D01*
X107142855Y-65087992D02*
X107285712Y-65016564D01*
X107285712Y-65016564D02*
X107357141Y-64945135D01*
X107357141Y-64945135D02*
X107428569Y-64802278D01*
X107428569Y-64802278D02*
X107428569Y-64373706D01*
X107428569Y-64373706D02*
X107357141Y-64230849D01*
X107357141Y-64230849D02*
X107285712Y-64159421D01*
X107285712Y-64159421D02*
X107142855Y-64087992D01*
X107142855Y-64087992D02*
X106857141Y-64087992D01*
X106857141Y-64087992D02*
X106714284Y-64159421D01*
X106071427Y-65087992D02*
X106071427Y-64087992D01*
X106071427Y-63587992D02*
X106142855Y-63659421D01*
X106142855Y-63659421D02*
X106071427Y-63730849D01*
X106071427Y-63730849D02*
X105999998Y-63659421D01*
X105999998Y-63659421D02*
X106071427Y-63587992D01*
X106071427Y-63587992D02*
X106071427Y-63730849D01*
X104714284Y-65087992D02*
X104714284Y-64302278D01*
X104714284Y-64302278D02*
X104785712Y-64159421D01*
X104785712Y-64159421D02*
X104928569Y-64087992D01*
X104928569Y-64087992D02*
X105214284Y-64087992D01*
X105214284Y-64087992D02*
X105357141Y-64159421D01*
X104714284Y-65016564D02*
X104857141Y-65087992D01*
X104857141Y-65087992D02*
X105214284Y-65087992D01*
X105214284Y-65087992D02*
X105357141Y-65016564D01*
X105357141Y-65016564D02*
X105428569Y-64873706D01*
X105428569Y-64873706D02*
X105428569Y-64730849D01*
X105428569Y-64730849D02*
X105357141Y-64587992D01*
X105357141Y-64587992D02*
X105214284Y-64516564D01*
X105214284Y-64516564D02*
X104857141Y-64516564D01*
X104857141Y-64516564D02*
X104714284Y-64445135D01*
X103785712Y-65087992D02*
X103928569Y-65016564D01*
X103928569Y-65016564D02*
X103999998Y-64873706D01*
X103999998Y-64873706D02*
X103999998Y-63587992D01*
X101428570Y-65016564D02*
X101571427Y-65087992D01*
X101571427Y-65087992D02*
X101857141Y-65087992D01*
X101857141Y-65087992D02*
X101999998Y-65016564D01*
X101999998Y-65016564D02*
X102071427Y-64945135D01*
X102071427Y-64945135D02*
X102142855Y-64802278D01*
X102142855Y-64802278D02*
X102142855Y-64373706D01*
X102142855Y-64373706D02*
X102071427Y-64230849D01*
X102071427Y-64230849D02*
X101999998Y-64159421D01*
X101999998Y-64159421D02*
X101857141Y-64087992D01*
X101857141Y-64087992D02*
X101571427Y-64087992D01*
X101571427Y-64087992D02*
X101428570Y-64159421D01*
X100571427Y-65087992D02*
X100714284Y-65016564D01*
X100714284Y-65016564D02*
X100785713Y-64945135D01*
X100785713Y-64945135D02*
X100857141Y-64802278D01*
X100857141Y-64802278D02*
X100857141Y-64373706D01*
X100857141Y-64373706D02*
X100785713Y-64230849D01*
X100785713Y-64230849D02*
X100714284Y-64159421D01*
X100714284Y-64159421D02*
X100571427Y-64087992D01*
X100571427Y-64087992D02*
X100357141Y-64087992D01*
X100357141Y-64087992D02*
X100214284Y-64159421D01*
X100214284Y-64159421D02*
X100142856Y-64230849D01*
X100142856Y-64230849D02*
X100071427Y-64373706D01*
X100071427Y-64373706D02*
X100071427Y-64802278D01*
X100071427Y-64802278D02*
X100142856Y-64945135D01*
X100142856Y-64945135D02*
X100214284Y-65016564D01*
X100214284Y-65016564D02*
X100357141Y-65087992D01*
X100357141Y-65087992D02*
X100571427Y-65087992D01*
X99428570Y-65087992D02*
X99428570Y-64087992D01*
X99428570Y-64230849D02*
X99357141Y-64159421D01*
X99357141Y-64159421D02*
X99214284Y-64087992D01*
X99214284Y-64087992D02*
X98999998Y-64087992D01*
X98999998Y-64087992D02*
X98857141Y-64159421D01*
X98857141Y-64159421D02*
X98785713Y-64302278D01*
X98785713Y-64302278D02*
X98785713Y-65087992D01*
X98785713Y-64302278D02*
X98714284Y-64159421D01*
X98714284Y-64159421D02*
X98571427Y-64087992D01*
X98571427Y-64087992D02*
X98357141Y-64087992D01*
X98357141Y-64087992D02*
X98214284Y-64159421D01*
X98214284Y-64159421D02*
X98142855Y-64302278D01*
X98142855Y-64302278D02*
X98142855Y-65087992D01*
X97428570Y-65087992D02*
X97428570Y-64087992D01*
X97428570Y-64230849D02*
X97357141Y-64159421D01*
X97357141Y-64159421D02*
X97214284Y-64087992D01*
X97214284Y-64087992D02*
X96999998Y-64087992D01*
X96999998Y-64087992D02*
X96857141Y-64159421D01*
X96857141Y-64159421D02*
X96785713Y-64302278D01*
X96785713Y-64302278D02*
X96785713Y-65087992D01*
X96785713Y-64302278D02*
X96714284Y-64159421D01*
X96714284Y-64159421D02*
X96571427Y-64087992D01*
X96571427Y-64087992D02*
X96357141Y-64087992D01*
X96357141Y-64087992D02*
X96214284Y-64159421D01*
X96214284Y-64159421D02*
X96142855Y-64302278D01*
X96142855Y-64302278D02*
X96142855Y-65087992D01*
X94785713Y-64087992D02*
X94785713Y-65087992D01*
X95428570Y-64087992D02*
X95428570Y-64873706D01*
X95428570Y-64873706D02*
X95357141Y-65016564D01*
X95357141Y-65016564D02*
X95214284Y-65087992D01*
X95214284Y-65087992D02*
X94999998Y-65087992D01*
X94999998Y-65087992D02*
X94857141Y-65016564D01*
X94857141Y-65016564D02*
X94785713Y-64945135D01*
X94071427Y-64087992D02*
X94071427Y-65087992D01*
X94071427Y-64230849D02*
X93999998Y-64159421D01*
X93999998Y-64159421D02*
X93857141Y-64087992D01*
X93857141Y-64087992D02*
X93642855Y-64087992D01*
X93642855Y-64087992D02*
X93499998Y-64159421D01*
X93499998Y-64159421D02*
X93428570Y-64302278D01*
X93428570Y-64302278D02*
X93428570Y-65087992D01*
X92714284Y-65087992D02*
X92714284Y-64087992D01*
X92714284Y-63587992D02*
X92785712Y-63659421D01*
X92785712Y-63659421D02*
X92714284Y-63730849D01*
X92714284Y-63730849D02*
X92642855Y-63659421D01*
X92642855Y-63659421D02*
X92714284Y-63587992D01*
X92714284Y-63587992D02*
X92714284Y-63730849D01*
X92214283Y-64087992D02*
X91642855Y-64087992D01*
X91999998Y-63587992D02*
X91999998Y-64873706D01*
X91999998Y-64873706D02*
X91928569Y-65016564D01*
X91928569Y-65016564D02*
X91785712Y-65087992D01*
X91785712Y-65087992D02*
X91642855Y-65087992D01*
X91285712Y-64087992D02*
X90928569Y-65087992D01*
X90571426Y-64087992D02*
X90928569Y-65087992D01*
X90928569Y-65087992D02*
X91071426Y-65445135D01*
X91071426Y-65445135D02*
X91142855Y-65516564D01*
X91142855Y-65516564D02*
X91285712Y-65587992D01*
X88857141Y-64087992D02*
X88857141Y-65587992D01*
X88857141Y-64159421D02*
X88714284Y-64087992D01*
X88714284Y-64087992D02*
X88428569Y-64087992D01*
X88428569Y-64087992D02*
X88285712Y-64159421D01*
X88285712Y-64159421D02*
X88214284Y-64230849D01*
X88214284Y-64230849D02*
X88142855Y-64373706D01*
X88142855Y-64373706D02*
X88142855Y-64802278D01*
X88142855Y-64802278D02*
X88214284Y-64945135D01*
X88214284Y-64945135D02*
X88285712Y-65016564D01*
X88285712Y-65016564D02*
X88428569Y-65087992D01*
X88428569Y-65087992D02*
X88714284Y-65087992D01*
X88714284Y-65087992D02*
X88857141Y-65016564D01*
X87499998Y-65087992D02*
X87499998Y-64087992D01*
X87499998Y-64373706D02*
X87428569Y-64230849D01*
X87428569Y-64230849D02*
X87357141Y-64159421D01*
X87357141Y-64159421D02*
X87214283Y-64087992D01*
X87214283Y-64087992D02*
X87071426Y-64087992D01*
X86357141Y-65087992D02*
X86499998Y-65016564D01*
X86499998Y-65016564D02*
X86571427Y-64945135D01*
X86571427Y-64945135D02*
X86642855Y-64802278D01*
X86642855Y-64802278D02*
X86642855Y-64373706D01*
X86642855Y-64373706D02*
X86571427Y-64230849D01*
X86571427Y-64230849D02*
X86499998Y-64159421D01*
X86499998Y-64159421D02*
X86357141Y-64087992D01*
X86357141Y-64087992D02*
X86142855Y-64087992D01*
X86142855Y-64087992D02*
X85999998Y-64159421D01*
X85999998Y-64159421D02*
X85928570Y-64230849D01*
X85928570Y-64230849D02*
X85857141Y-64373706D01*
X85857141Y-64373706D02*
X85857141Y-64802278D01*
X85857141Y-64802278D02*
X85928570Y-64945135D01*
X85928570Y-64945135D02*
X85999998Y-65016564D01*
X85999998Y-65016564D02*
X86142855Y-65087992D01*
X86142855Y-65087992D02*
X86357141Y-65087992D01*
X85214284Y-64087992D02*
X85214284Y-65373706D01*
X85214284Y-65373706D02*
X85285712Y-65516564D01*
X85285712Y-65516564D02*
X85428569Y-65587992D01*
X85428569Y-65587992D02*
X85499998Y-65587992D01*
X85214284Y-63587992D02*
X85285712Y-63659421D01*
X85285712Y-63659421D02*
X85214284Y-63730849D01*
X85214284Y-63730849D02*
X85142855Y-63659421D01*
X85142855Y-63659421D02*
X85214284Y-63587992D01*
X85214284Y-63587992D02*
X85214284Y-63730849D01*
X83928569Y-65016564D02*
X84071426Y-65087992D01*
X84071426Y-65087992D02*
X84357141Y-65087992D01*
X84357141Y-65087992D02*
X84499998Y-65016564D01*
X84499998Y-65016564D02*
X84571426Y-64873706D01*
X84571426Y-64873706D02*
X84571426Y-64302278D01*
X84571426Y-64302278D02*
X84499998Y-64159421D01*
X84499998Y-64159421D02*
X84357141Y-64087992D01*
X84357141Y-64087992D02*
X84071426Y-64087992D01*
X84071426Y-64087992D02*
X83928569Y-64159421D01*
X83928569Y-64159421D02*
X83857141Y-64302278D01*
X83857141Y-64302278D02*
X83857141Y-64445135D01*
X83857141Y-64445135D02*
X84571426Y-64587992D01*
X82571427Y-65016564D02*
X82714284Y-65087992D01*
X82714284Y-65087992D02*
X82999998Y-65087992D01*
X82999998Y-65087992D02*
X83142855Y-65016564D01*
X83142855Y-65016564D02*
X83214284Y-64945135D01*
X83214284Y-64945135D02*
X83285712Y-64802278D01*
X83285712Y-64802278D02*
X83285712Y-64373706D01*
X83285712Y-64373706D02*
X83214284Y-64230849D01*
X83214284Y-64230849D02*
X83142855Y-64159421D01*
X83142855Y-64159421D02*
X82999998Y-64087992D01*
X82999998Y-64087992D02*
X82714284Y-64087992D01*
X82714284Y-64087992D02*
X82571427Y-64159421D01*
X82142855Y-64087992D02*
X81571427Y-64087992D01*
X81928570Y-63587992D02*
X81928570Y-64873706D01*
X81928570Y-64873706D02*
X81857141Y-65016564D01*
X81857141Y-65016564D02*
X81714284Y-65087992D01*
X81714284Y-65087992D02*
X81571427Y-65087992D01*
D11*
X72454819Y-58261905D02*
X71454819Y-58261905D01*
X71454819Y-58261905D02*
X71454819Y-58500000D01*
X71454819Y-58500000D02*
X71502438Y-58642857D01*
X71502438Y-58642857D02*
X71597676Y-58738095D01*
X71597676Y-58738095D02*
X71692914Y-58785714D01*
X71692914Y-58785714D02*
X71883390Y-58833333D01*
X71883390Y-58833333D02*
X72026247Y-58833333D01*
X72026247Y-58833333D02*
X72216723Y-58785714D01*
X72216723Y-58785714D02*
X72311961Y-58738095D01*
X72311961Y-58738095D02*
X72407200Y-58642857D01*
X72407200Y-58642857D02*
X72454819Y-58500000D01*
X72454819Y-58500000D02*
X72454819Y-58261905D01*
X71550057Y-59214286D02*
X71502438Y-59261905D01*
X71502438Y-59261905D02*
X71454819Y-59357143D01*
X71454819Y-59357143D02*
X71454819Y-59595238D01*
X71454819Y-59595238D02*
X71502438Y-59690476D01*
X71502438Y-59690476D02*
X71550057Y-59738095D01*
X71550057Y-59738095D02*
X71645295Y-59785714D01*
X71645295Y-59785714D02*
X71740533Y-59785714D01*
X71740533Y-59785714D02*
X71883390Y-59738095D01*
X71883390Y-59738095D02*
X72454819Y-59166667D01*
X72454819Y-59166667D02*
X72454819Y-59785714D01*
X72454819Y-39261905D02*
X71454819Y-39261905D01*
X71454819Y-39261905D02*
X71454819Y-39500000D01*
X71454819Y-39500000D02*
X71502438Y-39642857D01*
X71502438Y-39642857D02*
X71597676Y-39738095D01*
X71597676Y-39738095D02*
X71692914Y-39785714D01*
X71692914Y-39785714D02*
X71883390Y-39833333D01*
X71883390Y-39833333D02*
X72026247Y-39833333D01*
X72026247Y-39833333D02*
X72216723Y-39785714D01*
X72216723Y-39785714D02*
X72311961Y-39738095D01*
X72311961Y-39738095D02*
X72407200Y-39642857D01*
X72407200Y-39642857D02*
X72454819Y-39500000D01*
X72454819Y-39500000D02*
X72454819Y-39261905D01*
X72454819Y-40785714D02*
X72454819Y-40214286D01*
X72454819Y-40500000D02*
X71454819Y-40500000D01*
X71454819Y-40500000D02*
X71597676Y-40404762D01*
X71597676Y-40404762D02*
X71692914Y-40309524D01*
X71692914Y-40309524D02*
X71740533Y-40214286D01*
X110454819Y-77261905D02*
X109454819Y-77261905D01*
X109454819Y-77261905D02*
X109454819Y-77500000D01*
X109454819Y-77500000D02*
X109502438Y-77642857D01*
X109502438Y-77642857D02*
X109597676Y-77738095D01*
X109597676Y-77738095D02*
X109692914Y-77785714D01*
X109692914Y-77785714D02*
X109883390Y-77833333D01*
X109883390Y-77833333D02*
X110026247Y-77833333D01*
X110026247Y-77833333D02*
X110216723Y-77785714D01*
X110216723Y-77785714D02*
X110311961Y-77738095D01*
X110311961Y-77738095D02*
X110407200Y-77642857D01*
X110407200Y-77642857D02*
X110454819Y-77500000D01*
X110454819Y-77500000D02*
X110454819Y-77261905D01*
X110454819Y-78309524D02*
X110454819Y-78500000D01*
X110454819Y-78500000D02*
X110407200Y-78595238D01*
X110407200Y-78595238D02*
X110359580Y-78642857D01*
X110359580Y-78642857D02*
X110216723Y-78738095D01*
X110216723Y-78738095D02*
X110026247Y-78785714D01*
X110026247Y-78785714D02*
X109645295Y-78785714D01*
X109645295Y-78785714D02*
X109550057Y-78738095D01*
X109550057Y-78738095D02*
X109502438Y-78690476D01*
X109502438Y-78690476D02*
X109454819Y-78595238D01*
X109454819Y-78595238D02*
X109454819Y-78404762D01*
X109454819Y-78404762D02*
X109502438Y-78309524D01*
X109502438Y-78309524D02*
X109550057Y-78261905D01*
X109550057Y-78261905D02*
X109645295Y-78214286D01*
X109645295Y-78214286D02*
X109883390Y-78214286D01*
X109883390Y-78214286D02*
X109978628Y-78261905D01*
X109978628Y-78261905D02*
X110026247Y-78309524D01*
X110026247Y-78309524D02*
X110073866Y-78404762D01*
X110073866Y-78404762D02*
X110073866Y-78595238D01*
X110073866Y-78595238D02*
X110026247Y-78690476D01*
X110026247Y-78690476D02*
X109978628Y-78738095D01*
X109978628Y-78738095D02*
X109883390Y-78785714D01*
X148454819Y-76785714D02*
X147454819Y-76785714D01*
X147454819Y-76785714D02*
X147454819Y-77023809D01*
X147454819Y-77023809D02*
X147502438Y-77166666D01*
X147502438Y-77166666D02*
X147597676Y-77261904D01*
X147597676Y-77261904D02*
X147692914Y-77309523D01*
X147692914Y-77309523D02*
X147883390Y-77357142D01*
X147883390Y-77357142D02*
X148026247Y-77357142D01*
X148026247Y-77357142D02*
X148216723Y-77309523D01*
X148216723Y-77309523D02*
X148311961Y-77261904D01*
X148311961Y-77261904D02*
X148407200Y-77166666D01*
X148407200Y-77166666D02*
X148454819Y-77023809D01*
X148454819Y-77023809D02*
X148454819Y-76785714D01*
X148454819Y-78309523D02*
X148454819Y-77738095D01*
X148454819Y-78023809D02*
X147454819Y-78023809D01*
X147454819Y-78023809D02*
X147597676Y-77928571D01*
X147597676Y-77928571D02*
X147692914Y-77833333D01*
X147692914Y-77833333D02*
X147740533Y-77738095D01*
X147454819Y-79214285D02*
X147454819Y-78738095D01*
X147454819Y-78738095D02*
X147931009Y-78690476D01*
X147931009Y-78690476D02*
X147883390Y-78738095D01*
X147883390Y-78738095D02*
X147835771Y-78833333D01*
X147835771Y-78833333D02*
X147835771Y-79071428D01*
X147835771Y-79071428D02*
X147883390Y-79166666D01*
X147883390Y-79166666D02*
X147931009Y-79214285D01*
X147931009Y-79214285D02*
X148026247Y-79261904D01*
X148026247Y-79261904D02*
X148264342Y-79261904D01*
X148264342Y-79261904D02*
X148359580Y-79214285D01*
X148359580Y-79214285D02*
X148407200Y-79166666D01*
X148407200Y-79166666D02*
X148454819Y-79071428D01*
X148454819Y-79071428D02*
X148454819Y-78833333D01*
X148454819Y-78833333D02*
X148407200Y-78738095D01*
X148407200Y-78738095D02*
X148359580Y-78690476D01*
X110454819Y-58261905D02*
X109454819Y-58261905D01*
X109454819Y-58261905D02*
X109454819Y-58500000D01*
X109454819Y-58500000D02*
X109502438Y-58642857D01*
X109502438Y-58642857D02*
X109597676Y-58738095D01*
X109597676Y-58738095D02*
X109692914Y-58785714D01*
X109692914Y-58785714D02*
X109883390Y-58833333D01*
X109883390Y-58833333D02*
X110026247Y-58833333D01*
X110026247Y-58833333D02*
X110216723Y-58785714D01*
X110216723Y-58785714D02*
X110311961Y-58738095D01*
X110311961Y-58738095D02*
X110407200Y-58642857D01*
X110407200Y-58642857D02*
X110454819Y-58500000D01*
X110454819Y-58500000D02*
X110454819Y-58261905D01*
X109883390Y-59404762D02*
X109835771Y-59309524D01*
X109835771Y-59309524D02*
X109788152Y-59261905D01*
X109788152Y-59261905D02*
X109692914Y-59214286D01*
X109692914Y-59214286D02*
X109645295Y-59214286D01*
X109645295Y-59214286D02*
X109550057Y-59261905D01*
X109550057Y-59261905D02*
X109502438Y-59309524D01*
X109502438Y-59309524D02*
X109454819Y-59404762D01*
X109454819Y-59404762D02*
X109454819Y-59595238D01*
X109454819Y-59595238D02*
X109502438Y-59690476D01*
X109502438Y-59690476D02*
X109550057Y-59738095D01*
X109550057Y-59738095D02*
X109645295Y-59785714D01*
X109645295Y-59785714D02*
X109692914Y-59785714D01*
X109692914Y-59785714D02*
X109788152Y-59738095D01*
X109788152Y-59738095D02*
X109835771Y-59690476D01*
X109835771Y-59690476D02*
X109883390Y-59595238D01*
X109883390Y-59595238D02*
X109883390Y-59404762D01*
X109883390Y-59404762D02*
X109931009Y-59309524D01*
X109931009Y-59309524D02*
X109978628Y-59261905D01*
X109978628Y-59261905D02*
X110073866Y-59214286D01*
X110073866Y-59214286D02*
X110264342Y-59214286D01*
X110264342Y-59214286D02*
X110359580Y-59261905D01*
X110359580Y-59261905D02*
X110407200Y-59309524D01*
X110407200Y-59309524D02*
X110454819Y-59404762D01*
X110454819Y-59404762D02*
X110454819Y-59595238D01*
X110454819Y-59595238D02*
X110407200Y-59690476D01*
X110407200Y-59690476D02*
X110359580Y-59738095D01*
X110359580Y-59738095D02*
X110264342Y-59785714D01*
X110264342Y-59785714D02*
X110073866Y-59785714D01*
X110073866Y-59785714D02*
X109978628Y-59738095D01*
X109978628Y-59738095D02*
X109931009Y-59690476D01*
X109931009Y-59690476D02*
X109883390Y-59595238D01*
X91454819Y-77261905D02*
X90454819Y-77261905D01*
X90454819Y-77261905D02*
X90454819Y-77500000D01*
X90454819Y-77500000D02*
X90502438Y-77642857D01*
X90502438Y-77642857D02*
X90597676Y-77738095D01*
X90597676Y-77738095D02*
X90692914Y-77785714D01*
X90692914Y-77785714D02*
X90883390Y-77833333D01*
X90883390Y-77833333D02*
X91026247Y-77833333D01*
X91026247Y-77833333D02*
X91216723Y-77785714D01*
X91216723Y-77785714D02*
X91311961Y-77738095D01*
X91311961Y-77738095D02*
X91407200Y-77642857D01*
X91407200Y-77642857D02*
X91454819Y-77500000D01*
X91454819Y-77500000D02*
X91454819Y-77261905D01*
X90454819Y-78690476D02*
X90454819Y-78500000D01*
X90454819Y-78500000D02*
X90502438Y-78404762D01*
X90502438Y-78404762D02*
X90550057Y-78357143D01*
X90550057Y-78357143D02*
X90692914Y-78261905D01*
X90692914Y-78261905D02*
X90883390Y-78214286D01*
X90883390Y-78214286D02*
X91264342Y-78214286D01*
X91264342Y-78214286D02*
X91359580Y-78261905D01*
X91359580Y-78261905D02*
X91407200Y-78309524D01*
X91407200Y-78309524D02*
X91454819Y-78404762D01*
X91454819Y-78404762D02*
X91454819Y-78595238D01*
X91454819Y-78595238D02*
X91407200Y-78690476D01*
X91407200Y-78690476D02*
X91359580Y-78738095D01*
X91359580Y-78738095D02*
X91264342Y-78785714D01*
X91264342Y-78785714D02*
X91026247Y-78785714D01*
X91026247Y-78785714D02*
X90931009Y-78738095D01*
X90931009Y-78738095D02*
X90883390Y-78690476D01*
X90883390Y-78690476D02*
X90835771Y-78595238D01*
X90835771Y-78595238D02*
X90835771Y-78404762D01*
X90835771Y-78404762D02*
X90883390Y-78309524D01*
X90883390Y-78309524D02*
X90931009Y-78261905D01*
X90931009Y-78261905D02*
X91026247Y-78214286D01*
X110454819Y-39261905D02*
X109454819Y-39261905D01*
X109454819Y-39261905D02*
X109454819Y-39500000D01*
X109454819Y-39500000D02*
X109502438Y-39642857D01*
X109502438Y-39642857D02*
X109597676Y-39738095D01*
X109597676Y-39738095D02*
X109692914Y-39785714D01*
X109692914Y-39785714D02*
X109883390Y-39833333D01*
X109883390Y-39833333D02*
X110026247Y-39833333D01*
X110026247Y-39833333D02*
X110216723Y-39785714D01*
X110216723Y-39785714D02*
X110311961Y-39738095D01*
X110311961Y-39738095D02*
X110407200Y-39642857D01*
X110407200Y-39642857D02*
X110454819Y-39500000D01*
X110454819Y-39500000D02*
X110454819Y-39261905D01*
X109454819Y-40166667D02*
X109454819Y-40833333D01*
X109454819Y-40833333D02*
X110454819Y-40404762D01*
X91454819Y-39261905D02*
X90454819Y-39261905D01*
X90454819Y-39261905D02*
X90454819Y-39500000D01*
X90454819Y-39500000D02*
X90502438Y-39642857D01*
X90502438Y-39642857D02*
X90597676Y-39738095D01*
X90597676Y-39738095D02*
X90692914Y-39785714D01*
X90692914Y-39785714D02*
X90883390Y-39833333D01*
X90883390Y-39833333D02*
X91026247Y-39833333D01*
X91026247Y-39833333D02*
X91216723Y-39785714D01*
X91216723Y-39785714D02*
X91311961Y-39738095D01*
X91311961Y-39738095D02*
X91407200Y-39642857D01*
X91407200Y-39642857D02*
X91454819Y-39500000D01*
X91454819Y-39500000D02*
X91454819Y-39261905D01*
X90788152Y-40690476D02*
X91454819Y-40690476D01*
X90407200Y-40452381D02*
X91121485Y-40214286D01*
X91121485Y-40214286D02*
X91121485Y-40833333D01*
X129454819Y-38785714D02*
X128454819Y-38785714D01*
X128454819Y-38785714D02*
X128454819Y-39023809D01*
X128454819Y-39023809D02*
X128502438Y-39166666D01*
X128502438Y-39166666D02*
X128597676Y-39261904D01*
X128597676Y-39261904D02*
X128692914Y-39309523D01*
X128692914Y-39309523D02*
X128883390Y-39357142D01*
X128883390Y-39357142D02*
X129026247Y-39357142D01*
X129026247Y-39357142D02*
X129216723Y-39309523D01*
X129216723Y-39309523D02*
X129311961Y-39261904D01*
X129311961Y-39261904D02*
X129407200Y-39166666D01*
X129407200Y-39166666D02*
X129454819Y-39023809D01*
X129454819Y-39023809D02*
X129454819Y-38785714D01*
X129454819Y-40309523D02*
X129454819Y-39738095D01*
X129454819Y-40023809D02*
X128454819Y-40023809D01*
X128454819Y-40023809D02*
X128597676Y-39928571D01*
X128597676Y-39928571D02*
X128692914Y-39833333D01*
X128692914Y-39833333D02*
X128740533Y-39738095D01*
X128454819Y-40928571D02*
X128454819Y-41023809D01*
X128454819Y-41023809D02*
X128502438Y-41119047D01*
X128502438Y-41119047D02*
X128550057Y-41166666D01*
X128550057Y-41166666D02*
X128645295Y-41214285D01*
X128645295Y-41214285D02*
X128835771Y-41261904D01*
X128835771Y-41261904D02*
X129073866Y-41261904D01*
X129073866Y-41261904D02*
X129264342Y-41214285D01*
X129264342Y-41214285D02*
X129359580Y-41166666D01*
X129359580Y-41166666D02*
X129407200Y-41119047D01*
X129407200Y-41119047D02*
X129454819Y-41023809D01*
X129454819Y-41023809D02*
X129454819Y-40928571D01*
X129454819Y-40928571D02*
X129407200Y-40833333D01*
X129407200Y-40833333D02*
X129359580Y-40785714D01*
X129359580Y-40785714D02*
X129264342Y-40738095D01*
X129264342Y-40738095D02*
X129073866Y-40690476D01*
X129073866Y-40690476D02*
X128835771Y-40690476D01*
X128835771Y-40690476D02*
X128645295Y-40738095D01*
X128645295Y-40738095D02*
X128550057Y-40785714D01*
X128550057Y-40785714D02*
X128502438Y-40833333D01*
X128502438Y-40833333D02*
X128454819Y-40928571D01*
X148454819Y-38785714D02*
X147454819Y-38785714D01*
X147454819Y-38785714D02*
X147454819Y-39023809D01*
X147454819Y-39023809D02*
X147502438Y-39166666D01*
X147502438Y-39166666D02*
X147597676Y-39261904D01*
X147597676Y-39261904D02*
X147692914Y-39309523D01*
X147692914Y-39309523D02*
X147883390Y-39357142D01*
X147883390Y-39357142D02*
X148026247Y-39357142D01*
X148026247Y-39357142D02*
X148216723Y-39309523D01*
X148216723Y-39309523D02*
X148311961Y-39261904D01*
X148311961Y-39261904D02*
X148407200Y-39166666D01*
X148407200Y-39166666D02*
X148454819Y-39023809D01*
X148454819Y-39023809D02*
X148454819Y-38785714D01*
X148454819Y-40309523D02*
X148454819Y-39738095D01*
X148454819Y-40023809D02*
X147454819Y-40023809D01*
X147454819Y-40023809D02*
X147597676Y-39928571D01*
X147597676Y-39928571D02*
X147692914Y-39833333D01*
X147692914Y-39833333D02*
X147740533Y-39738095D01*
X147454819Y-40642857D02*
X147454819Y-41261904D01*
X147454819Y-41261904D02*
X147835771Y-40928571D01*
X147835771Y-40928571D02*
X147835771Y-41071428D01*
X147835771Y-41071428D02*
X147883390Y-41166666D01*
X147883390Y-41166666D02*
X147931009Y-41214285D01*
X147931009Y-41214285D02*
X148026247Y-41261904D01*
X148026247Y-41261904D02*
X148264342Y-41261904D01*
X148264342Y-41261904D02*
X148359580Y-41214285D01*
X148359580Y-41214285D02*
X148407200Y-41166666D01*
X148407200Y-41166666D02*
X148454819Y-41071428D01*
X148454819Y-41071428D02*
X148454819Y-40785714D01*
X148454819Y-40785714D02*
X148407200Y-40690476D01*
X148407200Y-40690476D02*
X148359580Y-40642857D01*
X148454819Y-57785714D02*
X147454819Y-57785714D01*
X147454819Y-57785714D02*
X147454819Y-58023809D01*
X147454819Y-58023809D02*
X147502438Y-58166666D01*
X147502438Y-58166666D02*
X147597676Y-58261904D01*
X147597676Y-58261904D02*
X147692914Y-58309523D01*
X147692914Y-58309523D02*
X147883390Y-58357142D01*
X147883390Y-58357142D02*
X148026247Y-58357142D01*
X148026247Y-58357142D02*
X148216723Y-58309523D01*
X148216723Y-58309523D02*
X148311961Y-58261904D01*
X148311961Y-58261904D02*
X148407200Y-58166666D01*
X148407200Y-58166666D02*
X148454819Y-58023809D01*
X148454819Y-58023809D02*
X148454819Y-57785714D01*
X148454819Y-59309523D02*
X148454819Y-58738095D01*
X148454819Y-59023809D02*
X147454819Y-59023809D01*
X147454819Y-59023809D02*
X147597676Y-58928571D01*
X147597676Y-58928571D02*
X147692914Y-58833333D01*
X147692914Y-58833333D02*
X147740533Y-58738095D01*
X147788152Y-60166666D02*
X148454819Y-60166666D01*
X147407200Y-59928571D02*
X148121485Y-59690476D01*
X148121485Y-59690476D02*
X148121485Y-60309523D01*
X72454819Y-77261905D02*
X71454819Y-77261905D01*
X71454819Y-77261905D02*
X71454819Y-77500000D01*
X71454819Y-77500000D02*
X71502438Y-77642857D01*
X71502438Y-77642857D02*
X71597676Y-77738095D01*
X71597676Y-77738095D02*
X71692914Y-77785714D01*
X71692914Y-77785714D02*
X71883390Y-77833333D01*
X71883390Y-77833333D02*
X72026247Y-77833333D01*
X72026247Y-77833333D02*
X72216723Y-77785714D01*
X72216723Y-77785714D02*
X72311961Y-77738095D01*
X72311961Y-77738095D02*
X72407200Y-77642857D01*
X72407200Y-77642857D02*
X72454819Y-77500000D01*
X72454819Y-77500000D02*
X72454819Y-77261905D01*
X71454819Y-78166667D02*
X71454819Y-78785714D01*
X71454819Y-78785714D02*
X71835771Y-78452381D01*
X71835771Y-78452381D02*
X71835771Y-78595238D01*
X71835771Y-78595238D02*
X71883390Y-78690476D01*
X71883390Y-78690476D02*
X71931009Y-78738095D01*
X71931009Y-78738095D02*
X72026247Y-78785714D01*
X72026247Y-78785714D02*
X72264342Y-78785714D01*
X72264342Y-78785714D02*
X72359580Y-78738095D01*
X72359580Y-78738095D02*
X72407200Y-78690476D01*
X72407200Y-78690476D02*
X72454819Y-78595238D01*
X72454819Y-78595238D02*
X72454819Y-78309524D01*
X72454819Y-78309524D02*
X72407200Y-78214286D01*
X72407200Y-78214286D02*
X72359580Y-78166667D01*
X129454819Y-76785714D02*
X128454819Y-76785714D01*
X128454819Y-76785714D02*
X128454819Y-77023809D01*
X128454819Y-77023809D02*
X128502438Y-77166666D01*
X128502438Y-77166666D02*
X128597676Y-77261904D01*
X128597676Y-77261904D02*
X128692914Y-77309523D01*
X128692914Y-77309523D02*
X128883390Y-77357142D01*
X128883390Y-77357142D02*
X129026247Y-77357142D01*
X129026247Y-77357142D02*
X129216723Y-77309523D01*
X129216723Y-77309523D02*
X129311961Y-77261904D01*
X129311961Y-77261904D02*
X129407200Y-77166666D01*
X129407200Y-77166666D02*
X129454819Y-77023809D01*
X129454819Y-77023809D02*
X129454819Y-76785714D01*
X129454819Y-78309523D02*
X129454819Y-77738095D01*
X129454819Y-78023809D02*
X128454819Y-78023809D01*
X128454819Y-78023809D02*
X128597676Y-77928571D01*
X128597676Y-77928571D02*
X128692914Y-77833333D01*
X128692914Y-77833333D02*
X128740533Y-77738095D01*
X128550057Y-78690476D02*
X128502438Y-78738095D01*
X128502438Y-78738095D02*
X128454819Y-78833333D01*
X128454819Y-78833333D02*
X128454819Y-79071428D01*
X128454819Y-79071428D02*
X128502438Y-79166666D01*
X128502438Y-79166666D02*
X128550057Y-79214285D01*
X128550057Y-79214285D02*
X128645295Y-79261904D01*
X128645295Y-79261904D02*
X128740533Y-79261904D01*
X128740533Y-79261904D02*
X128883390Y-79214285D01*
X128883390Y-79214285D02*
X129454819Y-78642857D01*
X129454819Y-78642857D02*
X129454819Y-79261904D01*
X91454819Y-58261905D02*
X90454819Y-58261905D01*
X90454819Y-58261905D02*
X90454819Y-58500000D01*
X90454819Y-58500000D02*
X90502438Y-58642857D01*
X90502438Y-58642857D02*
X90597676Y-58738095D01*
X90597676Y-58738095D02*
X90692914Y-58785714D01*
X90692914Y-58785714D02*
X90883390Y-58833333D01*
X90883390Y-58833333D02*
X91026247Y-58833333D01*
X91026247Y-58833333D02*
X91216723Y-58785714D01*
X91216723Y-58785714D02*
X91311961Y-58738095D01*
X91311961Y-58738095D02*
X91407200Y-58642857D01*
X91407200Y-58642857D02*
X91454819Y-58500000D01*
X91454819Y-58500000D02*
X91454819Y-58261905D01*
X90454819Y-59738095D02*
X90454819Y-59261905D01*
X90454819Y-59261905D02*
X90931009Y-59214286D01*
X90931009Y-59214286D02*
X90883390Y-59261905D01*
X90883390Y-59261905D02*
X90835771Y-59357143D01*
X90835771Y-59357143D02*
X90835771Y-59595238D01*
X90835771Y-59595238D02*
X90883390Y-59690476D01*
X90883390Y-59690476D02*
X90931009Y-59738095D01*
X90931009Y-59738095D02*
X91026247Y-59785714D01*
X91026247Y-59785714D02*
X91264342Y-59785714D01*
X91264342Y-59785714D02*
X91359580Y-59738095D01*
X91359580Y-59738095D02*
X91407200Y-59690476D01*
X91407200Y-59690476D02*
X91454819Y-59595238D01*
X91454819Y-59595238D02*
X91454819Y-59357143D01*
X91454819Y-59357143D02*
X91407200Y-59261905D01*
X91407200Y-59261905D02*
X91359580Y-59214286D01*
X129454819Y-57785714D02*
X128454819Y-57785714D01*
X128454819Y-57785714D02*
X128454819Y-58023809D01*
X128454819Y-58023809D02*
X128502438Y-58166666D01*
X128502438Y-58166666D02*
X128597676Y-58261904D01*
X128597676Y-58261904D02*
X128692914Y-58309523D01*
X128692914Y-58309523D02*
X128883390Y-58357142D01*
X128883390Y-58357142D02*
X129026247Y-58357142D01*
X129026247Y-58357142D02*
X129216723Y-58309523D01*
X129216723Y-58309523D02*
X129311961Y-58261904D01*
X129311961Y-58261904D02*
X129407200Y-58166666D01*
X129407200Y-58166666D02*
X129454819Y-58023809D01*
X129454819Y-58023809D02*
X129454819Y-57785714D01*
X129454819Y-59309523D02*
X129454819Y-58738095D01*
X129454819Y-59023809D02*
X128454819Y-59023809D01*
X128454819Y-59023809D02*
X128597676Y-58928571D01*
X128597676Y-58928571D02*
X128692914Y-58833333D01*
X128692914Y-58833333D02*
X128740533Y-58738095D01*
X129454819Y-60261904D02*
X129454819Y-59690476D01*
X129454819Y-59976190D02*
X128454819Y-59976190D01*
X128454819Y-59976190D02*
X128597676Y-59880952D01*
X128597676Y-59880952D02*
X128692914Y-59785714D01*
X128692914Y-59785714D02*
X128740533Y-59690476D01*
D12*
%TO.C,D2*%
X68890000Y-57250000D02*
X68890000Y-61660000D01*
X68890000Y-61660000D02*
X71110000Y-61660000D01*
X71110000Y-61660000D02*
X71110000Y-57250000D01*
%TO.C,D1*%
X68890000Y-38250000D02*
X68890000Y-42660000D01*
X68890000Y-42660000D02*
X71110000Y-42660000D01*
X71110000Y-42660000D02*
X71110000Y-38250000D01*
%TO.C,D9*%
X106890000Y-76250000D02*
X106890000Y-80660000D01*
X106890000Y-80660000D02*
X109110000Y-80660000D01*
X109110000Y-80660000D02*
X109110000Y-76250000D01*
%TO.C,D15*%
X144890000Y-76250000D02*
X144890000Y-80660000D01*
X144890000Y-80660000D02*
X147110000Y-80660000D01*
X147110000Y-80660000D02*
X147110000Y-76250000D01*
%TO.C,D8*%
X106890000Y-57250000D02*
X106890000Y-61660000D01*
X106890000Y-61660000D02*
X109110000Y-61660000D01*
X109110000Y-61660000D02*
X109110000Y-57250000D01*
%TO.C,D6*%
X87890000Y-76250000D02*
X87890000Y-80660000D01*
X87890000Y-80660000D02*
X90110000Y-80660000D01*
X90110000Y-80660000D02*
X90110000Y-76250000D01*
%TO.C,D7*%
X106890000Y-38250000D02*
X106890000Y-42660000D01*
X106890000Y-42660000D02*
X109110000Y-42660000D01*
X109110000Y-42660000D02*
X109110000Y-38250000D01*
%TO.C,D4*%
X87890000Y-38250000D02*
X87890000Y-42660000D01*
X87890000Y-42660000D02*
X90110000Y-42660000D01*
X90110000Y-42660000D02*
X90110000Y-38250000D01*
%TO.C,D10*%
X125890000Y-38250000D02*
X125890000Y-42660000D01*
X125890000Y-42660000D02*
X128110000Y-42660000D01*
X128110000Y-42660000D02*
X128110000Y-38250000D01*
%TO.C,D13*%
X144890000Y-38250000D02*
X144890000Y-42660000D01*
X144890000Y-42660000D02*
X147110000Y-42660000D01*
X147110000Y-42660000D02*
X147110000Y-38250000D01*
%TO.C,D14*%
X144890000Y-57250000D02*
X144890000Y-61660000D01*
X144890000Y-61660000D02*
X147110000Y-61660000D01*
X147110000Y-61660000D02*
X147110000Y-57250000D01*
%TO.C,D3*%
X68890000Y-76250000D02*
X68890000Y-80660000D01*
X68890000Y-80660000D02*
X71110000Y-80660000D01*
X71110000Y-80660000D02*
X71110000Y-76250000D01*
%TO.C,D12*%
X125890000Y-76250000D02*
X125890000Y-80660000D01*
X125890000Y-80660000D02*
X128110000Y-80660000D01*
X128110000Y-80660000D02*
X128110000Y-76250000D01*
%TO.C,D5*%
X87890000Y-57250000D02*
X87890000Y-61660000D01*
X87890000Y-61660000D02*
X90110000Y-61660000D01*
X90110000Y-61660000D02*
X90110000Y-57250000D01*
%TO.C,D11*%
X125890000Y-57250000D02*
X125890000Y-61660000D01*
X125890000Y-61660000D02*
X128110000Y-61660000D01*
X128110000Y-61660000D02*
X128110000Y-57250000D01*
%TD*%
M02*
