M48
; DRILL file {KiCad 8.99.0-unknown-e3e63fb1b8~178~ubuntu22.04.1} date 2024-06-01T22:38:46+1000
; FORMAT={-:-/ absolute / metric / decimal}
; #@! TF.CreationDate,2024-06-01T22:38:46+10:00
; #@! TF.GenerationSoftware,Kicad,Pcbnew,8.99.0-unknown-e3e63fb1b8~178~ubuntu22.04.1
; #@! TF.FileFunction,Plated,1,2,PTH
FMAT,2
METRIC
; #@! TA.AperFunction,Plated,PTH,ViaDrill
T1C0.400
; #@! TA.AperFunction,Plated,PTH,ComponentDrill
T2C0.400
; #@! TA.AperFunction,Plated,PTH,ComponentDrill
T3C0.800
; #@! TA.AperFunction,Plated,PTH,ComponentDrill
T4C1.000
; #@! TA.AperFunction,Plated,PTH,ComponentDrill
T5C1.500
; #@! TA.AperFunction,Plated,PTH,ComponentDrill
T6C2.000
; #@! TA.AperFunction,Plated,PTH,ComponentDrill
T7C2.200
%
G90
G05
T1
X70.0Y-44.0
X70.0Y-63.0
X70.0Y-82.0
X89.0Y-44.0
X89.0Y-63.0
X89.0Y-82.0
X108.0Y-44.0
X108.0Y-63.0
X108.0Y-82.0
X127.0Y-44.0
X127.0Y-63.0
X127.0Y-82.0
X146.0Y-44.0
X146.0Y-63.0
X146.0Y-82.0
T2
X43.1Y-28.75
X43.1Y-81.25
X43.583Y-27.583
X43.583Y-29.917
X43.583Y-80.083
X43.583Y-82.417
X44.75Y-27.1
X44.75Y-30.4
X44.75Y-79.6
X44.75Y-82.9
X45.917Y-27.583
X45.917Y-29.917
X45.917Y-80.083
X45.917Y-82.417
X46.4Y-28.75
X46.4Y-81.25
X163.1Y-28.75
X163.1Y-81.25
X163.583Y-27.583
X163.583Y-29.917
X163.583Y-80.083
X163.583Y-82.417
X164.75Y-27.1
X164.75Y-30.4
X164.75Y-79.6
X164.75Y-82.9
X165.917Y-27.583
X165.917Y-29.917
X165.917Y-80.083
X165.917Y-82.417
X166.4Y-28.75
X166.4Y-81.25
T3
X41.59Y-47.38
X41.59Y-62.62
X44.13Y-47.38
X44.13Y-62.62
X46.67Y-47.38
X46.67Y-62.62
X49.21Y-47.38
X49.21Y-62.62
X51.75Y-47.38
X51.75Y-62.62
X54.29Y-47.38
X54.29Y-62.62
X56.83Y-47.38
X56.83Y-62.62
X59.37Y-47.38
X59.37Y-62.62
X61.91Y-47.38
X61.91Y-62.62
X62.12Y-49.92
X62.12Y-52.46
X62.12Y-55.0
X62.12Y-57.54
X62.12Y-60.08
T4
X53.05Y-27.5
X53.05Y-42.0
X55.55Y-42.0
X58.05Y-27.5
X58.05Y-42.0
T5
X71.19Y-33.46
X71.19Y-52.46
X71.19Y-71.46
X77.54Y-30.92
X77.54Y-49.92
X77.54Y-68.92
X90.19Y-33.46
X90.19Y-52.46
X90.19Y-71.46
X96.54Y-30.92
X96.54Y-49.92
X96.54Y-68.92
X109.19Y-33.46
X109.19Y-52.46
X109.19Y-71.46
X115.54Y-30.92
X115.54Y-49.92
X115.54Y-68.92
X128.19Y-33.46
X128.19Y-52.46
X128.19Y-71.46
X134.54Y-30.92
X134.54Y-49.92
X134.54Y-68.92
X147.19Y-33.46
X147.19Y-52.46
X147.19Y-71.46
X153.54Y-30.92
X153.54Y-49.92
X153.54Y-68.92
T7
X44.75Y-28.75
X44.75Y-81.25
X164.75Y-28.75
X164.75Y-81.25
T6
G00X49.95Y-35.05
M15
G01X49.95Y-33.95
M16
G05
G00X61.15Y-35.05
M15
G01X61.15Y-33.95
M16
G05
M30
