<?xml version="1.0" encoding="UTF-8" standalone="no"?>
<!-- Created with Inkscape (http://www.inkscape.org/) -->

<svg
   version="1.1"
   id="svg1"
   width="4000"
   height="4000"
   viewBox="0 0 4000 4000"
   sodipodi:docname="SkyLogo.svg"
   inkscape:version="1.3.2 (1:1.3.2+202311252150+091e20ef0f)"
   xmlns:inkscape="http://www.inkscape.org/namespaces/inkscape"
   xmlns:sodipodi="http://sodipodi.sourceforge.net/DTD/sodipodi-0.dtd"
   xmlns="http://www.w3.org/2000/svg"
   xmlns:svg="http://www.w3.org/2000/svg">
  <defs
     id="defs1" />
  <sodipodi:namedview
     id="namedview1"
     pagecolor="#505050"
     bordercolor="#eeeeee"
     borderopacity="1"
     inkscape:showpageshadow="0"
     inkscape:pageopacity="0"
     inkscape:pagecheckerboard="0"
     inkscape:deskcolor="#505050"
     inkscape:zoom="0.14195169"
     inkscape:cx="1718.8947"
     inkscape:cy="2278.9444"
     inkscape:window-width="1920"
     inkscape:window-height="1007"
     inkscape:window-x="0"
     inkscape:window-y="0"
     inkscape:window-maximized="1"
     inkscape:current-layer="g1" />
  <g
     inkscape:groupmode="layer"
     inkscape:label="Image"
     id="g1">
    <path
       style="fill:#000000"
       d="m 2356.9246,3386.0821 c -18.0307,-2.5264 -32.8519,-11.3253 -38.0379,-22.5821 -4.0138,-8.7125 -1.2572,-21.1465 6.2408,-28.15 1.8549,-1.7325 8.5143,-6.3668 14.7988,-10.2983 58.8872,-36.8399 186.8723,-143.6695 311.5454,-260.0479 165.1858,-154.1956 304.106,-304.6548 390.3248,-422.7458 13.6768,-18.7327 46.2035,-66.7366 46.2035,-68.1885 0,-0.4221 -4.4471,-1.0383 -9.8823,-1.3694 -19.6609,-1.1978 -45.9801,-8.0975 -62.5415,-16.3955 -24.505,-12.2781 -42.8529,-29.3305 -57.6894,-53.6164 -43.2181,-70.743 -90.6877,-163.2305 -118.9184,-231.695 -40.9667,-99.3513 -63.6331,-187.9846 -70.0574,-273.9483 -1.5523,-20.7715 -0.6445,-75.9041 1.5568,-94.5449 9.259,-78.4066 34.5908,-144.7967 78.6013,-206 29.1529,-40.5415 72.5751,-82.8424 110.9309,-108.0663 54.327,-35.7271 104.4964,-47.7908 149.1031,-35.8533 41.9937,11.2382 73.92,45.1993 86.4728,91.9841 2.3392,8.7183 2.7272,12.3933 3.1669,29.998 1.004,40.191 -4.4454,73.173 -33.8188,204.6875 -36.7496,164.5402 -47.9219,299.2457 -35.8504,432.25 2.4819,27.3458 3.3543,33.0789 6.467,42.5 9.1324,27.6399 32.3813,43.1024 54.3485,36.1463 11.5418,-3.6548 14.2482,-6.2338 48.9499,-46.6463 72.2117,-84.0954 119.4837,-135.5522 155.9678,-169.775 32.1726,-30.1784 44.1405,-39.125 59.4688,-44.4556 7.746,-2.6938 16.1618,-2.7675 17.8157,-0.156 2.5,3.9477 0.085,12.351 -6.2181,21.6331 -1.7753,2.6144 -31.4004,42.3285 -65.8336,88.2535 -34.4333,45.925 -88.2189,117.925 -119.5237,160 -216.3613,290.7993 -342.008,453.2486 -459.4304,594 -174.0984,208.6877 -304.4399,335.1514 -387.5264,375.9969 -13.065,6.4228 -31.6257,12.9782 -43.5591,15.3845 -9.3722,1.8898 -25.7247,2.7306 -33.0754,1.7007 z m -588.3155,-797.6158 c -5.573,-5.573 -4.5409,-24.9098 2.9144,-54.6019 6.0923,-24.264 37.5908,-145.5475 57.1008,-219.8644 85.5095,-325.72 162.9826,-603.8241 217.0106,-779 32.2462,-104.5523 61.5054,-191.553 78.8026,-234.3153 65.6145,-162.2133 176.8385,-274.4251 318.0625,-320.88744 36.6709,-12.06463 62.3817,-12.28899 85.735,-0.74813 8.6722,4.28566 13.6701,8.04707 20.9585,15.77306 11.4054,12.09041 18.6662,26.71181 23.6125,47.54991 2.4757,10.4298 2.6382,12.6022 2.59,34.6279 -0.043,19.7349 -0.4032,25.4226 -2.2473,35.5 -6.8704,37.545 -18.2699,68.5247 -40.9638,111.3252 -36.7091,69.2327 -68.5421,123.6084 -233.3953,398.6748 -59.6625,99.55 -116.1357,194.05 -125.496,210 -34.1268,58.1522 -76.4242,131.5 -75.832,131.5 0.2111,0 6.2271,-4.6641 13.369,-10.3648 121.5538,-97.0239 337.0166,-209.1511 479.6129,-249.5913 56.5362,-16.0336 72.4971,-16.0263 86.9419,0.04 20.833,23.1713 22.1308,78.5171 3.6016,153.5841 -10.5234,42.6329 -25.6081,83.2609 -44.8638,120.8322 -21.1359,41.2402 -38.0461,61.9393 -65.1232,79.7149 -24.6728,16.1972 -58.803,29.7138 -103,40.791 -38.7452,9.7109 -74.9645,15.7997 -149,25.0484 -86.9903,10.8672 -110.2214,14.537 -129.7714,20.5001 -11.7103,3.5719 -16.516,6.2005 -24.2938,13.2884 -26.2287,23.902 -38.7317,55.17 -33.9186,84.825 8.4421,52.0152 56.5773,107.3181 144.4838,165.9987 37.9098,25.306 88.4807,53.433 134.75,74.9465 8.1125,3.772 14.75,7.1011 14.75,7.3979 0,0.2969 -10.2158,6.4276 -22.7018,13.6237 l -22.7018,13.0839 -12.0482,-4.9688 C 2221.9337,2452.6959 2107.0636,2373.336 2043.6805,2289 c -21.728,-28.9107 -38.6609,-63.0873 -46.0772,-93 -3.0402,-12.2624 -5.589,-28.4048 -5.5974,-35.45 -0,-2.9706 -0.3658,-4.5701 -0.9059,-4 -3.1708,3.347 -64.0328,121.7602 -88.8927,172.95 -38.3905,79.0509 -64.1983,136.312 -92.1691,204.5 -3.9482,9.625 -9.4451,21.775 -12.2153,27 -11.5909,21.8619 -23.5626,33.1175 -29.2138,27.4663 z m 719.6171,-69.045 c 0.9494,-0.9912 1.9414,-1.587 2.2045,-1.3239 0.2631,0.2631 -0.5137,1.0741 -1.7262,1.8022 -2.1063,1.2649 -2.1276,1.2436 -0.4783,-0.4783 z M 662,2446.9674 v -29.0325 l 29.25,0.6601 c 85.94437,1.9398 170.30912,-12.3165 266.50874,-45.0357 39.86895,-13.5601 153.94426,-58.0873 167.85776,-65.5201 13.4182,-7.1683 51.7064,-30.2693 68.5362,-41.3511 107.2103,-70.5938 163.688,-139.0877 177.0243,-214.6881 1.7266,-9.7879 1.7106,-43.0292 -0.025,-53 -3.8269,-21.9789 -10.274,-41.0972 -21.0784,-62.5059 -28.3926,-56.2595 -81.1205,-110.7514 -188.9756,-195.2975 -90.9753,-71.3143 -114.6287,-89.9336 -140.5975,-110.6744 -35.88103,-28.6575 -69.64455,-56.5399 -101,-83.4072 -77.1635,-66.1183 -109.16967,-97.8668 -139.74033,-138.615 -72.04122,-96.0252 -105.2939,-212.7932 -95.68462,-336 C 693.57203,950.73288 747.30078,820.13033 836.90688,701 900.59828,616.32298 985.85564,532.78794 1082.5,460.36822 c 126.6478,-94.90259 285.6402,-180.6331 429,-231.32163 202.0529,-71.44099 407.947,-82.95186 590.6022,-33.01865 157.7041,43.11223 291.6502,130.78141 365.1154,238.97206 52.3618,77.11201 65.8588,154.16782 37.6495,214.94412 -8.3798,18.05425 -25.3205,39.24085 -42.681,53.37831 -14.7266,11.99261 -57.3727,41.37529 -92.7304,63.89029 -59.096,37.63089 -112.7868,68.94005 -222.9557,130.01385 -218.1091,120.91213 -308.4837,175.94443 -393,239.31183 -99.2631,74.4241 -162.337,148.0488 -185.1034,216.0671 -16.6335,49.695 -9.5332,103.4257 20.624,156.0712 18.6847,32.6178 40.6234,61.6108 97.4793,128.8233 24.9458,29.4898 43.3209,52.6646 57.5857,72.6273 33.2447,46.5241 53.4092,91.0847 59.3635,131.1847 12.0528,81.1715 -24.0991,165.8978 -106.8617,250.4426 -37.1879,37.9887 -72.8947,67.094 -123.5874,100.7384 -77.2335,51.2593 -161.3514,93.8018 -265.8377,134.4468 -12.4643,4.8486 -32.7873,13.0875 -45.1623,18.3085 -98.2045,41.4332 -196.1042,70.2366 -354,104.1517 -89.45376,19.2141 -149.91064,26.6 -217.73293,26.6 H 662 Z"
       id="path3" />
  </g>
</svg>
