<?xml version="1.0" encoding="UTF-8" standalone="no"?>
<!-- Created with Inkscape (http://www.inkscape.org/) -->

<svg
   width="250"
   height="250"
   viewBox="0 0 66.145832 66.145833"
   version="1.1"
   id="svg1"
   inkscape:version="1.3.2 (1:1.3.2+202311252150+091e20ef0f)"
   sodipodi:docname="SkyMusicLogo.svg"
   xmlns:inkscape="http://www.inkscape.org/namespaces/inkscape"
   xmlns:sodipodi="http://sodipodi.sourceforge.net/DTD/sodipodi-0.dtd"
   xmlns="http://www.w3.org/2000/svg"
   xmlns:svg="http://www.w3.org/2000/svg">
  <sodipodi:namedview
     id="namedview1"
     pagecolor="#505050"
     bordercolor="#eeeeee"
     borderopacity="1"
     inkscape:showpageshadow="0"
     inkscape:pageopacity="0"
     inkscape:pagecheckerboard="0"
     inkscape:deskcolor="#505050"
     inkscape:document-units="px"
     inkscape:zoom="1.4307099"
     inkscape:cx="116.72527"
     inkscape:cy="156.21616"
     inkscape:window-width="1920"
     inkscape:window-height="1007"
     inkscape:window-x="0"
     inkscape:window-y="0"
     inkscape:window-maximized="1"
     inkscape:current-layer="layer1" />
  <defs
     id="defs1" />
  <g
     inkscape:label="Layer 1"
     inkscape:groupmode="layer"
     id="layer1">
    <path
       style="fill:#000000;stroke:none;stroke-width:1.02027"
       d="m 27.923507,0.10174479 c -1.2941,0.48115636 -1.268852,3.00960171 -1.367271,4.16764471 -0.264846,3.1164721 0.07736,7.3112135 -2.396516,9.5054285 -1.778169,1.577133 -4.94297,5.489345 -7.173149,5.989493 -3.080026,0.690735 -5.449786,-3.816176 -8.3900698,-0.546573 -2.063702,2.294843 1.9256778,5.708311 2.8005918,7.530651 0.724954,1.509987 0.601176,5.497491 0.18849,7.122195 -0.405553,1.596667 -2.3256051,1.632953 -3.6370259,1.649041 -2.4868068,0.03046 -6.8049912,-0.426943 -7.87032349,2.743452 -0.56182221,1.671982 2.04200069,3.829032 3.35131169,4.290748 4.3605522,1.537703 7.7661677,-2.691812 10.2838687,3.109817 0.957479,2.206358 -0.232043,3.241451 -1.527881,4.934413 -0.52921,0.691408 -1.35194,1.805948 -0.426832,2.563874 1.518829,1.244342 5.096165,-2.799389 7.354465,-2.109951 1.236612,0.377534 2.231727,1.364687 3.455709,1.821647 1.989235,0.742633 5.578959,0.830142 7.040651,2.492798 1.653016,1.880299 0.453447,6.276875 1.126468,8.663152 0.386102,1.368975 1.846538,2.510236 3.262085,1.986406 3.71727,-1.375584 0.715188,-8.51585 3.992696,-10.974458 3.801965,-2.852022 7.965397,-5.099246 11.110466,-8.82961 1.675661,-1.987514 2.415524,-5.761862 4.845535,-6.948546 2.78519,-1.360116 6.321914,-0.901031 9.293172,-2.308984 1.03698,-0.49138 2.544837,-0.969922 2.835464,-2.267106 0.571537,-2.550995 -2.473324,-2.903144 -4.164578,-3.161423 -2.243069,-0.342554 -6.31053,0.179908 -8.183934,-1.1748 -1.248065,-0.902512 -2.000366,-3.049451 -2.64614,-4.425067 -0.423818,-0.902815 -1.151314,-2.138096 -1.109036,-3.173065 0.135653,-3.320386 5.884344,-5.311933 2.047014,-9.118132 -2.560601,-2.539816 -5.642265,3.979369 -8.449758,2.99771 -2.506207,-0.876312 -4.686142,-3.545974 -7.177249,-4.747218 -1.201297,-0.579277 -2.940122,-0.744341 -3.7603,-1.9176668 C 31.685777,8.6147891 31.471537,6.3935942 30.983771,4.817658 30.570703,3.4830609 30.086252,-0.70237762 27.923507,0.10174479 M 28.417011,18.390893 c 6.904324,-2.102819 13.802701,3.26722 17.455771,8.905757 1.064861,1.643623 2.453271,3.465694 2.697621,5.482685 0.419749,3.46471 -1.029907,5.946784 -2.794633,8.772294 -1.200574,1.922241 -2.6481,4.755096 -4.865037,5.502351 -2.565042,0.864592 -5.798132,2.165547 -8.506362,2.165361 -3.686888,-2.39e-4 -10.331491,-3.436031 -12.672999,-6.298094 -2.077416,-2.539257 -1.947329,-4.803938 -1.947329,-7.948835 0,-6.815863 3.591945,-14.437069 10.632968,-16.581519 m 4.253181,8.499638 c -2.991121,0.216586 -6.474037,1.603008 -7.854319,4.518141 -2.064606,4.360384 3.064282,7.912913 6.791026,7.651216 1.718591,-0.120684 4.423898,0.0041 5.670084,-1.386743 1.392077,-1.554312 2.146519,-6.722729 0.968129,-8.624661 -0.858789,-1.386071 -4.075412,-2.266536 -5.57492,-2.157953 m 16.751012,20.621394 c -4.367555,1.774254 1.514388,7.401517 4.192267,6.026937 3.300532,-1.694196 -1.301213,-7.201374 -4.192267,-6.026937 z"
       id="path3-1" />
  </g>
</svg>
