<?xml version="1.0" standalone="no"?>
 <!DOCTYPE svg PUBLIC "-//W3C//DTD SVG 1.1//EN" 
 "http://www.w3.org/Graphics/SVG/1.1/DTD/svg11.dtd"> 
<svg
  xmlns:svg="http://www.w3.org/2000/svg"
  xmlns="http://www.w3.org/2000/svg"
  xmlns:xlink="http://www.w3.org/1999/xlink"
  version="1.1"
  width="297.0022mm" height="210.0072mm" viewBox="0.0000 0.0000 297.0022 210.0072">
<title>SVG Image created as SkyMusicPad-brd.svg date 2024/05/27 13:47:08 </title>
  <desc>Image generated by PCBNEW </desc>
<g style="fill:#000000; fill-opacity:1.0000;stroke:#000000; stroke-opacity:1.0000;
stroke-linecap:round; stroke-linejoin:round;"
 transform="translate(0 0) scale(1 1)">
</g>
<g style="fill:none; 
stroke:#000000; stroke-width:0.0500; stroke-opacity:1; 
stroke-linecap:round; stroke-linejoin:round;">
<path d="M144.4000 67.4000
L157.6000 67.4000
" />
<path d="M144.4000 80.6000
L144.4000 67.4000
" />
<path d="M157.6000 67.4000
L157.6000 80.6000
" />
<path d="M157.6000 80.6000
L144.4000 80.6000
" />
<path d="M125.4000 29.4000
L138.6000 29.4000
" />
<path d="M125.4000 42.6000
L125.4000 29.4000
" />
<path d="M138.6000 29.4000
L138.6000 42.6000
" />
<path d="M138.6000 42.6000
L125.4000 42.6000
" />
<path d="M40.0000 45.4100
L64.2000 45.4100
" />
<path d="M40.0000 64.6600
L40.0000 45.4100
" />
<path d="M64.2000 45.4100
L64.2000 64.6600
" />
<path d="M64.2000 64.6600
L40.0000 64.6600
" />
<path d="M68.4000 48.4000
L81.6000 48.4000
" />
<path d="M68.4000 61.6000
L68.4000 48.4000
" />
<path d="M81.6000 48.4000
L81.6000 61.6000
" />
<path d="M81.6000 61.6000
L68.4000 61.6000
" />
<path d="M68.4000 29.4000
L81.6000 29.4000
" />
<path d="M68.4000 42.6000
L68.4000 29.4000
" />
<path d="M81.6000 29.4000
L81.6000 42.6000
" />
<path d="M81.6000 42.6000
L68.4000 42.6000
" />
<circle cx="44.8000" cy="81.2600" r="2.4500" /> 
<path d="M87.4000 48.4000
L100.6000 48.4000
" />
<path d="M87.4000 61.6000
L87.4000 48.4000
" />
<path d="M100.6000 48.4000
L100.6000 61.6000
" />
<path d="M100.6000 61.6000
L87.4000 61.6000
" />
<path d="M125.4000 67.4000
L138.6000 67.4000
" />
<path d="M125.4000 80.6000
L125.4000 67.4000
" />
<path d="M138.6000 67.4000
L138.6000 80.6000
" />
<path d="M138.6000 80.6000
L125.4000 80.6000
" />
<path d="M48.2000 35.8000
L48.2000 33.2000
" />
<path d="M49.1000 27.5500
L52.0000 27.5500
" />
<path d="M49.1000 32.3000
L48.2000 33.2000
" />
<path d="M49.1000 32.3000
L49.1000 27.5500
" />
<path d="M49.1000 36.7000
L48.2000 35.8000
" />
<path d="M49.1000 41.4500
L49.1000 36.7000
" />
<path d="M52.0000 26.4500
L54.1000 26.4500
" />
<path d="M52.0000 27.5500
L52.0000 26.4500
" />
<path d="M52.0000 41.4500
L49.1000 41.4500
" />
<path d="M52.0000 43.0500
L52.0000 41.4500
" />
<path d="M54.1000 26.4500
L54.1000 27.5500
" />
<path d="M54.1000 27.5500
L57.0000 27.5500
" />
<path d="M57.0000 26.4500
L59.1000 26.4500
" />
<path d="M57.0000 27.5500
L57.0000 26.4500
" />
<path d="M59.1000 26.4500
L59.1000 27.5500
" />
<path d="M59.1000 27.5500
L62.0000 27.5500
" />
<path d="M59.1000 41.4500
L59.1000 43.0500
" />
<path d="M59.1000 43.0500
L52.0000 43.0500
" />
<path d="M62.0000 27.5500
L62.0000 32.3000
" />
<path d="M62.0000 32.3000
L62.9000 33.2000
" />
<path d="M62.0000 36.7000
L62.0000 41.4500
" />
<path d="M62.0000 36.7000
L62.9000 35.8000
" />
<path d="M62.0000 41.4500
L59.1000 41.4500
" />
<path d="M62.9000 33.2000
L62.9000 35.8000
" />
<circle cx="165.0000" cy="28.7600" r="2.4500" /> 
<path d="M106.4000 48.4000
L119.6000 48.4000
" />
<path d="M106.4000 61.6000
L106.4000 48.4000
" />
<path d="M119.6000 48.4000
L119.6000 61.6000
" />
<path d="M119.6000 61.6000
L106.4000 61.6000
" />
<path d="M144.4000 29.4000
L157.6000 29.4000
" />
<path d="M144.4000 42.6000
L144.4000 29.4000
" />
<path d="M157.6000 29.4000
L157.6000 42.6000
" />
<path d="M157.6000 42.6000
L144.4000 42.6000
" />
<path d="M87.4000 29.4000
L100.6000 29.4000
" />
<path d="M87.4000 42.6000
L87.4000 29.4000
" />
<path d="M100.6000 29.4000
L100.6000 42.6000
" />
<path d="M100.6000 42.6000
L87.4000 42.6000
" />
<path d="M106.4000 67.4000
L119.6000 67.4000
" />
<path d="M106.4000 80.6000
L106.4000 67.4000
" />
<path d="M119.6000 67.4000
L119.6000 80.6000
" />
<path d="M119.6000 80.6000
L106.4000 80.6000
" />
<path d="M87.4000 67.4000
L100.6000 67.4000
" />
<path d="M87.4000 80.6000
L87.4000 67.4000
" />
<path d="M100.6000 67.4000
L100.6000 80.6000
" />
<path d="M100.6000 80.6000
L87.4000 80.6000
" />
<path d="M68.4000 67.4000
L81.6000 67.4000
" />
<path d="M68.4000 80.6000
L68.4000 67.4000
" />
<path d="M81.6000 67.4000
L81.6000 80.6000
" />
<path d="M81.6000 80.6000
L68.4000 80.6000
" />
<path d="M125.4000 48.4000
L138.6000 48.4000
" />
<path d="M125.4000 61.6000
L125.4000 48.4000
" />
<path d="M138.6000 48.4000
L138.6000 61.6000
" />
<path d="M138.6000 61.6000
L125.4000 61.6000
" />
<path d="M106.4000 29.4000
L119.6000 29.4000
" />
<path d="M106.4000 42.6000
L106.4000 29.4000
" />
<path d="M119.6000 29.4000
L119.6000 42.6000
" />
<path d="M119.6000 42.6000
L106.4000 42.6000
" />
<circle cx="44.8000" cy="28.7600" r="2.4500" /> 
<circle cx="165.0000" cy="81.2600" r="2.4500" /> 
<path d="M144.4000 48.4000
L157.6000 48.4000
" />
<path d="M144.4000 61.6000
L144.4000 48.4000
" />
<path d="M157.6000 48.4000
L157.6000 61.6000
" />
<path d="M157.6000 61.6000
L144.4000 61.6000
" />
</g>
<g style="fill:none; 
stroke:#000000; stroke-width:0.1000; stroke-opacity:1; 
stroke-linecap:round; stroke-linejoin:round;">
<path d="M39.7500 47.0000
L39.7500 25.2500
" />
<path d="M168.2500 86.2500 A1.5000 1.5000 0.0 0 0 169.7500 84.7500" />
<path d="M39.7500 84.7500 A1.5000 1.5000 0.0 0 0 41.2500 86.2500" />
<path d="M59.5000 61.5000 A1.5000 1.5000 0.0 0 0 61.0000 60.0000" />
<path d="M41.2500 61.5000
L59.5000 61.5000
" />
<path d="M59.5000 48.5000
L41.2500 48.5000
" />
<path d="M169.7500 25.2500 A1.5000 1.5000 0.0 0 0 168.2500 23.7500" />
<path d="M41.2500 23.7500 A1.5000 1.5000 0.0 0 0 39.7500 25.2500" />
<path d="M61.0000 60.0000
L61.0000 50.0000
" />
<path d="M39.7500 47.0000 A1.5000 1.5000 0.0 0 0 41.2500 48.5000" />
<path d="M41.2500 61.5000 A1.5000 1.5000 0.0 0 0 39.7500 63.0000" />
<path d="M41.2500 23.7500
L168.2500 23.7500
" />
<path d="M39.7500 84.7500
L39.7500 63.0000
" />
<path d="M169.7500 25.2500
L169.7500 84.7500
" />
<path d="M168.2500 86.2500
L41.2500 86.2500
" />
<path d="M61.0000 50.0000 A1.5000 1.5000 0.0 0 0 59.5000 48.5000" />
</g> 
</svg>
