999
"DXF R12 Output" (www.mydxf.blogspot.com)
 0 
SECTION
 2 
HEADER
 9 
$ACADVER
 1 
AC1009
 9 
$EXTMIN
 10 
 0 
 20 
 0 
 9 
$EXTMAX
 10 
 8.5 
 20 
 11 
 0 
ENDSEC
 0 
SECTION
 2 
ENTITIES
0
LINE
8
Layer 1
10
32.497900
20
39.103900
11
32.497900
21
35.011700
0
LINE
8
Layer 1
10
32.497900
20
35.011700
11
36.590100
21
35.011700
0
LINE
8
Layer 1
10
36.590100
20
39.103900
11
32.497900
21
39.103900
0
LINE
8
Layer 1
10
36.590100
20
35.011700
11
36.590100
21
39.103900
0
LINE
8
Layer 1
10
27.559000
20
48.981700
11
27.559000
21
44.889500
0
LINE
8
Layer 1
10
27.559000
20
44.889500
11
31.651200
21
44.889500
0
LINE
8
Layer 1
10
31.651200
20
48.981700
11
27.559000
21
48.981700
0
LINE
8
Layer 1
10
31.651200
20
44.889500
11
31.651200
21
48.981700
0
LINE
8
Layer 1
10
5.635970
20
44.651000
11
12.268200
21
44.651000
0
LINE
8
Layer 1
10
5.635970
20
39.571000
11
5.635970
21
44.651000
0
LINE
8
Layer 1
10
12.268200
20
44.651000
11
12.268200
21
39.571000
0
LINE
8
Layer 1
10
12.268200
20
39.571000
11
5.635970
21
39.571000
0
LINE
8
Layer 1
10
12.742300
20
44.031500
11
12.742300
21
39.939300
0
LINE
8
Layer 1
10
12.742300
20
39.939300
11
16.834500
21
39.939300
0
LINE
8
Layer 1
10
16.834500
20
44.031500
11
12.742300
21
44.031500
0
LINE
8
Layer 1
10
16.834500
20
39.939300
11
16.834500
21
44.031500
0
LINE
8
Layer 1
10
12.742300
20
48.981700
11
12.742300
21
44.889500
0
LINE
8
Layer 1
10
12.742300
20
44.889500
11
16.834500
21
44.889500
0
LINE
8
Layer 1
10
16.834500
20
48.981700
11
12.742300
21
48.981700
0
LINE
8
Layer 1
10
16.834500
20
44.889500
11
16.834500
21
48.981700
0
LINE
8
Layer 1
10
7.746990
20
34.574300
11
7.544492
21
34.085340
0
LINE
8
Layer 1
10
7.544492
20
34.085340
11
7.055550
21
33.882800
0
LINE
8
Layer 1
10
7.055550
20
33.882800
11
6.566608
21
34.085340
0
LINE
8
Layer 1
10
6.566608
20
34.085340
11
6.364110
21
34.574300
0
LINE
8
Layer 1
10
6.364110
20
34.574300
11
6.566643
21
35.063195
0
LINE
8
Layer 1
10
6.566643
20
35.063195
11
7.055550
21
35.265700
0
LINE
8
Layer 1
10
7.055550
20
35.265700
11
7.544457
21
35.063195
0
LINE
8
Layer 1
10
7.544457
20
35.063195
11
7.746990
21
34.574300
0
LINE
8
Layer 1
10
7.746990
20
34.574300
11
7.746990
21
34.574300
0
LINE
8
Layer 1
10
17.681200
20
44.031500
11
17.681200
21
39.939300
0
LINE
8
Layer 1
10
17.681200
20
39.939300
11
21.773400
21
39.939300
0
LINE
8
Layer 1
10
21.773400
20
44.031500
11
17.681200
21
44.031500
0
LINE
8
Layer 1
10
21.773400
20
39.939300
11
21.773400
21
44.031500
0
LINE
8
Layer 1
10
27.559000
20
39.103900
11
27.559000
21
35.011700
0
LINE
8
Layer 1
10
27.559000
20
35.011700
11
31.651200
21
35.011700
0
LINE
8
Layer 1
10
31.651200
20
39.103900
11
27.559000
21
39.103900
0
LINE
8
Layer 1
10
31.651200
20
35.011700
11
31.651200
21
39.103900
0
LINE
8
Layer 1
10
7.916330
20
47.344800
11
7.916330
21
48.078600
0
LINE
8
Layer 1
10
8.170330
20
49.673200
11
8.988770
21
49.673200
0
LINE
8
Layer 1
10
8.170330
20
48.332600
11
7.916330
21
48.078600
0
LINE
8
Layer 1
10
8.170330
20
48.332600
11
8.170330
21
49.673200
0
LINE
8
Layer 1
10
8.170330
20
47.090800
11
7.916330
21
47.344800
0
LINE
8
Layer 1
10
8.170330
20
45.750300
11
8.170330
21
47.090800
0
LINE
8
Layer 1
10
8.988770
20
49.983600
11
9.581440
21
49.983600
0
LINE
8
Layer 1
10
8.988770
20
49.673200
11
8.988770
21
49.983600
0
LINE
8
Layer 1
10
8.988770
20
45.750300
11
8.170330
21
45.750300
0
LINE
8
Layer 1
10
8.988770
20
45.298700
11
8.988770
21
45.750300
0
LINE
8
Layer 1
10
9.581440
20
49.983600
11
9.581440
21
49.673200
0
LINE
8
Layer 1
10
9.581440
20
49.673200
11
10.399900
21
49.673200
0
LINE
8
Layer 1
10
10.399900
20
49.983600
11
10.992500
21
49.983600
0
LINE
8
Layer 1
10
10.399900
20
49.673200
11
10.399900
21
49.983600
0
LINE
8
Layer 1
10
10.992500
20
49.983600
11
10.992500
21
49.673200
0
LINE
8
Layer 1
10
10.992500
20
49.673200
11
11.811000
21
49.673200
0
LINE
8
Layer 1
10
10.992500
20
45.750300
11
10.992500
21
45.298700
0
LINE
8
Layer 1
10
10.992500
20
45.298700
11
8.988770
21
45.298700
0
LINE
8
Layer 1
10
11.811000
20
49.673200
11
11.811000
21
48.332600
0
LINE
8
Layer 1
10
11.811000
20
48.332600
11
12.065000
21
48.078600
0
LINE
8
Layer 1
10
11.811000
20
47.090800
11
11.811000
21
45.750300
0
LINE
8
Layer 1
10
11.811000
20
47.090800
11
12.065000
21
47.344800
0
LINE
8
Layer 1
10
11.811000
20
45.750300
11
10.992500
21
45.750300
0
LINE
8
Layer 1
10
12.065000
20
48.078600
11
12.065000
21
47.344800
0
LINE
8
Layer 1
10
38.085900
20
49.390900
11
37.883345
21
48.901984
0
LINE
8
Layer 1
10
37.883345
20
48.901984
11
37.394400
21
48.699500
0
LINE
8
Layer 1
10
37.394400
20
48.699500
11
36.905519
21
48.902019
0
LINE
8
Layer 1
10
36.905519
20
48.902019
11
36.703000
21
49.390900
0
LINE
8
Layer 1
10
36.703000
20
49.390900
11
36.905484
21
49.879845
0
LINE
8
Layer 1
10
36.905484
20
49.879845
11
37.394400
21
50.082400
0
LINE
8
Layer 1
10
37.394400
20
50.082400
11
37.883381
21
49.879881
0
LINE
8
Layer 1
10
37.883381
20
49.879881
11
38.085900
21
49.390900
0
LINE
8
Layer 1
10
38.085900
20
49.390900
11
38.085900
21
49.390900
0
LINE
8
Layer 1
10
22.620100
20
44.031500
11
22.620100
21
39.939300
0
LINE
8
Layer 1
10
22.620100
20
39.939300
11
26.712300
21
39.939300
0
LINE
8
Layer 1
10
26.712300
20
44.031500
11
22.620100
21
44.031500
0
LINE
8
Layer 1
10
26.712300
20
39.939300
11
26.712300
21
44.031500
0
LINE
8
Layer 1
10
32.497900
20
48.981700
11
32.497900
21
44.889500
0
LINE
8
Layer 1
10
32.497900
20
44.889500
11
36.590100
21
44.889500
0
LINE
8
Layer 1
10
36.590100
20
48.981700
11
32.497900
21
48.981700
0
LINE
8
Layer 1
10
36.590100
20
44.889500
11
36.590100
21
48.981700
0
LINE
8
Layer 1
10
17.681200
20
48.981700
11
17.681200
21
44.889500
0
LINE
8
Layer 1
10
17.681200
20
44.889500
11
21.773400
21
44.889500
0
LINE
8
Layer 1
10
21.773400
20
48.981700
11
17.681200
21
48.981700
0
LINE
8
Layer 1
10
21.773400
20
44.889500
11
21.773400
21
48.981700
0
LINE
8
Layer 1
10
22.620100
20
39.103900
11
22.620100
21
35.011700
0
LINE
8
Layer 1
10
22.620100
20
35.011700
11
26.712300
21
35.011700
0
LINE
8
Layer 1
10
26.712300
20
39.103900
11
22.620100
21
39.103900
0
LINE
8
Layer 1
10
26.712300
20
35.011700
11
26.712300
21
39.103900
0
LINE
8
Layer 1
10
17.681200
20
39.103900
11
17.681200
21
35.011700
0
LINE
8
Layer 1
10
17.681200
20
35.011700
11
21.773400
21
35.011700
0
LINE
8
Layer 1
10
21.773400
20
39.103900
11
17.681200
21
39.103900
0
LINE
8
Layer 1
10
21.773400
20
35.011700
11
21.773400
21
39.103900
0
LINE
8
Layer 1
10
12.742300
20
39.103900
11
12.742300
21
35.011700
0
LINE
8
Layer 1
10
12.742300
20
35.011700
11
16.834500
21
35.011700
0
LINE
8
Layer 1
10
16.834500
20
39.103900
11
12.742300
21
39.103900
0
LINE
8
Layer 1
10
16.834500
20
35.011700
11
16.834500
21
39.103900
0
LINE
8
Layer 1
10
27.559000
20
44.031500
11
27.559000
21
39.939300
0
LINE
8
Layer 1
10
27.559000
20
39.939300
11
31.651200
21
39.939300
0
LINE
8
Layer 1
10
31.651200
20
44.031500
11
27.559000
21
44.031500
0
LINE
8
Layer 1
10
31.651200
20
39.939300
11
31.651200
21
44.031500
0
LINE
8
Layer 1
10
22.620100
20
48.981700
11
22.620100
21
44.889500
0
LINE
8
Layer 1
10
22.620100
20
44.889500
11
26.712300
21
44.889500
0
LINE
8
Layer 1
10
26.712300
20
48.981700
11
22.620100
21
48.981700
0
LINE
8
Layer 1
10
26.712300
20
44.889500
11
26.712300
21
48.981700
0
LINE
8
Layer 1
10
7.746990
20
49.390900
11
7.544457
21
48.902005
0
LINE
8
Layer 1
10
7.544457
20
48.902005
11
7.055550
21
48.699500
0
LINE
8
Layer 1
10
7.055550
20
48.699500
11
6.566643
21
48.902005
0
LINE
8
Layer 1
10
6.566643
20
48.902005
11
6.364110
21
49.390900
0
LINE
8
Layer 1
10
6.364110
20
49.390900
11
6.566608
21
49.879860
0
LINE
8
Layer 1
10
6.566608
20
49.879860
11
7.055550
21
50.082400
0
LINE
8
Layer 1
10
7.055550
20
50.082400
11
7.544492
21
49.879860
0
LINE
8
Layer 1
10
7.544492
20
49.879860
11
7.746990
21
49.390900
0
LINE
8
Layer 1
10
7.746990
20
49.390900
11
7.746990
21
49.390900
0
LINE
8
Layer 1
10
38.085900
20
34.574300
11
37.883381
21
34.085375
0
LINE
8
Layer 1
10
37.883381
20
34.085375
11
37.394456
21
33.882856
0
LINE
8
Layer 1
10
37.394456
20
33.882856
11
36.905531
21
34.085375
0
LINE
8
Layer 1
10
36.905531
20
34.085375
11
36.703012
21
34.574300
0
LINE
8
Layer 1
10
36.703012
20
34.574300
11
36.905531
21
35.063225
0
LINE
8
Layer 1
10
36.905531
20
35.063225
11
37.394456
21
35.265744
0
LINE
8
Layer 1
10
37.394456
20
35.265744
11
37.883381
21
35.063225
0
LINE
8
Layer 1
10
37.883381
20
35.063225
11
38.085900
21
34.574300
0
LINE
8
Layer 1
10
38.085900
20
34.574300
11
38.085900
21
34.574300
0
LINE
8
Layer 1
10
32.497900
20
44.031500
11
32.497900
21
39.939300
0
LINE
8
Layer 1
10
32.497900
20
39.939300
11
36.590100
21
39.939300
0
LINE
8
Layer 1
10
36.590100
20
44.031500
11
32.497900
21
44.031500
0
LINE
8
Layer 1
10
36.590100
20
39.939300
11
36.590100
21
44.031500
0
LINE
8
Layer 1
10
6.067770
20
40.359800
11
5.768442
21
40.235819
0
LINE
8
Layer 1
10
5.768442
20
40.235819
11
5.644440
21
39.936500
0
LINE
8
Layer 1
10
11.147800
20
40.359800
11
11.447144
21
40.483827
0
LINE
8
Layer 1
10
11.447144
20
40.483827
11
11.571100
21
40.783200
0
LINE
8
Layer 1
10
38.382200
20
33.163200
11
38.681509
21
33.287191
0
LINE
8
Layer 1
10
38.681509
20
33.287191
11
38.805500
21
33.586500
0
LINE
8
Layer 1
10
6.067770
20
50.802000
11
5.768442
21
50.678019
0
LINE
8
Layer 1
10
5.768442
20
50.678019
11
5.644440
21
50.378700
0
LINE
8
Layer 1
10
11.571100
20
40.783200
11
11.571100
21
43.534800
0
LINE
8
Layer 1
10
38.805500
20
50.378700
11
38.681509
21
50.678009
0
LINE
8
Layer 1
10
38.681509
20
50.678009
11
38.382200
21
50.802000
0
LINE
8
Layer 1
10
6.067770
20
50.802000
11
38.382200
21
50.802000
0
LINE
8
Layer 1
10
38.805500
20
50.378700
11
38.805500
21
33.586500
0
LINE
8
Layer 1
10
5.644440
20
33.586500
11
5.768442
21
33.287181
0
LINE
8
Layer 1
10
5.768442
20
33.287181
11
6.067770
21
33.163200
0
LINE
8
Layer 1
10
5.644440
20
44.381500
11
5.768442
21
44.082181
0
LINE
8
Layer 1
10
5.768442
20
44.082181
11
6.067770
21
43.958200
0
LINE
8
Layer 1
10
11.571100
20
43.534800
11
11.447144
21
43.834173
0
LINE
8
Layer 1
10
11.447144
20
43.834173
11
11.147800
21
43.958200
0
LINE
8
Layer 1
10
11.147800
20
43.958200
11
6.067770
21
43.958200
0
LINE
8
Layer 1
10
5.644440
20
44.381500
11
5.644440
21
50.378700
0
LINE
8
Layer 1
10
5.644440
20
33.586500
11
5.644440
21
39.936500
0
LINE
8
Layer 1
10
6.067770
20
40.359800
11
11.147800
21
40.359800
0
LINE
8
Layer 1
10
38.382200
20
33.163200
11
6.067770
21
33.163200
 0 
ENDSEC
 0 
EOF