999
"DXF R12 Output" (www.mydxf.blogspot.com)
 0 
SECTION
 2 
HEADER
 9 
$ACADVER
 1 
AC1009
 9 
$EXTMIN
 10 
 0 
 20 
 0 
 9 
$EXTMAX
 10 
 8.5 
 20 
 11 
 0 
ENDSEC
 0 
SECTION
 2 
ENTITIES
0
LINE
8
Layer 1
10
40.752900
20
40.246900
11
44.478200
21
40.246900
0
LINE
8
Layer 1
10
40.752900
20
36.521600
11
40.752900
21
40.246900
0
LINE
8
Layer 1
10
44.478200
20
40.246900
11
44.478200
21
36.521600
0
LINE
8
Layer 1
10
44.478200
20
36.521600
11
40.752900
21
36.521600
0
LINE
8
Layer 1
10
35.390600
20
50.971400
11
39.116000
21
50.971400
0
LINE
8
Layer 1
10
35.390600
20
47.246000
11
35.390600
21
50.971400
0
LINE
8
Layer 1
10
39.116000
20
50.971400
11
39.116000
21
47.246000
0
LINE
8
Layer 1
10
39.116000
20
47.246000
11
35.390600
21
47.246000
0
LINE
8
Layer 1
10
11.288900
20
46.453000
11
18.118700
21
46.453000
0
LINE
8
Layer 1
10
11.288900
20
41.020200
11
11.288900
21
46.453000
0
LINE
8
Layer 1
10
18.118700
20
46.453000
11
18.118700
21
41.020200
0
LINE
8
Layer 1
10
18.118700
20
41.020200
11
11.288900
21
41.020200
0
LINE
8
Layer 1
10
19.304000
20
45.609200
11
23.029300
21
45.609200
0
LINE
8
Layer 1
10
19.304000
20
41.883800
11
19.304000
21
45.609200
0
LINE
8
Layer 1
10
23.029300
20
45.609200
11
23.029300
21
41.883800
0
LINE
8
Layer 1
10
23.029300
20
41.883800
11
19.304000
21
41.883800
0
LINE
8
Layer 1
10
19.304000
20
50.971400
11
23.029300
21
50.971400
0
LINE
8
Layer 1
10
19.304000
20
47.246000
11
19.304000
21
50.971400
0
LINE
8
Layer 1
10
23.029300
20
50.971400
11
23.029300
21
47.246000
0
LINE
8
Layer 1
10
23.029300
20
47.246000
11
19.304000
21
47.246000
0
LINE
8
Layer 1
10
24.666200
20
45.609200
11
28.391500
21
45.609200
0
LINE
8
Layer 1
10
24.666200
20
41.883800
11
24.666200
21
45.609200
0
LINE
8
Layer 1
10
28.391500
20
45.609200
11
28.391500
21
41.883800
0
LINE
8
Layer 1
10
28.391500
20
41.883800
11
24.666200
21
41.883800
0
LINE
8
Layer 1
10
35.390600
20
40.246900
11
39.116000
21
40.246900
0
LINE
8
Layer 1
10
35.390600
20
36.521600
11
35.390600
21
40.246900
0
LINE
8
Layer 1
10
39.116000
20
40.246900
11
39.116000
21
36.521600
0
LINE
8
Layer 1
10
39.116000
20
36.521600
11
35.390600
21
36.521600
0
LINE
8
Layer 1
10
13.603100
20
49.165200
11
13.603100
21
49.898900
0
LINE
8
Layer 1
10
13.857100
20
51.493500
11
14.675500
21
51.493500
0
LINE
8
Layer 1
10
13.857100
20
50.152900
11
13.603100
21
49.898900
0
LINE
8
Layer 1
10
13.857100
20
50.152900
11
13.857100
21
51.493500
0
LINE
8
Layer 1
10
13.857100
20
48.911200
11
13.603100
21
49.165200
0
LINE
8
Layer 1
10
13.857100
20
47.570600
11
13.857100
21
48.911200
0
LINE
8
Layer 1
10
14.675500
20
51.803900
11
15.268200
21
51.803900
0
LINE
8
Layer 1
10
14.675500
20
51.493500
11
14.675500
21
51.803900
0
LINE
8
Layer 1
10
14.675500
20
47.570600
11
13.857100
21
47.570600
0
LINE
8
Layer 1
10
14.675500
20
47.119000
11
14.675500
21
47.570600
0
LINE
8
Layer 1
10
15.268200
20
51.803900
11
15.268200
21
51.493500
0
LINE
8
Layer 1
10
15.268200
20
51.493500
11
16.086700
21
51.493500
0
LINE
8
Layer 1
10
16.086700
20
51.803900
11
16.679300
21
51.803900
0
LINE
8
Layer 1
10
16.086700
20
51.493500
11
16.086700
21
51.803900
0
LINE
8
Layer 1
10
16.679300
20
51.803900
11
16.679300
21
51.493500
0
LINE
8
Layer 1
10
16.679300
20
51.493500
11
17.497800
21
51.493500
0
LINE
8
Layer 1
10
16.679300
20
47.570600
11
16.679300
21
47.119000
0
LINE
8
Layer 1
10
16.679300
20
47.119000
11
14.675500
21
47.119000
0
LINE
8
Layer 1
10
17.497800
20
51.493500
11
17.497800
21
50.152900
0
LINE
8
Layer 1
10
17.497800
20
50.152900
11
17.751800
21
49.898900
0
LINE
8
Layer 1
10
17.497800
20
48.911200
11
17.497800
21
47.570600
0
LINE
8
Layer 1
10
17.497800
20
48.911200
11
17.751800
21
49.165200
0
LINE
8
Layer 1
10
17.497800
20
47.570600
11
16.679300
21
47.570600
0
LINE
8
Layer 1
10
17.751800
20
49.898900
11
17.751800
21
49.165200
0
LINE
8
Layer 1
10
30.028400
20
45.609200
11
33.753800
21
45.609200
0
LINE
8
Layer 1
10
30.028400
20
41.883800
11
30.028400
21
45.609200
0
LINE
8
Layer 1
10
33.753800
20
45.609200
11
33.753800
21
41.883800
0
LINE
8
Layer 1
10
33.753800
20
41.883800
11
30.028400
21
41.883800
0
LINE
8
Layer 1
10
40.752900
20
50.971400
11
44.478200
21
50.971400
0
LINE
8
Layer 1
10
40.752900
20
47.246000
11
40.752900
21
50.971400
0
LINE
8
Layer 1
10
44.478200
20
50.971400
11
44.478200
21
47.246000
0
LINE
8
Layer 1
10
44.478200
20
47.246000
11
40.752900
21
47.246000
0
LINE
8
Layer 1
10
24.666200
20
50.971400
11
28.391500
21
50.971400
0
LINE
8
Layer 1
10
24.666200
20
47.246000
11
24.666200
21
50.971400
0
LINE
8
Layer 1
10
28.391500
20
50.971400
11
28.391500
21
47.246000
0
LINE
8
Layer 1
10
28.391500
20
47.246000
11
24.666200
21
47.246000
0
LINE
8
Layer 1
10
30.028400
20
40.246900
11
33.753800
21
40.246900
0
LINE
8
Layer 1
10
30.028400
20
36.521600
11
30.028400
21
40.246900
0
LINE
8
Layer 1
10
33.753800
20
40.246900
11
33.753800
21
36.521600
0
LINE
8
Layer 1
10
33.753800
20
36.521600
11
30.028400
21
36.521600
0
LINE
8
Layer 1
10
24.666200
20
40.246900
11
28.391500
21
40.246900
0
LINE
8
Layer 1
10
24.666200
20
36.521600
11
24.666200
21
40.246900
0
LINE
8
Layer 1
10
28.391500
20
40.246900
11
28.391500
21
36.521600
0
LINE
8
Layer 1
10
28.391500
20
36.521600
11
24.666200
21
36.521600
0
LINE
8
Layer 1
10
19.304000
20
40.246900
11
23.029300
21
40.246900
0
LINE
8
Layer 1
10
19.304000
20
36.521600
11
19.304000
21
40.246900
0
LINE
8
Layer 1
10
23.029300
20
40.246900
11
23.029300
21
36.521600
0
LINE
8
Layer 1
10
23.029300
20
36.521600
11
19.304000
21
36.521600
0
LINE
8
Layer 1
10
35.390600
20
45.609200
11
39.116000
21
45.609200
0
LINE
8
Layer 1
10
35.390600
20
41.883800
11
35.390600
21
45.609200
0
LINE
8
Layer 1
10
39.116000
20
45.609200
11
39.116000
21
41.883800
0
LINE
8
Layer 1
10
39.116000
20
41.883800
11
35.390600
21
41.883800
0
LINE
8
Layer 1
10
30.028400
20
50.971400
11
33.753800
21
50.971400
0
LINE
8
Layer 1
10
30.028400
20
47.246000
11
30.028400
21
50.971400
0
LINE
8
Layer 1
10
33.753800
20
50.971400
11
33.753800
21
47.246000
0
LINE
8
Layer 1
10
33.753800
20
47.246000
11
30.028400
21
47.246000
0
LINE
8
Layer 1
10
40.752900
20
45.609200
11
44.478200
21
45.609200
0
LINE
8
Layer 1
10
40.752900
20
41.883800
11
40.752900
21
45.609200
0
LINE
8
Layer 1
10
44.478200
20
45.609200
11
44.478200
21
41.883800
0
LINE
8
Layer 1
10
44.478200
20
41.883800
11
40.752900
21
41.883800
0
LINE
8
Layer 1
10
11.218300
20
46.004300
11
11.218300
21
52.142600
0
LINE
8
Layer 1
10
47.483900
20
34.927100
11
47.783209
21
35.051091
0
LINE
8
Layer 1
10
47.783209
20
35.051091
11
47.907200
21
35.350400
0
LINE
8
Layer 1
10
11.218300
20
35.350400
11
11.342327
21
35.051056
0
LINE
8
Layer 1
10
11.342327
20
35.051056
11
11.641700
21
34.927100
0
LINE
8
Layer 1
10
16.792200
20
41.912000
11
17.091544
21
42.036027
0
LINE
8
Layer 1
10
17.091544
20
42.036027
11
17.215500
21
42.335400
0
LINE
8
Layer 1
10
11.641700
20
41.912000
11
16.792200
21
41.912000
0
LINE
8
Layer 1
10
16.792200
20
45.580900
11
11.641700
21
45.580900
0
LINE
8
Layer 1
10
47.907200
20
52.142600
11
47.783209
21
52.441909
0
LINE
8
Layer 1
10
47.783209
20
52.441909
11
47.483900
21
52.565900
0
LINE
8
Layer 1
10
11.641700
20
52.565900
11
11.342327
21
52.441944
0
LINE
8
Layer 1
10
11.342327
20
52.441944
11
11.218300
21
52.142600
0
LINE
8
Layer 1
10
17.215500
20
42.335400
11
17.215500
21
45.157600
0
LINE
8
Layer 1
10
11.218300
20
46.004300
11
11.342291
21
45.704891
0
LINE
8
Layer 1
10
11.342291
20
45.704891
11
11.641700
21
45.580900
0
LINE
8
Layer 1
10
11.641700
20
41.912000
11
11.342327
21
41.788044
0
LINE
8
Layer 1
10
11.342327
20
41.788044
11
11.218300
21
41.488700
0
LINE
8
Layer 1
10
11.641700
20
52.565900
11
47.483900
21
52.565900
0
LINE
8
Layer 1
10
11.218300
20
35.350400
11
11.218300
21
41.488700
0
LINE
8
Layer 1
10
47.907200
20
52.142600
11
47.907200
21
35.350400
0
LINE
8
Layer 1
10
47.483900
20
34.927100
11
11.641700
21
34.927100
0
LINE
8
Layer 1
10
17.215500
20
45.157600
11
17.091509
21
45.456909
0
LINE
8
Layer 1
10
17.091509
20
45.456909
11
16.792200
21
45.580900
 0 
ENDSEC
 0 
EOF