<?xml version="1.0" standalone="no"?>
 <!DOCTYPE svg PUBLIC "-//W3C//DTD SVG 1.1//EN" 
 "http://www.w3.org/Graphics/SVG/1.1/DTD/svg11.dtd"> 
<svg
  xmlns:svg="http://www.w3.org/2000/svg"
  xmlns="http://www.w3.org/2000/svg"
  xmlns:xlink="http://www.w3.org/1999/xlink"
  version="1.1"
  width="297.0022mm" height="210.0072mm" viewBox="0.0000 0.0000 297.0022 210.0072">
<title>SVG Image created as SkyMusicPad-brd.svg date 2024/04/18 14:34:26 </title>
  <desc>Image generated by PCBNEW </desc>
<g style="fill:#000000; fill-opacity:1.0000;stroke:#000000; stroke-opacity:1.0000;
stroke-linecap:round; stroke-linejoin:round;"
 transform="translate(0 0) scale(1 1)">
</g>
<g style="fill:none; 
stroke:#000000; stroke-width:0.0500; stroke-opacity:1; 
stroke-linecap:round; stroke-linejoin:round;">
<path d="M115.1500 71.4500
L115.1500 85.9500
" />
<path d="M115.1500 85.9500
L129.6500 85.9500
" />
<path d="M129.6500 71.4500
L115.1500 71.4500
" />
<path d="M129.6500 85.9500
L129.6500 71.4500
" />
<path d="M97.6500 36.4500
L97.6500 50.9500
" />
<path d="M97.6500 50.9500
L112.1500 50.9500
" />
<path d="M112.1500 36.4500
L97.6500 36.4500
" />
<path d="M112.1500 50.9500
L112.1500 36.4500
" />
<path d="M19.9700 51.7950
L43.4700 51.7950
" />
<path d="M19.9700 69.7950
L19.9700 51.7950
" />
<path d="M43.4700 51.7950
L43.4700 69.7950
" />
<path d="M43.4700 69.7950
L19.9700 69.7950
" />
<path d="M45.1500 53.9900
L45.1500 68.4900
" />
<path d="M45.1500 68.4900
L59.6500 68.4900
" />
<path d="M59.6500 53.9900
L45.1500 53.9900
" />
<path d="M59.6500 68.4900
L59.6500 53.9900
" />
<path d="M45.1500 36.4500
L45.1500 50.9500
" />
<path d="M45.1500 50.9500
L59.6500 50.9500
" />
<path d="M59.6500 36.4500
L45.1500 36.4500
" />
<path d="M59.6500 50.9500
L59.6500 36.4500
" />
<circle cx="25.0000" cy="87.5000" r="2.4500" /> 
<path d="M62.6500 53.9900
L62.6500 68.4900
" />
<path d="M62.6500 68.4900
L77.1500 68.4900
" />
<path d="M77.1500 53.9900
L62.6500 53.9900
" />
<path d="M77.1500 68.4900
L77.1500 53.9900
" />
<path d="M97.6500 71.4500
L97.6500 85.9500
" />
<path d="M97.6500 85.9500
L112.1500 85.9500
" />
<path d="M112.1500 71.4500
L97.6500 71.4500
" />
<path d="M112.1500 85.9500
L112.1500 71.4500
" />
<path d="M28.0500 42.2500
L28.0500 39.6500
" />
<path d="M28.9500 34.0000
L31.8500 34.0000
" />
<path d="M28.9500 38.7500
L28.0500 39.6500
" />
<path d="M28.9500 38.7500
L28.9500 34.0000
" />
<path d="M28.9500 43.1500
L28.0500 42.2500
" />
<path d="M28.9500 47.9000
L28.9500 43.1500
" />
<path d="M31.8500 32.9000
L33.9500 32.9000
" />
<path d="M31.8500 34.0000
L31.8500 32.9000
" />
<path d="M31.8500 47.9000
L28.9500 47.9000
" />
<path d="M31.8500 49.5000
L31.8500 47.9000
" />
<path d="M33.9500 32.9000
L33.9500 34.0000
" />
<path d="M33.9500 34.0000
L36.8500 34.0000
" />
<path d="M36.8500 32.9000
L38.9500 32.9000
" />
<path d="M36.8500 34.0000
L36.8500 32.9000
" />
<path d="M38.9500 32.9000
L38.9500 34.0000
" />
<path d="M38.9500 34.0000
L41.8500 34.0000
" />
<path d="M38.9500 47.9000
L38.9500 49.5000
" />
<path d="M38.9500 49.5000
L31.8500 49.5000
" />
<path d="M41.8500 34.0000
L41.8500 38.7500
" />
<path d="M41.8500 38.7500
L42.7500 39.6500
" />
<path d="M41.8500 43.1500
L41.8500 47.9000
" />
<path d="M41.8500 43.1500
L42.7500 42.2500
" />
<path d="M41.8500 47.9000
L38.9500 47.9000
" />
<path d="M42.7500 39.6500
L42.7500 42.2500
" />
<circle cx="132.5000" cy="35.0000" r="2.4500" /> 
<path d="M80.1500 53.9900
L80.1500 68.4900
" />
<path d="M80.1500 68.4900
L94.6500 68.4900
" />
<path d="M94.6500 53.9900
L80.1500 53.9900
" />
<path d="M94.6500 68.4900
L94.6500 53.9900
" />
<path d="M115.1500 36.4500
L115.1500 50.9500
" />
<path d="M115.1500 50.9500
L129.6500 50.9500
" />
<path d="M129.6500 36.4500
L115.1500 36.4500
" />
<path d="M129.6500 50.9500
L129.6500 36.4500
" />
<path d="M62.6500 36.4500
L62.6500 50.9500
" />
<path d="M62.6500 50.9500
L77.1500 50.9500
" />
<path d="M77.1500 36.4500
L62.6500 36.4500
" />
<path d="M77.1500 50.9500
L77.1500 36.4500
" />
<path d="M80.1500 71.4500
L80.1500 85.9500
" />
<path d="M80.1500 85.9500
L94.6500 85.9500
" />
<path d="M94.6500 71.4500
L80.1500 71.4500
" />
<path d="M94.6500 85.9500
L94.6500 71.4500
" />
<path d="M62.6500 71.4500
L62.6500 85.9500
" />
<path d="M62.6500 85.9500
L77.1500 85.9500
" />
<path d="M77.1500 71.4500
L62.6500 71.4500
" />
<path d="M77.1500 85.9500
L77.1500 71.4500
" />
<path d="M45.1500 71.4500
L45.1500 85.9500
" />
<path d="M45.1500 85.9500
L59.6500 85.9500
" />
<path d="M59.6500 71.4500
L45.1500 71.4500
" />
<path d="M59.6500 85.9500
L59.6500 71.4500
" />
<path d="M97.6500 53.9900
L97.6500 68.4900
" />
<path d="M97.6500 68.4900
L112.1500 68.4900
" />
<path d="M112.1500 53.9900
L97.6500 53.9900
" />
<path d="M112.1500 68.4900
L112.1500 53.9900
" />
<path d="M80.1500 36.4500
L80.1500 50.9500
" />
<path d="M80.1500 50.9500
L94.6500 50.9500
" />
<path d="M94.6500 36.4500
L80.1500 36.4500
" />
<path d="M94.6500 50.9500
L94.6500 36.4500
" />
<circle cx="25.0000" cy="35.0000" r="2.4500" /> 
<circle cx="132.5000" cy="87.5000" r="2.4500" /> 
<path d="M115.1500 53.9900
L115.1500 68.4900
" />
<path d="M115.1500 68.4900
L129.6500 68.4900
" />
<path d="M129.6500 53.9900
L115.1500 53.9900
" />
<path d="M129.6500 68.4900
L129.6500 53.9900
" />
</g>
<g style="fill:none; 
stroke:#000000; stroke-width:0.1000; stroke-opacity:1; 
stroke-linecap:round; stroke-linejoin:round;">
<path d="M21.5000 67.0000 A1.5000 1.5000 0.0 0 0 20.0000 68.5000" />
<path d="M39.5000 67.0000 A1.5000 1.5000 0.0 0 0 41.0000 65.5000" />
<path d="M136.0000 92.5000 A1.5000 1.5000 0.0 0 0 137.5000 91.0000" />
<path d="M21.5000 30.0000 A1.5000 1.5000 0.0 0 0 20.0000 31.5000" />
<path d="M41.0000 65.5000
L41.0000 55.7500
" />
<path d="M137.5000 31.5000 A1.5000 1.5000 0.0 0 0 136.0000 30.0000" />
<path d="M21.5000 30.0000
L136.0000 30.0000
" />
<path d="M137.5000 31.5000
L137.5000 91.0000
" />
<path d="M20.0000 91.0000 A1.5000 1.5000 0.0 0 0 21.5000 92.5000" />
<path d="M20.0000 52.7500 A1.5000 1.5000 0.0 0 0 21.5000 54.2500" />
<path d="M41.0000 55.7500 A1.5000 1.5000 0.0 0 0 39.5000 54.2500" />
<path d="M39.5000 54.2500
L21.5000 54.2500
" />
<path d="M20.0000 52.7500
L20.0000 31.5000
" />
<path d="M20.0000 91.0000
L20.0000 68.5000
" />
<path d="M21.5000 67.0000
L39.5000 67.0000
" />
<path d="M136.0000 92.5000
L21.5000 92.5000
" />
</g> 
</svg>
