  0
SECTION
  2
HEADER
  9
$ACADVER
  1
AC1014
  9
$HANDSEED
  5
FFFF
  9
$MEASUREMENT
 70
     1
  0
ENDSEC
  0
SECTION
  2
TABLES
  0
TABLE
  2
VPORT
  5
8
330
0
100
AcDbSymbolTable
 70
     4
  0
VPORT
  5
2E
330
8
100
AcDbSymbolTableRecord
100
AcDbViewportTableRecord
  2
*ACTIVE
 70
     0
 10
0.0
 20
0.0
 11
1.0
 21
1.0
 12
210.0
 22
148.5
 13
0.0
 23
0.0
 14
10.0
 24
10.0
 15
10.0
 25
10.0
 16
0.0
 26
0.0
 36
1.0
 17
0.0
 27
0.0
 37
0.0
 40
341.0
 41
1.24
 42
50.0
 43
0.0
 44
0.0
 50
0.0
 51
0.0
 71
     0
 72
   100
 73
     1
 74
     3
 75
     0
 76
     0
 77
     0
 78
     0
  0
ENDTAB
  0
TABLE
  2
LTYPE
  5
5
330
0
100
AcDbSymbolTable
 70
     1
  0
LTYPE
  5
14
330
5
100
AcDbSymbolTableRecord
100
AcDbLinetypeTableRecord
  2
BYBLOCK
 70
     0
  3

 72
    65
 73
     0
 40
0.0
  0
LTYPE
  5
15
330
5
100
AcDbSymbolTableRecord
100
AcDbLinetypeTableRecord
  2
BYLAYER
 70
     0
  3

 72
    65
 73
     0
 40
0.0
  0
LTYPE
  5
16
330
5
100
AcDbSymbolTableRecord
100
AcDbLinetypeTableRecord
  2
CONTINUOUS
 70
     0
  3
Solid line
 72
    65
 73
     0
 40
0.0
  0
ENDTAB
  0
TABLE
  2
LAYER
  5
2
100
AcDbSymbolTable
 70
1
  0
LAYER
  5
50
100
AcDbSymbolTableRecord
100
AcDbLayerTableRecord
  2
0
 70
0
  6
CONTINUOUS
  0
ENDTAB
  0
TABLE
  2
STYLE
  5
3
330
0
100
AcDbSymbolTable
 70
     1
  0
STYLE
  5
11
330
3
100
AcDbSymbolTableRecord
100
AcDbTextStyleTableRecord
  2
STANDARD
 70
     0
 40
0.0
 41
1.0
 50
0.0
 71
     0
 42
2.5
  3
txt
  4

  0
ENDTAB
  0
TABLE
  2
VIEW
  5
6
330
0
100
AcDbSymbolTable
 70
     0
  0
ENDTAB
  0
TABLE
  2
UCS
  5
7
330
0
100
AcDbSymbolTable
 70
     0
  0
ENDTAB
  0
TABLE
  2
APPID
  5
9
330
0
100
AcDbSymbolTable
 70
     2
  0
APPID
  5
12
330
9
100
AcDbSymbolTableRecord
100
AcDbRegAppTableRecord
  2
ACAD
 70
     0
  0
ENDTAB
  0
TABLE
  2
DIMSTYLE
  5
A
330
0
100
AcDbSymbolTable
 70
     1
  0
DIMSTYLE
105
27
330
A
100
AcDbSymbolTableRecord
100
AcDbDimStyleTableRecord
  2
ISO-25
 70
     0
  3

  4

  5

  6

  7

 40
1.0
 41
2.5
 42
0.625
 43
3.75
 44
1.25
 45
0.0
 46
0.0
 47
0.0
 48
0.0
140
2.5
141
2.5
142
0.0
143
0.03937007874016
144
1.0
145
0.0
146
1.0
147
0.625
 71
     0
 72
     0
 73
     0
 74
     0
 75
     0
 76
     0
 77
     1
 78
     8
170
     0
171
     3
172
     1
173
     0
174
     0
175
     0
176
     0
177
     0
178
     0
270
     2
271
     2
272
     2
273
     2
274
     3
340
11
275
     0
280
     0
281
     0
282
     0
283
     0
284
     8
285
     0
286
     0
287
     3
288
     0
  0
ENDTAB
  0
TABLE
  2
BLOCK_RECORD
  5
1
330
0
100
AcDbSymbolTable
 70
     1
  0
BLOCK_RECORD
  5
1F
330
1
100
AcDbSymbolTableRecord
100
AcDbBlockTableRecord
  2
*MODEL_SPACE
  0
BLOCK_RECORD
  5
1B
330
1
100
AcDbSymbolTableRecord
100
AcDbBlockTableRecord
  2
*PAPER_SPACE
  0
ENDTAB
  0
ENDSEC
  0
SECTION
  2
BLOCKS
  0
BLOCK
  5
20
330
1F
100
AcDbEntity
  8
0
100
AcDbBlockBegin
  2
*MODEL_SPACE
 70
     0
 10
0.0
 20
0.0
 30
0.0
  3
*MODEL_SPACE
  1

  0
ENDBLK
  5
21
330
1F
100
AcDbEntity
  8
0
100
AcDbBlockEnd
  0
BLOCK
  5
1C
330
1B
100
AcDbEntity
 67
     1
  8
0
100
AcDbBlockBegin
  2
*PAPER_SPACE
  1

  0
ENDBLK
  5
1D
330
1B
100
AcDbEntity
 67
     1
  8
0
100
AcDbBlockEnd
  0
ENDSEC
  0
SECTION
  2
ENTITIES
  0
LWPOLYLINE
  5
100
100
AcDbEntity
  8
0
 62
7
100
AcDbPolyline
 90
3
 70
0
 10
115.150110
 20
138.557332
 30
0.0
 10
115.150110
 20
124.057318
 30
0.0
 10
129.650123
 20
124.057318
 30
0.0
  0
LWPOLYLINE
  5
101
100
AcDbEntity
  8
0
 62
7
100
AcDbPolyline
 90
2
 70
0
 10
129.650123
 20
138.557332
 30
0.0
 10
115.150110
 20
138.557332
 30
0.0
  0
LWPOLYLINE
  5
102
100
AcDbEntity
  8
0
 62
7
100
AcDbPolyline
 90
2
 70
0
 10
129.650123
 20
124.057318
 30
0.0
 10
129.650123
 20
138.557332
 30
0.0
  0
LWPOLYLINE
  5
103
100
AcDbEntity
  8
0
 62
7
100
AcDbPolyline
 90
3
 70
0
 10
97.650093
 20
173.557365
 30
0.0
 10
97.650093
 20
159.057351
 30
0.0
 10
112.150107
 20
159.057351
 30
0.0
  0
LWPOLYLINE
  5
104
100
AcDbEntity
  8
0
 62
7
100
AcDbPolyline
 90
2
 70
0
 10
112.150107
 20
173.557365
 30
0.0
 10
97.650093
 20
173.557365
 30
0.0
  0
LWPOLYLINE
  5
105
100
AcDbEntity
  8
0
 62
7
100
AcDbPolyline
 90
2
 70
0
 10
112.150107
 20
159.057351
 30
0.0
 10
112.150107
 20
173.557365
 30
0.0
  0
LWPOLYLINE
  5
106
100
AcDbEntity
  8
0
 62
7
100
AcDbPolyline
 90
2
 70
0
 10
19.970019
 20
158.212351
 30
0.0
 10
43.470041
 20
158.212351
 30
0.0
  0
LWPOLYLINE
  5
107
100
AcDbEntity
  8
0
 62
7
100
AcDbPolyline
 90
2
 70
0
 10
19.970019
 20
140.212334
 30
0.0
 10
19.970019
 20
158.212351
 30
0.0
  0
LWPOLYLINE
  5
108
100
AcDbEntity
  8
0
 62
7
100
AcDbPolyline
 90
3
 70
0
 10
43.470041
 20
158.212351
 30
0.0
 10
43.470041
 20
140.212334
 30
0.0
 10
19.970019
 20
140.212334
 30
0.0
  0
LWPOLYLINE
  5
109
100
AcDbEntity
  8
0
 62
7
100
AcDbPolyline
 90
3
 70
0
 10
45.150043
 20
156.017349
 30
0.0
 10
45.150043
 20
141.517335
 30
0.0
 10
59.650057
 20
141.517335
 30
0.0
  0
LWPOLYLINE
  5
10a
100
AcDbEntity
  8
0
 62
7
100
AcDbPolyline
 90
2
 70
0
 10
59.650057
 20
156.017349
 30
0.0
 10
45.150043
 20
156.017349
 30
0.0
  0
LWPOLYLINE
  5
10b
100
AcDbEntity
  8
0
 62
7
100
AcDbPolyline
 90
2
 70
0
 10
59.650057
 20
141.517335
 30
0.0
 10
59.650057
 20
156.017349
 30
0.0
  0
LWPOLYLINE
  5
10c
100
AcDbEntity
  8
0
 62
7
100
AcDbPolyline
 90
3
 70
0
 10
45.150043
 20
173.557365
 30
0.0
 10
45.150043
 20
159.057351
 30
0.0
 10
59.650057
 20
159.057351
 30
0.0
  0
LWPOLYLINE
  5
10d
100
AcDbEntity
  8
0
 62
7
100
AcDbPolyline
 90
2
 70
0
 10
59.650057
 20
173.557365
 30
0.0
 10
45.150043
 20
173.557365
 30
0.0
  0
SPLINE
  5
10e
100
AcDbEntity
  8
0
 62
7
100
AcDbSpline
 70
8
 71
3
 72
8
 73
4
 74
0
 40
0
 40
0
 40
0
 40
0
 40
1
 40
1
 40
1
 40
1
 10
27.450026
 20
122.507317
 30
0.0
 10
27.450026
 20
121.857536
 30
0.0
 10
27.191902
 20
121.234368
 30
0.0
 10
26.732437
 20
120.774903
 30
0.0
  0
SPLINE
  5
10f
100
AcDbEntity
  8
0
 62
7
100
AcDbSpline
 70
8
 71
3
 72
8
 73
4
 74
0
 40
0
 40
0
 40
0
 40
0
 40
1
 40
1
 40
1
 40
1
 10
26.732437
 20
120.774903
 30
0.0
 10
26.272973
 20
120.315439
 30
0.0
 10
25.649805
 20
120.057314
 30
0.0
 10
25.000024
 20
120.057314
 30
0.0
  0
SPLINE
  5
110
100
AcDbEntity
  8
0
 62
7
100
AcDbSpline
 70
8
 71
3
 72
8
 73
4
 74
0
 40
0
 40
0
 40
0
 40
0
 40
1
 40
1
 40
1
 40
1
 10
25.000024
 20
120.057314
 30
0.0
 10
23.646925
 20
120.057314
 30
0.0
 10
22.550021
 20
121.154218
 30
0.0
 10
22.550021
 20
122.507317
 30
0.0
  0
SPLINE
  5
111
100
AcDbEntity
  8
0
 62
7
100
AcDbSpline
 70
8
 71
3
 72
8
 73
4
 74
0
 40
0
 40
0
 40
0
 40
0
 40
1
 40
1
 40
1
 40
1
 10
22.550021
 20
122.507317
 30
0.0
 10
22.550021
 20
123.860416
 30
0.0
 10
23.646925
 20
124.957319
 30
0.0
 10
25.000024
 20
124.957319
 30
0.0
  0
SPLINE
  5
112
100
AcDbEntity
  8
0
 62
7
100
AcDbSpline
 70
8
 71
3
 72
8
 73
4
 74
0
 40
0
 40
0
 40
0
 40
0
 40
1
 40
1
 40
1
 40
1
 10
25.000024
 20
124.957319
 30
0.0
 10
25.649805
 20
124.957319
 30
0.0
 10
26.272973
 20
124.699194
 30
0.0
 10
26.732437
 20
124.239730
 30
0.0
  0
SPLINE
  5
113
100
AcDbEntity
  8
0
 62
7
100
AcDbSpline
 70
8
 71
3
 72
8
 73
4
 74
0
 40
0
 40
0
 40
0
 40
0
 40
1
 40
1
 40
1
 40
1
 10
26.732437
 20
124.239730
 30
0.0
 10
27.191902
 20
123.780265
 30
0.0
 10
27.450026
 20
123.157098
 30
0.0
 10
27.450026
 20
122.507317
 30
0.0
  0
LWPOLYLINE
  5
114
100
AcDbEntity
  8
0
 62
7
100
AcDbPolyline
 90
2
 70
0
 10
59.650057
 20
159.057351
 30
0.0
 10
59.650057
 20
173.557365
 30
0.0
  0
LWPOLYLINE
  5
115
100
AcDbEntity
  8
0
 62
7
100
AcDbPolyline
 90
1
 70
1
 10
27.450026
 20
122.507317
 30
0.0
  0
LWPOLYLINE
  5
116
100
AcDbEntity
  8
0
 62
7
100
AcDbPolyline
 90
3
 70
0
 10
62.650060
 20
156.017349
 30
0.0
 10
62.650060
 20
141.517335
 30
0.0
 10
77.150073
 20
141.517335
 30
0.0
  0
LWPOLYLINE
  5
117
100
AcDbEntity
  8
0
 62
7
100
AcDbPolyline
 90
2
 70
0
 10
77.150073
 20
156.017349
 30
0.0
 10
62.650060
 20
156.017349
 30
0.0
  0
LWPOLYLINE
  5
118
100
AcDbEntity
  8
0
 62
7
100
AcDbPolyline
 90
2
 70
0
 10
77.150073
 20
141.517335
 30
0.0
 10
77.150073
 20
156.017349
 30
0.0
  0
LWPOLYLINE
  5
119
100
AcDbEntity
  8
0
 62
7
100
AcDbPolyline
 90
3
 70
0
 10
97.650093
 20
138.557332
 30
0.0
 10
97.650093
 20
124.057318
 30
0.0
 10
112.150107
 20
124.057318
 30
0.0
  0
LWPOLYLINE
  5
11a
100
AcDbEntity
  8
0
 62
7
100
AcDbPolyline
 90
2
 70
0
 10
112.150107
 20
138.557332
 30
0.0
 10
97.650093
 20
138.557332
 30
0.0
  0
LWPOLYLINE
  5
11b
100
AcDbEntity
  8
0
 62
7
100
AcDbPolyline
 90
2
 70
0
 10
112.150107
 20
124.057318
 30
0.0
 10
112.150107
 20
138.557332
 30
0.0
  0
LWPOLYLINE
  5
11c
100
AcDbEntity
  8
0
 62
7
100
AcDbPolyline
 90
2
 70
0
 10
28.050027
 20
167.757360
 30
0.0
 10
28.050027
 20
170.357362
 30
0.0
  0
LWPOLYLINE
  5
11d
100
AcDbEntity
  8
0
 62
7
100
AcDbPolyline
 90
2
 70
0
 10
28.950028
 20
176.007368
 30
0.0
 10
31.850030
 20
176.007368
 30
0.0
  0
LWPOLYLINE
  5
11e
100
AcDbEntity
  8
0
 62
7
100
AcDbPolyline
 90
2
 70
0
 10
28.950028
 20
171.257363
 30
0.0
 10
28.050027
 20
170.357362
 30
0.0
  0
LWPOLYLINE
  5
11f
100
AcDbEntity
  8
0
 62
7
100
AcDbPolyline
 90
2
 70
0
 10
28.950028
 20
171.257363
 30
0.0
 10
28.950028
 20
176.007368
 30
0.0
  0
LWPOLYLINE
  5
120
100
AcDbEntity
  8
0
 62
7
100
AcDbPolyline
 90
2
 70
0
 10
28.950028
 20
166.857359
 30
0.0
 10
28.050027
 20
167.757360
 30
0.0
  0
LWPOLYLINE
  5
121
100
AcDbEntity
  8
0
 62
7
100
AcDbPolyline
 90
2
 70
0
 10
28.950028
 20
162.107354
 30
0.0
 10
28.950028
 20
166.857359
 30
0.0
  0
LWPOLYLINE
  5
122
100
AcDbEntity
  8
0
 62
7
100
AcDbPolyline
 90
2
 70
0
 10
31.850030
 20
177.107369
 30
0.0
 10
33.950032
 20
177.107369
 30
0.0
  0
LWPOLYLINE
  5
123
100
AcDbEntity
  8
0
 62
7
100
AcDbPolyline
 90
2
 70
0
 10
31.850030
 20
176.007368
 30
0.0
 10
31.850030
 20
177.107369
 30
0.0
  0
LWPOLYLINE
  5
124
100
AcDbEntity
  8
0
 62
7
100
AcDbPolyline
 90
2
 70
0
 10
31.850030
 20
162.107354
 30
0.0
 10
28.950028
 20
162.107354
 30
0.0
  0
LWPOLYLINE
  5
125
100
AcDbEntity
  8
0
 62
7
100
AcDbPolyline
 90
2
 70
0
 10
31.850030
 20
160.507353
 30
0.0
 10
31.850030
 20
162.107354
 30
0.0
  0
LWPOLYLINE
  5
126
100
AcDbEntity
  8
0
 62
7
100
AcDbPolyline
 90
3
 70
0
 10
33.950032
 20
177.107369
 30
0.0
 10
33.950032
 20
176.007368
 30
0.0
 10
36.850035
 20
176.007368
 30
0.0
  0
LWPOLYLINE
  5
127
100
AcDbEntity
  8
0
 62
7
100
AcDbPolyline
 90
2
 70
0
 10
36.850035
 20
177.107369
 30
0.0
 10
38.950037
 20
177.107369
 30
0.0
  0
LWPOLYLINE
  5
128
100
AcDbEntity
  8
0
 62
7
100
AcDbPolyline
 90
2
 70
0
 10
36.850035
 20
176.007368
 30
0.0
 10
36.850035
 20
177.107369
 30
0.0
  0
LWPOLYLINE
  5
129
100
AcDbEntity
  8
0
 62
7
100
AcDbPolyline
 90
3
 70
0
 10
38.950037
 20
177.107369
 30
0.0
 10
38.950037
 20
176.007368
 30
0.0
 10
41.850040
 20
176.007368
 30
0.0
  0
LWPOLYLINE
  5
12a
100
AcDbEntity
  8
0
 62
7
100
AcDbPolyline
 90
3
 70
0
 10
38.950037
 20
162.107354
 30
0.0
 10
38.950037
 20
160.507353
 30
0.0
 10
31.850030
 20
160.507353
 30
0.0
  0
LWPOLYLINE
  5
12b
100
AcDbEntity
  8
0
 62
7
100
AcDbPolyline
 90
3
 70
0
 10
41.850040
 20
176.007368
 30
0.0
 10
41.850040
 20
171.257363
 30
0.0
 10
42.750041
 20
170.357362
 30
0.0
  0
LWPOLYLINE
  5
12c
100
AcDbEntity
  8
0
 62
7
100
AcDbPolyline
 90
2
 70
0
 10
41.850040
 20
166.857359
 30
0.0
 10
41.850040
 20
162.107354
 30
0.0
  0
LWPOLYLINE
  5
12d
100
AcDbEntity
  8
0
 62
7
100
AcDbPolyline
 90
2
 70
0
 10
41.850040
 20
166.857359
 30
0.0
 10
42.750041
 20
167.757360
 30
0.0
  0
LWPOLYLINE
  5
12e
100
AcDbEntity
  8
0
 62
7
100
AcDbPolyline
 90
2
 70
0
 10
41.850040
 20
162.107354
 30
0.0
 10
38.950037
 20
162.107354
 30
0.0
  0
SPLINE
  5
12f
100
AcDbEntity
  8
0
 62
7
100
AcDbSpline
 70
8
 71
3
 72
8
 73
4
 74
0
 40
0
 40
0
 40
0
 40
0
 40
1
 40
1
 40
1
 40
1
 10
134.950129
 20
175.007367
 30
0.0
 10
134.950129
 20
174.357586
 30
0.0
 10
134.692004
 20
173.734418
 30
0.0
 10
134.232539
 20
173.274953
 30
0.0
  0
SPLINE
  5
130
100
AcDbEntity
  8
0
 62
7
100
AcDbSpline
 70
8
 71
3
 72
8
 73
4
 74
0
 40
0
 40
0
 40
0
 40
0
 40
1
 40
1
 40
1
 40
1
 10
134.232539
 20
173.274953
 30
0.0
 10
133.773075
 20
172.815489
 30
0.0
 10
133.149907
 20
172.557364
 30
0.0
 10
132.500126
 20
172.557364
 30
0.0
  0
SPLINE
  5
131
100
AcDbEntity
  8
0
 62
7
100
AcDbSpline
 70
8
 71
3
 72
8
 73
4
 74
0
 40
0
 40
0
 40
0
 40
0
 40
1
 40
1
 40
1
 40
1
 10
132.500126
 20
172.557364
 30
0.0
 10
131.850345
 20
172.557364
 30
0.0
 10
131.227177
 20
172.815489
 30
0.0
 10
130.767713
 20
173.274953
 30
0.0
  0
SPLINE
  5
132
100
AcDbEntity
  8
0
 62
7
100
AcDbSpline
 70
8
 71
3
 72
8
 73
4
 74
0
 40
0
 40
0
 40
0
 40
0
 40
1
 40
1
 40
1
 40
1
 10
130.767713
 20
173.274953
 30
0.0
 10
130.308248
 20
173.734418
 30
0.0
 10
130.050124
 20
174.357586
 30
0.0
 10
130.050124
 20
175.007367
 30
0.0
  0
SPLINE
  5
133
100
AcDbEntity
  8
0
 62
7
100
AcDbSpline
 70
8
 71
3
 72
8
 73
4
 74
0
 40
0
 40
0
 40
0
 40
0
 40
1
 40
1
 40
1
 40
1
 10
130.050124
 20
175.007367
 30
0.0
 10
130.050124
 20
175.657148
 30
0.0
 10
130.308248
 20
176.280315
 30
0.0
 10
130.767713
 20
176.739780
 30
0.0
  0
SPLINE
  5
134
100
AcDbEntity
  8
0
 62
7
100
AcDbSpline
 70
8
 71
3
 72
8
 73
4
 74
0
 40
0
 40
0
 40
0
 40
0
 40
1
 40
1
 40
1
 40
1
 10
130.767713
 20
176.739780
 30
0.0
 10
131.227177
 20
177.199244
 30
0.0
 10
131.850345
 20
177.457369
 30
0.0
 10
132.500126
 20
177.457369
 30
0.0
  0
SPLINE
  5
135
100
AcDbEntity
  8
0
 62
7
100
AcDbSpline
 70
8
 71
3
 72
8
 73
4
 74
0
 40
0
 40
0
 40
0
 40
0
 40
1
 40
1
 40
1
 40
1
 10
132.500126
 20
177.457369
 30
0.0
 10
133.149907
 20
177.457369
 30
0.0
 10
133.773075
 20
177.199244
 30
0.0
 10
134.232539
 20
176.739780
 30
0.0
  0
SPLINE
  5
136
100
AcDbEntity
  8
0
 62
7
100
AcDbSpline
 70
8
 71
3
 72
8
 73
4
 74
0
 40
0
 40
0
 40
0
 40
0
 40
1
 40
1
 40
1
 40
1
 10
134.232539
 20
176.739780
 30
0.0
 10
134.692004
 20
176.280315
 30
0.0
 10
134.950129
 20
175.657148
 30
0.0
 10
134.950129
 20
175.007367
 30
0.0
  0
LWPOLYLINE
  5
137
100
AcDbEntity
  8
0
 62
7
100
AcDbPolyline
 90
2
 70
0
 10
42.750041
 20
170.357362
 30
0.0
 10
42.750041
 20
167.757360
 30
0.0
  0
LWPOLYLINE
  5
138
100
AcDbEntity
  8
0
 62
7
100
AcDbPolyline
 90
1
 70
1
 10
134.950129
 20
175.007367
 30
0.0
  0
LWPOLYLINE
  5
139
100
AcDbEntity
  8
0
 62
7
100
AcDbPolyline
 90
3
 70
0
 10
80.150076
 20
156.017349
 30
0.0
 10
80.150076
 20
141.517335
 30
0.0
 10
94.650090
 20
141.517335
 30
0.0
  0
LWPOLYLINE
  5
13a
100
AcDbEntity
  8
0
 62
7
100
AcDbPolyline
 90
2
 70
0
 10
94.650090
 20
156.017349
 30
0.0
 10
80.150076
 20
156.017349
 30
0.0
  0
LWPOLYLINE
  5
13b
100
AcDbEntity
  8
0
 62
7
100
AcDbPolyline
 90
2
 70
0
 10
94.650090
 20
141.517335
 30
0.0
 10
94.650090
 20
156.017349
 30
0.0
  0
LWPOLYLINE
  5
13c
100
AcDbEntity
  8
0
 62
7
100
AcDbPolyline
 90
3
 70
0
 10
115.150110
 20
173.557365
 30
0.0
 10
115.150110
 20
159.057351
 30
0.0
 10
129.650123
 20
159.057351
 30
0.0
  0
LWPOLYLINE
  5
13d
100
AcDbEntity
  8
0
 62
7
100
AcDbPolyline
 90
2
 70
0
 10
129.650123
 20
173.557365
 30
0.0
 10
115.150110
 20
173.557365
 30
0.0
  0
LWPOLYLINE
  5
13e
100
AcDbEntity
  8
0
 62
7
100
AcDbPolyline
 90
2
 70
0
 10
129.650123
 20
159.057351
 30
0.0
 10
129.650123
 20
173.557365
 30
0.0
  0
LWPOLYLINE
  5
13f
100
AcDbEntity
  8
0
 62
7
100
AcDbPolyline
 90
3
 70
0
 10
62.650060
 20
173.557365
 30
0.0
 10
62.650060
 20
159.057351
 30
0.0
 10
77.150073
 20
159.057351
 30
0.0
  0
LWPOLYLINE
  5
140
100
AcDbEntity
  8
0
 62
7
100
AcDbPolyline
 90
2
 70
0
 10
77.150073
 20
173.557365
 30
0.0
 10
62.650060
 20
173.557365
 30
0.0
  0
LWPOLYLINE
  5
141
100
AcDbEntity
  8
0
 62
7
100
AcDbPolyline
 90
2
 70
0
 10
77.150073
 20
159.057351
 30
0.0
 10
77.150073
 20
173.557365
 30
0.0
  0
LWPOLYLINE
  5
142
100
AcDbEntity
  8
0
 62
7
100
AcDbPolyline
 90
3
 70
0
 10
80.150076
 20
138.557332
 30
0.0
 10
80.150076
 20
124.057318
 30
0.0
 10
94.650090
 20
124.057318
 30
0.0
  0
LWPOLYLINE
  5
143
100
AcDbEntity
  8
0
 62
7
100
AcDbPolyline
 90
2
 70
0
 10
94.650090
 20
138.557332
 30
0.0
 10
80.150076
 20
138.557332
 30
0.0
  0
LWPOLYLINE
  5
144
100
AcDbEntity
  8
0
 62
7
100
AcDbPolyline
 90
2
 70
0
 10
94.650090
 20
124.057318
 30
0.0
 10
94.650090
 20
138.557332
 30
0.0
  0
LWPOLYLINE
  5
145
100
AcDbEntity
  8
0
 62
7
100
AcDbPolyline
 90
3
 70
0
 10
62.650060
 20
138.557332
 30
0.0
 10
62.650060
 20
124.057318
 30
0.0
 10
77.150073
 20
124.057318
 30
0.0
  0
LWPOLYLINE
  5
146
100
AcDbEntity
  8
0
 62
7
100
AcDbPolyline
 90
2
 70
0
 10
77.150073
 20
138.557332
 30
0.0
 10
62.650060
 20
138.557332
 30
0.0
  0
LWPOLYLINE
  5
147
100
AcDbEntity
  8
0
 62
7
100
AcDbPolyline
 90
2
 70
0
 10
77.150073
 20
124.057318
 30
0.0
 10
77.150073
 20
138.557332
 30
0.0
  0
LWPOLYLINE
  5
148
100
AcDbEntity
  8
0
 62
7
100
AcDbPolyline
 90
3
 70
0
 10
45.150043
 20
138.557332
 30
0.0
 10
45.150043
 20
124.057318
 30
0.0
 10
59.650057
 20
124.057318
 30
0.0
  0
LWPOLYLINE
  5
149
100
AcDbEntity
  8
0
 62
7
100
AcDbPolyline
 90
2
 70
0
 10
59.650057
 20
138.557332
 30
0.0
 10
45.150043
 20
138.557332
 30
0.0
  0
LWPOLYLINE
  5
14a
100
AcDbEntity
  8
0
 62
7
100
AcDbPolyline
 90
2
 70
0
 10
59.650057
 20
124.057318
 30
0.0
 10
59.650057
 20
138.557332
 30
0.0
  0
LWPOLYLINE
  5
14b
100
AcDbEntity
  8
0
 62
7
100
AcDbPolyline
 90
3
 70
0
 10
97.650093
 20
156.017349
 30
0.0
 10
97.650093
 20
141.517335
 30
0.0
 10
112.150107
 20
141.517335
 30
0.0
  0
LWPOLYLINE
  5
14c
100
AcDbEntity
  8
0
 62
7
100
AcDbPolyline
 90
2
 70
0
 10
112.150107
 20
156.017349
 30
0.0
 10
97.650093
 20
156.017349
 30
0.0
  0
LWPOLYLINE
  5
14d
100
AcDbEntity
  8
0
 62
7
100
AcDbPolyline
 90
2
 70
0
 10
112.150107
 20
141.517335
 30
0.0
 10
112.150107
 20
156.017349
 30
0.0
  0
LWPOLYLINE
  5
14e
100
AcDbEntity
  8
0
 62
7
100
AcDbPolyline
 90
3
 70
0
 10
80.150076
 20
173.557365
 30
0.0
 10
80.150076
 20
159.057351
 30
0.0
 10
94.650090
 20
159.057351
 30
0.0
  0
LWPOLYLINE
  5
14f
100
AcDbEntity
  8
0
 62
7
100
AcDbPolyline
 90
2
 70
0
 10
94.650090
 20
173.557365
 30
0.0
 10
80.150076
 20
173.557365
 30
0.0
  0
SPLINE
  5
150
100
AcDbEntity
  8
0
 62
7
100
AcDbSpline
 70
8
 71
3
 72
8
 73
4
 74
0
 40
0
 40
0
 40
0
 40
0
 40
1
 40
1
 40
1
 40
1
 10
27.450026
 20
175.007367
 30
0.0
 10
27.450026
 20
174.357586
 30
0.0
 10
27.191902
 20
173.734418
 30
0.0
 10
26.732437
 20
173.274953
 30
0.0
  0
SPLINE
  5
151
100
AcDbEntity
  8
0
 62
7
100
AcDbSpline
 70
8
 71
3
 72
8
 73
4
 74
0
 40
0
 40
0
 40
0
 40
0
 40
1
 40
1
 40
1
 40
1
 10
26.732437
 20
173.274953
 30
0.0
 10
26.272973
 20
172.815489
 30
0.0
 10
25.649805
 20
172.557364
 30
0.0
 10
25.000024
 20
172.557364
 30
0.0
  0
SPLINE
  5
152
100
AcDbEntity
  8
0
 62
7
100
AcDbSpline
 70
8
 71
3
 72
8
 73
4
 74
0
 40
0
 40
0
 40
0
 40
0
 40
1
 40
1
 40
1
 40
1
 10
25.000024
 20
172.557364
 30
0.0
 10
23.646925
 20
172.557364
 30
0.0
 10
22.550021
 20
173.654268
 30
0.0
 10
22.550021
 20
175.007367
 30
0.0
  0
SPLINE
  5
153
100
AcDbEntity
  8
0
 62
7
100
AcDbSpline
 70
8
 71
3
 72
8
 73
4
 74
0
 40
0
 40
0
 40
0
 40
0
 40
1
 40
1
 40
1
 40
1
 10
22.550021
 20
175.007367
 30
0.0
 10
22.550021
 20
176.360466
 30
0.0
 10
23.646925
 20
177.457369
 30
0.0
 10
25.000024
 20
177.457369
 30
0.0
  0
SPLINE
  5
154
100
AcDbEntity
  8
0
 62
7
100
AcDbSpline
 70
8
 71
3
 72
8
 73
4
 74
0
 40
0
 40
0
 40
0
 40
0
 40
1
 40
1
 40
1
 40
1
 10
25.000024
 20
177.457369
 30
0.0
 10
25.649805
 20
177.457369
 30
0.0
 10
26.272973
 20
177.199244
 30
0.0
 10
26.732437
 20
176.739780
 30
0.0
  0
SPLINE
  5
155
100
AcDbEntity
  8
0
 62
7
100
AcDbSpline
 70
8
 71
3
 72
8
 73
4
 74
0
 40
0
 40
0
 40
0
 40
0
 40
1
 40
1
 40
1
 40
1
 10
26.732437
 20
176.739780
 30
0.0
 10
27.191902
 20
176.280315
 30
0.0
 10
27.450026
 20
175.657148
 30
0.0
 10
27.450026
 20
175.007367
 30
0.0
  0
LWPOLYLINE
  5
156
100
AcDbEntity
  8
0
 62
7
100
AcDbPolyline
 90
2
 70
0
 10
94.650090
 20
159.057351
 30
0.0
 10
94.650090
 20
173.557365
 30
0.0
  0
SPLINE
  5
157
100
AcDbEntity
  8
0
 62
7
100
AcDbSpline
 70
8
 71
3
 72
8
 73
4
 74
0
 40
0
 40
0
 40
0
 40
0
 40
1
 40
1
 40
1
 40
1
 10
134.950129
 20
122.507317
 30
0.0
 10
134.950129
 20
121.857536
 30
0.0
 10
134.692004
 20
121.234368
 30
0.0
 10
134.232539
 20
120.774903
 30
0.0
  0
SPLINE
  5
158
100
AcDbEntity
  8
0
 62
7
100
AcDbSpline
 70
8
 71
3
 72
8
 73
4
 74
0
 40
0
 40
0
 40
0
 40
0
 40
1
 40
1
 40
1
 40
1
 10
134.232539
 20
120.774903
 30
0.0
 10
133.773075
 20
120.315439
 30
0.0
 10
133.149907
 20
120.057314
 30
0.0
 10
132.500126
 20
120.057314
 30
0.0
  0
SPLINE
  5
159
100
AcDbEntity
  8
0
 62
7
100
AcDbSpline
 70
8
 71
3
 72
8
 73
4
 74
0
 40
0
 40
0
 40
0
 40
0
 40
1
 40
1
 40
1
 40
1
 10
132.500126
 20
120.057314
 30
0.0
 10
131.850345
 20
120.057314
 30
0.0
 10
131.227177
 20
120.315439
 30
0.0
 10
130.767713
 20
120.774903
 30
0.0
  0
SPLINE
  5
15a
100
AcDbEntity
  8
0
 62
7
100
AcDbSpline
 70
8
 71
3
 72
8
 73
4
 74
0
 40
0
 40
0
 40
0
 40
0
 40
1
 40
1
 40
1
 40
1
 10
130.767713
 20
120.774903
 30
0.0
 10
130.308248
 20
121.234368
 30
0.0
 10
130.050124
 20
121.857536
 30
0.0
 10
130.050124
 20
122.507317
 30
0.0
  0
SPLINE
  5
15b
100
AcDbEntity
  8
0
 62
7
100
AcDbSpline
 70
8
 71
3
 72
8
 73
4
 74
0
 40
0
 40
0
 40
0
 40
0
 40
1
 40
1
 40
1
 40
1
 10
130.050124
 20
122.507317
 30
0.0
 10
130.050124
 20
123.157098
 30
0.0
 10
130.308248
 20
123.780265
 30
0.0
 10
130.767713
 20
124.239730
 30
0.0
  0
SPLINE
  5
15c
100
AcDbEntity
  8
0
 62
7
100
AcDbSpline
 70
8
 71
3
 72
8
 73
4
 74
0
 40
0
 40
0
 40
0
 40
0
 40
1
 40
1
 40
1
 40
1
 10
130.767713
 20
124.239730
 30
0.0
 10
131.227177
 20
124.699194
 30
0.0
 10
131.850345
 20
124.957319
 30
0.0
 10
132.500126
 20
124.957319
 30
0.0
  0
SPLINE
  5
15d
100
AcDbEntity
  8
0
 62
7
100
AcDbSpline
 70
8
 71
3
 72
8
 73
4
 74
0
 40
0
 40
0
 40
0
 40
0
 40
1
 40
1
 40
1
 40
1
 10
132.500126
 20
124.957319
 30
0.0
 10
133.149907
 20
124.957319
 30
0.0
 10
133.773075
 20
124.699194
 30
0.0
 10
134.232539
 20
124.239730
 30
0.0
  0
SPLINE
  5
15e
100
AcDbEntity
  8
0
 62
7
100
AcDbSpline
 70
8
 71
3
 72
8
 73
4
 74
0
 40
0
 40
0
 40
0
 40
0
 40
1
 40
1
 40
1
 40
1
 10
134.232539
 20
124.239730
 30
0.0
 10
134.692004
 20
123.780265
 30
0.0
 10
134.950129
 20
123.157098
 30
0.0
 10
134.950129
 20
122.507317
 30
0.0
  0
LWPOLYLINE
  5
15f
100
AcDbEntity
  8
0
 62
7
100
AcDbPolyline
 90
1
 70
1
 10
27.450026
 20
175.007367
 30
0.0
  0
LWPOLYLINE
  5
160
100
AcDbEntity
  8
0
 62
7
100
AcDbPolyline
 90
1
 70
1
 10
134.950129
 20
122.507317
 30
0.0
  0
LWPOLYLINE
  5
161
100
AcDbEntity
  8
0
 62
7
100
AcDbPolyline
 90
3
 70
0
 10
115.150110
 20
156.017349
 30
0.0
 10
115.150110
 20
141.517335
 30
0.0
 10
129.650123
 20
141.517335
 30
0.0
  0
LWPOLYLINE
  5
162
100
AcDbEntity
  8
0
 62
7
100
AcDbPolyline
 90
2
 70
0
 10
129.650123
 20
156.017349
 30
0.0
 10
115.150110
 20
156.017349
 30
0.0
  0
SPLINE
  5
163
100
AcDbEntity
  8
0
 62
7
100
AcDbSpline
 70
8
 71
3
 72
8
 73
4
 74
0
 40
0
 40
0
 40
0
 40
0
 40
1
 40
1
 40
1
 40
1
 10
21.500020
 20
143.007336
 30
0.0
 10
21.102195
 20
143.007336
 30
0.0
 10
20.720664
 20
142.849301
 30
0.0
 10
20.439359
 20
142.567996
 30
0.0
  0
SPLINE
  5
164
100
AcDbEntity
  8
0
 62
7
100
AcDbSpline
 70
8
 71
3
 72
8
 73
4
 74
0
 40
0
 40
0
 40
0
 40
0
 40
1
 40
1
 40
1
 40
1
 10
20.439359
 20
142.567996
 30
0.0
 10
20.158054
 20
142.286691
 30
0.0
 10
20.000019
 20
141.905160
 30
0.0
 10
20.000019
 20
141.507335
 30
0.0
  0
SPLINE
  5
165
100
AcDbEntity
  8
0
 62
7
100
AcDbSpline
 70
8
 71
3
 72
8
 73
4
 74
0
 40
0
 40
0
 40
0
 40
0
 40
1
 40
1
 40
1
 40
1
 10
39.500038
 20
143.007336
 30
0.0
 10
39.897863
 20
143.007336
 30
0.0
 10
40.279394
 20
143.165372
 30
0.0
 10
40.560699
 20
143.446676
 30
0.0
  0
SPLINE
  5
166
100
AcDbEntity
  8
0
 62
7
100
AcDbSpline
 70
8
 71
3
 72
8
 73
4
 74
0
 40
0
 40
0
 40
0
 40
0
 40
1
 40
1
 40
1
 40
1
 10
40.560699
 20
143.446676
 30
0.0
 10
40.842004
 20
143.727981
 30
0.0
 10
41.000039
 20
144.109513
 30
0.0
 10
41.000039
 20
144.507338
 30
0.0
  0
SPLINE
  5
167
100
AcDbEntity
  8
0
 62
7
100
AcDbSpline
 70
8
 71
3
 72
8
 73
4
 74
0
 40
0
 40
0
 40
0
 40
0
 40
1
 40
1
 40
1
 40
1
 10
136.000130
 20
117.507312
 30
0.0
 10
136.397955
 20
117.507312
 30
0.0
 10
136.779486
 20
117.665347
 30
0.0
 10
137.060791
 20
117.946652
 30
0.0
  0
SPLINE
  5
168
100
AcDbEntity
  8
0
 62
7
100
AcDbSpline
 70
8
 71
3
 72
8
 73
4
 74
0
 40
0
 40
0
 40
0
 40
0
 40
1
 40
1
 40
1
 40
1
 10
137.060791
 20
117.946652
 30
0.0
 10
137.342096
 20
118.227957
 30
0.0
 10
137.500131
 20
118.609488
 30
0.0
 10
137.500131
 20
119.007313
 30
0.0
  0
SPLINE
  5
169
100
AcDbEntity
  8
0
 62
7
100
AcDbSpline
 70
8
 71
3
 72
8
 73
4
 74
0
 40
0
 40
0
 40
0
 40
0
 40
1
 40
1
 40
1
 40
1
 10
21.500020
 20
180.007371
 30
0.0
 10
21.102195
 20
180.007371
 30
0.0
 10
20.720664
 20
179.849336
 30
0.0
 10
20.439359
 20
179.568031
 30
0.0
  0
SPLINE
  5
16a
100
AcDbEntity
  8
0
 62
7
100
AcDbSpline
 70
8
 71
3
 72
8
 73
4
 74
0
 40
0
 40
0
 40
0
 40
0
 40
1
 40
1
 40
1
 40
1
 10
20.439359
 20
179.568031
 30
0.0
 10
20.158054
 20
179.286726
 30
0.0
 10
20.000019
 20
178.905195
 30
0.0
 10
20.000019
 20
178.507370
 30
0.0
  0
LWPOLYLINE
  5
16b
100
AcDbEntity
  8
0
 62
7
100
AcDbPolyline
 90
2
 70
0
 10
129.650123
 20
141.517335
 30
0.0
 10
129.650123
 20
156.017349
 30
0.0
  0
SPLINE
  5
16c
100
AcDbEntity
  8
0
 62
7
100
AcDbSpline
 70
8
 71
3
 72
8
 73
4
 74
0
 40
0
 40
0
 40
0
 40
0
 40
1
 40
1
 40
1
 40
1
 10
137.500131
 20
178.507370
 30
0.0
 10
137.500131
 20
178.905195
 30
0.0
 10
137.342096
 20
179.286726
 30
0.0
 10
137.060791
 20
179.568031
 30
0.0
  0
SPLINE
  5
16d
100
AcDbEntity
  8
0
 62
7
100
AcDbSpline
 70
8
 71
3
 72
8
 73
4
 74
0
 40
0
 40
0
 40
0
 40
0
 40
1
 40
1
 40
1
 40
1
 10
137.060791
 20
179.568031
 30
0.0
 10
136.779486
 20
179.849336
 30
0.0
 10
136.397955
 20
180.007371
 30
0.0
 10
136.000130
 20
180.007371
 30
0.0
  0
LWPOLYLINE
  5
16e
100
AcDbEntity
  8
0
 62
7
100
AcDbPolyline
 90
2
 70
0
 10
41.000039
 20
144.507338
 30
0.0
 10
41.000039
 20
154.257347
 30
0.0
  0
LWPOLYLINE
  5
16f
100
AcDbEntity
  8
0
 62
7
100
AcDbPolyline
 90
2
 70
0
 10
21.500020
 20
180.007371
 30
0.0
 10
136.000130
 20
180.007371
 30
0.0
  0
SPLINE
  5
170
100
AcDbEntity
  8
0
 62
7
100
AcDbSpline
 70
8
 71
3
 72
8
 73
4
 74
0
 40
0
 40
0
 40
0
 40
0
 40
1
 40
1
 40
1
 40
1
 10
20.000019
 20
119.007313
 30
0.0
 10
20.000019
 20
118.609488
 30
0.0
 10
20.158054
 20
118.227957
 30
0.0
 10
20.439359
 20
117.946652
 30
0.0
  0
SPLINE
  5
171
100
AcDbEntity
  8
0
 62
7
100
AcDbSpline
 70
8
 71
3
 72
8
 73
4
 74
0
 40
0
 40
0
 40
0
 40
0
 40
1
 40
1
 40
1
 40
1
 10
20.439359
 20
117.946652
 30
0.0
 10
20.720664
 20
117.665347
 30
0.0
 10
21.102195
 20
117.507312
 30
0.0
 10
21.500020
 20
117.507312
 30
0.0
  0
SPLINE
  5
172
100
AcDbEntity
  8
0
 62
7
100
AcDbSpline
 70
8
 71
3
 72
8
 73
4
 74
0
 40
0
 40
0
 40
0
 40
0
 40
1
 40
1
 40
1
 40
1
 10
20.000019
 20
157.257350
 30
0.0
 10
20.000019
 20
156.859525
 30
0.0
 10
20.158054
 20
156.477993
 30
0.0
 10
20.439359
 20
156.196689
 30
0.0
  0
SPLINE
  5
173
100
AcDbEntity
  8
0
 62
7
100
AcDbSpline
 70
8
 71
3
 72
8
 73
4
 74
0
 40
0
 40
0
 40
0
 40
0
 40
1
 40
1
 40
1
 40
1
 10
20.439359
 20
156.196689
 30
0.0
 10
20.720664
 20
155.915384
 30
0.0
 10
21.102195
 20
155.757348
 30
0.0
 10
21.500020
 20
155.757348
 30
0.0
  0
SPLINE
  5
174
100
AcDbEntity
  8
0
 62
7
100
AcDbSpline
 70
8
 71
3
 72
8
 73
4
 74
0
 40
0
 40
0
 40
0
 40
0
 40
1
 40
1
 40
1
 40
1
 10
41.000039
 20
154.257347
 30
0.0
 10
41.000039
 20
154.655172
 30
0.0
 10
40.842004
 20
155.036703
 30
0.0
 10
40.560699
 20
155.318008
 30
0.0
  0
SPLINE
  5
175
100
AcDbEntity
  8
0
 62
7
100
AcDbSpline
 70
8
 71
3
 72
8
 73
4
 74
0
 40
0
 40
0
 40
0
 40
0
 40
1
 40
1
 40
1
 40
1
 10
40.560699
 20
155.318008
 30
0.0
 10
40.279394
 20
155.599313
 30
0.0
 10
39.897863
 20
155.757348
 30
0.0
 10
39.500038
 20
155.757348
 30
0.0
  0
LWPOLYLINE
  5
176
100
AcDbEntity
  8
0
 62
7
100
AcDbPolyline
 90
2
 70
0
 10
137.500131
 20
178.507370
 30
0.0
 10
137.500131
 20
119.007313
 30
0.0
  0
LWPOLYLINE
  5
177
100
AcDbEntity
  8
0
 62
7
100
AcDbPolyline
 90
2
 70
0
 10
39.500038
 20
155.757348
 30
0.0
 10
21.500020
 20
155.757348
 30
0.0
  0
LWPOLYLINE
  5
178
100
AcDbEntity
  8
0
 62
7
100
AcDbPolyline
 90
2
 70
0
 10
20.000019
 20
157.257350
 30
0.0
 10
20.000019
 20
178.507370
 30
0.0
  0
LWPOLYLINE
  5
179
100
AcDbEntity
  8
0
 62
7
100
AcDbPolyline
 90
2
 70
0
 10
20.000019
 20
119.007313
 30
0.0
 10
20.000019
 20
141.507335
 30
0.0
  0
LWPOLYLINE
  5
17a
100
AcDbEntity
  8
0
 62
7
100
AcDbPolyline
 90
2
 70
0
 10
21.500020
 20
143.007336
 30
0.0
 10
39.500038
 20
143.007336
 30
0.0
  0
LWPOLYLINE
  5
17b
100
AcDbEntity
  8
0
 62
7
100
AcDbPolyline
 90
2
 70
0
 10
136.000130
 20
117.507312
 30
0.0
 10
21.500020
 20
117.507312
 30
0.0
  0
ENDSEC
  0
SECTION
  2
OBJECTS
  0
DICTIONARY
  5
C
330
0
100
AcDbDictionary
  3
ACAD_GROUP
350
D
  3
ACAD_MLINESTYLE
350
17
  0
DICTIONARY
  5
D
330
C
100
AcDbDictionary
  0
DICTIONARY
  5
1A
330
C
100
AcDbDictionary
  0
DICTIONARY
  5
17
330
C
100
AcDbDictionary
  3
STANDARD
350
18
  0
DICTIONARY
  5
19
330
C
100
AcDbDictionary
  0
ENDSEC
  0
EOF
